G75*
%MOIN*%
%OFA0B0*%
%FSLAX26Y26*%
%IPPOS*%
%LPD*%
%AMOC8*
5,1,8,0,0,1.08239X$1,22.5*
%
%ADD10R,0.062992X0.118110*%
%ADD11R,0.043307X0.039370*%
%ADD12C,0.052000*%
%ADD13C,0.060000*%
%ADD14C,0.070866*%
%ADD15C,0.016000*%
%ADD16C,0.053150*%
D10*
X00150000Y01363386D03*
X00150000Y01536614D03*
D11*
X00150000Y01183465D03*
X00150000Y01116535D03*
X00116535Y00950000D03*
X00183465Y00950000D03*
X00183465Y00350000D03*
X00116535Y00350000D03*
X01400000Y02266535D03*
X01400000Y02333465D03*
X01500000Y02333465D03*
X01500000Y02266535D03*
X01600000Y02266535D03*
X01600000Y02333465D03*
X01700000Y02333465D03*
X01700000Y02266535D03*
X01800000Y02266535D03*
X01800000Y02333465D03*
X01900000Y02333465D03*
X01900000Y02266535D03*
X02000000Y02266535D03*
X02000000Y02333465D03*
X02100000Y02333465D03*
X02100000Y02266535D03*
D12*
X00976000Y02300000D02*
X00924000Y02300000D01*
X00924000Y02200000D02*
X00976000Y02200000D01*
X00976000Y02100000D02*
X00924000Y02100000D01*
X00924000Y02000000D02*
X00976000Y02000000D01*
X00976000Y01900000D02*
X00924000Y01900000D01*
X00924000Y01800000D02*
X00976000Y01800000D01*
X00976000Y01700000D02*
X00924000Y01700000D01*
X00924000Y01600000D02*
X00976000Y01600000D01*
X00976000Y01500000D02*
X00924000Y01500000D01*
X00924000Y01400000D02*
X00976000Y01400000D01*
X00976000Y01300000D02*
X00924000Y01300000D01*
X00924000Y01200000D02*
X00976000Y01200000D01*
X00976000Y01100000D02*
X00924000Y01100000D01*
X00924000Y01000000D02*
X00976000Y01000000D01*
X00976000Y00900000D02*
X00924000Y00900000D01*
X00924000Y00800000D02*
X00976000Y00800000D01*
X00976000Y00700000D02*
X00924000Y00700000D01*
X00924000Y00600000D02*
X00976000Y00600000D01*
X00976000Y00500000D02*
X00924000Y00500000D01*
X00376000Y00500000D02*
X00324000Y00500000D01*
X00324000Y00600000D02*
X00376000Y00600000D01*
X00376000Y00700000D02*
X00324000Y00700000D01*
X00324000Y00800000D02*
X00376000Y00800000D01*
X00376000Y00900000D02*
X00324000Y00900000D01*
X00324000Y01000000D02*
X00376000Y01000000D01*
X00376000Y01100000D02*
X00324000Y01100000D01*
X00324000Y01200000D02*
X00376000Y01200000D01*
X00376000Y01300000D02*
X00324000Y01300000D01*
X00324000Y01400000D02*
X00376000Y01400000D01*
X00376000Y01500000D02*
X00324000Y01500000D01*
X00324000Y01600000D02*
X00376000Y01600000D01*
X00376000Y01700000D02*
X00324000Y01700000D01*
X00324000Y01800000D02*
X00376000Y01800000D01*
X00376000Y01900000D02*
X00324000Y01900000D01*
X00324000Y02000000D02*
X00376000Y02000000D01*
X00376000Y02100000D02*
X00324000Y02100000D01*
X00324000Y02200000D02*
X00376000Y02200000D01*
X00376000Y02300000D02*
X00324000Y02300000D01*
X00324000Y02400000D02*
X00376000Y02400000D01*
X00924000Y02400000D02*
X00976000Y02400000D01*
D13*
X01211000Y02158000D02*
X01211000Y02098000D01*
X01389000Y02098000D02*
X01389000Y02158000D01*
X01511000Y02158000D02*
X01511000Y02098000D01*
X01689000Y02098000D02*
X01689000Y02158000D01*
X01811000Y02158000D02*
X01811000Y02098000D01*
X01989000Y02098000D02*
X01989000Y02158000D01*
X02111000Y02158000D02*
X02111000Y02098000D01*
X02289000Y02098000D02*
X02289000Y02158000D01*
X02289000Y01902000D02*
X02289000Y01842000D01*
X02289000Y01708000D02*
X02289000Y01648000D01*
X02111000Y01648000D02*
X02111000Y01708000D01*
X01989000Y01708000D02*
X01989000Y01648000D01*
X01811000Y01648000D02*
X01811000Y01708000D01*
X01689000Y01708000D02*
X01689000Y01648000D01*
X01511000Y01648000D02*
X01511000Y01708000D01*
X01389000Y01708000D02*
X01389000Y01648000D01*
X01211000Y01648000D02*
X01211000Y01708000D01*
X01211000Y01842000D02*
X01211000Y01902000D01*
X01389000Y01902000D02*
X01389000Y01842000D01*
X01511000Y01842000D02*
X01511000Y01902000D01*
X01689000Y01902000D02*
X01689000Y01842000D01*
X01811000Y01842000D02*
X01811000Y01902000D01*
X01989000Y01902000D02*
X01989000Y01842000D01*
X02111000Y01842000D02*
X02111000Y01902000D01*
X02111000Y01452000D02*
X02111000Y01392000D01*
X01989000Y01392000D02*
X01989000Y01452000D01*
X01811000Y01452000D02*
X01811000Y01392000D01*
X01689000Y01392000D02*
X01689000Y01452000D01*
X01511000Y01452000D02*
X01511000Y01392000D01*
X01389000Y01392000D02*
X01389000Y01452000D01*
X01211000Y01452000D02*
X01211000Y01392000D01*
X01211000Y01258000D02*
X01211000Y01198000D01*
X01389000Y01198000D02*
X01389000Y01258000D01*
X01511000Y01258000D02*
X01511000Y01198000D01*
X01689000Y01198000D02*
X01689000Y01258000D01*
X01811000Y01258000D02*
X01811000Y01198000D01*
X01989000Y01198000D02*
X01989000Y01258000D01*
X02111000Y01258000D02*
X02111000Y01198000D01*
X02289000Y01198000D02*
X02289000Y01258000D01*
X02289000Y01392000D02*
X02289000Y01452000D01*
X02289000Y01002000D02*
X02289000Y00942000D01*
X02289000Y00858000D02*
X02289000Y00798000D01*
X02111000Y00798000D02*
X02111000Y00858000D01*
X02111000Y00942000D02*
X02111000Y01002000D01*
X01989000Y01002000D02*
X01989000Y00942000D01*
X01989000Y00858000D02*
X01989000Y00798000D01*
X01811000Y00798000D02*
X01811000Y00858000D01*
X01811000Y00942000D02*
X01811000Y01002000D01*
X01689000Y01002000D02*
X01689000Y00942000D01*
X01689000Y00858000D02*
X01689000Y00798000D01*
X01511000Y00798000D02*
X01511000Y00858000D01*
X01511000Y00942000D02*
X01511000Y01002000D01*
X01389000Y01002000D02*
X01389000Y00942000D01*
X01389000Y00858000D02*
X01389000Y00798000D01*
X01211000Y00798000D02*
X01211000Y00858000D01*
X01211000Y00942000D02*
X01211000Y01002000D01*
X01211000Y00602000D02*
X01211000Y00542000D01*
X01389000Y00542000D02*
X01389000Y00602000D01*
X01511000Y00602000D02*
X01511000Y00542000D01*
X01689000Y00542000D02*
X01689000Y00602000D01*
X01811000Y00602000D02*
X01811000Y00542000D01*
X01989000Y00542000D02*
X01989000Y00602000D01*
X02111000Y00602000D02*
X02111000Y00542000D01*
X02289000Y00542000D02*
X02289000Y00602000D01*
X00708000Y00339000D02*
X00648000Y00339000D01*
X00648000Y00161000D02*
X00708000Y00161000D01*
X00452000Y00161000D02*
X00392000Y00161000D01*
X00392000Y00339000D02*
X00452000Y00339000D01*
X00130000Y01700000D02*
X00070000Y01700000D01*
X00070000Y01800000D02*
X00130000Y01800000D01*
X00130000Y01900000D02*
X00070000Y01900000D01*
X00070000Y02000000D02*
X00130000Y02000000D01*
X00130000Y02100000D02*
X00070000Y02100000D01*
X00070000Y02200000D02*
X00130000Y02200000D01*
X00130000Y02300000D02*
X00070000Y02300000D01*
X00070000Y02400000D02*
X00130000Y02400000D01*
D14*
X00150000Y00745000D03*
X00150000Y00555000D03*
D15*
X00048000Y00368059D02*
X00048000Y00050000D01*
X02389008Y00050000D01*
X02389008Y02600000D01*
X00048000Y02600000D01*
X00048000Y02440677D01*
X00060850Y02446000D01*
X00139150Y02446000D01*
X00156057Y02438997D01*
X00168997Y02426057D01*
X00176000Y02409150D01*
X00176000Y02390850D01*
X00168997Y02373943D01*
X00156057Y02361003D01*
X00139150Y02354000D01*
X00060850Y02354000D01*
X00048000Y02359323D01*
X00048000Y02340677D01*
X00060850Y02346000D01*
X00139150Y02346000D01*
X00156057Y02338997D01*
X00168997Y02326057D01*
X00176000Y02309150D01*
X00176000Y02290850D01*
X00168997Y02273943D01*
X00156057Y02261003D01*
X00139150Y02254000D01*
X00060850Y02254000D01*
X00048000Y02259323D01*
X00048000Y02240677D01*
X00060850Y02246000D01*
X00139150Y02246000D01*
X00156057Y02238997D01*
X00168997Y02226057D01*
X00176000Y02209150D01*
X00176000Y02190850D01*
X00168997Y02173943D01*
X00156057Y02161003D01*
X00139150Y02154000D01*
X00060850Y02154000D01*
X00048000Y02159323D01*
X00048000Y02140677D01*
X00060850Y02146000D01*
X00139150Y02146000D01*
X00156057Y02138997D01*
X00168997Y02126057D01*
X00176000Y02109150D01*
X00176000Y02090850D01*
X00168997Y02073943D01*
X00156057Y02061003D01*
X00139150Y02054000D01*
X00060850Y02054000D01*
X00048000Y02059323D01*
X00048000Y02040677D01*
X00060850Y02046000D01*
X00139150Y02046000D01*
X00156057Y02038997D01*
X00168997Y02026057D01*
X00176000Y02009150D01*
X00176000Y01990850D01*
X00168997Y01973943D01*
X00156057Y01961003D01*
X00139150Y01954000D01*
X00060850Y01954000D01*
X00048000Y01959323D01*
X00048000Y01940677D01*
X00060850Y01946000D01*
X00139150Y01946000D01*
X00156057Y01938997D01*
X00168997Y01926057D01*
X00176000Y01909150D01*
X00176000Y01890850D01*
X00168997Y01873943D01*
X00156057Y01861003D01*
X00139150Y01854000D01*
X00060850Y01854000D01*
X00048000Y01859323D01*
X00048000Y01840677D01*
X00060850Y01846000D01*
X00139150Y01846000D01*
X00156057Y01838997D01*
X00168997Y01826057D01*
X00176000Y01809150D01*
X00176000Y01790850D01*
X00168997Y01773943D01*
X00156057Y01761003D01*
X00139150Y01754000D01*
X00060850Y01754000D01*
X00048000Y01759323D01*
X00048000Y01740677D01*
X00060850Y01746000D01*
X00139150Y01746000D01*
X00156057Y01738997D01*
X00168997Y01726057D01*
X00176000Y01709150D01*
X00176000Y01690850D01*
X00168997Y01673943D01*
X00156057Y01661003D01*
X00139150Y01654000D01*
X00060850Y01654000D01*
X00048000Y01659323D01*
X00048000Y01431941D01*
X00102504Y01486445D01*
X00102504Y01602297D01*
X00111876Y01611669D01*
X00188123Y01611669D01*
X00197496Y01602297D01*
X00197496Y01574000D01*
X00240059Y01574000D01*
X00279654Y01613595D01*
X00286405Y01620346D01*
X00287084Y01620627D01*
X00288394Y01623791D01*
X00300209Y01635606D01*
X00315646Y01642000D01*
X00384354Y01642000D01*
X00399791Y01635606D01*
X00411606Y01623791D01*
X00418000Y01608354D01*
X00418000Y01591646D01*
X00411606Y01576209D01*
X00409397Y01574000D01*
X00726000Y01574000D01*
X00726000Y02254774D01*
X00729654Y02263595D01*
X00879654Y02413595D01*
X00886405Y02420346D01*
X00887084Y02420627D01*
X00888394Y02423791D01*
X00900209Y02435606D01*
X00915646Y02442000D01*
X00984354Y02442000D01*
X00999791Y02435606D01*
X01011397Y02424000D01*
X01154774Y02424000D01*
X01163595Y02420346D01*
X01209941Y02374000D01*
X01226000Y02374000D01*
X01226000Y02454774D01*
X01229654Y02463595D01*
X01236405Y02470346D01*
X01245226Y02474000D01*
X01290059Y02474000D01*
X01329654Y02513595D01*
X01336405Y02520346D01*
X01345226Y02524000D01*
X01354774Y02524000D01*
X01363595Y02520346D01*
X01509941Y02374000D01*
X01690059Y02374000D01*
X01726000Y02409941D01*
X01726000Y02454774D01*
X01729654Y02463595D01*
X01736405Y02470346D01*
X01807474Y02541415D01*
X01807425Y02541531D01*
X01807425Y02558469D01*
X01813907Y02574117D01*
X01825883Y02586093D01*
X01841531Y02592575D01*
X01858469Y02592575D01*
X01874117Y02586093D01*
X01886093Y02574117D01*
X01892575Y02558469D01*
X01892575Y02541531D01*
X01886093Y02525883D01*
X01884210Y02524000D01*
X01954774Y02524000D01*
X01963595Y02520346D01*
X01970346Y02513595D01*
X02009941Y02474000D01*
X02054774Y02474000D01*
X02063595Y02470346D01*
X02070346Y02463595D01*
X02109941Y02424000D01*
X02154774Y02424000D01*
X02163595Y02420346D01*
X02170346Y02413595D01*
X02170346Y02413595D01*
X02320346Y02263595D01*
X02324000Y02254774D01*
X02324000Y02188054D01*
X02327997Y02184057D01*
X02335000Y02167150D01*
X02335000Y02088850D01*
X02327997Y02071943D01*
X02315057Y02059003D01*
X02298150Y02052000D01*
X02279850Y02052000D01*
X02262943Y02059003D01*
X02250003Y02071943D01*
X02243000Y02088850D01*
X02243000Y02167150D01*
X02250003Y02184057D01*
X02262943Y02196997D01*
X02276000Y02202405D01*
X02276000Y02240059D01*
X02140059Y02376000D01*
X02107941Y02376000D01*
X02113595Y02370346D01*
X02114791Y02369149D01*
X02128281Y02369149D01*
X02137653Y02359777D01*
X02137653Y02307152D01*
X02130501Y02300000D01*
X02137653Y02292848D01*
X02137653Y02240223D01*
X02128281Y02230850D01*
X02114791Y02230850D01*
X02113595Y02229654D01*
X02092526Y02208585D01*
X02092575Y02208469D01*
X02092575Y02200158D01*
X02101850Y02204000D01*
X02120150Y02204000D01*
X02137057Y02196997D01*
X02149997Y02184057D01*
X02157000Y02167150D01*
X02157000Y02088850D01*
X02149997Y02071943D01*
X02137057Y02059003D01*
X02120150Y02052000D01*
X02101850Y02052000D01*
X02084943Y02059003D01*
X02072003Y02071943D01*
X02065000Y02088850D01*
X02065000Y02160131D01*
X02058469Y02157425D01*
X02041531Y02157425D01*
X02035000Y02160131D01*
X02035000Y02088850D01*
X02027997Y02071943D01*
X02015057Y02059003D01*
X01998150Y02052000D01*
X01979850Y02052000D01*
X01962943Y02059003D01*
X01950003Y02071943D01*
X01943000Y02088850D01*
X01943000Y02159059D01*
X01924000Y02140059D01*
X01924000Y02045226D01*
X01920346Y02036405D01*
X01870346Y01986405D01*
X01863595Y01979654D01*
X01854774Y01976000D01*
X01795226Y01976000D01*
X01786405Y01979654D01*
X01709399Y02056660D01*
X01698150Y02052000D01*
X01679850Y02052000D01*
X01662943Y02059003D01*
X01650003Y02071943D01*
X01643000Y02088850D01*
X01643000Y02167150D01*
X01650003Y02184057D01*
X01662943Y02196997D01*
X01679850Y02204000D01*
X01698150Y02204000D01*
X01707425Y02200158D01*
X01707425Y02208469D01*
X01707474Y02208585D01*
X01686405Y02229654D01*
X01685208Y02230850D01*
X01671719Y02230850D01*
X01662346Y02240223D01*
X01662346Y02292848D01*
X01669499Y02300000D01*
X01662346Y02307152D01*
X01662346Y02326000D01*
X01637653Y02326000D01*
X01637653Y02307152D01*
X01630501Y02300000D01*
X01637653Y02292848D01*
X01637653Y02240223D01*
X01628281Y02230850D01*
X01624000Y02230850D01*
X01624000Y02095226D01*
X01620346Y02086405D01*
X01520346Y01986405D01*
X01513595Y01979654D01*
X01504774Y01976000D01*
X01011397Y01976000D01*
X01008043Y01972646D01*
X01013595Y01970346D01*
X01163595Y01820346D01*
X01170346Y01813595D01*
X01174000Y01804774D01*
X01174000Y01759941D01*
X01186358Y01747583D01*
X01201850Y01754000D01*
X01220150Y01754000D01*
X01237057Y01746997D01*
X01249997Y01734057D01*
X01257000Y01717150D01*
X01257000Y01638850D01*
X01249997Y01621943D01*
X01237057Y01609003D01*
X01220150Y01602000D01*
X01201850Y01602000D01*
X01184943Y01609003D01*
X01172003Y01621943D01*
X01165000Y01638850D01*
X01165000Y01701059D01*
X01129654Y01736405D01*
X01126000Y01745226D01*
X01126000Y01790059D01*
X01018000Y01898059D01*
X01018000Y01891646D01*
X01011606Y01876209D01*
X00999791Y01864394D01*
X00984354Y01858000D01*
X00915646Y01858000D01*
X00900209Y01864394D01*
X00888394Y01876209D01*
X00882000Y01891646D01*
X00882000Y01908354D01*
X00888394Y01923791D01*
X00891957Y01927354D01*
X00886405Y01929654D01*
X00879654Y01936405D01*
X00829654Y01986405D01*
X00826000Y01995226D01*
X00826000Y02154774D01*
X00829654Y02163595D01*
X00836405Y02170346D01*
X00886405Y02220346D01*
X00887084Y02220627D01*
X00888394Y02223791D01*
X00900209Y02235606D01*
X00915646Y02242000D01*
X00974059Y02242000D01*
X00958059Y02258000D01*
X00915646Y02258000D01*
X00900209Y02264394D01*
X00888394Y02276209D01*
X00882000Y02291646D01*
X00882000Y02308354D01*
X00888394Y02323791D01*
X00900209Y02335606D01*
X00915646Y02342000D01*
X00984354Y02342000D01*
X00999791Y02335606D01*
X01011606Y02323791D01*
X01018000Y02308354D01*
X01018000Y02291646D01*
X01011606Y02276209D01*
X01009669Y02274272D01*
X01070346Y02213595D01*
X01074000Y02204774D01*
X01074000Y02159941D01*
X01159941Y02074000D01*
X01171151Y02074000D01*
X01165000Y02088850D01*
X01165000Y02167150D01*
X01172003Y02184057D01*
X01184943Y02196997D01*
X01201850Y02204000D01*
X01220150Y02204000D01*
X01237057Y02196997D01*
X01249997Y02184057D01*
X01257000Y02167150D01*
X01257000Y02088850D01*
X01250849Y02074000D01*
X01349151Y02074000D01*
X01343000Y02088850D01*
X01343000Y02167150D01*
X01350003Y02184057D01*
X01362943Y02196997D01*
X01379850Y02204000D01*
X01398150Y02204000D01*
X01415057Y02196997D01*
X01427997Y02184057D01*
X01435000Y02167150D01*
X01435000Y02089869D01*
X01441531Y02092575D01*
X01458469Y02092575D01*
X01458585Y02092526D01*
X01465000Y02098941D01*
X01465000Y02167150D01*
X01472003Y02184057D01*
X01484943Y02196997D01*
X01501850Y02204000D01*
X01520150Y02204000D01*
X01537057Y02196997D01*
X01549997Y02184057D01*
X01557000Y02167150D01*
X01557000Y02090941D01*
X01576000Y02109941D01*
X01576000Y02230850D01*
X01571719Y02230850D01*
X01562346Y02240223D01*
X01562346Y02292848D01*
X01569499Y02300000D01*
X01562346Y02307152D01*
X01562346Y02326000D01*
X01537653Y02326000D01*
X01537653Y02307152D01*
X01530501Y02300000D01*
X01537653Y02292848D01*
X01537653Y02240223D01*
X01528281Y02230850D01*
X01514791Y02230850D01*
X01513595Y02229654D01*
X01504774Y02226000D01*
X01495226Y02226000D01*
X01486405Y02229654D01*
X01485208Y02230850D01*
X01471719Y02230850D01*
X01462346Y02240223D01*
X01462346Y02253712D01*
X01437653Y02278406D01*
X01437653Y02240223D01*
X01428281Y02230850D01*
X01414791Y02230850D01*
X01413595Y02229654D01*
X01404774Y02226000D01*
X01359941Y02226000D01*
X01342526Y02208585D01*
X01342575Y02208469D01*
X01342575Y02191531D01*
X01336093Y02175883D01*
X01324117Y02163907D01*
X01308469Y02157425D01*
X01291531Y02157425D01*
X01275883Y02163907D01*
X01263907Y02175883D01*
X01257425Y02191531D01*
X01257425Y02208469D01*
X01263907Y02224117D01*
X01275883Y02236093D01*
X01291531Y02242575D01*
X01308469Y02242575D01*
X01308585Y02242526D01*
X01336405Y02270346D01*
X01345226Y02274000D01*
X01362346Y02274000D01*
X01362346Y02292848D01*
X01369499Y02300000D01*
X01362346Y02307152D01*
X01362346Y02326000D01*
X01195226Y02326000D01*
X01186405Y02329654D01*
X01179654Y02336405D01*
X01140059Y02376000D01*
X01011397Y02376000D01*
X00999791Y02364394D01*
X00984354Y02358000D01*
X00915646Y02358000D01*
X00900209Y02364394D01*
X00899272Y02365331D01*
X00774000Y02240059D01*
X00774000Y01574000D01*
X00854774Y01574000D01*
X00863595Y01570346D01*
X00899272Y01534669D01*
X00900209Y01535606D01*
X00915646Y01542000D01*
X00984354Y01542000D01*
X00999791Y01535606D01*
X01011606Y01523791D01*
X01018000Y01508354D01*
X01018000Y01491646D01*
X01011606Y01476209D01*
X00999791Y01464394D01*
X00984354Y01458000D01*
X00915646Y01458000D01*
X00900209Y01464394D01*
X00888394Y01476209D01*
X00887084Y01479373D01*
X00886405Y01479654D01*
X00879654Y01486405D01*
X00840059Y01526000D01*
X00409397Y01526000D01*
X00411606Y01523791D01*
X00418000Y01508354D01*
X00418000Y01491646D01*
X00411606Y01476209D01*
X00399791Y01464394D01*
X00384354Y01458000D01*
X00315646Y01458000D01*
X00300209Y01464394D01*
X00288394Y01476209D01*
X00282000Y01491646D01*
X00282000Y01498059D01*
X00197496Y01413555D01*
X00197496Y01297703D01*
X00188123Y01288331D01*
X00174000Y01288331D01*
X00174000Y01286141D01*
X00174117Y01286093D01*
X00186093Y01274117D01*
X00192575Y01258469D01*
X00192575Y01241531D01*
X00186093Y01225883D01*
X00178820Y01218610D01*
X00187653Y01209777D01*
X00187653Y01157152D01*
X00181704Y01151203D01*
X00182706Y01150624D01*
X00186057Y01147273D01*
X00188427Y01143168D01*
X00189653Y01138590D01*
X00189653Y01118378D01*
X00151843Y01118378D01*
X00151843Y01114693D01*
X00189653Y01114693D01*
X00189653Y01094481D01*
X00188427Y01089903D01*
X00186057Y01085798D01*
X00182706Y01082447D01*
X00178601Y01080077D01*
X00174023Y01078850D01*
X00151843Y01078850D01*
X00151843Y01114692D01*
X00148157Y01114692D01*
X00148157Y01078850D01*
X00131359Y01078850D01*
X00136093Y01074117D01*
X00142575Y01058469D01*
X00142575Y01041531D01*
X00136093Y01025883D01*
X00124117Y01013907D01*
X00124000Y01013859D01*
X00124000Y00985685D01*
X00144816Y00985685D01*
X00148586Y00981915D01*
X00150759Y00984089D01*
X00154863Y00986458D01*
X00159441Y00987685D01*
X00181622Y00987685D01*
X00181622Y00951843D01*
X00185307Y00951843D01*
X00185307Y00987685D01*
X00207488Y00987685D01*
X00212066Y00986458D01*
X00216170Y00984089D01*
X00219522Y00980737D01*
X00221891Y00976633D01*
X00223118Y00972055D01*
X00223118Y00951843D01*
X00185308Y00951843D01*
X00185308Y00948157D01*
X00223118Y00948157D01*
X00223118Y00927945D01*
X00221891Y00923367D01*
X00219522Y00919263D01*
X00216170Y00915911D01*
X00212066Y00913542D01*
X00207488Y00912315D01*
X00185307Y00912315D01*
X00185307Y00948157D01*
X00181622Y00948157D01*
X00181622Y00912315D01*
X00159441Y00912315D01*
X00154863Y00913542D01*
X00150759Y00915911D01*
X00148586Y00918084D01*
X00144816Y00914315D01*
X00124000Y00914315D01*
X00124000Y00809941D01*
X00138170Y00795771D01*
X00139769Y00796433D01*
X00160231Y00796433D01*
X00179134Y00788603D01*
X00193603Y00774134D01*
X00201433Y00755231D01*
X00201433Y00734769D01*
X00193603Y00715865D01*
X00179134Y00701397D01*
X00160231Y00693567D01*
X00140374Y00693567D01*
X00263595Y00570346D01*
X00270346Y00563595D01*
X00274000Y00554774D01*
X00274000Y00509941D01*
X00280065Y00503875D01*
X00281083Y00510303D01*
X00283224Y00516890D01*
X00286368Y00523061D01*
X00290439Y00528664D01*
X00295336Y00533561D01*
X00300939Y00537632D01*
X00307110Y00540776D01*
X00313697Y00542916D01*
X00320537Y00544000D01*
X00349999Y00544000D01*
X00349999Y00500001D01*
X00350000Y00500001D01*
X00350000Y00544000D01*
X00379463Y00544000D01*
X00386303Y00542916D01*
X00392890Y00540776D01*
X00399061Y00537632D01*
X00404664Y00533561D01*
X00409561Y00528664D01*
X00413632Y00523061D01*
X00416776Y00516890D01*
X00418916Y00510303D01*
X00420000Y00503463D01*
X00420000Y00500000D01*
X00350001Y00500000D01*
X00350001Y00499999D01*
X00420000Y00499999D01*
X00420000Y00496537D01*
X00418916Y00489697D01*
X00416776Y00483110D01*
X00413632Y00476939D01*
X00409561Y00471336D01*
X00404664Y00466439D01*
X00399061Y00462368D01*
X00392890Y00459224D01*
X00386303Y00457083D01*
X00379463Y00456000D01*
X00350000Y00456000D01*
X00350000Y00499999D01*
X00349999Y00499999D01*
X00349999Y00456000D01*
X00327941Y00456000D01*
X00398941Y00385000D01*
X00461150Y00385000D01*
X00478057Y00377997D01*
X00490997Y00365057D01*
X00498000Y00348150D01*
X00498000Y00329850D01*
X00490997Y00312943D01*
X00478057Y00300003D01*
X00461150Y00293000D01*
X00382850Y00293000D01*
X00365943Y00300003D01*
X00353003Y00312943D01*
X00346000Y00329850D01*
X00346000Y00348150D01*
X00352417Y00363642D01*
X00229654Y00486405D01*
X00226000Y00495226D01*
X00226000Y00540059D01*
X00201433Y00564626D01*
X00201433Y00544769D01*
X00193603Y00525865D01*
X00179134Y00511397D01*
X00160231Y00503567D01*
X00139769Y00503567D01*
X00138170Y00504229D01*
X00074000Y00440059D01*
X00074000Y00409941D01*
X00098256Y00385685D01*
X00144816Y00385685D01*
X00148586Y00381915D01*
X00150759Y00384089D01*
X00154863Y00386458D01*
X00159441Y00387685D01*
X00181622Y00387685D01*
X00181622Y00351843D01*
X00185307Y00351843D01*
X00185307Y00387685D01*
X00207488Y00387685D01*
X00212066Y00386458D01*
X00216170Y00384089D01*
X00219522Y00380737D01*
X00221891Y00376633D01*
X00223118Y00372055D01*
X00223118Y00351843D01*
X00185308Y00351843D01*
X00185308Y00348157D01*
X00223118Y00348157D01*
X00223118Y00327945D01*
X00221891Y00323367D01*
X00219522Y00319263D01*
X00216170Y00315911D01*
X00212066Y00313542D01*
X00207488Y00312315D01*
X00185307Y00312315D01*
X00185307Y00348157D01*
X00181622Y00348157D01*
X00181622Y00312315D01*
X00159441Y00312315D01*
X00154863Y00313542D01*
X00150759Y00315911D01*
X00148586Y00318084D01*
X00144816Y00314315D01*
X00088254Y00314315D01*
X00078882Y00323688D01*
X00078882Y00337177D01*
X00048000Y00368059D01*
X00048000Y00367966D02*
X00048093Y00367966D01*
X00048000Y00351968D02*
X00064091Y00351968D01*
X00078882Y00335969D02*
X00048000Y00335969D01*
X00048000Y00319970D02*
X00082599Y00319970D01*
X00100000Y00350000D02*
X00116535Y00350000D01*
X00100000Y00350000D02*
X00050000Y00400000D01*
X00050000Y00450000D01*
X00150000Y00550000D01*
X00150000Y00555000D01*
X00201433Y00559948D02*
X00206110Y00559948D01*
X00201094Y00543950D02*
X00222109Y00543950D01*
X00226000Y00527951D02*
X00194467Y00527951D01*
X00179690Y00511953D02*
X00226000Y00511953D01*
X00226000Y00495954D02*
X00129895Y00495954D01*
X00113897Y00479956D02*
X00236103Y00479956D01*
X00252102Y00463957D02*
X00097898Y00463957D01*
X00081900Y00447959D02*
X00268100Y00447959D01*
X00284099Y00431960D02*
X00074000Y00431960D01*
X00074000Y00415962D02*
X00300097Y00415962D01*
X00316096Y00399963D02*
X00083978Y00399963D01*
X00146537Y00383965D02*
X00150635Y00383965D01*
X00181622Y00383965D02*
X00185307Y00383965D01*
X00185307Y00367966D02*
X00181622Y00367966D01*
X00181622Y00351968D02*
X00185307Y00351968D01*
X00185307Y00335969D02*
X00181622Y00335969D01*
X00181622Y00319970D02*
X00185307Y00319970D01*
X00219930Y00319970D02*
X00350092Y00319970D01*
X00346000Y00335969D02*
X00223118Y00335969D01*
X00223118Y00351968D02*
X00347581Y00351968D01*
X00348093Y00367966D02*
X00223118Y00367966D01*
X00216294Y00383965D02*
X00332094Y00383965D01*
X00367979Y00415962D02*
X02389008Y00415962D01*
X02389008Y00431960D02*
X01715901Y00431960D01*
X01713595Y00429654D02*
X01786358Y00502417D01*
X01801850Y00496000D01*
X01820150Y00496000D01*
X01837057Y00503003D01*
X01849997Y00515943D01*
X01857000Y00532850D01*
X01857000Y00611150D01*
X01849997Y00628057D01*
X01837057Y00640997D01*
X01820150Y00648000D01*
X01801850Y00648000D01*
X01784943Y00640997D01*
X01772003Y00628057D01*
X01765000Y00611150D01*
X01765000Y00548941D01*
X01690059Y00474000D01*
X01609941Y00474000D01*
X01555269Y00528672D01*
X01557000Y00532850D01*
X01557000Y00611150D01*
X01549997Y00628057D01*
X01537057Y00640997D01*
X01520150Y00648000D01*
X01501850Y00648000D01*
X01490601Y00643340D01*
X01413595Y00720346D01*
X01404774Y00724000D01*
X01359941Y00724000D01*
X01324000Y00759941D01*
X01324000Y00763859D01*
X01324117Y00763907D01*
X01336093Y00775883D01*
X01342575Y00791531D01*
X01342575Y00808469D01*
X01336093Y00824117D01*
X01324117Y00836093D01*
X01308469Y00842575D01*
X01291531Y00842575D01*
X01275883Y00836093D01*
X01263907Y00824117D01*
X01257425Y00808469D01*
X01257425Y00791531D01*
X01263907Y00775883D01*
X01275883Y00763907D01*
X01276000Y00763859D01*
X01276000Y00745226D01*
X01279654Y00736405D01*
X01329654Y00686405D01*
X01336405Y00679654D01*
X01345226Y00676000D01*
X01390059Y00676000D01*
X01465000Y00601059D01*
X01465000Y00532850D01*
X01472003Y00515943D01*
X01484943Y00503003D01*
X01501850Y00496000D01*
X01520059Y00496000D01*
X01586405Y00429654D01*
X01595226Y00426000D01*
X01704774Y00426000D01*
X01713595Y00429654D01*
X01700000Y00450000D02*
X01800000Y00550000D01*
X01811000Y00572000D01*
X01857000Y00575947D02*
X01943000Y00575947D01*
X01943000Y00591945D02*
X01857000Y00591945D01*
X01857000Y00607944D02*
X01943000Y00607944D01*
X01943000Y00611150D02*
X01950003Y00628057D01*
X01962943Y00640997D01*
X01979850Y00648000D01*
X01998150Y00648000D01*
X02015057Y00640997D01*
X02027997Y00628057D01*
X02035000Y00611150D01*
X02035000Y00532850D01*
X02027997Y00515943D01*
X02015057Y00503003D01*
X01998150Y00496000D01*
X01979850Y00496000D01*
X01962943Y00503003D01*
X01950003Y00515943D01*
X01943000Y00532850D01*
X01943000Y00611150D01*
X01948299Y00623942D02*
X01851701Y00623942D01*
X01838113Y00639941D02*
X01961887Y00639941D01*
X02016113Y00639941D02*
X02083887Y00639941D01*
X02084943Y00640997D02*
X02072003Y00628057D01*
X02065000Y00611150D01*
X02065000Y00532850D01*
X02072003Y00515943D01*
X02084943Y00503003D01*
X02101850Y00496000D01*
X02120150Y00496000D01*
X02137057Y00503003D01*
X02149997Y00515943D01*
X02157000Y00532850D01*
X02157000Y00611150D01*
X02149997Y00628057D01*
X02137057Y00640997D01*
X02120150Y00648000D01*
X02101850Y00648000D01*
X02084943Y00640997D01*
X02070299Y00623942D02*
X02029701Y00623942D01*
X02035000Y00607944D02*
X02065000Y00607944D01*
X02065000Y00591945D02*
X02035000Y00591945D01*
X02035000Y00575947D02*
X02065000Y00575947D01*
X02065000Y00559948D02*
X02035000Y00559948D01*
X02035000Y00543950D02*
X02065000Y00543950D01*
X02067029Y00527951D02*
X02032971Y00527951D01*
X02024007Y00511953D02*
X02075993Y00511953D01*
X02146007Y00511953D02*
X02253993Y00511953D01*
X02250003Y00515943D02*
X02262943Y00503003D01*
X02279850Y00496000D01*
X02298150Y00496000D01*
X02315057Y00503003D01*
X02327997Y00515943D01*
X02335000Y00532850D01*
X02335000Y00611150D01*
X02327997Y00628057D01*
X02315057Y00640997D01*
X02298150Y00648000D01*
X02279850Y00648000D01*
X02262943Y00640997D01*
X02250003Y00628057D01*
X02243000Y00611150D01*
X02243000Y00532850D01*
X02250003Y00515943D01*
X02245029Y00527951D02*
X02154971Y00527951D01*
X02157000Y00543950D02*
X02243000Y00543950D01*
X02243000Y00559948D02*
X02157000Y00559948D01*
X02157000Y00575947D02*
X02243000Y00575947D01*
X02243000Y00591945D02*
X02157000Y00591945D01*
X02157000Y00607944D02*
X02243000Y00607944D01*
X02248299Y00623942D02*
X02151701Y00623942D01*
X02138113Y00639941D02*
X02261887Y00639941D01*
X02316113Y00639941D02*
X02389008Y00639941D01*
X02389008Y00655939D02*
X01478001Y00655939D01*
X01462003Y00671938D02*
X02389008Y00671938D01*
X02389008Y00687937D02*
X01446004Y00687937D01*
X01430006Y00703935D02*
X02389008Y00703935D01*
X02389008Y00719934D02*
X01414007Y00719934D01*
X01400000Y00700000D02*
X01500000Y00600000D01*
X01511000Y00572000D01*
X01500000Y00550000D01*
X01600000Y00450000D01*
X01700000Y00450000D01*
X01696015Y00479956D02*
X01603985Y00479956D01*
X01587987Y00495954D02*
X01712013Y00495954D01*
X01715057Y00503003D02*
X01698150Y00496000D01*
X01679850Y00496000D01*
X01662943Y00503003D01*
X01650003Y00515943D01*
X01643000Y00532850D01*
X01643000Y00611150D01*
X01650003Y00628057D01*
X01662943Y00640997D01*
X01679850Y00648000D01*
X01698150Y00648000D01*
X01715057Y00640997D01*
X01727997Y00628057D01*
X01735000Y00611150D01*
X01735000Y00532850D01*
X01727997Y00515943D01*
X01715057Y00503003D01*
X01724007Y00511953D02*
X01728012Y00511953D01*
X01732971Y00527951D02*
X01744010Y00527951D01*
X01735000Y00543950D02*
X01760009Y00543950D01*
X01765000Y00559948D02*
X01735000Y00559948D01*
X01735000Y00575947D02*
X01765000Y00575947D01*
X01765000Y00591945D02*
X01735000Y00591945D01*
X01735000Y00607944D02*
X01765000Y00607944D01*
X01770299Y00623942D02*
X01729701Y00623942D01*
X01716113Y00639941D02*
X01783887Y00639941D01*
X01857000Y00559948D02*
X01943000Y00559948D01*
X01943000Y00543950D02*
X01857000Y00543950D01*
X01854971Y00527951D02*
X01945029Y00527951D01*
X01953993Y00511953D02*
X01846007Y00511953D01*
X01779895Y00495954D02*
X02389008Y00495954D01*
X02389008Y00479956D02*
X01763897Y00479956D01*
X01747898Y00463957D02*
X02389008Y00463957D01*
X02389008Y00447959D02*
X01731900Y00447959D01*
X01653993Y00511953D02*
X01571988Y00511953D01*
X01555990Y00527951D02*
X01645029Y00527951D01*
X01643000Y00543950D02*
X01557000Y00543950D01*
X01557000Y00559948D02*
X01643000Y00559948D01*
X01643000Y00575947D02*
X01557000Y00575947D01*
X01557000Y00591945D02*
X01643000Y00591945D01*
X01643000Y00607944D02*
X01557000Y00607944D01*
X01551701Y00623942D02*
X01648299Y00623942D01*
X01661887Y00639941D02*
X01538113Y00639941D01*
X01458115Y00607944D02*
X01435000Y00607944D01*
X01435000Y00611150D02*
X01427997Y00628057D01*
X01415057Y00640997D01*
X01398150Y00648000D01*
X01379850Y00648000D01*
X01362943Y00640997D01*
X01350003Y00628057D01*
X01343000Y00611150D01*
X01343000Y00532850D01*
X01350003Y00515943D01*
X01362943Y00503003D01*
X01379850Y00496000D01*
X01398150Y00496000D01*
X01415057Y00503003D01*
X01427997Y00515943D01*
X01435000Y00532850D01*
X01435000Y00611150D01*
X01429701Y00623942D02*
X01442116Y00623942D01*
X01426118Y00639941D02*
X01416113Y00639941D01*
X01410119Y00655939D02*
X00178001Y00655939D01*
X00162003Y00671938D02*
X00292665Y00671938D01*
X00288394Y00676209D02*
X00300209Y00664394D01*
X00315646Y00658000D01*
X00384354Y00658000D01*
X00399791Y00664394D01*
X00411606Y00676209D01*
X00418000Y00691646D01*
X00418000Y00708354D01*
X00411606Y00723791D01*
X00399791Y00735606D01*
X00384354Y00742000D01*
X00315646Y00742000D01*
X00300209Y00735606D01*
X00288394Y00723791D01*
X00282000Y00708354D01*
X00282000Y00691646D01*
X00288394Y00676209D01*
X00283536Y00687937D02*
X00146004Y00687937D01*
X00181672Y00703935D02*
X00282000Y00703935D01*
X00286796Y00719934D02*
X00195288Y00719934D01*
X00201433Y00735932D02*
X00300997Y00735932D01*
X00315646Y00758000D02*
X00384354Y00758000D01*
X00399791Y00764394D01*
X00411606Y00776209D01*
X00418000Y00791646D01*
X00418000Y00808354D01*
X00411606Y00823791D01*
X00399791Y00835606D01*
X00384354Y00842000D01*
X00315646Y00842000D01*
X00300209Y00835606D01*
X00288394Y00823791D01*
X00282000Y00808354D01*
X00282000Y00791646D01*
X00288394Y00776209D01*
X00300209Y00764394D01*
X00315646Y00758000D01*
X00296674Y00767929D02*
X00196173Y00767929D01*
X00201433Y00751931D02*
X01276000Y00751931D01*
X01280127Y00735932D02*
X00999003Y00735932D01*
X00999791Y00735606D02*
X00984354Y00742000D01*
X00915646Y00742000D01*
X00900209Y00735606D01*
X00888394Y00723791D01*
X00882000Y00708354D01*
X00882000Y00691646D01*
X00888394Y00676209D01*
X00900209Y00664394D01*
X00915646Y00658000D01*
X00984354Y00658000D01*
X00999791Y00664394D01*
X01011606Y00676209D01*
X01018000Y00691646D01*
X01018000Y00708354D01*
X01011606Y00723791D01*
X00999791Y00735606D01*
X01013204Y00719934D02*
X01296125Y00719934D01*
X01312124Y00703935D02*
X01018000Y00703935D01*
X01016463Y00687937D02*
X01328122Y00687937D01*
X01350000Y00700000D02*
X01400000Y00700000D01*
X01394121Y00671938D02*
X01007335Y00671938D01*
X00989325Y00639941D02*
X01183887Y00639941D01*
X01184943Y00640997D02*
X01172003Y00628057D01*
X01165000Y00611150D01*
X01165000Y00532850D01*
X01172003Y00515943D01*
X01184943Y00503003D01*
X01201850Y00496000D01*
X01220150Y00496000D01*
X01237057Y00503003D01*
X01249997Y00515943D01*
X01257000Y00532850D01*
X01257000Y00611150D01*
X01249997Y00628057D01*
X01237057Y00640997D01*
X01220150Y00648000D01*
X01201850Y00648000D01*
X01184943Y00640997D01*
X01170299Y00623942D02*
X01011454Y00623942D01*
X01011606Y00623791D02*
X00999791Y00635606D01*
X00984354Y00642000D01*
X00915646Y00642000D01*
X00900209Y00635606D01*
X00888394Y00623791D01*
X00882000Y00608354D01*
X00882000Y00591646D01*
X00888394Y00576209D01*
X00900209Y00564394D01*
X00915646Y00558000D01*
X00984354Y00558000D01*
X00999791Y00564394D01*
X01011606Y00576209D01*
X01018000Y00591646D01*
X01018000Y00608354D01*
X01011606Y00623791D01*
X01018000Y00607944D02*
X01165000Y00607944D01*
X01165000Y00591945D02*
X01018000Y00591945D01*
X01011344Y00575947D02*
X01165000Y00575947D01*
X01165000Y00559948D02*
X00989058Y00559948D01*
X00984354Y00542000D02*
X00999791Y00535606D01*
X01011606Y00523791D01*
X01018000Y00508354D01*
X01018000Y00491646D01*
X01011606Y00476209D01*
X00999791Y00464394D01*
X00984354Y00458000D01*
X00915646Y00458000D01*
X00900209Y00464394D01*
X00888394Y00476209D01*
X00882000Y00491646D01*
X00882000Y00508354D01*
X00888394Y00523791D01*
X00900209Y00535606D01*
X00915646Y00542000D01*
X00984354Y00542000D01*
X01007445Y00527951D02*
X01167029Y00527951D01*
X01165000Y00543950D02*
X00379779Y00543950D01*
X00384354Y00558000D02*
X00399791Y00564394D01*
X00411606Y00576209D01*
X00418000Y00591646D01*
X00418000Y00608354D01*
X00411606Y00623791D01*
X00399791Y00635606D01*
X00384354Y00642000D01*
X00315646Y00642000D01*
X00300209Y00635606D01*
X00288394Y00623791D01*
X00282000Y00608354D01*
X00282000Y00591646D01*
X00288394Y00576209D01*
X00300209Y00564394D01*
X00315646Y00558000D01*
X00384354Y00558000D01*
X00389058Y00559948D02*
X00910942Y00559948D01*
X00888656Y00575947D02*
X00411344Y00575947D01*
X00418000Y00591945D02*
X00882000Y00591945D01*
X00882000Y00607944D02*
X00418000Y00607944D01*
X00411454Y00623942D02*
X00888546Y00623942D01*
X00910675Y00639941D02*
X00389325Y00639941D01*
X00407335Y00671938D02*
X00892665Y00671938D01*
X00883536Y00687937D02*
X00416463Y00687937D01*
X00418000Y00703935D02*
X00882000Y00703935D01*
X00886796Y00719934D02*
X00413204Y00719934D01*
X00399003Y00735932D02*
X00900997Y00735932D01*
X00915646Y00758000D02*
X00984354Y00758000D01*
X00999791Y00764394D01*
X01011606Y00776209D01*
X01018000Y00791646D01*
X01018000Y00808354D01*
X01011606Y00823791D01*
X00999791Y00835606D01*
X00984354Y00842000D01*
X00915646Y00842000D01*
X00900209Y00835606D01*
X00888394Y00823791D01*
X00882000Y00808354D01*
X00882000Y00791646D01*
X00888394Y00776209D01*
X00900209Y00764394D01*
X00915646Y00758000D01*
X00896674Y00767929D02*
X00403326Y00767929D01*
X00414803Y00783928D02*
X00885197Y00783928D01*
X00882000Y00799926D02*
X00418000Y00799926D01*
X00414864Y00815925D02*
X00885136Y00815925D01*
X00896526Y00831923D02*
X00403474Y00831923D01*
X00384354Y00858000D02*
X00399791Y00864394D01*
X00411606Y00876209D01*
X00418000Y00891646D01*
X00418000Y00908354D01*
X00411606Y00923791D01*
X00399791Y00935606D01*
X00384354Y00942000D01*
X00315646Y00942000D01*
X00300209Y00935606D01*
X00288394Y00923791D01*
X00282000Y00908354D01*
X00282000Y00891646D01*
X00288394Y00876209D01*
X00300209Y00864394D01*
X00315646Y00858000D01*
X00384354Y00858000D01*
X00398647Y00863920D02*
X00901353Y00863920D01*
X00900209Y00864394D02*
X00915646Y00858000D01*
X00984354Y00858000D01*
X00999791Y00864394D01*
X01011606Y00876209D01*
X01018000Y00891646D01*
X01018000Y00908354D01*
X01011606Y00923791D01*
X00999791Y00935606D01*
X00984354Y00942000D01*
X00915646Y00942000D01*
X00900209Y00935606D01*
X00888394Y00923791D01*
X00882000Y00908354D01*
X00882000Y00891646D01*
X00888394Y00876209D01*
X00900209Y00864394D01*
X00886857Y00879919D02*
X00413142Y00879919D01*
X00418000Y00895917D02*
X00882000Y00895917D01*
X00883475Y00911916D02*
X00416525Y00911916D01*
X00407482Y00927914D02*
X00892517Y00927914D01*
X00911031Y00959911D02*
X00388969Y00959911D01*
X00384354Y00958000D02*
X00399791Y00964394D01*
X00411606Y00976209D01*
X00418000Y00991646D01*
X00418000Y01008354D01*
X00411606Y01023791D01*
X00399791Y01035606D01*
X00384354Y01042000D01*
X00315646Y01042000D01*
X00300209Y01035606D01*
X00288394Y01023791D01*
X00282000Y01008354D01*
X00282000Y00991646D01*
X00288394Y00976209D01*
X00300209Y00964394D01*
X00315646Y00958000D01*
X00384354Y00958000D01*
X00411307Y00975910D02*
X00888693Y00975910D01*
X00888394Y00976209D02*
X00900209Y00964394D01*
X00915646Y00958000D01*
X00984354Y00958000D01*
X00999791Y00964394D01*
X01011606Y00976209D01*
X01018000Y00991646D01*
X01018000Y01008354D01*
X01011606Y01023791D01*
X00999791Y01035606D01*
X00984354Y01042000D01*
X00915646Y01042000D01*
X00900209Y01035606D01*
X00888394Y01023791D01*
X00882000Y01008354D01*
X00882000Y00991646D01*
X00888394Y00976209D01*
X00882000Y00991908D02*
X00418000Y00991908D01*
X00418000Y01007907D02*
X00882000Y01007907D01*
X00888509Y01023906D02*
X00411491Y01023906D01*
X00389414Y01039904D02*
X00910586Y01039904D01*
X00915646Y01058000D02*
X00984354Y01058000D01*
X00999791Y01064394D01*
X01011606Y01076209D01*
X01018000Y01091646D01*
X01018000Y01108354D01*
X01011606Y01123791D01*
X00999791Y01135606D01*
X00984354Y01142000D01*
X00915646Y01142000D01*
X00900209Y01135606D01*
X00888394Y01123791D01*
X00882000Y01108354D01*
X00882000Y01091646D01*
X00888394Y01076209D01*
X00900209Y01064394D01*
X00915646Y01058000D01*
X00892702Y01071901D02*
X00407298Y01071901D01*
X00411606Y01076209D02*
X00418000Y01091646D01*
X00418000Y01108354D01*
X00411606Y01123791D01*
X00399791Y01135606D01*
X00384354Y01142000D01*
X00315646Y01142000D01*
X00300209Y01135606D01*
X00288394Y01123791D01*
X00282000Y01108354D01*
X00282000Y01091646D01*
X00288394Y01076209D01*
X00300209Y01064394D01*
X00315646Y01058000D01*
X00384354Y01058000D01*
X00399791Y01064394D01*
X00411606Y01076209D01*
X00416448Y01087900D02*
X00883552Y01087900D01*
X00882000Y01103898D02*
X00418000Y01103898D01*
X00413219Y01119897D02*
X00886781Y01119897D01*
X00900908Y01135895D02*
X00399092Y01135895D01*
X00384354Y01158000D02*
X00399791Y01164394D01*
X00411606Y01176209D01*
X00418000Y01191646D01*
X00418000Y01208354D01*
X00411606Y01223791D01*
X00399791Y01235606D01*
X00384354Y01242000D01*
X00315646Y01242000D01*
X00300209Y01235606D01*
X00288394Y01223791D01*
X00282000Y01208354D01*
X00282000Y01191646D01*
X00288394Y01176209D01*
X00300209Y01164394D01*
X00315646Y01158000D01*
X00384354Y01158000D01*
X00403289Y01167892D02*
X00896711Y01167892D01*
X00900209Y01164394D02*
X00915646Y01158000D01*
X00984354Y01158000D01*
X00999791Y01164394D01*
X01011606Y01176209D01*
X01018000Y01191646D01*
X01018000Y01208354D01*
X01011606Y01223791D01*
X00999791Y01235606D01*
X00984354Y01242000D01*
X00915646Y01242000D01*
X00900209Y01235606D01*
X00888394Y01223791D01*
X00882000Y01208354D01*
X00882000Y01191646D01*
X00888394Y01176209D01*
X00900209Y01164394D01*
X00885212Y01183891D02*
X00414788Y01183891D01*
X00418000Y01199889D02*
X00882000Y01199889D01*
X00885121Y01215888D02*
X00414879Y01215888D01*
X00403510Y01231886D02*
X00896489Y01231886D01*
X00901442Y01263883D02*
X00398558Y01263883D01*
X00399791Y01264394D02*
X00411606Y01276209D01*
X00418000Y01291646D01*
X00418000Y01308354D01*
X00411606Y01323791D01*
X00399791Y01335606D01*
X00384354Y01342000D01*
X00315646Y01342000D01*
X00300209Y01335606D01*
X00288394Y01323791D01*
X00282000Y01308354D01*
X00282000Y01291646D01*
X00288394Y01276209D01*
X00300209Y01264394D01*
X00315646Y01258000D01*
X00384354Y01258000D01*
X00399791Y01264394D01*
X00413127Y01279882D02*
X00886873Y01279882D01*
X00888394Y01276209D02*
X00900209Y01264394D01*
X00915646Y01258000D01*
X00984354Y01258000D01*
X00999791Y01264394D01*
X01011606Y01276209D01*
X01018000Y01291646D01*
X01018000Y01308354D01*
X01011606Y01323791D01*
X00999791Y01335606D01*
X00984354Y01342000D01*
X00915646Y01342000D01*
X00900209Y01335606D01*
X00888394Y01323791D01*
X00882000Y01308354D01*
X00882000Y01291646D01*
X00888394Y01276209D01*
X00882000Y01295880D02*
X00418000Y01295880D01*
X00416540Y01311879D02*
X00883460Y01311879D01*
X00892481Y01327877D02*
X00407519Y01327877D01*
X00388880Y01359875D02*
X00911120Y01359875D01*
X00915646Y01358000D02*
X00984354Y01358000D01*
X00999791Y01364394D01*
X01011606Y01376209D01*
X01018000Y01391646D01*
X01018000Y01408354D01*
X01011606Y01423791D01*
X00999791Y01435606D01*
X00984354Y01442000D01*
X00915646Y01442000D01*
X00900209Y01435606D01*
X00888394Y01423791D01*
X00882000Y01408354D01*
X00882000Y01391646D01*
X00888394Y01376209D01*
X00900209Y01364394D01*
X00915646Y01358000D01*
X00888730Y01375873D02*
X00411270Y01375873D01*
X00411606Y01376209D02*
X00418000Y01391646D01*
X00418000Y01408354D01*
X00411606Y01423791D01*
X00399791Y01435606D01*
X00384354Y01442000D01*
X00315646Y01442000D01*
X00300209Y01435606D01*
X00288394Y01423791D01*
X00282000Y01408354D01*
X00282000Y01391646D01*
X00288394Y01376209D01*
X00300209Y01364394D01*
X00315646Y01358000D01*
X00384354Y01358000D01*
X00399791Y01364394D01*
X00411606Y01376209D01*
X00418000Y01391872D02*
X00882000Y01391872D01*
X00882000Y01407870D02*
X00418000Y01407870D01*
X00411528Y01423869D02*
X00888472Y01423869D01*
X00910497Y01439867D02*
X00389503Y01439867D01*
X00407261Y01471864D02*
X00892739Y01471864D01*
X00878196Y01487863D02*
X00416433Y01487863D01*
X00418000Y01503861D02*
X00862198Y01503861D01*
X00846199Y01519860D02*
X00413234Y01519860D01*
X00414772Y01583854D02*
X00726000Y01583854D01*
X00726000Y01599852D02*
X00418000Y01599852D01*
X00414895Y01615851D02*
X00726000Y01615851D01*
X00726000Y01631849D02*
X00403547Y01631849D01*
X00398469Y01663846D02*
X00726000Y01663846D01*
X00726000Y01647848D02*
X00048000Y01647848D01*
X00048000Y01631849D02*
X00296453Y01631849D01*
X00281910Y01615851D02*
X00048000Y01615851D01*
X00048000Y01599852D02*
X00102504Y01599852D01*
X00102504Y01583854D02*
X00048000Y01583854D01*
X00048000Y01567855D02*
X00102504Y01567855D01*
X00102504Y01551857D02*
X00048000Y01551857D01*
X00048000Y01535858D02*
X00102504Y01535858D01*
X00102504Y01519860D02*
X00048000Y01519860D01*
X00048000Y01503861D02*
X00102504Y01503861D01*
X00102504Y01487863D02*
X00048000Y01487863D01*
X00048000Y01471864D02*
X00087923Y01471864D01*
X00071925Y01455866D02*
X00048000Y01455866D01*
X00048000Y01439867D02*
X00055926Y01439867D01*
X00050000Y01400000D02*
X00050000Y01250000D01*
X00100000Y01200000D01*
X00050000Y01150000D01*
X00050000Y00750000D01*
X00250000Y00550000D01*
X00250000Y00500000D01*
X00400000Y00350000D01*
X00422000Y00339000D01*
X00463649Y00383965D02*
X00636351Y00383965D01*
X00638850Y00385000D02*
X00621943Y00377997D01*
X00609003Y00365057D01*
X00602000Y00348150D01*
X00602000Y00329850D01*
X00609003Y00312943D01*
X00621943Y00300003D01*
X00638850Y00293000D01*
X00717150Y00293000D01*
X00734057Y00300003D01*
X00746997Y00312943D01*
X00754000Y00329850D01*
X00754000Y00348150D01*
X00746997Y00365057D01*
X00734057Y00377997D01*
X00717150Y00385000D01*
X00638850Y00385000D01*
X00611912Y00367966D02*
X00488088Y00367966D01*
X00496419Y00351968D02*
X00603581Y00351968D01*
X00602000Y00335969D02*
X00498000Y00335969D01*
X00493908Y00319970D02*
X00606092Y00319970D01*
X00617974Y00303972D02*
X00482026Y00303972D01*
X00461150Y00207000D02*
X00478057Y00199997D01*
X00490997Y00187057D01*
X00498000Y00170150D01*
X00498000Y00151850D01*
X00490997Y00134943D01*
X00478057Y00122003D01*
X00461150Y00115000D01*
X00382850Y00115000D01*
X00365943Y00122003D01*
X00353003Y00134943D01*
X00346000Y00151850D01*
X00346000Y00170150D01*
X00353003Y00187057D01*
X00365943Y00199997D01*
X00382850Y00207000D01*
X00461150Y00207000D01*
X00486071Y00191982D02*
X00613929Y00191982D01*
X00609003Y00187057D02*
X00602000Y00170150D01*
X00602000Y00151850D01*
X00609003Y00134943D01*
X00621943Y00122003D01*
X00638850Y00115000D01*
X00717150Y00115000D01*
X00734057Y00122003D01*
X00746997Y00134943D01*
X00754000Y00151850D01*
X00754000Y00170150D01*
X00746997Y00187057D01*
X00734057Y00199997D01*
X00717150Y00207000D01*
X00638850Y00207000D01*
X00621943Y00199997D01*
X00609003Y00187057D01*
X00604416Y00175984D02*
X00495584Y00175984D01*
X00498000Y00159985D02*
X00602000Y00159985D01*
X00605257Y00143987D02*
X00494743Y00143987D01*
X00484042Y00127988D02*
X00615958Y00127988D01*
X00740042Y00127988D02*
X02389008Y00127988D01*
X02389008Y00111990D02*
X00048000Y00111990D01*
X00048000Y00127988D02*
X00359958Y00127988D01*
X00349257Y00143987D02*
X00048000Y00143987D01*
X00048000Y00159985D02*
X00346000Y00159985D01*
X00348416Y00175984D02*
X00048000Y00175984D01*
X00048000Y00191982D02*
X00357929Y00191982D01*
X00361974Y00303972D02*
X00048000Y00303972D01*
X00048000Y00287973D02*
X02389008Y00287973D01*
X02389008Y00271975D02*
X00048000Y00271975D01*
X00048000Y00255976D02*
X02389008Y00255976D01*
X02389008Y00239978D02*
X00048000Y00239978D01*
X00048000Y00223979D02*
X02389008Y00223979D01*
X02389008Y00207981D02*
X00048000Y00207981D01*
X00048000Y00095991D02*
X02389008Y00095991D01*
X02389008Y00079993D02*
X00048000Y00079993D01*
X00048000Y00063994D02*
X02389008Y00063994D01*
X02389008Y00143987D02*
X00750743Y00143987D01*
X00754000Y00159985D02*
X02389008Y00159985D01*
X02389008Y00175984D02*
X00751584Y00175984D01*
X00742071Y00191982D02*
X02389008Y00191982D01*
X02389008Y00303972D02*
X00738026Y00303972D01*
X00749908Y00319970D02*
X02389008Y00319970D01*
X02389008Y00335969D02*
X00754000Y00335969D01*
X00752419Y00351968D02*
X02389008Y00351968D01*
X02389008Y00367966D02*
X00744088Y00367966D01*
X00719649Y00383965D02*
X02389008Y00383965D01*
X02389008Y00399963D02*
X00383978Y00399963D01*
X00351981Y00431960D02*
X01584099Y00431960D01*
X01568100Y00447959D02*
X00335982Y00447959D01*
X00349999Y00463957D02*
X00350000Y00463957D01*
X00349999Y00479956D02*
X00350000Y00479956D01*
X00349999Y00495954D02*
X00350000Y00495954D01*
X00350000Y00500000D02*
X00250000Y00600000D01*
X00250000Y00900000D01*
X00200000Y00950000D01*
X00183465Y00950000D01*
X00181622Y00943913D02*
X00185307Y00943913D01*
X00200000Y00950000D02*
X00150000Y01000000D01*
X00150000Y01116535D01*
X00148157Y01114693D02*
X00110346Y01114693D01*
X00110346Y01094481D01*
X00111155Y01091462D01*
X00108469Y01092575D01*
X00091531Y01092575D01*
X00075883Y01086093D01*
X00074000Y01084210D01*
X00074000Y01140059D01*
X00109941Y01176000D01*
X00112346Y01176000D01*
X00112346Y01157152D01*
X00118296Y01151203D01*
X00117294Y01150624D01*
X00113943Y01147273D01*
X00111573Y01143168D01*
X00110346Y01138590D01*
X00110346Y01118378D01*
X00148157Y01118378D01*
X00148157Y01114693D01*
X00148157Y01103898D02*
X00151843Y01103898D01*
X00151843Y01087900D02*
X00148157Y01087900D01*
X00137011Y01071901D02*
X00292702Y01071901D01*
X00283552Y01087900D02*
X00187270Y01087900D01*
X00189653Y01103898D02*
X00282000Y01103898D01*
X00286781Y01119897D02*
X00189653Y01119897D01*
X00189653Y01135895D02*
X00300908Y01135895D01*
X00296711Y01167892D02*
X00187653Y01167892D01*
X00187653Y01183891D02*
X00285212Y01183891D01*
X00282000Y01199889D02*
X00187653Y01199889D01*
X00181543Y01215888D02*
X00285121Y01215888D01*
X00296489Y01231886D02*
X00188579Y01231886D01*
X00192575Y01247885D02*
X01165000Y01247885D01*
X01165000Y01263883D02*
X00998558Y01263883D01*
X01013127Y01279882D02*
X01170274Y01279882D01*
X01172003Y01284057D02*
X01165000Y01267150D01*
X01165000Y01188850D01*
X01172003Y01171943D01*
X01184943Y01159003D01*
X01201850Y01152000D01*
X01220150Y01152000D01*
X01237057Y01159003D01*
X01249997Y01171943D01*
X01257000Y01188850D01*
X01257000Y01267150D01*
X01249997Y01284057D01*
X01237057Y01296997D01*
X01220150Y01304000D01*
X01201850Y01304000D01*
X01184943Y01296997D01*
X01172003Y01284057D01*
X01183827Y01295880D02*
X01018000Y01295880D01*
X01016540Y01311879D02*
X01426000Y01311879D01*
X01426000Y01309941D02*
X01413642Y01297583D01*
X01398150Y01304000D01*
X01379850Y01304000D01*
X01362943Y01296997D01*
X01350003Y01284057D01*
X01343000Y01267150D01*
X01343000Y01188850D01*
X01350003Y01171943D01*
X01362943Y01159003D01*
X01379850Y01152000D01*
X01398150Y01152000D01*
X01409399Y01156660D01*
X01457474Y01108585D01*
X01457425Y01108469D01*
X01457425Y01091531D01*
X01463907Y01075883D01*
X01475883Y01063907D01*
X01491531Y01057425D01*
X01508469Y01057425D01*
X01524117Y01063907D01*
X01536093Y01075883D01*
X01542575Y01091531D01*
X01542575Y01108469D01*
X01536093Y01124117D01*
X01524117Y01136093D01*
X01508469Y01142575D01*
X01491531Y01142575D01*
X01491415Y01142526D01*
X01435000Y01198941D01*
X01435000Y01251059D01*
X01463595Y01279654D01*
X01470346Y01286405D01*
X01474000Y01295226D01*
X01474000Y01363946D01*
X01484943Y01353003D01*
X01501850Y01346000D01*
X01520150Y01346000D01*
X01537057Y01353003D01*
X01549997Y01365943D01*
X01557000Y01382850D01*
X01557000Y01461150D01*
X01549997Y01478057D01*
X01537057Y01490997D01*
X01520150Y01498000D01*
X01501850Y01498000D01*
X01484943Y01490997D01*
X01474000Y01480054D01*
X01474000Y01590059D01*
X01490601Y01606660D01*
X01501850Y01602000D01*
X01520150Y01602000D01*
X01537057Y01609003D01*
X01549997Y01621943D01*
X01557000Y01638850D01*
X01557000Y01717150D01*
X01549997Y01734057D01*
X01537057Y01746997D01*
X01520150Y01754000D01*
X01501850Y01754000D01*
X01484943Y01746997D01*
X01472003Y01734057D01*
X01465000Y01717150D01*
X01465000Y01648941D01*
X01429654Y01613595D01*
X01426000Y01604774D01*
X01426000Y01584210D01*
X01424117Y01586093D01*
X01408469Y01592575D01*
X01391531Y01592575D01*
X01375883Y01586093D01*
X01363907Y01574117D01*
X01357425Y01558469D01*
X01357425Y01541531D01*
X01363907Y01525883D01*
X01375883Y01513907D01*
X01391531Y01507425D01*
X01408469Y01507425D01*
X01424117Y01513907D01*
X01426000Y01515790D01*
X01426000Y01480054D01*
X01415057Y01490997D01*
X01398150Y01498000D01*
X01379850Y01498000D01*
X01362943Y01490997D01*
X01350003Y01478057D01*
X01343000Y01461150D01*
X01343000Y01382850D01*
X01350003Y01365943D01*
X01362943Y01353003D01*
X01379850Y01346000D01*
X01398150Y01346000D01*
X01415057Y01353003D01*
X01426000Y01363946D01*
X01426000Y01309941D01*
X01426000Y01327877D02*
X01007519Y01327877D01*
X00988880Y01359875D02*
X01178072Y01359875D01*
X01172003Y01365943D02*
X01184943Y01353003D01*
X01201850Y01346000D01*
X01220150Y01346000D01*
X01237057Y01353003D01*
X01249997Y01365943D01*
X01257000Y01382850D01*
X01257000Y01461150D01*
X01249997Y01478057D01*
X01237057Y01490997D01*
X01220150Y01498000D01*
X01201850Y01498000D01*
X01184943Y01490997D01*
X01172003Y01478057D01*
X01165000Y01461150D01*
X01165000Y01382850D01*
X01172003Y01365943D01*
X01167890Y01375873D02*
X01011270Y01375873D01*
X01018000Y01391872D02*
X01165000Y01391872D01*
X01165000Y01407870D02*
X01018000Y01407870D01*
X01011528Y01423869D02*
X01165000Y01423869D01*
X01165000Y01439867D02*
X00989503Y01439867D01*
X01007261Y01471864D02*
X01169438Y01471864D01*
X01165000Y01455866D02*
X00239807Y01455866D01*
X00255805Y01471864D02*
X00292739Y01471864D01*
X00283567Y01487863D02*
X00271804Y01487863D01*
X00310497Y01439867D02*
X00223808Y01439867D01*
X00207810Y01423869D02*
X00288472Y01423869D01*
X00282000Y01407870D02*
X00197496Y01407870D01*
X00197496Y01391872D02*
X00282000Y01391872D01*
X00288730Y01375873D02*
X00197496Y01375873D01*
X00197496Y01359875D02*
X00311120Y01359875D01*
X00292481Y01327877D02*
X00197496Y01327877D01*
X00197496Y01311879D02*
X00283460Y01311879D01*
X00282000Y01295880D02*
X00195673Y01295880D01*
X00180328Y01279882D02*
X00286873Y01279882D01*
X00301442Y01263883D02*
X00190332Y01263883D01*
X00150000Y01250000D02*
X00150000Y01363386D01*
X00150000Y01400000D01*
X00300000Y01550000D01*
X00750000Y01550000D01*
X00750000Y02250000D01*
X00900000Y02400000D01*
X00950000Y02400000D01*
X01150000Y02400000D01*
X01200000Y02350000D01*
X01250000Y02350000D01*
X01250000Y02450000D01*
X01300000Y02450000D01*
X01350000Y02500000D01*
X01500000Y02350000D01*
X01500000Y02333465D01*
X01500000Y02350000D02*
X01600000Y02350000D01*
X01600000Y02333465D01*
X01600000Y02350000D02*
X01700000Y02350000D01*
X01700000Y02333465D01*
X01700000Y02350000D02*
X01750000Y02400000D01*
X01750000Y02450000D01*
X01850000Y02550000D01*
X01884447Y02575762D02*
X02389008Y02575762D01*
X02389008Y02559764D02*
X01892038Y02559764D01*
X01892575Y02543765D02*
X02389008Y02543765D01*
X02389008Y02527767D02*
X01886873Y02527767D01*
X01850000Y02500000D02*
X01800000Y02450000D01*
X01800000Y02400000D01*
X01750000Y02350000D01*
X01750000Y02250000D01*
X01800000Y02250000D01*
X01800000Y02266535D01*
X01850000Y02300000D02*
X01850000Y02350000D01*
X01900000Y02400000D01*
X01850000Y02400000D02*
X01850000Y02450000D01*
X01950000Y02450000D01*
X02000000Y02400000D01*
X02050000Y02400000D01*
X02000000Y02350000D01*
X02000000Y02333465D01*
X01950000Y02350000D02*
X02000000Y02400000D01*
X02000000Y02450000D02*
X01950000Y02500000D01*
X01850000Y02500000D01*
X01807425Y02543765D02*
X00048000Y02543765D01*
X00048000Y02527767D02*
X01793826Y02527767D01*
X01777827Y02511768D02*
X01372173Y02511768D01*
X01388171Y02495770D02*
X01761829Y02495770D01*
X01745830Y02479771D02*
X01404170Y02479771D01*
X01420168Y02463773D02*
X01729832Y02463773D01*
X01726000Y02447774D02*
X01436167Y02447774D01*
X01452165Y02431776D02*
X01726000Y02431776D01*
X01726000Y02415777D02*
X01468164Y02415777D01*
X01484162Y02399779D02*
X01715837Y02399779D01*
X01699839Y02383780D02*
X01500161Y02383780D01*
X01450000Y02350000D02*
X01350000Y02450000D01*
X01300000Y02400000D01*
X01250000Y02350000D02*
X01400000Y02350000D01*
X01400000Y02333465D01*
X01362346Y02319786D02*
X01013265Y02319786D01*
X01018000Y02303787D02*
X01365711Y02303787D01*
X01362346Y02287789D02*
X01016402Y02287789D01*
X01012151Y02271790D02*
X01339892Y02271790D01*
X01350000Y02250000D02*
X01400000Y02250000D01*
X01400000Y02266535D01*
X01437653Y02271790D02*
X01444268Y02271790D01*
X01437653Y02255792D02*
X01460267Y02255792D01*
X01462776Y02239793D02*
X01437224Y02239793D01*
X01420256Y02191798D02*
X01479744Y02191798D01*
X01468583Y02175799D02*
X01431417Y02175799D01*
X01435000Y02159801D02*
X01465000Y02159801D01*
X01465000Y02143802D02*
X01435000Y02143802D01*
X01435000Y02127804D02*
X01465000Y02127804D01*
X01465000Y02111805D02*
X01435000Y02111805D01*
X01435000Y02095807D02*
X01461866Y02095807D01*
X01500000Y02100000D02*
X01450000Y02050000D01*
X01150000Y02050000D01*
X01050000Y02150000D01*
X01050000Y02200000D01*
X00950000Y02300000D01*
X00960267Y02255792D02*
X00789733Y02255792D01*
X00774000Y02239793D02*
X00910319Y02239793D01*
X00888398Y02223795D02*
X00774000Y02223795D01*
X00774000Y02207796D02*
X00873855Y02207796D01*
X00857857Y02191798D02*
X00774000Y02191798D01*
X00774000Y02175799D02*
X00841858Y02175799D01*
X00828082Y02159801D02*
X00774000Y02159801D01*
X00774000Y02143802D02*
X00826000Y02143802D01*
X00826000Y02127804D02*
X00774000Y02127804D01*
X00774000Y02111805D02*
X00826000Y02111805D01*
X00826000Y02095807D02*
X00774000Y02095807D01*
X00774000Y02079808D02*
X00826000Y02079808D01*
X00826000Y02063810D02*
X00774000Y02063810D01*
X00774000Y02047811D02*
X00826000Y02047811D01*
X00826000Y02031813D02*
X00774000Y02031813D01*
X00774000Y02015814D02*
X00826000Y02015814D01*
X00826000Y01999815D02*
X00774000Y01999815D01*
X00774000Y01983817D02*
X00832242Y01983817D01*
X00848240Y01967818D02*
X00774000Y01967818D01*
X00774000Y01951820D02*
X00864239Y01951820D01*
X00880237Y01935821D02*
X00774000Y01935821D01*
X00774000Y01919823D02*
X00886750Y01919823D01*
X00882000Y01903824D02*
X00774000Y01903824D01*
X00774000Y01887826D02*
X00883582Y01887826D01*
X00892776Y01871827D02*
X00774000Y01871827D01*
X00774000Y01855829D02*
X01060230Y01855829D01*
X01044232Y01871827D02*
X01007224Y01871827D01*
X01016418Y01887826D02*
X01028233Y01887826D01*
X01064118Y01919823D02*
X01168593Y01919823D01*
X01172003Y01928057D02*
X01165000Y01911150D01*
X01165000Y01832850D01*
X01172003Y01815943D01*
X01184943Y01803003D01*
X01201850Y01796000D01*
X01220150Y01796000D01*
X01237057Y01803003D01*
X01249997Y01815943D01*
X01257000Y01832850D01*
X01257000Y01911150D01*
X01249997Y01928057D01*
X01237057Y01940997D01*
X01220150Y01948000D01*
X01201850Y01948000D01*
X01184943Y01940997D01*
X01172003Y01928057D01*
X01179768Y01935821D02*
X01048120Y01935821D01*
X01032121Y01951820D02*
X01867879Y01951820D01*
X01883877Y01967818D02*
X01016123Y01967818D01*
X01000000Y01950000D02*
X01150000Y01800000D01*
X01150000Y01750000D01*
X01200000Y01700000D01*
X01211000Y01678000D01*
X01257000Y01679845D02*
X01343000Y01679845D01*
X01343000Y01695844D02*
X01257000Y01695844D01*
X01257000Y01711842D02*
X01343000Y01711842D01*
X01343000Y01717150D02*
X01343000Y01638850D01*
X01350003Y01621943D01*
X01362943Y01609003D01*
X01379850Y01602000D01*
X01398150Y01602000D01*
X01415057Y01609003D01*
X01427997Y01621943D01*
X01435000Y01638850D01*
X01435000Y01717150D01*
X01427997Y01734057D01*
X01415057Y01746997D01*
X01398150Y01754000D01*
X01379850Y01754000D01*
X01362943Y01746997D01*
X01350003Y01734057D01*
X01343000Y01717150D01*
X01347428Y01727841D02*
X01252572Y01727841D01*
X01240215Y01743839D02*
X01359785Y01743839D01*
X01379850Y01796000D02*
X01362943Y01803003D01*
X01350003Y01815943D01*
X01343000Y01832850D01*
X01343000Y01911150D01*
X01350003Y01928057D01*
X01362943Y01940997D01*
X01379850Y01948000D01*
X01398150Y01948000D01*
X01415057Y01940997D01*
X01427997Y01928057D01*
X01435000Y01911150D01*
X01435000Y01832850D01*
X01427997Y01815943D01*
X01415057Y01803003D01*
X01398150Y01796000D01*
X01379850Y01796000D01*
X01358113Y01807833D02*
X01241887Y01807833D01*
X01253264Y01823832D02*
X01346735Y01823832D01*
X01343000Y01839830D02*
X01257000Y01839830D01*
X01257000Y01855829D02*
X01343000Y01855829D01*
X01343000Y01871827D02*
X01257000Y01871827D01*
X01257000Y01887826D02*
X01343000Y01887826D01*
X01343000Y01903824D02*
X01257000Y01903824D01*
X01253407Y01919823D02*
X01346593Y01919823D01*
X01357768Y01935821D02*
X01242232Y01935821D01*
X01165000Y01903824D02*
X01080117Y01903824D01*
X01096115Y01887826D02*
X01165000Y01887826D01*
X01165000Y01871827D02*
X01112114Y01871827D01*
X01128112Y01855829D02*
X01165000Y01855829D01*
X01165000Y01839830D02*
X01144111Y01839830D01*
X01160109Y01823832D02*
X01168735Y01823832D01*
X01172733Y01807833D02*
X01180113Y01807833D01*
X01174000Y01791835D02*
X02389008Y01791835D01*
X02389008Y01807833D02*
X02319887Y01807833D01*
X02315057Y01803003D02*
X02327997Y01815943D01*
X02335000Y01832850D01*
X02335000Y01911150D01*
X02327997Y01928057D01*
X02315057Y01940997D01*
X02298150Y01948000D01*
X02279850Y01948000D01*
X02262943Y01940997D01*
X02250003Y01928057D01*
X02243000Y01911150D01*
X02243000Y01832850D01*
X02250003Y01815943D01*
X02262943Y01803003D01*
X02279850Y01796000D01*
X02298150Y01796000D01*
X02315057Y01803003D01*
X02331264Y01823832D02*
X02389008Y01823832D01*
X02389008Y01839830D02*
X02335000Y01839830D01*
X02335000Y01855829D02*
X02389008Y01855829D01*
X02389008Y01871827D02*
X02335000Y01871827D01*
X02335000Y01887826D02*
X02389008Y01887826D01*
X02389008Y01903824D02*
X02335000Y01903824D01*
X02331407Y01919823D02*
X02389008Y01919823D01*
X02389008Y01935821D02*
X02320232Y01935821D01*
X02257768Y01935821D02*
X02142232Y01935821D01*
X02137057Y01940997D02*
X02120150Y01948000D01*
X02101850Y01948000D01*
X02084943Y01940997D01*
X02072003Y01928057D01*
X02065000Y01911150D01*
X02065000Y01832850D01*
X02072003Y01815943D01*
X02084943Y01803003D01*
X02101850Y01796000D01*
X02120150Y01796000D01*
X02137057Y01803003D01*
X02149997Y01815943D01*
X02157000Y01832850D01*
X02157000Y01911150D01*
X02149997Y01928057D01*
X02137057Y01940997D01*
X02124117Y01963907D02*
X02136093Y01975883D01*
X02142575Y01991531D01*
X02142575Y02008469D01*
X02136093Y02024117D01*
X02124117Y02036093D01*
X02108469Y02042575D01*
X02091531Y02042575D01*
X02075883Y02036093D01*
X02063907Y02024117D01*
X02063859Y02024000D01*
X01954774Y02024000D01*
X01945226Y02024000D01*
X01936405Y02020346D01*
X01847056Y01930997D01*
X01837057Y01940997D01*
X01820150Y01948000D01*
X01801850Y01948000D01*
X01784943Y01940997D01*
X01772003Y01928057D01*
X01765000Y01911150D01*
X01765000Y01832850D01*
X01772003Y01815943D01*
X01784943Y01803003D01*
X01801850Y01796000D01*
X01820150Y01796000D01*
X01837057Y01803003D01*
X01849997Y01815943D01*
X01857000Y01832850D01*
X01857000Y01873059D01*
X01959941Y01976000D01*
X02063859Y01976000D01*
X02063907Y01975883D01*
X02075883Y01963907D01*
X02091531Y01957425D01*
X02108469Y01957425D01*
X02124117Y01963907D01*
X02128028Y01967818D02*
X02389008Y01967818D01*
X02389008Y01951820D02*
X01935761Y01951820D01*
X01951759Y01967818D02*
X02071972Y01967818D01*
X02100000Y02000000D02*
X01950000Y02000000D01*
X01800000Y01850000D01*
X01811000Y01872000D01*
X01857000Y01871827D02*
X01943000Y01871827D01*
X01943000Y01855829D02*
X01857000Y01855829D01*
X01857000Y01839830D02*
X01943000Y01839830D01*
X01943000Y01832850D02*
X01950003Y01815943D01*
X01962943Y01803003D01*
X01979850Y01796000D01*
X01998150Y01796000D01*
X02015057Y01803003D01*
X02027997Y01815943D01*
X02035000Y01832850D01*
X02035000Y01911150D01*
X02027997Y01928057D01*
X02015057Y01940997D01*
X01998150Y01948000D01*
X01979850Y01948000D01*
X01962943Y01940997D01*
X01950003Y01928057D01*
X01943000Y01911150D01*
X01943000Y01832850D01*
X01946735Y01823832D02*
X01853264Y01823832D01*
X01841887Y01807833D02*
X01958113Y01807833D01*
X01979850Y01754000D02*
X01962943Y01746997D01*
X01950003Y01734057D01*
X01943000Y01717150D01*
X01943000Y01638850D01*
X01950003Y01621943D01*
X01962943Y01609003D01*
X01979850Y01602000D01*
X01998150Y01602000D01*
X02015057Y01609003D01*
X02027997Y01621943D01*
X02035000Y01638850D01*
X02035000Y01717150D01*
X02027997Y01734057D01*
X02015057Y01746997D01*
X01998150Y01754000D01*
X01979850Y01754000D01*
X01959785Y01743839D02*
X01840215Y01743839D01*
X01837057Y01746997D02*
X01820150Y01754000D01*
X01801850Y01754000D01*
X01784943Y01746997D01*
X01772003Y01734057D01*
X01765000Y01717150D01*
X01765000Y01638850D01*
X01772003Y01621943D01*
X01784943Y01609003D01*
X01801850Y01602000D01*
X01820150Y01602000D01*
X01837057Y01609003D01*
X01849997Y01621943D01*
X01857000Y01638850D01*
X01857000Y01717150D01*
X01849997Y01734057D01*
X01837057Y01746997D01*
X01852572Y01727841D02*
X01947428Y01727841D01*
X01943000Y01711842D02*
X01857000Y01711842D01*
X01857000Y01695844D02*
X01943000Y01695844D01*
X01943000Y01679845D02*
X01857000Y01679845D01*
X01857000Y01663846D02*
X01943000Y01663846D01*
X01943000Y01647848D02*
X01857000Y01647848D01*
X01854100Y01631849D02*
X01945900Y01631849D01*
X01956095Y01615851D02*
X01843905Y01615851D01*
X01778095Y01615851D02*
X01721905Y01615851D01*
X01727997Y01621943D02*
X01735000Y01638850D01*
X01735000Y01717150D01*
X01727997Y01734057D01*
X01715057Y01746997D01*
X01698150Y01754000D01*
X01679850Y01754000D01*
X01662943Y01746997D01*
X01650003Y01734057D01*
X01643000Y01717150D01*
X01643000Y01638850D01*
X01650003Y01621943D01*
X01662943Y01609003D01*
X01679850Y01602000D01*
X01698150Y01602000D01*
X01715057Y01609003D01*
X01727997Y01621943D01*
X01732100Y01631849D02*
X01767900Y01631849D01*
X01765000Y01647848D02*
X01735000Y01647848D01*
X01735000Y01663846D02*
X01765000Y01663846D01*
X01765000Y01679845D02*
X01735000Y01679845D01*
X01735000Y01695844D02*
X01765000Y01695844D01*
X01765000Y01711842D02*
X01735000Y01711842D01*
X01730572Y01727841D02*
X01769428Y01727841D01*
X01781785Y01743839D02*
X01718215Y01743839D01*
X01698150Y01796000D02*
X01679850Y01796000D01*
X01662943Y01803003D01*
X01650003Y01815943D01*
X01643000Y01832850D01*
X01643000Y01911150D01*
X01650003Y01928057D01*
X01662943Y01940997D01*
X01679850Y01948000D01*
X01698150Y01948000D01*
X01715057Y01940997D01*
X01727997Y01928057D01*
X01735000Y01911150D01*
X01735000Y01832850D01*
X01727997Y01815943D01*
X01715057Y01803003D01*
X01698150Y01796000D01*
X01719887Y01807833D02*
X01780113Y01807833D01*
X01768735Y01823832D02*
X01731264Y01823832D01*
X01735000Y01839830D02*
X01765000Y01839830D01*
X01765000Y01855829D02*
X01735000Y01855829D01*
X01735000Y01871827D02*
X01765000Y01871827D01*
X01765000Y01887826D02*
X01735000Y01887826D01*
X01735000Y01903824D02*
X01765000Y01903824D01*
X01768593Y01919823D02*
X01731407Y01919823D01*
X01720232Y01935821D02*
X01779768Y01935821D01*
X01782242Y01983817D02*
X01517758Y01983817D01*
X01533757Y01999815D02*
X01766243Y01999815D01*
X01750245Y02015814D02*
X01549755Y02015814D01*
X01565754Y02031813D02*
X01734246Y02031813D01*
X01718248Y02047811D02*
X01581752Y02047811D01*
X01597751Y02063810D02*
X01658137Y02063810D01*
X01646745Y02079808D02*
X01613749Y02079808D01*
X01624000Y02095807D02*
X01643000Y02095807D01*
X01643000Y02111805D02*
X01624000Y02111805D01*
X01624000Y02127804D02*
X01643000Y02127804D01*
X01643000Y02143802D02*
X01624000Y02143802D01*
X01624000Y02159801D02*
X01643000Y02159801D01*
X01646583Y02175799D02*
X01624000Y02175799D01*
X01624000Y02191798D02*
X01657744Y02191798D01*
X01624000Y02207796D02*
X01707425Y02207796D01*
X01692264Y02223795D02*
X01624000Y02223795D01*
X01637224Y02239793D02*
X01662776Y02239793D01*
X01662346Y02255792D02*
X01637653Y02255792D01*
X01637653Y02271790D02*
X01662346Y02271790D01*
X01662346Y02287789D02*
X01637653Y02287789D01*
X01634289Y02303787D02*
X01665711Y02303787D01*
X01662346Y02319786D02*
X01637653Y02319786D01*
X01600000Y02266535D02*
X01600000Y02100000D01*
X01500000Y02000000D01*
X00950000Y02000000D01*
X01000000Y01950000D02*
X00900000Y01950000D01*
X00850000Y02000000D01*
X00850000Y02150000D01*
X00900000Y02200000D01*
X00950000Y02200000D01*
X00892813Y02271790D02*
X00805731Y02271790D01*
X00821730Y02287789D02*
X00883597Y02287789D01*
X00882000Y02303787D02*
X00837728Y02303787D01*
X00853727Y02319786D02*
X00886735Y02319786D01*
X00900640Y02335784D02*
X00869725Y02335784D01*
X00885724Y02351783D02*
X01164276Y02351783D01*
X01180274Y02335784D02*
X00999360Y02335784D01*
X01003178Y02367781D02*
X01148277Y02367781D01*
X01184162Y02399779D02*
X01226000Y02399779D01*
X01226000Y02415777D02*
X01168164Y02415777D01*
X01200161Y02383780D02*
X01226000Y02383780D01*
X01226000Y02431776D02*
X01003621Y02431776D01*
X00896379Y02431776D02*
X00403621Y02431776D01*
X00399791Y02435606D02*
X00384354Y02442000D01*
X00315646Y02442000D01*
X00300209Y02435606D01*
X00288394Y02423791D01*
X00282000Y02408354D01*
X00282000Y02391646D01*
X00288394Y02376209D01*
X00300209Y02364394D01*
X00315646Y02358000D01*
X00384354Y02358000D01*
X00399791Y02364394D01*
X00411606Y02376209D01*
X00418000Y02391646D01*
X00418000Y02408354D01*
X00411606Y02423791D01*
X00399791Y02435606D01*
X00414925Y02415777D02*
X00881836Y02415777D01*
X00865837Y02399779D02*
X00418000Y02399779D01*
X00414742Y02383780D02*
X00849839Y02383780D01*
X00833840Y02367781D02*
X00403178Y02367781D01*
X00384354Y02342000D02*
X00399791Y02335606D01*
X00411606Y02323791D01*
X00418000Y02308354D01*
X00418000Y02291646D01*
X00411606Y02276209D01*
X00399791Y02264394D01*
X00384354Y02258000D01*
X00315646Y02258000D01*
X00300209Y02264394D01*
X00288394Y02276209D01*
X00282000Y02291646D01*
X00282000Y02308354D01*
X00288394Y02323791D01*
X00300209Y02335606D01*
X00315646Y02342000D01*
X00384354Y02342000D01*
X00399360Y02335784D02*
X00801843Y02335784D01*
X00785845Y02319786D02*
X00413265Y02319786D01*
X00418000Y02303787D02*
X00769846Y02303787D01*
X00753848Y02287789D02*
X00416402Y02287789D01*
X00407187Y02271790D02*
X00737849Y02271790D01*
X00726422Y02255792D02*
X00143476Y02255792D01*
X00154134Y02239793D02*
X00310319Y02239793D01*
X00315646Y02242000D02*
X00300209Y02235606D01*
X00288394Y02223791D01*
X00282000Y02208354D01*
X00282000Y02191646D01*
X00288394Y02176209D01*
X00300209Y02164394D01*
X00315646Y02158000D01*
X00384354Y02158000D01*
X00399791Y02164394D01*
X00411606Y02176209D01*
X00418000Y02191646D01*
X00418000Y02208354D01*
X00411606Y02223791D01*
X00399791Y02235606D01*
X00384354Y02242000D01*
X00315646Y02242000D01*
X00288398Y02223795D02*
X00169934Y02223795D01*
X00176000Y02207796D02*
X00282000Y02207796D01*
X00282000Y02191798D02*
X00176000Y02191798D01*
X00169766Y02175799D02*
X00288804Y02175799D01*
X00311298Y02159801D02*
X00153154Y02159801D01*
X00144456Y02143802D02*
X00726000Y02143802D01*
X00726000Y02127804D02*
X00407593Y02127804D01*
X00411606Y02123791D02*
X00399791Y02135606D01*
X00384354Y02142000D01*
X00315646Y02142000D01*
X00300209Y02135606D01*
X00288394Y02123791D01*
X00282000Y02108354D01*
X00282000Y02091646D01*
X00288394Y02076209D01*
X00300209Y02064394D01*
X00315646Y02058000D01*
X00384354Y02058000D01*
X00399791Y02064394D01*
X00411606Y02076209D01*
X00418000Y02091646D01*
X00418000Y02108354D01*
X00411606Y02123791D01*
X00416571Y02111805D02*
X00726000Y02111805D01*
X00726000Y02095807D02*
X00418000Y02095807D01*
X00413097Y02079808D02*
X00726000Y02079808D01*
X00726000Y02063810D02*
X00398380Y02063810D01*
X00384354Y02042000D02*
X00399791Y02035606D01*
X00411606Y02023791D01*
X00418000Y02008354D01*
X00418000Y01991646D01*
X00411606Y01976209D01*
X00399791Y01964394D01*
X00384354Y01958000D01*
X00315646Y01958000D01*
X00300209Y01964394D01*
X00288394Y01976209D01*
X00282000Y01991646D01*
X00282000Y02008354D01*
X00288394Y02023791D01*
X00300209Y02035606D01*
X00315646Y02042000D01*
X00384354Y02042000D01*
X00403584Y02031813D02*
X00726000Y02031813D01*
X00726000Y02047811D02*
X00048000Y02047811D01*
X00048000Y02143802D02*
X00055544Y02143802D01*
X00056524Y02255792D02*
X00048000Y02255792D01*
X00048000Y02351783D02*
X00817842Y02351783D01*
X00726000Y02239793D02*
X00389681Y02239793D01*
X00411602Y02223795D02*
X00726000Y02223795D01*
X00726000Y02207796D02*
X00418000Y02207796D01*
X00418000Y02191798D02*
X00726000Y02191798D01*
X00726000Y02175799D02*
X00411196Y02175799D01*
X00388702Y02159801D02*
X00726000Y02159801D01*
X00726000Y02015814D02*
X00414910Y02015814D01*
X00418000Y01999815D02*
X00726000Y01999815D01*
X00726000Y01983817D02*
X00414757Y01983817D01*
X00403215Y01967818D02*
X00726000Y01967818D01*
X00726000Y01951820D02*
X00048000Y01951820D01*
X00048000Y01855829D02*
X00056435Y01855829D01*
X00143565Y01855829D02*
X00726000Y01855829D01*
X00726000Y01871827D02*
X00407224Y01871827D01*
X00411606Y01876209D02*
X00418000Y01891646D01*
X00418000Y01908354D01*
X00411606Y01923791D01*
X00399791Y01935606D01*
X00384354Y01942000D01*
X00315646Y01942000D01*
X00300209Y01935606D01*
X00288394Y01923791D01*
X00282000Y01908354D01*
X00282000Y01891646D01*
X00288394Y01876209D01*
X00300209Y01864394D01*
X00315646Y01858000D01*
X00384354Y01858000D01*
X00399791Y01864394D01*
X00411606Y01876209D01*
X00416418Y01887826D02*
X00726000Y01887826D01*
X00726000Y01903824D02*
X00418000Y01903824D01*
X00413250Y01919823D02*
X00726000Y01919823D01*
X00726000Y01935821D02*
X00399271Y01935821D01*
X00384354Y01842000D02*
X00399791Y01835606D01*
X00411606Y01823791D01*
X00418000Y01808354D01*
X00418000Y01791646D01*
X00411606Y01776209D01*
X00399791Y01764394D01*
X00384354Y01758000D01*
X00315646Y01758000D01*
X00300209Y01764394D01*
X00288394Y01776209D01*
X00282000Y01791646D01*
X00282000Y01808354D01*
X00288394Y01823791D01*
X00300209Y01835606D01*
X00315646Y01842000D01*
X00384354Y01842000D01*
X00389592Y01839830D02*
X00726000Y01839830D01*
X00726000Y01823832D02*
X00411565Y01823832D01*
X00418000Y01807833D02*
X00726000Y01807833D01*
X00726000Y01791835D02*
X00418000Y01791835D01*
X00411233Y01775836D02*
X00726000Y01775836D01*
X00726000Y01759838D02*
X00388791Y01759838D01*
X00384354Y01742000D02*
X00399791Y01735606D01*
X00411606Y01723791D01*
X00418000Y01708354D01*
X00418000Y01691646D01*
X00411606Y01676209D01*
X00399791Y01664394D01*
X00384354Y01658000D01*
X00315646Y01658000D01*
X00300209Y01664394D01*
X00288394Y01676209D01*
X00282000Y01691646D01*
X00282000Y01708354D01*
X00288394Y01723791D01*
X00300209Y01735606D01*
X00315646Y01742000D01*
X00384354Y01742000D01*
X00407556Y01727841D02*
X00726000Y01727841D01*
X00726000Y01743839D02*
X00144367Y01743839D01*
X00153243Y01759838D02*
X00311209Y01759838D01*
X00288767Y01775836D02*
X00169781Y01775836D01*
X00176000Y01791835D02*
X00282000Y01791835D01*
X00282000Y01807833D02*
X00176000Y01807833D01*
X00169919Y01823832D02*
X00288435Y01823832D01*
X00310408Y01839830D02*
X00154045Y01839830D01*
X00166881Y01871827D02*
X00292776Y01871827D01*
X00283582Y01887826D02*
X00174747Y01887826D01*
X00176000Y01903824D02*
X00282000Y01903824D01*
X00286750Y01919823D02*
X00171579Y01919823D01*
X00159232Y01935821D02*
X00300729Y01935821D01*
X00296785Y01967818D02*
X00162872Y01967818D01*
X00173087Y01983817D02*
X00285243Y01983817D01*
X00282000Y01999815D02*
X00176000Y01999815D01*
X00173240Y02015814D02*
X00285090Y02015814D01*
X00296416Y02031813D02*
X00163241Y02031813D01*
X00158863Y02063810D02*
X00301620Y02063810D01*
X00286903Y02079808D02*
X00171426Y02079808D01*
X00176000Y02095807D02*
X00282000Y02095807D01*
X00283429Y02111805D02*
X00174900Y02111805D01*
X00167250Y02127804D02*
X00292407Y02127804D01*
X00292813Y02271790D02*
X00166844Y02271790D01*
X00174732Y02287789D02*
X00283597Y02287789D01*
X00282000Y02303787D02*
X00176000Y02303787D01*
X00171594Y02319786D02*
X00286735Y02319786D01*
X00300640Y02335784D02*
X00159269Y02335784D01*
X00162835Y02367781D02*
X00296821Y02367781D01*
X00285258Y02383780D02*
X00173071Y02383780D01*
X00176000Y02399779D02*
X00282000Y02399779D01*
X00285075Y02415777D02*
X00173255Y02415777D01*
X00163278Y02431776D02*
X00296379Y02431776D01*
X00048000Y02447774D02*
X01226000Y02447774D01*
X01229832Y02463773D02*
X00048000Y02463773D01*
X00048000Y02479771D02*
X01295830Y02479771D01*
X01311829Y02495770D02*
X00048000Y02495770D01*
X00048000Y02511768D02*
X01327827Y02511768D01*
X01450000Y02350000D02*
X01450000Y02300000D01*
X01500000Y02250000D01*
X01500000Y02266535D01*
X01537653Y02271790D02*
X01562346Y02271790D01*
X01562346Y02255792D02*
X01537653Y02255792D01*
X01537224Y02239793D02*
X01562776Y02239793D01*
X01576000Y02223795D02*
X01357736Y02223795D01*
X01342575Y02207796D02*
X01576000Y02207796D01*
X01576000Y02191798D02*
X01542256Y02191798D01*
X01553417Y02175799D02*
X01576000Y02175799D01*
X01576000Y02159801D02*
X01557000Y02159801D01*
X01557000Y02143802D02*
X01576000Y02143802D01*
X01576000Y02127804D02*
X01557000Y02127804D01*
X01557000Y02111805D02*
X01576000Y02111805D01*
X01561866Y02095807D02*
X01557000Y02095807D01*
X01511000Y02128000D02*
X01500000Y02100000D01*
X01501850Y01948000D02*
X01484943Y01940997D01*
X01472003Y01928057D01*
X01465000Y01911150D01*
X01465000Y01832850D01*
X01472003Y01815943D01*
X01484943Y01803003D01*
X01501850Y01796000D01*
X01520150Y01796000D01*
X01537057Y01803003D01*
X01549997Y01815943D01*
X01557000Y01832850D01*
X01557000Y01911150D01*
X01549997Y01928057D01*
X01537057Y01940997D01*
X01520150Y01948000D01*
X01501850Y01948000D01*
X01479768Y01935821D02*
X01420232Y01935821D01*
X01431407Y01919823D02*
X01468593Y01919823D01*
X01465000Y01903824D02*
X01435000Y01903824D01*
X01435000Y01887826D02*
X01465000Y01887826D01*
X01465000Y01871827D02*
X01435000Y01871827D01*
X01435000Y01855829D02*
X01465000Y01855829D01*
X01465000Y01839830D02*
X01435000Y01839830D01*
X01431264Y01823832D02*
X01468735Y01823832D01*
X01480113Y01807833D02*
X01419887Y01807833D01*
X01418215Y01743839D02*
X01481785Y01743839D01*
X01469428Y01727841D02*
X01430572Y01727841D01*
X01435000Y01711842D02*
X01465000Y01711842D01*
X01465000Y01695844D02*
X01435000Y01695844D01*
X01435000Y01679845D02*
X01465000Y01679845D01*
X01465000Y01663846D02*
X01435000Y01663846D01*
X01435000Y01647848D02*
X01463907Y01647848D01*
X01447908Y01631849D02*
X01432100Y01631849D01*
X01431910Y01615851D02*
X01421905Y01615851D01*
X01426000Y01599852D02*
X01018000Y01599852D01*
X01018000Y01591646D02*
X01018000Y01608354D01*
X01011606Y01623791D01*
X00999791Y01635606D01*
X00984354Y01642000D01*
X00915646Y01642000D01*
X00900209Y01635606D01*
X00888394Y01623791D01*
X00882000Y01608354D01*
X00882000Y01591646D01*
X00888394Y01576209D01*
X00900209Y01564394D01*
X00915646Y01558000D01*
X00984354Y01558000D01*
X00999791Y01564394D01*
X01011606Y01576209D01*
X01018000Y01591646D01*
X01014772Y01583854D02*
X01373644Y01583854D01*
X01361313Y01567855D02*
X01003252Y01567855D01*
X01014895Y01615851D02*
X01178095Y01615851D01*
X01167900Y01631849D02*
X01003547Y01631849D01*
X00998469Y01663846D02*
X01165000Y01663846D01*
X01165000Y01647848D02*
X00774000Y01647848D01*
X00774000Y01663846D02*
X00901531Y01663846D01*
X00900209Y01664394D02*
X00915646Y01658000D01*
X00984354Y01658000D01*
X00999791Y01664394D01*
X01011606Y01676209D01*
X01018000Y01691646D01*
X01018000Y01708354D01*
X01011606Y01723791D01*
X00999791Y01735606D01*
X00984354Y01742000D01*
X00915646Y01742000D01*
X00900209Y01735606D01*
X00888394Y01723791D01*
X00882000Y01708354D01*
X00882000Y01691646D01*
X00888394Y01676209D01*
X00900209Y01664394D01*
X00886888Y01679845D02*
X00774000Y01679845D01*
X00774000Y01695844D02*
X00882000Y01695844D01*
X00883445Y01711842D02*
X00774000Y01711842D01*
X00774000Y01727841D02*
X00892444Y01727841D01*
X00911209Y01759838D02*
X00774000Y01759838D01*
X00774000Y01775836D02*
X00888767Y01775836D01*
X00888394Y01776209D02*
X00900209Y01764394D01*
X00915646Y01758000D01*
X00984354Y01758000D01*
X00999791Y01764394D01*
X01011606Y01776209D01*
X01018000Y01791646D01*
X01018000Y01808354D01*
X01011606Y01823791D01*
X00999791Y01835606D01*
X00984354Y01842000D01*
X00915646Y01842000D01*
X00900209Y01835606D01*
X00888394Y01823791D01*
X00882000Y01808354D01*
X00882000Y01791646D01*
X00888394Y01776209D01*
X00882000Y01791835D02*
X00774000Y01791835D01*
X00774000Y01807833D02*
X00882000Y01807833D01*
X00888435Y01823832D02*
X00774000Y01823832D01*
X00774000Y01839830D02*
X00910408Y01839830D01*
X00989592Y01839830D02*
X01076229Y01839830D01*
X01092227Y01823832D02*
X01011565Y01823832D01*
X01018000Y01807833D02*
X01108226Y01807833D01*
X01124224Y01791835D02*
X01018000Y01791835D01*
X01011233Y01775836D02*
X01126000Y01775836D01*
X01126000Y01759838D02*
X00988791Y01759838D01*
X01007556Y01727841D02*
X01138218Y01727841D01*
X01126574Y01743839D02*
X00774000Y01743839D01*
X00726000Y01711842D02*
X00416555Y01711842D01*
X00418000Y01695844D02*
X00726000Y01695844D01*
X00726000Y01679845D02*
X00413112Y01679845D01*
X00350000Y01600000D02*
X00300000Y01600000D01*
X00250000Y01550000D01*
X00150000Y01550000D01*
X00150000Y01536614D01*
X00150000Y01500000D01*
X00050000Y01400000D01*
X00197496Y01343876D02*
X01426000Y01343876D01*
X01426000Y01359875D02*
X01421928Y01359875D01*
X01474000Y01359875D02*
X01478072Y01359875D01*
X01474000Y01343876D02*
X02389008Y01343876D01*
X02389008Y01327877D02*
X01474000Y01327877D01*
X01474000Y01311879D02*
X02389008Y01311879D01*
X02389008Y01295880D02*
X02316173Y01295880D01*
X02315057Y01296997D02*
X02298150Y01304000D01*
X02279850Y01304000D01*
X02262943Y01296997D01*
X02250003Y01284057D01*
X02243000Y01267150D01*
X02243000Y01188850D01*
X02250003Y01171943D01*
X02262943Y01159003D01*
X02279850Y01152000D01*
X02298150Y01152000D01*
X02315057Y01159003D01*
X02327997Y01171943D01*
X02335000Y01188850D01*
X02335000Y01267150D01*
X02327997Y01284057D01*
X02315057Y01296997D01*
X02329726Y01279882D02*
X02389008Y01279882D01*
X02389008Y01263883D02*
X02335000Y01263883D01*
X02335000Y01247885D02*
X02389008Y01247885D01*
X02389008Y01231886D02*
X02335000Y01231886D01*
X02335000Y01215888D02*
X02389008Y01215888D01*
X02389008Y01199889D02*
X02335000Y01199889D01*
X02332946Y01183891D02*
X02389008Y01183891D01*
X02389008Y01167892D02*
X02323946Y01167892D01*
X02389008Y01151894D02*
X02224000Y01151894D01*
X02224000Y01145226D02*
X02224000Y01213859D01*
X02224117Y01213907D01*
X02236093Y01225883D01*
X02242575Y01241531D01*
X02242575Y01258469D01*
X02236093Y01274117D01*
X02224117Y01286093D01*
X02208469Y01292575D01*
X02191531Y01292575D01*
X02175883Y01286093D01*
X02163907Y01274117D01*
X02157425Y01258469D01*
X02157425Y01241531D01*
X02163907Y01225883D01*
X02175883Y01213907D01*
X02176000Y01213859D01*
X02176000Y01159941D01*
X02140059Y01124000D01*
X01959941Y01124000D01*
X01857000Y01226941D01*
X01857000Y01267150D01*
X01849997Y01284057D01*
X01837057Y01296997D01*
X01820150Y01304000D01*
X01801850Y01304000D01*
X01784943Y01296997D01*
X01772003Y01284057D01*
X01765000Y01267150D01*
X01765000Y01198941D01*
X01690059Y01124000D01*
X01659941Y01124000D01*
X01557000Y01226941D01*
X01557000Y01267150D01*
X01549997Y01284057D01*
X01537057Y01296997D01*
X01520150Y01304000D01*
X01501850Y01304000D01*
X01484943Y01296997D01*
X01472003Y01284057D01*
X01465000Y01267150D01*
X01465000Y01188850D01*
X01472003Y01171943D01*
X01484943Y01159003D01*
X01501850Y01152000D01*
X01520150Y01152000D01*
X01537057Y01159003D01*
X01547056Y01169003D01*
X01636405Y01079654D01*
X01645226Y01076000D01*
X01704774Y01076000D01*
X01713595Y01079654D01*
X01720346Y01086405D01*
X01790601Y01156660D01*
X01801850Y01152000D01*
X01820150Y01152000D01*
X01837057Y01159003D01*
X01847056Y01169003D01*
X01936405Y01079654D01*
X01945226Y01076000D01*
X02154774Y01076000D01*
X02163595Y01079654D01*
X02170346Y01086405D01*
X02220346Y01136405D01*
X02224000Y01145226D01*
X02219836Y01135895D02*
X02389008Y01135895D01*
X02389008Y01119897D02*
X02203838Y01119897D01*
X02187839Y01103898D02*
X02389008Y01103898D01*
X02389008Y01087900D02*
X02171841Y01087900D01*
X02150000Y01100000D02*
X01950000Y01100000D01*
X01800000Y01250000D01*
X01811000Y01228000D01*
X01800000Y01200000D01*
X01700000Y01100000D01*
X01650000Y01100000D01*
X01500000Y01250000D01*
X01511000Y01228000D01*
X01557000Y01231886D02*
X01643000Y01231886D01*
X01643000Y01215888D02*
X01568053Y01215888D01*
X01584052Y01199889D02*
X01643000Y01199889D01*
X01643000Y01188850D02*
X01650003Y01171943D01*
X01662943Y01159003D01*
X01679850Y01152000D01*
X01698150Y01152000D01*
X01715057Y01159003D01*
X01727997Y01171943D01*
X01735000Y01188850D01*
X01735000Y01267150D01*
X01727997Y01284057D01*
X01715057Y01296997D01*
X01698150Y01304000D01*
X01679850Y01304000D01*
X01662943Y01296997D01*
X01650003Y01284057D01*
X01643000Y01267150D01*
X01643000Y01188850D01*
X01645054Y01183891D02*
X01600050Y01183891D01*
X01616049Y01167892D02*
X01654054Y01167892D01*
X01632047Y01151894D02*
X01717953Y01151894D01*
X01723946Y01167892D02*
X01733951Y01167892D01*
X01732946Y01183891D02*
X01749950Y01183891D01*
X01735000Y01199889D02*
X01765000Y01199889D01*
X01765000Y01215888D02*
X01735000Y01215888D01*
X01735000Y01231886D02*
X01765000Y01231886D01*
X01765000Y01247885D02*
X01735000Y01247885D01*
X01735000Y01263883D02*
X01765000Y01263883D01*
X01770274Y01279882D02*
X01729726Y01279882D01*
X01716173Y01295880D02*
X01783827Y01295880D01*
X01801850Y01346000D02*
X01820150Y01346000D01*
X01837057Y01353003D01*
X01849997Y01365943D01*
X01857000Y01382850D01*
X01857000Y01461150D01*
X01849997Y01478057D01*
X01837057Y01490997D01*
X01820150Y01498000D01*
X01801850Y01498000D01*
X01784943Y01490997D01*
X01772003Y01478057D01*
X01765000Y01461150D01*
X01765000Y01382850D01*
X01772003Y01365943D01*
X01784943Y01353003D01*
X01801850Y01346000D01*
X01778072Y01359875D02*
X01721928Y01359875D01*
X01727997Y01365943D02*
X01735000Y01382850D01*
X01735000Y01461150D01*
X01727997Y01478057D01*
X01715057Y01490997D01*
X01698150Y01498000D01*
X01679850Y01498000D01*
X01662943Y01490997D01*
X01650003Y01478057D01*
X01643000Y01461150D01*
X01643000Y01382850D01*
X01650003Y01365943D01*
X01662943Y01353003D01*
X01679850Y01346000D01*
X01698150Y01346000D01*
X01715057Y01353003D01*
X01727997Y01365943D01*
X01732110Y01375873D02*
X01767890Y01375873D01*
X01765000Y01391872D02*
X01735000Y01391872D01*
X01735000Y01407870D02*
X01765000Y01407870D01*
X01765000Y01423869D02*
X01735000Y01423869D01*
X01735000Y01439867D02*
X01765000Y01439867D01*
X01765000Y01455866D02*
X01735000Y01455866D01*
X01730562Y01471864D02*
X01769438Y01471864D01*
X01781809Y01487863D02*
X01718191Y01487863D01*
X01659809Y01487863D02*
X01540191Y01487863D01*
X01552562Y01471864D02*
X01647438Y01471864D01*
X01643000Y01455866D02*
X01557000Y01455866D01*
X01557000Y01439867D02*
X01643000Y01439867D01*
X01643000Y01423869D02*
X01557000Y01423869D01*
X01557000Y01407870D02*
X01643000Y01407870D01*
X01643000Y01391872D02*
X01557000Y01391872D01*
X01554110Y01375873D02*
X01645890Y01375873D01*
X01656072Y01359875D02*
X01543928Y01359875D01*
X01538173Y01295880D02*
X01661827Y01295880D01*
X01648274Y01279882D02*
X01551726Y01279882D01*
X01557000Y01263883D02*
X01643000Y01263883D01*
X01643000Y01247885D02*
X01557000Y01247885D01*
X01548167Y01167892D02*
X01545946Y01167892D01*
X01564165Y01151894D02*
X01482047Y01151894D01*
X01476054Y01167892D02*
X01466049Y01167892D01*
X01467054Y01183891D02*
X01450050Y01183891D01*
X01465000Y01199889D02*
X01435000Y01199889D01*
X01435000Y01215888D02*
X01465000Y01215888D01*
X01465000Y01231886D02*
X01435000Y01231886D01*
X01435000Y01247885D02*
X01465000Y01247885D01*
X01465000Y01263883D02*
X01447824Y01263883D01*
X01463823Y01279882D02*
X01470274Y01279882D01*
X01474000Y01295880D02*
X01483827Y01295880D01*
X01450000Y01300000D02*
X01450000Y01550000D01*
X01400000Y01550000D01*
X01369930Y01519860D02*
X01013234Y01519860D01*
X01018000Y01503861D02*
X01426000Y01503861D01*
X01426000Y01487863D02*
X01418191Y01487863D01*
X01359809Y01487863D02*
X01240191Y01487863D01*
X01252562Y01471864D02*
X01347438Y01471864D01*
X01343000Y01455866D02*
X01257000Y01455866D01*
X01257000Y01439867D02*
X01343000Y01439867D01*
X01343000Y01423869D02*
X01257000Y01423869D01*
X01257000Y01407870D02*
X01343000Y01407870D01*
X01343000Y01391872D02*
X01257000Y01391872D01*
X01254110Y01375873D02*
X01345890Y01375873D01*
X01356072Y01359875D02*
X01243928Y01359875D01*
X01238173Y01295880D02*
X01361827Y01295880D01*
X01348274Y01279882D02*
X01251726Y01279882D01*
X01257000Y01263883D02*
X01343000Y01263883D01*
X01343000Y01247885D02*
X01257000Y01247885D01*
X01257000Y01231886D02*
X01343000Y01231886D01*
X01343000Y01215888D02*
X01257000Y01215888D01*
X01257000Y01199889D02*
X01343000Y01199889D01*
X01345054Y01183891D02*
X01254946Y01183891D01*
X01245946Y01167892D02*
X01354054Y01167892D01*
X01400000Y01200000D02*
X01389000Y01228000D01*
X01400000Y01250000D01*
X01450000Y01300000D01*
X01400000Y01200000D02*
X01500000Y01100000D01*
X01532111Y01071901D02*
X02389008Y01071901D01*
X02389008Y01055903D02*
X00142575Y01055903D01*
X00141901Y01039904D02*
X00310586Y01039904D01*
X00288509Y01023906D02*
X00134115Y01023906D01*
X00124000Y01007907D02*
X00282000Y01007907D01*
X00282000Y00991908D02*
X00124000Y00991908D01*
X00116535Y00950000D02*
X00100000Y00950000D01*
X00100000Y01050000D01*
X00080245Y01087900D02*
X00074000Y01087900D01*
X00074000Y01103898D02*
X00110346Y01103898D01*
X00110346Y01119897D02*
X00074000Y01119897D01*
X00074000Y01135895D02*
X00110346Y01135895D01*
X00117605Y01151894D02*
X00085835Y01151894D01*
X00101833Y01167892D02*
X00112346Y01167892D01*
X00100000Y01200000D02*
X00150000Y01200000D01*
X00150000Y01183465D01*
X00182395Y01151894D02*
X01414165Y01151894D01*
X01430164Y01135895D02*
X00999092Y01135895D01*
X01013219Y01119897D02*
X01446162Y01119897D01*
X01457425Y01103898D02*
X01018000Y01103898D01*
X01016448Y01087900D02*
X01458929Y01087900D01*
X01467889Y01071901D02*
X01007298Y01071901D01*
X00989414Y01039904D02*
X01183850Y01039904D01*
X01184943Y01040997D02*
X01172003Y01028057D01*
X01165000Y01011150D01*
X01165000Y00932850D01*
X01172003Y00915943D01*
X01184943Y00903003D01*
X01192193Y00900000D01*
X01184943Y00896997D01*
X01172003Y00884057D01*
X01165000Y00867150D01*
X01165000Y00788850D01*
X01172003Y00771943D01*
X01184943Y00759003D01*
X01201850Y00752000D01*
X01220150Y00752000D01*
X01237057Y00759003D01*
X01249997Y00771943D01*
X01257000Y00788850D01*
X01257000Y00867150D01*
X01249997Y00884057D01*
X01237057Y00896997D01*
X01229806Y00900000D01*
X01237057Y00903003D01*
X01249997Y00915943D01*
X01257000Y00932850D01*
X01257000Y01011150D01*
X01249997Y01028057D01*
X01237057Y01040997D01*
X01220150Y01048000D01*
X01201850Y01048000D01*
X01184943Y01040997D01*
X01170284Y01023906D02*
X01011491Y01023906D01*
X01018000Y01007907D02*
X01165000Y01007907D01*
X01165000Y00991908D02*
X01018000Y00991908D01*
X01011307Y00975910D02*
X01165000Y00975910D01*
X01165000Y00959911D02*
X00988969Y00959911D01*
X01007482Y00927914D02*
X01167044Y00927914D01*
X01165000Y00943913D02*
X00223118Y00943913D01*
X00223118Y00959911D02*
X00311031Y00959911D01*
X00288693Y00975910D02*
X00222085Y00975910D01*
X00223110Y00927914D02*
X00292517Y00927914D01*
X00283475Y00911916D02*
X00124000Y00911916D01*
X00124000Y00895917D02*
X00282000Y00895917D01*
X00286857Y00879919D02*
X00124000Y00879919D01*
X00124000Y00863920D02*
X00301353Y00863920D01*
X00296526Y00831923D02*
X00124000Y00831923D01*
X00124000Y00815925D02*
X00285136Y00815925D01*
X00282000Y00799926D02*
X00134015Y00799926D01*
X00100000Y00800000D02*
X00150000Y00750000D01*
X00150000Y00745000D01*
X00183810Y00783928D02*
X00285197Y00783928D01*
X00310675Y00639941D02*
X00194000Y00639941D01*
X00209999Y00623942D02*
X00288546Y00623942D01*
X00282000Y00607944D02*
X00225997Y00607944D01*
X00241996Y00591945D02*
X00282000Y00591945D01*
X00288656Y00575947D02*
X00257994Y00575947D01*
X00271857Y00559948D02*
X00310942Y00559948D01*
X00320221Y00543950D02*
X00274000Y00543950D01*
X00274000Y00527951D02*
X00289921Y00527951D01*
X00281619Y00511953D02*
X00274000Y00511953D01*
X00349999Y00511953D02*
X00350000Y00511953D01*
X00349999Y00527951D02*
X00350000Y00527951D01*
X00349999Y00543950D02*
X00350000Y00543950D01*
X00410079Y00527951D02*
X00892554Y00527951D01*
X00883491Y00511953D02*
X00418381Y00511953D01*
X00419907Y00495954D02*
X00882000Y00495954D01*
X00886842Y00479956D02*
X00415169Y00479956D01*
X00401248Y00463957D02*
X00901264Y00463957D01*
X00998736Y00463957D02*
X01552102Y00463957D01*
X01536103Y00479956D02*
X01013158Y00479956D01*
X01018000Y00495954D02*
X01520105Y00495954D01*
X01475993Y00511953D02*
X01424007Y00511953D01*
X01432971Y00527951D02*
X01467029Y00527951D01*
X01465000Y00543950D02*
X01435000Y00543950D01*
X01435000Y00559948D02*
X01465000Y00559948D01*
X01465000Y00575947D02*
X01435000Y00575947D01*
X01435000Y00591945D02*
X01465000Y00591945D01*
X01361887Y00639941D02*
X01238113Y00639941D01*
X01251701Y00623942D02*
X01348299Y00623942D01*
X01343000Y00607944D02*
X01257000Y00607944D01*
X01257000Y00591945D02*
X01343000Y00591945D01*
X01343000Y00575947D02*
X01257000Y00575947D01*
X01257000Y00559948D02*
X01343000Y00559948D01*
X01343000Y00543950D02*
X01257000Y00543950D01*
X01254971Y00527951D02*
X01345029Y00527951D01*
X01353993Y00511953D02*
X01246007Y00511953D01*
X01175993Y00511953D02*
X01016509Y00511953D01*
X01003326Y00767929D02*
X01176017Y00767929D01*
X01167039Y00783928D02*
X01014803Y00783928D01*
X01018000Y00799926D02*
X01165000Y00799926D01*
X01165000Y00815925D02*
X01014864Y00815925D01*
X01003474Y00831923D02*
X01165000Y00831923D01*
X01165000Y00847922D02*
X00124000Y00847922D01*
X00100000Y00800000D02*
X00100000Y00950000D01*
X00181622Y00959911D02*
X00185307Y00959911D01*
X00185307Y00975910D02*
X00181622Y00975910D01*
X00181622Y00927914D02*
X00185307Y00927914D01*
X00750000Y01550000D02*
X00850000Y01550000D01*
X00900000Y01500000D01*
X00950000Y01500000D01*
X00900818Y01535858D02*
X00898083Y01535858D01*
X00882084Y01551857D02*
X01357425Y01551857D01*
X01359775Y01535858D02*
X00999182Y01535858D01*
X01016433Y01487863D02*
X01181809Y01487863D01*
X01243905Y01615851D02*
X01356095Y01615851D01*
X01345900Y01631849D02*
X01254100Y01631849D01*
X01257000Y01647848D02*
X01343000Y01647848D01*
X01343000Y01663846D02*
X01257000Y01663846D01*
X01165000Y01679845D02*
X01013112Y01679845D01*
X01018000Y01695844D02*
X01165000Y01695844D01*
X01154217Y01711842D02*
X01016555Y01711842D01*
X00896453Y01631849D02*
X00774000Y01631849D01*
X00774000Y01615851D02*
X00885105Y01615851D01*
X00882000Y01599852D02*
X00774000Y01599852D01*
X00774000Y01583854D02*
X00885227Y01583854D01*
X00896748Y01567855D02*
X00866086Y01567855D01*
X01174103Y01759838D02*
X02389008Y01759838D01*
X02389008Y01775836D02*
X01174000Y01775836D01*
X01450000Y01600000D02*
X01450000Y01550000D01*
X01474000Y01551857D02*
X02389008Y01551857D01*
X02389008Y01567855D02*
X01474000Y01567855D01*
X01474000Y01583854D02*
X02389008Y01583854D01*
X02389008Y01599852D02*
X01483793Y01599852D01*
X01450000Y01600000D02*
X01500000Y01650000D01*
X01511000Y01678000D01*
X01557000Y01679845D02*
X01643000Y01679845D01*
X01643000Y01695844D02*
X01557000Y01695844D01*
X01557000Y01711842D02*
X01643000Y01711842D01*
X01647428Y01727841D02*
X01552572Y01727841D01*
X01540215Y01743839D02*
X01659785Y01743839D01*
X01658113Y01807833D02*
X01541887Y01807833D01*
X01553264Y01823832D02*
X01646735Y01823832D01*
X01643000Y01839830D02*
X01557000Y01839830D01*
X01557000Y01855829D02*
X01643000Y01855829D01*
X01643000Y01871827D02*
X01557000Y01871827D01*
X01557000Y01887826D02*
X01643000Y01887826D01*
X01643000Y01903824D02*
X01557000Y01903824D01*
X01553407Y01919823D02*
X01646593Y01919823D01*
X01657768Y01935821D02*
X01542232Y01935821D01*
X01700000Y02100000D02*
X01689000Y02128000D01*
X01700000Y02100000D02*
X01800000Y02000000D01*
X01850000Y02000000D01*
X01900000Y02050000D01*
X01900000Y02150000D01*
X02000000Y02250000D01*
X02000000Y02266535D01*
X02050000Y02200000D02*
X02100000Y02250000D01*
X02100000Y02266535D01*
X02137653Y02271790D02*
X02244268Y02271790D01*
X02228270Y02287789D02*
X02137653Y02287789D01*
X02134289Y02303787D02*
X02212271Y02303787D01*
X02196273Y02319786D02*
X02137653Y02319786D01*
X02137653Y02335784D02*
X02180274Y02335784D01*
X02164276Y02351783D02*
X02137653Y02351783D01*
X02129649Y02367781D02*
X02148277Y02367781D01*
X02150000Y02400000D02*
X02100000Y02400000D01*
X02050000Y02450000D01*
X02000000Y02450000D01*
X02004170Y02479771D02*
X02389008Y02479771D01*
X02389008Y02463773D02*
X02070168Y02463773D01*
X02086167Y02447774D02*
X02389008Y02447774D01*
X02389008Y02431776D02*
X02102165Y02431776D01*
X02150000Y02400000D02*
X02300000Y02250000D01*
X02300000Y02150000D01*
X02289000Y02128000D01*
X02335000Y02127804D02*
X02389008Y02127804D01*
X02389008Y02143802D02*
X02335000Y02143802D01*
X02335000Y02159801D02*
X02389008Y02159801D01*
X02389008Y02175799D02*
X02331417Y02175799D01*
X02324000Y02191798D02*
X02389008Y02191798D01*
X02389008Y02207796D02*
X02324000Y02207796D01*
X02324000Y02223795D02*
X02389008Y02223795D01*
X02389008Y02239793D02*
X02324000Y02239793D01*
X02323578Y02255792D02*
X02389008Y02255792D01*
X02389008Y02271790D02*
X02312151Y02271790D01*
X02296152Y02287789D02*
X02389008Y02287789D01*
X02389008Y02303787D02*
X02280154Y02303787D01*
X02264155Y02319786D02*
X02389008Y02319786D01*
X02389008Y02335784D02*
X02248156Y02335784D01*
X02232158Y02351783D02*
X02389008Y02351783D01*
X02389008Y02367781D02*
X02216159Y02367781D01*
X02200161Y02383780D02*
X02389008Y02383780D01*
X02389008Y02399779D02*
X02184162Y02399779D01*
X02168164Y02415777D02*
X02389008Y02415777D01*
X02389008Y02495770D02*
X01988171Y02495770D01*
X01972173Y02511768D02*
X02389008Y02511768D01*
X02389008Y02591761D02*
X01860433Y02591761D01*
X01839567Y02591761D02*
X00048000Y02591761D01*
X00048000Y02575762D02*
X01815553Y02575762D01*
X01807962Y02559764D02*
X00048000Y02559764D01*
X00048000Y01743839D02*
X00055633Y01743839D01*
X00167213Y01727841D02*
X00292444Y01727841D01*
X00283445Y01711842D02*
X00174885Y01711842D01*
X00176000Y01695844D02*
X00282000Y01695844D01*
X00286888Y01679845D02*
X00171441Y01679845D01*
X00158900Y01663846D02*
X00301531Y01663846D01*
X00265911Y01599852D02*
X00197496Y01599852D01*
X00197496Y01583854D02*
X00249913Y01583854D01*
X01003510Y01231886D02*
X01165000Y01231886D01*
X01165000Y01215888D02*
X01014879Y01215888D01*
X01018000Y01199889D02*
X01165000Y01199889D01*
X01167054Y01183891D02*
X01014788Y01183891D01*
X01003289Y01167892D02*
X01176054Y01167892D01*
X01238150Y01039904D02*
X01361850Y01039904D01*
X01362943Y01040997D02*
X01350003Y01028057D01*
X01343000Y01011150D01*
X01343000Y00932850D01*
X01350003Y00915943D01*
X01362943Y00903003D01*
X01370193Y00900000D01*
X01362943Y00896997D01*
X01350003Y00884057D01*
X01343000Y00867150D01*
X01343000Y00788850D01*
X01350003Y00771943D01*
X01362943Y00759003D01*
X01379850Y00752000D01*
X01398150Y00752000D01*
X01415057Y00759003D01*
X01427997Y00771943D01*
X01435000Y00788850D01*
X01435000Y00867150D01*
X01427997Y00884057D01*
X01415057Y00896997D01*
X01407806Y00900000D01*
X01415057Y00903003D01*
X01427997Y00915943D01*
X01435000Y00932850D01*
X01435000Y01011150D01*
X01427997Y01028057D01*
X01415057Y01040997D01*
X01398150Y01048000D01*
X01379850Y01048000D01*
X01362943Y01040997D01*
X01348284Y01023906D02*
X01251716Y01023906D01*
X01257000Y01007907D02*
X01343000Y01007907D01*
X01343000Y00991908D02*
X01257000Y00991908D01*
X01257000Y00975910D02*
X01343000Y00975910D01*
X01343000Y00959911D02*
X01257000Y00959911D01*
X01257000Y00943913D02*
X01343000Y00943913D01*
X01345044Y00927914D02*
X01254955Y00927914D01*
X01245970Y00911916D02*
X01354030Y00911916D01*
X01361864Y00895917D02*
X01238136Y00895917D01*
X01251711Y00879919D02*
X01348289Y00879919D01*
X01343000Y00863920D02*
X01257000Y00863920D01*
X01257000Y00847922D02*
X01343000Y00847922D01*
X01343000Y00831923D02*
X01328286Y00831923D01*
X01339486Y00815925D02*
X01343000Y00815925D01*
X01343000Y00799926D02*
X01342575Y00799926D01*
X01345039Y00783928D02*
X01339425Y00783928D01*
X01328139Y00767929D02*
X01354017Y00767929D01*
X01332010Y00751931D02*
X02389008Y00751931D01*
X02389008Y00767929D02*
X02323983Y00767929D01*
X02327997Y00771943D02*
X02335000Y00788850D01*
X02335000Y00867150D01*
X02327997Y00884057D01*
X02315057Y00896997D01*
X02307806Y00900000D01*
X02315057Y00903003D01*
X02327997Y00915943D01*
X02335000Y00932850D01*
X02335000Y01011150D01*
X02327997Y01028057D01*
X02315057Y01040997D01*
X02298150Y01048000D01*
X02279850Y01048000D01*
X02262943Y01040997D01*
X02250003Y01028057D01*
X02243000Y01011150D01*
X02243000Y00932850D01*
X02250003Y00915943D01*
X02262943Y00903003D01*
X02270193Y00900000D01*
X02262943Y00896997D01*
X02250003Y00884057D01*
X02243000Y00867150D01*
X02243000Y00788850D01*
X02250003Y00771943D01*
X02262943Y00759003D01*
X02279850Y00752000D01*
X02298150Y00752000D01*
X02315057Y00759003D01*
X02327997Y00771943D01*
X02332961Y00783928D02*
X02389008Y00783928D01*
X02389008Y00799926D02*
X02335000Y00799926D01*
X02335000Y00815925D02*
X02389008Y00815925D01*
X02389008Y00831923D02*
X02335000Y00831923D01*
X02335000Y00847922D02*
X02389008Y00847922D01*
X02389008Y00863920D02*
X02335000Y00863920D01*
X02329711Y00879919D02*
X02389008Y00879919D01*
X02389008Y00895917D02*
X02316136Y00895917D01*
X02323970Y00911916D02*
X02389008Y00911916D01*
X02389008Y00927914D02*
X02332955Y00927914D01*
X02335000Y00943913D02*
X02389008Y00943913D01*
X02389008Y00959911D02*
X02335000Y00959911D01*
X02335000Y00975910D02*
X02389008Y00975910D01*
X02389008Y00991908D02*
X02335000Y00991908D01*
X02335000Y01007907D02*
X02389008Y01007907D01*
X02389008Y01023906D02*
X02329716Y01023906D01*
X02316150Y01039904D02*
X02389008Y01039904D01*
X02261850Y01039904D02*
X02138150Y01039904D01*
X02137057Y01040997D02*
X02120150Y01048000D01*
X02101850Y01048000D01*
X02084943Y01040997D01*
X02072003Y01028057D01*
X02065000Y01011150D01*
X02065000Y00932850D01*
X02072003Y00915943D01*
X02084943Y00903003D01*
X02092193Y00900000D01*
X02084943Y00896997D01*
X02072003Y00884057D01*
X02065000Y00867150D01*
X02065000Y00788850D01*
X02072003Y00771943D01*
X02084943Y00759003D01*
X02101850Y00752000D01*
X02120150Y00752000D01*
X02137057Y00759003D01*
X02149997Y00771943D01*
X02157000Y00788850D01*
X02157000Y00867150D01*
X02149997Y00884057D01*
X02137057Y00896997D01*
X02129806Y00900000D01*
X02137057Y00903003D01*
X02149997Y00915943D01*
X02157000Y00932850D01*
X02157000Y01011150D01*
X02149997Y01028057D01*
X02137057Y01040997D01*
X02151716Y01023906D02*
X02248284Y01023906D01*
X02243000Y01007907D02*
X02157000Y01007907D01*
X02157000Y00991908D02*
X02243000Y00991908D01*
X02243000Y00975910D02*
X02157000Y00975910D01*
X02157000Y00959911D02*
X02243000Y00959911D01*
X02243000Y00943913D02*
X02157000Y00943913D01*
X02154955Y00927914D02*
X02245044Y00927914D01*
X02254030Y00911916D02*
X02145970Y00911916D01*
X02138136Y00895917D02*
X02261864Y00895917D01*
X02248289Y00879919D02*
X02151711Y00879919D01*
X02157000Y00863920D02*
X02243000Y00863920D01*
X02243000Y00847922D02*
X02157000Y00847922D01*
X02157000Y00831923D02*
X02243000Y00831923D01*
X02243000Y00815925D02*
X02157000Y00815925D01*
X02157000Y00799926D02*
X02243000Y00799926D01*
X02245039Y00783928D02*
X02154961Y00783928D01*
X02145983Y00767929D02*
X02254017Y00767929D01*
X02389008Y00735932D02*
X01348009Y00735932D01*
X01350000Y00700000D02*
X01300000Y00750000D01*
X01300000Y00800000D01*
X01271713Y00831923D02*
X01257000Y00831923D01*
X01257000Y00815925D02*
X01260514Y00815925D01*
X01257425Y00799926D02*
X01257000Y00799926D01*
X01254961Y00783928D02*
X01260575Y00783928D01*
X01271861Y00767929D02*
X01245983Y00767929D01*
X01165000Y00863920D02*
X00998647Y00863920D01*
X01013142Y00879919D02*
X01170289Y00879919D01*
X01183864Y00895917D02*
X01018000Y00895917D01*
X01016525Y00911916D02*
X01176030Y00911916D01*
X01416136Y00895917D02*
X01483864Y00895917D01*
X01484943Y00896997D02*
X01472003Y00884057D01*
X01465000Y00867150D01*
X01465000Y00788850D01*
X01472003Y00771943D01*
X01484943Y00759003D01*
X01501850Y00752000D01*
X01520150Y00752000D01*
X01537057Y00759003D01*
X01549997Y00771943D01*
X01557000Y00788850D01*
X01557000Y00867150D01*
X01549997Y00884057D01*
X01537057Y00896997D01*
X01529806Y00900000D01*
X01537057Y00903003D01*
X01549997Y00915943D01*
X01557000Y00932850D01*
X01557000Y01011150D01*
X01549997Y01028057D01*
X01537057Y01040997D01*
X01520150Y01048000D01*
X01501850Y01048000D01*
X01484943Y01040997D01*
X01472003Y01028057D01*
X01465000Y01011150D01*
X01465000Y00932850D01*
X01472003Y00915943D01*
X01484943Y00903003D01*
X01492193Y00900000D01*
X01484943Y00896997D01*
X01476030Y00911916D02*
X01423970Y00911916D01*
X01432955Y00927914D02*
X01467044Y00927914D01*
X01465000Y00943913D02*
X01435000Y00943913D01*
X01435000Y00959911D02*
X01465000Y00959911D01*
X01465000Y00975910D02*
X01435000Y00975910D01*
X01435000Y00991908D02*
X01465000Y00991908D01*
X01465000Y01007907D02*
X01435000Y01007907D01*
X01429716Y01023906D02*
X01470284Y01023906D01*
X01483850Y01039904D02*
X01416150Y01039904D01*
X01538150Y01039904D02*
X01661850Y01039904D01*
X01662943Y01040997D02*
X01650003Y01028057D01*
X01643000Y01011150D01*
X01643000Y00932850D01*
X01650003Y00915943D01*
X01662943Y00903003D01*
X01670193Y00900000D01*
X01662943Y00896997D01*
X01650003Y00884057D01*
X01643000Y00867150D01*
X01643000Y00788850D01*
X01650003Y00771943D01*
X01662943Y00759003D01*
X01679850Y00752000D01*
X01698150Y00752000D01*
X01715057Y00759003D01*
X01727997Y00771943D01*
X01735000Y00788850D01*
X01735000Y00867150D01*
X01727997Y00884057D01*
X01715057Y00896997D01*
X01707806Y00900000D01*
X01715057Y00903003D01*
X01727997Y00915943D01*
X01735000Y00932850D01*
X01735000Y01011150D01*
X01727997Y01028057D01*
X01715057Y01040997D01*
X01698150Y01048000D01*
X01679850Y01048000D01*
X01662943Y01040997D01*
X01648284Y01023906D02*
X01551716Y01023906D01*
X01557000Y01007907D02*
X01643000Y01007907D01*
X01643000Y00991908D02*
X01557000Y00991908D01*
X01557000Y00975910D02*
X01643000Y00975910D01*
X01643000Y00959911D02*
X01557000Y00959911D01*
X01557000Y00943913D02*
X01643000Y00943913D01*
X01645044Y00927914D02*
X01554955Y00927914D01*
X01545970Y00911916D02*
X01654030Y00911916D01*
X01661864Y00895917D02*
X01538136Y00895917D01*
X01551711Y00879919D02*
X01648289Y00879919D01*
X01643000Y00863920D02*
X01557000Y00863920D01*
X01557000Y00847922D02*
X01643000Y00847922D01*
X01643000Y00831923D02*
X01557000Y00831923D01*
X01557000Y00815925D02*
X01643000Y00815925D01*
X01643000Y00799926D02*
X01557000Y00799926D01*
X01554961Y00783928D02*
X01645039Y00783928D01*
X01654017Y00767929D02*
X01545983Y00767929D01*
X01476017Y00767929D02*
X01423983Y00767929D01*
X01432961Y00783928D02*
X01467039Y00783928D01*
X01465000Y00799926D02*
X01435000Y00799926D01*
X01435000Y00815925D02*
X01465000Y00815925D01*
X01465000Y00831923D02*
X01435000Y00831923D01*
X01435000Y00847922D02*
X01465000Y00847922D01*
X01465000Y00863920D02*
X01435000Y00863920D01*
X01429711Y00879919D02*
X01470289Y00879919D01*
X01541070Y01087900D02*
X01628159Y01087900D01*
X01612161Y01103898D02*
X01542575Y01103898D01*
X01537841Y01119897D02*
X01596162Y01119897D01*
X01580164Y01135895D02*
X01524314Y01135895D01*
X01648046Y01135895D02*
X01701954Y01135895D01*
X01737839Y01103898D02*
X01912161Y01103898D01*
X01928159Y01087900D02*
X01721841Y01087900D01*
X01753838Y01119897D02*
X01896162Y01119897D01*
X01880164Y01135895D02*
X01769836Y01135895D01*
X01785835Y01151894D02*
X01864165Y01151894D01*
X01848167Y01167892D02*
X01845946Y01167892D01*
X01884052Y01199889D02*
X01943000Y01199889D01*
X01943000Y01188850D02*
X01950003Y01171943D01*
X01962943Y01159003D01*
X01979850Y01152000D01*
X01998150Y01152000D01*
X02015057Y01159003D01*
X02027997Y01171943D01*
X02035000Y01188850D01*
X02035000Y01267150D01*
X02027997Y01284057D01*
X02015057Y01296997D01*
X01998150Y01304000D01*
X01979850Y01304000D01*
X01962943Y01296997D01*
X01950003Y01284057D01*
X01943000Y01267150D01*
X01943000Y01188850D01*
X01945054Y01183891D02*
X01900050Y01183891D01*
X01916049Y01167892D02*
X01954054Y01167892D01*
X01932047Y01151894D02*
X02167953Y01151894D01*
X02176000Y01167892D02*
X02145946Y01167892D01*
X02149997Y01171943D02*
X02137057Y01159003D01*
X02120150Y01152000D01*
X02101850Y01152000D01*
X02084943Y01159003D01*
X02072003Y01171943D01*
X02065000Y01188850D01*
X02065000Y01267150D01*
X02072003Y01284057D01*
X02084943Y01296997D01*
X02101850Y01304000D01*
X02120150Y01304000D01*
X02137057Y01296997D01*
X02149997Y01284057D01*
X02157000Y01267150D01*
X02157000Y01188850D01*
X02149997Y01171943D01*
X02154946Y01183891D02*
X02176000Y01183891D01*
X02176000Y01199889D02*
X02157000Y01199889D01*
X02157000Y01215888D02*
X02173902Y01215888D01*
X02161420Y01231886D02*
X02157000Y01231886D01*
X02157000Y01247885D02*
X02157425Y01247885D01*
X02157000Y01263883D02*
X02159668Y01263883D01*
X02151726Y01279882D02*
X02169672Y01279882D01*
X02138173Y01295880D02*
X02261827Y01295880D01*
X02248274Y01279882D02*
X02230328Y01279882D01*
X02240332Y01263883D02*
X02243000Y01263883D01*
X02243000Y01247885D02*
X02242575Y01247885D01*
X02243000Y01231886D02*
X02238579Y01231886D01*
X02243000Y01215888D02*
X02226098Y01215888D01*
X02224000Y01199889D02*
X02243000Y01199889D01*
X02245054Y01183891D02*
X02224000Y01183891D01*
X02224000Y01167892D02*
X02254054Y01167892D01*
X02200000Y01150000D02*
X02150000Y01100000D01*
X02151954Y01135895D02*
X01948046Y01135895D01*
X01943000Y01215888D02*
X01868053Y01215888D01*
X01857000Y01231886D02*
X01943000Y01231886D01*
X01943000Y01247885D02*
X01857000Y01247885D01*
X01857000Y01263883D02*
X01943000Y01263883D01*
X01948274Y01279882D02*
X01851726Y01279882D01*
X01838173Y01295880D02*
X01961827Y01295880D01*
X01979850Y01346000D02*
X01998150Y01346000D01*
X02015057Y01353003D01*
X02027997Y01365943D01*
X02035000Y01382850D01*
X02035000Y01461150D01*
X02027997Y01478057D01*
X02015057Y01490997D01*
X01998150Y01498000D01*
X01979850Y01498000D01*
X01962943Y01490997D01*
X01950003Y01478057D01*
X01943000Y01461150D01*
X01943000Y01382850D01*
X01950003Y01365943D01*
X01962943Y01353003D01*
X01979850Y01346000D01*
X01956072Y01359875D02*
X01843928Y01359875D01*
X01854110Y01375873D02*
X01945890Y01375873D01*
X01943000Y01391872D02*
X01857000Y01391872D01*
X01857000Y01407870D02*
X01943000Y01407870D01*
X01943000Y01423869D02*
X01857000Y01423869D01*
X01857000Y01439867D02*
X01943000Y01439867D01*
X01943000Y01455866D02*
X01857000Y01455866D01*
X01852562Y01471864D02*
X01947438Y01471864D01*
X01959809Y01487863D02*
X01840191Y01487863D01*
X02018191Y01487863D02*
X02081809Y01487863D01*
X02084943Y01490997D02*
X02072003Y01478057D01*
X02065000Y01461150D01*
X02065000Y01382850D01*
X02072003Y01365943D01*
X02084943Y01353003D01*
X02101850Y01346000D01*
X02120150Y01346000D01*
X02137057Y01353003D01*
X02149997Y01365943D01*
X02157000Y01382850D01*
X02157000Y01461150D01*
X02149997Y01478057D01*
X02137057Y01490997D01*
X02120150Y01498000D01*
X02101850Y01498000D01*
X02084943Y01490997D01*
X02069438Y01471864D02*
X02030562Y01471864D01*
X02035000Y01455866D02*
X02065000Y01455866D01*
X02065000Y01439867D02*
X02035000Y01439867D01*
X02035000Y01423869D02*
X02065000Y01423869D01*
X02065000Y01407870D02*
X02035000Y01407870D01*
X02035000Y01391872D02*
X02065000Y01391872D01*
X02067890Y01375873D02*
X02032110Y01375873D01*
X02021928Y01359875D02*
X02078072Y01359875D01*
X02143928Y01359875D02*
X02256072Y01359875D01*
X02250003Y01365943D02*
X02262943Y01353003D01*
X02279850Y01346000D01*
X02298150Y01346000D01*
X02315057Y01353003D01*
X02327997Y01365943D01*
X02335000Y01382850D01*
X02335000Y01461150D01*
X02327997Y01478057D01*
X02315057Y01490997D01*
X02298150Y01498000D01*
X02279850Y01498000D01*
X02262943Y01490997D01*
X02250003Y01478057D01*
X02243000Y01461150D01*
X02243000Y01382850D01*
X02250003Y01365943D01*
X02245890Y01375873D02*
X02154110Y01375873D01*
X02157000Y01391872D02*
X02243000Y01391872D01*
X02243000Y01407870D02*
X02157000Y01407870D01*
X02157000Y01423869D02*
X02243000Y01423869D01*
X02243000Y01439867D02*
X02157000Y01439867D01*
X02157000Y01455866D02*
X02243000Y01455866D01*
X02247438Y01471864D02*
X02152562Y01471864D01*
X02140191Y01487863D02*
X02259809Y01487863D01*
X02318191Y01487863D02*
X02389008Y01487863D01*
X02389008Y01503861D02*
X01474000Y01503861D01*
X01474000Y01487863D02*
X01481809Y01487863D01*
X01474000Y01519860D02*
X02389008Y01519860D01*
X02389008Y01535858D02*
X01474000Y01535858D01*
X01543905Y01615851D02*
X01656095Y01615851D01*
X01645900Y01631849D02*
X01554100Y01631849D01*
X01557000Y01647848D02*
X01643000Y01647848D01*
X01643000Y01663846D02*
X01557000Y01663846D01*
X01842232Y01935821D02*
X01851880Y01935821D01*
X01887765Y01903824D02*
X01943000Y01903824D01*
X01943000Y01887826D02*
X01871767Y01887826D01*
X01903764Y01919823D02*
X01946593Y01919823D01*
X01957768Y01935821D02*
X01919762Y01935821D01*
X01899876Y01983817D02*
X01867758Y01983817D01*
X01883757Y01999815D02*
X01915874Y01999815D01*
X01931873Y02015814D02*
X01899755Y02015814D01*
X01915754Y02031813D02*
X02071603Y02031813D01*
X02080137Y02063810D02*
X02019863Y02063810D01*
X02031255Y02079808D02*
X02068745Y02079808D01*
X02065000Y02095807D02*
X02035000Y02095807D01*
X02035000Y02111805D02*
X02065000Y02111805D01*
X02065000Y02127804D02*
X02035000Y02127804D01*
X02035000Y02143802D02*
X02065000Y02143802D01*
X02065000Y02159801D02*
X02064203Y02159801D01*
X02035796Y02159801D02*
X02035000Y02159801D01*
X02092575Y02207796D02*
X02276000Y02207796D01*
X02276000Y02223795D02*
X02107736Y02223795D01*
X02137224Y02239793D02*
X02276000Y02239793D01*
X02260267Y02255792D02*
X02137653Y02255792D01*
X02142256Y02191798D02*
X02257744Y02191798D01*
X02246583Y02175799D02*
X02153417Y02175799D01*
X02157000Y02159801D02*
X02243000Y02159801D01*
X02243000Y02143802D02*
X02157000Y02143802D01*
X02157000Y02127804D02*
X02243000Y02127804D01*
X02243000Y02111805D02*
X02157000Y02111805D01*
X02157000Y02095807D02*
X02243000Y02095807D01*
X02246745Y02079808D02*
X02153255Y02079808D01*
X02141863Y02063810D02*
X02258137Y02063810D01*
X02319863Y02063810D02*
X02389008Y02063810D01*
X02389008Y02079808D02*
X02331255Y02079808D01*
X02335000Y02095807D02*
X02389008Y02095807D01*
X02389008Y02111805D02*
X02335000Y02111805D01*
X02389008Y02047811D02*
X01924000Y02047811D01*
X01924000Y02063810D02*
X01958137Y02063810D01*
X01946745Y02079808D02*
X01924000Y02079808D01*
X01924000Y02095807D02*
X01943000Y02095807D01*
X01943000Y02111805D02*
X01924000Y02111805D01*
X01924000Y02127804D02*
X01943000Y02127804D01*
X01943000Y02143802D02*
X01927743Y02143802D01*
X01900000Y02250000D02*
X01900000Y02266535D01*
X01900000Y02250000D02*
X01850000Y02300000D01*
X01800000Y02333465D02*
X01800000Y02350000D01*
X01850000Y02400000D01*
X01900000Y02350000D02*
X01900000Y02333465D01*
X01900000Y02350000D02*
X01950000Y02350000D01*
X02050000Y02400000D02*
X02100000Y02350000D01*
X02100000Y02333465D01*
X02128397Y02031813D02*
X02389008Y02031813D01*
X02389008Y02015814D02*
X02139532Y02015814D01*
X02142575Y01999815D02*
X02389008Y01999815D01*
X02389008Y01983817D02*
X02139379Y01983817D01*
X02153407Y01919823D02*
X02246593Y01919823D01*
X02243000Y01903824D02*
X02157000Y01903824D01*
X02157000Y01887826D02*
X02243000Y01887826D01*
X02243000Y01871827D02*
X02157000Y01871827D01*
X02157000Y01855829D02*
X02243000Y01855829D01*
X02243000Y01839830D02*
X02157000Y01839830D01*
X02153264Y01823832D02*
X02246735Y01823832D01*
X02258113Y01807833D02*
X02141887Y01807833D01*
X02120150Y01754000D02*
X02101850Y01754000D01*
X02084943Y01746997D01*
X02072003Y01734057D01*
X02065000Y01717150D01*
X02065000Y01638850D01*
X02072003Y01621943D01*
X02084943Y01609003D01*
X02101850Y01602000D01*
X02120150Y01602000D01*
X02137057Y01609003D01*
X02149997Y01621943D01*
X02157000Y01638850D01*
X02157000Y01717150D01*
X02149997Y01734057D01*
X02137057Y01746997D01*
X02120150Y01754000D01*
X02140215Y01743839D02*
X02259785Y01743839D01*
X02262943Y01746997D02*
X02250003Y01734057D01*
X02243000Y01717150D01*
X02243000Y01638850D01*
X02250003Y01621943D01*
X02262943Y01609003D01*
X02279850Y01602000D01*
X02298150Y01602000D01*
X02315057Y01609003D01*
X02327997Y01621943D01*
X02335000Y01638850D01*
X02335000Y01717150D01*
X02327997Y01734057D01*
X02315057Y01746997D01*
X02298150Y01754000D01*
X02279850Y01754000D01*
X02262943Y01746997D01*
X02247428Y01727841D02*
X02152572Y01727841D01*
X02157000Y01711842D02*
X02243000Y01711842D01*
X02243000Y01695844D02*
X02157000Y01695844D01*
X02157000Y01679845D02*
X02243000Y01679845D01*
X02243000Y01663846D02*
X02157000Y01663846D01*
X02157000Y01647848D02*
X02243000Y01647848D01*
X02245900Y01631849D02*
X02154100Y01631849D01*
X02143905Y01615851D02*
X02256095Y01615851D01*
X02321905Y01615851D02*
X02389008Y01615851D01*
X02389008Y01631849D02*
X02332100Y01631849D01*
X02335000Y01647848D02*
X02389008Y01647848D01*
X02389008Y01663846D02*
X02335000Y01663846D01*
X02335000Y01679845D02*
X02389008Y01679845D01*
X02389008Y01695844D02*
X02335000Y01695844D01*
X02335000Y01711842D02*
X02389008Y01711842D01*
X02389008Y01727841D02*
X02330572Y01727841D01*
X02318215Y01743839D02*
X02389008Y01743839D01*
X02389008Y01471864D02*
X02330562Y01471864D01*
X02335000Y01455866D02*
X02389008Y01455866D01*
X02389008Y01439867D02*
X02335000Y01439867D01*
X02335000Y01423869D02*
X02389008Y01423869D01*
X02389008Y01407870D02*
X02335000Y01407870D01*
X02335000Y01391872D02*
X02389008Y01391872D01*
X02389008Y01375873D02*
X02332110Y01375873D01*
X02321928Y01359875D02*
X02389008Y01359875D01*
X02200000Y01250000D02*
X02200000Y01150000D01*
X02076054Y01167892D02*
X02023946Y01167892D01*
X02032946Y01183891D02*
X02067054Y01183891D01*
X02065000Y01199889D02*
X02035000Y01199889D01*
X02035000Y01215888D02*
X02065000Y01215888D01*
X02065000Y01231886D02*
X02035000Y01231886D01*
X02035000Y01247885D02*
X02065000Y01247885D01*
X02065000Y01263883D02*
X02035000Y01263883D01*
X02029726Y01279882D02*
X02070274Y01279882D01*
X02083827Y01295880D02*
X02016173Y01295880D01*
X01998150Y01048000D02*
X01979850Y01048000D01*
X01962943Y01040997D01*
X01950003Y01028057D01*
X01943000Y01011150D01*
X01943000Y00932850D01*
X01950003Y00915943D01*
X01962943Y00903003D01*
X01970193Y00900000D01*
X01962943Y00896997D01*
X01950003Y00884057D01*
X01943000Y00867150D01*
X01943000Y00788850D01*
X01950003Y00771943D01*
X01962943Y00759003D01*
X01979850Y00752000D01*
X01998150Y00752000D01*
X02015057Y00759003D01*
X02027997Y00771943D01*
X02035000Y00788850D01*
X02035000Y00867150D01*
X02027997Y00884057D01*
X02015057Y00896997D01*
X02007806Y00900000D01*
X02015057Y00903003D01*
X02027997Y00915943D01*
X02035000Y00932850D01*
X02035000Y01011150D01*
X02027997Y01028057D01*
X02015057Y01040997D01*
X01998150Y01048000D01*
X02016150Y01039904D02*
X02083850Y01039904D01*
X02070284Y01023906D02*
X02029716Y01023906D01*
X02035000Y01007907D02*
X02065000Y01007907D01*
X02065000Y00991908D02*
X02035000Y00991908D01*
X02035000Y00975910D02*
X02065000Y00975910D01*
X02065000Y00959911D02*
X02035000Y00959911D01*
X02035000Y00943913D02*
X02065000Y00943913D01*
X02067044Y00927914D02*
X02032955Y00927914D01*
X02023970Y00911916D02*
X02076030Y00911916D01*
X02083864Y00895917D02*
X02016136Y00895917D01*
X02029711Y00879919D02*
X02070289Y00879919D01*
X02065000Y00863920D02*
X02035000Y00863920D01*
X02035000Y00847922D02*
X02065000Y00847922D01*
X02065000Y00831923D02*
X02035000Y00831923D01*
X02035000Y00815925D02*
X02065000Y00815925D01*
X02065000Y00799926D02*
X02035000Y00799926D01*
X02032961Y00783928D02*
X02067039Y00783928D01*
X02076017Y00767929D02*
X02023983Y00767929D01*
X01954017Y00767929D02*
X01845983Y00767929D01*
X01849997Y00771943D02*
X01857000Y00788850D01*
X01857000Y00867150D01*
X01849997Y00884057D01*
X01837057Y00896997D01*
X01829806Y00900000D01*
X01837057Y00903003D01*
X01849997Y00915943D01*
X01857000Y00932850D01*
X01857000Y01011150D01*
X01849997Y01028057D01*
X01837057Y01040997D01*
X01820150Y01048000D01*
X01801850Y01048000D01*
X01784943Y01040997D01*
X01772003Y01028057D01*
X01765000Y01011150D01*
X01765000Y00932850D01*
X01772003Y00915943D01*
X01784943Y00903003D01*
X01792193Y00900000D01*
X01784943Y00896997D01*
X01772003Y00884057D01*
X01765000Y00867150D01*
X01765000Y00788850D01*
X01772003Y00771943D01*
X01784943Y00759003D01*
X01801850Y00752000D01*
X01820150Y00752000D01*
X01837057Y00759003D01*
X01849997Y00771943D01*
X01854961Y00783928D02*
X01945039Y00783928D01*
X01943000Y00799926D02*
X01857000Y00799926D01*
X01857000Y00815925D02*
X01943000Y00815925D01*
X01943000Y00831923D02*
X01857000Y00831923D01*
X01857000Y00847922D02*
X01943000Y00847922D01*
X01943000Y00863920D02*
X01857000Y00863920D01*
X01851711Y00879919D02*
X01948289Y00879919D01*
X01961864Y00895917D02*
X01838136Y00895917D01*
X01845970Y00911916D02*
X01954030Y00911916D01*
X01945044Y00927914D02*
X01854955Y00927914D01*
X01857000Y00943913D02*
X01943000Y00943913D01*
X01943000Y00959911D02*
X01857000Y00959911D01*
X01857000Y00975910D02*
X01943000Y00975910D01*
X01943000Y00991908D02*
X01857000Y00991908D01*
X01857000Y01007907D02*
X01943000Y01007907D01*
X01948284Y01023906D02*
X01851716Y01023906D01*
X01838150Y01039904D02*
X01961850Y01039904D01*
X01783850Y01039904D02*
X01716150Y01039904D01*
X01729716Y01023906D02*
X01770284Y01023906D01*
X01765000Y01007907D02*
X01735000Y01007907D01*
X01735000Y00991908D02*
X01765000Y00991908D01*
X01765000Y00975910D02*
X01735000Y00975910D01*
X01735000Y00959911D02*
X01765000Y00959911D01*
X01765000Y00943913D02*
X01735000Y00943913D01*
X01732955Y00927914D02*
X01767044Y00927914D01*
X01776030Y00911916D02*
X01723970Y00911916D01*
X01716136Y00895917D02*
X01783864Y00895917D01*
X01770289Y00879919D02*
X01729711Y00879919D01*
X01735000Y00863920D02*
X01765000Y00863920D01*
X01765000Y00847922D02*
X01735000Y00847922D01*
X01735000Y00831923D02*
X01765000Y00831923D01*
X01765000Y00815925D02*
X01735000Y00815925D01*
X01735000Y00799926D02*
X01765000Y00799926D01*
X01767039Y00783928D02*
X01732961Y00783928D01*
X01723983Y00767929D02*
X01776017Y00767929D01*
X02329701Y00623942D02*
X02389008Y00623942D01*
X02389008Y00607944D02*
X02335000Y00607944D01*
X02335000Y00591945D02*
X02389008Y00591945D01*
X02389008Y00575947D02*
X02335000Y00575947D01*
X02335000Y00559948D02*
X02389008Y00559948D01*
X02389008Y00543950D02*
X02335000Y00543950D01*
X02332971Y00527951D02*
X02389008Y00527951D01*
X02389008Y00511953D02*
X02324007Y00511953D01*
X02078095Y01615851D02*
X02021905Y01615851D01*
X02032100Y01631849D02*
X02067900Y01631849D01*
X02065000Y01647848D02*
X02035000Y01647848D01*
X02035000Y01663846D02*
X02065000Y01663846D01*
X02065000Y01679845D02*
X02035000Y01679845D01*
X02035000Y01695844D02*
X02065000Y01695844D01*
X02065000Y01711842D02*
X02035000Y01711842D01*
X02030572Y01727841D02*
X02069428Y01727841D01*
X02081785Y01743839D02*
X02018215Y01743839D01*
X02019887Y01807833D02*
X02080113Y01807833D01*
X02068735Y01823832D02*
X02031264Y01823832D01*
X02035000Y01839830D02*
X02065000Y01839830D01*
X02065000Y01855829D02*
X02035000Y01855829D01*
X02035000Y01871827D02*
X02065000Y01871827D01*
X02065000Y01887826D02*
X02035000Y01887826D01*
X02035000Y01903824D02*
X02065000Y01903824D01*
X02068593Y01919823D02*
X02031407Y01919823D01*
X02020232Y01935821D02*
X02079768Y01935821D01*
X01750000Y02200000D02*
X01700000Y02250000D01*
X01700000Y02266535D01*
X01562346Y02287789D02*
X01537653Y02287789D01*
X01534289Y02303787D02*
X01565711Y02303787D01*
X01562346Y02319786D02*
X01537653Y02319786D01*
X01350000Y02250000D02*
X01300000Y02200000D01*
X01314203Y02159801D02*
X01343000Y02159801D01*
X01343000Y02143802D02*
X01257000Y02143802D01*
X01257000Y02127804D02*
X01343000Y02127804D01*
X01343000Y02111805D02*
X01257000Y02111805D01*
X01257000Y02095807D02*
X01343000Y02095807D01*
X01346745Y02079808D02*
X01253255Y02079808D01*
X01257000Y02159801D02*
X01285796Y02159801D01*
X01263991Y02175799D02*
X01253417Y02175799D01*
X01257425Y02191798D02*
X01242256Y02191798D01*
X01257425Y02207796D02*
X01072748Y02207796D01*
X01074000Y02191798D02*
X01179744Y02191798D01*
X01168583Y02175799D02*
X01074000Y02175799D01*
X01074140Y02159801D02*
X01165000Y02159801D01*
X01165000Y02143802D02*
X01090139Y02143802D01*
X01106137Y02127804D02*
X01165000Y02127804D01*
X01165000Y02111805D02*
X01122136Y02111805D01*
X01138134Y02095807D02*
X01165000Y02095807D01*
X01168745Y02079808D02*
X01154133Y02079808D01*
X01060146Y02223795D02*
X01263774Y02223795D01*
X01284817Y02239793D02*
X01044148Y02239793D01*
X01028149Y02255792D02*
X01321851Y02255792D01*
X01342575Y02191798D02*
X01357744Y02191798D01*
X01346583Y02175799D02*
X01336009Y02175799D01*
D16*
X01300000Y02200000D03*
X01450000Y02050000D03*
X01750000Y02200000D03*
X01900000Y02400000D03*
X02000000Y02400000D03*
X01850000Y02550000D03*
X02050000Y02200000D03*
X02100000Y02000000D03*
X02200000Y01250000D03*
X01500000Y01100000D03*
X01300000Y00800000D03*
X01400000Y01550000D03*
X01300000Y02400000D03*
X00150000Y01250000D03*
X00100000Y01050000D03*
M02*
