G75*
%MOIN*%
%OFA0B0*%
%FSLAX26Y26*%
%IPPOS*%
%LPD*%
%AMOC8*
5,1,8,0,0,1.08239X$1,22.5*
%
%ADD10C,0.052000*%
%ADD11C,0.060000*%
%ADD12C,0.070866*%
%ADD13C,0.016000*%
%ADD14C,0.053150*%
D10*
X00324000Y00500000D02*
X00376000Y00500000D01*
X00376000Y00600000D02*
X00324000Y00600000D01*
X00324000Y00700000D02*
X00376000Y00700000D01*
X00376000Y00800000D02*
X00324000Y00800000D01*
X00324000Y00900000D02*
X00376000Y00900000D01*
X00376000Y01000000D02*
X00324000Y01000000D01*
X00324000Y01100000D02*
X00376000Y01100000D01*
X00376000Y01200000D02*
X00324000Y01200000D01*
X00324000Y01300000D02*
X00376000Y01300000D01*
X00376000Y01400000D02*
X00324000Y01400000D01*
X00324000Y01500000D02*
X00376000Y01500000D01*
X00376000Y01600000D02*
X00324000Y01600000D01*
X00324000Y01700000D02*
X00376000Y01700000D01*
X00376000Y01800000D02*
X00324000Y01800000D01*
X00324000Y01900000D02*
X00376000Y01900000D01*
X00376000Y02000000D02*
X00324000Y02000000D01*
X00324000Y02100000D02*
X00376000Y02100000D01*
X00376000Y02200000D02*
X00324000Y02200000D01*
X00324000Y02300000D02*
X00376000Y02300000D01*
X00376000Y02400000D02*
X00324000Y02400000D01*
X00924000Y02400000D02*
X00976000Y02400000D01*
X00976000Y02300000D02*
X00924000Y02300000D01*
X00924000Y02200000D02*
X00976000Y02200000D01*
X00976000Y02100000D02*
X00924000Y02100000D01*
X00924000Y02000000D02*
X00976000Y02000000D01*
X00976000Y01900000D02*
X00924000Y01900000D01*
X00924000Y01800000D02*
X00976000Y01800000D01*
X00976000Y01700000D02*
X00924000Y01700000D01*
X00924000Y01600000D02*
X00976000Y01600000D01*
X00976000Y01500000D02*
X00924000Y01500000D01*
X00924000Y01400000D02*
X00976000Y01400000D01*
X00976000Y01300000D02*
X00924000Y01300000D01*
X00924000Y01200000D02*
X00976000Y01200000D01*
X00976000Y01100000D02*
X00924000Y01100000D01*
X00924000Y01000000D02*
X00976000Y01000000D01*
X00976000Y00900000D02*
X00924000Y00900000D01*
X00924000Y00800000D02*
X00976000Y00800000D01*
X00976000Y00700000D02*
X00924000Y00700000D01*
X00924000Y00600000D02*
X00976000Y00600000D01*
X00976000Y00500000D02*
X00924000Y00500000D01*
D11*
X00708000Y00339000D02*
X00648000Y00339000D01*
X00648000Y00161000D02*
X00708000Y00161000D01*
X00452000Y00161000D02*
X00392000Y00161000D01*
X00392000Y00339000D02*
X00452000Y00339000D01*
X01211000Y00542000D02*
X01211000Y00602000D01*
X01389000Y00602000D02*
X01389000Y00542000D01*
X01511000Y00542000D02*
X01511000Y00602000D01*
X01689000Y00602000D02*
X01689000Y00542000D01*
X01811000Y00542000D02*
X01811000Y00602000D01*
X01989000Y00602000D02*
X01989000Y00542000D01*
X02111000Y00542000D02*
X02111000Y00602000D01*
X02289000Y00602000D02*
X02289000Y00542000D01*
X02289000Y00798000D02*
X02289000Y00858000D01*
X02289000Y00942000D02*
X02289000Y01002000D01*
X02111000Y01002000D02*
X02111000Y00942000D01*
X02111000Y00858000D02*
X02111000Y00798000D01*
X01989000Y00798000D02*
X01989000Y00858000D01*
X01989000Y00942000D02*
X01989000Y01002000D01*
X01811000Y01002000D02*
X01811000Y00942000D01*
X01811000Y00858000D02*
X01811000Y00798000D01*
X01689000Y00798000D02*
X01689000Y00858000D01*
X01689000Y00942000D02*
X01689000Y01002000D01*
X01511000Y01002000D02*
X01511000Y00942000D01*
X01511000Y00858000D02*
X01511000Y00798000D01*
X01389000Y00798000D02*
X01389000Y00858000D01*
X01389000Y00942000D02*
X01389000Y01002000D01*
X01211000Y01002000D02*
X01211000Y00942000D01*
X01211000Y00858000D02*
X01211000Y00798000D01*
X01211000Y01198000D02*
X01211000Y01258000D01*
X01211000Y01392000D02*
X01211000Y01452000D01*
X01389000Y01452000D02*
X01389000Y01392000D01*
X01511000Y01392000D02*
X01511000Y01452000D01*
X01689000Y01452000D02*
X01689000Y01392000D01*
X01811000Y01392000D02*
X01811000Y01452000D01*
X01989000Y01452000D02*
X01989000Y01392000D01*
X02111000Y01392000D02*
X02111000Y01452000D01*
X02289000Y01452000D02*
X02289000Y01392000D01*
X02289000Y01258000D02*
X02289000Y01198000D01*
X02111000Y01198000D02*
X02111000Y01258000D01*
X01989000Y01258000D02*
X01989000Y01198000D01*
X01811000Y01198000D02*
X01811000Y01258000D01*
X01689000Y01258000D02*
X01689000Y01198000D01*
X01511000Y01198000D02*
X01511000Y01258000D01*
X01389000Y01258000D02*
X01389000Y01198000D01*
X01389000Y01648000D02*
X01389000Y01708000D01*
X01511000Y01708000D02*
X01511000Y01648000D01*
X01689000Y01648000D02*
X01689000Y01708000D01*
X01811000Y01708000D02*
X01811000Y01648000D01*
X01989000Y01648000D02*
X01989000Y01708000D01*
X02111000Y01708000D02*
X02111000Y01648000D01*
X02289000Y01648000D02*
X02289000Y01708000D01*
X02289000Y01842000D02*
X02289000Y01902000D01*
X02111000Y01902000D02*
X02111000Y01842000D01*
X01989000Y01842000D02*
X01989000Y01902000D01*
X01811000Y01902000D02*
X01811000Y01842000D01*
X01689000Y01842000D02*
X01689000Y01902000D01*
X01511000Y01902000D02*
X01511000Y01842000D01*
X01389000Y01842000D02*
X01389000Y01902000D01*
X01211000Y01902000D02*
X01211000Y01842000D01*
X01211000Y01708000D02*
X01211000Y01648000D01*
X01211000Y02098000D02*
X01211000Y02158000D01*
X01389000Y02158000D02*
X01389000Y02098000D01*
X01511000Y02098000D02*
X01511000Y02158000D01*
X01689000Y02158000D02*
X01689000Y02098000D01*
X01811000Y02098000D02*
X01811000Y02158000D01*
X01989000Y02158000D02*
X01989000Y02098000D01*
X02111000Y02098000D02*
X02111000Y02158000D01*
X02289000Y02158000D02*
X02289000Y02098000D01*
X00130000Y02100000D02*
X00070000Y02100000D01*
X00070000Y02200000D02*
X00130000Y02200000D01*
X00130000Y02300000D02*
X00070000Y02300000D01*
X00070000Y02400000D02*
X00130000Y02400000D01*
X00130000Y02000000D02*
X00070000Y02000000D01*
X00070000Y01900000D02*
X00130000Y01900000D01*
X00130000Y01800000D02*
X00070000Y01800000D01*
X00070000Y01700000D02*
X00130000Y01700000D01*
D12*
X00150000Y00745000D03*
X00150000Y00555000D03*
D13*
X00048000Y00468059D02*
X00048000Y00050000D01*
X02389008Y00050000D01*
X02389008Y02600000D01*
X00048000Y02600000D01*
X00048000Y02440677D01*
X00060850Y02446000D01*
X00139150Y02446000D01*
X00156057Y02438997D01*
X00168997Y02426057D01*
X00169849Y02424000D01*
X00288603Y02424000D01*
X00300209Y02435606D01*
X00315646Y02442000D01*
X00384354Y02442000D01*
X00399791Y02435606D01*
X00411606Y02423791D01*
X00418000Y02408354D01*
X00418000Y02391646D01*
X00411606Y02376209D01*
X00399791Y02364394D01*
X00384354Y02358000D01*
X00315646Y02358000D01*
X00300209Y02364394D01*
X00288603Y02376000D01*
X00169849Y02376000D01*
X00168997Y02373943D01*
X00156057Y02361003D01*
X00139150Y02354000D01*
X00060850Y02354000D01*
X00048000Y02359323D01*
X00048000Y02340677D01*
X00060850Y02346000D01*
X00139150Y02346000D01*
X00156057Y02338997D01*
X00168997Y02326057D01*
X00169849Y02324000D01*
X00288603Y02324000D01*
X00300209Y02335606D01*
X00315646Y02342000D01*
X00384354Y02342000D01*
X00399791Y02335606D01*
X00411606Y02323791D01*
X00418000Y02308354D01*
X00418000Y02291646D01*
X00411606Y02276209D01*
X00399791Y02264394D01*
X00384354Y02258000D01*
X00315646Y02258000D01*
X00300209Y02264394D01*
X00288603Y02276000D01*
X00169849Y02276000D01*
X00168997Y02273943D01*
X00156057Y02261003D01*
X00139150Y02254000D01*
X00060850Y02254000D01*
X00048000Y02259323D01*
X00048000Y02240677D01*
X00060850Y02246000D01*
X00139150Y02246000D01*
X00156057Y02238997D01*
X00168997Y02226057D01*
X00169849Y02224000D01*
X00288603Y02224000D01*
X00300209Y02235606D01*
X00315646Y02242000D01*
X00384354Y02242000D01*
X00399791Y02235606D01*
X00411606Y02223791D01*
X00418000Y02208354D01*
X00418000Y02191646D01*
X00411606Y02176209D01*
X00399791Y02164394D01*
X00384354Y02158000D01*
X00315646Y02158000D01*
X00300209Y02164394D01*
X00288603Y02176000D01*
X00169849Y02176000D01*
X00168997Y02173943D01*
X00156057Y02161003D01*
X00139150Y02154000D01*
X00060850Y02154000D01*
X00048000Y02159323D01*
X00048000Y02140677D01*
X00060850Y02146000D01*
X00139150Y02146000D01*
X00156057Y02138997D01*
X00168997Y02126057D01*
X00169849Y02124000D01*
X00288603Y02124000D01*
X00300209Y02135606D01*
X00315646Y02142000D01*
X00384354Y02142000D01*
X00399791Y02135606D01*
X00411606Y02123791D01*
X00418000Y02108354D01*
X00418000Y02091646D01*
X00411606Y02076209D01*
X00399791Y02064394D01*
X00384354Y02058000D01*
X00315646Y02058000D01*
X00300209Y02064394D01*
X00288603Y02076000D01*
X00169849Y02076000D01*
X00168997Y02073943D01*
X00156057Y02061003D01*
X00139150Y02054000D01*
X00060850Y02054000D01*
X00048000Y02059323D01*
X00048000Y02040677D01*
X00060850Y02046000D01*
X00139150Y02046000D01*
X00156057Y02038997D01*
X00168997Y02026057D01*
X00169849Y02024000D01*
X00288603Y02024000D01*
X00300209Y02035606D01*
X00315646Y02042000D01*
X00384354Y02042000D01*
X00399791Y02035606D01*
X00411606Y02023791D01*
X00418000Y02008354D01*
X00418000Y01991646D01*
X00411606Y01976209D01*
X00399791Y01964394D01*
X00384354Y01958000D01*
X00315646Y01958000D01*
X00300209Y01964394D01*
X00288603Y01976000D01*
X00169849Y01976000D01*
X00168997Y01973943D01*
X00156057Y01961003D01*
X00139150Y01954000D01*
X00060850Y01954000D01*
X00048000Y01959323D01*
X00048000Y01940677D01*
X00060850Y01946000D01*
X00139150Y01946000D01*
X00156057Y01938997D01*
X00168997Y01926057D01*
X00169849Y01924000D01*
X00288603Y01924000D01*
X00300209Y01935606D01*
X00315646Y01942000D01*
X00384354Y01942000D01*
X00399791Y01935606D01*
X00411606Y01923791D01*
X00418000Y01908354D01*
X00418000Y01891646D01*
X00411606Y01876209D01*
X00399791Y01864394D01*
X00384354Y01858000D01*
X00315646Y01858000D01*
X00300209Y01864394D01*
X00288603Y01876000D01*
X00169849Y01876000D01*
X00168997Y01873943D01*
X00156057Y01861003D01*
X00139150Y01854000D01*
X00060850Y01854000D01*
X00048000Y01859323D01*
X00048000Y01840677D01*
X00060850Y01846000D01*
X00139150Y01846000D01*
X00156057Y01838997D01*
X00168997Y01826057D01*
X00169849Y01824000D01*
X00288603Y01824000D01*
X00300209Y01835606D01*
X00315646Y01842000D01*
X00384354Y01842000D01*
X00399791Y01835606D01*
X00411606Y01823791D01*
X00418000Y01808354D01*
X00418000Y01791646D01*
X00411606Y01776209D01*
X00399791Y01764394D01*
X00384354Y01758000D01*
X00315646Y01758000D01*
X00300209Y01764394D01*
X00288603Y01776000D01*
X00169849Y01776000D01*
X00168997Y01773943D01*
X00156057Y01761003D01*
X00139150Y01754000D01*
X00060850Y01754000D01*
X00048000Y01759323D01*
X00048000Y01740677D01*
X00060850Y01746000D01*
X00139150Y01746000D01*
X00156057Y01738997D01*
X00168997Y01726057D01*
X00169849Y01724000D01*
X00288603Y01724000D01*
X00300209Y01735606D01*
X00315646Y01742000D01*
X00384354Y01742000D01*
X00399791Y01735606D01*
X00411606Y01723791D01*
X00418000Y01708354D01*
X00418000Y01691646D01*
X00411606Y01676209D01*
X00399791Y01664394D01*
X00384354Y01658000D01*
X00315646Y01658000D01*
X00300209Y01664394D01*
X00288603Y01676000D01*
X00169849Y01676000D01*
X00168997Y01673943D01*
X00156057Y01661003D01*
X00139150Y01654000D01*
X00060850Y01654000D01*
X00048000Y01659323D01*
X00048000Y01181941D01*
X00107474Y01241415D01*
X00107425Y01241531D01*
X00107425Y01258469D01*
X00113907Y01274117D01*
X00125883Y01286093D01*
X00141531Y01292575D01*
X00158469Y01292575D01*
X00174117Y01286093D01*
X00186093Y01274117D01*
X00192575Y01258469D01*
X00192575Y01241531D01*
X00186093Y01225883D01*
X00174117Y01213907D01*
X00158469Y01207425D01*
X00141531Y01207425D01*
X00141415Y01207474D01*
X00074000Y01140059D01*
X00074000Y01084210D01*
X00075883Y01086093D01*
X00091531Y01092575D01*
X00108469Y01092575D01*
X00124117Y01086093D01*
X00136093Y01074117D01*
X00142575Y01058469D01*
X00142575Y01041531D01*
X00136093Y01025883D01*
X00124117Y01013907D01*
X00124000Y01013859D01*
X00124000Y00959941D01*
X00263595Y00820346D01*
X00270346Y00813595D01*
X00274000Y00804774D01*
X00274000Y00759941D01*
X00299272Y00734669D01*
X00300209Y00735606D01*
X00315646Y00742000D01*
X00384354Y00742000D01*
X00399791Y00735606D01*
X00411606Y00723791D01*
X00418000Y00708354D01*
X00418000Y00691646D01*
X00411606Y00676209D01*
X00399791Y00664394D01*
X00384354Y00658000D01*
X00315646Y00658000D01*
X00300209Y00664394D01*
X00288394Y00676209D01*
X00287084Y00679373D01*
X00286405Y00679654D01*
X00279654Y00686405D01*
X00229654Y00736405D01*
X00226000Y00745226D01*
X00226000Y00790059D01*
X00079654Y00936405D01*
X00076000Y00945226D01*
X00076000Y01013859D01*
X00075883Y01013907D01*
X00074000Y01015790D01*
X00074000Y00509941D01*
X00378672Y00205269D01*
X00382850Y00207000D01*
X00461150Y00207000D01*
X00478057Y00199997D01*
X00490997Y00187057D01*
X00498000Y00170150D01*
X00498000Y00151850D01*
X00490997Y00134943D01*
X00478057Y00122003D01*
X00461150Y00115000D01*
X00382850Y00115000D01*
X00365943Y00122003D01*
X00353003Y00134943D01*
X00346000Y00151850D01*
X00346000Y00170059D01*
X00048000Y00468059D01*
X00048000Y00463957D02*
X00052102Y00463957D01*
X00048000Y00447959D02*
X00068100Y00447959D01*
X00084099Y00431960D02*
X00048000Y00431960D01*
X00048000Y00415962D02*
X00100097Y00415962D01*
X00116096Y00399963D02*
X00048000Y00399963D01*
X00048000Y00383965D02*
X00132094Y00383965D01*
X00148093Y00367966D02*
X00048000Y00367966D01*
X00048000Y00351968D02*
X00164091Y00351968D01*
X00180090Y00335969D02*
X00048000Y00335969D01*
X00048000Y00319970D02*
X00196088Y00319970D01*
X00212087Y00303972D02*
X00048000Y00303972D01*
X00048000Y00287973D02*
X00228085Y00287973D01*
X00244084Y00271975D02*
X00048000Y00271975D01*
X00048000Y00255976D02*
X00260082Y00255976D01*
X00276081Y00239978D02*
X00048000Y00239978D01*
X00048000Y00223979D02*
X00292079Y00223979D01*
X00308078Y00207981D02*
X00048000Y00207981D01*
X00048000Y00191982D02*
X00324077Y00191982D01*
X00340075Y00175984D02*
X00048000Y00175984D01*
X00048000Y00159985D02*
X00346000Y00159985D01*
X00349257Y00143987D02*
X00048000Y00143987D01*
X00048000Y00127988D02*
X00359958Y00127988D01*
X00400000Y00150000D02*
X00422000Y00161000D01*
X00400000Y00150000D02*
X00050000Y00500000D01*
X00050000Y01150000D01*
X00150000Y01250000D01*
X00119672Y01279882D02*
X00048000Y01279882D01*
X00048000Y01295880D02*
X00282000Y01295880D01*
X00282000Y01291646D02*
X00288394Y01276209D01*
X00300209Y01264394D01*
X00315646Y01258000D01*
X00384354Y01258000D01*
X00399791Y01264394D01*
X00411606Y01276209D01*
X00418000Y01291646D01*
X00418000Y01308354D01*
X00411606Y01323791D01*
X00399791Y01335606D01*
X00384354Y01342000D01*
X00315646Y01342000D01*
X00300209Y01335606D01*
X00288394Y01323791D01*
X00282000Y01308354D01*
X00282000Y01291646D01*
X00286873Y01279882D02*
X00180328Y01279882D01*
X00190332Y01263883D02*
X00301442Y01263883D01*
X00315646Y01242000D02*
X00300209Y01235606D01*
X00288394Y01223791D01*
X00282000Y01208354D01*
X00282000Y01191646D01*
X00288394Y01176209D01*
X00300209Y01164394D01*
X00315646Y01158000D01*
X00384354Y01158000D01*
X00399791Y01164394D01*
X00411606Y01176209D01*
X00418000Y01191646D01*
X00418000Y01208354D01*
X00411606Y01223791D01*
X00399791Y01235606D01*
X00384354Y01242000D01*
X00315646Y01242000D01*
X00296489Y01231886D02*
X00188579Y01231886D01*
X00192575Y01247885D02*
X01165000Y01247885D01*
X01165000Y01251059D02*
X01165000Y01188850D01*
X01172003Y01171943D01*
X01184943Y01159003D01*
X01201850Y01152000D01*
X01220150Y01152000D01*
X01237057Y01159003D01*
X01249997Y01171943D01*
X01257000Y01188850D01*
X01257000Y01209059D01*
X01276000Y01190059D01*
X01276000Y01145226D01*
X01279654Y01136405D01*
X01316059Y01100000D01*
X01279654Y01063595D01*
X01276000Y01054774D01*
X01276000Y00836141D01*
X01275883Y00836093D01*
X01263907Y00824117D01*
X01257425Y00808469D01*
X01257425Y00791531D01*
X01263907Y00775883D01*
X01275883Y00763907D01*
X01291531Y00757425D01*
X01308469Y00757425D01*
X01324117Y00763907D01*
X01336093Y00775883D01*
X01342575Y00791531D01*
X01342575Y00808469D01*
X01336093Y00824117D01*
X01324117Y00836093D01*
X01324000Y00836141D01*
X01324000Y01040059D01*
X01359941Y01076000D01*
X01404774Y01076000D01*
X01413595Y01079654D01*
X01490601Y01156660D01*
X01501850Y01152000D01*
X01520150Y01152000D01*
X01537057Y01159003D01*
X01549997Y01171943D01*
X01557000Y01188850D01*
X01557000Y01267150D01*
X01549997Y01284057D01*
X01537057Y01296997D01*
X01520150Y01304000D01*
X01501850Y01304000D01*
X01484943Y01296997D01*
X01472003Y01284057D01*
X01465000Y01267150D01*
X01465000Y01198941D01*
X01390059Y01124000D01*
X01359941Y01124000D01*
X01324000Y01159941D01*
X01324000Y01204774D01*
X01320346Y01213595D01*
X01313595Y01220346D01*
X01263595Y01270346D01*
X01254774Y01274000D01*
X01254163Y01274000D01*
X01249997Y01284057D01*
X01237057Y01296997D01*
X01220150Y01304000D01*
X01201850Y01304000D01*
X01186358Y01297583D01*
X01174000Y01309941D01*
X01174000Y01354774D01*
X01170346Y01363595D01*
X01074000Y01459941D01*
X01074000Y02054774D01*
X01070346Y02063595D01*
X01033941Y02100000D01*
X01076000Y02142059D01*
X01076000Y01995226D01*
X01079654Y01986405D01*
X01086405Y01979654D01*
X01165000Y01901059D01*
X01165000Y01832850D01*
X01172003Y01815943D01*
X01184943Y01803003D01*
X01201850Y01796000D01*
X01220150Y01796000D01*
X01237057Y01803003D01*
X01249997Y01815943D01*
X01257000Y01832850D01*
X01257000Y01911150D01*
X01249997Y01928057D01*
X01237057Y01940997D01*
X01220150Y01948000D01*
X01201850Y01948000D01*
X01190601Y01943340D01*
X01124000Y02009941D01*
X01124000Y02140059D01*
X01209941Y02226000D01*
X01265790Y02226000D01*
X01263907Y02224117D01*
X01257425Y02208469D01*
X01257425Y02191531D01*
X01263907Y02175883D01*
X01275883Y02163907D01*
X01276000Y02163859D01*
X01276000Y01709941D01*
X01257000Y01690941D01*
X01257000Y01717150D01*
X01249997Y01734057D01*
X01237057Y01746997D01*
X01220150Y01754000D01*
X01201850Y01754000D01*
X01184943Y01746997D01*
X01172003Y01734057D01*
X01165000Y01717150D01*
X01165000Y01638850D01*
X01172003Y01621943D01*
X01184943Y01609003D01*
X01201850Y01602000D01*
X01220150Y01602000D01*
X01237057Y01609003D01*
X01247056Y01619003D01*
X01329654Y01536405D01*
X01336405Y01529654D01*
X01345226Y01526000D01*
X01363859Y01526000D01*
X01363907Y01525883D01*
X01375883Y01513907D01*
X01391531Y01507425D01*
X01408469Y01507425D01*
X01424117Y01513907D01*
X01436093Y01525883D01*
X01442575Y01541531D01*
X01442575Y01558469D01*
X01436093Y01574117D01*
X01424117Y01586093D01*
X01408469Y01592575D01*
X01391531Y01592575D01*
X01375883Y01586093D01*
X01363907Y01574117D01*
X01363859Y01574000D01*
X01359941Y01574000D01*
X01283941Y01650000D01*
X01313595Y01679654D01*
X01320346Y01686405D01*
X01324000Y01695226D01*
X01324000Y02163859D01*
X01324117Y02163907D01*
X01336093Y02175883D01*
X01342575Y02191531D01*
X01342575Y02208469D01*
X01336093Y02224117D01*
X01334210Y02226000D01*
X01715790Y02226000D01*
X01713907Y02224117D01*
X01707425Y02208469D01*
X01707425Y02200158D01*
X01698150Y02204000D01*
X01679850Y02204000D01*
X01662943Y02196997D01*
X01650003Y02184057D01*
X01643000Y02167150D01*
X01643000Y02088850D01*
X01650003Y02071943D01*
X01662943Y02059003D01*
X01679850Y02052000D01*
X01698150Y02052000D01*
X01715057Y02059003D01*
X01726000Y02069946D01*
X01726000Y02024000D01*
X01645226Y02024000D01*
X01636405Y02020346D01*
X01629654Y02013595D01*
X01600000Y01983941D01*
X01570346Y02013595D01*
X01563595Y02020346D01*
X01554774Y02024000D01*
X01509941Y02024000D01*
X01492526Y02041415D01*
X01492575Y02041531D01*
X01492575Y02055842D01*
X01501850Y02052000D01*
X01520150Y02052000D01*
X01537057Y02059003D01*
X01549997Y02071943D01*
X01557000Y02088850D01*
X01557000Y02167150D01*
X01549997Y02184057D01*
X01537057Y02196997D01*
X01520150Y02204000D01*
X01501850Y02204000D01*
X01484943Y02196997D01*
X01472003Y02184057D01*
X01465000Y02167150D01*
X01465000Y02089869D01*
X01458469Y02092575D01*
X01441531Y02092575D01*
X01435000Y02089869D01*
X01435000Y02167150D01*
X01427997Y02184057D01*
X01415057Y02196997D01*
X01398150Y02204000D01*
X01379850Y02204000D01*
X01362943Y02196997D01*
X01350003Y02184057D01*
X01343000Y02167150D01*
X01343000Y02088850D01*
X01350003Y02071943D01*
X01362943Y02059003D01*
X01379850Y02052000D01*
X01398150Y02052000D01*
X01407425Y02055842D01*
X01407425Y02041531D01*
X01413907Y02025883D01*
X01425883Y02013907D01*
X01441531Y02007425D01*
X01458469Y02007425D01*
X01458585Y02007474D01*
X01466059Y02000000D01*
X01409399Y01943340D01*
X01398150Y01948000D01*
X01379850Y01948000D01*
X01362943Y01940997D01*
X01350003Y01928057D01*
X01343000Y01911150D01*
X01343000Y01832850D01*
X01350003Y01815943D01*
X01362943Y01803003D01*
X01379850Y01796000D01*
X01398150Y01796000D01*
X01413642Y01802417D01*
X01426000Y01790059D01*
X01426000Y01759941D01*
X01413642Y01747583D01*
X01398150Y01754000D01*
X01379850Y01754000D01*
X01362943Y01746997D01*
X01350003Y01734057D01*
X01343000Y01717150D01*
X01343000Y01638850D01*
X01350003Y01621943D01*
X01362943Y01609003D01*
X01379850Y01602000D01*
X01398150Y01602000D01*
X01415057Y01609003D01*
X01427997Y01621943D01*
X01435000Y01638850D01*
X01435000Y01701059D01*
X01470346Y01736405D01*
X01474000Y01745226D01*
X01474000Y01804774D01*
X01470346Y01813595D01*
X01463595Y01820346D01*
X01435000Y01848941D01*
X01435000Y01901059D01*
X01509941Y01976000D01*
X01540059Y01976000D01*
X01576000Y01940059D01*
X01576000Y01809941D01*
X01529654Y01763595D01*
X01526000Y01754774D01*
X01526000Y01751577D01*
X01520150Y01754000D01*
X01501850Y01754000D01*
X01484943Y01746997D01*
X01472003Y01734057D01*
X01465000Y01717150D01*
X01465000Y01638850D01*
X01472003Y01621943D01*
X01484943Y01609003D01*
X01501850Y01602000D01*
X01520150Y01602000D01*
X01537057Y01609003D01*
X01547056Y01619003D01*
X01636405Y01529654D01*
X01645226Y01526000D01*
X01704774Y01526000D01*
X01713595Y01529654D01*
X01790601Y01606660D01*
X01801850Y01602000D01*
X01820150Y01602000D01*
X01837057Y01609003D01*
X01849997Y01621943D01*
X01857000Y01638850D01*
X01857000Y01717150D01*
X01849997Y01734057D01*
X01837057Y01746997D01*
X01820150Y01754000D01*
X01801850Y01754000D01*
X01784943Y01746997D01*
X01772003Y01734057D01*
X01765000Y01717150D01*
X01765000Y01648941D01*
X01690059Y01574000D01*
X01659941Y01574000D01*
X01557000Y01676941D01*
X01557000Y01709059D01*
X01629654Y01636405D01*
X01636405Y01629654D01*
X01645226Y01626000D01*
X01648323Y01626000D01*
X01650003Y01621943D01*
X01662943Y01609003D01*
X01679850Y01602000D01*
X01698150Y01602000D01*
X01715057Y01609003D01*
X01727997Y01621943D01*
X01735000Y01638850D01*
X01735000Y01717150D01*
X01727997Y01734057D01*
X01715057Y01746997D01*
X01698150Y01754000D01*
X01679850Y01754000D01*
X01662943Y01746997D01*
X01650003Y01734057D01*
X01643000Y01717150D01*
X01643000Y01690941D01*
X01583941Y01750000D01*
X01613595Y01779654D01*
X01620346Y01786405D01*
X01624000Y01795226D01*
X01624000Y01940059D01*
X01659941Y01976000D01*
X02026000Y01976000D01*
X02026000Y01959941D01*
X02009399Y01943340D01*
X01998150Y01948000D01*
X01979850Y01948000D01*
X01962943Y01940997D01*
X01950003Y01928057D01*
X01943000Y01911150D01*
X01943000Y01832850D01*
X01950003Y01815943D01*
X01962943Y01803003D01*
X01979850Y01796000D01*
X01998150Y01796000D01*
X02013642Y01802417D01*
X02016059Y01800000D01*
X01986405Y01770346D01*
X01979654Y01763595D01*
X01976000Y01754774D01*
X01976000Y01752405D01*
X01962943Y01746997D01*
X01950003Y01734057D01*
X01943000Y01717150D01*
X01943000Y01638850D01*
X01950003Y01621943D01*
X01962943Y01609003D01*
X01979850Y01602000D01*
X01998150Y01602000D01*
X02009399Y01606660D01*
X02026000Y01590059D01*
X02026000Y01495226D01*
X02029654Y01486405D01*
X02065000Y01451059D01*
X02065000Y01382850D01*
X02072003Y01365943D01*
X02084943Y01353003D01*
X02101850Y01346000D01*
X02120150Y01346000D01*
X02137057Y01353003D01*
X02149997Y01365943D01*
X02157000Y01382850D01*
X02157000Y01461150D01*
X02149997Y01478057D01*
X02137057Y01490997D01*
X02120150Y01498000D01*
X02101850Y01498000D01*
X02090601Y01493340D01*
X02074000Y01509941D01*
X02074000Y01604774D01*
X02070346Y01613595D01*
X02063595Y01620346D01*
X02035000Y01648941D01*
X02035000Y01717150D01*
X02027997Y01734057D01*
X02024000Y01738054D01*
X02024000Y01740059D01*
X02063595Y01779654D01*
X02070346Y01786405D01*
X02074000Y01795226D01*
X02074000Y01804774D01*
X02070346Y01813595D01*
X02035000Y01848941D01*
X02035000Y01901059D01*
X02063595Y01929654D01*
X02070346Y01936405D01*
X02074000Y01945226D01*
X02074000Y01965790D01*
X02075883Y01963907D01*
X02091531Y01957425D01*
X02108469Y01957425D01*
X02124117Y01963907D01*
X02136093Y01975883D01*
X02136141Y01976000D01*
X02154774Y01976000D01*
X02163595Y01979654D01*
X02170346Y01986405D01*
X02220346Y02036405D01*
X02224000Y02045226D01*
X02224000Y02204774D01*
X02220346Y02213595D01*
X02213595Y02220346D01*
X02163595Y02270346D01*
X02154774Y02274000D01*
X02059941Y02274000D01*
X01942526Y02391415D01*
X01942575Y02391531D01*
X01942575Y02408469D01*
X01936093Y02424117D01*
X01924117Y02436093D01*
X01908469Y02442575D01*
X01891531Y02442575D01*
X01875883Y02436093D01*
X01863907Y02424117D01*
X01857425Y02408469D01*
X01857425Y02391531D01*
X01863907Y02375883D01*
X01875883Y02363907D01*
X01891531Y02357425D01*
X01908469Y02357425D01*
X01908585Y02357474D01*
X01992059Y02274000D01*
X01207941Y02274000D01*
X01291415Y02357474D01*
X01291531Y02357425D01*
X01308469Y02357425D01*
X01324117Y02363907D01*
X01336093Y02375883D01*
X01342575Y02391531D01*
X01342575Y02408469D01*
X01336093Y02424117D01*
X01324117Y02436093D01*
X01308469Y02442575D01*
X01291531Y02442575D01*
X01275883Y02436093D01*
X01263907Y02424117D01*
X01257425Y02408469D01*
X01257425Y02391531D01*
X01257474Y02391415D01*
X01000728Y02134669D01*
X00999791Y02135606D01*
X00984354Y02142000D01*
X00915646Y02142000D01*
X00900209Y02135606D01*
X00888394Y02123791D01*
X00882000Y02108354D01*
X00882000Y02091646D01*
X00888394Y02076209D01*
X00900209Y02064394D01*
X00915646Y02058000D01*
X00984354Y02058000D01*
X00999791Y02064394D01*
X01000728Y02065331D01*
X01026000Y02040059D01*
X01026000Y01445226D01*
X01029654Y01436405D01*
X01036405Y01429654D01*
X01126000Y01340059D01*
X01126000Y01295226D01*
X01129654Y01286405D01*
X01165000Y01251059D01*
X01152175Y01263883D02*
X00998558Y01263883D01*
X00999791Y01264394D02*
X01011606Y01276209D01*
X01018000Y01291646D01*
X01018000Y01308354D01*
X01011606Y01323791D01*
X00999791Y01335606D01*
X00984354Y01342000D01*
X00915646Y01342000D01*
X00900209Y01335606D01*
X00888394Y01323791D01*
X00882000Y01308354D01*
X00882000Y01291646D01*
X00888394Y01276209D01*
X00900209Y01264394D01*
X00915646Y01258000D01*
X00984354Y01258000D01*
X00999791Y01264394D01*
X01013127Y01279882D02*
X01136177Y01279882D01*
X01126000Y01295880D02*
X01018000Y01295880D01*
X01016540Y01311879D02*
X01126000Y01311879D01*
X01126000Y01327877D02*
X01007519Y01327877D01*
X00988880Y01359875D02*
X01106184Y01359875D01*
X01090186Y01375873D02*
X01011270Y01375873D01*
X01011606Y01376209D02*
X01018000Y01391646D01*
X01018000Y01408354D01*
X01011606Y01423791D01*
X00999791Y01435606D01*
X00984354Y01442000D01*
X00915646Y01442000D01*
X00900209Y01435606D01*
X00888394Y01423791D01*
X00882000Y01408354D01*
X00882000Y01391646D01*
X00888394Y01376209D01*
X00900209Y01364394D01*
X00915646Y01358000D01*
X00984354Y01358000D01*
X00999791Y01364394D01*
X01011606Y01376209D01*
X01018000Y01391872D02*
X01074187Y01391872D01*
X01058189Y01407870D02*
X01018000Y01407870D01*
X01011528Y01423869D02*
X01042190Y01423869D01*
X01028220Y01439867D02*
X00989503Y01439867D01*
X00984354Y01458000D02*
X00999791Y01464394D01*
X01011606Y01476209D01*
X01018000Y01491646D01*
X01018000Y01508354D01*
X01011606Y01523791D01*
X00999791Y01535606D01*
X00984354Y01542000D01*
X00915646Y01542000D01*
X00900209Y01535606D01*
X00888394Y01523791D01*
X00882000Y01508354D01*
X00882000Y01491646D01*
X00888394Y01476209D01*
X00900209Y01464394D01*
X00915646Y01458000D01*
X00984354Y01458000D01*
X01007261Y01471864D02*
X01026000Y01471864D01*
X01026000Y01455866D02*
X00048000Y01455866D01*
X00048000Y01471864D02*
X00292739Y01471864D01*
X00288394Y01476209D02*
X00300209Y01464394D01*
X00315646Y01458000D01*
X00384354Y01458000D01*
X00399791Y01464394D01*
X00411606Y01476209D01*
X00418000Y01491646D01*
X00418000Y01508354D01*
X00411606Y01523791D01*
X00399791Y01535606D01*
X00384354Y01542000D01*
X00315646Y01542000D01*
X00300209Y01535606D01*
X00288394Y01523791D01*
X00282000Y01508354D01*
X00282000Y01491646D01*
X00288394Y01476209D01*
X00283567Y01487863D02*
X00048000Y01487863D01*
X00048000Y01503861D02*
X00282000Y01503861D01*
X00286766Y01519860D02*
X00048000Y01519860D01*
X00048000Y01535858D02*
X00300818Y01535858D01*
X00315646Y01558000D02*
X00384354Y01558000D01*
X00399791Y01564394D01*
X00411606Y01576209D01*
X00418000Y01591646D01*
X00418000Y01608354D01*
X00411606Y01623791D01*
X00399791Y01635606D01*
X00384354Y01642000D01*
X00315646Y01642000D01*
X00300209Y01635606D01*
X00288394Y01623791D01*
X00282000Y01608354D01*
X00282000Y01591646D01*
X00288394Y01576209D01*
X00300209Y01564394D01*
X00315646Y01558000D01*
X00296748Y01567855D02*
X00048000Y01567855D01*
X00048000Y01551857D02*
X01026000Y01551857D01*
X01026000Y01567855D02*
X01003252Y01567855D01*
X00999791Y01564394D02*
X01011606Y01576209D01*
X01018000Y01591646D01*
X01018000Y01608354D01*
X01011606Y01623791D01*
X00999791Y01635606D01*
X00984354Y01642000D01*
X00915646Y01642000D01*
X00900209Y01635606D01*
X00888394Y01623791D01*
X00882000Y01608354D01*
X00882000Y01591646D01*
X00888394Y01576209D01*
X00900209Y01564394D01*
X00915646Y01558000D01*
X00984354Y01558000D01*
X00999791Y01564394D01*
X01014772Y01583854D02*
X01026000Y01583854D01*
X01026000Y01599852D02*
X01018000Y01599852D01*
X01014895Y01615851D02*
X01026000Y01615851D01*
X01026000Y01631849D02*
X01003547Y01631849D01*
X01026000Y01647848D02*
X00048000Y01647848D01*
X00048000Y01631849D02*
X00296453Y01631849D01*
X00285105Y01615851D02*
X00048000Y01615851D01*
X00048000Y01599852D02*
X00282000Y01599852D01*
X00285227Y01583854D02*
X00048000Y01583854D01*
X00158900Y01663846D02*
X00301531Y01663846D01*
X00350000Y01700000D02*
X00100000Y01700000D01*
X00055633Y01743839D02*
X00048000Y01743839D01*
X00100000Y01800000D02*
X00350000Y01800000D01*
X00388791Y01759838D02*
X00911209Y01759838D01*
X00915646Y01758000D02*
X00984354Y01758000D01*
X00999791Y01764394D01*
X01011606Y01776209D01*
X01018000Y01791646D01*
X01018000Y01808354D01*
X01011606Y01823791D01*
X00999791Y01835606D01*
X00984354Y01842000D01*
X00915646Y01842000D01*
X00900209Y01835606D01*
X00888394Y01823791D01*
X00882000Y01808354D01*
X00882000Y01791646D01*
X00888394Y01776209D01*
X00900209Y01764394D01*
X00915646Y01758000D01*
X00915646Y01742000D02*
X00900209Y01735606D01*
X00888394Y01723791D01*
X00882000Y01708354D01*
X00882000Y01691646D01*
X00888394Y01676209D01*
X00900209Y01664394D01*
X00915646Y01658000D01*
X00984354Y01658000D01*
X00999791Y01664394D01*
X01011606Y01676209D01*
X01018000Y01691646D01*
X01018000Y01708354D01*
X01011606Y01723791D01*
X00999791Y01735606D01*
X00984354Y01742000D01*
X00915646Y01742000D01*
X00892444Y01727841D02*
X00407556Y01727841D01*
X00416555Y01711842D02*
X00883445Y01711842D01*
X00882000Y01695844D02*
X00418000Y01695844D01*
X00413112Y01679845D02*
X00886888Y01679845D01*
X00901531Y01663846D02*
X00398469Y01663846D01*
X00403547Y01631849D02*
X00896453Y01631849D01*
X00885105Y01615851D02*
X00414895Y01615851D01*
X00418000Y01599852D02*
X00882000Y01599852D01*
X00885227Y01583854D02*
X00414772Y01583854D01*
X00403252Y01567855D02*
X00896748Y01567855D01*
X00900818Y01535858D02*
X00399182Y01535858D01*
X00413234Y01519860D02*
X00886766Y01519860D01*
X00882000Y01503861D02*
X00418000Y01503861D01*
X00416433Y01487863D02*
X00883567Y01487863D01*
X00892739Y01471864D02*
X00407261Y01471864D01*
X00389503Y01439867D02*
X00910497Y01439867D01*
X00888472Y01423869D02*
X00411528Y01423869D01*
X00411606Y01423791D02*
X00399791Y01435606D01*
X00384354Y01442000D01*
X00315646Y01442000D01*
X00300209Y01435606D01*
X00288394Y01423791D01*
X00282000Y01408354D01*
X00282000Y01391646D01*
X00288394Y01376209D01*
X00300209Y01364394D01*
X00315646Y01358000D01*
X00384354Y01358000D01*
X00399791Y01364394D01*
X00411606Y01376209D01*
X00418000Y01391646D01*
X00418000Y01408354D01*
X00411606Y01423791D01*
X00418000Y01407870D02*
X00882000Y01407870D01*
X00882000Y01391872D02*
X00418000Y01391872D01*
X00411270Y01375873D02*
X00888730Y01375873D01*
X00911120Y01359875D02*
X00388880Y01359875D01*
X00407519Y01327877D02*
X00892481Y01327877D01*
X00883460Y01311879D02*
X00416540Y01311879D01*
X00418000Y01295880D02*
X00882000Y01295880D01*
X00886873Y01279882D02*
X00413127Y01279882D01*
X00398558Y01263883D02*
X00901442Y01263883D01*
X00915646Y01242000D02*
X00900209Y01235606D01*
X00888394Y01223791D01*
X00882000Y01208354D01*
X00882000Y01191646D01*
X00888394Y01176209D01*
X00900209Y01164394D01*
X00915646Y01158000D01*
X00984354Y01158000D01*
X00999791Y01164394D01*
X01011606Y01176209D01*
X01018000Y01191646D01*
X01018000Y01208354D01*
X01011606Y01223791D01*
X00999791Y01235606D01*
X00984354Y01242000D01*
X00915646Y01242000D01*
X00896489Y01231886D02*
X00403510Y01231886D01*
X00414879Y01215888D02*
X00885121Y01215888D01*
X00882000Y01199889D02*
X00418000Y01199889D01*
X00414788Y01183891D02*
X00885212Y01183891D01*
X00896711Y01167892D02*
X00403289Y01167892D01*
X00384354Y01142000D02*
X00399791Y01135606D01*
X00411606Y01123791D01*
X00418000Y01108354D01*
X00418000Y01091646D01*
X00411606Y01076209D01*
X00399791Y01064394D01*
X00384354Y01058000D01*
X00315646Y01058000D01*
X00300209Y01064394D01*
X00288394Y01076209D01*
X00282000Y01091646D01*
X00282000Y01108354D01*
X00288394Y01123791D01*
X00300209Y01135606D01*
X00315646Y01142000D01*
X00384354Y01142000D01*
X00399092Y01135895D02*
X00900908Y01135895D01*
X00900209Y01135606D02*
X00888394Y01123791D01*
X00882000Y01108354D01*
X00882000Y01091646D01*
X00888394Y01076209D01*
X00900209Y01064394D01*
X00915646Y01058000D01*
X00984354Y01058000D01*
X00999791Y01064394D01*
X01011606Y01076209D01*
X01018000Y01091646D01*
X01018000Y01108354D01*
X01011606Y01123791D01*
X00999791Y01135606D01*
X00984354Y01142000D01*
X00915646Y01142000D01*
X00900209Y01135606D01*
X00886781Y01119897D02*
X00413219Y01119897D01*
X00418000Y01103898D02*
X00882000Y01103898D01*
X00883552Y01087900D02*
X00416448Y01087900D01*
X00407298Y01071901D02*
X00892702Y01071901D01*
X00910586Y01039904D02*
X00389414Y01039904D01*
X00384354Y01042000D02*
X00399791Y01035606D01*
X00411606Y01023791D01*
X00418000Y01008354D01*
X00418000Y00991646D01*
X00411606Y00976209D01*
X00399791Y00964394D01*
X00384354Y00958000D01*
X00315646Y00958000D01*
X00300209Y00964394D01*
X00288394Y00976209D01*
X00282000Y00991646D01*
X00282000Y01008354D01*
X00288394Y01023791D01*
X00300209Y01035606D01*
X00315646Y01042000D01*
X00384354Y01042000D01*
X00411491Y01023906D02*
X00888509Y01023906D01*
X00888394Y01023791D02*
X00882000Y01008354D01*
X00882000Y00991646D01*
X00888394Y00976209D01*
X00900209Y00964394D01*
X00915646Y00958000D01*
X00984354Y00958000D01*
X00999791Y00964394D01*
X01011606Y00976209D01*
X01018000Y00991646D01*
X01018000Y01008354D01*
X01011606Y01023791D01*
X00999791Y01035606D01*
X00984354Y01042000D01*
X00915646Y01042000D01*
X00900209Y01035606D01*
X00888394Y01023791D01*
X00882000Y01007907D02*
X00418000Y01007907D01*
X00418000Y00991908D02*
X00882000Y00991908D01*
X00888693Y00975910D02*
X00411307Y00975910D01*
X00388969Y00959911D02*
X00911031Y00959911D01*
X00915646Y00942000D02*
X00900209Y00935606D01*
X00888394Y00923791D01*
X00882000Y00908354D01*
X00882000Y00891646D01*
X00888394Y00876209D01*
X00900209Y00864394D01*
X00915646Y00858000D01*
X00984354Y00858000D01*
X00999791Y00864394D01*
X01011606Y00876209D01*
X01018000Y00891646D01*
X01018000Y00908354D01*
X01011606Y00923791D01*
X00999791Y00935606D01*
X00984354Y00942000D01*
X00915646Y00942000D01*
X00892517Y00927914D02*
X00407482Y00927914D01*
X00411606Y00923791D02*
X00399791Y00935606D01*
X00384354Y00942000D01*
X00315646Y00942000D01*
X00300209Y00935606D01*
X00288394Y00923791D01*
X00282000Y00908354D01*
X00282000Y00891646D01*
X00288394Y00876209D01*
X00300209Y00864394D01*
X00315646Y00858000D01*
X00384354Y00858000D01*
X00399791Y00864394D01*
X00411606Y00876209D01*
X00418000Y00891646D01*
X00418000Y00908354D01*
X00411606Y00923791D01*
X00416525Y00911916D02*
X00883475Y00911916D01*
X00882000Y00895917D02*
X00418000Y00895917D01*
X00413142Y00879919D02*
X00886857Y00879919D01*
X00901353Y00863920D02*
X00398647Y00863920D01*
X00384354Y00842000D02*
X00399791Y00835606D01*
X00411606Y00823791D01*
X00418000Y00808354D01*
X00418000Y00791646D01*
X00411606Y00776209D01*
X00399791Y00764394D01*
X00384354Y00758000D01*
X00315646Y00758000D01*
X00300209Y00764394D01*
X00288394Y00776209D01*
X00282000Y00791646D01*
X00282000Y00808354D01*
X00288394Y00823791D01*
X00300209Y00835606D01*
X00315646Y00842000D01*
X00384354Y00842000D01*
X00403474Y00831923D02*
X00896526Y00831923D01*
X00900209Y00835606D02*
X00888394Y00823791D01*
X00882000Y00808354D01*
X00882000Y00791646D01*
X00888394Y00776209D01*
X00900209Y00764394D01*
X00915646Y00758000D01*
X00926000Y00758000D01*
X00926000Y00742000D01*
X00915646Y00742000D01*
X00900209Y00735606D01*
X00888394Y00723791D01*
X00882000Y00708354D01*
X00882000Y00691646D01*
X00888394Y00676209D01*
X00900209Y00664394D01*
X00915646Y00658000D01*
X00926000Y00658000D01*
X00926000Y00642000D01*
X00915646Y00642000D01*
X00900209Y00635606D01*
X00888394Y00623791D01*
X00882000Y00608354D01*
X00882000Y00591646D01*
X00888394Y00576209D01*
X00900209Y00564394D01*
X00915646Y00558000D01*
X00926000Y00558000D01*
X00926000Y00542000D01*
X00915646Y00542000D01*
X00900209Y00535606D01*
X00888394Y00523791D01*
X00882000Y00508354D01*
X00882000Y00491646D01*
X00888394Y00476209D01*
X00900209Y00464394D01*
X00915646Y00458000D01*
X00984354Y00458000D01*
X00999791Y00464394D01*
X01011606Y00476209D01*
X01018000Y00491646D01*
X01018000Y00508354D01*
X01011606Y00523791D01*
X00999791Y00535606D01*
X00984354Y00542000D01*
X00974000Y00542000D01*
X00974000Y00558000D01*
X00984354Y00558000D01*
X00999791Y00564394D01*
X01011606Y00576209D01*
X01018000Y00591646D01*
X01018000Y00608354D01*
X01011606Y00623791D01*
X00999791Y00635606D01*
X00984354Y00642000D01*
X00974000Y00642000D01*
X00974000Y00658000D01*
X00984354Y00658000D01*
X00999791Y00664394D01*
X01011397Y00676000D01*
X01240059Y00676000D01*
X01343000Y00573059D01*
X01343000Y00540941D01*
X01270346Y00613595D01*
X01263595Y00620346D01*
X01254774Y00624000D01*
X01251677Y00624000D01*
X01249997Y00628057D01*
X01237057Y00640997D01*
X01220150Y00648000D01*
X01201850Y00648000D01*
X01184943Y00640997D01*
X01172003Y00628057D01*
X01165000Y00611150D01*
X01165000Y00532850D01*
X01172003Y00515943D01*
X01184943Y00503003D01*
X01201850Y00496000D01*
X01220150Y00496000D01*
X01237057Y00503003D01*
X01249997Y00515943D01*
X01257000Y00532850D01*
X01257000Y00559059D01*
X01379654Y00436405D01*
X01386405Y00429654D01*
X01395226Y00426000D01*
X01404774Y00426000D01*
X01413595Y00429654D01*
X01486358Y00502417D01*
X01501850Y00496000D01*
X01520150Y00496000D01*
X01537057Y00503003D01*
X01549997Y00515943D01*
X01557000Y00532850D01*
X01557000Y00611150D01*
X01549997Y00628057D01*
X01537057Y00640997D01*
X01520150Y00648000D01*
X01501850Y00648000D01*
X01484943Y00640997D01*
X01472003Y00628057D01*
X01465000Y00611150D01*
X01465000Y00548941D01*
X01400000Y00483941D01*
X01387941Y00496000D01*
X01398150Y00496000D01*
X01415057Y00503003D01*
X01427997Y00515943D01*
X01435000Y00532850D01*
X01435000Y00601059D01*
X01509941Y00676000D01*
X01540059Y00676000D01*
X01643000Y00573059D01*
X01643000Y00532850D01*
X01650003Y00515943D01*
X01662943Y00503003D01*
X01679850Y00496000D01*
X01698150Y00496000D01*
X01715057Y00503003D01*
X01727997Y00515943D01*
X01735000Y00532850D01*
X01735000Y00601059D01*
X01809941Y00676000D01*
X01840059Y00676000D01*
X01943000Y00573059D01*
X01943000Y00532850D01*
X01950003Y00515943D01*
X01962943Y00503003D01*
X01979850Y00496000D01*
X01998150Y00496000D01*
X02015057Y00503003D01*
X02027997Y00515943D01*
X02035000Y00532850D01*
X02035000Y00601059D01*
X02109941Y00676000D01*
X02140059Y00676000D01*
X02236405Y00579654D01*
X02243000Y00576922D01*
X02243000Y00532850D01*
X02250003Y00515943D01*
X02262943Y00503003D01*
X02279850Y00496000D01*
X02298150Y00496000D01*
X02315057Y00503003D01*
X02327997Y00515943D01*
X02335000Y00532850D01*
X02335000Y00611150D01*
X02327997Y00628057D01*
X02315057Y00640997D01*
X02298150Y00648000D01*
X02279850Y00648000D01*
X02262943Y00640997D01*
X02252944Y00630997D01*
X02170346Y00713595D01*
X02163595Y00720346D01*
X02154774Y00724000D01*
X02095226Y00724000D01*
X02086405Y00720346D01*
X02009399Y00643340D01*
X01998150Y00648000D01*
X01979850Y00648000D01*
X01962943Y00640997D01*
X01952944Y00630997D01*
X01863595Y00720346D01*
X01854774Y00724000D01*
X01795226Y00724000D01*
X01786405Y00720346D01*
X01709399Y00643340D01*
X01698150Y00648000D01*
X01679850Y00648000D01*
X01662943Y00640997D01*
X01652944Y00630997D01*
X01563595Y00720346D01*
X01554774Y00724000D01*
X01495226Y00724000D01*
X01486405Y00720346D01*
X01479654Y00713595D01*
X01409399Y00643340D01*
X01398150Y00648000D01*
X01379850Y00648000D01*
X01362943Y00640997D01*
X01352944Y00630997D01*
X01263595Y00720346D01*
X01254774Y00724000D01*
X01011397Y00724000D01*
X00999791Y00735606D01*
X00984354Y00742000D01*
X00974000Y00742000D01*
X00974000Y00758000D01*
X00984354Y00758000D01*
X00999791Y00764394D01*
X01011606Y00776209D01*
X01018000Y00791646D01*
X01018000Y00808354D01*
X01011606Y00823791D01*
X00999791Y00835606D01*
X00984354Y00842000D01*
X00915646Y00842000D01*
X00900209Y00835606D01*
X00885136Y00815925D02*
X00414864Y00815925D01*
X00418000Y00799926D02*
X00882000Y00799926D01*
X00885197Y00783928D02*
X00414803Y00783928D01*
X00403326Y00767929D02*
X00896674Y00767929D01*
X00926000Y00751931D02*
X00282010Y00751931D01*
X00274000Y00767929D02*
X00296674Y00767929D01*
X00285197Y00783928D02*
X00274000Y00783928D01*
X00274000Y00799926D02*
X00282000Y00799926D01*
X00285136Y00815925D02*
X00268016Y00815925D01*
X00252018Y00831923D02*
X00296526Y00831923D01*
X00301353Y00863920D02*
X00220021Y00863920D01*
X00236019Y00847922D02*
X01165000Y00847922D01*
X01165000Y00863920D02*
X00998647Y00863920D01*
X01013142Y00879919D02*
X01170289Y00879919D01*
X01172003Y00884057D02*
X01165000Y00867150D01*
X01165000Y00788850D01*
X01172003Y00771943D01*
X01184943Y00759003D01*
X01201850Y00752000D01*
X01220150Y00752000D01*
X01237057Y00759003D01*
X01249997Y00771943D01*
X01257000Y00788850D01*
X01257000Y00867150D01*
X01249997Y00884057D01*
X01237057Y00896997D01*
X01229806Y00900000D01*
X01237057Y00903003D01*
X01249997Y00915943D01*
X01257000Y00932850D01*
X01257000Y01011150D01*
X01249997Y01028057D01*
X01237057Y01040997D01*
X01220150Y01048000D01*
X01201850Y01048000D01*
X01184943Y01040997D01*
X01172003Y01028057D01*
X01165000Y01011150D01*
X01165000Y00932850D01*
X01172003Y00915943D01*
X01184943Y00903003D01*
X01192193Y00900000D01*
X01184943Y00896997D01*
X01172003Y00884057D01*
X01183864Y00895917D02*
X01018000Y00895917D01*
X01016525Y00911916D02*
X01176030Y00911916D01*
X01167044Y00927914D02*
X01007482Y00927914D01*
X00988969Y00959911D02*
X01165000Y00959911D01*
X01165000Y00943913D02*
X00140028Y00943913D01*
X00124030Y00959911D02*
X00311031Y00959911D01*
X00288693Y00975910D02*
X00124000Y00975910D01*
X00124000Y00991908D02*
X00282000Y00991908D01*
X00282000Y01007907D02*
X00124000Y01007907D01*
X00134115Y01023906D02*
X00288509Y01023906D01*
X00310586Y01039904D02*
X00141901Y01039904D01*
X00142575Y01055903D02*
X01276468Y01055903D01*
X01276000Y01039904D02*
X01238150Y01039904D01*
X01251716Y01023906D02*
X01276000Y01023906D01*
X01276000Y01007907D02*
X01257000Y01007907D01*
X01257000Y00991908D02*
X01276000Y00991908D01*
X01276000Y00975910D02*
X01257000Y00975910D01*
X01257000Y00959911D02*
X01276000Y00959911D01*
X01276000Y00943913D02*
X01257000Y00943913D01*
X01254955Y00927914D02*
X01276000Y00927914D01*
X01276000Y00911916D02*
X01245970Y00911916D01*
X01238136Y00895917D02*
X01276000Y00895917D01*
X01276000Y00879919D02*
X01251711Y00879919D01*
X01257000Y00863920D02*
X01276000Y00863920D01*
X01276000Y00847922D02*
X01257000Y00847922D01*
X01257000Y00831923D02*
X01271713Y00831923D01*
X01260514Y00815925D02*
X01257000Y00815925D01*
X01257000Y00799926D02*
X01257425Y00799926D01*
X01254961Y00783928D02*
X01260575Y00783928D01*
X01271861Y00767929D02*
X01245983Y00767929D01*
X01264007Y00719934D02*
X01485992Y00719934D01*
X01469994Y00703935D02*
X01280006Y00703935D01*
X01296004Y00687937D02*
X01453996Y00687937D01*
X01437997Y00671938D02*
X01312003Y00671938D01*
X01328001Y00655939D02*
X01421999Y00655939D01*
X01457883Y00623942D02*
X01470299Y00623942D01*
X01473882Y00639941D02*
X01483887Y00639941D01*
X01489881Y00655939D02*
X01560119Y00655939D01*
X01576118Y00639941D02*
X01538113Y00639941D01*
X01551701Y00623942D02*
X01592116Y00623942D01*
X01608115Y00607944D02*
X01557000Y00607944D01*
X01557000Y00591945D02*
X01624113Y00591945D01*
X01640112Y00575947D02*
X01557000Y00575947D01*
X01557000Y00559948D02*
X01643000Y00559948D01*
X01643000Y00543950D02*
X01557000Y00543950D01*
X01554971Y00527951D02*
X01645029Y00527951D01*
X01653993Y00511953D02*
X01546007Y00511953D01*
X01500000Y00550000D02*
X01511000Y00572000D01*
X01500000Y00550000D02*
X01400000Y00450000D01*
X01250000Y00600000D01*
X01200000Y00600000D01*
X01211000Y00572000D01*
X01165000Y00575947D02*
X01011344Y00575947D01*
X01018000Y00591945D02*
X01165000Y00591945D01*
X01165000Y00607944D02*
X01018000Y00607944D01*
X01011454Y00623942D02*
X01170299Y00623942D01*
X01183887Y00639941D02*
X00989325Y00639941D01*
X00974000Y00655939D02*
X01260119Y00655939D01*
X01276118Y00639941D02*
X01238113Y00639941D01*
X01254913Y00623942D02*
X01292116Y00623942D01*
X01308115Y00607944D02*
X01275997Y00607944D01*
X01291996Y00591945D02*
X01324113Y00591945D01*
X01340112Y00575947D02*
X01307994Y00575947D01*
X01323993Y00559948D02*
X01343000Y00559948D01*
X01343000Y00543950D02*
X01339991Y00543950D01*
X01304106Y00511953D02*
X01246007Y00511953D01*
X01254971Y00527951D02*
X01288108Y00527951D01*
X01272109Y00543950D02*
X01257000Y00543950D01*
X01320105Y00495954D02*
X01018000Y00495954D01*
X01016509Y00511953D02*
X01175993Y00511953D01*
X01167029Y00527951D02*
X01007445Y00527951D01*
X00989058Y00559948D02*
X01165000Y00559948D01*
X01165000Y00543950D02*
X00974000Y00543950D01*
X00950000Y00500000D02*
X00950000Y00600000D01*
X00950000Y00700000D01*
X01250000Y00700000D01*
X01400000Y00550000D01*
X01389000Y00572000D01*
X01400000Y00600000D01*
X01500000Y00700000D01*
X01550000Y00700000D01*
X01700000Y00550000D01*
X01689000Y00572000D01*
X01700000Y00600000D01*
X01800000Y00700000D01*
X01850000Y00700000D01*
X02000000Y00550000D01*
X01989000Y00572000D01*
X02000000Y00600000D01*
X02100000Y00700000D01*
X02150000Y00700000D01*
X02250000Y00600000D01*
X02300000Y00600000D01*
X02289000Y00572000D01*
X02335000Y00575947D02*
X02389008Y00575947D01*
X02389008Y00591945D02*
X02335000Y00591945D01*
X02335000Y00607944D02*
X02389008Y00607944D01*
X02389008Y00623942D02*
X02329701Y00623942D01*
X02316113Y00639941D02*
X02389008Y00639941D01*
X02389008Y00655939D02*
X02228001Y00655939D01*
X02244000Y00639941D02*
X02261887Y00639941D01*
X02212003Y00671938D02*
X02389008Y00671938D01*
X02389008Y00687937D02*
X02196004Y00687937D01*
X02180006Y00703935D02*
X02389008Y00703935D01*
X02389008Y00719934D02*
X02164007Y00719934D01*
X02137057Y00759003D02*
X02149997Y00771943D01*
X02157000Y00788850D01*
X02157000Y00867150D01*
X02149997Y00884057D01*
X02137057Y00896997D01*
X02129806Y00900000D01*
X02137057Y00903003D01*
X02149997Y00915943D01*
X02157000Y00932850D01*
X02157000Y01011150D01*
X02149997Y01028057D01*
X02137057Y01040997D01*
X02120150Y01048000D01*
X02101850Y01048000D01*
X02084943Y01040997D01*
X02072003Y01028057D01*
X02065000Y01011150D01*
X02065000Y00932850D01*
X02072003Y00915943D01*
X02084943Y00903003D01*
X02092193Y00900000D01*
X02084943Y00896997D01*
X02072003Y00884057D01*
X02065000Y00867150D01*
X02065000Y00788850D01*
X02072003Y00771943D01*
X02084943Y00759003D01*
X02101850Y00752000D01*
X02120150Y00752000D01*
X02137057Y00759003D01*
X02145983Y00767929D02*
X02254017Y00767929D01*
X02250003Y00771943D02*
X02262943Y00759003D01*
X02279850Y00752000D01*
X02298150Y00752000D01*
X02315057Y00759003D01*
X02327997Y00771943D01*
X02335000Y00788850D01*
X02335000Y00867150D01*
X02327997Y00884057D01*
X02315057Y00896997D01*
X02307806Y00900000D01*
X02315057Y00903003D01*
X02327997Y00915943D01*
X02335000Y00932850D01*
X02335000Y01011150D01*
X02327997Y01028057D01*
X02315057Y01040997D01*
X02298150Y01048000D01*
X02279850Y01048000D01*
X02262943Y01040997D01*
X02250003Y01028057D01*
X02243000Y01011150D01*
X02243000Y00932850D01*
X02250003Y00915943D01*
X02262943Y00903003D01*
X02270193Y00900000D01*
X02262943Y00896997D01*
X02250003Y00884057D01*
X02243000Y00867150D01*
X02243000Y00788850D01*
X02250003Y00771943D01*
X02245039Y00783928D02*
X02154961Y00783928D01*
X02157000Y00799926D02*
X02243000Y00799926D01*
X02243000Y00815925D02*
X02157000Y00815925D01*
X02157000Y00831923D02*
X02243000Y00831923D01*
X02243000Y00847922D02*
X02157000Y00847922D01*
X02157000Y00863920D02*
X02243000Y00863920D01*
X02248289Y00879919D02*
X02151711Y00879919D01*
X02138136Y00895917D02*
X02261864Y00895917D01*
X02254030Y00911916D02*
X02145970Y00911916D01*
X02154955Y00927914D02*
X02245044Y00927914D01*
X02243000Y00943913D02*
X02157000Y00943913D01*
X02157000Y00959911D02*
X02243000Y00959911D01*
X02243000Y00975910D02*
X02157000Y00975910D01*
X02157000Y00991908D02*
X02243000Y00991908D01*
X02243000Y01007907D02*
X02157000Y01007907D01*
X02151716Y01023906D02*
X02248284Y01023906D01*
X02261850Y01039904D02*
X02138150Y01039904D01*
X02154774Y01076000D02*
X02163595Y01079654D01*
X02252944Y01169003D01*
X02262943Y01159003D01*
X02279850Y01152000D01*
X02298150Y01152000D01*
X02315057Y01159003D01*
X02327997Y01171943D01*
X02335000Y01188850D01*
X02335000Y01251059D01*
X02363595Y01279654D01*
X02370346Y01286405D01*
X02374000Y01295226D01*
X02374000Y01354774D01*
X02370346Y01363595D01*
X02335000Y01398941D01*
X02335000Y01461150D01*
X02327997Y01478057D01*
X02315057Y01490997D01*
X02298150Y01498000D01*
X02279850Y01498000D01*
X02262943Y01490997D01*
X02250003Y01478057D01*
X02243000Y01461150D01*
X02243000Y01382850D01*
X02250003Y01365943D01*
X02262943Y01353003D01*
X02279850Y01346000D01*
X02298150Y01346000D01*
X02313642Y01352417D01*
X02326000Y01340059D01*
X02326000Y01309941D01*
X02313642Y01297583D01*
X02298150Y01304000D01*
X02279850Y01304000D01*
X02262943Y01296997D01*
X02250003Y01284057D01*
X02243000Y01267150D01*
X02243000Y01226941D01*
X02140059Y01124000D01*
X02109941Y01124000D01*
X02035000Y01198941D01*
X02035000Y01267150D01*
X02027997Y01284057D01*
X02015057Y01296997D01*
X01998150Y01304000D01*
X01979850Y01304000D01*
X01962943Y01296997D01*
X01950003Y01284057D01*
X01943000Y01267150D01*
X01943000Y01223078D01*
X01936405Y01220346D01*
X01840059Y01124000D01*
X01759941Y01124000D01*
X01724000Y01159941D01*
X01724000Y01167946D01*
X01727997Y01171943D01*
X01735000Y01188850D01*
X01735000Y01267150D01*
X01727997Y01284057D01*
X01715057Y01296997D01*
X01698150Y01304000D01*
X01679850Y01304000D01*
X01662943Y01296997D01*
X01650003Y01284057D01*
X01643000Y01267150D01*
X01643000Y01188850D01*
X01650003Y01171943D01*
X01662943Y01159003D01*
X01671513Y01155453D01*
X01640059Y01124000D01*
X01536141Y01124000D01*
X01536093Y01124117D01*
X01524117Y01136093D01*
X01508469Y01142575D01*
X01491531Y01142575D01*
X01475883Y01136093D01*
X01463907Y01124117D01*
X01457425Y01108469D01*
X01457425Y01091531D01*
X01463907Y01075883D01*
X01475883Y01063907D01*
X01491531Y01057425D01*
X01508469Y01057425D01*
X01524117Y01063907D01*
X01536093Y01075883D01*
X01536141Y01076000D01*
X01654774Y01076000D01*
X01663595Y01079654D01*
X01670346Y01086405D01*
X01700000Y01116059D01*
X01736405Y01079654D01*
X01745226Y01076000D01*
X01854774Y01076000D01*
X01863595Y01079654D01*
X01870346Y01086405D01*
X01952944Y01169003D01*
X01962943Y01159003D01*
X01979850Y01152000D01*
X01998150Y01152000D01*
X02009399Y01156660D01*
X02086405Y01079654D01*
X02095226Y01076000D01*
X02154774Y01076000D01*
X02171841Y01087900D02*
X02389008Y01087900D01*
X02389008Y01103898D02*
X02187839Y01103898D01*
X02203838Y01119897D02*
X02389008Y01119897D01*
X02389008Y01135895D02*
X02219836Y01135895D01*
X02235835Y01151894D02*
X02389008Y01151894D01*
X02389008Y01167892D02*
X02323946Y01167892D01*
X02332946Y01183891D02*
X02389008Y01183891D01*
X02389008Y01199889D02*
X02335000Y01199889D01*
X02335000Y01215888D02*
X02389008Y01215888D01*
X02389008Y01231886D02*
X02335000Y01231886D01*
X02335000Y01247885D02*
X02389008Y01247885D01*
X02389008Y01263883D02*
X02347824Y01263883D01*
X02363595Y01279654D02*
X02363595Y01279654D01*
X02363823Y01279882D02*
X02389008Y01279882D01*
X02389008Y01295880D02*
X02374000Y01295880D01*
X02374000Y01311879D02*
X02389008Y01311879D01*
X02389008Y01327877D02*
X02374000Y01327877D01*
X02374000Y01343876D02*
X02389008Y01343876D01*
X02389008Y01359875D02*
X02371887Y01359875D01*
X02358068Y01375873D02*
X02389008Y01375873D01*
X02389008Y01391872D02*
X02342069Y01391872D01*
X02335000Y01407870D02*
X02389008Y01407870D01*
X02389008Y01423869D02*
X02335000Y01423869D01*
X02335000Y01439867D02*
X02389008Y01439867D01*
X02389008Y01455866D02*
X02335000Y01455866D01*
X02330562Y01471864D02*
X02389008Y01471864D01*
X02389008Y01487863D02*
X02318191Y01487863D01*
X02259809Y01487863D02*
X02140191Y01487863D01*
X02152562Y01471864D02*
X02247438Y01471864D01*
X02243000Y01455866D02*
X02157000Y01455866D01*
X02157000Y01439867D02*
X02243000Y01439867D01*
X02243000Y01423869D02*
X02157000Y01423869D01*
X02157000Y01407870D02*
X02243000Y01407870D01*
X02243000Y01391872D02*
X02157000Y01391872D01*
X02154110Y01375873D02*
X02245890Y01375873D01*
X02256072Y01359875D02*
X02143928Y01359875D01*
X02120150Y01304000D02*
X02101850Y01304000D01*
X02084943Y01296997D01*
X02072003Y01284057D01*
X02065000Y01267150D01*
X02065000Y01188850D01*
X02072003Y01171943D01*
X02084943Y01159003D01*
X02101850Y01152000D01*
X02120150Y01152000D01*
X02137057Y01159003D01*
X02149997Y01171943D01*
X02157000Y01188850D01*
X02157000Y01226000D01*
X02163859Y01226000D01*
X02163907Y01225883D01*
X02175883Y01213907D01*
X02191531Y01207425D01*
X02208469Y01207425D01*
X02224117Y01213907D01*
X02236093Y01225883D01*
X02242575Y01241531D01*
X02242575Y01258469D01*
X02236093Y01274117D01*
X02224117Y01286093D01*
X02208469Y01292575D01*
X02191531Y01292575D01*
X02175883Y01286093D01*
X02163907Y01274117D01*
X02163859Y01274000D01*
X02154163Y01274000D01*
X02149997Y01284057D01*
X02137057Y01296997D01*
X02120150Y01304000D01*
X02138173Y01295880D02*
X02261827Y01295880D01*
X02248274Y01279882D02*
X02230328Y01279882D01*
X02240332Y01263883D02*
X02243000Y01263883D01*
X02243000Y01247885D02*
X02242575Y01247885D01*
X02243000Y01231886D02*
X02238579Y01231886D01*
X02231947Y01215888D02*
X02226098Y01215888D01*
X02215948Y01199889D02*
X02157000Y01199889D01*
X02157000Y01215888D02*
X02173902Y01215888D01*
X02154946Y01183891D02*
X02199950Y01183891D01*
X02183951Y01167892D02*
X02145946Y01167892D01*
X02167953Y01151894D02*
X02082047Y01151894D01*
X02076054Y01167892D02*
X02066049Y01167892D01*
X02067054Y01183891D02*
X02050050Y01183891D01*
X02065000Y01199889D02*
X02035000Y01199889D01*
X02035000Y01215888D02*
X02065000Y01215888D01*
X02065000Y01231886D02*
X02035000Y01231886D01*
X02035000Y01247885D02*
X02065000Y01247885D01*
X02065000Y01263883D02*
X02035000Y01263883D01*
X02029726Y01279882D02*
X02070274Y01279882D01*
X02083827Y01295880D02*
X02016173Y01295880D01*
X01998150Y01346000D02*
X01979850Y01346000D01*
X01962943Y01353003D01*
X01950003Y01365943D01*
X01943000Y01382850D01*
X01943000Y01461150D01*
X01950003Y01478057D01*
X01962943Y01490997D01*
X01979850Y01498000D01*
X01998150Y01498000D01*
X02015057Y01490997D01*
X02027997Y01478057D01*
X02035000Y01461150D01*
X02035000Y01382850D01*
X02027997Y01365943D01*
X02015057Y01353003D01*
X01998150Y01346000D01*
X02021928Y01359875D02*
X02078072Y01359875D01*
X02067890Y01375873D02*
X02032110Y01375873D01*
X02035000Y01391872D02*
X02065000Y01391872D01*
X02065000Y01407870D02*
X02035000Y01407870D01*
X02035000Y01423869D02*
X02065000Y01423869D01*
X02065000Y01439867D02*
X02035000Y01439867D01*
X02035000Y01455866D02*
X02060193Y01455866D01*
X02044195Y01471864D02*
X02030562Y01471864D01*
X02029050Y01487863D02*
X02018191Y01487863D01*
X02026000Y01503861D02*
X01074000Y01503861D01*
X01074000Y01487863D02*
X01181809Y01487863D01*
X01184943Y01490997D02*
X01172003Y01478057D01*
X01165000Y01461150D01*
X01165000Y01382850D01*
X01172003Y01365943D01*
X01184943Y01353003D01*
X01201850Y01346000D01*
X01220150Y01346000D01*
X01237057Y01353003D01*
X01249997Y01365943D01*
X01257000Y01382850D01*
X01257000Y01461150D01*
X01249997Y01478057D01*
X01237057Y01490997D01*
X01220150Y01498000D01*
X01201850Y01498000D01*
X01184943Y01490997D01*
X01169438Y01471864D02*
X01074000Y01471864D01*
X01078075Y01455866D02*
X01165000Y01455866D01*
X01165000Y01439867D02*
X01094074Y01439867D01*
X01110072Y01423869D02*
X01165000Y01423869D01*
X01165000Y01407870D02*
X01126071Y01407870D01*
X01142069Y01391872D02*
X01165000Y01391872D01*
X01167890Y01375873D02*
X01158068Y01375873D01*
X01171887Y01359875D02*
X01178072Y01359875D01*
X01174000Y01343876D02*
X02322183Y01343876D01*
X02326000Y01327877D02*
X01174000Y01327877D01*
X01174000Y01311879D02*
X02326000Y01311879D01*
X02350000Y01300000D02*
X02350000Y01350000D01*
X02300000Y01400000D01*
X02289000Y01422000D01*
X02389008Y01503861D02*
X02080080Y01503861D01*
X02074000Y01519860D02*
X02389008Y01519860D01*
X02389008Y01535858D02*
X02074000Y01535858D01*
X02074000Y01551857D02*
X02389008Y01551857D01*
X02389008Y01567855D02*
X02074000Y01567855D01*
X02074000Y01583854D02*
X02389008Y01583854D01*
X02389008Y01599852D02*
X02074000Y01599852D01*
X02084943Y01609003D02*
X02101850Y01602000D01*
X02120150Y01602000D01*
X02137057Y01609003D01*
X02149997Y01621943D01*
X02157000Y01638850D01*
X02157000Y01717150D01*
X02149997Y01734057D01*
X02137057Y01746997D01*
X02120150Y01754000D01*
X02101850Y01754000D01*
X02084943Y01746997D01*
X02072003Y01734057D01*
X02065000Y01717150D01*
X02065000Y01638850D01*
X02072003Y01621943D01*
X02084943Y01609003D01*
X02078095Y01615851D02*
X02068090Y01615851D01*
X02067900Y01631849D02*
X02052092Y01631849D01*
X02065000Y01647848D02*
X02036093Y01647848D01*
X02035000Y01663846D02*
X02065000Y01663846D01*
X02065000Y01679845D02*
X02035000Y01679845D01*
X02035000Y01695844D02*
X02065000Y01695844D01*
X02065000Y01711842D02*
X02035000Y01711842D01*
X02030572Y01727841D02*
X02069428Y01727841D01*
X02081785Y01743839D02*
X02027780Y01743839D01*
X02043779Y01759838D02*
X02389008Y01759838D01*
X02389008Y01775836D02*
X02059777Y01775836D01*
X02072595Y01791835D02*
X02389008Y01791835D01*
X02389008Y01807833D02*
X02319887Y01807833D01*
X02315057Y01803003D02*
X02327997Y01815943D01*
X02335000Y01832850D01*
X02335000Y01911150D01*
X02327997Y01928057D01*
X02315057Y01940997D01*
X02298150Y01948000D01*
X02279850Y01948000D01*
X02262943Y01940997D01*
X02250003Y01928057D01*
X02243000Y01911150D01*
X02243000Y01832850D01*
X02250003Y01815943D01*
X02262943Y01803003D01*
X02279850Y01796000D01*
X02298150Y01796000D01*
X02315057Y01803003D01*
X02331264Y01823832D02*
X02389008Y01823832D01*
X02389008Y01839830D02*
X02335000Y01839830D01*
X02335000Y01855829D02*
X02389008Y01855829D01*
X02389008Y01871827D02*
X02335000Y01871827D01*
X02335000Y01887826D02*
X02389008Y01887826D01*
X02389008Y01903824D02*
X02335000Y01903824D01*
X02331407Y01919823D02*
X02389008Y01919823D01*
X02389008Y01935821D02*
X02320232Y01935821D01*
X02257768Y01935821D02*
X02142232Y01935821D01*
X02137057Y01940997D02*
X02120150Y01948000D01*
X02101850Y01948000D01*
X02084943Y01940997D01*
X02072003Y01928057D01*
X02065000Y01911150D01*
X02065000Y01832850D01*
X02072003Y01815943D01*
X02084943Y01803003D01*
X02101850Y01796000D01*
X02120150Y01796000D01*
X02137057Y01803003D01*
X02149997Y01815943D01*
X02157000Y01832850D01*
X02157000Y01911150D01*
X02149997Y01928057D01*
X02137057Y01940997D01*
X02153407Y01919823D02*
X02246593Y01919823D01*
X02243000Y01903824D02*
X02157000Y01903824D01*
X02157000Y01887826D02*
X02243000Y01887826D01*
X02243000Y01871827D02*
X02157000Y01871827D01*
X02157000Y01855829D02*
X02243000Y01855829D01*
X02243000Y01839830D02*
X02157000Y01839830D01*
X02153264Y01823832D02*
X02246735Y01823832D01*
X02258113Y01807833D02*
X02141887Y01807833D01*
X02080113Y01807833D02*
X02072733Y01807833D01*
X02068735Y01823832D02*
X02060109Y01823832D01*
X02065000Y01839830D02*
X02044111Y01839830D01*
X02035000Y01855829D02*
X02065000Y01855829D01*
X02065000Y01871827D02*
X02035000Y01871827D01*
X02035000Y01887826D02*
X02065000Y01887826D01*
X02065000Y01903824D02*
X02037765Y01903824D01*
X02053764Y01919823D02*
X02068593Y01919823D01*
X02069762Y01935821D02*
X02079768Y01935821D01*
X02074000Y01951820D02*
X02389008Y01951820D01*
X02389008Y01967818D02*
X02128028Y01967818D01*
X02150000Y02000000D02*
X02100000Y02000000D01*
X02050000Y02000000D02*
X02050000Y01950000D01*
X02000000Y01900000D01*
X01989000Y01872000D01*
X02000000Y01850000D01*
X02050000Y01800000D01*
X02000000Y01750000D01*
X02000000Y01700000D01*
X01989000Y01678000D01*
X02000000Y01650000D01*
X02050000Y01600000D01*
X02050000Y01500000D01*
X02100000Y01450000D01*
X02111000Y01422000D01*
X02026000Y01519860D02*
X01430070Y01519860D01*
X01440225Y01535858D02*
X01630201Y01535858D01*
X01614202Y01551857D02*
X01442575Y01551857D01*
X01438687Y01567855D02*
X01598203Y01567855D01*
X01582205Y01583854D02*
X01426356Y01583854D01*
X01421905Y01615851D02*
X01478095Y01615851D01*
X01467900Y01631849D02*
X01432100Y01631849D01*
X01435000Y01647848D02*
X01465000Y01647848D01*
X01465000Y01663846D02*
X01435000Y01663846D01*
X01435000Y01679845D02*
X01465000Y01679845D01*
X01465000Y01695844D02*
X01435000Y01695844D01*
X01445783Y01711842D02*
X01465000Y01711842D01*
X01461782Y01727841D02*
X01469428Y01727841D01*
X01473425Y01743839D02*
X01481785Y01743839D01*
X01474000Y01759838D02*
X01528098Y01759838D01*
X01541895Y01775836D02*
X01474000Y01775836D01*
X01474000Y01791835D02*
X01557894Y01791835D01*
X01573892Y01807833D02*
X01541887Y01807833D01*
X01537057Y01803003D02*
X01520150Y01796000D01*
X01501850Y01796000D01*
X01484943Y01803003D01*
X01472003Y01815943D01*
X01465000Y01832850D01*
X01465000Y01911150D01*
X01472003Y01928057D01*
X01484943Y01940997D01*
X01501850Y01948000D01*
X01520150Y01948000D01*
X01537057Y01940997D01*
X01549997Y01928057D01*
X01557000Y01911150D01*
X01557000Y01832850D01*
X01549997Y01815943D01*
X01537057Y01803003D01*
X01553264Y01823832D02*
X01576000Y01823832D01*
X01576000Y01839830D02*
X01557000Y01839830D01*
X01557000Y01855829D02*
X01576000Y01855829D01*
X01576000Y01871827D02*
X01557000Y01871827D01*
X01557000Y01887826D02*
X01576000Y01887826D01*
X01576000Y01903824D02*
X01557000Y01903824D01*
X01553407Y01919823D02*
X01576000Y01919823D01*
X01576000Y01935821D02*
X01542232Y01935821D01*
X01564239Y01951820D02*
X01485761Y01951820D01*
X01479768Y01935821D02*
X01469762Y01935821D01*
X01468593Y01919823D02*
X01453764Y01919823D01*
X01465000Y01903824D02*
X01437765Y01903824D01*
X01435000Y01887826D02*
X01465000Y01887826D01*
X01465000Y01871827D02*
X01435000Y01871827D01*
X01435000Y01855829D02*
X01465000Y01855829D01*
X01465000Y01839830D02*
X01444111Y01839830D01*
X01460109Y01823832D02*
X01468735Y01823832D01*
X01472733Y01807833D02*
X01480113Y01807833D01*
X01450000Y01800000D02*
X01450000Y01750000D01*
X01400000Y01700000D01*
X01389000Y01678000D01*
X01343000Y01679845D02*
X01313786Y01679845D01*
X01324000Y01695844D02*
X01343000Y01695844D01*
X01343000Y01711842D02*
X01324000Y01711842D01*
X01324000Y01727841D02*
X01347428Y01727841D01*
X01359785Y01743839D02*
X01324000Y01743839D01*
X01324000Y01759838D02*
X01425897Y01759838D01*
X01426000Y01775836D02*
X01324000Y01775836D01*
X01324000Y01791835D02*
X01424224Y01791835D01*
X01450000Y01800000D02*
X01400000Y01850000D01*
X01389000Y01872000D01*
X01400000Y01900000D01*
X01500000Y02000000D01*
X01450000Y02050000D01*
X01492575Y02047811D02*
X01726000Y02047811D01*
X01726000Y02063810D02*
X01719863Y02063810D01*
X01726000Y02031813D02*
X01502128Y02031813D01*
X01500000Y02000000D02*
X01550000Y02000000D01*
X01600000Y01950000D01*
X01650000Y02000000D01*
X01750000Y02000000D01*
X01750000Y02200000D01*
X01707425Y02207796D02*
X01342575Y02207796D01*
X01342575Y02191798D02*
X01357744Y02191798D01*
X01346583Y02175799D02*
X01336009Y02175799D01*
X01343000Y02159801D02*
X01324000Y02159801D01*
X01324000Y02143802D02*
X01343000Y02143802D01*
X01343000Y02127804D02*
X01324000Y02127804D01*
X01324000Y02111805D02*
X01343000Y02111805D01*
X01343000Y02095807D02*
X01324000Y02095807D01*
X01324000Y02079808D02*
X01346745Y02079808D01*
X01358137Y02063810D02*
X01324000Y02063810D01*
X01324000Y02047811D02*
X01407425Y02047811D01*
X01411451Y02031813D02*
X01324000Y02031813D01*
X01324000Y02015814D02*
X01423976Y02015814D01*
X01449876Y01983817D02*
X01324000Y01983817D01*
X01324000Y01999815D02*
X01465875Y01999815D01*
X01433877Y01967818D02*
X01324000Y01967818D01*
X01324000Y01951820D02*
X01417879Y01951820D01*
X01357768Y01935821D02*
X01324000Y01935821D01*
X01324000Y01919823D02*
X01346593Y01919823D01*
X01343000Y01903824D02*
X01324000Y01903824D01*
X01324000Y01887826D02*
X01343000Y01887826D01*
X01343000Y01871827D02*
X01324000Y01871827D01*
X01324000Y01855829D02*
X01343000Y01855829D01*
X01343000Y01839830D02*
X01324000Y01839830D01*
X01324000Y01823832D02*
X01346735Y01823832D01*
X01358113Y01807833D02*
X01324000Y01807833D01*
X01276000Y01807833D02*
X01241887Y01807833D01*
X01253264Y01823832D02*
X01276000Y01823832D01*
X01276000Y01839830D02*
X01257000Y01839830D01*
X01257000Y01855829D02*
X01276000Y01855829D01*
X01276000Y01871827D02*
X01257000Y01871827D01*
X01257000Y01887826D02*
X01276000Y01887826D01*
X01276000Y01903824D02*
X01257000Y01903824D01*
X01253407Y01919823D02*
X01276000Y01919823D01*
X01276000Y01935821D02*
X01242232Y01935821D01*
X01200000Y01900000D02*
X01211000Y01872000D01*
X01200000Y01900000D02*
X01100000Y02000000D01*
X01100000Y02150000D01*
X01200000Y02250000D01*
X02000000Y02250000D01*
X02050000Y02200000D01*
X02050000Y02250000D02*
X02150000Y02250000D01*
X02200000Y02200000D01*
X02200000Y02050000D01*
X02150000Y02000000D01*
X02167758Y01983817D02*
X02389008Y01983817D01*
X02389008Y01999815D02*
X02183757Y01999815D01*
X02199755Y02015814D02*
X02389008Y02015814D01*
X02389008Y02031813D02*
X02215754Y02031813D01*
X02224000Y02047811D02*
X02389008Y02047811D01*
X02389008Y02063810D02*
X02319863Y02063810D01*
X02315057Y02059003D02*
X02327997Y02071943D01*
X02335000Y02088850D01*
X02335000Y02167150D01*
X02327997Y02184057D01*
X02315057Y02196997D01*
X02298150Y02204000D01*
X02279850Y02204000D01*
X02262943Y02196997D01*
X02250003Y02184057D01*
X02243000Y02167150D01*
X02243000Y02088850D01*
X02250003Y02071943D01*
X02262943Y02059003D01*
X02279850Y02052000D01*
X02298150Y02052000D01*
X02315057Y02059003D01*
X02331255Y02079808D02*
X02389008Y02079808D01*
X02389008Y02095807D02*
X02335000Y02095807D01*
X02335000Y02111805D02*
X02389008Y02111805D01*
X02389008Y02127804D02*
X02335000Y02127804D01*
X02335000Y02143802D02*
X02389008Y02143802D01*
X02389008Y02159801D02*
X02335000Y02159801D01*
X02331417Y02175799D02*
X02389008Y02175799D01*
X02389008Y02191798D02*
X02320256Y02191798D01*
X02257744Y02191798D02*
X02224000Y02191798D01*
X02224000Y02175799D02*
X02246583Y02175799D01*
X02243000Y02159801D02*
X02224000Y02159801D01*
X02224000Y02143802D02*
X02243000Y02143802D01*
X02243000Y02127804D02*
X02224000Y02127804D01*
X02224000Y02111805D02*
X02243000Y02111805D01*
X02243000Y02095807D02*
X02224000Y02095807D01*
X02224000Y02079808D02*
X02246745Y02079808D01*
X02258137Y02063810D02*
X02224000Y02063810D01*
X02100000Y02100000D02*
X02111000Y02128000D01*
X02100000Y02100000D02*
X02050000Y02050000D01*
X02050000Y02000000D01*
X01750000Y02000000D01*
X01715057Y01940997D02*
X01698150Y01948000D01*
X01679850Y01948000D01*
X01662943Y01940997D01*
X01650003Y01928057D01*
X01643000Y01911150D01*
X01643000Y01832850D01*
X01650003Y01815943D01*
X01662943Y01803003D01*
X01679850Y01796000D01*
X01698150Y01796000D01*
X01715057Y01803003D01*
X01727997Y01815943D01*
X01735000Y01832850D01*
X01735000Y01911150D01*
X01727997Y01928057D01*
X01715057Y01940997D01*
X01720232Y01935821D02*
X01779768Y01935821D01*
X01784943Y01940997D02*
X01772003Y01928057D01*
X01765000Y01911150D01*
X01765000Y01832850D01*
X01772003Y01815943D01*
X01784943Y01803003D01*
X01801850Y01796000D01*
X01820150Y01796000D01*
X01837057Y01803003D01*
X01849997Y01815943D01*
X01857000Y01832850D01*
X01857000Y01911150D01*
X01849997Y01928057D01*
X01837057Y01940997D01*
X01820150Y01948000D01*
X01801850Y01948000D01*
X01784943Y01940997D01*
X01768593Y01919823D02*
X01731407Y01919823D01*
X01735000Y01903824D02*
X01765000Y01903824D01*
X01765000Y01887826D02*
X01735000Y01887826D01*
X01735000Y01871827D02*
X01765000Y01871827D01*
X01765000Y01855829D02*
X01735000Y01855829D01*
X01735000Y01839830D02*
X01765000Y01839830D01*
X01768735Y01823832D02*
X01731264Y01823832D01*
X01719887Y01807833D02*
X01780113Y01807833D01*
X01841887Y01807833D02*
X01958113Y01807833D01*
X01946735Y01823832D02*
X01853264Y01823832D01*
X01857000Y01839830D02*
X01943000Y01839830D01*
X01943000Y01855829D02*
X01857000Y01855829D01*
X01857000Y01871827D02*
X01943000Y01871827D01*
X01943000Y01887826D02*
X01857000Y01887826D01*
X01857000Y01903824D02*
X01943000Y01903824D01*
X01946593Y01919823D02*
X01853407Y01919823D01*
X01842232Y01935821D02*
X01957768Y01935821D01*
X02017879Y01951820D02*
X01635761Y01951820D01*
X01624000Y01935821D02*
X01657768Y01935821D01*
X01646593Y01919823D02*
X01624000Y01919823D01*
X01624000Y01903824D02*
X01643000Y01903824D01*
X01643000Y01887826D02*
X01624000Y01887826D01*
X01624000Y01871827D02*
X01643000Y01871827D01*
X01643000Y01855829D02*
X01624000Y01855829D01*
X01624000Y01839830D02*
X01643000Y01839830D01*
X01646735Y01823832D02*
X01624000Y01823832D01*
X01624000Y01807833D02*
X01658113Y01807833D01*
X01622595Y01791835D02*
X02007894Y01791835D01*
X01991895Y01775836D02*
X01609777Y01775836D01*
X01593779Y01759838D02*
X01978098Y01759838D01*
X01959785Y01743839D02*
X01840215Y01743839D01*
X01852572Y01727841D02*
X01947428Y01727841D01*
X01943000Y01711842D02*
X01857000Y01711842D01*
X01857000Y01695844D02*
X01943000Y01695844D01*
X01943000Y01679845D02*
X01857000Y01679845D01*
X01857000Y01663846D02*
X01943000Y01663846D01*
X01943000Y01647848D02*
X01857000Y01647848D01*
X01854100Y01631849D02*
X01945900Y01631849D01*
X01956095Y01615851D02*
X01843905Y01615851D01*
X01800000Y01650000D02*
X01811000Y01678000D01*
X01800000Y01650000D02*
X01700000Y01550000D01*
X01650000Y01550000D01*
X01500000Y01700000D01*
X01511000Y01678000D01*
X01557000Y01679845D02*
X01586214Y01679845D01*
X01602212Y01663846D02*
X01570094Y01663846D01*
X01586093Y01647848D02*
X01618211Y01647848D01*
X01629654Y01636405D02*
X01629654Y01636405D01*
X01634209Y01631849D02*
X01602092Y01631849D01*
X01618090Y01615851D02*
X01656095Y01615851D01*
X01634089Y01599852D02*
X01715911Y01599852D01*
X01721905Y01615851D02*
X01731910Y01615851D01*
X01732100Y01631849D02*
X01747908Y01631849D01*
X01735000Y01647848D02*
X01763907Y01647848D01*
X01765000Y01663846D02*
X01735000Y01663846D01*
X01735000Y01679845D02*
X01765000Y01679845D01*
X01765000Y01695844D02*
X01735000Y01695844D01*
X01735000Y01711842D02*
X01765000Y01711842D01*
X01769428Y01727841D02*
X01730572Y01727841D01*
X01718215Y01743839D02*
X01781785Y01743839D01*
X01689000Y01678000D02*
X01700000Y01650000D01*
X01650000Y01650000D01*
X01550000Y01750000D01*
X01600000Y01800000D01*
X01600000Y01950000D01*
X01584125Y01999815D02*
X01615874Y01999815D01*
X01631873Y02015814D02*
X01568127Y02015814D01*
X01548240Y01967818D02*
X01501759Y01967818D01*
X01541863Y02063810D02*
X01658137Y02063810D01*
X01646745Y02079808D02*
X01553255Y02079808D01*
X01557000Y02095807D02*
X01643000Y02095807D01*
X01643000Y02111805D02*
X01557000Y02111805D01*
X01557000Y02127804D02*
X01643000Y02127804D01*
X01643000Y02143802D02*
X01557000Y02143802D01*
X01557000Y02159801D02*
X01643000Y02159801D01*
X01646583Y02175799D02*
X01553417Y02175799D01*
X01542256Y02191798D02*
X01657744Y02191798D01*
X01713774Y02223795D02*
X01336226Y02223795D01*
X01300000Y02200000D02*
X01300000Y01700000D01*
X01250000Y01650000D01*
X01350000Y01550000D01*
X01400000Y01550000D01*
X01369930Y01519860D02*
X01074000Y01519860D01*
X01074000Y01535858D02*
X01330201Y01535858D01*
X01314202Y01551857D02*
X01074000Y01551857D01*
X01074000Y01567855D02*
X01298203Y01567855D01*
X01282205Y01583854D02*
X01074000Y01583854D01*
X01074000Y01599852D02*
X01266206Y01599852D01*
X01250208Y01615851D02*
X01243905Y01615851D01*
X01250000Y01650000D02*
X01200000Y01650000D01*
X01211000Y01678000D01*
X01165000Y01679845D02*
X01074000Y01679845D01*
X01074000Y01695844D02*
X01165000Y01695844D01*
X01165000Y01711842D02*
X01074000Y01711842D01*
X01074000Y01727841D02*
X01169428Y01727841D01*
X01181785Y01743839D02*
X01074000Y01743839D01*
X01074000Y01759838D02*
X01276000Y01759838D01*
X01276000Y01775836D02*
X01074000Y01775836D01*
X01074000Y01791835D02*
X01276000Y01791835D01*
X01276000Y01743839D02*
X01240215Y01743839D01*
X01252572Y01727841D02*
X01276000Y01727841D01*
X01276000Y01711842D02*
X01257000Y01711842D01*
X01257000Y01695844D02*
X01261903Y01695844D01*
X01286093Y01647848D02*
X01343000Y01647848D01*
X01343000Y01663846D02*
X01297788Y01663846D01*
X01302092Y01631849D02*
X01345900Y01631849D01*
X01356095Y01615851D02*
X01318090Y01615851D01*
X01334089Y01599852D02*
X01566206Y01599852D01*
X01550208Y01615851D02*
X01543905Y01615851D01*
X01557000Y01695844D02*
X01570215Y01695844D01*
X01606100Y01727841D02*
X01647428Y01727841D01*
X01643000Y01711842D02*
X01622099Y01711842D01*
X01638097Y01695844D02*
X01643000Y01695844D01*
X01659785Y01743839D02*
X01590102Y01743839D01*
X01650087Y01583854D02*
X01699913Y01583854D01*
X01735798Y01551857D02*
X02026000Y01551857D01*
X02026000Y01567855D02*
X01751796Y01567855D01*
X01767795Y01583854D02*
X02026000Y01583854D01*
X02016206Y01599852D02*
X01783793Y01599852D01*
X01719799Y01535858D02*
X02026000Y01535858D01*
X01959809Y01487863D02*
X01840191Y01487863D01*
X01837057Y01490997D02*
X01820150Y01498000D01*
X01801850Y01498000D01*
X01784943Y01490997D01*
X01772003Y01478057D01*
X01765000Y01461150D01*
X01765000Y01382850D01*
X01772003Y01365943D01*
X01784943Y01353003D01*
X01801850Y01346000D01*
X01820150Y01346000D01*
X01837057Y01353003D01*
X01849997Y01365943D01*
X01857000Y01382850D01*
X01857000Y01461150D01*
X01849997Y01478057D01*
X01837057Y01490997D01*
X01852562Y01471864D02*
X01947438Y01471864D01*
X01943000Y01455866D02*
X01857000Y01455866D01*
X01857000Y01439867D02*
X01943000Y01439867D01*
X01943000Y01423869D02*
X01857000Y01423869D01*
X01857000Y01407870D02*
X01943000Y01407870D01*
X01943000Y01391872D02*
X01857000Y01391872D01*
X01854110Y01375873D02*
X01945890Y01375873D01*
X01956072Y01359875D02*
X01843928Y01359875D01*
X01820150Y01304000D02*
X01801850Y01304000D01*
X01784943Y01296997D01*
X01772003Y01284057D01*
X01765000Y01267150D01*
X01765000Y01188850D01*
X01772003Y01171943D01*
X01784943Y01159003D01*
X01801850Y01152000D01*
X01820150Y01152000D01*
X01837057Y01159003D01*
X01849997Y01171943D01*
X01857000Y01188850D01*
X01857000Y01267150D01*
X01849997Y01284057D01*
X01837057Y01296997D01*
X01820150Y01304000D01*
X01838173Y01295880D02*
X01961827Y01295880D01*
X01948274Y01279882D02*
X01851726Y01279882D01*
X01857000Y01263883D02*
X01943000Y01263883D01*
X01943000Y01247885D02*
X01857000Y01247885D01*
X01857000Y01231886D02*
X01943000Y01231886D01*
X01931947Y01215888D02*
X01857000Y01215888D01*
X01857000Y01199889D02*
X01915948Y01199889D01*
X01899950Y01183891D02*
X01854946Y01183891D01*
X01845946Y01167892D02*
X01883951Y01167892D01*
X01867953Y01151894D02*
X01732047Y01151894D01*
X01724000Y01167892D02*
X01776054Y01167892D01*
X01767054Y01183891D02*
X01732946Y01183891D01*
X01735000Y01199889D02*
X01765000Y01199889D01*
X01765000Y01215888D02*
X01735000Y01215888D01*
X01735000Y01231886D02*
X01765000Y01231886D01*
X01765000Y01247885D02*
X01735000Y01247885D01*
X01735000Y01263883D02*
X01765000Y01263883D01*
X01770274Y01279882D02*
X01729726Y01279882D01*
X01716173Y01295880D02*
X01783827Y01295880D01*
X01778072Y01359875D02*
X01721928Y01359875D01*
X01727997Y01365943D02*
X01735000Y01382850D01*
X01735000Y01461150D01*
X01727997Y01478057D01*
X01715057Y01490997D01*
X01698150Y01498000D01*
X01679850Y01498000D01*
X01662943Y01490997D01*
X01650003Y01478057D01*
X01643000Y01461150D01*
X01643000Y01382850D01*
X01650003Y01365943D01*
X01662943Y01353003D01*
X01679850Y01346000D01*
X01698150Y01346000D01*
X01715057Y01353003D01*
X01727997Y01365943D01*
X01732110Y01375873D02*
X01767890Y01375873D01*
X01765000Y01391872D02*
X01735000Y01391872D01*
X01735000Y01407870D02*
X01765000Y01407870D01*
X01765000Y01423869D02*
X01735000Y01423869D01*
X01735000Y01439867D02*
X01765000Y01439867D01*
X01765000Y01455866D02*
X01735000Y01455866D01*
X01730562Y01471864D02*
X01769438Y01471864D01*
X01781809Y01487863D02*
X01718191Y01487863D01*
X01659809Y01487863D02*
X01540191Y01487863D01*
X01537057Y01490997D02*
X01520150Y01498000D01*
X01501850Y01498000D01*
X01484943Y01490997D01*
X01472003Y01478057D01*
X01465000Y01461150D01*
X01465000Y01382850D01*
X01472003Y01365943D01*
X01484943Y01353003D01*
X01501850Y01346000D01*
X01520150Y01346000D01*
X01537057Y01353003D01*
X01549997Y01365943D01*
X01557000Y01382850D01*
X01557000Y01461150D01*
X01549997Y01478057D01*
X01537057Y01490997D01*
X01552562Y01471864D02*
X01647438Y01471864D01*
X01643000Y01455866D02*
X01557000Y01455866D01*
X01557000Y01439867D02*
X01643000Y01439867D01*
X01643000Y01423869D02*
X01557000Y01423869D01*
X01557000Y01407870D02*
X01643000Y01407870D01*
X01643000Y01391872D02*
X01557000Y01391872D01*
X01554110Y01375873D02*
X01645890Y01375873D01*
X01656072Y01359875D02*
X01543928Y01359875D01*
X01478072Y01359875D02*
X01421928Y01359875D01*
X01427997Y01365943D02*
X01435000Y01382850D01*
X01435000Y01461150D01*
X01427997Y01478057D01*
X01415057Y01490997D01*
X01398150Y01498000D01*
X01379850Y01498000D01*
X01362943Y01490997D01*
X01350003Y01478057D01*
X01343000Y01461150D01*
X01343000Y01382850D01*
X01350003Y01365943D01*
X01362943Y01353003D01*
X01379850Y01346000D01*
X01398150Y01346000D01*
X01415057Y01353003D01*
X01427997Y01365943D01*
X01432110Y01375873D02*
X01467890Y01375873D01*
X01465000Y01391872D02*
X01435000Y01391872D01*
X01435000Y01407870D02*
X01465000Y01407870D01*
X01465000Y01423869D02*
X01435000Y01423869D01*
X01435000Y01439867D02*
X01465000Y01439867D01*
X01465000Y01455866D02*
X01435000Y01455866D01*
X01430562Y01471864D02*
X01469438Y01471864D01*
X01481809Y01487863D02*
X01418191Y01487863D01*
X01359809Y01487863D02*
X01240191Y01487863D01*
X01252562Y01471864D02*
X01347438Y01471864D01*
X01343000Y01455866D02*
X01257000Y01455866D01*
X01257000Y01439867D02*
X01343000Y01439867D01*
X01343000Y01423869D02*
X01257000Y01423869D01*
X01257000Y01407870D02*
X01343000Y01407870D01*
X01343000Y01391872D02*
X01257000Y01391872D01*
X01254110Y01375873D02*
X01345890Y01375873D01*
X01356072Y01359875D02*
X01243928Y01359875D01*
X01238173Y01295880D02*
X01361827Y01295880D01*
X01362943Y01296997D02*
X01350003Y01284057D01*
X01343000Y01267150D01*
X01343000Y01188850D01*
X01350003Y01171943D01*
X01362943Y01159003D01*
X01379850Y01152000D01*
X01398150Y01152000D01*
X01415057Y01159003D01*
X01427997Y01171943D01*
X01435000Y01188850D01*
X01435000Y01267150D01*
X01427997Y01284057D01*
X01415057Y01296997D01*
X01398150Y01304000D01*
X01379850Y01304000D01*
X01362943Y01296997D01*
X01348274Y01279882D02*
X01251726Y01279882D01*
X01270058Y01263883D02*
X01343000Y01263883D01*
X01343000Y01247885D02*
X01286056Y01247885D01*
X01302055Y01231886D02*
X01343000Y01231886D01*
X01343000Y01215888D02*
X01318053Y01215888D01*
X01324000Y01199889D02*
X01343000Y01199889D01*
X01345054Y01183891D02*
X01324000Y01183891D01*
X01324000Y01167892D02*
X01354054Y01167892D01*
X01332047Y01151894D02*
X01417953Y01151894D01*
X01423946Y01167892D02*
X01433951Y01167892D01*
X01432946Y01183891D02*
X01449950Y01183891D01*
X01435000Y01199889D02*
X01465000Y01199889D01*
X01465000Y01215888D02*
X01435000Y01215888D01*
X01435000Y01231886D02*
X01465000Y01231886D01*
X01465000Y01247885D02*
X01435000Y01247885D01*
X01435000Y01263883D02*
X01465000Y01263883D01*
X01470274Y01279882D02*
X01429726Y01279882D01*
X01416173Y01295880D02*
X01483827Y01295880D01*
X01538173Y01295880D02*
X01661827Y01295880D01*
X01648274Y01279882D02*
X01551726Y01279882D01*
X01557000Y01263883D02*
X01643000Y01263883D01*
X01643000Y01247885D02*
X01557000Y01247885D01*
X01557000Y01231886D02*
X01643000Y01231886D01*
X01643000Y01215888D02*
X01557000Y01215888D01*
X01557000Y01199889D02*
X01643000Y01199889D01*
X01645054Y01183891D02*
X01554946Y01183891D01*
X01545946Y01167892D02*
X01654054Y01167892D01*
X01667953Y01151894D02*
X01485835Y01151894D01*
X01475685Y01135895D02*
X01469836Y01135895D01*
X01462159Y01119897D02*
X01453838Y01119897D01*
X01457425Y01103898D02*
X01437839Y01103898D01*
X01421841Y01087900D02*
X01458929Y01087900D01*
X01467889Y01071901D02*
X01355842Y01071901D01*
X01339844Y01055903D02*
X02389008Y01055903D01*
X02389008Y01071901D02*
X01532111Y01071901D01*
X01520150Y01048000D02*
X01501850Y01048000D01*
X01484943Y01040997D01*
X01472003Y01028057D01*
X01465000Y01011150D01*
X01465000Y00932850D01*
X01472003Y00915943D01*
X01484943Y00903003D01*
X01492193Y00900000D01*
X01484943Y00896997D01*
X01472003Y00884057D01*
X01465000Y00867150D01*
X01465000Y00788850D01*
X01472003Y00771943D01*
X01484943Y00759003D01*
X01501850Y00752000D01*
X01520150Y00752000D01*
X01537057Y00759003D01*
X01549997Y00771943D01*
X01557000Y00788850D01*
X01557000Y00867150D01*
X01549997Y00884057D01*
X01537057Y00896997D01*
X01529806Y00900000D01*
X01537057Y00903003D01*
X01549997Y00915943D01*
X01557000Y00932850D01*
X01557000Y01011150D01*
X01549997Y01028057D01*
X01537057Y01040997D01*
X01520150Y01048000D01*
X01538150Y01039904D02*
X01661850Y01039904D01*
X01662943Y01040997D02*
X01650003Y01028057D01*
X01643000Y01011150D01*
X01643000Y00932850D01*
X01650003Y00915943D01*
X01662943Y00903003D01*
X01670193Y00900000D01*
X01662943Y00896997D01*
X01650003Y00884057D01*
X01643000Y00867150D01*
X01643000Y00788850D01*
X01650003Y00771943D01*
X01662943Y00759003D01*
X01679850Y00752000D01*
X01698150Y00752000D01*
X01715057Y00759003D01*
X01727997Y00771943D01*
X01735000Y00788850D01*
X01735000Y00867150D01*
X01727997Y00884057D01*
X01715057Y00896997D01*
X01707806Y00900000D01*
X01715057Y00903003D01*
X01727997Y00915943D01*
X01735000Y00932850D01*
X01735000Y01011150D01*
X01727997Y01028057D01*
X01715057Y01040997D01*
X01698150Y01048000D01*
X01679850Y01048000D01*
X01662943Y01040997D01*
X01648284Y01023906D02*
X01551716Y01023906D01*
X01557000Y01007907D02*
X01643000Y01007907D01*
X01643000Y00991908D02*
X01557000Y00991908D01*
X01557000Y00975910D02*
X01643000Y00975910D01*
X01643000Y00959911D02*
X01557000Y00959911D01*
X01557000Y00943913D02*
X01643000Y00943913D01*
X01645044Y00927914D02*
X01554955Y00927914D01*
X01545970Y00911916D02*
X01654030Y00911916D01*
X01661864Y00895917D02*
X01538136Y00895917D01*
X01551711Y00879919D02*
X01648289Y00879919D01*
X01643000Y00863920D02*
X01557000Y00863920D01*
X01557000Y00847922D02*
X01643000Y00847922D01*
X01643000Y00831923D02*
X01557000Y00831923D01*
X01557000Y00815925D02*
X01643000Y00815925D01*
X01643000Y00799926D02*
X01557000Y00799926D01*
X01554961Y00783928D02*
X01645039Y00783928D01*
X01654017Y00767929D02*
X01545983Y00767929D01*
X01564007Y00719934D02*
X01785993Y00719934D01*
X01769994Y00703935D02*
X01580006Y00703935D01*
X01596004Y00687937D02*
X01753996Y00687937D01*
X01737997Y00671938D02*
X01612003Y00671938D01*
X01628001Y00655939D02*
X01721999Y00655939D01*
X01757883Y00623942D02*
X01770299Y00623942D01*
X01772003Y00628057D02*
X01765000Y00611150D01*
X01765000Y00532850D01*
X01772003Y00515943D01*
X01784943Y00503003D01*
X01801850Y00496000D01*
X01820150Y00496000D01*
X01837057Y00503003D01*
X01849997Y00515943D01*
X01850032Y00516027D01*
X01929654Y00436405D01*
X01936405Y00429654D01*
X01945226Y00426000D01*
X02004774Y00426000D01*
X02013595Y00429654D01*
X02020346Y00436405D01*
X02086358Y00502417D01*
X02101850Y00496000D01*
X02120150Y00496000D01*
X02137057Y00503003D01*
X02149997Y00515943D01*
X02157000Y00532850D01*
X02157000Y00611150D01*
X02149997Y00628057D01*
X02137057Y00640997D01*
X02120150Y00648000D01*
X02101850Y00648000D01*
X02084943Y00640997D01*
X02072003Y00628057D01*
X02065000Y00611150D01*
X02065000Y00548941D01*
X01990059Y00474000D01*
X01959941Y00474000D01*
X01857000Y00576941D01*
X01857000Y00611150D01*
X01849997Y00628057D01*
X01837057Y00640997D01*
X01820150Y00648000D01*
X01801850Y00648000D01*
X01784943Y00640997D01*
X01772003Y00628057D01*
X01773882Y00639941D02*
X01783887Y00639941D01*
X01789881Y00655939D02*
X01860119Y00655939D01*
X01876118Y00639941D02*
X01838113Y00639941D01*
X01851701Y00623942D02*
X01892116Y00623942D01*
X01908115Y00607944D02*
X01857000Y00607944D01*
X01857000Y00591945D02*
X01924113Y00591945D01*
X01940112Y00575947D02*
X01857994Y00575947D01*
X01873992Y00559948D02*
X01943000Y00559948D01*
X01943000Y00543950D02*
X01889991Y00543950D01*
X01905990Y00527951D02*
X01945029Y00527951D01*
X01953993Y00511953D02*
X01921988Y00511953D01*
X01937987Y00495954D02*
X02012013Y00495954D01*
X02024007Y00511953D02*
X02028012Y00511953D01*
X02032971Y00527951D02*
X02044010Y00527951D01*
X02035000Y00543950D02*
X02060009Y00543950D01*
X02065000Y00559948D02*
X02035000Y00559948D01*
X02035000Y00575947D02*
X02065000Y00575947D01*
X02065000Y00591945D02*
X02035000Y00591945D01*
X02041885Y00607944D02*
X02065000Y00607944D01*
X02070299Y00623942D02*
X02057883Y00623942D01*
X02073882Y00639941D02*
X02083887Y00639941D01*
X02089881Y00655939D02*
X02160119Y00655939D01*
X02176118Y00639941D02*
X02138113Y00639941D01*
X02151701Y00623942D02*
X02192116Y00623942D01*
X02208115Y00607944D02*
X02157000Y00607944D01*
X02157000Y00591945D02*
X02224113Y00591945D01*
X02243000Y00575947D02*
X02157000Y00575947D01*
X02157000Y00559948D02*
X02243000Y00559948D01*
X02243000Y00543950D02*
X02157000Y00543950D01*
X02154971Y00527951D02*
X02245029Y00527951D01*
X02253993Y00511953D02*
X02146007Y00511953D01*
X02100000Y00550000D02*
X02111000Y00572000D01*
X02100000Y00550000D02*
X02000000Y00450000D01*
X01950000Y00450000D01*
X01800000Y00600000D01*
X01811000Y00572000D01*
X01765000Y00575947D02*
X01735000Y00575947D01*
X01735000Y00591945D02*
X01765000Y00591945D01*
X01765000Y00607944D02*
X01741885Y00607944D01*
X01735000Y00559948D02*
X01765000Y00559948D01*
X01765000Y00543950D02*
X01735000Y00543950D01*
X01732971Y00527951D02*
X01767029Y00527951D01*
X01775993Y00511953D02*
X01724007Y00511953D01*
X01846007Y00511953D02*
X01854106Y00511953D01*
X01870105Y00495954D02*
X01479895Y00495954D01*
X01463897Y00479956D02*
X01886103Y00479956D01*
X01902102Y00463957D02*
X01447898Y00463957D01*
X01431900Y00447959D02*
X01918100Y00447959D01*
X01929654Y00436405D02*
X01929654Y00436405D01*
X01934099Y00431960D02*
X01415901Y00431960D01*
X01384099Y00431960D02*
X00151981Y00431960D01*
X00167979Y00415962D02*
X02389008Y00415962D01*
X02389008Y00431960D02*
X02015901Y00431960D01*
X02031900Y00447959D02*
X02389008Y00447959D01*
X02389008Y00463957D02*
X02047898Y00463957D01*
X02063897Y00479956D02*
X02389008Y00479956D01*
X02389008Y00495954D02*
X02079895Y00495954D01*
X01996015Y00479956D02*
X01953985Y00479956D01*
X01961887Y00639941D02*
X01944000Y00639941D01*
X01928001Y00655939D02*
X02021999Y00655939D01*
X02037997Y00671938D02*
X01912003Y00671938D01*
X01896004Y00687937D02*
X02053996Y00687937D01*
X02069994Y00703935D02*
X01880006Y00703935D01*
X01864007Y00719934D02*
X02085993Y00719934D01*
X02076017Y00767929D02*
X02023983Y00767929D01*
X02027997Y00771943D02*
X02035000Y00788850D01*
X02035000Y00867150D01*
X02027997Y00884057D01*
X02015057Y00896997D01*
X02007806Y00900000D01*
X02015057Y00903003D01*
X02027997Y00915943D01*
X02035000Y00932850D01*
X02035000Y01011150D01*
X02027997Y01028057D01*
X02015057Y01040997D01*
X01998150Y01048000D01*
X01979850Y01048000D01*
X01962943Y01040997D01*
X01950003Y01028057D01*
X01943000Y01011150D01*
X01943000Y00932850D01*
X01950003Y00915943D01*
X01962943Y00903003D01*
X01970193Y00900000D01*
X01962943Y00896997D01*
X01950003Y00884057D01*
X01943000Y00867150D01*
X01943000Y00788850D01*
X01950003Y00771943D01*
X01962943Y00759003D01*
X01979850Y00752000D01*
X01998150Y00752000D01*
X02015057Y00759003D01*
X02027997Y00771943D01*
X02032961Y00783928D02*
X02067039Y00783928D01*
X02065000Y00799926D02*
X02035000Y00799926D01*
X02035000Y00815925D02*
X02065000Y00815925D01*
X02065000Y00831923D02*
X02035000Y00831923D01*
X02035000Y00847922D02*
X02065000Y00847922D01*
X02065000Y00863920D02*
X02035000Y00863920D01*
X02029711Y00879919D02*
X02070289Y00879919D01*
X02083864Y00895917D02*
X02016136Y00895917D01*
X02023970Y00911916D02*
X02076030Y00911916D01*
X02067044Y00927914D02*
X02032955Y00927914D01*
X02035000Y00943913D02*
X02065000Y00943913D01*
X02065000Y00959911D02*
X02035000Y00959911D01*
X02035000Y00975910D02*
X02065000Y00975910D01*
X02065000Y00991908D02*
X02035000Y00991908D01*
X02035000Y01007907D02*
X02065000Y01007907D01*
X02070284Y01023906D02*
X02029716Y01023906D01*
X02016150Y01039904D02*
X02083850Y01039904D01*
X02078159Y01087900D02*
X01871841Y01087900D01*
X01887839Y01103898D02*
X02062161Y01103898D01*
X02046162Y01119897D02*
X01903838Y01119897D01*
X01919836Y01135895D02*
X02030164Y01135895D01*
X02014165Y01151894D02*
X01935835Y01151894D01*
X01951833Y01167892D02*
X01954054Y01167892D01*
X01950000Y01200000D02*
X01850000Y01100000D01*
X01750000Y01100000D01*
X01700000Y01150000D01*
X01700000Y01200000D01*
X01689000Y01228000D01*
X01700000Y01150000D02*
X01650000Y01100000D01*
X01500000Y01100000D01*
X01524314Y01135895D02*
X01651954Y01135895D01*
X01687839Y01103898D02*
X01712161Y01103898D01*
X01728159Y01087900D02*
X01671841Y01087900D01*
X01716150Y01039904D02*
X01783850Y01039904D01*
X01784943Y01040997D02*
X01772003Y01028057D01*
X01765000Y01011150D01*
X01765000Y00932850D01*
X01772003Y00915943D01*
X01784943Y00903003D01*
X01792193Y00900000D01*
X01784943Y00896997D01*
X01772003Y00884057D01*
X01765000Y00867150D01*
X01765000Y00788850D01*
X01772003Y00771943D01*
X01784943Y00759003D01*
X01801850Y00752000D01*
X01820150Y00752000D01*
X01837057Y00759003D01*
X01849997Y00771943D01*
X01857000Y00788850D01*
X01857000Y00867150D01*
X01849997Y00884057D01*
X01837057Y00896997D01*
X01829806Y00900000D01*
X01837057Y00903003D01*
X01849997Y00915943D01*
X01857000Y00932850D01*
X01857000Y01011150D01*
X01849997Y01028057D01*
X01837057Y01040997D01*
X01820150Y01048000D01*
X01801850Y01048000D01*
X01784943Y01040997D01*
X01770284Y01023906D02*
X01729716Y01023906D01*
X01735000Y01007907D02*
X01765000Y01007907D01*
X01765000Y00991908D02*
X01735000Y00991908D01*
X01735000Y00975910D02*
X01765000Y00975910D01*
X01765000Y00959911D02*
X01735000Y00959911D01*
X01735000Y00943913D02*
X01765000Y00943913D01*
X01767044Y00927914D02*
X01732955Y00927914D01*
X01723970Y00911916D02*
X01776030Y00911916D01*
X01783864Y00895917D02*
X01716136Y00895917D01*
X01729711Y00879919D02*
X01770289Y00879919D01*
X01765000Y00863920D02*
X01735000Y00863920D01*
X01735000Y00847922D02*
X01765000Y00847922D01*
X01765000Y00831923D02*
X01735000Y00831923D01*
X01735000Y00815925D02*
X01765000Y00815925D01*
X01765000Y00799926D02*
X01735000Y00799926D01*
X01732961Y00783928D02*
X01767039Y00783928D01*
X01776017Y00767929D02*
X01723983Y00767929D01*
X01805879Y00671938D02*
X01844121Y00671938D01*
X01845983Y00767929D02*
X01954017Y00767929D01*
X01945039Y00783928D02*
X01854961Y00783928D01*
X01857000Y00799926D02*
X01943000Y00799926D01*
X01943000Y00815925D02*
X01857000Y00815925D01*
X01857000Y00831923D02*
X01943000Y00831923D01*
X01943000Y00847922D02*
X01857000Y00847922D01*
X01857000Y00863920D02*
X01943000Y00863920D01*
X01948289Y00879919D02*
X01851711Y00879919D01*
X01838136Y00895917D02*
X01961864Y00895917D01*
X01954030Y00911916D02*
X01845970Y00911916D01*
X01854955Y00927914D02*
X01945044Y00927914D01*
X01943000Y00943913D02*
X01857000Y00943913D01*
X01857000Y00959911D02*
X01943000Y00959911D01*
X01943000Y00975910D02*
X01857000Y00975910D01*
X01857000Y00991908D02*
X01943000Y00991908D01*
X01943000Y01007907D02*
X01857000Y01007907D01*
X01851716Y01023906D02*
X01948284Y01023906D01*
X01961850Y01039904D02*
X01838150Y01039904D01*
X01851954Y01135895D02*
X01748046Y01135895D01*
X01950000Y01200000D02*
X02000000Y01200000D01*
X01989000Y01228000D01*
X02000000Y01200000D02*
X02100000Y01100000D01*
X02150000Y01100000D01*
X02300000Y01250000D01*
X02289000Y01228000D01*
X02300000Y01250000D02*
X02350000Y01300000D01*
X02254054Y01167892D02*
X02251833Y01167892D01*
X02200000Y01250000D02*
X02100000Y01250000D01*
X02111000Y01228000D01*
X02151726Y01279882D02*
X02169672Y01279882D01*
X02151954Y01135895D02*
X02098046Y01135895D01*
X02316150Y01039904D02*
X02389008Y01039904D01*
X02389008Y01023906D02*
X02329716Y01023906D01*
X02335000Y01007907D02*
X02389008Y01007907D01*
X02389008Y00991908D02*
X02335000Y00991908D01*
X02335000Y00975910D02*
X02389008Y00975910D01*
X02389008Y00959911D02*
X02335000Y00959911D01*
X02335000Y00943913D02*
X02389008Y00943913D01*
X02389008Y00927914D02*
X02332955Y00927914D01*
X02323970Y00911916D02*
X02389008Y00911916D01*
X02389008Y00895917D02*
X02316136Y00895917D01*
X02329711Y00879919D02*
X02389008Y00879919D01*
X02389008Y00863920D02*
X02335000Y00863920D01*
X02335000Y00847922D02*
X02389008Y00847922D01*
X02389008Y00831923D02*
X02335000Y00831923D01*
X02335000Y00815925D02*
X02389008Y00815925D01*
X02389008Y00799926D02*
X02335000Y00799926D01*
X02332961Y00783928D02*
X02389008Y00783928D01*
X02389008Y00767929D02*
X02323983Y00767929D01*
X02389008Y00751931D02*
X00974000Y00751931D01*
X00999003Y00735932D02*
X02389008Y00735932D01*
X02389008Y00559948D02*
X02335000Y00559948D01*
X02335000Y00543950D02*
X02389008Y00543950D01*
X02389008Y00527951D02*
X02332971Y00527951D01*
X02324007Y00511953D02*
X02389008Y00511953D01*
X02389008Y00399963D02*
X00183978Y00399963D01*
X00199976Y00383965D02*
X00380351Y00383965D01*
X00382850Y00385000D02*
X00365943Y00377997D01*
X00353003Y00365057D01*
X00346000Y00348150D01*
X00346000Y00329850D01*
X00353003Y00312943D01*
X00365943Y00300003D01*
X00382850Y00293000D01*
X00461150Y00293000D01*
X00478057Y00300003D01*
X00490997Y00312943D01*
X00498000Y00329850D01*
X00498000Y00348150D01*
X00490997Y00365057D01*
X00478057Y00377997D01*
X00461150Y00385000D01*
X00382850Y00385000D01*
X00355912Y00367966D02*
X00215975Y00367966D01*
X00231973Y00351968D02*
X00347581Y00351968D01*
X00346000Y00335969D02*
X00247972Y00335969D01*
X00263970Y00319970D02*
X00350092Y00319970D01*
X00361974Y00303972D02*
X00279969Y00303972D01*
X00295968Y00287973D02*
X02389008Y00287973D01*
X02389008Y00271975D02*
X00311966Y00271975D01*
X00327965Y00255976D02*
X02389008Y00255976D01*
X02389008Y00239978D02*
X00343963Y00239978D01*
X00359962Y00223979D02*
X02389008Y00223979D01*
X02389008Y00207981D02*
X00375960Y00207981D01*
X00486071Y00191982D02*
X00613929Y00191982D01*
X00609003Y00187057D02*
X00602000Y00170150D01*
X00602000Y00151850D01*
X00609003Y00134943D01*
X00621943Y00122003D01*
X00638850Y00115000D01*
X00717150Y00115000D01*
X00734057Y00122003D01*
X00746997Y00134943D01*
X00754000Y00151850D01*
X00754000Y00170150D01*
X00746997Y00187057D01*
X00734057Y00199997D01*
X00717150Y00207000D01*
X00638850Y00207000D01*
X00621943Y00199997D01*
X00609003Y00187057D01*
X00604416Y00175984D02*
X00495584Y00175984D01*
X00498000Y00159985D02*
X00602000Y00159985D01*
X00605257Y00143987D02*
X00494743Y00143987D01*
X00484042Y00127988D02*
X00615958Y00127988D01*
X00740042Y00127988D02*
X02389008Y00127988D01*
X02389008Y00111990D02*
X00048000Y00111990D01*
X00048000Y00095991D02*
X02389008Y00095991D01*
X02389008Y00079993D02*
X00048000Y00079993D01*
X00048000Y00063994D02*
X02389008Y00063994D01*
X02389008Y00143987D02*
X00750743Y00143987D01*
X00754000Y00159985D02*
X02389008Y00159985D01*
X02389008Y00175984D02*
X00751584Y00175984D01*
X00742071Y00191982D02*
X02389008Y00191982D01*
X02389008Y00303972D02*
X00738026Y00303972D01*
X00734057Y00300003D02*
X00746997Y00312943D01*
X00754000Y00329850D01*
X00754000Y00348150D01*
X00746997Y00365057D01*
X00734057Y00377997D01*
X00717150Y00385000D01*
X00638850Y00385000D01*
X00621943Y00377997D01*
X00609003Y00365057D01*
X00602000Y00348150D01*
X00602000Y00329850D01*
X00609003Y00312943D01*
X00621943Y00300003D01*
X00638850Y00293000D01*
X00717150Y00293000D01*
X00734057Y00300003D01*
X00749908Y00319970D02*
X02389008Y00319970D01*
X02389008Y00335969D02*
X00754000Y00335969D01*
X00752419Y00351968D02*
X02389008Y00351968D01*
X02389008Y00367966D02*
X00744088Y00367966D01*
X00719649Y00383965D02*
X02389008Y00383965D01*
X02144121Y00671938D02*
X02105879Y00671938D01*
X01661887Y00639941D02*
X01644000Y00639941D01*
X01544121Y00671938D02*
X01505879Y00671938D01*
X01465000Y00607944D02*
X01441885Y00607944D01*
X01435000Y00591945D02*
X01465000Y00591945D01*
X01465000Y00575947D02*
X01435000Y00575947D01*
X01435000Y00559948D02*
X01465000Y00559948D01*
X01460009Y00543950D02*
X01435000Y00543950D01*
X01432971Y00527951D02*
X01444010Y00527951D01*
X01428012Y00511953D02*
X01424007Y00511953D01*
X01412013Y00495954D02*
X01387987Y00495954D01*
X01352102Y00463957D02*
X00998736Y00463957D01*
X01013158Y00479956D02*
X01336103Y00479956D01*
X01368100Y00447959D02*
X00135982Y00447959D01*
X00119984Y00463957D02*
X00298751Y00463957D01*
X00300939Y00462368D02*
X00307110Y00459224D01*
X00313697Y00457083D01*
X00320537Y00456000D01*
X00349999Y00456000D01*
X00349999Y00499999D01*
X00350000Y00499999D01*
X00350000Y00456000D01*
X00379463Y00456000D01*
X00386303Y00457083D01*
X00392890Y00459224D01*
X00399061Y00462368D01*
X00404664Y00466439D01*
X00409561Y00471336D01*
X00413632Y00476939D01*
X00416776Y00483110D01*
X00418916Y00489697D01*
X00420000Y00496537D01*
X00420000Y00499999D01*
X00350001Y00499999D01*
X00350001Y00500000D01*
X00420000Y00500000D01*
X00420000Y00503463D01*
X00418916Y00510303D01*
X00416776Y00516890D01*
X00413632Y00523061D01*
X00409561Y00528664D01*
X00404664Y00533561D01*
X00399061Y00537632D01*
X00392890Y00540776D01*
X00386303Y00542916D01*
X00379463Y00544000D01*
X00350000Y00544000D01*
X00350000Y00500001D01*
X00349999Y00500001D01*
X00349999Y00544000D01*
X00320537Y00544000D01*
X00313697Y00542916D01*
X00307110Y00540776D01*
X00300939Y00537632D01*
X00295336Y00533561D01*
X00290439Y00528664D01*
X00286368Y00523061D01*
X00283224Y00516890D01*
X00281083Y00510303D01*
X00280000Y00503463D01*
X00280000Y00500000D01*
X00349999Y00500000D01*
X00349999Y00499999D01*
X00280000Y00499999D01*
X00280000Y00496537D01*
X00281083Y00489697D01*
X00283224Y00483110D01*
X00286368Y00476939D01*
X00290439Y00471336D01*
X00295336Y00466439D01*
X00300939Y00462368D01*
X00284831Y00479956D02*
X00213897Y00479956D01*
X00213595Y00479654D02*
X00299272Y00565331D01*
X00300209Y00564394D01*
X00315646Y00558000D01*
X00384354Y00558000D01*
X00399791Y00564394D01*
X00411606Y00576209D01*
X00418000Y00591646D01*
X00418000Y00608354D01*
X00411606Y00623791D01*
X00399791Y00635606D01*
X00384354Y00642000D01*
X00315646Y00642000D01*
X00300209Y00635606D01*
X00288394Y00623791D01*
X00287084Y00620627D01*
X00286405Y00620346D01*
X00279654Y00613595D01*
X00200000Y00533941D01*
X00197842Y00536099D01*
X00201433Y00544769D01*
X00201433Y00565231D01*
X00193603Y00584134D01*
X00179134Y00598603D01*
X00160231Y00606433D01*
X00139769Y00606433D01*
X00120865Y00598603D01*
X00106397Y00584134D01*
X00098567Y00565231D01*
X00098567Y00544769D01*
X00106397Y00525865D01*
X00120865Y00511397D01*
X00139769Y00503567D01*
X00160231Y00503567D01*
X00161830Y00504229D01*
X00179654Y00486405D01*
X00186405Y00479654D01*
X00195226Y00476000D01*
X00204774Y00476000D01*
X00213595Y00479654D01*
X00229895Y00495954D02*
X00280092Y00495954D01*
X00281619Y00511953D02*
X00245894Y00511953D01*
X00261892Y00527951D02*
X00289921Y00527951D01*
X00277891Y00543950D02*
X00320221Y00543950D01*
X00310942Y00559948D02*
X00293889Y00559948D01*
X00300000Y00600000D02*
X00350000Y00600000D01*
X00389058Y00559948D02*
X00910942Y00559948D01*
X00926000Y00543950D02*
X00379779Y00543950D01*
X00350000Y00543950D02*
X00349999Y00543950D01*
X00349999Y00527951D02*
X00350000Y00527951D01*
X00349999Y00511953D02*
X00350000Y00511953D01*
X00349999Y00495954D02*
X00350000Y00495954D01*
X00349999Y00479956D02*
X00350000Y00479956D01*
X00349999Y00463957D02*
X00350000Y00463957D01*
X00401248Y00463957D02*
X00901264Y00463957D01*
X00886842Y00479956D02*
X00415169Y00479956D01*
X00419907Y00495954D02*
X00882000Y00495954D01*
X00883491Y00511953D02*
X00418381Y00511953D01*
X00410079Y00527951D02*
X00892554Y00527951D01*
X00888656Y00575947D02*
X00411344Y00575947D01*
X00418000Y00591945D02*
X00882000Y00591945D01*
X00882000Y00607944D02*
X00418000Y00607944D01*
X00411454Y00623942D02*
X00888546Y00623942D01*
X00910675Y00639941D02*
X00389325Y00639941D01*
X00407335Y00671938D02*
X00892665Y00671938D01*
X00883536Y00687937D02*
X00416463Y00687937D01*
X00418000Y00703935D02*
X00882000Y00703935D01*
X00886796Y00719934D02*
X00413204Y00719934D01*
X00399003Y00735932D02*
X00900997Y00735932D01*
X00950000Y00700000D02*
X00950000Y00800000D01*
X01003326Y00767929D02*
X01176017Y00767929D01*
X01167039Y00783928D02*
X01014803Y00783928D01*
X01018000Y00799926D02*
X01165000Y00799926D01*
X01165000Y00815925D02*
X01014864Y00815925D01*
X01003474Y00831923D02*
X01165000Y00831923D01*
X01165000Y00975910D02*
X01011307Y00975910D01*
X01018000Y00991908D02*
X01165000Y00991908D01*
X01165000Y01007907D02*
X01018000Y01007907D01*
X01011491Y01023906D02*
X01170284Y01023906D01*
X01183850Y01039904D02*
X00989414Y01039904D01*
X01007298Y01071901D02*
X01287960Y01071901D01*
X01303959Y01087900D02*
X01016448Y01087900D01*
X01018000Y01103898D02*
X01312161Y01103898D01*
X01296162Y01119897D02*
X01013219Y01119897D01*
X00999092Y01135895D02*
X01280164Y01135895D01*
X01276000Y01151894D02*
X00085835Y01151894D01*
X00074000Y01135895D02*
X00300908Y01135895D01*
X00286781Y01119897D02*
X00074000Y01119897D01*
X00074000Y01103898D02*
X00282000Y01103898D01*
X00283552Y01087900D02*
X00119755Y01087900D01*
X00137011Y01071901D02*
X00292702Y01071901D01*
X00296711Y01167892D02*
X00101833Y01167892D01*
X00117832Y01183891D02*
X00285212Y01183891D01*
X00282000Y01199889D02*
X00133830Y01199889D01*
X00097945Y01231886D02*
X00048000Y01231886D01*
X00048000Y01215888D02*
X00081947Y01215888D01*
X00065948Y01199889D02*
X00048000Y01199889D01*
X00048000Y01183891D02*
X00049950Y01183891D01*
X00048000Y01247885D02*
X00107425Y01247885D01*
X00109668Y01263883D02*
X00048000Y01263883D01*
X00048000Y01311879D02*
X00283460Y01311879D01*
X00292481Y01327877D02*
X00048000Y01327877D01*
X00048000Y01343876D02*
X01122183Y01343876D01*
X01150000Y01350000D02*
X01150000Y01300000D01*
X01200000Y01250000D01*
X01211000Y01228000D01*
X01200000Y01250000D02*
X01250000Y01250000D01*
X01300000Y01200000D01*
X01300000Y01150000D01*
X01350000Y01100000D01*
X01300000Y01050000D01*
X01300000Y00800000D01*
X01342575Y00799926D02*
X01343000Y00799926D01*
X01343000Y00788850D02*
X01350003Y00771943D01*
X01362943Y00759003D01*
X01379850Y00752000D01*
X01398150Y00752000D01*
X01415057Y00759003D01*
X01427997Y00771943D01*
X01435000Y00788850D01*
X01435000Y00867150D01*
X01427997Y00884057D01*
X01415057Y00896997D01*
X01407806Y00900000D01*
X01415057Y00903003D01*
X01427997Y00915943D01*
X01435000Y00932850D01*
X01435000Y01011150D01*
X01427997Y01028057D01*
X01415057Y01040997D01*
X01398150Y01048000D01*
X01379850Y01048000D01*
X01362943Y01040997D01*
X01350003Y01028057D01*
X01343000Y01011150D01*
X01343000Y00932850D01*
X01350003Y00915943D01*
X01362943Y00903003D01*
X01370193Y00900000D01*
X01362943Y00896997D01*
X01350003Y00884057D01*
X01343000Y00867150D01*
X01343000Y00788850D01*
X01345039Y00783928D02*
X01339425Y00783928D01*
X01328139Y00767929D02*
X01354017Y00767929D01*
X01343000Y00815925D02*
X01339486Y00815925D01*
X01343000Y00831923D02*
X01328286Y00831923D01*
X01324000Y00847922D02*
X01343000Y00847922D01*
X01343000Y00863920D02*
X01324000Y00863920D01*
X01324000Y00879919D02*
X01348289Y00879919D01*
X01361864Y00895917D02*
X01324000Y00895917D01*
X01324000Y00911916D02*
X01354030Y00911916D01*
X01345044Y00927914D02*
X01324000Y00927914D01*
X01324000Y00943913D02*
X01343000Y00943913D01*
X01343000Y00959911D02*
X01324000Y00959911D01*
X01324000Y00975910D02*
X01343000Y00975910D01*
X01343000Y00991908D02*
X01324000Y00991908D01*
X01324000Y01007907D02*
X01343000Y01007907D01*
X01348284Y01023906D02*
X01324000Y01023906D01*
X01324000Y01039904D02*
X01361850Y01039904D01*
X01416150Y01039904D02*
X01483850Y01039904D01*
X01470284Y01023906D02*
X01429716Y01023906D01*
X01435000Y01007907D02*
X01465000Y01007907D01*
X01465000Y00991908D02*
X01435000Y00991908D01*
X01435000Y00975910D02*
X01465000Y00975910D01*
X01465000Y00959911D02*
X01435000Y00959911D01*
X01435000Y00943913D02*
X01465000Y00943913D01*
X01467044Y00927914D02*
X01432955Y00927914D01*
X01423970Y00911916D02*
X01476030Y00911916D01*
X01483864Y00895917D02*
X01416136Y00895917D01*
X01429711Y00879919D02*
X01470289Y00879919D01*
X01465000Y00863920D02*
X01435000Y00863920D01*
X01435000Y00847922D02*
X01465000Y00847922D01*
X01465000Y00831923D02*
X01435000Y00831923D01*
X01435000Y00815925D02*
X01465000Y00815925D01*
X01465000Y00799926D02*
X01435000Y00799926D01*
X01432961Y00783928D02*
X01467039Y00783928D01*
X01476017Y00767929D02*
X01423983Y00767929D01*
X01361887Y00639941D02*
X01344000Y00639941D01*
X01244121Y00671938D02*
X01007335Y00671938D01*
X00926000Y00655939D02*
X00074000Y00655939D01*
X00074000Y00639941D02*
X00310675Y00639941D01*
X00288546Y00623942D02*
X00074000Y00623942D01*
X00074000Y00607944D02*
X00274003Y00607944D01*
X00258004Y00591945D02*
X00185792Y00591945D01*
X00196994Y00575947D02*
X00242006Y00575947D01*
X00226007Y00559948D02*
X00201433Y00559948D01*
X00201094Y00543950D02*
X00210009Y00543950D01*
X00200000Y00500000D02*
X00300000Y00600000D01*
X00292665Y00671938D02*
X00074000Y00671938D01*
X00074000Y00687937D02*
X00278122Y00687937D01*
X00262124Y00703935D02*
X00181672Y00703935D01*
X00179134Y00701397D02*
X00193603Y00715865D01*
X00201433Y00734769D01*
X00201433Y00755231D01*
X00193603Y00774134D01*
X00179134Y00788603D01*
X00160231Y00796433D01*
X00139769Y00796433D01*
X00120865Y00788603D01*
X00106397Y00774134D01*
X00098567Y00755231D01*
X00098567Y00734769D01*
X00106397Y00715865D01*
X00120865Y00701397D01*
X00139769Y00693567D01*
X00160231Y00693567D01*
X00179134Y00701397D01*
X00195288Y00719934D02*
X00246125Y00719934D01*
X00230127Y00735932D02*
X00201433Y00735932D01*
X00201433Y00751931D02*
X00226000Y00751931D01*
X00226000Y00767929D02*
X00196173Y00767929D01*
X00183810Y00783928D02*
X00226000Y00783928D01*
X00216133Y00799926D02*
X00074000Y00799926D01*
X00074000Y00783928D02*
X00116190Y00783928D01*
X00103827Y00767929D02*
X00074000Y00767929D01*
X00074000Y00751931D02*
X00098567Y00751931D01*
X00098567Y00735932D02*
X00074000Y00735932D01*
X00074000Y00719934D02*
X00104712Y00719934D01*
X00118328Y00703935D02*
X00074000Y00703935D01*
X00074000Y00591945D02*
X00114208Y00591945D01*
X00103006Y00575947D02*
X00074000Y00575947D01*
X00074000Y00559948D02*
X00098567Y00559948D01*
X00098906Y00543950D02*
X00074000Y00543950D01*
X00074000Y00527951D02*
X00105533Y00527951D01*
X00120310Y00511953D02*
X00074000Y00511953D01*
X00087987Y00495954D02*
X00170105Y00495954D01*
X00186103Y00479956D02*
X00103985Y00479956D01*
X00150000Y00550000D02*
X00150000Y00555000D01*
X00150000Y00550000D02*
X00200000Y00500000D01*
X00300000Y00700000D02*
X00350000Y00700000D01*
X00300000Y00700000D02*
X00250000Y00750000D01*
X00250000Y00800000D01*
X00100000Y00950000D01*
X00100000Y01050000D01*
X00076000Y01007907D02*
X00074000Y01007907D01*
X00074000Y00991908D02*
X00076000Y00991908D01*
X00076000Y00975910D02*
X00074000Y00975910D01*
X00074000Y00959911D02*
X00076000Y00959911D01*
X00076544Y00943913D02*
X00074000Y00943913D01*
X00074000Y00927914D02*
X00088144Y00927914D01*
X00074000Y00911916D02*
X00104143Y00911916D01*
X00120141Y00895917D02*
X00074000Y00895917D01*
X00074000Y00879919D02*
X00136140Y00879919D01*
X00152139Y00863920D02*
X00074000Y00863920D01*
X00074000Y00847922D02*
X00168137Y00847922D01*
X00184136Y00831923D02*
X00074000Y00831923D01*
X00074000Y00815925D02*
X00200134Y00815925D01*
X00204022Y00879919D02*
X00286857Y00879919D01*
X00282000Y00895917D02*
X00188024Y00895917D01*
X00172025Y00911916D02*
X00283475Y00911916D01*
X00292517Y00927914D02*
X00156027Y00927914D01*
X00080245Y01087900D02*
X00074000Y01087900D01*
X00176098Y01215888D02*
X00285121Y01215888D01*
X00311120Y01359875D02*
X00048000Y01359875D01*
X00048000Y01375873D02*
X00288730Y01375873D01*
X00282000Y01391872D02*
X00048000Y01391872D01*
X00048000Y01407870D02*
X00282000Y01407870D01*
X00288472Y01423869D02*
X00048000Y01423869D01*
X00048000Y01439867D02*
X00310497Y01439867D01*
X00292444Y01727841D02*
X00167213Y01727841D01*
X00144367Y01743839D02*
X01026000Y01743839D01*
X01026000Y01727841D02*
X01007556Y01727841D01*
X01016555Y01711842D02*
X01026000Y01711842D01*
X01026000Y01695844D02*
X01018000Y01695844D01*
X01013112Y01679845D02*
X01026000Y01679845D01*
X01026000Y01663846D02*
X00998469Y01663846D01*
X01074000Y01663846D02*
X01165000Y01663846D01*
X01165000Y01647848D02*
X01074000Y01647848D01*
X01074000Y01631849D02*
X01167900Y01631849D01*
X01178095Y01615851D02*
X01074000Y01615851D01*
X01026000Y01535858D02*
X00999182Y01535858D01*
X01013234Y01519860D02*
X01026000Y01519860D01*
X01026000Y01503861D02*
X01018000Y01503861D01*
X01016433Y01487863D02*
X01026000Y01487863D01*
X01050000Y01450000D02*
X01050000Y02050000D01*
X01000000Y02100000D01*
X00950000Y02100000D01*
X01000000Y02100000D02*
X01300000Y02400000D01*
X01339364Y02383780D02*
X01860636Y02383780D01*
X01857425Y02399779D02*
X01342575Y02399779D01*
X01339547Y02415777D02*
X01860453Y02415777D01*
X01871566Y02431776D02*
X01328434Y02431776D01*
X01271566Y02431776D02*
X01003621Y02431776D01*
X00999791Y02435606D02*
X00984354Y02442000D01*
X00915646Y02442000D01*
X00900209Y02435606D01*
X00888394Y02423791D01*
X00882000Y02408354D01*
X00882000Y02391646D01*
X00888394Y02376209D01*
X00900209Y02364394D01*
X00915646Y02358000D01*
X00984354Y02358000D01*
X00999791Y02364394D01*
X01011606Y02376209D01*
X01018000Y02391646D01*
X01018000Y02408354D01*
X01011606Y02423791D01*
X00999791Y02435606D01*
X01014925Y02415777D02*
X01260453Y02415777D01*
X01257425Y02399779D02*
X01018000Y02399779D01*
X01014742Y02383780D02*
X01249839Y02383780D01*
X01233841Y02367781D02*
X01003178Y02367781D01*
X00984354Y02342000D02*
X00999791Y02335606D01*
X01011606Y02323791D01*
X01018000Y02308354D01*
X01018000Y02291646D01*
X01011606Y02276209D01*
X00999791Y02264394D01*
X00984354Y02258000D01*
X00915646Y02258000D01*
X00900209Y02264394D01*
X00888394Y02276209D01*
X00882000Y02291646D01*
X00882000Y02308354D01*
X00888394Y02323791D01*
X00900209Y02335606D01*
X00915646Y02342000D01*
X00984354Y02342000D01*
X00999360Y02335784D02*
X01201844Y02335784D01*
X01217842Y02351783D02*
X00048000Y02351783D01*
X00100000Y02400000D02*
X00350000Y02400000D01*
X00403178Y02367781D02*
X00896821Y02367781D01*
X00885258Y02383780D02*
X00414742Y02383780D01*
X00418000Y02399779D02*
X00882000Y02399779D01*
X00885075Y02415777D02*
X00414925Y02415777D01*
X00403621Y02431776D02*
X00896379Y02431776D01*
X00900640Y02335784D02*
X00399360Y02335784D01*
X00413265Y02319786D02*
X00886735Y02319786D01*
X00882000Y02303787D02*
X00418000Y02303787D01*
X00416402Y02287789D02*
X00883597Y02287789D01*
X00892813Y02271790D02*
X00407187Y02271790D01*
X00389681Y02239793D02*
X00910319Y02239793D01*
X00915646Y02242000D02*
X00900209Y02235606D01*
X00888394Y02223791D01*
X00882000Y02208354D01*
X00882000Y02191646D01*
X00888394Y02176209D01*
X00900209Y02164394D01*
X00915646Y02158000D01*
X00984354Y02158000D01*
X00999791Y02164394D01*
X01011606Y02176209D01*
X01018000Y02191646D01*
X01018000Y02208354D01*
X01011606Y02223791D01*
X00999791Y02235606D01*
X00984354Y02242000D01*
X00915646Y02242000D01*
X00888398Y02223795D02*
X00411602Y02223795D01*
X00418000Y02207796D02*
X00882000Y02207796D01*
X00882000Y02191798D02*
X00418000Y02191798D01*
X00411196Y02175799D02*
X00888804Y02175799D01*
X00911298Y02159801D02*
X00388702Y02159801D01*
X00407593Y02127804D02*
X00892407Y02127804D01*
X00883429Y02111805D02*
X00416571Y02111805D01*
X00418000Y02095807D02*
X00882000Y02095807D01*
X00886903Y02079808D02*
X00413097Y02079808D01*
X00398380Y02063810D02*
X00901620Y02063810D01*
X00915646Y02042000D02*
X00900209Y02035606D01*
X00888394Y02023791D01*
X00882000Y02008354D01*
X00882000Y01991646D01*
X00888394Y01976209D01*
X00900209Y01964394D01*
X00915646Y01958000D01*
X00984354Y01958000D01*
X00999791Y01964394D01*
X01011606Y01976209D01*
X01018000Y01991646D01*
X01018000Y02008354D01*
X01011606Y02023791D01*
X00999791Y02035606D01*
X00984354Y02042000D01*
X00915646Y02042000D01*
X00896416Y02031813D02*
X00403584Y02031813D01*
X00414910Y02015814D02*
X00885090Y02015814D01*
X00882000Y01999815D02*
X00418000Y01999815D01*
X00414757Y01983817D02*
X00885243Y01983817D01*
X00896785Y01967818D02*
X00403215Y01967818D01*
X00399271Y01935821D02*
X00900729Y01935821D01*
X00900209Y01935606D02*
X00888394Y01923791D01*
X00882000Y01908354D01*
X00882000Y01891646D01*
X00888394Y01876209D01*
X00900209Y01864394D01*
X00915646Y01858000D01*
X00984354Y01858000D01*
X00999791Y01864394D01*
X01011606Y01876209D01*
X01018000Y01891646D01*
X01018000Y01908354D01*
X01011606Y01923791D01*
X00999791Y01935606D01*
X00984354Y01942000D01*
X00915646Y01942000D01*
X00900209Y01935606D01*
X00886750Y01919823D02*
X00413250Y01919823D01*
X00418000Y01903824D02*
X00882000Y01903824D01*
X00883582Y01887826D02*
X00416418Y01887826D01*
X00407224Y01871827D02*
X00892776Y01871827D01*
X00910408Y01839830D02*
X00389592Y01839830D01*
X00411565Y01823832D02*
X00888435Y01823832D01*
X00882000Y01807833D02*
X00418000Y01807833D01*
X00418000Y01791835D02*
X00882000Y01791835D01*
X00888767Y01775836D02*
X00411233Y01775836D01*
X00311209Y01759838D02*
X00153243Y01759838D01*
X00169781Y01775836D02*
X00288767Y01775836D01*
X00310408Y01839830D02*
X00154045Y01839830D01*
X00143565Y01855829D02*
X01026000Y01855829D01*
X01026000Y01871827D02*
X01007224Y01871827D01*
X01016418Y01887826D02*
X01026000Y01887826D01*
X01026000Y01903824D02*
X01018000Y01903824D01*
X01013250Y01919823D02*
X01026000Y01919823D01*
X01026000Y01935821D02*
X00999271Y01935821D01*
X01026000Y01951820D02*
X00048000Y01951820D01*
X00100000Y02000000D02*
X00350000Y02000000D01*
X00296785Y01967818D02*
X00162872Y01967818D01*
X00159232Y01935821D02*
X00300729Y01935821D01*
X00350000Y01900000D02*
X00100000Y01900000D01*
X00056435Y01855829D02*
X00048000Y01855829D01*
X00166881Y01871827D02*
X00292776Y01871827D01*
X00296416Y02031813D02*
X00163241Y02031813D01*
X00158863Y02063810D02*
X00301620Y02063810D01*
X00350000Y02100000D02*
X00100000Y02100000D01*
X00055544Y02143802D02*
X00048000Y02143802D01*
X00100000Y02200000D02*
X00350000Y02200000D01*
X00311298Y02159801D02*
X00153154Y02159801D01*
X00144456Y02143802D02*
X01009861Y02143802D01*
X01025860Y02159801D02*
X00988702Y02159801D01*
X01011196Y02175799D02*
X01041858Y02175799D01*
X01057857Y02191798D02*
X01018000Y02191798D01*
X01018000Y02207796D02*
X01073855Y02207796D01*
X01089854Y02223795D02*
X01011602Y02223795D01*
X00989681Y02239793D02*
X01105852Y02239793D01*
X01121851Y02255792D02*
X00143476Y02255792D01*
X00154134Y02239793D02*
X00310319Y02239793D01*
X00292813Y02271790D02*
X00166844Y02271790D01*
X00159269Y02335784D02*
X00300640Y02335784D01*
X00296821Y02367781D02*
X00162835Y02367781D01*
X00163278Y02431776D02*
X00296379Y02431776D01*
X00350000Y02300000D02*
X00100000Y02300000D01*
X00056524Y02255792D02*
X00048000Y02255792D01*
X00167250Y02127804D02*
X00292407Y02127804D01*
X00288804Y02175799D02*
X00169766Y02175799D01*
X00048000Y02047811D02*
X01018248Y02047811D01*
X01026000Y02031813D02*
X01003584Y02031813D01*
X01014910Y02015814D02*
X01026000Y02015814D01*
X01026000Y01999815D02*
X01018000Y01999815D01*
X01014757Y01983817D02*
X01026000Y01983817D01*
X01026000Y01967818D02*
X01003215Y01967818D01*
X01074000Y01967818D02*
X01098240Y01967818D01*
X01114239Y01951820D02*
X01074000Y01951820D01*
X01074000Y01935821D02*
X01130237Y01935821D01*
X01146236Y01919823D02*
X01074000Y01919823D01*
X01074000Y01903824D02*
X01162234Y01903824D01*
X01165000Y01887826D02*
X01074000Y01887826D01*
X01074000Y01871827D02*
X01165000Y01871827D01*
X01165000Y01855829D02*
X01074000Y01855829D01*
X01074000Y01839830D02*
X01165000Y01839830D01*
X01168735Y01823832D02*
X01074000Y01823832D01*
X01074000Y01807833D02*
X01180113Y01807833D01*
X01182121Y01951820D02*
X01276000Y01951820D01*
X01276000Y01967818D02*
X01166123Y01967818D01*
X01150124Y01983817D02*
X01276000Y01983817D01*
X01276000Y01999815D02*
X01134125Y01999815D01*
X01124000Y02015814D02*
X01276000Y02015814D01*
X01276000Y02031813D02*
X01124000Y02031813D01*
X01124000Y02047811D02*
X01276000Y02047811D01*
X01276000Y02063810D02*
X01241863Y02063810D01*
X01237057Y02059003D02*
X01249997Y02071943D01*
X01257000Y02088850D01*
X01257000Y02167150D01*
X01249997Y02184057D01*
X01237057Y02196997D01*
X01220150Y02204000D01*
X01201850Y02204000D01*
X01184943Y02196997D01*
X01172003Y02184057D01*
X01165000Y02167150D01*
X01165000Y02088850D01*
X01172003Y02071943D01*
X01184943Y02059003D01*
X01201850Y02052000D01*
X01220150Y02052000D01*
X01237057Y02059003D01*
X01253255Y02079808D02*
X01276000Y02079808D01*
X01276000Y02095807D02*
X01257000Y02095807D01*
X01257000Y02111805D02*
X01276000Y02111805D01*
X01276000Y02127804D02*
X01257000Y02127804D01*
X01257000Y02143802D02*
X01276000Y02143802D01*
X01276000Y02159801D02*
X01257000Y02159801D01*
X01253417Y02175799D02*
X01263991Y02175799D01*
X01257425Y02191798D02*
X01242256Y02191798D01*
X01257425Y02207796D02*
X01191737Y02207796D01*
X01179744Y02191798D02*
X01175739Y02191798D01*
X01168583Y02175799D02*
X01159740Y02175799D01*
X01165000Y02159801D02*
X01143742Y02159801D01*
X01127743Y02143802D02*
X01165000Y02143802D01*
X01165000Y02127804D02*
X01124000Y02127804D01*
X01124000Y02111805D02*
X01165000Y02111805D01*
X01165000Y02095807D02*
X01124000Y02095807D01*
X01124000Y02079808D02*
X01168745Y02079808D01*
X01180137Y02063810D02*
X01124000Y02063810D01*
X01076000Y02063810D02*
X01070131Y02063810D01*
X01074000Y02047811D02*
X01076000Y02047811D01*
X01076000Y02031813D02*
X01074000Y02031813D01*
X01074000Y02015814D02*
X01076000Y02015814D01*
X01076000Y01999815D02*
X01074000Y01999815D01*
X01074000Y01983817D02*
X01082242Y01983817D01*
X01002249Y02063810D02*
X00998380Y02063810D01*
X01038134Y02095807D02*
X01076000Y02095807D01*
X01076000Y02111805D02*
X01045746Y02111805D01*
X01061745Y02127804D02*
X01076000Y02127804D01*
X01076000Y02079808D02*
X01054133Y02079808D01*
X01207736Y02223795D02*
X01263774Y02223795D01*
X01221730Y02287789D02*
X01978270Y02287789D01*
X01962271Y02303787D02*
X01237728Y02303787D01*
X01253727Y02319786D02*
X01946273Y02319786D01*
X01930274Y02335784D02*
X01269725Y02335784D01*
X01285724Y02351783D02*
X01914276Y02351783D01*
X01872009Y02367781D02*
X01327991Y02367781D01*
X01185845Y02319786D02*
X01013265Y02319786D01*
X01018000Y02303787D02*
X01169846Y02303787D01*
X01153848Y02287789D02*
X01016402Y02287789D01*
X01007187Y02271790D02*
X01137849Y02271790D01*
X01420256Y02191798D02*
X01479744Y02191798D01*
X01468583Y02175799D02*
X01431417Y02175799D01*
X01435000Y02159801D02*
X01465000Y02159801D01*
X01465000Y02143802D02*
X01435000Y02143802D01*
X01435000Y02127804D02*
X01465000Y02127804D01*
X01465000Y02111805D02*
X01435000Y02111805D01*
X01435000Y02095807D02*
X01465000Y02095807D01*
X01651759Y01967818D02*
X02026000Y01967818D01*
X02140215Y01743839D02*
X02259785Y01743839D01*
X02262943Y01746997D02*
X02250003Y01734057D01*
X02243000Y01717150D01*
X02243000Y01638850D01*
X02250003Y01621943D01*
X02262943Y01609003D01*
X02279850Y01602000D01*
X02298150Y01602000D01*
X02315057Y01609003D01*
X02327997Y01621943D01*
X02335000Y01638850D01*
X02335000Y01717150D01*
X02327997Y01734057D01*
X02315057Y01746997D01*
X02298150Y01754000D01*
X02279850Y01754000D01*
X02262943Y01746997D01*
X02247428Y01727841D02*
X02152572Y01727841D01*
X02157000Y01711842D02*
X02243000Y01711842D01*
X02243000Y01695844D02*
X02157000Y01695844D01*
X02157000Y01679845D02*
X02243000Y01679845D01*
X02243000Y01663846D02*
X02157000Y01663846D01*
X02157000Y01647848D02*
X02243000Y01647848D01*
X02245900Y01631849D02*
X02154100Y01631849D01*
X02143905Y01615851D02*
X02256095Y01615851D01*
X02321905Y01615851D02*
X02389008Y01615851D01*
X02389008Y01631849D02*
X02332100Y01631849D01*
X02335000Y01647848D02*
X02389008Y01647848D01*
X02389008Y01663846D02*
X02335000Y01663846D01*
X02335000Y01679845D02*
X02389008Y01679845D01*
X02389008Y01695844D02*
X02335000Y01695844D01*
X02335000Y01711842D02*
X02389008Y01711842D01*
X02389008Y01727841D02*
X02330572Y01727841D01*
X02318215Y01743839D02*
X02389008Y01743839D01*
X02389008Y02207796D02*
X02222748Y02207796D01*
X02210146Y02223795D02*
X02389008Y02223795D01*
X02389008Y02239793D02*
X02194148Y02239793D01*
X02178149Y02255792D02*
X02389008Y02255792D01*
X02389008Y02271790D02*
X02160108Y02271790D01*
X02050000Y02250000D02*
X01900000Y02400000D01*
X01942575Y02399779D02*
X01957425Y02399779D01*
X01957425Y02391531D02*
X01957425Y02408469D01*
X01957474Y02408585D01*
X01858585Y02507474D01*
X01858469Y02507425D01*
X01841531Y02507425D01*
X01825883Y02513907D01*
X01813907Y02525883D01*
X01807425Y02541531D01*
X01807425Y02558469D01*
X01813907Y02574117D01*
X01825883Y02586093D01*
X01841531Y02592575D01*
X01858469Y02592575D01*
X01874117Y02586093D01*
X01886093Y02574117D01*
X01892575Y02558469D01*
X01892575Y02541531D01*
X01892526Y02541415D01*
X01991415Y02442526D01*
X01991531Y02442575D01*
X02008469Y02442575D01*
X02024117Y02436093D01*
X02036093Y02424117D01*
X02042575Y02408469D01*
X02042575Y02391531D01*
X02036093Y02375883D01*
X02024117Y02363907D01*
X02008469Y02357425D01*
X01991531Y02357425D01*
X01975883Y02363907D01*
X01963907Y02375883D01*
X01957425Y02391531D01*
X01960636Y02383780D02*
X01950161Y02383780D01*
X01966159Y02367781D02*
X01972009Y02367781D01*
X01982158Y02351783D02*
X02389008Y02351783D01*
X02389008Y02335784D02*
X01998156Y02335784D01*
X02014155Y02319786D02*
X02389008Y02319786D01*
X02389008Y02303787D02*
X02030154Y02303787D01*
X02046152Y02287789D02*
X02389008Y02287789D01*
X02389008Y02367781D02*
X02027991Y02367781D01*
X02039364Y02383780D02*
X02389008Y02383780D01*
X02389008Y02399779D02*
X02042575Y02399779D01*
X02039547Y02415777D02*
X02389008Y02415777D01*
X02389008Y02431776D02*
X02028434Y02431776D01*
X02000000Y02400000D02*
X01850000Y02550000D01*
X01831046Y02511768D02*
X00048000Y02511768D01*
X00048000Y02495770D02*
X01870289Y02495770D01*
X01886288Y02479771D02*
X00048000Y02479771D01*
X00048000Y02463773D02*
X01902286Y02463773D01*
X01918285Y02447774D02*
X00048000Y02447774D01*
X00048000Y02527767D02*
X01813127Y02527767D01*
X01807425Y02543765D02*
X00048000Y02543765D01*
X00048000Y02559764D02*
X01807962Y02559764D01*
X01815553Y02575762D02*
X00048000Y02575762D01*
X00048000Y02591761D02*
X01839567Y02591761D01*
X01860433Y02591761D02*
X02389008Y02591761D01*
X02389008Y02575762D02*
X01884447Y02575762D01*
X01892038Y02559764D02*
X02389008Y02559764D01*
X02389008Y02543765D02*
X01892575Y02543765D01*
X01906174Y02527767D02*
X02389008Y02527767D01*
X02389008Y02511768D02*
X01922173Y02511768D01*
X01938171Y02495770D02*
X02389008Y02495770D01*
X02389008Y02479771D02*
X01954170Y02479771D01*
X01970168Y02463773D02*
X02389008Y02463773D01*
X02389008Y02447774D02*
X01986167Y02447774D01*
X01950282Y02415777D02*
X01939547Y02415777D01*
X01934283Y02431776D02*
X01928434Y02431776D01*
X01373644Y01583854D02*
X01350087Y01583854D01*
X01150000Y01350000D02*
X01050000Y01450000D01*
X01003510Y01231886D02*
X01165000Y01231886D01*
X01165000Y01215888D02*
X01014879Y01215888D01*
X01018000Y01199889D02*
X01165000Y01199889D01*
X01167054Y01183891D02*
X01014788Y01183891D01*
X01003289Y01167892D02*
X01176054Y01167892D01*
X01245946Y01167892D02*
X01276000Y01167892D01*
X01276000Y01183891D02*
X01254946Y01183891D01*
X01257000Y01199889D02*
X01266170Y01199889D01*
X01348046Y01135895D02*
X01401954Y01135895D01*
X01400000Y01100000D02*
X01500000Y01200000D01*
X01511000Y01228000D01*
X01400000Y01100000D02*
X01350000Y01100000D01*
X01026000Y01759838D02*
X00988791Y01759838D01*
X01011233Y01775836D02*
X01026000Y01775836D01*
X01026000Y01791835D02*
X01018000Y01791835D01*
X01018000Y01807833D02*
X01026000Y01807833D01*
X01026000Y01823832D02*
X01011565Y01823832D01*
X01026000Y01839830D02*
X00989592Y01839830D01*
X00300997Y00735932D02*
X00298009Y00735932D01*
X00463649Y00383965D02*
X00636351Y00383965D01*
X00611912Y00367966D02*
X00488088Y00367966D01*
X00496419Y00351968D02*
X00603581Y00351968D01*
X00602000Y00335969D02*
X00498000Y00335969D01*
X00493908Y00319970D02*
X00606092Y00319970D01*
X00617974Y00303972D02*
X00482026Y00303972D01*
D14*
X00100000Y01050000D03*
X00150000Y01250000D03*
X01300000Y00800000D03*
X01500000Y01100000D03*
X01400000Y01550000D03*
X01450000Y02050000D03*
X01300000Y02200000D03*
X01300000Y02400000D03*
X01750000Y02200000D03*
X01900000Y02400000D03*
X02000000Y02400000D03*
X01850000Y02550000D03*
X02050000Y02200000D03*
X02100000Y02000000D03*
X02200000Y01250000D03*
M02*
