G75*
%MOIN*%
%OFA0B0*%
%FSLAX26Y26*%
%IPPOS*%
%LPD*%
%AMOC8*
5,1,8,0,0,1.08239X$1,22.5*
%
%ADD10C,0.060000*%
%ADD11C,0.068000*%
%ADD12C,0.078866*%
%ADD13C,0.061150*%
D10*
X00324000Y00500000D02*
X00376000Y00500000D01*
X00376000Y00600000D02*
X00324000Y00600000D01*
X00324000Y00700000D02*
X00376000Y00700000D01*
X00376000Y00800000D02*
X00324000Y00800000D01*
X00324000Y00900000D02*
X00376000Y00900000D01*
X00376000Y01000000D02*
X00324000Y01000000D01*
X00324000Y01100000D02*
X00376000Y01100000D01*
X00376000Y01200000D02*
X00324000Y01200000D01*
X00324000Y01300000D02*
X00376000Y01300000D01*
X00376000Y01400000D02*
X00324000Y01400000D01*
X00324000Y01500000D02*
X00376000Y01500000D01*
X00376000Y01600000D02*
X00324000Y01600000D01*
X00324000Y01700000D02*
X00376000Y01700000D01*
X00376000Y01800000D02*
X00324000Y01800000D01*
X00324000Y01900000D02*
X00376000Y01900000D01*
X00376000Y02000000D02*
X00324000Y02000000D01*
X00324000Y02100000D02*
X00376000Y02100000D01*
X00376000Y02200000D02*
X00324000Y02200000D01*
X00324000Y02300000D02*
X00376000Y02300000D01*
X00376000Y02400000D02*
X00324000Y02400000D01*
X00924000Y02400000D02*
X00976000Y02400000D01*
X00976000Y02300000D02*
X00924000Y02300000D01*
X00924000Y02200000D02*
X00976000Y02200000D01*
X00976000Y02100000D02*
X00924000Y02100000D01*
X00924000Y02000000D02*
X00976000Y02000000D01*
X00976000Y01900000D02*
X00924000Y01900000D01*
X00924000Y01800000D02*
X00976000Y01800000D01*
X00976000Y01700000D02*
X00924000Y01700000D01*
X00924000Y01600000D02*
X00976000Y01600000D01*
X00976000Y01500000D02*
X00924000Y01500000D01*
X00924000Y01400000D02*
X00976000Y01400000D01*
X00976000Y01300000D02*
X00924000Y01300000D01*
X00924000Y01200000D02*
X00976000Y01200000D01*
X00976000Y01100000D02*
X00924000Y01100000D01*
X00924000Y01000000D02*
X00976000Y01000000D01*
X00976000Y00900000D02*
X00924000Y00900000D01*
X00924000Y00800000D02*
X00976000Y00800000D01*
X00976000Y00700000D02*
X00924000Y00700000D01*
X00924000Y00600000D02*
X00976000Y00600000D01*
X00976000Y00500000D02*
X00924000Y00500000D01*
D11*
X00452000Y00161000D02*
X00392000Y00161000D01*
X00392000Y00339000D02*
X00452000Y00339000D01*
X00648000Y00339000D02*
X00708000Y00339000D01*
X00708000Y00161000D02*
X00648000Y00161000D01*
X01211000Y00542000D02*
X01211000Y00602000D01*
X01389000Y00602000D02*
X01389000Y00542000D01*
X01511000Y00542000D02*
X01511000Y00602000D01*
X01689000Y00602000D02*
X01689000Y00542000D01*
X01811000Y00542000D02*
X01811000Y00602000D01*
X01989000Y00602000D02*
X01989000Y00542000D01*
X02111000Y00542000D02*
X02111000Y00602000D01*
X02289000Y00602000D02*
X02289000Y00542000D01*
X02289000Y00798000D02*
X02289000Y00858000D01*
X02289000Y00942000D02*
X02289000Y01002000D01*
X02111000Y01002000D02*
X02111000Y00942000D01*
X02111000Y00858000D02*
X02111000Y00798000D01*
X01989000Y00798000D02*
X01989000Y00858000D01*
X01989000Y00942000D02*
X01989000Y01002000D01*
X01811000Y01002000D02*
X01811000Y00942000D01*
X01811000Y00858000D02*
X01811000Y00798000D01*
X01689000Y00798000D02*
X01689000Y00858000D01*
X01689000Y00942000D02*
X01689000Y01002000D01*
X01511000Y01002000D02*
X01511000Y00942000D01*
X01511000Y00858000D02*
X01511000Y00798000D01*
X01389000Y00798000D02*
X01389000Y00858000D01*
X01389000Y00942000D02*
X01389000Y01002000D01*
X01211000Y01002000D02*
X01211000Y00942000D01*
X01211000Y00858000D02*
X01211000Y00798000D01*
X01211000Y01198000D02*
X01211000Y01258000D01*
X01211000Y01392000D02*
X01211000Y01452000D01*
X01389000Y01452000D02*
X01389000Y01392000D01*
X01511000Y01392000D02*
X01511000Y01452000D01*
X01689000Y01452000D02*
X01689000Y01392000D01*
X01811000Y01392000D02*
X01811000Y01452000D01*
X01989000Y01452000D02*
X01989000Y01392000D01*
X02111000Y01392000D02*
X02111000Y01452000D01*
X02289000Y01452000D02*
X02289000Y01392000D01*
X02289000Y01258000D02*
X02289000Y01198000D01*
X02111000Y01198000D02*
X02111000Y01258000D01*
X01989000Y01258000D02*
X01989000Y01198000D01*
X01811000Y01198000D02*
X01811000Y01258000D01*
X01689000Y01258000D02*
X01689000Y01198000D01*
X01511000Y01198000D02*
X01511000Y01258000D01*
X01389000Y01258000D02*
X01389000Y01198000D01*
X01389000Y01648000D02*
X01389000Y01708000D01*
X01511000Y01708000D02*
X01511000Y01648000D01*
X01689000Y01648000D02*
X01689000Y01708000D01*
X01811000Y01708000D02*
X01811000Y01648000D01*
X01989000Y01648000D02*
X01989000Y01708000D01*
X02111000Y01708000D02*
X02111000Y01648000D01*
X02289000Y01648000D02*
X02289000Y01708000D01*
X02289000Y01842000D02*
X02289000Y01902000D01*
X02111000Y01902000D02*
X02111000Y01842000D01*
X01989000Y01842000D02*
X01989000Y01902000D01*
X01811000Y01902000D02*
X01811000Y01842000D01*
X01689000Y01842000D02*
X01689000Y01902000D01*
X01511000Y01902000D02*
X01511000Y01842000D01*
X01389000Y01842000D02*
X01389000Y01902000D01*
X01211000Y01902000D02*
X01211000Y01842000D01*
X01211000Y01708000D02*
X01211000Y01648000D01*
X01211000Y02098000D02*
X01211000Y02158000D01*
X01389000Y02158000D02*
X01389000Y02098000D01*
X01511000Y02098000D02*
X01511000Y02158000D01*
X01689000Y02158000D02*
X01689000Y02098000D01*
X01811000Y02098000D02*
X01811000Y02158000D01*
X01989000Y02158000D02*
X01989000Y02098000D01*
X02111000Y02098000D02*
X02111000Y02158000D01*
X02289000Y02158000D02*
X02289000Y02098000D01*
X00130000Y02100000D02*
X00070000Y02100000D01*
X00070000Y02200000D02*
X00130000Y02200000D01*
X00130000Y02300000D02*
X00070000Y02300000D01*
X00070000Y02400000D02*
X00130000Y02400000D01*
X00130000Y02000000D02*
X00070000Y02000000D01*
X00070000Y01900000D02*
X00130000Y01900000D01*
X00130000Y01800000D02*
X00070000Y01800000D01*
X00070000Y01700000D02*
X00130000Y01700000D01*
D12*
X00150000Y00745000D03*
X00150000Y00555000D03*
D13*
X00100000Y01050000D03*
X00150000Y01250000D03*
X01300000Y00800000D03*
X01500000Y01100000D03*
X01400000Y01550000D03*
X01450000Y02050000D03*
X01300000Y02200000D03*
X01300000Y02400000D03*
X01750000Y02200000D03*
X01900000Y02400000D03*
X02000000Y02400000D03*
X01850000Y02550000D03*
X02050000Y02200000D03*
X02100000Y02000000D03*
X02200000Y01250000D03*
M02*
