G75*
%MOIN*%
%OFA0B0*%
%FSLAX26Y26*%
%IPPOS*%
%LPD*%
%AMOC8*
5,1,8,0,0,1.08239X$1,22.5*
%
%ADD10C,0.000000*%
%ADD11C,0.005118*%
%ADD12C,0.006000*%
%ADD13C,0.010000*%
%ADD14C,0.005000*%
%ADD15C,0.008000*%
%ADD16C,0.004000*%
%ADD17R,0.116142X0.171260*%
%ADD18C,0.007000*%
%ADD19R,0.020000X0.020000*%
%ADD20C,0.016000*%
%ADD21R,0.016000X0.023000*%
%ADD22C,0.012000*%
%ADD23C,0.002000*%
D10*
X00000000Y00000000D02*
X00000000Y01187106D01*
X02974508Y01187106D01*
X02974508Y00000000D01*
X00000000Y00000000D01*
X-00188091Y01089764D02*
X-00188076Y01090972D01*
X-00188032Y01092179D01*
X-00187958Y01093384D01*
X-00187854Y01094588D01*
X-00187721Y01095788D01*
X-00187558Y01096985D01*
X-00187366Y01098178D01*
X-00187145Y01099365D01*
X-00186895Y01100547D01*
X-00186616Y01101722D01*
X-00186308Y01102890D01*
X-00185972Y01104050D01*
X-00185607Y01105201D01*
X-00185214Y01106343D01*
X-00184793Y01107476D01*
X-00184345Y01108597D01*
X-00183869Y01109707D01*
X-00183366Y01110805D01*
X-00182836Y01111891D01*
X-00182280Y01112963D01*
X-00181698Y01114021D01*
X-00181089Y01115065D01*
X-00180456Y01116093D01*
X-00179797Y01117105D01*
X-00179114Y01118101D01*
X-00178406Y01119080D01*
X-00177675Y01120041D01*
X-00176920Y01120984D01*
X-00176143Y01121909D01*
X-00175342Y01122813D01*
X-00174520Y01123698D01*
X-00173677Y01124563D01*
X-00172812Y01125406D01*
X-00171927Y01126228D01*
X-00171023Y01127029D01*
X-00170098Y01127806D01*
X-00169155Y01128561D01*
X-00168194Y01129292D01*
X-00167215Y01130000D01*
X-00166219Y01130683D01*
X-00165207Y01131342D01*
X-00164179Y01131975D01*
X-00163135Y01132584D01*
X-00162077Y01133166D01*
X-00161005Y01133722D01*
X-00159919Y01134252D01*
X-00158821Y01134755D01*
X-00157711Y01135231D01*
X-00156590Y01135679D01*
X-00155457Y01136100D01*
X-00154315Y01136493D01*
X-00153164Y01136858D01*
X-00152004Y01137194D01*
X-00150836Y01137502D01*
X-00149661Y01137781D01*
X-00148479Y01138031D01*
X-00147292Y01138252D01*
X-00146099Y01138444D01*
X-00144902Y01138607D01*
X-00143702Y01138740D01*
X-00142498Y01138844D01*
X-00141293Y01138918D01*
X-00140086Y01138962D01*
X-00138878Y01138977D01*
X-00137670Y01138962D01*
X-00136463Y01138918D01*
X-00135258Y01138844D01*
X-00134054Y01138740D01*
X-00132854Y01138607D01*
X-00131657Y01138444D01*
X-00130464Y01138252D01*
X-00129277Y01138031D01*
X-00128095Y01137781D01*
X-00126920Y01137502D01*
X-00125752Y01137194D01*
X-00124592Y01136858D01*
X-00123441Y01136493D01*
X-00122299Y01136100D01*
X-00121166Y01135679D01*
X-00120045Y01135231D01*
X-00118935Y01134755D01*
X-00117837Y01134252D01*
X-00116751Y01133722D01*
X-00115679Y01133166D01*
X-00114621Y01132584D01*
X-00113577Y01131975D01*
X-00112549Y01131342D01*
X-00111537Y01130683D01*
X-00110541Y01130000D01*
X-00109562Y01129292D01*
X-00108601Y01128561D01*
X-00107658Y01127806D01*
X-00106733Y01127029D01*
X-00105829Y01126228D01*
X-00104944Y01125406D01*
X-00104079Y01124563D01*
X-00103236Y01123698D01*
X-00102414Y01122813D01*
X-00101613Y01121909D01*
X-00100836Y01120984D01*
X-00100081Y01120041D01*
X-00099350Y01119080D01*
X-00098642Y01118101D01*
X-00097959Y01117105D01*
X-00097300Y01116093D01*
X-00096667Y01115065D01*
X-00096058Y01114021D01*
X-00095476Y01112963D01*
X-00094920Y01111891D01*
X-00094390Y01110805D01*
X-00093887Y01109707D01*
X-00093411Y01108597D01*
X-00092963Y01107476D01*
X-00092542Y01106343D01*
X-00092149Y01105201D01*
X-00091784Y01104050D01*
X-00091448Y01102890D01*
X-00091140Y01101722D01*
X-00090861Y01100547D01*
X-00090611Y01099365D01*
X-00090390Y01098178D01*
X-00090198Y01096985D01*
X-00090035Y01095788D01*
X-00089902Y01094588D01*
X-00089798Y01093384D01*
X-00089724Y01092179D01*
X-00089680Y01090972D01*
X-00089665Y01089764D01*
X-00089680Y01088556D01*
X-00089724Y01087349D01*
X-00089798Y01086144D01*
X-00089902Y01084940D01*
X-00090035Y01083740D01*
X-00090198Y01082543D01*
X-00090390Y01081350D01*
X-00090611Y01080163D01*
X-00090861Y01078981D01*
X-00091140Y01077806D01*
X-00091448Y01076638D01*
X-00091784Y01075478D01*
X-00092149Y01074327D01*
X-00092542Y01073185D01*
X-00092963Y01072052D01*
X-00093411Y01070931D01*
X-00093887Y01069821D01*
X-00094390Y01068723D01*
X-00094920Y01067637D01*
X-00095476Y01066565D01*
X-00096058Y01065507D01*
X-00096667Y01064463D01*
X-00097300Y01063435D01*
X-00097959Y01062423D01*
X-00098642Y01061427D01*
X-00099350Y01060448D01*
X-00100081Y01059487D01*
X-00100836Y01058544D01*
X-00101613Y01057619D01*
X-00102414Y01056715D01*
X-00103236Y01055830D01*
X-00104079Y01054965D01*
X-00104944Y01054122D01*
X-00105829Y01053300D01*
X-00106733Y01052499D01*
X-00107658Y01051722D01*
X-00108601Y01050967D01*
X-00109562Y01050236D01*
X-00110541Y01049528D01*
X-00111537Y01048845D01*
X-00112549Y01048186D01*
X-00113577Y01047553D01*
X-00114621Y01046944D01*
X-00115679Y01046362D01*
X-00116751Y01045806D01*
X-00117837Y01045276D01*
X-00118935Y01044773D01*
X-00120045Y01044297D01*
X-00121166Y01043849D01*
X-00122299Y01043428D01*
X-00123441Y01043035D01*
X-00124592Y01042670D01*
X-00125752Y01042334D01*
X-00126920Y01042026D01*
X-00128095Y01041747D01*
X-00129277Y01041497D01*
X-00130464Y01041276D01*
X-00131657Y01041084D01*
X-00132854Y01040921D01*
X-00134054Y01040788D01*
X-00135258Y01040684D01*
X-00136463Y01040610D01*
X-00137670Y01040566D01*
X-00138878Y01040551D01*
X-00140086Y01040566D01*
X-00141293Y01040610D01*
X-00142498Y01040684D01*
X-00143702Y01040788D01*
X-00144902Y01040921D01*
X-00146099Y01041084D01*
X-00147292Y01041276D01*
X-00148479Y01041497D01*
X-00149661Y01041747D01*
X-00150836Y01042026D01*
X-00152004Y01042334D01*
X-00153164Y01042670D01*
X-00154315Y01043035D01*
X-00155457Y01043428D01*
X-00156590Y01043849D01*
X-00157711Y01044297D01*
X-00158821Y01044773D01*
X-00159919Y01045276D01*
X-00161005Y01045806D01*
X-00162077Y01046362D01*
X-00163135Y01046944D01*
X-00164179Y01047553D01*
X-00165207Y01048186D01*
X-00166219Y01048845D01*
X-00167215Y01049528D01*
X-00168194Y01050236D01*
X-00169155Y01050967D01*
X-00170098Y01051722D01*
X-00171023Y01052499D01*
X-00171927Y01053300D01*
X-00172812Y01054122D01*
X-00173677Y01054965D01*
X-00174520Y01055830D01*
X-00175342Y01056715D01*
X-00176143Y01057619D01*
X-00176920Y01058544D01*
X-00177675Y01059487D01*
X-00178406Y01060448D01*
X-00179114Y01061427D01*
X-00179797Y01062423D01*
X-00180456Y01063435D01*
X-00181089Y01064463D01*
X-00181698Y01065507D01*
X-00182280Y01066565D01*
X-00182836Y01067637D01*
X-00183366Y01068723D01*
X-00183869Y01069821D01*
X-00184345Y01070931D01*
X-00184793Y01072052D01*
X-00185214Y01073185D01*
X-00185607Y01074327D01*
X-00185972Y01075478D01*
X-00186308Y01076638D01*
X-00186616Y01077806D01*
X-00186895Y01078981D01*
X-00187145Y01080163D01*
X-00187366Y01081350D01*
X-00187558Y01082543D01*
X-00187721Y01083740D01*
X-00187854Y01084940D01*
X-00187958Y01086144D01*
X-00188032Y01087349D01*
X-00188076Y01088556D01*
X-00188091Y01089764D01*
X-00188091Y02310236D02*
X-00188076Y02311444D01*
X-00188032Y02312651D01*
X-00187958Y02313856D01*
X-00187854Y02315060D01*
X-00187721Y02316260D01*
X-00187558Y02317457D01*
X-00187366Y02318650D01*
X-00187145Y02319837D01*
X-00186895Y02321019D01*
X-00186616Y02322194D01*
X-00186308Y02323362D01*
X-00185972Y02324522D01*
X-00185607Y02325673D01*
X-00185214Y02326815D01*
X-00184793Y02327948D01*
X-00184345Y02329069D01*
X-00183869Y02330179D01*
X-00183366Y02331277D01*
X-00182836Y02332363D01*
X-00182280Y02333435D01*
X-00181698Y02334493D01*
X-00181089Y02335537D01*
X-00180456Y02336565D01*
X-00179797Y02337577D01*
X-00179114Y02338573D01*
X-00178406Y02339552D01*
X-00177675Y02340513D01*
X-00176920Y02341456D01*
X-00176143Y02342381D01*
X-00175342Y02343285D01*
X-00174520Y02344170D01*
X-00173677Y02345035D01*
X-00172812Y02345878D01*
X-00171927Y02346700D01*
X-00171023Y02347501D01*
X-00170098Y02348278D01*
X-00169155Y02349033D01*
X-00168194Y02349764D01*
X-00167215Y02350472D01*
X-00166219Y02351155D01*
X-00165207Y02351814D01*
X-00164179Y02352447D01*
X-00163135Y02353056D01*
X-00162077Y02353638D01*
X-00161005Y02354194D01*
X-00159919Y02354724D01*
X-00158821Y02355227D01*
X-00157711Y02355703D01*
X-00156590Y02356151D01*
X-00155457Y02356572D01*
X-00154315Y02356965D01*
X-00153164Y02357330D01*
X-00152004Y02357666D01*
X-00150836Y02357974D01*
X-00149661Y02358253D01*
X-00148479Y02358503D01*
X-00147292Y02358724D01*
X-00146099Y02358916D01*
X-00144902Y02359079D01*
X-00143702Y02359212D01*
X-00142498Y02359316D01*
X-00141293Y02359390D01*
X-00140086Y02359434D01*
X-00138878Y02359449D01*
X-00137670Y02359434D01*
X-00136463Y02359390D01*
X-00135258Y02359316D01*
X-00134054Y02359212D01*
X-00132854Y02359079D01*
X-00131657Y02358916D01*
X-00130464Y02358724D01*
X-00129277Y02358503D01*
X-00128095Y02358253D01*
X-00126920Y02357974D01*
X-00125752Y02357666D01*
X-00124592Y02357330D01*
X-00123441Y02356965D01*
X-00122299Y02356572D01*
X-00121166Y02356151D01*
X-00120045Y02355703D01*
X-00118935Y02355227D01*
X-00117837Y02354724D01*
X-00116751Y02354194D01*
X-00115679Y02353638D01*
X-00114621Y02353056D01*
X-00113577Y02352447D01*
X-00112549Y02351814D01*
X-00111537Y02351155D01*
X-00110541Y02350472D01*
X-00109562Y02349764D01*
X-00108601Y02349033D01*
X-00107658Y02348278D01*
X-00106733Y02347501D01*
X-00105829Y02346700D01*
X-00104944Y02345878D01*
X-00104079Y02345035D01*
X-00103236Y02344170D01*
X-00102414Y02343285D01*
X-00101613Y02342381D01*
X-00100836Y02341456D01*
X-00100081Y02340513D01*
X-00099350Y02339552D01*
X-00098642Y02338573D01*
X-00097959Y02337577D01*
X-00097300Y02336565D01*
X-00096667Y02335537D01*
X-00096058Y02334493D01*
X-00095476Y02333435D01*
X-00094920Y02332363D01*
X-00094390Y02331277D01*
X-00093887Y02330179D01*
X-00093411Y02329069D01*
X-00092963Y02327948D01*
X-00092542Y02326815D01*
X-00092149Y02325673D01*
X-00091784Y02324522D01*
X-00091448Y02323362D01*
X-00091140Y02322194D01*
X-00090861Y02321019D01*
X-00090611Y02319837D01*
X-00090390Y02318650D01*
X-00090198Y02317457D01*
X-00090035Y02316260D01*
X-00089902Y02315060D01*
X-00089798Y02313856D01*
X-00089724Y02312651D01*
X-00089680Y02311444D01*
X-00089665Y02310236D01*
X-00089680Y02309028D01*
X-00089724Y02307821D01*
X-00089798Y02306616D01*
X-00089902Y02305412D01*
X-00090035Y02304212D01*
X-00090198Y02303015D01*
X-00090390Y02301822D01*
X-00090611Y02300635D01*
X-00090861Y02299453D01*
X-00091140Y02298278D01*
X-00091448Y02297110D01*
X-00091784Y02295950D01*
X-00092149Y02294799D01*
X-00092542Y02293657D01*
X-00092963Y02292524D01*
X-00093411Y02291403D01*
X-00093887Y02290293D01*
X-00094390Y02289195D01*
X-00094920Y02288109D01*
X-00095476Y02287037D01*
X-00096058Y02285979D01*
X-00096667Y02284935D01*
X-00097300Y02283907D01*
X-00097959Y02282895D01*
X-00098642Y02281899D01*
X-00099350Y02280920D01*
X-00100081Y02279959D01*
X-00100836Y02279016D01*
X-00101613Y02278091D01*
X-00102414Y02277187D01*
X-00103236Y02276302D01*
X-00104079Y02275437D01*
X-00104944Y02274594D01*
X-00105829Y02273772D01*
X-00106733Y02272971D01*
X-00107658Y02272194D01*
X-00108601Y02271439D01*
X-00109562Y02270708D01*
X-00110541Y02270000D01*
X-00111537Y02269317D01*
X-00112549Y02268658D01*
X-00113577Y02268025D01*
X-00114621Y02267416D01*
X-00115679Y02266834D01*
X-00116751Y02266278D01*
X-00117837Y02265748D01*
X-00118935Y02265245D01*
X-00120045Y02264769D01*
X-00121166Y02264321D01*
X-00122299Y02263900D01*
X-00123441Y02263507D01*
X-00124592Y02263142D01*
X-00125752Y02262806D01*
X-00126920Y02262498D01*
X-00128095Y02262219D01*
X-00129277Y02261969D01*
X-00130464Y02261748D01*
X-00131657Y02261556D01*
X-00132854Y02261393D01*
X-00134054Y02261260D01*
X-00135258Y02261156D01*
X-00136463Y02261082D01*
X-00137670Y02261038D01*
X-00138878Y02261023D01*
X-00140086Y02261038D01*
X-00141293Y02261082D01*
X-00142498Y02261156D01*
X-00143702Y02261260D01*
X-00144902Y02261393D01*
X-00146099Y02261556D01*
X-00147292Y02261748D01*
X-00148479Y02261969D01*
X-00149661Y02262219D01*
X-00150836Y02262498D01*
X-00152004Y02262806D01*
X-00153164Y02263142D01*
X-00154315Y02263507D01*
X-00155457Y02263900D01*
X-00156590Y02264321D01*
X-00157711Y02264769D01*
X-00158821Y02265245D01*
X-00159919Y02265748D01*
X-00161005Y02266278D01*
X-00162077Y02266834D01*
X-00163135Y02267416D01*
X-00164179Y02268025D01*
X-00165207Y02268658D01*
X-00166219Y02269317D01*
X-00167215Y02270000D01*
X-00168194Y02270708D01*
X-00169155Y02271439D01*
X-00170098Y02272194D01*
X-00171023Y02272971D01*
X-00171927Y02273772D01*
X-00172812Y02274594D01*
X-00173677Y02275437D01*
X-00174520Y02276302D01*
X-00175342Y02277187D01*
X-00176143Y02278091D01*
X-00176920Y02279016D01*
X-00177675Y02279959D01*
X-00178406Y02280920D01*
X-00179114Y02281899D01*
X-00179797Y02282895D01*
X-00180456Y02283907D01*
X-00181089Y02284935D01*
X-00181698Y02285979D01*
X-00182280Y02287037D01*
X-00182836Y02288109D01*
X-00183366Y02289195D01*
X-00183869Y02290293D01*
X-00184345Y02291403D01*
X-00184793Y02292524D01*
X-00185214Y02293657D01*
X-00185607Y02294799D01*
X-00185972Y02295950D01*
X-00186308Y02297110D01*
X-00186616Y02298278D01*
X-00186895Y02299453D01*
X-00187145Y02300635D01*
X-00187366Y02301822D01*
X-00187558Y02303015D01*
X-00187721Y02304212D01*
X-00187854Y02305412D01*
X-00187958Y02306616D01*
X-00188032Y02307821D01*
X-00188076Y02309028D01*
X-00188091Y02310236D01*
X02764665Y02310236D02*
X02764680Y02311444D01*
X02764724Y02312651D01*
X02764798Y02313856D01*
X02764902Y02315060D01*
X02765035Y02316260D01*
X02765198Y02317457D01*
X02765390Y02318650D01*
X02765611Y02319837D01*
X02765861Y02321019D01*
X02766140Y02322194D01*
X02766448Y02323362D01*
X02766784Y02324522D01*
X02767149Y02325673D01*
X02767542Y02326815D01*
X02767963Y02327948D01*
X02768411Y02329069D01*
X02768887Y02330179D01*
X02769390Y02331277D01*
X02769920Y02332363D01*
X02770476Y02333435D01*
X02771058Y02334493D01*
X02771667Y02335537D01*
X02772300Y02336565D01*
X02772959Y02337577D01*
X02773642Y02338573D01*
X02774350Y02339552D01*
X02775081Y02340513D01*
X02775836Y02341456D01*
X02776613Y02342381D01*
X02777414Y02343285D01*
X02778236Y02344170D01*
X02779079Y02345035D01*
X02779944Y02345878D01*
X02780829Y02346700D01*
X02781733Y02347501D01*
X02782658Y02348278D01*
X02783601Y02349033D01*
X02784562Y02349764D01*
X02785541Y02350472D01*
X02786537Y02351155D01*
X02787549Y02351814D01*
X02788577Y02352447D01*
X02789621Y02353056D01*
X02790679Y02353638D01*
X02791751Y02354194D01*
X02792837Y02354724D01*
X02793935Y02355227D01*
X02795045Y02355703D01*
X02796166Y02356151D01*
X02797299Y02356572D01*
X02798441Y02356965D01*
X02799592Y02357330D01*
X02800752Y02357666D01*
X02801920Y02357974D01*
X02803095Y02358253D01*
X02804277Y02358503D01*
X02805464Y02358724D01*
X02806657Y02358916D01*
X02807854Y02359079D01*
X02809054Y02359212D01*
X02810258Y02359316D01*
X02811463Y02359390D01*
X02812670Y02359434D01*
X02813878Y02359449D01*
X02815086Y02359434D01*
X02816293Y02359390D01*
X02817498Y02359316D01*
X02818702Y02359212D01*
X02819902Y02359079D01*
X02821099Y02358916D01*
X02822292Y02358724D01*
X02823479Y02358503D01*
X02824661Y02358253D01*
X02825836Y02357974D01*
X02827004Y02357666D01*
X02828164Y02357330D01*
X02829315Y02356965D01*
X02830457Y02356572D01*
X02831590Y02356151D01*
X02832711Y02355703D01*
X02833821Y02355227D01*
X02834919Y02354724D01*
X02836005Y02354194D01*
X02837077Y02353638D01*
X02838135Y02353056D01*
X02839179Y02352447D01*
X02840207Y02351814D01*
X02841219Y02351155D01*
X02842215Y02350472D01*
X02843194Y02349764D01*
X02844155Y02349033D01*
X02845098Y02348278D01*
X02846023Y02347501D01*
X02846927Y02346700D01*
X02847812Y02345878D01*
X02848677Y02345035D01*
X02849520Y02344170D01*
X02850342Y02343285D01*
X02851143Y02342381D01*
X02851920Y02341456D01*
X02852675Y02340513D01*
X02853406Y02339552D01*
X02854114Y02338573D01*
X02854797Y02337577D01*
X02855456Y02336565D01*
X02856089Y02335537D01*
X02856698Y02334493D01*
X02857280Y02333435D01*
X02857836Y02332363D01*
X02858366Y02331277D01*
X02858869Y02330179D01*
X02859345Y02329069D01*
X02859793Y02327948D01*
X02860214Y02326815D01*
X02860607Y02325673D01*
X02860972Y02324522D01*
X02861308Y02323362D01*
X02861616Y02322194D01*
X02861895Y02321019D01*
X02862145Y02319837D01*
X02862366Y02318650D01*
X02862558Y02317457D01*
X02862721Y02316260D01*
X02862854Y02315060D01*
X02862958Y02313856D01*
X02863032Y02312651D01*
X02863076Y02311444D01*
X02863091Y02310236D01*
X02863076Y02309028D01*
X02863032Y02307821D01*
X02862958Y02306616D01*
X02862854Y02305412D01*
X02862721Y02304212D01*
X02862558Y02303015D01*
X02862366Y02301822D01*
X02862145Y02300635D01*
X02861895Y02299453D01*
X02861616Y02298278D01*
X02861308Y02297110D01*
X02860972Y02295950D01*
X02860607Y02294799D01*
X02860214Y02293657D01*
X02859793Y02292524D01*
X02859345Y02291403D01*
X02858869Y02290293D01*
X02858366Y02289195D01*
X02857836Y02288109D01*
X02857280Y02287037D01*
X02856698Y02285979D01*
X02856089Y02284935D01*
X02855456Y02283907D01*
X02854797Y02282895D01*
X02854114Y02281899D01*
X02853406Y02280920D01*
X02852675Y02279959D01*
X02851920Y02279016D01*
X02851143Y02278091D01*
X02850342Y02277187D01*
X02849520Y02276302D01*
X02848677Y02275437D01*
X02847812Y02274594D01*
X02846927Y02273772D01*
X02846023Y02272971D01*
X02845098Y02272194D01*
X02844155Y02271439D01*
X02843194Y02270708D01*
X02842215Y02270000D01*
X02841219Y02269317D01*
X02840207Y02268658D01*
X02839179Y02268025D01*
X02838135Y02267416D01*
X02837077Y02266834D01*
X02836005Y02266278D01*
X02834919Y02265748D01*
X02833821Y02265245D01*
X02832711Y02264769D01*
X02831590Y02264321D01*
X02830457Y02263900D01*
X02829315Y02263507D01*
X02828164Y02263142D01*
X02827004Y02262806D01*
X02825836Y02262498D01*
X02824661Y02262219D01*
X02823479Y02261969D01*
X02822292Y02261748D01*
X02821099Y02261556D01*
X02819902Y02261393D01*
X02818702Y02261260D01*
X02817498Y02261156D01*
X02816293Y02261082D01*
X02815086Y02261038D01*
X02813878Y02261023D01*
X02812670Y02261038D01*
X02811463Y02261082D01*
X02810258Y02261156D01*
X02809054Y02261260D01*
X02807854Y02261393D01*
X02806657Y02261556D01*
X02805464Y02261748D01*
X02804277Y02261969D01*
X02803095Y02262219D01*
X02801920Y02262498D01*
X02800752Y02262806D01*
X02799592Y02263142D01*
X02798441Y02263507D01*
X02797299Y02263900D01*
X02796166Y02264321D01*
X02795045Y02264769D01*
X02793935Y02265245D01*
X02792837Y02265748D01*
X02791751Y02266278D01*
X02790679Y02266834D01*
X02789621Y02267416D01*
X02788577Y02268025D01*
X02787549Y02268658D01*
X02786537Y02269317D01*
X02785541Y02270000D01*
X02784562Y02270708D01*
X02783601Y02271439D01*
X02782658Y02272194D01*
X02781733Y02272971D01*
X02780829Y02273772D01*
X02779944Y02274594D01*
X02779079Y02275437D01*
X02778236Y02276302D01*
X02777414Y02277187D01*
X02776613Y02278091D01*
X02775836Y02279016D01*
X02775081Y02279959D01*
X02774350Y02280920D01*
X02773642Y02281899D01*
X02772959Y02282895D01*
X02772300Y02283907D01*
X02771667Y02284935D01*
X02771058Y02285979D01*
X02770476Y02287037D01*
X02769920Y02288109D01*
X02769390Y02289195D01*
X02768887Y02290293D01*
X02768411Y02291403D01*
X02767963Y02292524D01*
X02767542Y02293657D01*
X02767149Y02294799D01*
X02766784Y02295950D01*
X02766448Y02297110D01*
X02766140Y02298278D01*
X02765861Y02299453D01*
X02765611Y02300635D01*
X02765390Y02301822D01*
X02765198Y02303015D01*
X02765035Y02304212D01*
X02764902Y02305412D01*
X02764798Y02306616D01*
X02764724Y02307821D01*
X02764680Y02309028D01*
X02764665Y02310236D01*
X02764665Y01089764D02*
X02764680Y01090972D01*
X02764724Y01092179D01*
X02764798Y01093384D01*
X02764902Y01094588D01*
X02765035Y01095788D01*
X02765198Y01096985D01*
X02765390Y01098178D01*
X02765611Y01099365D01*
X02765861Y01100547D01*
X02766140Y01101722D01*
X02766448Y01102890D01*
X02766784Y01104050D01*
X02767149Y01105201D01*
X02767542Y01106343D01*
X02767963Y01107476D01*
X02768411Y01108597D01*
X02768887Y01109707D01*
X02769390Y01110805D01*
X02769920Y01111891D01*
X02770476Y01112963D01*
X02771058Y01114021D01*
X02771667Y01115065D01*
X02772300Y01116093D01*
X02772959Y01117105D01*
X02773642Y01118101D01*
X02774350Y01119080D01*
X02775081Y01120041D01*
X02775836Y01120984D01*
X02776613Y01121909D01*
X02777414Y01122813D01*
X02778236Y01123698D01*
X02779079Y01124563D01*
X02779944Y01125406D01*
X02780829Y01126228D01*
X02781733Y01127029D01*
X02782658Y01127806D01*
X02783601Y01128561D01*
X02784562Y01129292D01*
X02785541Y01130000D01*
X02786537Y01130683D01*
X02787549Y01131342D01*
X02788577Y01131975D01*
X02789621Y01132584D01*
X02790679Y01133166D01*
X02791751Y01133722D01*
X02792837Y01134252D01*
X02793935Y01134755D01*
X02795045Y01135231D01*
X02796166Y01135679D01*
X02797299Y01136100D01*
X02798441Y01136493D01*
X02799592Y01136858D01*
X02800752Y01137194D01*
X02801920Y01137502D01*
X02803095Y01137781D01*
X02804277Y01138031D01*
X02805464Y01138252D01*
X02806657Y01138444D01*
X02807854Y01138607D01*
X02809054Y01138740D01*
X02810258Y01138844D01*
X02811463Y01138918D01*
X02812670Y01138962D01*
X02813878Y01138977D01*
X02815086Y01138962D01*
X02816293Y01138918D01*
X02817498Y01138844D01*
X02818702Y01138740D01*
X02819902Y01138607D01*
X02821099Y01138444D01*
X02822292Y01138252D01*
X02823479Y01138031D01*
X02824661Y01137781D01*
X02825836Y01137502D01*
X02827004Y01137194D01*
X02828164Y01136858D01*
X02829315Y01136493D01*
X02830457Y01136100D01*
X02831590Y01135679D01*
X02832711Y01135231D01*
X02833821Y01134755D01*
X02834919Y01134252D01*
X02836005Y01133722D01*
X02837077Y01133166D01*
X02838135Y01132584D01*
X02839179Y01131975D01*
X02840207Y01131342D01*
X02841219Y01130683D01*
X02842215Y01130000D01*
X02843194Y01129292D01*
X02844155Y01128561D01*
X02845098Y01127806D01*
X02846023Y01127029D01*
X02846927Y01126228D01*
X02847812Y01125406D01*
X02848677Y01124563D01*
X02849520Y01123698D01*
X02850342Y01122813D01*
X02851143Y01121909D01*
X02851920Y01120984D01*
X02852675Y01120041D01*
X02853406Y01119080D01*
X02854114Y01118101D01*
X02854797Y01117105D01*
X02855456Y01116093D01*
X02856089Y01115065D01*
X02856698Y01114021D01*
X02857280Y01112963D01*
X02857836Y01111891D01*
X02858366Y01110805D01*
X02858869Y01109707D01*
X02859345Y01108597D01*
X02859793Y01107476D01*
X02860214Y01106343D01*
X02860607Y01105201D01*
X02860972Y01104050D01*
X02861308Y01102890D01*
X02861616Y01101722D01*
X02861895Y01100547D01*
X02862145Y01099365D01*
X02862366Y01098178D01*
X02862558Y01096985D01*
X02862721Y01095788D01*
X02862854Y01094588D01*
X02862958Y01093384D01*
X02863032Y01092179D01*
X02863076Y01090972D01*
X02863091Y01089764D01*
X02863076Y01088556D01*
X02863032Y01087349D01*
X02862958Y01086144D01*
X02862854Y01084940D01*
X02862721Y01083740D01*
X02862558Y01082543D01*
X02862366Y01081350D01*
X02862145Y01080163D01*
X02861895Y01078981D01*
X02861616Y01077806D01*
X02861308Y01076638D01*
X02860972Y01075478D01*
X02860607Y01074327D01*
X02860214Y01073185D01*
X02859793Y01072052D01*
X02859345Y01070931D01*
X02858869Y01069821D01*
X02858366Y01068723D01*
X02857836Y01067637D01*
X02857280Y01066565D01*
X02856698Y01065507D01*
X02856089Y01064463D01*
X02855456Y01063435D01*
X02854797Y01062423D01*
X02854114Y01061427D01*
X02853406Y01060448D01*
X02852675Y01059487D01*
X02851920Y01058544D01*
X02851143Y01057619D01*
X02850342Y01056715D01*
X02849520Y01055830D01*
X02848677Y01054965D01*
X02847812Y01054122D01*
X02846927Y01053300D01*
X02846023Y01052499D01*
X02845098Y01051722D01*
X02844155Y01050967D01*
X02843194Y01050236D01*
X02842215Y01049528D01*
X02841219Y01048845D01*
X02840207Y01048186D01*
X02839179Y01047553D01*
X02838135Y01046944D01*
X02837077Y01046362D01*
X02836005Y01045806D01*
X02834919Y01045276D01*
X02833821Y01044773D01*
X02832711Y01044297D01*
X02831590Y01043849D01*
X02830457Y01043428D01*
X02829315Y01043035D01*
X02828164Y01042670D01*
X02827004Y01042334D01*
X02825836Y01042026D01*
X02824661Y01041747D01*
X02823479Y01041497D01*
X02822292Y01041276D01*
X02821099Y01041084D01*
X02819902Y01040921D01*
X02818702Y01040788D01*
X02817498Y01040684D01*
X02816293Y01040610D01*
X02815086Y01040566D01*
X02813878Y01040551D01*
X02812670Y01040566D01*
X02811463Y01040610D01*
X02810258Y01040684D01*
X02809054Y01040788D01*
X02807854Y01040921D01*
X02806657Y01041084D01*
X02805464Y01041276D01*
X02804277Y01041497D01*
X02803095Y01041747D01*
X02801920Y01042026D01*
X02800752Y01042334D01*
X02799592Y01042670D01*
X02798441Y01043035D01*
X02797299Y01043428D01*
X02796166Y01043849D01*
X02795045Y01044297D01*
X02793935Y01044773D01*
X02792837Y01045276D01*
X02791751Y01045806D01*
X02790679Y01046362D01*
X02789621Y01046944D01*
X02788577Y01047553D01*
X02787549Y01048186D01*
X02786537Y01048845D01*
X02785541Y01049528D01*
X02784562Y01050236D01*
X02783601Y01050967D01*
X02782658Y01051722D01*
X02781733Y01052499D01*
X02780829Y01053300D01*
X02779944Y01054122D01*
X02779079Y01054965D01*
X02778236Y01055830D01*
X02777414Y01056715D01*
X02776613Y01057619D01*
X02775836Y01058544D01*
X02775081Y01059487D01*
X02774350Y01060448D01*
X02773642Y01061427D01*
X02772959Y01062423D01*
X02772300Y01063435D01*
X02771667Y01064463D01*
X02771058Y01065507D01*
X02770476Y01066565D01*
X02769920Y01067637D01*
X02769390Y01068723D01*
X02768887Y01069821D01*
X02768411Y01070931D01*
X02767963Y01072052D01*
X02767542Y01073185D01*
X02767149Y01074327D01*
X02766784Y01075478D01*
X02766448Y01076638D01*
X02766140Y01077806D01*
X02765861Y01078981D01*
X02765611Y01080163D01*
X02765390Y01081350D01*
X02765198Y01082543D01*
X02765035Y01083740D01*
X02764902Y01084940D01*
X02764798Y01086144D01*
X02764724Y01087349D01*
X02764680Y01088556D01*
X02764665Y01089764D01*
D11*
X00000000Y00000000D02*
X-00000876Y-00208491D01*
X00002006Y-00131731D02*
X00101765Y-00142387D01*
X00101755Y-00144719D02*
X00002006Y-00131731D01*
X00101851Y-00121914D01*
X00101861Y-00119582D02*
X00101755Y-00144719D01*
X00101786Y-00137269D02*
X00002006Y-00131731D01*
X00101829Y-00127032D01*
X00101861Y-00119582D02*
X00002006Y-00131731D01*
X02971887Y-00144210D01*
X02872042Y-00154026D01*
X02872032Y-00156359D02*
X02971887Y-00144210D01*
X02872128Y-00133554D01*
X02872138Y-00131222D02*
X02872032Y-00156359D01*
X02872064Y-00148908D02*
X02971887Y-00144210D01*
X02872107Y-00138672D01*
X02872138Y-00131222D02*
X02971887Y-00144210D01*
X02974124Y-00220991D02*
X02975000Y-00012500D01*
X02975000Y00000000D02*
X03214272Y00000000D01*
X03137500Y00002559D02*
X03147736Y00102362D01*
X03150069Y00102362D02*
X03137500Y00002559D01*
X03127264Y00102362D01*
X03124931Y00102362D02*
X03150069Y00102362D01*
X03142618Y00102362D02*
X03137500Y00002559D01*
X03132382Y00102362D01*
X03124931Y00102362D02*
X03137500Y00002559D01*
X03137500Y01184941D01*
X03147736Y01085138D01*
X03150069Y01085138D02*
X03137500Y01184941D01*
X03127264Y01085138D01*
X03124931Y01085138D02*
X03150069Y01085138D01*
X03142618Y01085138D02*
X03137500Y01184941D01*
X03132382Y01085138D01*
X03124931Y01085138D02*
X03137500Y01184941D01*
X03214272Y01187500D02*
X02975000Y01187500D01*
D12*
X02547500Y00800000D02*
X02537500Y00810000D01*
X02287500Y00810000D01*
X02277500Y00800000D01*
X02277500Y00665000D01*
X02277500Y00615000D02*
X02277500Y00550000D01*
X02287500Y00540000D01*
X02312500Y00540000D01*
X02537500Y00540000D01*
X02547500Y00550000D01*
X02547500Y00615000D01*
X02547500Y00665000D02*
X02547500Y00800000D01*
X02472500Y00705000D02*
X02442500Y00705000D01*
X02427500Y00720000D01*
X02427500Y00735000D01*
X02427500Y00765000D01*
X02397500Y00765000D01*
X02397500Y00735000D01*
X02397500Y00720000D01*
X02382500Y00705000D01*
X02352500Y00705000D01*
X02352500Y00675000D01*
X02382500Y00675000D01*
X02442500Y00675000D02*
X02472500Y00675000D01*
X02472500Y00705000D01*
X02427500Y00735000D02*
X02397500Y00735000D01*
X02312500Y00555000D02*
X02512500Y00555000D01*
X02512500Y00540000D01*
X02442500Y00455000D02*
X02382500Y00455000D01*
X02382500Y00445000D01*
X02372500Y00445000D01*
X02442500Y00445000D02*
X02452500Y00445000D01*
X02442500Y00445000D02*
X02442500Y00455000D01*
X02532500Y00410000D02*
X02532500Y00375000D01*
X02532500Y00275000D01*
X02532500Y00240000D01*
X02627500Y00245000D02*
X02637500Y00245000D01*
X02637500Y00255000D01*
X02637500Y00245000D02*
X02647500Y00245000D01*
X02637500Y00245000D02*
X02637500Y00235000D01*
X02587500Y00300000D02*
X02587530Y00302454D01*
X02587620Y00304907D01*
X02587771Y00307356D01*
X02587982Y00309802D01*
X02588252Y00312241D01*
X02588582Y00314673D01*
X02588972Y00317096D01*
X02589421Y00319509D01*
X02589930Y00321910D01*
X02590497Y00324298D01*
X02591122Y00326671D01*
X02591806Y00329028D01*
X02592547Y00331368D01*
X02593346Y00333689D01*
X02594201Y00335990D01*
X02595112Y00338268D01*
X02596079Y00340524D01*
X02597101Y00342756D01*
X02598178Y00344961D01*
X02599308Y00347140D01*
X02600491Y00349290D01*
X02601727Y00351410D01*
X02603015Y00353500D01*
X02604353Y00355557D01*
X02605742Y00357581D01*
X02607179Y00359570D01*
X02608665Y00361523D01*
X02610199Y00363439D01*
X02611779Y00365317D01*
X02613405Y00367156D01*
X02615075Y00368954D01*
X02616789Y00370711D01*
X02618546Y00372425D01*
X02620344Y00374095D01*
X02622183Y00375721D01*
X02624061Y00377301D01*
X02625977Y00378835D01*
X02627930Y00380321D01*
X02629919Y00381758D01*
X02631943Y00383147D01*
X02634000Y00384485D01*
X02636090Y00385773D01*
X02638210Y00387009D01*
X02640360Y00388192D01*
X02642539Y00389322D01*
X02644744Y00390399D01*
X02646976Y00391421D01*
X02649232Y00392388D01*
X02651510Y00393299D01*
X02653811Y00394154D01*
X02656132Y00394953D01*
X02658472Y00395694D01*
X02660829Y00396378D01*
X02663202Y00397003D01*
X02665590Y00397570D01*
X02667991Y00398079D01*
X02670404Y00398528D01*
X02672827Y00398918D01*
X02675259Y00399248D01*
X02677698Y00399518D01*
X02680144Y00399729D01*
X02682593Y00399880D01*
X02685046Y00399970D01*
X02687500Y00400000D01*
X02689954Y00399970D01*
X02692407Y00399880D01*
X02694856Y00399729D01*
X02697302Y00399518D01*
X02699741Y00399248D01*
X02702173Y00398918D01*
X02704596Y00398528D01*
X02707009Y00398079D01*
X02709410Y00397570D01*
X02711798Y00397003D01*
X02714171Y00396378D01*
X02716528Y00395694D01*
X02718868Y00394953D01*
X02721189Y00394154D01*
X02723490Y00393299D01*
X02725768Y00392388D01*
X02728024Y00391421D01*
X02730256Y00390399D01*
X02732461Y00389322D01*
X02734640Y00388192D01*
X02736790Y00387009D01*
X02738910Y00385773D01*
X02741000Y00384485D01*
X02743057Y00383147D01*
X02745081Y00381758D01*
X02747070Y00380321D01*
X02749023Y00378835D01*
X02750939Y00377301D01*
X02752817Y00375721D01*
X02754656Y00374095D01*
X02756454Y00372425D01*
X02758211Y00370711D01*
X02759925Y00368954D01*
X02761595Y00367156D01*
X02763221Y00365317D01*
X02764801Y00363439D01*
X02766335Y00361523D01*
X02767821Y00359570D01*
X02769258Y00357581D01*
X02770647Y00355557D01*
X02771985Y00353500D01*
X02773273Y00351410D01*
X02774509Y00349290D01*
X02775692Y00347140D01*
X02776822Y00344961D01*
X02777899Y00342756D01*
X02778921Y00340524D01*
X02779888Y00338268D01*
X02780799Y00335990D01*
X02781654Y00333689D01*
X02782453Y00331368D01*
X02783194Y00329028D01*
X02783878Y00326671D01*
X02784503Y00324298D01*
X02785070Y00321910D01*
X02785579Y00319509D01*
X02786028Y00317096D01*
X02786418Y00314673D01*
X02786748Y00312241D01*
X02787018Y00309802D01*
X02787229Y00307356D01*
X02787380Y00304907D01*
X02787470Y00302454D01*
X02787500Y00300000D01*
X02787470Y00297546D01*
X02787380Y00295093D01*
X02787229Y00292644D01*
X02787018Y00290198D01*
X02786748Y00287759D01*
X02786418Y00285327D01*
X02786028Y00282904D01*
X02785579Y00280491D01*
X02785070Y00278090D01*
X02784503Y00275702D01*
X02783878Y00273329D01*
X02783194Y00270972D01*
X02782453Y00268632D01*
X02781654Y00266311D01*
X02780799Y00264010D01*
X02779888Y00261732D01*
X02778921Y00259476D01*
X02777899Y00257244D01*
X02776822Y00255039D01*
X02775692Y00252860D01*
X02774509Y00250710D01*
X02773273Y00248590D01*
X02771985Y00246500D01*
X02770647Y00244443D01*
X02769258Y00242419D01*
X02767821Y00240430D01*
X02766335Y00238477D01*
X02764801Y00236561D01*
X02763221Y00234683D01*
X02761595Y00232844D01*
X02759925Y00231046D01*
X02758211Y00229289D01*
X02756454Y00227575D01*
X02754656Y00225905D01*
X02752817Y00224279D01*
X02750939Y00222699D01*
X02749023Y00221165D01*
X02747070Y00219679D01*
X02745081Y00218242D01*
X02743057Y00216853D01*
X02741000Y00215515D01*
X02738910Y00214227D01*
X02736790Y00212991D01*
X02734640Y00211808D01*
X02732461Y00210678D01*
X02730256Y00209601D01*
X02728024Y00208579D01*
X02725768Y00207612D01*
X02723490Y00206701D01*
X02721189Y00205846D01*
X02718868Y00205047D01*
X02716528Y00204306D01*
X02714171Y00203622D01*
X02711798Y00202997D01*
X02709410Y00202430D01*
X02707009Y00201921D01*
X02704596Y00201472D01*
X02702173Y00201082D01*
X02699741Y00200752D01*
X02697302Y00200482D01*
X02694856Y00200271D01*
X02692407Y00200120D01*
X02689954Y00200030D01*
X02687500Y00200000D01*
X02685046Y00200030D01*
X02682593Y00200120D01*
X02680144Y00200271D01*
X02677698Y00200482D01*
X02675259Y00200752D01*
X02672827Y00201082D01*
X02670404Y00201472D01*
X02667991Y00201921D01*
X02665590Y00202430D01*
X02663202Y00202997D01*
X02660829Y00203622D01*
X02658472Y00204306D01*
X02656132Y00205047D01*
X02653811Y00205846D01*
X02651510Y00206701D01*
X02649232Y00207612D01*
X02646976Y00208579D01*
X02644744Y00209601D01*
X02642539Y00210678D01*
X02640360Y00211808D01*
X02638210Y00212991D01*
X02636090Y00214227D01*
X02634000Y00215515D01*
X02631943Y00216853D01*
X02629919Y00218242D01*
X02627930Y00219679D01*
X02625977Y00221165D01*
X02624061Y00222699D01*
X02622183Y00224279D01*
X02620344Y00225905D01*
X02618546Y00227575D01*
X02616789Y00229289D01*
X02615075Y00231046D01*
X02613405Y00232844D01*
X02611779Y00234683D01*
X02610199Y00236561D01*
X02608665Y00238477D01*
X02607179Y00240430D01*
X02605742Y00242419D01*
X02604353Y00244443D01*
X02603015Y00246500D01*
X02601727Y00248590D01*
X02600491Y00250710D01*
X02599308Y00252860D01*
X02598178Y00255039D01*
X02597101Y00257244D01*
X02596079Y00259476D01*
X02595112Y00261732D01*
X02594201Y00264010D01*
X02593346Y00266311D01*
X02592547Y00268632D01*
X02591806Y00270972D01*
X02591122Y00273329D01*
X02590497Y00275702D01*
X02589930Y00278090D01*
X02589421Y00280491D01*
X02588972Y00282904D01*
X02588582Y00285327D01*
X02588252Y00287759D01*
X02587982Y00290198D01*
X02587771Y00292644D01*
X02587620Y00295093D01*
X02587530Y00297546D01*
X02587500Y00300000D01*
X02452500Y00205000D02*
X02442500Y00205000D01*
X02442500Y00195000D01*
X02382500Y00195000D01*
X02382500Y00205000D01*
X02372500Y00205000D01*
X02292500Y00240000D02*
X02292500Y00280000D01*
X02292500Y00375000D01*
X02292500Y00410000D01*
X02402500Y00325000D02*
X02402503Y00325245D01*
X02402512Y00325491D01*
X02402527Y00325736D01*
X02402548Y00325980D01*
X02402575Y00326224D01*
X02402608Y00326467D01*
X02402647Y00326710D01*
X02402692Y00326951D01*
X02402743Y00327191D01*
X02402800Y00327430D01*
X02402862Y00327667D01*
X02402931Y00327903D01*
X02403005Y00328137D01*
X02403085Y00328369D01*
X02403170Y00328599D01*
X02403261Y00328827D01*
X02403358Y00329052D01*
X02403460Y00329276D01*
X02403568Y00329496D01*
X02403681Y00329714D01*
X02403799Y00329929D01*
X02403923Y00330141D01*
X02404051Y00330350D01*
X02404185Y00330556D01*
X02404324Y00330758D01*
X02404468Y00330957D01*
X02404617Y00331152D01*
X02404770Y00331344D01*
X02404928Y00331532D01*
X02405090Y00331716D01*
X02405258Y00331895D01*
X02405429Y00332071D01*
X02405605Y00332242D01*
X02405784Y00332410D01*
X02405968Y00332572D01*
X02406156Y00332730D01*
X02406348Y00332883D01*
X02406543Y00333032D01*
X02406742Y00333176D01*
X02406944Y00333315D01*
X02407150Y00333449D01*
X02407359Y00333577D01*
X02407571Y00333701D01*
X02407786Y00333819D01*
X02408004Y00333932D01*
X02408224Y00334040D01*
X02408448Y00334142D01*
X02408673Y00334239D01*
X02408901Y00334330D01*
X02409131Y00334415D01*
X02409363Y00334495D01*
X02409597Y00334569D01*
X02409833Y00334638D01*
X02410070Y00334700D01*
X02410309Y00334757D01*
X02410549Y00334808D01*
X02410790Y00334853D01*
X02411033Y00334892D01*
X02411276Y00334925D01*
X02411520Y00334952D01*
X02411764Y00334973D01*
X02412009Y00334988D01*
X02412255Y00334997D01*
X02412500Y00335000D01*
X02412745Y00334997D01*
X02412991Y00334988D01*
X02413236Y00334973D01*
X02413480Y00334952D01*
X02413724Y00334925D01*
X02413967Y00334892D01*
X02414210Y00334853D01*
X02414451Y00334808D01*
X02414691Y00334757D01*
X02414930Y00334700D01*
X02415167Y00334638D01*
X02415403Y00334569D01*
X02415637Y00334495D01*
X02415869Y00334415D01*
X02416099Y00334330D01*
X02416327Y00334239D01*
X02416552Y00334142D01*
X02416776Y00334040D01*
X02416996Y00333932D01*
X02417214Y00333819D01*
X02417429Y00333701D01*
X02417641Y00333577D01*
X02417850Y00333449D01*
X02418056Y00333315D01*
X02418258Y00333176D01*
X02418457Y00333032D01*
X02418652Y00332883D01*
X02418844Y00332730D01*
X02419032Y00332572D01*
X02419216Y00332410D01*
X02419395Y00332242D01*
X02419571Y00332071D01*
X02419742Y00331895D01*
X02419910Y00331716D01*
X02420072Y00331532D01*
X02420230Y00331344D01*
X02420383Y00331152D01*
X02420532Y00330957D01*
X02420676Y00330758D01*
X02420815Y00330556D01*
X02420949Y00330350D01*
X02421077Y00330141D01*
X02421201Y00329929D01*
X02421319Y00329714D01*
X02421432Y00329496D01*
X02421540Y00329276D01*
X02421642Y00329052D01*
X02421739Y00328827D01*
X02421830Y00328599D01*
X02421915Y00328369D01*
X02421995Y00328137D01*
X02422069Y00327903D01*
X02422138Y00327667D01*
X02422200Y00327430D01*
X02422257Y00327191D01*
X02422308Y00326951D01*
X02422353Y00326710D01*
X02422392Y00326467D01*
X02422425Y00326224D01*
X02422452Y00325980D01*
X02422473Y00325736D01*
X02422488Y00325491D01*
X02422497Y00325245D01*
X02422500Y00325000D01*
X02422497Y00324755D01*
X02422488Y00324509D01*
X02422473Y00324264D01*
X02422452Y00324020D01*
X02422425Y00323776D01*
X02422392Y00323533D01*
X02422353Y00323290D01*
X02422308Y00323049D01*
X02422257Y00322809D01*
X02422200Y00322570D01*
X02422138Y00322333D01*
X02422069Y00322097D01*
X02421995Y00321863D01*
X02421915Y00321631D01*
X02421830Y00321401D01*
X02421739Y00321173D01*
X02421642Y00320948D01*
X02421540Y00320724D01*
X02421432Y00320504D01*
X02421319Y00320286D01*
X02421201Y00320071D01*
X02421077Y00319859D01*
X02420949Y00319650D01*
X02420815Y00319444D01*
X02420676Y00319242D01*
X02420532Y00319043D01*
X02420383Y00318848D01*
X02420230Y00318656D01*
X02420072Y00318468D01*
X02419910Y00318284D01*
X02419742Y00318105D01*
X02419571Y00317929D01*
X02419395Y00317758D01*
X02419216Y00317590D01*
X02419032Y00317428D01*
X02418844Y00317270D01*
X02418652Y00317117D01*
X02418457Y00316968D01*
X02418258Y00316824D01*
X02418056Y00316685D01*
X02417850Y00316551D01*
X02417641Y00316423D01*
X02417429Y00316299D01*
X02417214Y00316181D01*
X02416996Y00316068D01*
X02416776Y00315960D01*
X02416552Y00315858D01*
X02416327Y00315761D01*
X02416099Y00315670D01*
X02415869Y00315585D01*
X02415637Y00315505D01*
X02415403Y00315431D01*
X02415167Y00315362D01*
X02414930Y00315300D01*
X02414691Y00315243D01*
X02414451Y00315192D01*
X02414210Y00315147D01*
X02413967Y00315108D01*
X02413724Y00315075D01*
X02413480Y00315048D01*
X02413236Y00315027D01*
X02412991Y00315012D01*
X02412745Y00315003D01*
X02412500Y00315000D01*
X02412255Y00315003D01*
X02412009Y00315012D01*
X02411764Y00315027D01*
X02411520Y00315048D01*
X02411276Y00315075D01*
X02411033Y00315108D01*
X02410790Y00315147D01*
X02410549Y00315192D01*
X02410309Y00315243D01*
X02410070Y00315300D01*
X02409833Y00315362D01*
X02409597Y00315431D01*
X02409363Y00315505D01*
X02409131Y00315585D01*
X02408901Y00315670D01*
X02408673Y00315761D01*
X02408448Y00315858D01*
X02408224Y00315960D01*
X02408004Y00316068D01*
X02407786Y00316181D01*
X02407571Y00316299D01*
X02407359Y00316423D01*
X02407150Y00316551D01*
X02406944Y00316685D01*
X02406742Y00316824D01*
X02406543Y00316968D01*
X02406348Y00317117D01*
X02406156Y00317270D01*
X02405968Y00317428D01*
X02405784Y00317590D01*
X02405605Y00317758D01*
X02405429Y00317929D01*
X02405258Y00318105D01*
X02405090Y00318284D01*
X02404928Y00318468D01*
X02404770Y00318656D01*
X02404617Y00318848D01*
X02404468Y00319043D01*
X02404324Y00319242D01*
X02404185Y00319444D01*
X02404051Y00319650D01*
X02403923Y00319859D01*
X02403799Y00320071D01*
X02403681Y00320286D01*
X02403568Y00320504D01*
X02403460Y00320724D01*
X02403358Y00320948D01*
X02403261Y00321173D01*
X02403170Y00321401D01*
X02403085Y00321631D01*
X02403005Y00321863D01*
X02402931Y00322097D01*
X02402862Y00322333D01*
X02402800Y00322570D01*
X02402743Y00322809D01*
X02402692Y00323049D01*
X02402647Y00323290D01*
X02402608Y00323533D01*
X02402575Y00323776D01*
X02402548Y00324020D01*
X02402527Y00324264D01*
X02402512Y00324509D01*
X02402503Y00324755D01*
X02402500Y00325000D01*
X02342500Y00325000D02*
X02342521Y00326718D01*
X02342584Y00328435D01*
X02342690Y00330150D01*
X02342837Y00331861D01*
X02343026Y00333569D01*
X02343258Y00335271D01*
X02343531Y00336967D01*
X02343845Y00338656D01*
X02344201Y00340337D01*
X02344598Y00342009D01*
X02345036Y00343670D01*
X02345514Y00345320D01*
X02346033Y00346958D01*
X02346592Y00348582D01*
X02347191Y00350193D01*
X02347828Y00351788D01*
X02348505Y00353367D01*
X02349221Y00354929D01*
X02349974Y00356473D01*
X02350766Y00357998D01*
X02351594Y00359503D01*
X02352459Y00360987D01*
X02353360Y00362450D01*
X02354297Y00363890D01*
X02355269Y00365307D01*
X02356275Y00366699D01*
X02357316Y00368066D01*
X02358389Y00369408D01*
X02359495Y00370722D01*
X02360633Y00372009D01*
X02361803Y00373268D01*
X02363003Y00374497D01*
X02364232Y00375697D01*
X02365491Y00376867D01*
X02366778Y00378005D01*
X02368092Y00379111D01*
X02369434Y00380184D01*
X02370801Y00381225D01*
X02372193Y00382231D01*
X02373610Y00383203D01*
X02375050Y00384140D01*
X02376513Y00385041D01*
X02377997Y00385906D01*
X02379502Y00386734D01*
X02381027Y00387526D01*
X02382571Y00388279D01*
X02384133Y00388995D01*
X02385712Y00389672D01*
X02387307Y00390309D01*
X02388918Y00390908D01*
X02390542Y00391467D01*
X02392180Y00391986D01*
X02393830Y00392464D01*
X02395491Y00392902D01*
X02397163Y00393299D01*
X02398844Y00393655D01*
X02400533Y00393969D01*
X02402229Y00394242D01*
X02403931Y00394474D01*
X02405639Y00394663D01*
X02407350Y00394810D01*
X02409065Y00394916D01*
X02410782Y00394979D01*
X02412500Y00395000D01*
X02414218Y00394979D01*
X02415935Y00394916D01*
X02417650Y00394810D01*
X02419361Y00394663D01*
X02421069Y00394474D01*
X02422771Y00394242D01*
X02424467Y00393969D01*
X02426156Y00393655D01*
X02427837Y00393299D01*
X02429509Y00392902D01*
X02431170Y00392464D01*
X02432820Y00391986D01*
X02434458Y00391467D01*
X02436082Y00390908D01*
X02437693Y00390309D01*
X02439288Y00389672D01*
X02440867Y00388995D01*
X02442429Y00388279D01*
X02443973Y00387526D01*
X02445498Y00386734D01*
X02447003Y00385906D01*
X02448487Y00385041D01*
X02449950Y00384140D01*
X02451390Y00383203D01*
X02452807Y00382231D01*
X02454199Y00381225D01*
X02455566Y00380184D01*
X02456908Y00379111D01*
X02458222Y00378005D01*
X02459509Y00376867D01*
X02460768Y00375697D01*
X02461997Y00374497D01*
X02463197Y00373268D01*
X02464367Y00372009D01*
X02465505Y00370722D01*
X02466611Y00369408D01*
X02467684Y00368066D01*
X02468725Y00366699D01*
X02469731Y00365307D01*
X02470703Y00363890D01*
X02471640Y00362450D01*
X02472541Y00360987D01*
X02473406Y00359503D01*
X02474234Y00357998D01*
X02475026Y00356473D01*
X02475779Y00354929D01*
X02476495Y00353367D01*
X02477172Y00351788D01*
X02477809Y00350193D01*
X02478408Y00348582D01*
X02478967Y00346958D01*
X02479486Y00345320D01*
X02479964Y00343670D01*
X02480402Y00342009D01*
X02480799Y00340337D01*
X02481155Y00338656D01*
X02481469Y00336967D01*
X02481742Y00335271D01*
X02481974Y00333569D01*
X02482163Y00331861D01*
X02482310Y00330150D01*
X02482416Y00328435D01*
X02482479Y00326718D01*
X02482500Y00325000D01*
X02482479Y00323282D01*
X02482416Y00321565D01*
X02482310Y00319850D01*
X02482163Y00318139D01*
X02481974Y00316431D01*
X02481742Y00314729D01*
X02481469Y00313033D01*
X02481155Y00311344D01*
X02480799Y00309663D01*
X02480402Y00307991D01*
X02479964Y00306330D01*
X02479486Y00304680D01*
X02478967Y00303042D01*
X02478408Y00301418D01*
X02477809Y00299807D01*
X02477172Y00298212D01*
X02476495Y00296633D01*
X02475779Y00295071D01*
X02475026Y00293527D01*
X02474234Y00292002D01*
X02473406Y00290497D01*
X02472541Y00289013D01*
X02471640Y00287550D01*
X02470703Y00286110D01*
X02469731Y00284693D01*
X02468725Y00283301D01*
X02467684Y00281934D01*
X02466611Y00280592D01*
X02465505Y00279278D01*
X02464367Y00277991D01*
X02463197Y00276732D01*
X02461997Y00275503D01*
X02460768Y00274303D01*
X02459509Y00273133D01*
X02458222Y00271995D01*
X02456908Y00270889D01*
X02455566Y00269816D01*
X02454199Y00268775D01*
X02452807Y00267769D01*
X02451390Y00266797D01*
X02449950Y00265860D01*
X02448487Y00264959D01*
X02447003Y00264094D01*
X02445498Y00263266D01*
X02443973Y00262474D01*
X02442429Y00261721D01*
X02440867Y00261005D01*
X02439288Y00260328D01*
X02437693Y00259691D01*
X02436082Y00259092D01*
X02434458Y00258533D01*
X02432820Y00258014D01*
X02431170Y00257536D01*
X02429509Y00257098D01*
X02427837Y00256701D01*
X02426156Y00256345D01*
X02424467Y00256031D01*
X02422771Y00255758D01*
X02421069Y00255526D01*
X02419361Y00255337D01*
X02417650Y00255190D01*
X02415935Y00255084D01*
X02414218Y00255021D01*
X02412500Y00255000D01*
X02410782Y00255021D01*
X02409065Y00255084D01*
X02407350Y00255190D01*
X02405639Y00255337D01*
X02403931Y00255526D01*
X02402229Y00255758D01*
X02400533Y00256031D01*
X02398844Y00256345D01*
X02397163Y00256701D01*
X02395491Y00257098D01*
X02393830Y00257536D01*
X02392180Y00258014D01*
X02390542Y00258533D01*
X02388918Y00259092D01*
X02387307Y00259691D01*
X02385712Y00260328D01*
X02384133Y00261005D01*
X02382571Y00261721D01*
X02381027Y00262474D01*
X02379502Y00263266D01*
X02377997Y00264094D01*
X02376513Y00264959D01*
X02375050Y00265860D01*
X02373610Y00266797D01*
X02372193Y00267769D01*
X02370801Y00268775D01*
X02369434Y00269816D01*
X02368092Y00270889D01*
X02366778Y00271995D01*
X02365491Y00273133D01*
X02364232Y00274303D01*
X02363003Y00275503D01*
X02361803Y00276732D01*
X02360633Y00277991D01*
X02359495Y00279278D01*
X02358389Y00280592D01*
X02357316Y00281934D01*
X02356275Y00283301D01*
X02355269Y00284693D01*
X02354297Y00286110D01*
X02353360Y00287550D01*
X02352459Y00289013D01*
X02351594Y00290497D01*
X02350766Y00292002D01*
X02349974Y00293527D01*
X02349221Y00295071D01*
X02348505Y00296633D01*
X02347828Y00298212D01*
X02347191Y00299807D01*
X02346592Y00301418D01*
X02346033Y00303042D01*
X02345514Y00304680D01*
X02345036Y00306330D01*
X02344598Y00307991D01*
X02344201Y00309663D01*
X02343845Y00311344D01*
X02343531Y00313033D01*
X02343258Y00314729D01*
X02343026Y00316431D01*
X02342837Y00318139D01*
X02342690Y00319850D01*
X02342584Y00321565D01*
X02342521Y00323282D01*
X02342500Y00325000D01*
X02102500Y00350000D02*
X02102500Y00140000D01*
X00022500Y00140000D01*
X00022500Y00660000D01*
X02102500Y00660000D01*
X02102500Y00450000D01*
X02101282Y00449985D01*
X02100066Y00449941D01*
X02098850Y00449867D01*
X02097637Y00449763D01*
X02096427Y00449630D01*
X02095220Y00449467D01*
X02094018Y00449275D01*
X02092820Y00449054D01*
X02091628Y00448804D01*
X02090443Y00448525D01*
X02089265Y00448217D01*
X02088095Y00447880D01*
X02086933Y00447515D01*
X02085781Y00447122D01*
X02084638Y00446701D01*
X02083507Y00446252D01*
X02082386Y00445776D01*
X02081277Y00445272D01*
X02080181Y00444742D01*
X02079098Y00444185D01*
X02078029Y00443602D01*
X02076975Y00442994D01*
X02075935Y00442359D01*
X02074912Y00441700D01*
X02073904Y00441016D01*
X02072914Y00440307D01*
X02071941Y00439575D01*
X02070987Y00438819D01*
X02070051Y00438040D01*
X02069134Y00437239D01*
X02068237Y00436415D01*
X02067361Y00435570D01*
X02066505Y00434704D01*
X02065670Y00433817D01*
X02064858Y00432910D01*
X02064068Y00431984D01*
X02063300Y00431038D01*
X02062556Y00430075D01*
X02061836Y00429093D01*
X02061139Y00428094D01*
X02060467Y00427079D01*
X02059820Y00426047D01*
X02059199Y00425000D01*
X02058603Y00423938D01*
X02058033Y00422862D01*
X02057489Y00421773D01*
X02056973Y00420670D01*
X02056483Y00419555D01*
X02056020Y00418429D01*
X02055585Y00417292D01*
X02055178Y00416144D01*
X02054799Y00414987D01*
X02054448Y00413821D01*
X02054126Y00412647D01*
X02053832Y00411465D01*
X02053567Y00410276D01*
X02053332Y00409082D01*
X02053125Y00407882D01*
X02052948Y00406677D01*
X02052800Y00405469D01*
X02052682Y00404257D01*
X02052593Y00403042D01*
X02052533Y00401826D01*
X02052504Y00400609D01*
X02052504Y00399391D01*
X02052533Y00398174D01*
X02052593Y00396958D01*
X02052682Y00395743D01*
X02052800Y00394531D01*
X02052948Y00393323D01*
X02053125Y00392118D01*
X02053332Y00390918D01*
X02053567Y00389724D01*
X02053832Y00388535D01*
X02054126Y00387353D01*
X02054448Y00386179D01*
X02054799Y00385013D01*
X02055178Y00383856D01*
X02055585Y00382708D01*
X02056020Y00381571D01*
X02056483Y00380445D01*
X02056973Y00379330D01*
X02057489Y00378227D01*
X02058033Y00377138D01*
X02058603Y00376062D01*
X02059199Y00375000D01*
X02059820Y00373953D01*
X02060467Y00372921D01*
X02061139Y00371906D01*
X02061836Y00370907D01*
X02062556Y00369925D01*
X02063300Y00368962D01*
X02064068Y00368016D01*
X02064858Y00367090D01*
X02065670Y00366183D01*
X02066505Y00365296D01*
X02067361Y00364430D01*
X02068237Y00363585D01*
X02069134Y00362761D01*
X02070051Y00361960D01*
X02070987Y00361181D01*
X02071941Y00360425D01*
X02072914Y00359693D01*
X02073904Y00358984D01*
X02074912Y00358300D01*
X02075935Y00357641D01*
X02076975Y00357006D01*
X02078029Y00356398D01*
X02079098Y00355815D01*
X02080181Y00355258D01*
X02081277Y00354728D01*
X02082386Y00354224D01*
X02083507Y00353748D01*
X02084638Y00353299D01*
X02085781Y00352878D01*
X02086933Y00352485D01*
X02088095Y00352120D01*
X02089265Y00351783D01*
X02090443Y00351475D01*
X02091628Y00351196D01*
X02092820Y00350946D01*
X02094018Y00350725D01*
X02095220Y00350533D01*
X02096427Y00350370D01*
X02097637Y00350237D01*
X02098850Y00350133D01*
X02100066Y00350059D01*
X02101282Y00350015D01*
X02102500Y00350000D01*
X02312500Y00540000D02*
X02312500Y00555000D01*
X02787500Y00500000D02*
X02787500Y00700000D01*
X02812500Y00700000D01*
X02912500Y00700000D01*
X02912500Y00500000D01*
X02812500Y00500000D01*
X02787500Y00500000D01*
X02812500Y00500000D02*
X02812500Y00700000D01*
X03047827Y00740294D02*
X03058503Y00718943D01*
X03079855Y00697591D01*
X03079855Y00729618D01*
X03090530Y00740294D01*
X03101206Y00740294D01*
X03111882Y00729618D01*
X03111882Y00708267D01*
X03101206Y00697591D01*
X03079855Y00697591D01*
X03111882Y00675839D02*
X03111882Y00633136D01*
X03111882Y00654488D02*
X03047827Y00654488D01*
X03069179Y00633136D01*
X03101206Y00611584D02*
X03111882Y00611584D01*
X03111882Y00600909D01*
X03101206Y00600909D01*
X03101206Y00611584D01*
X03101206Y00579157D02*
X03058503Y00579157D01*
X03101206Y00536454D01*
X03111882Y00547129D01*
X03111882Y00568481D01*
X03101206Y00579157D01*
X03058503Y00579157D02*
X03047827Y00568481D01*
X03047827Y00547129D01*
X03058503Y00536454D01*
X03101206Y00536454D01*
X03101206Y00514702D02*
X03111882Y00504026D01*
X03111882Y00482674D01*
X03101206Y00471999D01*
X03079855Y00493350D02*
X03079855Y00504026D01*
X03090530Y00514702D01*
X03101206Y00514702D01*
X03079855Y00504026D02*
X03069179Y00514702D01*
X03058503Y00514702D01*
X03047827Y00504026D01*
X03047827Y00482674D01*
X03058503Y00471999D01*
X01633934Y-00049195D02*
X01633878Y-00059871D01*
X01590952Y-00102350D01*
X01590896Y-00113025D01*
X01569200Y-00102236D02*
X01558469Y-00112855D01*
X01537117Y-00112744D01*
X01526498Y-00102012D01*
X01526609Y-00080661D02*
X01548016Y-00070097D01*
X01558692Y-00070153D01*
X01569312Y-00080884D01*
X01569200Y-00102236D01*
X01526609Y-00080661D02*
X01526777Y-00048634D01*
X01569480Y-00048858D01*
X01591231Y-00048971D02*
X01633934Y-00049195D01*
X01504946Y-00101899D02*
X01504890Y-00112575D01*
X01494215Y-00112519D01*
X01494271Y-00101844D01*
X01504946Y-00101899D01*
X01472519Y-00101730D02*
X01472631Y-00080378D01*
X01462011Y-00069647D01*
X01451336Y-00069591D01*
X01429929Y-00080155D01*
X01430096Y-00048128D01*
X01472799Y-00048351D01*
X01472519Y-00101730D02*
X01461788Y-00112349D01*
X01440436Y-00112237D01*
X01429817Y-00101506D01*
X01408289Y-00058689D02*
X01365363Y-00101169D01*
X01365307Y-00111844D01*
X01365642Y-00047790D02*
X01408345Y-00048014D01*
X01408289Y-00058689D01*
X00487500Y00790000D02*
X00487500Y00960000D01*
X00487497Y00960242D01*
X00487488Y00960483D01*
X00487474Y00960724D01*
X00487453Y00960965D01*
X00487427Y00961205D01*
X00487395Y00961445D01*
X00487357Y00961684D01*
X00487314Y00961921D01*
X00487264Y00962158D01*
X00487209Y00962393D01*
X00487149Y00962627D01*
X00487082Y00962859D01*
X00487011Y00963090D01*
X00486933Y00963319D01*
X00486850Y00963546D01*
X00486762Y00963771D01*
X00486668Y00963994D01*
X00486569Y00964214D01*
X00486464Y00964432D01*
X00486355Y00964647D01*
X00486240Y00964860D01*
X00486120Y00965070D01*
X00485995Y00965276D01*
X00485865Y00965480D01*
X00485730Y00965681D01*
X00485590Y00965878D01*
X00485446Y00966072D01*
X00485297Y00966262D01*
X00485143Y00966448D01*
X00484985Y00966631D01*
X00484823Y00966810D01*
X00484656Y00966985D01*
X00484485Y00967156D01*
X00484310Y00967323D01*
X00484131Y00967485D01*
X00483948Y00967643D01*
X00483762Y00967797D01*
X00483572Y00967946D01*
X00483378Y00968090D01*
X00483181Y00968230D01*
X00482980Y00968365D01*
X00482776Y00968495D01*
X00482570Y00968620D01*
X00482360Y00968740D01*
X00482147Y00968855D01*
X00481932Y00968964D01*
X00481714Y00969069D01*
X00481494Y00969168D01*
X00481271Y00969262D01*
X00481046Y00969350D01*
X00480819Y00969433D01*
X00480590Y00969511D01*
X00480359Y00969582D01*
X00480127Y00969649D01*
X00479893Y00969709D01*
X00479658Y00969764D01*
X00479421Y00969814D01*
X00479184Y00969857D01*
X00478945Y00969895D01*
X00478705Y00969927D01*
X00478465Y00969953D01*
X00478224Y00969974D01*
X00477983Y00969988D01*
X00477742Y00969997D01*
X00477500Y00970000D01*
X00397500Y00970000D01*
X00397258Y00969997D01*
X00397017Y00969988D01*
X00396776Y00969974D01*
X00396535Y00969953D01*
X00396295Y00969927D01*
X00396055Y00969895D01*
X00395816Y00969857D01*
X00395579Y00969814D01*
X00395342Y00969764D01*
X00395107Y00969709D01*
X00394873Y00969649D01*
X00394641Y00969582D01*
X00394410Y00969511D01*
X00394181Y00969433D01*
X00393954Y00969350D01*
X00393729Y00969262D01*
X00393506Y00969168D01*
X00393286Y00969069D01*
X00393068Y00968964D01*
X00392853Y00968855D01*
X00392640Y00968740D01*
X00392430Y00968620D01*
X00392224Y00968495D01*
X00392020Y00968365D01*
X00391819Y00968230D01*
X00391622Y00968090D01*
X00391428Y00967946D01*
X00391238Y00967797D01*
X00391052Y00967643D01*
X00390869Y00967485D01*
X00390690Y00967323D01*
X00390515Y00967156D01*
X00390344Y00966985D01*
X00390177Y00966810D01*
X00390015Y00966631D01*
X00389857Y00966448D01*
X00389703Y00966262D01*
X00389554Y00966072D01*
X00389410Y00965878D01*
X00389270Y00965681D01*
X00389135Y00965480D01*
X00389005Y00965276D01*
X00388880Y00965070D01*
X00388760Y00964860D01*
X00388645Y00964647D01*
X00388536Y00964432D01*
X00388431Y00964214D01*
X00388332Y00963994D01*
X00388238Y00963771D01*
X00388150Y00963546D01*
X00388067Y00963319D01*
X00387989Y00963090D01*
X00387918Y00962859D01*
X00387851Y00962627D01*
X00387791Y00962393D01*
X00387736Y00962158D01*
X00387686Y00961921D01*
X00387643Y00961684D01*
X00387605Y00961445D01*
X00387573Y00961205D01*
X00387547Y00960965D01*
X00387526Y00960724D01*
X00387512Y00960483D01*
X00387503Y00960242D01*
X00387500Y00960000D01*
X00387500Y00790000D01*
X00387503Y00789758D01*
X00387512Y00789517D01*
X00387526Y00789276D01*
X00387547Y00789035D01*
X00387573Y00788795D01*
X00387605Y00788555D01*
X00387643Y00788316D01*
X00387686Y00788079D01*
X00387736Y00787842D01*
X00387791Y00787607D01*
X00387851Y00787373D01*
X00387918Y00787141D01*
X00387989Y00786910D01*
X00388067Y00786681D01*
X00388150Y00786454D01*
X00388238Y00786229D01*
X00388332Y00786006D01*
X00388431Y00785786D01*
X00388536Y00785568D01*
X00388645Y00785353D01*
X00388760Y00785140D01*
X00388880Y00784930D01*
X00389005Y00784724D01*
X00389135Y00784520D01*
X00389270Y00784319D01*
X00389410Y00784122D01*
X00389554Y00783928D01*
X00389703Y00783738D01*
X00389857Y00783552D01*
X00390015Y00783369D01*
X00390177Y00783190D01*
X00390344Y00783015D01*
X00390515Y00782844D01*
X00390690Y00782677D01*
X00390869Y00782515D01*
X00391052Y00782357D01*
X00391238Y00782203D01*
X00391428Y00782054D01*
X00391622Y00781910D01*
X00391819Y00781770D01*
X00392020Y00781635D01*
X00392224Y00781505D01*
X00392430Y00781380D01*
X00392640Y00781260D01*
X00392853Y00781145D01*
X00393068Y00781036D01*
X00393286Y00780931D01*
X00393506Y00780832D01*
X00393729Y00780738D01*
X00393954Y00780650D01*
X00394181Y00780567D01*
X00394410Y00780489D01*
X00394641Y00780418D01*
X00394873Y00780351D01*
X00395107Y00780291D01*
X00395342Y00780236D01*
X00395579Y00780186D01*
X00395816Y00780143D01*
X00396055Y00780105D01*
X00396295Y00780073D01*
X00396535Y00780047D01*
X00396776Y00780026D01*
X00397017Y00780012D01*
X00397258Y00780003D01*
X00397500Y00780000D01*
X00477500Y00780000D01*
X00477742Y00780003D01*
X00477983Y00780012D01*
X00478224Y00780026D01*
X00478465Y00780047D01*
X00478705Y00780073D01*
X00478945Y00780105D01*
X00479184Y00780143D01*
X00479421Y00780186D01*
X00479658Y00780236D01*
X00479893Y00780291D01*
X00480127Y00780351D01*
X00480359Y00780418D01*
X00480590Y00780489D01*
X00480819Y00780567D01*
X00481046Y00780650D01*
X00481271Y00780738D01*
X00481494Y00780832D01*
X00481714Y00780931D01*
X00481932Y00781036D01*
X00482147Y00781145D01*
X00482360Y00781260D01*
X00482570Y00781380D01*
X00482776Y00781505D01*
X00482980Y00781635D01*
X00483181Y00781770D01*
X00483378Y00781910D01*
X00483572Y00782054D01*
X00483762Y00782203D01*
X00483948Y00782357D01*
X00484131Y00782515D01*
X00484310Y00782677D01*
X00484485Y00782844D01*
X00484656Y00783015D01*
X00484823Y00783190D01*
X00484985Y00783369D01*
X00485143Y00783552D01*
X00485297Y00783738D01*
X00485446Y00783928D01*
X00485590Y00784122D01*
X00485730Y00784319D01*
X00485865Y00784520D01*
X00485995Y00784724D01*
X00486120Y00784930D01*
X00486240Y00785140D01*
X00486355Y00785353D01*
X00486464Y00785568D01*
X00486569Y00785786D01*
X00486668Y00786006D01*
X00486762Y00786229D01*
X00486850Y00786454D01*
X00486933Y00786681D01*
X00487011Y00786910D01*
X00487082Y00787141D01*
X00487149Y00787373D01*
X00487209Y00787607D01*
X00487264Y00787842D01*
X00487314Y00788079D01*
X00487357Y00788316D01*
X00487395Y00788555D01*
X00487427Y00788795D01*
X00487453Y00789035D01*
X00487474Y00789276D01*
X00487488Y00789517D01*
X00487497Y00789758D01*
X00487500Y00790000D01*
X00437500Y00860000D02*
X00437500Y00865000D01*
X00437500Y00885000D02*
X00437500Y00890000D01*
X00302500Y00830000D02*
X00302500Y01045000D01*
X00297500Y01045000D01*
X00227500Y01045000D01*
X00222500Y01045000D01*
X00222500Y00830000D01*
X00222503Y00829758D01*
X00222512Y00829517D01*
X00222526Y00829276D01*
X00222547Y00829035D01*
X00222573Y00828795D01*
X00222605Y00828555D01*
X00222643Y00828316D01*
X00222686Y00828079D01*
X00222736Y00827842D01*
X00222791Y00827607D01*
X00222851Y00827373D01*
X00222918Y00827141D01*
X00222989Y00826910D01*
X00223067Y00826681D01*
X00223150Y00826454D01*
X00223238Y00826229D01*
X00223332Y00826006D01*
X00223431Y00825786D01*
X00223536Y00825568D01*
X00223645Y00825353D01*
X00223760Y00825140D01*
X00223880Y00824930D01*
X00224005Y00824724D01*
X00224135Y00824520D01*
X00224270Y00824319D01*
X00224410Y00824122D01*
X00224554Y00823928D01*
X00224703Y00823738D01*
X00224857Y00823552D01*
X00225015Y00823369D01*
X00225177Y00823190D01*
X00225344Y00823015D01*
X00225515Y00822844D01*
X00225690Y00822677D01*
X00225869Y00822515D01*
X00226052Y00822357D01*
X00226238Y00822203D01*
X00226428Y00822054D01*
X00226622Y00821910D01*
X00226819Y00821770D01*
X00227020Y00821635D01*
X00227224Y00821505D01*
X00227430Y00821380D01*
X00227640Y00821260D01*
X00227853Y00821145D01*
X00228068Y00821036D01*
X00228286Y00820931D01*
X00228506Y00820832D01*
X00228729Y00820738D01*
X00228954Y00820650D01*
X00229181Y00820567D01*
X00229410Y00820489D01*
X00229641Y00820418D01*
X00229873Y00820351D01*
X00230107Y00820291D01*
X00230342Y00820236D01*
X00230579Y00820186D01*
X00230816Y00820143D01*
X00231055Y00820105D01*
X00231295Y00820073D01*
X00231535Y00820047D01*
X00231776Y00820026D01*
X00232017Y00820012D01*
X00232258Y00820003D01*
X00232500Y00820000D01*
X00292500Y00820000D01*
X00292742Y00820003D01*
X00292983Y00820012D01*
X00293224Y00820026D01*
X00293465Y00820047D01*
X00293705Y00820073D01*
X00293945Y00820105D01*
X00294184Y00820143D01*
X00294421Y00820186D01*
X00294658Y00820236D01*
X00294893Y00820291D01*
X00295127Y00820351D01*
X00295359Y00820418D01*
X00295590Y00820489D01*
X00295819Y00820567D01*
X00296046Y00820650D01*
X00296271Y00820738D01*
X00296494Y00820832D01*
X00296714Y00820931D01*
X00296932Y00821036D01*
X00297147Y00821145D01*
X00297360Y00821260D01*
X00297570Y00821380D01*
X00297776Y00821505D01*
X00297980Y00821635D01*
X00298181Y00821770D01*
X00298378Y00821910D01*
X00298572Y00822054D01*
X00298762Y00822203D01*
X00298948Y00822357D01*
X00299131Y00822515D01*
X00299310Y00822677D01*
X00299485Y00822844D01*
X00299656Y00823015D01*
X00299823Y00823190D01*
X00299985Y00823369D01*
X00300143Y00823552D01*
X00300297Y00823738D01*
X00300446Y00823928D01*
X00300590Y00824122D01*
X00300730Y00824319D01*
X00300865Y00824520D01*
X00300995Y00824724D01*
X00301120Y00824930D01*
X00301240Y00825140D01*
X00301355Y00825353D01*
X00301464Y00825568D01*
X00301569Y00825786D01*
X00301668Y00826006D01*
X00301762Y00826229D01*
X00301850Y00826454D01*
X00301933Y00826681D01*
X00302011Y00826910D01*
X00302082Y00827141D01*
X00302149Y00827373D01*
X00302209Y00827607D01*
X00302264Y00827842D01*
X00302314Y00828079D01*
X00302357Y00828316D01*
X00302395Y00828555D01*
X00302427Y00828795D01*
X00302453Y00829035D01*
X00302474Y00829276D01*
X00302488Y00829517D01*
X00302497Y00829758D01*
X00302500Y00830000D01*
X00262500Y00895000D02*
X00262500Y00915000D01*
X00242500Y00915000D01*
X00242500Y00930000D02*
X00282500Y00930000D01*
X00282500Y00945000D01*
X00242500Y00945000D01*
X00242500Y00930000D01*
X00262500Y00915000D02*
X00282500Y00915000D01*
X00282500Y00960000D02*
X00262500Y00960000D01*
X00242500Y00960000D01*
X00262500Y00960000D02*
X00262500Y00980000D01*
X00227500Y01045000D02*
X00227500Y01060000D01*
X00297500Y01060000D01*
X00297500Y01045000D01*
X00137500Y00960000D02*
X00137500Y00790000D01*
X00137497Y00789758D01*
X00137488Y00789517D01*
X00137474Y00789276D01*
X00137453Y00789035D01*
X00137427Y00788795D01*
X00137395Y00788555D01*
X00137357Y00788316D01*
X00137314Y00788079D01*
X00137264Y00787842D01*
X00137209Y00787607D01*
X00137149Y00787373D01*
X00137082Y00787141D01*
X00137011Y00786910D01*
X00136933Y00786681D01*
X00136850Y00786454D01*
X00136762Y00786229D01*
X00136668Y00786006D01*
X00136569Y00785786D01*
X00136464Y00785568D01*
X00136355Y00785353D01*
X00136240Y00785140D01*
X00136120Y00784930D01*
X00135995Y00784724D01*
X00135865Y00784520D01*
X00135730Y00784319D01*
X00135590Y00784122D01*
X00135446Y00783928D01*
X00135297Y00783738D01*
X00135143Y00783552D01*
X00134985Y00783369D01*
X00134823Y00783190D01*
X00134656Y00783015D01*
X00134485Y00782844D01*
X00134310Y00782677D01*
X00134131Y00782515D01*
X00133948Y00782357D01*
X00133762Y00782203D01*
X00133572Y00782054D01*
X00133378Y00781910D01*
X00133181Y00781770D01*
X00132980Y00781635D01*
X00132776Y00781505D01*
X00132570Y00781380D01*
X00132360Y00781260D01*
X00132147Y00781145D01*
X00131932Y00781036D01*
X00131714Y00780931D01*
X00131494Y00780832D01*
X00131271Y00780738D01*
X00131046Y00780650D01*
X00130819Y00780567D01*
X00130590Y00780489D01*
X00130359Y00780418D01*
X00130127Y00780351D01*
X00129893Y00780291D01*
X00129658Y00780236D01*
X00129421Y00780186D01*
X00129184Y00780143D01*
X00128945Y00780105D01*
X00128705Y00780073D01*
X00128465Y00780047D01*
X00128224Y00780026D01*
X00127983Y00780012D01*
X00127742Y00780003D01*
X00127500Y00780000D01*
X00047500Y00780000D01*
X00047258Y00780003D01*
X00047017Y00780012D01*
X00046776Y00780026D01*
X00046535Y00780047D01*
X00046295Y00780073D01*
X00046055Y00780105D01*
X00045816Y00780143D01*
X00045579Y00780186D01*
X00045342Y00780236D01*
X00045107Y00780291D01*
X00044873Y00780351D01*
X00044641Y00780418D01*
X00044410Y00780489D01*
X00044181Y00780567D01*
X00043954Y00780650D01*
X00043729Y00780738D01*
X00043506Y00780832D01*
X00043286Y00780931D01*
X00043068Y00781036D01*
X00042853Y00781145D01*
X00042640Y00781260D01*
X00042430Y00781380D01*
X00042224Y00781505D01*
X00042020Y00781635D01*
X00041819Y00781770D01*
X00041622Y00781910D01*
X00041428Y00782054D01*
X00041238Y00782203D01*
X00041052Y00782357D01*
X00040869Y00782515D01*
X00040690Y00782677D01*
X00040515Y00782844D01*
X00040344Y00783015D01*
X00040177Y00783190D01*
X00040015Y00783369D01*
X00039857Y00783552D01*
X00039703Y00783738D01*
X00039554Y00783928D01*
X00039410Y00784122D01*
X00039270Y00784319D01*
X00039135Y00784520D01*
X00039005Y00784724D01*
X00038880Y00784930D01*
X00038760Y00785140D01*
X00038645Y00785353D01*
X00038536Y00785568D01*
X00038431Y00785786D01*
X00038332Y00786006D01*
X00038238Y00786229D01*
X00038150Y00786454D01*
X00038067Y00786681D01*
X00037989Y00786910D01*
X00037918Y00787141D01*
X00037851Y00787373D01*
X00037791Y00787607D01*
X00037736Y00787842D01*
X00037686Y00788079D01*
X00037643Y00788316D01*
X00037605Y00788555D01*
X00037573Y00788795D01*
X00037547Y00789035D01*
X00037526Y00789276D01*
X00037512Y00789517D01*
X00037503Y00789758D01*
X00037500Y00790000D01*
X00037500Y00960000D01*
X00037503Y00960242D01*
X00037512Y00960483D01*
X00037526Y00960724D01*
X00037547Y00960965D01*
X00037573Y00961205D01*
X00037605Y00961445D01*
X00037643Y00961684D01*
X00037686Y00961921D01*
X00037736Y00962158D01*
X00037791Y00962393D01*
X00037851Y00962627D01*
X00037918Y00962859D01*
X00037989Y00963090D01*
X00038067Y00963319D01*
X00038150Y00963546D01*
X00038238Y00963771D01*
X00038332Y00963994D01*
X00038431Y00964214D01*
X00038536Y00964432D01*
X00038645Y00964647D01*
X00038760Y00964860D01*
X00038880Y00965070D01*
X00039005Y00965276D01*
X00039135Y00965480D01*
X00039270Y00965681D01*
X00039410Y00965878D01*
X00039554Y00966072D01*
X00039703Y00966262D01*
X00039857Y00966448D01*
X00040015Y00966631D01*
X00040177Y00966810D01*
X00040344Y00966985D01*
X00040515Y00967156D01*
X00040690Y00967323D01*
X00040869Y00967485D01*
X00041052Y00967643D01*
X00041238Y00967797D01*
X00041428Y00967946D01*
X00041622Y00968090D01*
X00041819Y00968230D01*
X00042020Y00968365D01*
X00042224Y00968495D01*
X00042430Y00968620D01*
X00042640Y00968740D01*
X00042853Y00968855D01*
X00043068Y00968964D01*
X00043286Y00969069D01*
X00043506Y00969168D01*
X00043729Y00969262D01*
X00043954Y00969350D01*
X00044181Y00969433D01*
X00044410Y00969511D01*
X00044641Y00969582D01*
X00044873Y00969649D01*
X00045107Y00969709D01*
X00045342Y00969764D01*
X00045579Y00969814D01*
X00045816Y00969857D01*
X00046055Y00969895D01*
X00046295Y00969927D01*
X00046535Y00969953D01*
X00046776Y00969974D01*
X00047017Y00969988D01*
X00047258Y00969997D01*
X00047500Y00970000D01*
X00127500Y00970000D01*
X00127742Y00969997D01*
X00127983Y00969988D01*
X00128224Y00969974D01*
X00128465Y00969953D01*
X00128705Y00969927D01*
X00128945Y00969895D01*
X00129184Y00969857D01*
X00129421Y00969814D01*
X00129658Y00969764D01*
X00129893Y00969709D01*
X00130127Y00969649D01*
X00130359Y00969582D01*
X00130590Y00969511D01*
X00130819Y00969433D01*
X00131046Y00969350D01*
X00131271Y00969262D01*
X00131494Y00969168D01*
X00131714Y00969069D01*
X00131932Y00968964D01*
X00132147Y00968855D01*
X00132360Y00968740D01*
X00132570Y00968620D01*
X00132776Y00968495D01*
X00132980Y00968365D01*
X00133181Y00968230D01*
X00133378Y00968090D01*
X00133572Y00967946D01*
X00133762Y00967797D01*
X00133948Y00967643D01*
X00134131Y00967485D01*
X00134310Y00967323D01*
X00134485Y00967156D01*
X00134656Y00966985D01*
X00134823Y00966810D01*
X00134985Y00966631D01*
X00135143Y00966448D01*
X00135297Y00966262D01*
X00135446Y00966072D01*
X00135590Y00965878D01*
X00135730Y00965681D01*
X00135865Y00965480D01*
X00135995Y00965276D01*
X00136120Y00965070D01*
X00136240Y00964860D01*
X00136355Y00964647D01*
X00136464Y00964432D01*
X00136569Y00964214D01*
X00136668Y00963994D01*
X00136762Y00963771D01*
X00136850Y00963546D01*
X00136933Y00963319D01*
X00137011Y00963090D01*
X00137082Y00962859D01*
X00137149Y00962627D01*
X00137209Y00962393D01*
X00137264Y00962158D01*
X00137314Y00961921D01*
X00137357Y00961684D01*
X00137395Y00961445D01*
X00137427Y00961205D01*
X00137453Y00960965D01*
X00137474Y00960724D01*
X00137488Y00960483D01*
X00137497Y00960242D01*
X00137500Y00960000D01*
X00087500Y00890000D02*
X00087500Y00885000D01*
X00087500Y00865000D02*
X00087500Y00860000D01*
D13*
X00087500Y00865000D02*
X00057500Y00865000D01*
X00057500Y00885000D02*
X00087500Y00885000D01*
X00117500Y00885000D01*
X00117500Y00865000D02*
X00087500Y00865000D01*
X00407500Y00865000D02*
X00437500Y00865000D01*
X00467500Y00865000D01*
X00467500Y00885000D02*
X00437500Y00885000D01*
X00407500Y00885000D01*
D14*
X00357494Y00955421D02*
X00327468Y00955421D01*
X00319962Y00962928D01*
X00319962Y00977941D01*
X00327468Y00985447D01*
X00357494Y00985447D01*
X00365000Y00977941D01*
X00365000Y00962928D01*
X00357494Y00955421D01*
X00349987Y00970434D02*
X00365000Y00985447D01*
X00365000Y01001461D02*
X00365000Y01031486D01*
X00365000Y01016473D02*
X00319962Y01016473D01*
X00334974Y01001461D01*
X00195000Y00951486D02*
X00195000Y00921461D01*
X00164974Y00951486D01*
X00157468Y00951486D01*
X00149962Y00943980D01*
X00149962Y00928967D01*
X00157468Y00921461D01*
X00157468Y00905447D02*
X00149962Y00897941D01*
X00149962Y00882928D01*
X00157468Y00875421D01*
X00187494Y00875421D01*
X00195000Y00882928D01*
X00195000Y00897941D01*
X00187494Y00905447D01*
X00499962Y00897941D02*
X00499962Y00882928D01*
X00507468Y00875421D01*
X00537494Y00875421D01*
X00545000Y00882928D01*
X00545000Y00897941D01*
X00537494Y00905447D01*
X00537494Y00921461D02*
X00545000Y00928967D01*
X00545000Y00943980D01*
X00537494Y00951486D01*
X00529987Y00951486D01*
X00522481Y00943980D01*
X00522481Y00936473D01*
X00522481Y00943980D02*
X00514974Y00951486D01*
X00507468Y00951486D01*
X00499962Y00943980D01*
X00499962Y00928967D01*
X00507468Y00921461D01*
X00507468Y00905447D02*
X00499962Y00897941D01*
X02290000Y00872538D02*
X02290000Y00827500D01*
X02290000Y00842513D02*
X02312519Y00842513D01*
X02320026Y00850019D01*
X02320026Y00865032D01*
X02312519Y00872538D01*
X02290000Y00872538D01*
X02305013Y00842513D02*
X02320026Y00827500D01*
X02336039Y00835006D02*
X02343546Y00827500D01*
X02358558Y00827500D01*
X02366065Y00835006D01*
X02366065Y00842513D01*
X02358558Y00850019D01*
X02351052Y00850019D01*
X02358558Y00850019D02*
X02366065Y00857526D01*
X02366065Y00865032D01*
X02358558Y00872538D01*
X02343546Y00872538D01*
X02336039Y00865032D01*
X02307015Y00601529D02*
X02312686Y00595858D01*
X02312686Y00590186D01*
X02307015Y00584515D01*
X02312686Y00578843D01*
X02312686Y00573172D01*
X02307015Y00567500D01*
X02295672Y00567500D01*
X02290000Y00573172D01*
X02301343Y00584515D02*
X02307015Y00584515D01*
X02307015Y00601529D02*
X02295672Y00601529D01*
X02290000Y00595858D01*
X02510000Y00590186D02*
X02521343Y00601529D01*
X02521343Y00567500D01*
X02510000Y00567500D02*
X02532686Y00567500D01*
X02589962Y00466058D02*
X02612481Y00443539D01*
X02612481Y00473565D01*
X02635000Y00466058D02*
X02589962Y00466058D01*
X02605000Y00431486D02*
X02605000Y00401461D01*
X02597468Y00397500D02*
X02627494Y00397500D01*
X02635000Y00405006D01*
X02635000Y00420019D01*
X02627494Y00427526D01*
X02605000Y00416473D02*
X02559962Y00416473D01*
X02574974Y00401461D01*
X02589962Y00405006D02*
X02597468Y00397500D01*
X02589962Y00405006D02*
X02589962Y00420019D01*
X02597468Y00427526D01*
X02597494Y00385447D02*
X02605000Y00377941D01*
X02605000Y00362928D01*
X02597494Y00355421D01*
X02582481Y00362928D02*
X02582481Y00377941D01*
X02589987Y00385447D01*
X02597494Y00385447D01*
X02582481Y00362928D02*
X02574974Y00355421D01*
X02567468Y00355421D01*
X02559962Y00362928D01*
X02559962Y00377941D01*
X02567468Y00385447D01*
D15*
X02908366Y00995276D02*
X02908366Y02404724D01*
X-00233366Y02404724D01*
X-00233366Y00995276D01*
X02908366Y00995276D01*
X02784350Y01227559D02*
X02784350Y02196063D01*
X-00109350Y02196063D01*
X-00109350Y01227559D01*
X02784350Y01227559D01*
X02603248Y01444094D02*
X02603248Y01979528D01*
X00071752Y01979528D01*
X00071752Y01444094D01*
X02603248Y01444094D01*
D16*
X02670689Y00973039D02*
X02693709Y00973039D01*
X02701382Y00965366D01*
X02701382Y00934673D01*
X02693709Y00927000D01*
X02670689Y00927000D01*
X02670689Y00973039D01*
X02716728Y00973039D02*
X02732075Y00973039D01*
X02724401Y00973039D02*
X02724401Y00927000D01*
X02716728Y00927000D02*
X02732075Y00927000D01*
X02747421Y00934673D02*
X02755094Y00927000D01*
X02770441Y00927000D01*
X02778114Y00934673D01*
X02778114Y00942346D01*
X02770441Y00950020D01*
X02755094Y00950020D01*
X02747421Y00957693D01*
X02747421Y00965366D01*
X02755094Y00973039D01*
X02770441Y00973039D01*
X02778114Y00965366D01*
X02793460Y00957693D02*
X02808807Y00973039D01*
X02808807Y00927000D01*
X02824153Y00927000D02*
X02793460Y00927000D01*
X02988500Y00575732D02*
X02988500Y00545039D01*
X02988500Y00560386D02*
X02942461Y00560386D01*
X02957807Y00545039D01*
X02942461Y00529693D02*
X02942461Y00514346D01*
X02942461Y00522020D02*
X02980827Y00522020D01*
X02988500Y00514346D01*
X02988500Y00506673D01*
X02980827Y00499000D01*
D17*
X02415256Y01610433D03*
X02271555Y01610433D03*
X02127854Y01610433D03*
X01984154Y01610433D03*
X01840453Y01610433D03*
X01696752Y01610433D03*
X01553051Y01610433D03*
X01409350Y01610433D03*
X01265650Y01610433D03*
X01121949Y01610433D03*
X00978248Y01610433D03*
X00834547Y01610433D03*
X00690846Y01610433D03*
X00547146Y01610433D03*
X00403445Y01610433D03*
X00259744Y01610433D03*
X00259744Y01813189D03*
X00403445Y01813189D03*
X00547146Y01813189D03*
X00690846Y01813189D03*
X00834547Y01813189D03*
X00978248Y01813189D03*
X01121949Y01813189D03*
X01265650Y01813189D03*
X01409350Y01813189D03*
X01553051Y01813189D03*
X01696752Y01813189D03*
X01840453Y01813189D03*
X01984154Y01813189D03*
X02127854Y01813189D03*
X02271555Y01813189D03*
X02415256Y01813189D03*
D18*
X02179000Y00631081D02*
X02179000Y00589045D01*
X02179000Y00610063D02*
X02115946Y00610063D01*
X02136964Y00589045D01*
X02126455Y00566626D02*
X02115946Y00556117D01*
X02115946Y00535099D01*
X02126455Y00524590D01*
X02168491Y00524590D01*
X02179000Y00535099D01*
X02179000Y00556117D01*
X02168491Y00566626D01*
X02179000Y00502638D02*
X02179000Y00481620D01*
X02179000Y00492129D02*
X02115946Y00492129D01*
X02115946Y00481620D02*
X02115946Y00502638D01*
D19*
X02862500Y00550000D03*
X02862500Y00650000D03*
D20*
X00282500Y01075000D02*
X00282500Y01095000D01*
X00242500Y01095000D02*
X00242500Y01080000D01*
D21*
X00242500Y01073500D03*
X00282500Y01073500D03*
D22*
X02303500Y00690000D02*
X02318500Y00690000D01*
X02337500Y00755000D02*
X02327500Y00765000D01*
X02412500Y00782000D02*
X02412500Y00797000D01*
X02482500Y00755000D02*
X02492500Y00765000D01*
X02506500Y00690000D02*
X02521500Y00690000D01*
D23*
X02522500Y00375000D02*
X02522500Y00275000D01*
X02532500Y00275000D01*
X02532500Y00375000D02*
X02522500Y00375000D01*
X02302500Y00375000D02*
X02302500Y00280000D01*
X02292500Y00280000D01*
X02292500Y00375000D02*
X02302500Y00375000D01*
M02*
