G75*
%MOIN*%
%OFA0B0*%
%FSLAX26Y26*%
%IPPOS*%
%LPD*%
%AMOC8*
5,1,8,0,0,1.08239X$1,22.5*
%
%ADD10OC8,0.052000*%
%ADD11OC8,0.063000*%
%ADD12C,0.063000*%
%ADD13C,0.066000*%
%ADD14C,0.052000*%
%ADD15C,0.060000*%
%ADD16C,0.052000*%
%ADD17R,0.125984X0.070866*%
%ADD18C,0.016000*%
%ADD19C,0.053150*%
D10*
X00087500Y00825000D03*
X00087500Y00925000D03*
X00437500Y00925000D03*
X00437500Y00825000D03*
D11*
X02687500Y00350000D03*
D12*
X02687500Y00250000D03*
D13*
X02597343Y01089764D03*
X02497343Y01089764D03*
X02397343Y01089764D03*
X02297343Y01089764D03*
X02197343Y01089764D03*
X02097343Y01089764D03*
X01997343Y01089764D03*
X01897343Y01089764D03*
X01797343Y01089764D03*
X01697343Y01089764D03*
X01597343Y01089764D03*
X01497343Y01089764D03*
X01397343Y01089764D03*
X01297343Y01089764D03*
X01197343Y01089764D03*
X01097343Y01089764D03*
D14*
X01112500Y00726000D02*
X01112500Y00674000D01*
X01012500Y00674000D02*
X01012500Y00726000D01*
X00912500Y00726000D02*
X00912500Y00674000D01*
X00812500Y00674000D02*
X00812500Y00726000D01*
X00712500Y00726000D02*
X00712500Y00674000D01*
X00612500Y00674000D02*
X00612500Y00726000D01*
X00512500Y00726000D02*
X00512500Y00674000D01*
X00412500Y00674000D02*
X00412500Y00726000D01*
X00312500Y00726000D02*
X00312500Y00674000D01*
X00212500Y00674000D02*
X00212500Y00726000D01*
X00112500Y00726000D02*
X00112500Y00674000D01*
X00112500Y00126000D02*
X00112500Y00074000D01*
X00212500Y00074000D02*
X00212500Y00126000D01*
X00312500Y00126000D02*
X00312500Y00074000D01*
X00412500Y00074000D02*
X00412500Y00126000D01*
X00512500Y00126000D02*
X00512500Y00074000D01*
X00612500Y00074000D02*
X00612500Y00126000D01*
X00712500Y00126000D02*
X00712500Y00074000D01*
X00812500Y00074000D02*
X00812500Y00126000D01*
X00912500Y00126000D02*
X00912500Y00074000D01*
X01012500Y00074000D02*
X01012500Y00126000D01*
X01112500Y00126000D02*
X01112500Y00074000D01*
X01212500Y00074000D02*
X01212500Y00126000D01*
X01312500Y00126000D02*
X01312500Y00074000D01*
X01412500Y00074000D02*
X01412500Y00126000D01*
X01512500Y00126000D02*
X01512500Y00074000D01*
X01612500Y00074000D02*
X01612500Y00126000D01*
X01712500Y00126000D02*
X01712500Y00074000D01*
X01812500Y00074000D02*
X01812500Y00126000D01*
X01912500Y00126000D02*
X01912500Y00074000D01*
X02012500Y00074000D02*
X02012500Y00126000D01*
X02312500Y00614000D02*
X02312500Y00666000D01*
X02412500Y00666000D02*
X02412500Y00614000D01*
X02512500Y00614000D02*
X02512500Y00666000D01*
X02012500Y00674000D02*
X02012500Y00726000D01*
X01912500Y00726000D02*
X01912500Y00674000D01*
X01812500Y00674000D02*
X01812500Y00726000D01*
X01712500Y00726000D02*
X01712500Y00674000D01*
X01612500Y00674000D02*
X01612500Y00726000D01*
X01512500Y00726000D02*
X01512500Y00674000D01*
X01412500Y00674000D02*
X01412500Y00726000D01*
X01312500Y00726000D02*
X01312500Y00674000D01*
X01212500Y00674000D02*
X01212500Y00726000D01*
D15*
X02323500Y00483000D02*
X02323500Y00423000D01*
X02501500Y00423000D02*
X02501500Y00483000D01*
X02832500Y00550000D02*
X02892500Y00550000D01*
X02892500Y00650000D02*
X02832500Y00650000D01*
X02501500Y00227000D02*
X02501500Y00167000D01*
X02323500Y00167000D02*
X02323500Y00227000D01*
D16*
X00312500Y01125000D03*
X00212500Y01125000D03*
D17*
X00112500Y00560236D03*
X00112500Y00339764D03*
D18*
X00048000Y00288331D02*
X00048000Y00048000D01*
X00079103Y00048000D01*
X00076894Y00050209D01*
X00070500Y00065646D01*
X00070500Y00134354D01*
X00076894Y00149791D01*
X00088709Y00161606D01*
X00104146Y00168000D01*
X00120854Y00168000D01*
X00136291Y00161606D01*
X00148106Y00149791D01*
X00154500Y00134354D01*
X00154500Y00065646D01*
X00148106Y00050209D01*
X00145897Y00048000D01*
X00179103Y00048000D01*
X00176894Y00050209D01*
X00170500Y00065646D01*
X00170500Y00134354D01*
X00176894Y00149791D01*
X00188709Y00161606D01*
X00204146Y00168000D01*
X00220854Y00168000D01*
X00236291Y00161606D01*
X00248106Y00149791D01*
X00254500Y00134354D01*
X00254500Y00065646D01*
X00248106Y00050209D01*
X00245897Y00048000D01*
X00279103Y00048000D01*
X00276894Y00050209D01*
X00270500Y00065646D01*
X00270500Y00134354D01*
X00276894Y00149791D01*
X00288709Y00161606D01*
X00304146Y00168000D01*
X00320854Y00168000D01*
X00336291Y00161606D01*
X00348106Y00149791D01*
X00354500Y00134354D01*
X00354500Y00065646D01*
X00348106Y00050209D01*
X00345897Y00048000D01*
X00379103Y00048000D01*
X00376894Y00050209D01*
X00370500Y00065646D01*
X00370500Y00134354D01*
X00376894Y00149791D01*
X00388709Y00161606D01*
X00404146Y00168000D01*
X00420854Y00168000D01*
X00436291Y00161606D01*
X00448106Y00149791D01*
X00454500Y00134354D01*
X00454500Y00065646D01*
X00448106Y00050209D01*
X00445897Y00048000D01*
X00479103Y00048000D01*
X00476894Y00050209D01*
X00470500Y00065646D01*
X00470500Y00134354D01*
X00476894Y00149791D01*
X00488709Y00161606D01*
X00504146Y00168000D01*
X00520854Y00168000D01*
X00536291Y00161606D01*
X00548106Y00149791D01*
X00554500Y00134354D01*
X00554500Y00065646D01*
X00548106Y00050209D01*
X00545897Y00048000D01*
X00579103Y00048000D01*
X00576894Y00050209D01*
X00570500Y00065646D01*
X00570500Y00134354D01*
X00576894Y00149791D01*
X00588709Y00161606D01*
X00604146Y00168000D01*
X00620854Y00168000D01*
X00636291Y00161606D01*
X00648106Y00149791D01*
X00654500Y00134354D01*
X00654500Y00065646D01*
X00648106Y00050209D01*
X00645897Y00048000D01*
X00679103Y00048000D01*
X00676894Y00050209D01*
X00670500Y00065646D01*
X00670500Y00134354D01*
X00676894Y00149791D01*
X00688709Y00161606D01*
X00704146Y00168000D01*
X00720854Y00168000D01*
X00736291Y00161606D01*
X00748106Y00149791D01*
X00754500Y00134354D01*
X00754500Y00065646D01*
X00748106Y00050209D01*
X00745897Y00048000D01*
X00779103Y00048000D01*
X00776894Y00050209D01*
X00770500Y00065646D01*
X00770500Y00134354D01*
X00776894Y00149791D01*
X00788709Y00161606D01*
X00804146Y00168000D01*
X00820854Y00168000D01*
X00836291Y00161606D01*
X00848106Y00149791D01*
X00854500Y00134354D01*
X00854500Y00065646D01*
X00848106Y00050209D01*
X00845897Y00048000D01*
X00879103Y00048000D01*
X00876894Y00050209D01*
X00870500Y00065646D01*
X00870500Y00134354D01*
X00876894Y00149791D01*
X00888709Y00161606D01*
X00904146Y00168000D01*
X00920854Y00168000D01*
X00936291Y00161606D01*
X00948106Y00149791D01*
X00954500Y00134354D01*
X00954500Y00065646D01*
X00948106Y00050209D01*
X00945897Y00048000D01*
X00979103Y00048000D01*
X00976894Y00050209D01*
X00970500Y00065646D01*
X00970500Y00134354D01*
X00976894Y00149791D01*
X00988709Y00161606D01*
X01004146Y00168000D01*
X01020854Y00168000D01*
X01036291Y00161606D01*
X01048106Y00149791D01*
X01054500Y00134354D01*
X01054500Y00065646D01*
X01048106Y00050209D01*
X01045897Y00048000D01*
X01079103Y00048000D01*
X01076894Y00050209D01*
X01070500Y00065646D01*
X01070500Y00134354D01*
X01076894Y00149791D01*
X01088709Y00161606D01*
X01104146Y00168000D01*
X01120854Y00168000D01*
X01121352Y00167793D01*
X01167154Y00213595D01*
X01167154Y00213595D01*
X01173905Y00220346D01*
X01182726Y00224000D01*
X01942274Y00224000D01*
X01951095Y00220346D01*
X02003647Y00167793D01*
X02004146Y00168000D01*
X02020854Y00168000D01*
X02036291Y00161606D01*
X02048106Y00149791D01*
X02054500Y00134354D01*
X02054500Y00125941D01*
X02248905Y00320346D01*
X02257726Y00324000D01*
X02290059Y00324000D01*
X02376000Y00409941D01*
X02376000Y00515059D01*
X02319059Y00572000D01*
X02304146Y00572000D01*
X02288709Y00578394D01*
X02276894Y00590209D01*
X02270500Y00605646D01*
X02270500Y00674354D01*
X02276894Y00689791D01*
X02288709Y00701606D01*
X02304146Y00708000D01*
X02320854Y00708000D01*
X02336291Y00701606D01*
X02348106Y00689791D01*
X02354500Y00674354D01*
X02354500Y00605646D01*
X02354147Y00604794D01*
X02413595Y00545346D01*
X02420346Y00538595D01*
X02424000Y00529774D01*
X02424000Y00395226D01*
X02420346Y00386405D01*
X02357013Y00323072D01*
X02363595Y00320346D01*
X02455500Y00228441D01*
X02455500Y00236150D01*
X02462503Y00253057D01*
X02475443Y00265997D01*
X02492350Y00273000D01*
X02510650Y00273000D01*
X02527557Y00265997D01*
X02540497Y00253057D01*
X02547500Y00236150D01*
X02547500Y00224000D01*
X02627559Y00224000D01*
X02641204Y00237645D01*
X02640000Y00240552D01*
X02640000Y00259448D01*
X02647231Y00276906D01*
X02660593Y00290268D01*
X02678052Y00297500D01*
X02696948Y00297500D01*
X02714406Y00290268D01*
X02727768Y00276906D01*
X02735000Y00259448D01*
X02735000Y00240552D01*
X02727768Y00223093D01*
X02714406Y00209731D01*
X02696948Y00202500D01*
X02678052Y00202500D01*
X02675145Y00203704D01*
X02657846Y00186405D01*
X02651095Y00179654D01*
X02642274Y00176000D01*
X02547500Y00176000D01*
X02547500Y00157850D01*
X02540497Y00140943D01*
X02527557Y00128003D01*
X02510650Y00121000D01*
X02492350Y00121000D01*
X02475443Y00128003D01*
X02462503Y00140943D01*
X02455500Y00157850D01*
X02455500Y00176000D01*
X02445226Y00176000D01*
X02436405Y00179654D01*
X02429654Y00186405D01*
X02340059Y00276000D01*
X02272441Y00276000D01*
X02082846Y00086405D01*
X02076095Y00079654D01*
X02067274Y00076000D01*
X02054500Y00076000D01*
X02054500Y00065646D01*
X02048106Y00050209D01*
X02045897Y00048000D01*
X02926508Y00048000D01*
X02926508Y00518954D01*
X02918557Y00511003D01*
X02901650Y00504000D01*
X02823350Y00504000D01*
X02806443Y00511003D01*
X02793503Y00523943D01*
X02786500Y00540850D01*
X02786500Y00559150D01*
X02793503Y00576057D01*
X02806443Y00588997D01*
X02823350Y00596000D01*
X02901650Y00596000D01*
X02918557Y00588997D01*
X02926508Y00581046D01*
X02926508Y00616126D01*
X02923770Y00613388D01*
X02917657Y00608947D01*
X02910926Y00605517D01*
X02903740Y00603182D01*
X02896278Y00602000D01*
X02864500Y00602000D01*
X02864500Y00647999D01*
X02860500Y00647999D01*
X02860500Y00602000D01*
X02828722Y00602000D01*
X02821260Y00603182D01*
X02814074Y00605517D01*
X02807343Y00608947D01*
X02801230Y00613388D01*
X02795888Y00618730D01*
X02791447Y00624843D01*
X02788017Y00631574D01*
X02785682Y00638760D01*
X02784500Y00646222D01*
X02784500Y00648000D01*
X02860499Y00648000D01*
X02860499Y00652000D01*
X02784500Y00652000D01*
X02784500Y00653778D01*
X02785682Y00661240D01*
X02788017Y00668426D01*
X02791447Y00675157D01*
X02795888Y00681270D01*
X02801230Y00686612D01*
X02807343Y00691053D01*
X02814074Y00694483D01*
X02821260Y00696818D01*
X02828722Y00698000D01*
X02860500Y00698000D01*
X02860500Y00652001D01*
X02864500Y00652001D01*
X02864500Y00698000D01*
X02896278Y00698000D01*
X02903740Y00696818D01*
X02910926Y00694483D01*
X02917657Y00691053D01*
X02923770Y00686612D01*
X02926508Y00683874D01*
X02926508Y01139106D01*
X02898662Y01139106D01*
X02911090Y01109101D01*
X02911090Y01070427D01*
X02896291Y01034697D01*
X02868944Y01007351D01*
X02833215Y00992551D01*
X02794541Y00992551D01*
X02758811Y01007351D01*
X02731465Y01034697D01*
X02716665Y01070427D01*
X02716665Y01109101D01*
X02729094Y01139106D01*
X02610521Y01139106D01*
X02616920Y01137027D01*
X02624072Y01133383D01*
X02630567Y01128664D01*
X02636243Y01122988D01*
X02640961Y01116494D01*
X02644606Y01109341D01*
X02647087Y01101706D01*
X02648342Y01093778D01*
X02648342Y01091606D01*
X02599186Y01091606D01*
X02599186Y01087921D01*
X02648342Y01087921D01*
X02648342Y01085750D01*
X02647087Y01077821D01*
X02644606Y01070187D01*
X02640961Y01063034D01*
X02636243Y01056539D01*
X02630567Y01050863D01*
X02624072Y01046145D01*
X02616920Y01042500D01*
X02609285Y01040020D01*
X02601356Y01038764D01*
X02599185Y01038764D01*
X02599185Y01087920D01*
X02595500Y01087920D01*
X02595500Y01038764D01*
X02593329Y01038764D01*
X02585400Y01040020D01*
X02577765Y01042500D01*
X02570613Y01046145D01*
X02564118Y01050863D01*
X02558442Y01056539D01*
X02553723Y01063034D01*
X02550079Y01070187D01*
X02547598Y01077821D01*
X02546343Y01085750D01*
X02546343Y01087921D01*
X02595499Y01087921D01*
X02595499Y01091606D01*
X02546343Y01091606D01*
X02546343Y01093778D01*
X02547598Y01101706D01*
X02550079Y01109341D01*
X02553723Y01116494D01*
X02558442Y01122988D01*
X02564118Y01128664D01*
X02570613Y01133383D01*
X02577765Y01137027D01*
X02584164Y01139106D01*
X00352117Y01139106D01*
X00354500Y01133354D01*
X00354500Y01116941D01*
X00376095Y01095346D01*
X00382846Y01088595D01*
X00386500Y01079774D01*
X00386500Y00897441D01*
X00418522Y00865419D01*
X00420103Y00867000D01*
X00454897Y00867000D01*
X00479500Y00842397D01*
X00479500Y00807603D01*
X00454897Y00783000D01*
X00420103Y00783000D01*
X00412272Y00790831D01*
X00354500Y00733059D01*
X00354500Y00665646D01*
X00348106Y00650209D01*
X00336291Y00638394D01*
X00320854Y00632000D01*
X00304146Y00632000D01*
X00288709Y00638394D01*
X00276894Y00650209D01*
X00270500Y00665646D01*
X00270500Y00734354D01*
X00276894Y00749791D01*
X00288709Y00761606D01*
X00304146Y00768000D01*
X00320854Y00768000D01*
X00321352Y00767793D01*
X00384809Y00831250D01*
X00342154Y00873905D01*
X00338500Y00882726D01*
X00338500Y01065059D01*
X00320559Y01083000D01*
X00304146Y01083000D01*
X00288709Y01089394D01*
X00276894Y01101209D01*
X00270500Y01116646D01*
X00270500Y01133354D01*
X00272883Y01139106D01*
X00252117Y01139106D01*
X00254500Y01133354D01*
X00254500Y01116646D01*
X00248106Y01101209D01*
X00236291Y01089394D01*
X00233627Y01088291D01*
X00232846Y01086405D01*
X00226095Y01079654D01*
X00211500Y01065059D01*
X00211500Y00895226D01*
X00207846Y00886405D01*
X00201095Y00879654D01*
X00146441Y00825000D01*
X00203647Y00767793D01*
X00204146Y00768000D01*
X00220854Y00768000D01*
X00236291Y00761606D01*
X00248106Y00749791D01*
X00254500Y00734354D01*
X00254500Y00665646D01*
X00248106Y00650209D01*
X00236291Y00638394D01*
X00220854Y00632000D01*
X00204146Y00632000D01*
X00188709Y00638394D01*
X00176894Y00650209D01*
X00170500Y00665646D01*
X00170500Y00733059D01*
X00112728Y00790831D01*
X00104897Y00783000D01*
X00070103Y00783000D01*
X00048000Y00805103D01*
X00048000Y00613669D01*
X00104500Y00613669D01*
X00104500Y00568237D01*
X00120500Y00568237D01*
X00120500Y00613669D01*
X00177862Y00613669D01*
X00182440Y00612443D01*
X00186544Y00610073D01*
X00189896Y00606721D01*
X00192265Y00602617D01*
X00193492Y00598039D01*
X00193492Y00568236D01*
X00120500Y00568236D01*
X00120500Y00552236D01*
X00120500Y00506803D01*
X00177862Y00506803D01*
X00182440Y00508030D01*
X00186544Y00510399D01*
X00189896Y00513751D01*
X00192265Y00517855D01*
X00193492Y00522433D01*
X00193492Y00552236D01*
X00120500Y00552236D01*
X00104500Y00552236D01*
X00104500Y00506803D01*
X00048000Y00506803D01*
X00048000Y00391197D01*
X00182119Y00391197D01*
X00191492Y00381824D01*
X00191492Y00361500D01*
X00865059Y00361500D01*
X01170500Y00666941D01*
X01170500Y00734354D01*
X01176894Y00749791D01*
X01188709Y00761606D01*
X01204146Y00768000D01*
X01220854Y00768000D01*
X01236291Y00761606D01*
X01248106Y00749791D01*
X01254500Y00734354D01*
X01254500Y00665646D01*
X01248106Y00650209D01*
X01236291Y00638394D01*
X01220854Y00632000D01*
X01204146Y00632000D01*
X01203647Y00632206D01*
X00888595Y00317154D01*
X00879774Y00313500D01*
X00191492Y00313500D01*
X00191492Y00297703D01*
X00182119Y00288331D01*
X00048000Y00288331D01*
X00048000Y00287973D02*
X02216532Y00287973D01*
X02200534Y00271975D02*
X00048000Y00271975D01*
X00048000Y00255976D02*
X02184535Y00255976D01*
X02168537Y00239978D02*
X00048000Y00239978D01*
X00048000Y00223979D02*
X01182676Y00223979D01*
X01187500Y00200000D02*
X01937500Y00200000D01*
X02012500Y00125000D01*
X02012500Y00100000D01*
X02062500Y00100000D01*
X02262500Y00300000D01*
X02300000Y00300000D01*
X02400000Y00400000D01*
X02400000Y00525000D01*
X02312500Y00612500D01*
X02312500Y00640000D01*
X02354500Y00639941D02*
X02370500Y00639941D01*
X02370500Y00623942D02*
X02354500Y00623942D01*
X02354500Y00607944D02*
X02370500Y00607944D01*
X02370500Y00605646D02*
X02376894Y00590209D01*
X02388709Y00578394D01*
X02404146Y00572000D01*
X02420854Y00572000D01*
X02436291Y00578394D01*
X02448106Y00590209D01*
X02454500Y00605646D01*
X02454500Y00674354D01*
X02448106Y00689791D01*
X02436291Y00701606D01*
X02420854Y00708000D01*
X02404146Y00708000D01*
X02388709Y00701606D01*
X02376894Y00689791D01*
X02370500Y00674354D01*
X02370500Y00605646D01*
X02366996Y00591945D02*
X02376175Y00591945D01*
X02382994Y00575947D02*
X02394617Y00575947D01*
X02398993Y00559948D02*
X02786831Y00559948D01*
X02786500Y00543950D02*
X02414991Y00543950D01*
X02424000Y00527951D02*
X02489818Y00527951D01*
X02492350Y00529000D02*
X02475443Y00521997D01*
X02462503Y00509057D01*
X02455500Y00492150D01*
X02455500Y00413850D01*
X02462503Y00396943D01*
X02475443Y00384003D01*
X02492350Y00377000D01*
X02510650Y00377000D01*
X02527557Y00384003D01*
X02540497Y00396943D01*
X02547500Y00413850D01*
X02547500Y00492150D01*
X02540497Y00509057D01*
X02527557Y00521997D01*
X02510650Y00529000D01*
X02492350Y00529000D01*
X02513182Y00527951D02*
X02791843Y00527951D01*
X02805493Y00511953D02*
X02537601Y00511953D01*
X02545924Y00495954D02*
X02926508Y00495954D01*
X02926508Y00479956D02*
X02547500Y00479956D01*
X02547500Y00463957D02*
X02926508Y00463957D01*
X02926508Y00447959D02*
X02547500Y00447959D01*
X02547500Y00431960D02*
X02926508Y00431960D01*
X02926508Y00415962D02*
X02547500Y00415962D01*
X02541748Y00399963D02*
X02926508Y00399963D01*
X02926508Y00383965D02*
X02720710Y00383965D01*
X02707175Y00397500D02*
X02667825Y00397500D01*
X02640000Y00369675D01*
X02640000Y00330325D01*
X02667825Y00302500D01*
X02707175Y00302500D01*
X02735000Y00330325D01*
X02735000Y00369675D01*
X02707175Y00397500D01*
X02735000Y00367966D02*
X02926508Y00367966D01*
X02926508Y00351968D02*
X02735000Y00351968D01*
X02735000Y00335969D02*
X02926508Y00335969D01*
X02926508Y00319970D02*
X02724646Y00319970D01*
X02708647Y00303972D02*
X02926508Y00303972D01*
X02926508Y00287973D02*
X02716702Y00287973D01*
X02729811Y00271975D02*
X02926508Y00271975D01*
X02926508Y00255976D02*
X02735000Y00255976D01*
X02734762Y00239978D02*
X02926508Y00239978D01*
X02926508Y00223979D02*
X02728135Y00223979D01*
X02710180Y00207981D02*
X02926508Y00207981D01*
X02926508Y00191982D02*
X02663423Y00191982D01*
X02637500Y00200000D02*
X02512500Y00200000D01*
X02501500Y00197000D01*
X02500000Y00200000D01*
X02450000Y00200000D01*
X02350000Y00300000D01*
X02300000Y00300000D01*
X02311875Y00271975D02*
X02268416Y00271975D01*
X02252417Y00255976D02*
X02287423Y00255976D01*
X02284503Y00253057D02*
X02277500Y00236150D01*
X02277500Y00157850D01*
X02284503Y00140943D01*
X02297443Y00128003D01*
X02314350Y00121000D01*
X02332650Y00121000D01*
X02349557Y00128003D01*
X02362497Y00140943D01*
X02369500Y00157850D01*
X02369500Y00236150D01*
X02362497Y00253057D01*
X02349557Y00265997D01*
X02332650Y00273000D01*
X02314350Y00273000D01*
X02297443Y00265997D01*
X02284503Y00253057D01*
X02279086Y00239978D02*
X02236419Y00239978D01*
X02220420Y00223979D02*
X02277500Y00223979D01*
X02277500Y00207981D02*
X02204422Y00207981D01*
X02188423Y00191982D02*
X02277500Y00191982D01*
X02277500Y00175984D02*
X02172425Y00175984D01*
X02156426Y00159985D02*
X02277500Y00159985D01*
X02283242Y00143987D02*
X02140428Y00143987D01*
X02124429Y00127988D02*
X02297479Y00127988D01*
X02349521Y00127988D02*
X02475479Y00127988D01*
X02461242Y00143987D02*
X02363758Y00143987D01*
X02369500Y00159985D02*
X02455500Y00159985D01*
X02455500Y00175984D02*
X02369500Y00175984D01*
X02369500Y00191982D02*
X02424077Y00191982D01*
X02408078Y00207981D02*
X02369500Y00207981D01*
X02369500Y00223979D02*
X02392079Y00223979D01*
X02376081Y00239978D02*
X02367914Y00239978D01*
X02360082Y00255976D02*
X02359577Y00255976D01*
X02344084Y00271975D02*
X02335125Y00271975D01*
X02379969Y00303972D02*
X02666353Y00303972D01*
X02658298Y00287973D02*
X02395968Y00287973D01*
X02411966Y00271975D02*
X02489875Y00271975D01*
X02513125Y00271975D02*
X02645189Y00271975D01*
X02640000Y00255976D02*
X02537577Y00255976D01*
X02545914Y00239978D02*
X02640238Y00239978D01*
X02637500Y00200000D02*
X02687500Y00250000D01*
X02650354Y00319970D02*
X02363970Y00319970D01*
X02369910Y00335969D02*
X02640000Y00335969D01*
X02640000Y00351968D02*
X02385908Y00351968D01*
X02401907Y00367966D02*
X02640000Y00367966D01*
X02654289Y00383965D02*
X02527464Y00383965D01*
X02475536Y00383965D02*
X02417906Y00383965D01*
X02424000Y00399963D02*
X02461252Y00399963D01*
X02455500Y00415962D02*
X02424000Y00415962D01*
X02424000Y00431960D02*
X02455500Y00431960D01*
X02455500Y00447959D02*
X02424000Y00447959D01*
X02424000Y00463957D02*
X02455500Y00463957D01*
X02455500Y00479956D02*
X02424000Y00479956D01*
X02424000Y00495954D02*
X02457076Y00495954D01*
X02465399Y00511953D02*
X02424000Y00511953D01*
X02376000Y00511953D02*
X02359601Y00511953D01*
X02362497Y00509057D02*
X02349557Y00521997D01*
X02332650Y00529000D01*
X02314350Y00529000D01*
X02297443Y00521997D01*
X02284503Y00509057D01*
X02277500Y00492150D01*
X02277500Y00413850D01*
X02284503Y00396943D01*
X02297443Y00384003D01*
X02314350Y00377000D01*
X02332650Y00377000D01*
X02349557Y00384003D01*
X02362497Y00396943D01*
X02369500Y00413850D01*
X02369500Y00492150D01*
X02362497Y00509057D01*
X02367924Y00495954D02*
X02376000Y00495954D01*
X02376000Y00479956D02*
X02369500Y00479956D01*
X02369500Y00463957D02*
X02376000Y00463957D01*
X02376000Y00447959D02*
X02369500Y00447959D01*
X02369500Y00431960D02*
X02376000Y00431960D01*
X02376000Y00415962D02*
X02369500Y00415962D01*
X02366022Y00399963D02*
X02363748Y00399963D01*
X02350023Y00383965D02*
X02349464Y00383965D01*
X02334025Y00367966D02*
X00939407Y00367966D01*
X00955406Y00383965D02*
X02297536Y00383965D01*
X02283252Y00399963D02*
X00971404Y00399963D01*
X00987403Y00415962D02*
X02277500Y00415962D01*
X02277500Y00431960D02*
X01003401Y00431960D01*
X01019400Y00447959D02*
X02277500Y00447959D01*
X02277500Y00463957D02*
X01035398Y00463957D01*
X01051397Y00479956D02*
X02277500Y00479956D01*
X02279076Y00495954D02*
X01067395Y00495954D01*
X01083394Y00511953D02*
X02287399Y00511953D01*
X02311818Y00527951D02*
X01099392Y00527951D01*
X01115391Y00543950D02*
X02347109Y00543950D01*
X02335182Y00527951D02*
X02363108Y00527951D01*
X02331110Y00559948D02*
X01131389Y00559948D01*
X01147388Y00575947D02*
X02294617Y00575947D01*
X02276175Y00591945D02*
X01163386Y00591945D01*
X01179385Y00607944D02*
X02270500Y00607944D01*
X02270500Y00623942D02*
X01195383Y00623942D01*
X01237838Y00639941D02*
X01287162Y00639941D01*
X01288709Y00638394D02*
X01304146Y00632000D01*
X01320854Y00632000D01*
X01336291Y00638394D01*
X01348106Y00650209D01*
X01354500Y00665646D01*
X01354500Y00734354D01*
X01348106Y00749791D01*
X01336291Y00761606D01*
X01320854Y00768000D01*
X01304146Y00768000D01*
X01288709Y00761606D01*
X01276894Y00749791D01*
X01270500Y00734354D01*
X01270500Y00665646D01*
X01276894Y00650209D01*
X01288709Y00638394D01*
X01274520Y00655939D02*
X01250479Y00655939D01*
X01254500Y00671938D02*
X01270500Y00671938D01*
X01270500Y00687937D02*
X01254500Y00687937D01*
X01254500Y00703935D02*
X01270500Y00703935D01*
X01270500Y00719934D02*
X01254500Y00719934D01*
X01253846Y00735932D02*
X01271154Y00735932D01*
X01279034Y00751931D02*
X01245966Y00751931D01*
X01221025Y00767929D02*
X01303975Y00767929D01*
X01321025Y00767929D02*
X01403975Y00767929D01*
X01404146Y00768000D02*
X01388709Y00761606D01*
X01376894Y00749791D01*
X01370500Y00734354D01*
X01370500Y00665646D01*
X01376894Y00650209D01*
X01388709Y00638394D01*
X01404146Y00632000D01*
X01420854Y00632000D01*
X01436291Y00638394D01*
X01448106Y00650209D01*
X01454500Y00665646D01*
X01454500Y00734354D01*
X01448106Y00749791D01*
X01436291Y00761606D01*
X01420854Y00768000D01*
X01404146Y00768000D01*
X01421025Y00767929D02*
X01503975Y00767929D01*
X01504146Y00768000D02*
X01488709Y00761606D01*
X01476894Y00749791D01*
X01470500Y00734354D01*
X01470500Y00665646D01*
X01476894Y00650209D01*
X01488709Y00638394D01*
X01504146Y00632000D01*
X01520854Y00632000D01*
X01536291Y00638394D01*
X01548106Y00650209D01*
X01554500Y00665646D01*
X01554500Y00734354D01*
X01548106Y00749791D01*
X01536291Y00761606D01*
X01520854Y00768000D01*
X01504146Y00768000D01*
X01521025Y00767929D02*
X01603975Y00767929D01*
X01604146Y00768000D02*
X01588709Y00761606D01*
X01576894Y00749791D01*
X01570500Y00734354D01*
X01570500Y00665646D01*
X01576894Y00650209D01*
X01588709Y00638394D01*
X01604146Y00632000D01*
X01620854Y00632000D01*
X01636291Y00638394D01*
X01648106Y00650209D01*
X01654500Y00665646D01*
X01654500Y00734354D01*
X01648106Y00749791D01*
X01636291Y00761606D01*
X01620854Y00768000D01*
X01604146Y00768000D01*
X01621025Y00767929D02*
X01703975Y00767929D01*
X01704146Y00768000D02*
X01688709Y00761606D01*
X01676894Y00749791D01*
X01670500Y00734354D01*
X01670500Y00665646D01*
X01676894Y00650209D01*
X01688709Y00638394D01*
X01704146Y00632000D01*
X01720854Y00632000D01*
X01736291Y00638394D01*
X01748106Y00650209D01*
X01754500Y00665646D01*
X01754500Y00734354D01*
X01748106Y00749791D01*
X01736291Y00761606D01*
X01720854Y00768000D01*
X01704146Y00768000D01*
X01721025Y00767929D02*
X01803975Y00767929D01*
X01804146Y00768000D02*
X01788709Y00761606D01*
X01776894Y00749791D01*
X01770500Y00734354D01*
X01770500Y00665646D01*
X01776894Y00650209D01*
X01788709Y00638394D01*
X01804146Y00632000D01*
X01820854Y00632000D01*
X01836291Y00638394D01*
X01848106Y00650209D01*
X01854500Y00665646D01*
X01854500Y00734354D01*
X01848106Y00749791D01*
X01836291Y00761606D01*
X01820854Y00768000D01*
X01804146Y00768000D01*
X01821025Y00767929D02*
X01903975Y00767929D01*
X01904146Y00768000D02*
X01888709Y00761606D01*
X01876894Y00749791D01*
X01870500Y00734354D01*
X01870500Y00665646D01*
X01876894Y00650209D01*
X01888709Y00638394D01*
X01904146Y00632000D01*
X01920854Y00632000D01*
X01936291Y00638394D01*
X01948106Y00650209D01*
X01954500Y00665646D01*
X01954500Y00734354D01*
X01948106Y00749791D01*
X01936291Y00761606D01*
X01920854Y00768000D01*
X01904146Y00768000D01*
X01921025Y00767929D02*
X02003975Y00767929D01*
X02004146Y00768000D02*
X01988709Y00761606D01*
X01976894Y00749791D01*
X01970500Y00734354D01*
X01970500Y00665646D01*
X01976894Y00650209D01*
X01988709Y00638394D01*
X02004146Y00632000D01*
X02020854Y00632000D01*
X02036291Y00638394D01*
X02048106Y00650209D01*
X02054500Y00665646D01*
X02054500Y00734354D01*
X02048106Y00749791D01*
X02036291Y00761606D01*
X02020854Y00768000D01*
X02004146Y00768000D01*
X02017274Y00776000D02*
X02026095Y00779654D01*
X02032846Y00786405D01*
X02287319Y01040878D01*
X02287596Y01040764D01*
X02307089Y01040764D01*
X02325099Y01048224D01*
X02338883Y01062008D01*
X02346342Y01080017D01*
X02346342Y01099510D01*
X02338883Y01117520D01*
X02325099Y01131304D01*
X02307089Y01138764D01*
X02287596Y01138764D01*
X02269586Y01131304D01*
X02255802Y01117520D01*
X02248343Y01099510D01*
X02248343Y01080017D01*
X02251340Y01072781D01*
X02002559Y00824000D01*
X01870441Y00824000D01*
X01959050Y00912609D01*
X01963907Y00900883D01*
X01975883Y00888907D01*
X01991531Y00882425D01*
X02008469Y00882425D01*
X02024117Y00888907D01*
X02036093Y00900883D01*
X02036141Y00901000D01*
X02042274Y00901000D01*
X02051095Y00904654D01*
X02187319Y01040878D01*
X02187596Y01040764D01*
X02207089Y01040764D01*
X02225099Y01048224D01*
X02238883Y01062008D01*
X02246342Y01080017D01*
X02246342Y01099510D01*
X02238883Y01117520D01*
X02225099Y01131304D01*
X02207089Y01138764D01*
X02187596Y01138764D01*
X02169586Y01131304D01*
X02155802Y01117520D01*
X02148343Y01099510D01*
X02148343Y01080017D01*
X02151340Y01072781D01*
X02031884Y00953325D01*
X02024117Y00961093D01*
X02012391Y00965950D01*
X02087319Y01040878D01*
X02087596Y01040764D01*
X02107089Y01040764D01*
X02125099Y01048224D01*
X02138883Y01062008D01*
X02146342Y01080017D01*
X02146342Y01099510D01*
X02138883Y01117520D01*
X02125099Y01131304D01*
X02107089Y01138764D01*
X02087596Y01138764D01*
X02069586Y01131304D01*
X02055802Y01117520D01*
X02048343Y01099510D01*
X02048343Y01080017D01*
X02051340Y01072781D01*
X01978450Y00999891D01*
X01973593Y01011617D01*
X01961617Y01023593D01*
X01945969Y01030075D01*
X01929031Y01030075D01*
X01913383Y01023593D01*
X01901407Y01011617D01*
X01894925Y00995969D01*
X01894925Y00979031D01*
X01901407Y00963383D01*
X01902925Y00961866D01*
X01902559Y00961500D01*
X00932726Y00961500D01*
X00923905Y00957846D01*
X00858585Y00892526D01*
X00858469Y00892575D01*
X00841531Y00892575D01*
X00825883Y00886093D01*
X00813907Y00874117D01*
X00807425Y00858469D01*
X00807425Y00841531D01*
X00813907Y00825883D01*
X00815790Y00824000D01*
X00682726Y00824000D01*
X00673905Y00820346D01*
X00621352Y00767793D01*
X00620854Y00768000D01*
X00604146Y00768000D01*
X00588709Y00761606D01*
X00576894Y00749791D01*
X00570500Y00734354D01*
X00570500Y00665646D01*
X00576894Y00650209D01*
X00588709Y00638394D01*
X00604146Y00632000D01*
X00620854Y00632000D01*
X00636291Y00638394D01*
X00648106Y00650209D01*
X00654500Y00665646D01*
X00654500Y00733059D01*
X00697441Y00776000D01*
X02017274Y00776000D01*
X02021025Y00767929D02*
X02926508Y00767929D01*
X02926508Y00751931D02*
X02045966Y00751931D01*
X02053846Y00735932D02*
X02926508Y00735932D01*
X02926508Y00719934D02*
X02054500Y00719934D01*
X02054500Y00703935D02*
X02294332Y00703935D01*
X02276126Y00687937D02*
X02054500Y00687937D01*
X02054500Y00671938D02*
X02270500Y00671938D01*
X02270500Y00655939D02*
X02050479Y00655939D01*
X02037838Y00639941D02*
X02270500Y00639941D01*
X02354500Y00655939D02*
X02370500Y00655939D01*
X02370500Y00671938D02*
X02354500Y00671938D01*
X02348874Y00687937D02*
X02376126Y00687937D01*
X02394332Y00703935D02*
X02330668Y00703935D01*
X02430668Y00703935D02*
X02490034Y00703935D01*
X02489439Y00703632D02*
X02483836Y00699561D01*
X02478939Y00694664D01*
X02474868Y00689061D01*
X02471724Y00682890D01*
X02469583Y00676303D01*
X02468500Y00669463D01*
X02468500Y00640000D01*
X02512499Y00640000D01*
X02512499Y00639999D01*
X02512500Y00639999D01*
X02512500Y00570000D01*
X02515963Y00570000D01*
X02522803Y00571083D01*
X02529390Y00573224D01*
X02535561Y00576368D01*
X02541164Y00580439D01*
X02546061Y00585336D01*
X02550132Y00590939D01*
X02553276Y00597110D01*
X02555416Y00603697D01*
X02556500Y00610537D01*
X02556500Y00639999D01*
X02512501Y00639999D01*
X02512501Y00640000D01*
X02556500Y00640000D01*
X02556500Y00669463D01*
X02555416Y00676303D01*
X02553276Y00682890D01*
X02550132Y00689061D01*
X02546061Y00694664D01*
X02541164Y00699561D01*
X02535561Y00703632D01*
X02529390Y00706776D01*
X02522803Y00708916D01*
X02515963Y00710000D01*
X02512500Y00710000D01*
X02512500Y00640001D01*
X02512499Y00640001D01*
X02512499Y00710000D01*
X02509037Y00710000D01*
X02502197Y00708916D01*
X02495610Y00706776D01*
X02489439Y00703632D01*
X02474295Y00687937D02*
X02448874Y00687937D01*
X02454500Y00671938D02*
X02468892Y00671938D01*
X02468500Y00655939D02*
X02454500Y00655939D01*
X02454500Y00639941D02*
X02468500Y00639941D01*
X02468500Y00639999D02*
X02468500Y00610537D01*
X02469583Y00603697D01*
X02471724Y00597110D01*
X02474868Y00590939D01*
X02478939Y00585336D01*
X02483836Y00580439D01*
X02489439Y00576368D01*
X02495610Y00573224D01*
X02502197Y00571083D01*
X02509037Y00570000D01*
X02512499Y00570000D01*
X02512499Y00639999D01*
X02468500Y00639999D01*
X02468500Y00623942D02*
X02454500Y00623942D01*
X02454500Y00607944D02*
X02468911Y00607944D01*
X02474355Y00591945D02*
X02448825Y00591945D01*
X02430383Y00575947D02*
X02490265Y00575947D01*
X02512499Y00575947D02*
X02512500Y00575947D01*
X02512499Y00591945D02*
X02512500Y00591945D01*
X02512499Y00607944D02*
X02512500Y00607944D01*
X02512499Y00623942D02*
X02512500Y00623942D01*
X02512499Y00639941D02*
X02512500Y00639941D01*
X02512499Y00655939D02*
X02512500Y00655939D01*
X02512499Y00671938D02*
X02512500Y00671938D01*
X02512499Y00687937D02*
X02512500Y00687937D01*
X02512499Y00703935D02*
X02512500Y00703935D01*
X02534966Y00703935D02*
X02926508Y00703935D01*
X02926508Y00687937D02*
X02921947Y00687937D01*
X02864500Y00687937D02*
X02860500Y00687937D01*
X02860500Y00671938D02*
X02864500Y00671938D01*
X02864500Y00655939D02*
X02860500Y00655939D01*
X02860500Y00639941D02*
X02864500Y00639941D01*
X02864500Y00623942D02*
X02860500Y00623942D01*
X02860500Y00607944D02*
X02864500Y00607944D01*
X02911438Y00591945D02*
X02926508Y00591945D01*
X02926508Y00607944D02*
X02915689Y00607944D01*
X02919506Y00511953D02*
X02926508Y00511953D01*
X02813562Y00591945D02*
X02550645Y00591945D01*
X02556089Y00607944D02*
X02809311Y00607944D01*
X02792101Y00623942D02*
X02556500Y00623942D01*
X02556500Y00639941D02*
X02785495Y00639941D01*
X02784843Y00655939D02*
X02556500Y00655939D01*
X02556108Y00671938D02*
X02789806Y00671938D01*
X02803053Y00687937D02*
X02550705Y00687937D01*
X02534735Y00575947D02*
X02793458Y00575947D01*
X02926508Y00783928D02*
X02030369Y00783928D01*
X02046367Y00799926D02*
X02926508Y00799926D01*
X02926508Y00815925D02*
X02062366Y00815925D01*
X02078364Y00831923D02*
X02926508Y00831923D01*
X02926508Y00847922D02*
X02094363Y00847922D01*
X02110361Y00863920D02*
X02926508Y00863920D01*
X02926508Y00879919D02*
X02126360Y00879919D01*
X02142358Y00895917D02*
X02926508Y00895917D01*
X02926508Y00911916D02*
X02158357Y00911916D01*
X02174355Y00927914D02*
X02926508Y00927914D01*
X02926508Y00943913D02*
X02190354Y00943913D01*
X02206352Y00959911D02*
X02926508Y00959911D01*
X02926508Y00975910D02*
X02222351Y00975910D01*
X02238349Y00991908D02*
X02926508Y00991908D01*
X02926508Y01007907D02*
X02869500Y01007907D01*
X02885499Y01023906D02*
X02926508Y01023906D01*
X02926508Y01039904D02*
X02898447Y01039904D01*
X02905074Y01055903D02*
X02926508Y01055903D01*
X02926508Y01071901D02*
X02911090Y01071901D01*
X02911090Y01087900D02*
X02926508Y01087900D01*
X02926508Y01103898D02*
X02911090Y01103898D01*
X02906619Y01119897D02*
X02926508Y01119897D01*
X02926508Y01135895D02*
X02899992Y01135895D01*
X02742257Y01023906D02*
X02270346Y01023906D01*
X02254348Y01007907D02*
X02758255Y01007907D01*
X02729308Y01039904D02*
X02608556Y01039904D01*
X02599185Y01039904D02*
X02595500Y01039904D01*
X02586129Y01039904D02*
X02286345Y01039904D01*
X02287500Y01075000D02*
X02012500Y00800000D01*
X00687500Y00800000D01*
X00612500Y00725000D01*
X00612500Y00700000D01*
X00654500Y00703935D02*
X00670500Y00703935D01*
X00670500Y00719934D02*
X00654500Y00719934D01*
X00657373Y00735932D02*
X00671154Y00735932D01*
X00670500Y00734354D02*
X00670500Y00665646D01*
X00676894Y00650209D01*
X00688709Y00638394D01*
X00704146Y00632000D01*
X00720854Y00632000D01*
X00736291Y00638394D01*
X00748106Y00650209D01*
X00754500Y00665646D01*
X00754500Y00734354D01*
X00748106Y00749791D01*
X00736291Y00761606D01*
X00720854Y00768000D01*
X00704146Y00768000D01*
X00688709Y00761606D01*
X00676894Y00749791D01*
X00670500Y00734354D01*
X00673372Y00751931D02*
X00679034Y00751931D01*
X00689370Y00767929D02*
X00703975Y00767929D01*
X00721025Y00767929D02*
X00803975Y00767929D01*
X00804146Y00768000D02*
X00788709Y00761606D01*
X00776894Y00749791D01*
X00770500Y00734354D01*
X00770500Y00665646D01*
X00776894Y00650209D01*
X00788709Y00638394D01*
X00804146Y00632000D01*
X00820854Y00632000D01*
X00836291Y00638394D01*
X00848106Y00650209D01*
X00854500Y00665646D01*
X00854500Y00734354D01*
X00848106Y00749791D01*
X00836291Y00761606D01*
X00820854Y00768000D01*
X00804146Y00768000D01*
X00821025Y00767929D02*
X00903975Y00767929D01*
X00904146Y00768000D02*
X00888709Y00761606D01*
X00876894Y00749791D01*
X00870500Y00734354D01*
X00870500Y00665646D01*
X00876894Y00650209D01*
X00888709Y00638394D01*
X00904146Y00632000D01*
X00920854Y00632000D01*
X00936291Y00638394D01*
X00948106Y00650209D01*
X00954500Y00665646D01*
X00954500Y00734354D01*
X00948106Y00749791D01*
X00936291Y00761606D01*
X00920854Y00768000D01*
X00904146Y00768000D01*
X00921025Y00767929D02*
X01003975Y00767929D01*
X01004146Y00768000D02*
X00988709Y00761606D01*
X00976894Y00749791D01*
X00970500Y00734354D01*
X00970500Y00665646D01*
X00976894Y00650209D01*
X00988709Y00638394D01*
X01004146Y00632000D01*
X01020854Y00632000D01*
X01036291Y00638394D01*
X01048106Y00650209D01*
X01054500Y00665646D01*
X01054500Y00734354D01*
X01048106Y00749791D01*
X01036291Y00761606D01*
X01020854Y00768000D01*
X01004146Y00768000D01*
X01021025Y00767929D02*
X01103975Y00767929D01*
X01104146Y00768000D02*
X01088709Y00761606D01*
X01076894Y00749791D01*
X01070500Y00734354D01*
X01070500Y00665646D01*
X01076894Y00650209D01*
X01088709Y00638394D01*
X01104146Y00632000D01*
X01120854Y00632000D01*
X01136291Y00638394D01*
X01148106Y00650209D01*
X01154500Y00665646D01*
X01154500Y00734354D01*
X01148106Y00749791D01*
X01136291Y00761606D01*
X01120854Y00768000D01*
X01104146Y00768000D01*
X01121025Y00767929D02*
X01203975Y00767929D01*
X01179034Y00751931D02*
X01145966Y00751931D01*
X01153846Y00735932D02*
X01171154Y00735932D01*
X01170500Y00719934D02*
X01154500Y00719934D01*
X01154500Y00703935D02*
X01170500Y00703935D01*
X01170500Y00687937D02*
X01154500Y00687937D01*
X01154500Y00671938D02*
X01170500Y00671938D01*
X01159498Y00655939D02*
X01150479Y00655939D01*
X01143500Y00639941D02*
X01137838Y00639941D01*
X01127501Y00623942D02*
X00048000Y00623942D01*
X00048000Y00639941D02*
X00084521Y00639941D01*
X00083836Y00640439D02*
X00089439Y00636368D01*
X00095610Y00633224D01*
X00102197Y00631083D01*
X00109037Y00630000D01*
X00112499Y00630000D01*
X00112499Y00699999D01*
X00068500Y00699999D01*
X00068500Y00670537D01*
X00069583Y00663697D01*
X00071724Y00657110D01*
X00074868Y00650939D01*
X00078939Y00645336D01*
X00083836Y00640439D01*
X00072320Y00655939D02*
X00048000Y00655939D01*
X00048000Y00671938D02*
X00068500Y00671938D01*
X00068500Y00687937D02*
X00048000Y00687937D01*
X00048000Y00703935D02*
X00068500Y00703935D01*
X00068500Y00700000D02*
X00112499Y00700000D01*
X00112499Y00699999D01*
X00112500Y00699999D01*
X00112500Y00630000D01*
X00115963Y00630000D01*
X00122803Y00631083D01*
X00129390Y00633224D01*
X00135561Y00636368D01*
X00141164Y00640439D01*
X00146061Y00645336D01*
X00150132Y00650939D01*
X00153276Y00657110D01*
X00155416Y00663697D01*
X00156500Y00670537D01*
X00156500Y00699999D01*
X00112501Y00699999D01*
X00112501Y00700000D01*
X00156500Y00700000D01*
X00156500Y00729463D01*
X00155416Y00736303D01*
X00153276Y00742890D01*
X00150132Y00749061D01*
X00146061Y00754664D01*
X00141164Y00759561D01*
X00135561Y00763632D01*
X00129390Y00766776D01*
X00122803Y00768916D01*
X00115963Y00770000D01*
X00112500Y00770000D01*
X00112500Y00700001D01*
X00112499Y00700001D01*
X00112499Y00770000D01*
X00109037Y00770000D01*
X00102197Y00768916D01*
X00095610Y00766776D01*
X00089439Y00763632D01*
X00083836Y00759561D01*
X00078939Y00754664D01*
X00074868Y00749061D01*
X00071724Y00742890D01*
X00069583Y00736303D01*
X00068500Y00729463D01*
X00068500Y00700000D01*
X00068500Y00719934D02*
X00048000Y00719934D01*
X00048000Y00735932D02*
X00069525Y00735932D01*
X00076953Y00751931D02*
X00048000Y00751931D01*
X00048000Y00767929D02*
X00099158Y00767929D01*
X00112499Y00767929D02*
X00112500Y00767929D01*
X00125842Y00767929D02*
X00135630Y00767929D01*
X00148047Y00751931D02*
X00151628Y00751931D01*
X00155475Y00735932D02*
X00167627Y00735932D01*
X00170500Y00719934D02*
X00156500Y00719934D01*
X00156500Y00703935D02*
X00170500Y00703935D01*
X00170500Y00687937D02*
X00156500Y00687937D01*
X00156500Y00671938D02*
X00170500Y00671938D01*
X00174520Y00655939D02*
X00152680Y00655939D01*
X00140479Y00639941D02*
X00187162Y00639941D01*
X00188673Y00607944D02*
X01111503Y00607944D01*
X01095504Y00591945D02*
X00193492Y00591945D01*
X00193492Y00575947D02*
X01079506Y00575947D01*
X01063507Y00559948D02*
X00120500Y00559948D01*
X00120500Y00543950D02*
X00104500Y00543950D01*
X00104500Y00527951D02*
X00120500Y00527951D01*
X00120500Y00511953D02*
X00104500Y00511953D01*
X00048000Y00495954D02*
X00999513Y00495954D01*
X00983515Y00479956D02*
X00048000Y00479956D01*
X00048000Y00463957D02*
X00967516Y00463957D01*
X00951518Y00447959D02*
X00048000Y00447959D01*
X00048000Y00431960D02*
X00935519Y00431960D01*
X00919521Y00415962D02*
X00048000Y00415962D01*
X00048000Y00399963D02*
X00903522Y00399963D01*
X00887523Y00383965D02*
X00189352Y00383965D01*
X00191492Y00367966D02*
X00871525Y00367966D01*
X00875000Y00337500D02*
X01212500Y00675000D01*
X01212500Y00700000D01*
X01337838Y00639941D02*
X01387162Y00639941D01*
X01374520Y00655939D02*
X01350479Y00655939D01*
X01354500Y00671938D02*
X01370500Y00671938D01*
X01370500Y00687937D02*
X01354500Y00687937D01*
X01354500Y00703935D02*
X01370500Y00703935D01*
X01370500Y00719934D02*
X01354500Y00719934D01*
X01353846Y00735932D02*
X01371154Y00735932D01*
X01379034Y00751931D02*
X01345966Y00751931D01*
X01445966Y00751931D02*
X01479034Y00751931D01*
X01471154Y00735932D02*
X01453846Y00735932D01*
X01454500Y00719934D02*
X01470500Y00719934D01*
X01470500Y00703935D02*
X01454500Y00703935D01*
X01454500Y00687937D02*
X01470500Y00687937D01*
X01470500Y00671938D02*
X01454500Y00671938D01*
X01450479Y00655939D02*
X01474520Y00655939D01*
X01487162Y00639941D02*
X01437838Y00639941D01*
X01537838Y00639941D02*
X01587162Y00639941D01*
X01574520Y00655939D02*
X01550479Y00655939D01*
X01554500Y00671938D02*
X01570500Y00671938D01*
X01570500Y00687937D02*
X01554500Y00687937D01*
X01554500Y00703935D02*
X01570500Y00703935D01*
X01570500Y00719934D02*
X01554500Y00719934D01*
X01553846Y00735932D02*
X01571154Y00735932D01*
X01579034Y00751931D02*
X01545966Y00751931D01*
X01645966Y00751931D02*
X01679034Y00751931D01*
X01671154Y00735932D02*
X01653846Y00735932D01*
X01654500Y00719934D02*
X01670500Y00719934D01*
X01670500Y00703935D02*
X01654500Y00703935D01*
X01654500Y00687937D02*
X01670500Y00687937D01*
X01670500Y00671938D02*
X01654500Y00671938D01*
X01650479Y00655939D02*
X01674520Y00655939D01*
X01687162Y00639941D02*
X01637838Y00639941D01*
X01737838Y00639941D02*
X01787162Y00639941D01*
X01774520Y00655939D02*
X01750479Y00655939D01*
X01754500Y00671938D02*
X01770500Y00671938D01*
X01770500Y00687937D02*
X01754500Y00687937D01*
X01754500Y00703935D02*
X01770500Y00703935D01*
X01770500Y00719934D02*
X01754500Y00719934D01*
X01753846Y00735932D02*
X01771154Y00735932D01*
X01779034Y00751931D02*
X01745966Y00751931D01*
X01845966Y00751931D02*
X01879034Y00751931D01*
X01871154Y00735932D02*
X01853846Y00735932D01*
X01854500Y00719934D02*
X01870500Y00719934D01*
X01870500Y00703935D02*
X01854500Y00703935D01*
X01854500Y00687937D02*
X01870500Y00687937D01*
X01870500Y00671938D02*
X01854500Y00671938D01*
X01850479Y00655939D02*
X01874520Y00655939D01*
X01887162Y00639941D02*
X01837838Y00639941D01*
X01937838Y00639941D02*
X01987162Y00639941D01*
X01974520Y00655939D02*
X01950479Y00655939D01*
X01954500Y00671938D02*
X01970500Y00671938D01*
X01970500Y00687937D02*
X01954500Y00687937D01*
X01954500Y00703935D02*
X01970500Y00703935D01*
X01970500Y00719934D02*
X01954500Y00719934D01*
X01953846Y00735932D02*
X01971154Y00735932D01*
X01979034Y00751931D02*
X01945966Y00751931D01*
X02010482Y00831923D02*
X01878364Y00831923D01*
X01894363Y00847922D02*
X02026481Y00847922D01*
X02042479Y00863920D02*
X01910361Y00863920D01*
X01926360Y00879919D02*
X02058478Y00879919D01*
X02074476Y00895917D02*
X02031127Y00895917D01*
X02037500Y00925000D02*
X02000000Y00925000D01*
X02037500Y00925000D02*
X02200000Y01087500D01*
X02197343Y01089764D01*
X02242981Y01071901D02*
X02250460Y01071901D01*
X02248343Y01087900D02*
X02246342Y01087900D01*
X02244525Y01103898D02*
X02250160Y01103898D01*
X02258179Y01119897D02*
X02236506Y01119897D01*
X02214014Y01135895D02*
X02280671Y01135895D01*
X02314014Y01135895D02*
X02380671Y01135895D01*
X02387596Y01138764D02*
X02369586Y01131304D01*
X02355802Y01117520D01*
X02348343Y01099510D01*
X02348343Y01080017D01*
X02355802Y01062008D01*
X02369586Y01048224D01*
X02387596Y01040764D01*
X02407089Y01040764D01*
X02425099Y01048224D01*
X02438883Y01062008D01*
X02446342Y01080017D01*
X02446342Y01099510D01*
X02438883Y01117520D01*
X02425099Y01131304D01*
X02407089Y01138764D01*
X02387596Y01138764D01*
X02414014Y01135895D02*
X02480671Y01135895D01*
X02487596Y01138764D02*
X02469586Y01131304D01*
X02455802Y01117520D01*
X02448343Y01099510D01*
X02448343Y01080017D01*
X02455802Y01062008D01*
X02469586Y01048224D01*
X02487596Y01040764D01*
X02507089Y01040764D01*
X02525099Y01048224D01*
X02538883Y01062008D01*
X02546342Y01080017D01*
X02546342Y01099510D01*
X02538883Y01117520D01*
X02525099Y01131304D01*
X02507089Y01138764D01*
X02487596Y01138764D01*
X02514014Y01135895D02*
X02575544Y01135895D01*
X02556196Y01119897D02*
X02536506Y01119897D01*
X02544525Y01103898D02*
X02548311Y01103898D01*
X02546342Y01087900D02*
X02546343Y01087900D01*
X02549522Y01071901D02*
X02542981Y01071901D01*
X02532778Y01055903D02*
X02559079Y01055903D01*
X02595500Y01055903D02*
X02599185Y01055903D01*
X02599185Y01071901D02*
X02595500Y01071901D01*
X02595500Y01087900D02*
X02599185Y01087900D01*
X02635606Y01055903D02*
X02722681Y01055903D01*
X02716665Y01071901D02*
X02645163Y01071901D01*
X02648342Y01087900D02*
X02716665Y01087900D01*
X02716665Y01103898D02*
X02646375Y01103898D01*
X02638489Y01119897D02*
X02721137Y01119897D01*
X02727764Y01135895D02*
X02619141Y01135895D01*
X02458179Y01119897D02*
X02436506Y01119897D01*
X02444525Y01103898D02*
X02450160Y01103898D01*
X02448343Y01087900D02*
X02446342Y01087900D01*
X02442981Y01071901D02*
X02451704Y01071901D01*
X02461907Y01055903D02*
X02432778Y01055903D01*
X02361907Y01055903D02*
X02332778Y01055903D01*
X02342981Y01071901D02*
X02351704Y01071901D01*
X02348343Y01087900D02*
X02346342Y01087900D01*
X02344525Y01103898D02*
X02350160Y01103898D01*
X02358179Y01119897D02*
X02336506Y01119897D01*
X02297343Y01089764D02*
X02287500Y01087500D01*
X02287500Y01075000D01*
X02234461Y01055903D02*
X02232778Y01055903D01*
X02218463Y01039904D02*
X02186345Y01039904D01*
X02170346Y01023906D02*
X02202464Y01023906D01*
X02186466Y01007907D02*
X02154348Y01007907D01*
X02138349Y00991908D02*
X02170467Y00991908D01*
X02154469Y00975910D02*
X02122351Y00975910D01*
X02106352Y00959911D02*
X02138470Y00959911D01*
X02122472Y00943913D02*
X02090354Y00943913D01*
X02074355Y00927914D02*
X02106473Y00927914D01*
X02090475Y00911916D02*
X02058357Y00911916D01*
X02038470Y00959911D02*
X02025298Y00959911D01*
X02022351Y00975910D02*
X02054469Y00975910D01*
X02070468Y00991908D02*
X02038349Y00991908D01*
X02054348Y01007907D02*
X02086466Y01007907D01*
X02102465Y01023906D02*
X02070346Y01023906D01*
X02086345Y01039904D02*
X02118463Y01039904D01*
X02132778Y01055903D02*
X02134462Y01055903D01*
X02142981Y01071901D02*
X02150460Y01071901D01*
X02148343Y01087900D02*
X02146342Y01087900D01*
X02144525Y01103898D02*
X02150160Y01103898D01*
X02158179Y01119897D02*
X02136506Y01119897D01*
X02114014Y01135895D02*
X02180671Y01135895D01*
X02097343Y01089764D02*
X02087500Y01087500D01*
X02087500Y01075000D01*
X01837500Y00825000D01*
X00987500Y00825000D01*
X00950000Y00862500D01*
X00893973Y00927914D02*
X00481500Y00927914D01*
X00481500Y00925000D02*
X00481500Y00943225D01*
X00455725Y00969000D01*
X00437500Y00969000D01*
X00437500Y00925001D01*
X00437499Y00925001D01*
X00437499Y00969000D01*
X00419275Y00969000D01*
X00393500Y00943225D01*
X00393500Y00925000D01*
X00437499Y00925000D01*
X00437499Y00924999D01*
X00393500Y00924999D01*
X00393500Y00906775D01*
X00419275Y00881000D01*
X00437499Y00881000D01*
X00437499Y00924999D01*
X00437500Y00924999D01*
X00437500Y00881000D01*
X00455725Y00881000D01*
X00481500Y00906775D01*
X00481500Y00924999D01*
X00437501Y00924999D01*
X00437501Y00925000D01*
X00481500Y00925000D01*
X00481500Y00911916D02*
X00877975Y00911916D01*
X00861976Y00895917D02*
X00470643Y00895917D01*
X00437500Y00895917D02*
X00437499Y00895917D01*
X00437499Y00911916D02*
X00437500Y00911916D01*
X00437499Y00927914D02*
X00437500Y00927914D01*
X00437499Y00943913D02*
X00437500Y00943913D01*
X00437499Y00959911D02*
X00437500Y00959911D01*
X00464814Y00959911D02*
X00928891Y00959911D01*
X00937500Y00937500D02*
X00850000Y00850000D01*
X00819709Y00879919D02*
X00404022Y00879919D01*
X00404357Y00895917D02*
X00388024Y00895917D01*
X00386500Y00911916D02*
X00393500Y00911916D01*
X00393500Y00927914D02*
X00386500Y00927914D01*
X00386500Y00943913D02*
X00394188Y00943913D01*
X00386500Y00959911D02*
X00410186Y00959911D01*
X00386500Y00975910D02*
X01896218Y00975910D01*
X01894925Y00991908D02*
X00386500Y00991908D01*
X00386500Y01007907D02*
X01899870Y01007907D01*
X01914138Y01023906D02*
X00386500Y01023906D01*
X00386500Y01039904D02*
X02018463Y01039904D01*
X02025099Y01048224D02*
X02038883Y01062008D01*
X02046342Y01080017D01*
X02046342Y01099510D01*
X02038883Y01117520D01*
X02025099Y01131304D01*
X02007089Y01138764D01*
X01987596Y01138764D01*
X01969586Y01131304D01*
X01955802Y01117520D01*
X01948343Y01099510D01*
X01948343Y01080017D01*
X01955802Y01062008D01*
X01969586Y01048224D01*
X01987596Y01040764D01*
X02007089Y01040764D01*
X02025099Y01048224D01*
X02032778Y01055903D02*
X02034462Y01055903D01*
X02042981Y01071901D02*
X02050460Y01071901D01*
X02048343Y01087900D02*
X02046342Y01087900D01*
X02044525Y01103898D02*
X02050160Y01103898D01*
X02058179Y01119897D02*
X02036506Y01119897D01*
X02014014Y01135895D02*
X02080671Y01135895D01*
X01980671Y01135895D02*
X01914014Y01135895D01*
X01907089Y01138764D02*
X01887596Y01138764D01*
X01869586Y01131304D01*
X01855802Y01117520D01*
X01848343Y01099510D01*
X01848343Y01080017D01*
X01855802Y01062008D01*
X01869586Y01048224D01*
X01887596Y01040764D01*
X01907089Y01040764D01*
X01925099Y01048224D01*
X01938883Y01062008D01*
X01946342Y01080017D01*
X01946342Y01099510D01*
X01938883Y01117520D01*
X01925099Y01131304D01*
X01907089Y01138764D01*
X01880671Y01135895D02*
X01814014Y01135895D01*
X01807089Y01138764D02*
X01787596Y01138764D01*
X01769586Y01131304D01*
X01755802Y01117520D01*
X01748343Y01099510D01*
X01748343Y01080017D01*
X01755802Y01062008D01*
X01769586Y01048224D01*
X01787596Y01040764D01*
X01807089Y01040764D01*
X01825099Y01048224D01*
X01838883Y01062008D01*
X01846342Y01080017D01*
X01846342Y01099510D01*
X01838883Y01117520D01*
X01825099Y01131304D01*
X01807089Y01138764D01*
X01780671Y01135895D02*
X01714014Y01135895D01*
X01707089Y01138764D02*
X01687596Y01138764D01*
X01669586Y01131304D01*
X01655802Y01117520D01*
X01648343Y01099510D01*
X01648343Y01080017D01*
X01655802Y01062008D01*
X01669586Y01048224D01*
X01687596Y01040764D01*
X01707089Y01040764D01*
X01725099Y01048224D01*
X01738883Y01062008D01*
X01746342Y01080017D01*
X01746342Y01099510D01*
X01738883Y01117520D01*
X01725099Y01131304D01*
X01707089Y01138764D01*
X01680671Y01135895D02*
X01614014Y01135895D01*
X01607089Y01138764D02*
X01587596Y01138764D01*
X01569586Y01131304D01*
X01555802Y01117520D01*
X01548343Y01099510D01*
X01548343Y01080017D01*
X01555802Y01062008D01*
X01569586Y01048224D01*
X01587596Y01040764D01*
X01607089Y01040764D01*
X01625099Y01048224D01*
X01638883Y01062008D01*
X01646342Y01080017D01*
X01646342Y01099510D01*
X01638883Y01117520D01*
X01625099Y01131304D01*
X01607089Y01138764D01*
X01580671Y01135895D02*
X01514014Y01135895D01*
X01507089Y01138764D02*
X01487596Y01138764D01*
X01469586Y01131304D01*
X01455802Y01117520D01*
X01448343Y01099510D01*
X01448343Y01080017D01*
X01455802Y01062008D01*
X01469586Y01048224D01*
X01487596Y01040764D01*
X01507089Y01040764D01*
X01525099Y01048224D01*
X01538883Y01062008D01*
X01546342Y01080017D01*
X01546342Y01099510D01*
X01538883Y01117520D01*
X01525099Y01131304D01*
X01507089Y01138764D01*
X01480671Y01135895D02*
X01414014Y01135895D01*
X01407089Y01138764D02*
X01387596Y01138764D01*
X01369586Y01131304D01*
X01355802Y01117520D01*
X01348343Y01099510D01*
X01348343Y01080017D01*
X01355802Y01062008D01*
X01369586Y01048224D01*
X01387596Y01040764D01*
X01407089Y01040764D01*
X01425099Y01048224D01*
X01438883Y01062008D01*
X01446342Y01080017D01*
X01446342Y01099510D01*
X01438883Y01117520D01*
X01425099Y01131304D01*
X01407089Y01138764D01*
X01380671Y01135895D02*
X01314014Y01135895D01*
X01307089Y01138764D02*
X01287596Y01138764D01*
X01269586Y01131304D01*
X01255802Y01117520D01*
X01248343Y01099510D01*
X01248343Y01080017D01*
X01255802Y01062008D01*
X01269586Y01048224D01*
X01287596Y01040764D01*
X01307089Y01040764D01*
X01325099Y01048224D01*
X01338883Y01062008D01*
X01346342Y01080017D01*
X01346342Y01099510D01*
X01338883Y01117520D01*
X01325099Y01131304D01*
X01307089Y01138764D01*
X01280671Y01135895D02*
X01214014Y01135895D01*
X01207089Y01138764D02*
X01225099Y01131304D01*
X01238883Y01117520D01*
X01246342Y01099510D01*
X01246342Y01080017D01*
X01238883Y01062008D01*
X01225099Y01048224D01*
X01207089Y01040764D01*
X01187596Y01040764D01*
X01169586Y01048224D01*
X01155802Y01062008D01*
X01148343Y01080017D01*
X01148343Y01099510D01*
X01155802Y01117520D01*
X01169586Y01131304D01*
X01187596Y01138764D01*
X01207089Y01138764D01*
X01180671Y01135895D02*
X01114014Y01135895D01*
X01107089Y01138764D02*
X01125099Y01131304D01*
X01138883Y01117520D01*
X01146342Y01099510D01*
X01146342Y01080017D01*
X01138883Y01062008D01*
X01125099Y01048224D01*
X01107089Y01040764D01*
X01087596Y01040764D01*
X01069586Y01048224D01*
X01055802Y01062008D01*
X01048343Y01080017D01*
X01048343Y01099510D01*
X01055802Y01117520D01*
X01069586Y01131304D01*
X01087596Y01138764D01*
X01107089Y01138764D01*
X01080671Y01135895D02*
X00353447Y01135895D01*
X00354500Y01119897D02*
X01058179Y01119897D01*
X01050160Y01103898D02*
X00367543Y01103898D01*
X00383134Y01087900D02*
X01048343Y01087900D01*
X01051704Y01071901D02*
X00386500Y01071901D01*
X00386500Y01055903D02*
X01061907Y01055903D01*
X01132778Y01055903D02*
X01161907Y01055903D01*
X01151704Y01071901D02*
X01142981Y01071901D01*
X01146342Y01087900D02*
X01148343Y01087900D01*
X01150160Y01103898D02*
X01144525Y01103898D01*
X01136506Y01119897D02*
X01158179Y01119897D01*
X01236506Y01119897D02*
X01258179Y01119897D01*
X01250160Y01103898D02*
X01244525Y01103898D01*
X01246342Y01087900D02*
X01248343Y01087900D01*
X01251704Y01071901D02*
X01242981Y01071901D01*
X01232778Y01055903D02*
X01261907Y01055903D01*
X01332778Y01055903D02*
X01361907Y01055903D01*
X01351704Y01071901D02*
X01342981Y01071901D01*
X01346342Y01087900D02*
X01348343Y01087900D01*
X01350160Y01103898D02*
X01344525Y01103898D01*
X01336506Y01119897D02*
X01358179Y01119897D01*
X01436506Y01119897D02*
X01458179Y01119897D01*
X01450160Y01103898D02*
X01444525Y01103898D01*
X01446342Y01087900D02*
X01448343Y01087900D01*
X01451704Y01071901D02*
X01442981Y01071901D01*
X01432778Y01055903D02*
X01461907Y01055903D01*
X01532778Y01055903D02*
X01561907Y01055903D01*
X01551704Y01071901D02*
X01542981Y01071901D01*
X01546342Y01087900D02*
X01548343Y01087900D01*
X01550160Y01103898D02*
X01544525Y01103898D01*
X01536506Y01119897D02*
X01558179Y01119897D01*
X01636506Y01119897D02*
X01658179Y01119897D01*
X01650160Y01103898D02*
X01644525Y01103898D01*
X01646342Y01087900D02*
X01648343Y01087900D01*
X01651704Y01071901D02*
X01642981Y01071901D01*
X01632778Y01055903D02*
X01661907Y01055903D01*
X01732778Y01055903D02*
X01761907Y01055903D01*
X01751704Y01071901D02*
X01742981Y01071901D01*
X01746342Y01087900D02*
X01748343Y01087900D01*
X01750160Y01103898D02*
X01744525Y01103898D01*
X01736506Y01119897D02*
X01758179Y01119897D01*
X01836506Y01119897D02*
X01858179Y01119897D01*
X01850160Y01103898D02*
X01844525Y01103898D01*
X01846342Y01087900D02*
X01848343Y01087900D01*
X01851704Y01071901D02*
X01842981Y01071901D01*
X01832778Y01055903D02*
X01861907Y01055903D01*
X01932778Y01055903D02*
X01961907Y01055903D01*
X01951704Y01071901D02*
X01942981Y01071901D01*
X01946342Y01087900D02*
X01948343Y01087900D01*
X01950160Y01103898D02*
X01944525Y01103898D01*
X01936506Y01119897D02*
X01958179Y01119897D01*
X01960862Y01023906D02*
X02002465Y01023906D01*
X01986466Y01007907D02*
X01975130Y01007907D01*
X01937500Y00987500D02*
X01937500Y00962500D01*
X01912500Y00937500D01*
X00937500Y00937500D01*
X00909972Y00943913D02*
X00480812Y00943913D01*
X00457977Y00863920D02*
X00809683Y00863920D01*
X00807425Y00847922D02*
X00473975Y00847922D01*
X00479500Y00831923D02*
X00811405Y00831923D01*
X00779034Y00751931D02*
X00745966Y00751931D01*
X00753846Y00735932D02*
X00771154Y00735932D01*
X00770500Y00719934D02*
X00754500Y00719934D01*
X00754500Y00703935D02*
X00770500Y00703935D01*
X00770500Y00687937D02*
X00754500Y00687937D01*
X00754500Y00671938D02*
X00770500Y00671938D01*
X00774520Y00655939D02*
X00750479Y00655939D01*
X00737838Y00639941D02*
X00787162Y00639941D01*
X00837838Y00639941D02*
X00887162Y00639941D01*
X00874520Y00655939D02*
X00850479Y00655939D01*
X00854500Y00671938D02*
X00870500Y00671938D01*
X00870500Y00687937D02*
X00854500Y00687937D01*
X00854500Y00703935D02*
X00870500Y00703935D01*
X00870500Y00719934D02*
X00854500Y00719934D01*
X00853846Y00735932D02*
X00871154Y00735932D01*
X00879034Y00751931D02*
X00845966Y00751931D01*
X00945966Y00751931D02*
X00979034Y00751931D01*
X00971154Y00735932D02*
X00953846Y00735932D01*
X00954500Y00719934D02*
X00970500Y00719934D01*
X00970500Y00703935D02*
X00954500Y00703935D01*
X00954500Y00687937D02*
X00970500Y00687937D01*
X00970500Y00671938D02*
X00954500Y00671938D01*
X00950479Y00655939D02*
X00974520Y00655939D01*
X00987162Y00639941D02*
X00937838Y00639941D01*
X01037838Y00639941D02*
X01087162Y00639941D01*
X01074520Y00655939D02*
X01050479Y00655939D01*
X01054500Y00671938D02*
X01070500Y00671938D01*
X01070500Y00687937D02*
X01054500Y00687937D01*
X01054500Y00703935D02*
X01070500Y00703935D01*
X01070500Y00719934D02*
X01054500Y00719934D01*
X01053846Y00735932D02*
X01071154Y00735932D01*
X01079034Y00751931D02*
X01045966Y00751931D01*
X01047509Y00543950D02*
X00193492Y00543950D01*
X00193492Y00527951D02*
X01031510Y00527951D01*
X01015512Y00511953D02*
X00188098Y00511953D01*
X00120500Y00575947D02*
X00104500Y00575947D01*
X00104500Y00591945D02*
X00120500Y00591945D01*
X00120500Y00607944D02*
X00104500Y00607944D01*
X00112499Y00639941D02*
X00112500Y00639941D01*
X00112499Y00655939D02*
X00112500Y00655939D01*
X00112499Y00671938D02*
X00112500Y00671938D01*
X00112499Y00687937D02*
X00112500Y00687937D01*
X00112499Y00703935D02*
X00112500Y00703935D01*
X00112499Y00719934D02*
X00112500Y00719934D01*
X00112499Y00735932D02*
X00112500Y00735932D01*
X00112499Y00751931D02*
X00112500Y00751931D01*
X00105824Y00783928D02*
X00119631Y00783928D01*
X00112500Y00825000D02*
X00087500Y00825000D01*
X00112500Y00825000D02*
X00187500Y00900000D01*
X00187500Y01075000D01*
X00212500Y01100000D01*
X00212500Y01125000D01*
X00172883Y01139106D02*
X00170500Y01133354D01*
X00170500Y01116646D01*
X00176894Y01101209D01*
X00178331Y01099772D01*
X00167154Y01088595D01*
X00163500Y01079774D01*
X00163500Y00909941D01*
X00112728Y00859169D01*
X00104897Y00867000D01*
X00070103Y00867000D01*
X00048000Y00844897D01*
X00048000Y00902275D01*
X00069275Y00881000D01*
X00087499Y00881000D01*
X00087499Y00924999D01*
X00087500Y00924999D01*
X00087500Y00881000D01*
X00105725Y00881000D01*
X00131500Y00906775D01*
X00131500Y00924999D01*
X00087501Y00924999D01*
X00087501Y00925000D01*
X00131500Y00925000D01*
X00131500Y00943225D01*
X00105725Y00969000D01*
X00087500Y00969000D01*
X00087500Y00925001D01*
X00087499Y00925001D01*
X00087499Y00969000D01*
X00069275Y00969000D01*
X00048000Y00947725D01*
X00048000Y01139106D01*
X00172883Y01139106D01*
X00171553Y01135895D02*
X00048000Y01135895D01*
X00048000Y01119897D02*
X00170500Y01119897D01*
X00175780Y01103898D02*
X00048000Y01103898D01*
X00048000Y01087900D02*
X00166866Y01087900D01*
X00163500Y01071901D02*
X00048000Y01071901D01*
X00048000Y01055903D02*
X00163500Y01055903D01*
X00163500Y01039904D02*
X00048000Y01039904D01*
X00048000Y01023906D02*
X00163500Y01023906D01*
X00163500Y01007907D02*
X00048000Y01007907D01*
X00048000Y00991908D02*
X00163500Y00991908D01*
X00163500Y00975910D02*
X00048000Y00975910D01*
X00048000Y00959911D02*
X00060186Y00959911D01*
X00087499Y00959911D02*
X00087500Y00959911D01*
X00087499Y00943913D02*
X00087500Y00943913D01*
X00087499Y00927914D02*
X00087500Y00927914D01*
X00087499Y00911916D02*
X00087500Y00911916D01*
X00087499Y00895917D02*
X00087500Y00895917D01*
X00120643Y00895917D02*
X00149476Y00895917D01*
X00163500Y00911916D02*
X00131500Y00911916D01*
X00131500Y00927914D02*
X00163500Y00927914D01*
X00163500Y00943913D02*
X00130812Y00943913D01*
X00114814Y00959911D02*
X00163500Y00959911D01*
X00211500Y00959911D02*
X00338500Y00959911D01*
X00338500Y00943913D02*
X00211500Y00943913D01*
X00211500Y00927914D02*
X00338500Y00927914D01*
X00338500Y00911916D02*
X00211500Y00911916D01*
X00211500Y00895917D02*
X00338500Y00895917D01*
X00339663Y00879919D02*
X00201360Y00879919D01*
X00185361Y00863920D02*
X00352139Y00863920D01*
X00368137Y00847922D02*
X00169363Y00847922D01*
X00153364Y00831923D02*
X00384136Y00831923D01*
X00369484Y00815925D02*
X00155516Y00815925D01*
X00171515Y00799926D02*
X00353485Y00799926D01*
X00337487Y00783928D02*
X00187513Y00783928D01*
X00203512Y00767929D02*
X00203975Y00767929D01*
X00221025Y00767929D02*
X00303975Y00767929D01*
X00321025Y00767929D02*
X00321488Y00767929D01*
X00312500Y00725000D02*
X00412500Y00825000D01*
X00437500Y00825000D01*
X00425000Y00837500D01*
X00412500Y00837500D01*
X00362500Y00887500D01*
X00362500Y01075000D01*
X00312500Y01125000D01*
X00275780Y01103898D02*
X00249220Y01103898D01*
X00254500Y01119897D02*
X00270500Y01119897D01*
X00271553Y01135895D02*
X00253447Y01135895D01*
X00233465Y01087900D02*
X00292317Y01087900D01*
X00331658Y01071901D02*
X00218342Y01071901D01*
X00211500Y01055903D02*
X00338500Y01055903D01*
X00338500Y01039904D02*
X00211500Y01039904D01*
X00211500Y01023906D02*
X00338500Y01023906D01*
X00338500Y01007907D02*
X00211500Y01007907D01*
X00211500Y00991908D02*
X00338500Y00991908D01*
X00338500Y00975910D02*
X00211500Y00975910D01*
X00133478Y00879919D02*
X00048000Y00879919D01*
X00048000Y00895917D02*
X00054357Y00895917D01*
X00048000Y00863920D02*
X00067023Y00863920D01*
X00051025Y00847922D02*
X00048000Y00847922D01*
X00048000Y00799926D02*
X00053177Y00799926D01*
X00048000Y00783928D02*
X00069175Y00783928D01*
X00112500Y00825000D02*
X00212500Y00725000D01*
X00212500Y00700000D01*
X00254500Y00703935D02*
X00270500Y00703935D01*
X00270500Y00719934D02*
X00254500Y00719934D01*
X00253846Y00735932D02*
X00271154Y00735932D01*
X00279034Y00751931D02*
X00245966Y00751931D01*
X00312500Y00725000D02*
X00312500Y00700000D01*
X00354500Y00703935D02*
X00370500Y00703935D01*
X00370500Y00719934D02*
X00354500Y00719934D01*
X00357373Y00735932D02*
X00371154Y00735932D01*
X00370500Y00734354D02*
X00370500Y00665646D01*
X00376894Y00650209D01*
X00388709Y00638394D01*
X00404146Y00632000D01*
X00420854Y00632000D01*
X00436291Y00638394D01*
X00448106Y00650209D01*
X00454500Y00665646D01*
X00454500Y00734354D01*
X00448106Y00749791D01*
X00436291Y00761606D01*
X00420854Y00768000D01*
X00404146Y00768000D01*
X00388709Y00761606D01*
X00376894Y00749791D01*
X00370500Y00734354D01*
X00373372Y00751931D02*
X00379034Y00751931D01*
X00389370Y00767929D02*
X00403975Y00767929D01*
X00405369Y00783928D02*
X00419175Y00783928D01*
X00421025Y00767929D02*
X00503975Y00767929D01*
X00504146Y00768000D02*
X00488709Y00761606D01*
X00476894Y00749791D01*
X00470500Y00734354D01*
X00470500Y00665646D01*
X00476894Y00650209D01*
X00488709Y00638394D01*
X00504146Y00632000D01*
X00520854Y00632000D01*
X00536291Y00638394D01*
X00548106Y00650209D01*
X00554500Y00665646D01*
X00554500Y00734354D01*
X00548106Y00749791D01*
X00536291Y00761606D01*
X00520854Y00768000D01*
X00504146Y00768000D01*
X00521025Y00767929D02*
X00603975Y00767929D01*
X00621025Y00767929D02*
X00621488Y00767929D01*
X00637487Y00783928D02*
X00455825Y00783928D01*
X00471823Y00799926D02*
X00653485Y00799926D01*
X00669484Y00815925D02*
X00479500Y00815925D01*
X00479034Y00751931D02*
X00445966Y00751931D01*
X00453846Y00735932D02*
X00471154Y00735932D01*
X00470500Y00719934D02*
X00454500Y00719934D01*
X00454500Y00703935D02*
X00470500Y00703935D01*
X00470500Y00687937D02*
X00454500Y00687937D01*
X00454500Y00671938D02*
X00470500Y00671938D01*
X00474520Y00655939D02*
X00450479Y00655939D01*
X00437838Y00639941D02*
X00487162Y00639941D01*
X00537838Y00639941D02*
X00587162Y00639941D01*
X00574520Y00655939D02*
X00550479Y00655939D01*
X00554500Y00671938D02*
X00570500Y00671938D01*
X00570500Y00687937D02*
X00554500Y00687937D01*
X00554500Y00703935D02*
X00570500Y00703935D01*
X00570500Y00719934D02*
X00554500Y00719934D01*
X00553846Y00735932D02*
X00571154Y00735932D01*
X00579034Y00751931D02*
X00545966Y00751931D01*
X00654500Y00687937D02*
X00670500Y00687937D01*
X00670500Y00671938D02*
X00654500Y00671938D01*
X00650479Y00655939D02*
X00674520Y00655939D01*
X00687162Y00639941D02*
X00637838Y00639941D01*
X00387162Y00639941D02*
X00337838Y00639941D01*
X00350479Y00655939D02*
X00374520Y00655939D01*
X00370500Y00671938D02*
X00354500Y00671938D01*
X00354500Y00687937D02*
X00370500Y00687937D01*
X00287162Y00639941D02*
X00237838Y00639941D01*
X00250479Y00655939D02*
X00274520Y00655939D01*
X00270500Y00671938D02*
X00254500Y00671938D01*
X00254500Y00687937D02*
X00270500Y00687937D01*
X00117479Y00863920D02*
X00107977Y00863920D01*
X00112500Y00339764D02*
X00112500Y00337500D01*
X00875000Y00337500D01*
X00891411Y00319970D02*
X02248530Y00319970D01*
X02232531Y00303972D02*
X00191492Y00303972D01*
X00048000Y00207981D02*
X01161540Y00207981D01*
X01145541Y00191982D02*
X00048000Y00191982D01*
X00048000Y00175984D02*
X01129543Y00175984D01*
X01087088Y00159985D02*
X01037912Y00159985D01*
X01050510Y00143987D02*
X01074490Y00143987D01*
X01070500Y00127988D02*
X01054500Y00127988D01*
X01054500Y00111990D02*
X01070500Y00111990D01*
X01070500Y00095991D02*
X01054500Y00095991D01*
X01054500Y00079993D02*
X01070500Y00079993D01*
X01071184Y00063994D02*
X01053816Y00063994D01*
X01112500Y00100000D02*
X01112500Y00125000D01*
X01187500Y00200000D01*
X00987088Y00159985D02*
X00937912Y00159985D01*
X00950510Y00143987D02*
X00974490Y00143987D01*
X00970500Y00127988D02*
X00954500Y00127988D01*
X00954500Y00111990D02*
X00970500Y00111990D01*
X00970500Y00095991D02*
X00954500Y00095991D01*
X00954500Y00079993D02*
X00970500Y00079993D01*
X00971184Y00063994D02*
X00953816Y00063994D01*
X00871184Y00063994D02*
X00853816Y00063994D01*
X00854500Y00079993D02*
X00870500Y00079993D01*
X00870500Y00095991D02*
X00854500Y00095991D01*
X00854500Y00111990D02*
X00870500Y00111990D01*
X00870500Y00127988D02*
X00854500Y00127988D01*
X00850510Y00143987D02*
X00874490Y00143987D01*
X00887088Y00159985D02*
X00837912Y00159985D01*
X00787088Y00159985D02*
X00737912Y00159985D01*
X00750510Y00143987D02*
X00774490Y00143987D01*
X00770500Y00127988D02*
X00754500Y00127988D01*
X00754500Y00111990D02*
X00770500Y00111990D01*
X00770500Y00095991D02*
X00754500Y00095991D01*
X00754500Y00079993D02*
X00770500Y00079993D01*
X00771184Y00063994D02*
X00753816Y00063994D01*
X00671184Y00063994D02*
X00653816Y00063994D01*
X00654500Y00079993D02*
X00670500Y00079993D01*
X00670500Y00095991D02*
X00654500Y00095991D01*
X00654500Y00111990D02*
X00670500Y00111990D01*
X00670500Y00127988D02*
X00654500Y00127988D01*
X00650510Y00143987D02*
X00674490Y00143987D01*
X00687088Y00159985D02*
X00637912Y00159985D01*
X00587088Y00159985D02*
X00537912Y00159985D01*
X00550510Y00143987D02*
X00574490Y00143987D01*
X00570500Y00127988D02*
X00554500Y00127988D01*
X00554500Y00111990D02*
X00570500Y00111990D01*
X00570500Y00095991D02*
X00554500Y00095991D01*
X00554500Y00079993D02*
X00570500Y00079993D01*
X00571184Y00063994D02*
X00553816Y00063994D01*
X00471184Y00063994D02*
X00453816Y00063994D01*
X00454500Y00079993D02*
X00470500Y00079993D01*
X00470500Y00095991D02*
X00454500Y00095991D01*
X00454500Y00111990D02*
X00470500Y00111990D01*
X00470500Y00127988D02*
X00454500Y00127988D01*
X00450510Y00143987D02*
X00474490Y00143987D01*
X00487088Y00159985D02*
X00437912Y00159985D01*
X00387088Y00159985D02*
X00337912Y00159985D01*
X00350510Y00143987D02*
X00374490Y00143987D01*
X00370500Y00127988D02*
X00354500Y00127988D01*
X00354500Y00111990D02*
X00370500Y00111990D01*
X00370500Y00095991D02*
X00354500Y00095991D01*
X00354500Y00079993D02*
X00370500Y00079993D01*
X00371184Y00063994D02*
X00353816Y00063994D01*
X00271184Y00063994D02*
X00253816Y00063994D01*
X00254500Y00079993D02*
X00270500Y00079993D01*
X00270500Y00095991D02*
X00254500Y00095991D01*
X00254500Y00111990D02*
X00270500Y00111990D01*
X00270500Y00127988D02*
X00254500Y00127988D01*
X00250510Y00143987D02*
X00274490Y00143987D01*
X00287088Y00159985D02*
X00237912Y00159985D01*
X00187088Y00159985D02*
X00137912Y00159985D01*
X00150510Y00143987D02*
X00174490Y00143987D01*
X00170500Y00127988D02*
X00154500Y00127988D01*
X00154500Y00111990D02*
X00170500Y00111990D01*
X00170500Y00095991D02*
X00154500Y00095991D01*
X00154500Y00079993D02*
X00170500Y00079993D01*
X00171184Y00063994D02*
X00153816Y00063994D01*
X00071184Y00063994D02*
X00048000Y00063994D01*
X00048000Y00079993D02*
X00070500Y00079993D01*
X00070500Y00095991D02*
X00048000Y00095991D01*
X00048000Y00111990D02*
X00070500Y00111990D01*
X00070500Y00127988D02*
X00048000Y00127988D01*
X00048000Y00143987D02*
X00074490Y00143987D01*
X00087088Y00159985D02*
X00048000Y00159985D01*
X00907410Y00335969D02*
X02302028Y00335969D01*
X02318026Y00351968D02*
X00923408Y00351968D01*
X01942324Y00223979D02*
X02152538Y00223979D01*
X02136540Y00207981D02*
X01963460Y00207981D01*
X01979459Y00191982D02*
X02120541Y00191982D01*
X02104543Y00175984D02*
X01995457Y00175984D01*
X02037912Y00159985D02*
X02088544Y00159985D01*
X02072546Y00143987D02*
X02050510Y00143987D01*
X02054500Y00127988D02*
X02056547Y00127988D01*
X02092432Y00095991D02*
X02926508Y00095991D01*
X02926508Y00079993D02*
X02076434Y00079993D01*
X02053816Y00063994D02*
X02926508Y00063994D01*
X02926508Y00111990D02*
X02108431Y00111990D01*
X02427965Y00255976D02*
X02465423Y00255976D01*
X02457086Y00239978D02*
X02443963Y00239978D01*
X02547500Y00175984D02*
X02926508Y00175984D01*
X02926508Y00159985D02*
X02547500Y00159985D01*
X02541758Y00143987D02*
X02926508Y00143987D01*
X02926508Y00127988D02*
X02527521Y00127988D01*
X01968873Y00895917D02*
X01942358Y00895917D01*
X01958357Y00911916D02*
X01959337Y00911916D01*
D19*
X02000000Y00925000D03*
X01937500Y00987500D03*
X00950000Y00862500D03*
X00850000Y00850000D03*
M02*
