G75*
%MOIN*%
%OFA0B0*%
%FSLAX26Y26*%
%IPPOS*%
%LPD*%
%AMOC8*
5,1,8,0,0,1.08239X$1,22.5*
%
%ADD10C,0.000000*%
%ADD11C,0.006000*%
%ADD12C,0.010000*%
%ADD13C,0.005000*%
%ADD14C,0.004000*%
%ADD15R,0.007874X0.007874*%
%ADD16C,0.007000*%
%ADD17C,0.016000*%
%ADD18R,0.023000X0.016000*%
%ADD19C,0.012000*%
%ADD20C,0.002000*%
%ADD21R,0.020000X0.020000*%
D10*
X00000000Y00000000D02*
X00000000Y02699606D01*
X01987008Y02699606D01*
X01987008Y00000000D01*
X00000000Y00000000D01*
D11*
X00180000Y00210000D02*
X00180000Y00220000D01*
X00170000Y00220000D01*
X00170000Y00280000D01*
X00180000Y00280000D01*
X00180000Y00290000D01*
X00215000Y00370000D02*
X00250000Y00370000D01*
X00350000Y00370000D01*
X00385000Y00370000D01*
X00385000Y00450000D02*
X00215000Y00450000D01*
X00214758Y00450003D01*
X00214517Y00450012D01*
X00214276Y00450026D01*
X00214035Y00450047D01*
X00213795Y00450073D01*
X00213555Y00450105D01*
X00213316Y00450143D01*
X00213079Y00450186D01*
X00212842Y00450236D01*
X00212607Y00450291D01*
X00212373Y00450351D01*
X00212141Y00450418D01*
X00211910Y00450489D01*
X00211681Y00450567D01*
X00211454Y00450650D01*
X00211229Y00450738D01*
X00211006Y00450832D01*
X00210786Y00450931D01*
X00210568Y00451036D01*
X00210353Y00451145D01*
X00210140Y00451260D01*
X00209930Y00451380D01*
X00209724Y00451505D01*
X00209520Y00451635D01*
X00209319Y00451770D01*
X00209122Y00451910D01*
X00208928Y00452054D01*
X00208738Y00452203D01*
X00208552Y00452357D01*
X00208369Y00452515D01*
X00208190Y00452677D01*
X00208015Y00452844D01*
X00207844Y00453015D01*
X00207677Y00453190D01*
X00207515Y00453369D01*
X00207357Y00453552D01*
X00207203Y00453738D01*
X00207054Y00453928D01*
X00206910Y00454122D01*
X00206770Y00454319D01*
X00206635Y00454520D01*
X00206505Y00454724D01*
X00206380Y00454930D01*
X00206260Y00455140D01*
X00206145Y00455353D01*
X00206036Y00455568D01*
X00205931Y00455786D01*
X00205832Y00456006D01*
X00205738Y00456229D01*
X00205650Y00456454D01*
X00205567Y00456681D01*
X00205489Y00456910D01*
X00205418Y00457141D01*
X00205351Y00457373D01*
X00205291Y00457607D01*
X00205236Y00457842D01*
X00205186Y00458079D01*
X00205143Y00458316D01*
X00205105Y00458555D01*
X00205073Y00458795D01*
X00205047Y00459035D01*
X00205026Y00459276D01*
X00205012Y00459517D01*
X00205003Y00459758D01*
X00205000Y00460000D01*
X00205000Y00540000D01*
X00205003Y00540242D01*
X00205012Y00540483D01*
X00205026Y00540724D01*
X00205047Y00540965D01*
X00205073Y00541205D01*
X00205105Y00541445D01*
X00205143Y00541684D01*
X00205186Y00541921D01*
X00205236Y00542158D01*
X00205291Y00542393D01*
X00205351Y00542627D01*
X00205418Y00542859D01*
X00205489Y00543090D01*
X00205567Y00543319D01*
X00205650Y00543546D01*
X00205738Y00543771D01*
X00205832Y00543994D01*
X00205931Y00544214D01*
X00206036Y00544432D01*
X00206145Y00544647D01*
X00206260Y00544860D01*
X00206380Y00545070D01*
X00206505Y00545276D01*
X00206635Y00545480D01*
X00206770Y00545681D01*
X00206910Y00545878D01*
X00207054Y00546072D01*
X00207203Y00546262D01*
X00207357Y00546448D01*
X00207515Y00546631D01*
X00207677Y00546810D01*
X00207844Y00546985D01*
X00208015Y00547156D01*
X00208190Y00547323D01*
X00208369Y00547485D01*
X00208552Y00547643D01*
X00208738Y00547797D01*
X00208928Y00547946D01*
X00209122Y00548090D01*
X00209319Y00548230D01*
X00209520Y00548365D01*
X00209724Y00548495D01*
X00209930Y00548620D01*
X00210140Y00548740D01*
X00210353Y00548855D01*
X00210568Y00548964D01*
X00210786Y00549069D01*
X00211006Y00549168D01*
X00211229Y00549262D01*
X00211454Y00549350D01*
X00211681Y00549433D01*
X00211910Y00549511D01*
X00212141Y00549582D01*
X00212373Y00549649D01*
X00212607Y00549709D01*
X00212842Y00549764D01*
X00213079Y00549814D01*
X00213316Y00549857D01*
X00213555Y00549895D01*
X00213795Y00549927D01*
X00214035Y00549953D01*
X00214276Y00549974D01*
X00214517Y00549988D01*
X00214758Y00549997D01*
X00215000Y00550000D01*
X00385000Y00550000D01*
X00385242Y00549997D01*
X00385483Y00549988D01*
X00385724Y00549974D01*
X00385965Y00549953D01*
X00386205Y00549927D01*
X00386445Y00549895D01*
X00386684Y00549857D01*
X00386921Y00549814D01*
X00387158Y00549764D01*
X00387393Y00549709D01*
X00387627Y00549649D01*
X00387859Y00549582D01*
X00388090Y00549511D01*
X00388319Y00549433D01*
X00388546Y00549350D01*
X00388771Y00549262D01*
X00388994Y00549168D01*
X00389214Y00549069D01*
X00389432Y00548964D01*
X00389647Y00548855D01*
X00389860Y00548740D01*
X00390070Y00548620D01*
X00390276Y00548495D01*
X00390480Y00548365D01*
X00390681Y00548230D01*
X00390878Y00548090D01*
X00391072Y00547946D01*
X00391262Y00547797D01*
X00391448Y00547643D01*
X00391631Y00547485D01*
X00391810Y00547323D01*
X00391985Y00547156D01*
X00392156Y00546985D01*
X00392323Y00546810D01*
X00392485Y00546631D01*
X00392643Y00546448D01*
X00392797Y00546262D01*
X00392946Y00546072D01*
X00393090Y00545878D01*
X00393230Y00545681D01*
X00393365Y00545480D01*
X00393495Y00545276D01*
X00393620Y00545070D01*
X00393740Y00544860D01*
X00393855Y00544647D01*
X00393964Y00544432D01*
X00394069Y00544214D01*
X00394168Y00543994D01*
X00394262Y00543771D01*
X00394350Y00543546D01*
X00394433Y00543319D01*
X00394511Y00543090D01*
X00394582Y00542859D01*
X00394649Y00542627D01*
X00394709Y00542393D01*
X00394764Y00542158D01*
X00394814Y00541921D01*
X00394857Y00541684D01*
X00394895Y00541445D01*
X00394927Y00541205D01*
X00394953Y00540965D01*
X00394974Y00540724D01*
X00394988Y00540483D01*
X00394997Y00540242D01*
X00395000Y00540000D01*
X00395000Y00460000D01*
X00394997Y00459758D01*
X00394988Y00459517D01*
X00394974Y00459276D01*
X00394953Y00459035D01*
X00394927Y00458795D01*
X00394895Y00458555D01*
X00394857Y00458316D01*
X00394814Y00458079D01*
X00394764Y00457842D01*
X00394709Y00457607D01*
X00394649Y00457373D01*
X00394582Y00457141D01*
X00394511Y00456910D01*
X00394433Y00456681D01*
X00394350Y00456454D01*
X00394262Y00456229D01*
X00394168Y00456006D01*
X00394069Y00455786D01*
X00393964Y00455568D01*
X00393855Y00455353D01*
X00393740Y00455140D01*
X00393620Y00454930D01*
X00393495Y00454724D01*
X00393365Y00454520D01*
X00393230Y00454319D01*
X00393090Y00454122D01*
X00392946Y00453928D01*
X00392797Y00453738D01*
X00392643Y00453552D01*
X00392485Y00453369D01*
X00392323Y00453190D01*
X00392156Y00453015D01*
X00391985Y00452844D01*
X00391810Y00452677D01*
X00391631Y00452515D01*
X00391448Y00452357D01*
X00391262Y00452203D01*
X00391072Y00452054D01*
X00390878Y00451910D01*
X00390681Y00451770D01*
X00390480Y00451635D01*
X00390276Y00451505D01*
X00390070Y00451380D01*
X00389860Y00451260D01*
X00389647Y00451145D01*
X00389432Y00451036D01*
X00389214Y00450931D01*
X00388994Y00450832D01*
X00388771Y00450738D01*
X00388546Y00450650D01*
X00388319Y00450567D01*
X00388090Y00450489D01*
X00387859Y00450418D01*
X00387627Y00450351D01*
X00387393Y00450291D01*
X00387158Y00450236D01*
X00386921Y00450186D01*
X00386684Y00450143D01*
X00386445Y00450105D01*
X00386205Y00450073D01*
X00385965Y00450047D01*
X00385724Y00450026D01*
X00385483Y00450012D01*
X00385242Y00450003D01*
X00385000Y00450000D01*
X00315000Y00500000D02*
X00310000Y00500000D01*
X00290000Y00500000D02*
X00285000Y00500000D01*
X00420000Y00290000D02*
X00420000Y00280000D01*
X00430000Y00280000D01*
X00430000Y00220000D01*
X00420000Y00220000D01*
X00420000Y00210000D01*
X00385000Y00130000D02*
X00345000Y00130000D01*
X00250000Y00130000D01*
X00215000Y00130000D01*
X00290000Y00250000D02*
X00290003Y00250245D01*
X00290012Y00250491D01*
X00290027Y00250736D01*
X00290048Y00250980D01*
X00290075Y00251224D01*
X00290108Y00251467D01*
X00290147Y00251710D01*
X00290192Y00251951D01*
X00290243Y00252191D01*
X00290300Y00252430D01*
X00290362Y00252667D01*
X00290431Y00252903D01*
X00290505Y00253137D01*
X00290585Y00253369D01*
X00290670Y00253599D01*
X00290761Y00253827D01*
X00290858Y00254052D01*
X00290960Y00254276D01*
X00291068Y00254496D01*
X00291181Y00254714D01*
X00291299Y00254929D01*
X00291423Y00255141D01*
X00291551Y00255350D01*
X00291685Y00255556D01*
X00291824Y00255758D01*
X00291968Y00255957D01*
X00292117Y00256152D01*
X00292270Y00256344D01*
X00292428Y00256532D01*
X00292590Y00256716D01*
X00292758Y00256895D01*
X00292929Y00257071D01*
X00293105Y00257242D01*
X00293284Y00257410D01*
X00293468Y00257572D01*
X00293656Y00257730D01*
X00293848Y00257883D01*
X00294043Y00258032D01*
X00294242Y00258176D01*
X00294444Y00258315D01*
X00294650Y00258449D01*
X00294859Y00258577D01*
X00295071Y00258701D01*
X00295286Y00258819D01*
X00295504Y00258932D01*
X00295724Y00259040D01*
X00295948Y00259142D01*
X00296173Y00259239D01*
X00296401Y00259330D01*
X00296631Y00259415D01*
X00296863Y00259495D01*
X00297097Y00259569D01*
X00297333Y00259638D01*
X00297570Y00259700D01*
X00297809Y00259757D01*
X00298049Y00259808D01*
X00298290Y00259853D01*
X00298533Y00259892D01*
X00298776Y00259925D01*
X00299020Y00259952D01*
X00299264Y00259973D01*
X00299509Y00259988D01*
X00299755Y00259997D01*
X00300000Y00260000D01*
X00300245Y00259997D01*
X00300491Y00259988D01*
X00300736Y00259973D01*
X00300980Y00259952D01*
X00301224Y00259925D01*
X00301467Y00259892D01*
X00301710Y00259853D01*
X00301951Y00259808D01*
X00302191Y00259757D01*
X00302430Y00259700D01*
X00302667Y00259638D01*
X00302903Y00259569D01*
X00303137Y00259495D01*
X00303369Y00259415D01*
X00303599Y00259330D01*
X00303827Y00259239D01*
X00304052Y00259142D01*
X00304276Y00259040D01*
X00304496Y00258932D01*
X00304714Y00258819D01*
X00304929Y00258701D01*
X00305141Y00258577D01*
X00305350Y00258449D01*
X00305556Y00258315D01*
X00305758Y00258176D01*
X00305957Y00258032D01*
X00306152Y00257883D01*
X00306344Y00257730D01*
X00306532Y00257572D01*
X00306716Y00257410D01*
X00306895Y00257242D01*
X00307071Y00257071D01*
X00307242Y00256895D01*
X00307410Y00256716D01*
X00307572Y00256532D01*
X00307730Y00256344D01*
X00307883Y00256152D01*
X00308032Y00255957D01*
X00308176Y00255758D01*
X00308315Y00255556D01*
X00308449Y00255350D01*
X00308577Y00255141D01*
X00308701Y00254929D01*
X00308819Y00254714D01*
X00308932Y00254496D01*
X00309040Y00254276D01*
X00309142Y00254052D01*
X00309239Y00253827D01*
X00309330Y00253599D01*
X00309415Y00253369D01*
X00309495Y00253137D01*
X00309569Y00252903D01*
X00309638Y00252667D01*
X00309700Y00252430D01*
X00309757Y00252191D01*
X00309808Y00251951D01*
X00309853Y00251710D01*
X00309892Y00251467D01*
X00309925Y00251224D01*
X00309952Y00250980D01*
X00309973Y00250736D01*
X00309988Y00250491D01*
X00309997Y00250245D01*
X00310000Y00250000D01*
X00309997Y00249755D01*
X00309988Y00249509D01*
X00309973Y00249264D01*
X00309952Y00249020D01*
X00309925Y00248776D01*
X00309892Y00248533D01*
X00309853Y00248290D01*
X00309808Y00248049D01*
X00309757Y00247809D01*
X00309700Y00247570D01*
X00309638Y00247333D01*
X00309569Y00247097D01*
X00309495Y00246863D01*
X00309415Y00246631D01*
X00309330Y00246401D01*
X00309239Y00246173D01*
X00309142Y00245948D01*
X00309040Y00245724D01*
X00308932Y00245504D01*
X00308819Y00245286D01*
X00308701Y00245071D01*
X00308577Y00244859D01*
X00308449Y00244650D01*
X00308315Y00244444D01*
X00308176Y00244242D01*
X00308032Y00244043D01*
X00307883Y00243848D01*
X00307730Y00243656D01*
X00307572Y00243468D01*
X00307410Y00243284D01*
X00307242Y00243105D01*
X00307071Y00242929D01*
X00306895Y00242758D01*
X00306716Y00242590D01*
X00306532Y00242428D01*
X00306344Y00242270D01*
X00306152Y00242117D01*
X00305957Y00241968D01*
X00305758Y00241824D01*
X00305556Y00241685D01*
X00305350Y00241551D01*
X00305141Y00241423D01*
X00304929Y00241299D01*
X00304714Y00241181D01*
X00304496Y00241068D01*
X00304276Y00240960D01*
X00304052Y00240858D01*
X00303827Y00240761D01*
X00303599Y00240670D01*
X00303369Y00240585D01*
X00303137Y00240505D01*
X00302903Y00240431D01*
X00302667Y00240362D01*
X00302430Y00240300D01*
X00302191Y00240243D01*
X00301951Y00240192D01*
X00301710Y00240147D01*
X00301467Y00240108D01*
X00301224Y00240075D01*
X00300980Y00240048D01*
X00300736Y00240027D01*
X00300491Y00240012D01*
X00300245Y00240003D01*
X00300000Y00240000D01*
X00299755Y00240003D01*
X00299509Y00240012D01*
X00299264Y00240027D01*
X00299020Y00240048D01*
X00298776Y00240075D01*
X00298533Y00240108D01*
X00298290Y00240147D01*
X00298049Y00240192D01*
X00297809Y00240243D01*
X00297570Y00240300D01*
X00297333Y00240362D01*
X00297097Y00240431D01*
X00296863Y00240505D01*
X00296631Y00240585D01*
X00296401Y00240670D01*
X00296173Y00240761D01*
X00295948Y00240858D01*
X00295724Y00240960D01*
X00295504Y00241068D01*
X00295286Y00241181D01*
X00295071Y00241299D01*
X00294859Y00241423D01*
X00294650Y00241551D01*
X00294444Y00241685D01*
X00294242Y00241824D01*
X00294043Y00241968D01*
X00293848Y00242117D01*
X00293656Y00242270D01*
X00293468Y00242428D01*
X00293284Y00242590D01*
X00293105Y00242758D01*
X00292929Y00242929D01*
X00292758Y00243105D01*
X00292590Y00243284D01*
X00292428Y00243468D01*
X00292270Y00243656D01*
X00292117Y00243848D01*
X00291968Y00244043D01*
X00291824Y00244242D01*
X00291685Y00244444D01*
X00291551Y00244650D01*
X00291423Y00244859D01*
X00291299Y00245071D01*
X00291181Y00245286D01*
X00291068Y00245504D01*
X00290960Y00245724D01*
X00290858Y00245948D01*
X00290761Y00246173D01*
X00290670Y00246401D01*
X00290585Y00246631D01*
X00290505Y00246863D01*
X00290431Y00247097D01*
X00290362Y00247333D01*
X00290300Y00247570D01*
X00290243Y00247809D01*
X00290192Y00248049D01*
X00290147Y00248290D01*
X00290108Y00248533D01*
X00290075Y00248776D01*
X00290048Y00249020D01*
X00290027Y00249264D01*
X00290012Y00249509D01*
X00290003Y00249755D01*
X00290000Y00250000D01*
X00230000Y00250000D02*
X00230021Y00251718D01*
X00230084Y00253435D01*
X00230190Y00255150D01*
X00230337Y00256861D01*
X00230526Y00258569D01*
X00230758Y00260271D01*
X00231031Y00261967D01*
X00231345Y00263656D01*
X00231701Y00265337D01*
X00232098Y00267009D01*
X00232536Y00268670D01*
X00233014Y00270320D01*
X00233533Y00271958D01*
X00234092Y00273582D01*
X00234691Y00275193D01*
X00235328Y00276788D01*
X00236005Y00278367D01*
X00236721Y00279929D01*
X00237474Y00281473D01*
X00238266Y00282998D01*
X00239094Y00284503D01*
X00239959Y00285987D01*
X00240860Y00287450D01*
X00241797Y00288890D01*
X00242769Y00290307D01*
X00243775Y00291699D01*
X00244816Y00293066D01*
X00245889Y00294408D01*
X00246995Y00295722D01*
X00248133Y00297009D01*
X00249303Y00298268D01*
X00250503Y00299497D01*
X00251732Y00300697D01*
X00252991Y00301867D01*
X00254278Y00303005D01*
X00255592Y00304111D01*
X00256934Y00305184D01*
X00258301Y00306225D01*
X00259693Y00307231D01*
X00261110Y00308203D01*
X00262550Y00309140D01*
X00264013Y00310041D01*
X00265497Y00310906D01*
X00267002Y00311734D01*
X00268527Y00312526D01*
X00270071Y00313279D01*
X00271633Y00313995D01*
X00273212Y00314672D01*
X00274807Y00315309D01*
X00276418Y00315908D01*
X00278042Y00316467D01*
X00279680Y00316986D01*
X00281330Y00317464D01*
X00282991Y00317902D01*
X00284663Y00318299D01*
X00286344Y00318655D01*
X00288033Y00318969D01*
X00289729Y00319242D01*
X00291431Y00319474D01*
X00293139Y00319663D01*
X00294850Y00319810D01*
X00296565Y00319916D01*
X00298282Y00319979D01*
X00300000Y00320000D01*
X00301718Y00319979D01*
X00303435Y00319916D01*
X00305150Y00319810D01*
X00306861Y00319663D01*
X00308569Y00319474D01*
X00310271Y00319242D01*
X00311967Y00318969D01*
X00313656Y00318655D01*
X00315337Y00318299D01*
X00317009Y00317902D01*
X00318670Y00317464D01*
X00320320Y00316986D01*
X00321958Y00316467D01*
X00323582Y00315908D01*
X00325193Y00315309D01*
X00326788Y00314672D01*
X00328367Y00313995D01*
X00329929Y00313279D01*
X00331473Y00312526D01*
X00332998Y00311734D01*
X00334503Y00310906D01*
X00335987Y00310041D01*
X00337450Y00309140D01*
X00338890Y00308203D01*
X00340307Y00307231D01*
X00341699Y00306225D01*
X00343066Y00305184D01*
X00344408Y00304111D01*
X00345722Y00303005D01*
X00347009Y00301867D01*
X00348268Y00300697D01*
X00349497Y00299497D01*
X00350697Y00298268D01*
X00351867Y00297009D01*
X00353005Y00295722D01*
X00354111Y00294408D01*
X00355184Y00293066D01*
X00356225Y00291699D01*
X00357231Y00290307D01*
X00358203Y00288890D01*
X00359140Y00287450D01*
X00360041Y00285987D01*
X00360906Y00284503D01*
X00361734Y00282998D01*
X00362526Y00281473D01*
X00363279Y00279929D01*
X00363995Y00278367D01*
X00364672Y00276788D01*
X00365309Y00275193D01*
X00365908Y00273582D01*
X00366467Y00271958D01*
X00366986Y00270320D01*
X00367464Y00268670D01*
X00367902Y00267009D01*
X00368299Y00265337D01*
X00368655Y00263656D01*
X00368969Y00261967D01*
X00369242Y00260271D01*
X00369474Y00258569D01*
X00369663Y00256861D01*
X00369810Y00255150D01*
X00369916Y00253435D01*
X00369979Y00251718D01*
X00370000Y00250000D01*
X00369979Y00248282D01*
X00369916Y00246565D01*
X00369810Y00244850D01*
X00369663Y00243139D01*
X00369474Y00241431D01*
X00369242Y00239729D01*
X00368969Y00238033D01*
X00368655Y00236344D01*
X00368299Y00234663D01*
X00367902Y00232991D01*
X00367464Y00231330D01*
X00366986Y00229680D01*
X00366467Y00228042D01*
X00365908Y00226418D01*
X00365309Y00224807D01*
X00364672Y00223212D01*
X00363995Y00221633D01*
X00363279Y00220071D01*
X00362526Y00218527D01*
X00361734Y00217002D01*
X00360906Y00215497D01*
X00360041Y00214013D01*
X00359140Y00212550D01*
X00358203Y00211110D01*
X00357231Y00209693D01*
X00356225Y00208301D01*
X00355184Y00206934D01*
X00354111Y00205592D01*
X00353005Y00204278D01*
X00351867Y00202991D01*
X00350697Y00201732D01*
X00349497Y00200503D01*
X00348268Y00199303D01*
X00347009Y00198133D01*
X00345722Y00196995D01*
X00344408Y00195889D01*
X00343066Y00194816D01*
X00341699Y00193775D01*
X00340307Y00192769D01*
X00338890Y00191797D01*
X00337450Y00190860D01*
X00335987Y00189959D01*
X00334503Y00189094D01*
X00332998Y00188266D01*
X00331473Y00187474D01*
X00329929Y00186721D01*
X00328367Y00186005D01*
X00326788Y00185328D01*
X00325193Y00184691D01*
X00323582Y00184092D01*
X00321958Y00183533D01*
X00320320Y00183014D01*
X00318670Y00182536D01*
X00317009Y00182098D01*
X00315337Y00181701D01*
X00313656Y00181345D01*
X00311967Y00181031D01*
X00310271Y00180758D01*
X00308569Y00180526D01*
X00306861Y00180337D01*
X00305150Y00180190D01*
X00303435Y00180084D01*
X00301718Y00180021D01*
X00300000Y00180000D01*
X00298282Y00180021D01*
X00296565Y00180084D01*
X00294850Y00180190D01*
X00293139Y00180337D01*
X00291431Y00180526D01*
X00289729Y00180758D01*
X00288033Y00181031D01*
X00286344Y00181345D01*
X00284663Y00181701D01*
X00282991Y00182098D01*
X00281330Y00182536D01*
X00279680Y00183014D01*
X00278042Y00183533D01*
X00276418Y00184092D01*
X00274807Y00184691D01*
X00273212Y00185328D01*
X00271633Y00186005D01*
X00270071Y00186721D01*
X00268527Y00187474D01*
X00267002Y00188266D01*
X00265497Y00189094D01*
X00264013Y00189959D01*
X00262550Y00190860D01*
X00261110Y00191797D01*
X00259693Y00192769D01*
X00258301Y00193775D01*
X00256934Y00194816D01*
X00255592Y00195889D01*
X00254278Y00196995D01*
X00252991Y00198133D01*
X00251732Y00199303D01*
X00250503Y00200503D01*
X00249303Y00201732D01*
X00248133Y00202991D01*
X00246995Y00204278D01*
X00245889Y00205592D01*
X00244816Y00206934D01*
X00243775Y00208301D01*
X00242769Y00209693D01*
X00241797Y00211110D01*
X00240860Y00212550D01*
X00239959Y00214013D01*
X00239094Y00215497D01*
X00238266Y00217002D01*
X00237474Y00218527D01*
X00236721Y00220071D01*
X00236005Y00221633D01*
X00235328Y00223212D01*
X00234691Y00224807D01*
X00234092Y00226418D01*
X00233533Y00228042D01*
X00233014Y00229680D01*
X00232536Y00231330D01*
X00232098Y00232991D01*
X00231701Y00234663D01*
X00231345Y00236344D01*
X00231031Y00238033D01*
X00230758Y00239729D01*
X00230526Y00241431D01*
X00230337Y00243139D01*
X00230190Y00244850D01*
X00230084Y00246565D01*
X00230021Y00248282D01*
X00230000Y00250000D01*
X00180000Y00710000D02*
X00180000Y00715000D01*
X00180000Y00785000D01*
X00180000Y00790000D01*
X00395000Y00790000D01*
X00395242Y00789997D01*
X00395483Y00789988D01*
X00395724Y00789974D01*
X00395965Y00789953D01*
X00396205Y00789927D01*
X00396445Y00789895D01*
X00396684Y00789857D01*
X00396921Y00789814D01*
X00397158Y00789764D01*
X00397393Y00789709D01*
X00397627Y00789649D01*
X00397859Y00789582D01*
X00398090Y00789511D01*
X00398319Y00789433D01*
X00398546Y00789350D01*
X00398771Y00789262D01*
X00398994Y00789168D01*
X00399214Y00789069D01*
X00399432Y00788964D01*
X00399647Y00788855D01*
X00399860Y00788740D01*
X00400070Y00788620D01*
X00400276Y00788495D01*
X00400480Y00788365D01*
X00400681Y00788230D01*
X00400878Y00788090D01*
X00401072Y00787946D01*
X00401262Y00787797D01*
X00401448Y00787643D01*
X00401631Y00787485D01*
X00401810Y00787323D01*
X00401985Y00787156D01*
X00402156Y00786985D01*
X00402323Y00786810D01*
X00402485Y00786631D01*
X00402643Y00786448D01*
X00402797Y00786262D01*
X00402946Y00786072D01*
X00403090Y00785878D01*
X00403230Y00785681D01*
X00403365Y00785480D01*
X00403495Y00785276D01*
X00403620Y00785070D01*
X00403740Y00784860D01*
X00403855Y00784647D01*
X00403964Y00784432D01*
X00404069Y00784214D01*
X00404168Y00783994D01*
X00404262Y00783771D01*
X00404350Y00783546D01*
X00404433Y00783319D01*
X00404511Y00783090D01*
X00404582Y00782859D01*
X00404649Y00782627D01*
X00404709Y00782393D01*
X00404764Y00782158D01*
X00404814Y00781921D01*
X00404857Y00781684D01*
X00404895Y00781445D01*
X00404927Y00781205D01*
X00404953Y00780965D01*
X00404974Y00780724D01*
X00404988Y00780483D01*
X00404997Y00780242D01*
X00405000Y00780000D01*
X00405000Y00720000D01*
X00404997Y00719758D01*
X00404988Y00719517D01*
X00404974Y00719276D01*
X00404953Y00719035D01*
X00404927Y00718795D01*
X00404895Y00718555D01*
X00404857Y00718316D01*
X00404814Y00718079D01*
X00404764Y00717842D01*
X00404709Y00717607D01*
X00404649Y00717373D01*
X00404582Y00717141D01*
X00404511Y00716910D01*
X00404433Y00716681D01*
X00404350Y00716454D01*
X00404262Y00716229D01*
X00404168Y00716006D01*
X00404069Y00715786D01*
X00403964Y00715568D01*
X00403855Y00715353D01*
X00403740Y00715140D01*
X00403620Y00714930D01*
X00403495Y00714724D01*
X00403365Y00714520D01*
X00403230Y00714319D01*
X00403090Y00714122D01*
X00402946Y00713928D01*
X00402797Y00713738D01*
X00402643Y00713552D01*
X00402485Y00713369D01*
X00402323Y00713190D01*
X00402156Y00713015D01*
X00401985Y00712844D01*
X00401810Y00712677D01*
X00401631Y00712515D01*
X00401448Y00712357D01*
X00401262Y00712203D01*
X00401072Y00712054D01*
X00400878Y00711910D01*
X00400681Y00711770D01*
X00400480Y00711635D01*
X00400276Y00711505D01*
X00400070Y00711380D01*
X00399860Y00711260D01*
X00399647Y00711145D01*
X00399432Y00711036D01*
X00399214Y00710931D01*
X00398994Y00710832D01*
X00398771Y00710738D01*
X00398546Y00710650D01*
X00398319Y00710567D01*
X00398090Y00710489D01*
X00397859Y00710418D01*
X00397627Y00710351D01*
X00397393Y00710291D01*
X00397158Y00710236D01*
X00396921Y00710186D01*
X00396684Y00710143D01*
X00396445Y00710105D01*
X00396205Y00710073D01*
X00395965Y00710047D01*
X00395724Y00710026D01*
X00395483Y00710012D01*
X00395242Y00710003D01*
X00395000Y00710000D01*
X00180000Y00710000D01*
X00180000Y00715000D02*
X00165000Y00715000D01*
X00165000Y00785000D01*
X00180000Y00785000D01*
X00245000Y00750000D02*
X00265000Y00750000D01*
X00265000Y00730000D01*
X00280000Y00730000D02*
X00280000Y00770000D01*
X00295000Y00770000D01*
X00295000Y00730000D01*
X00280000Y00730000D01*
X00265000Y00750000D02*
X00265000Y00770000D01*
X00310000Y00770000D02*
X00310000Y00750000D01*
X00310000Y00730000D01*
X00310000Y00750000D02*
X00330000Y00750000D01*
X00315000Y00900000D02*
X00485000Y00900000D01*
X00485242Y00900003D01*
X00485483Y00900012D01*
X00485724Y00900026D01*
X00485965Y00900047D01*
X00486205Y00900073D01*
X00486445Y00900105D01*
X00486684Y00900143D01*
X00486921Y00900186D01*
X00487158Y00900236D01*
X00487393Y00900291D01*
X00487627Y00900351D01*
X00487859Y00900418D01*
X00488090Y00900489D01*
X00488319Y00900567D01*
X00488546Y00900650D01*
X00488771Y00900738D01*
X00488994Y00900832D01*
X00489214Y00900931D01*
X00489432Y00901036D01*
X00489647Y00901145D01*
X00489860Y00901260D01*
X00490070Y00901380D01*
X00490276Y00901505D01*
X00490480Y00901635D01*
X00490681Y00901770D01*
X00490878Y00901910D01*
X00491072Y00902054D01*
X00491262Y00902203D01*
X00491448Y00902357D01*
X00491631Y00902515D01*
X00491810Y00902677D01*
X00491985Y00902844D01*
X00492156Y00903015D01*
X00492323Y00903190D01*
X00492485Y00903369D01*
X00492643Y00903552D01*
X00492797Y00903738D01*
X00492946Y00903928D01*
X00493090Y00904122D01*
X00493230Y00904319D01*
X00493365Y00904520D01*
X00493495Y00904724D01*
X00493620Y00904930D01*
X00493740Y00905140D01*
X00493855Y00905353D01*
X00493964Y00905568D01*
X00494069Y00905786D01*
X00494168Y00906006D01*
X00494262Y00906229D01*
X00494350Y00906454D01*
X00494433Y00906681D01*
X00494511Y00906910D01*
X00494582Y00907141D01*
X00494649Y00907373D01*
X00494709Y00907607D01*
X00494764Y00907842D01*
X00494814Y00908079D01*
X00494857Y00908316D01*
X00494895Y00908555D01*
X00494927Y00908795D01*
X00494953Y00909035D01*
X00494974Y00909276D01*
X00494988Y00909517D01*
X00494997Y00909758D01*
X00495000Y00910000D01*
X00495000Y00990000D01*
X00494997Y00990242D01*
X00494988Y00990483D01*
X00494974Y00990724D01*
X00494953Y00990965D01*
X00494927Y00991205D01*
X00494895Y00991445D01*
X00494857Y00991684D01*
X00494814Y00991921D01*
X00494764Y00992158D01*
X00494709Y00992393D01*
X00494649Y00992627D01*
X00494582Y00992859D01*
X00494511Y00993090D01*
X00494433Y00993319D01*
X00494350Y00993546D01*
X00494262Y00993771D01*
X00494168Y00993994D01*
X00494069Y00994214D01*
X00493964Y00994432D01*
X00493855Y00994647D01*
X00493740Y00994860D01*
X00493620Y00995070D01*
X00493495Y00995276D01*
X00493365Y00995480D01*
X00493230Y00995681D01*
X00493090Y00995878D01*
X00492946Y00996072D01*
X00492797Y00996262D01*
X00492643Y00996448D01*
X00492485Y00996631D01*
X00492323Y00996810D01*
X00492156Y00996985D01*
X00491985Y00997156D01*
X00491810Y00997323D01*
X00491631Y00997485D01*
X00491448Y00997643D01*
X00491262Y00997797D01*
X00491072Y00997946D01*
X00490878Y00998090D01*
X00490681Y00998230D01*
X00490480Y00998365D01*
X00490276Y00998495D01*
X00490070Y00998620D01*
X00489860Y00998740D01*
X00489647Y00998855D01*
X00489432Y00998964D01*
X00489214Y00999069D01*
X00488994Y00999168D01*
X00488771Y00999262D01*
X00488546Y00999350D01*
X00488319Y00999433D01*
X00488090Y00999511D01*
X00487859Y00999582D01*
X00487627Y00999649D01*
X00487393Y00999709D01*
X00487158Y00999764D01*
X00486921Y00999814D01*
X00486684Y00999857D01*
X00486445Y00999895D01*
X00486205Y00999927D01*
X00485965Y00999953D01*
X00485724Y00999974D01*
X00485483Y00999988D01*
X00485242Y00999997D01*
X00485000Y01000000D01*
X00315000Y01000000D01*
X00314758Y00999997D01*
X00314517Y00999988D01*
X00314276Y00999974D01*
X00314035Y00999953D01*
X00313795Y00999927D01*
X00313555Y00999895D01*
X00313316Y00999857D01*
X00313079Y00999814D01*
X00312842Y00999764D01*
X00312607Y00999709D01*
X00312373Y00999649D01*
X00312141Y00999582D01*
X00311910Y00999511D01*
X00311681Y00999433D01*
X00311454Y00999350D01*
X00311229Y00999262D01*
X00311006Y00999168D01*
X00310786Y00999069D01*
X00310568Y00998964D01*
X00310353Y00998855D01*
X00310140Y00998740D01*
X00309930Y00998620D01*
X00309724Y00998495D01*
X00309520Y00998365D01*
X00309319Y00998230D01*
X00309122Y00998090D01*
X00308928Y00997946D01*
X00308738Y00997797D01*
X00308552Y00997643D01*
X00308369Y00997485D01*
X00308190Y00997323D01*
X00308015Y00997156D01*
X00307844Y00996985D01*
X00307677Y00996810D01*
X00307515Y00996631D01*
X00307357Y00996448D01*
X00307203Y00996262D01*
X00307054Y00996072D01*
X00306910Y00995878D01*
X00306770Y00995681D01*
X00306635Y00995480D01*
X00306505Y00995276D01*
X00306380Y00995070D01*
X00306260Y00994860D01*
X00306145Y00994647D01*
X00306036Y00994432D01*
X00305931Y00994214D01*
X00305832Y00993994D01*
X00305738Y00993771D01*
X00305650Y00993546D01*
X00305567Y00993319D01*
X00305489Y00993090D01*
X00305418Y00992859D01*
X00305351Y00992627D01*
X00305291Y00992393D01*
X00305236Y00992158D01*
X00305186Y00991921D01*
X00305143Y00991684D01*
X00305105Y00991445D01*
X00305073Y00991205D01*
X00305047Y00990965D01*
X00305026Y00990724D01*
X00305012Y00990483D01*
X00305003Y00990242D01*
X00305000Y00990000D01*
X00305000Y00910000D01*
X00305003Y00909758D01*
X00305012Y00909517D01*
X00305026Y00909276D01*
X00305047Y00909035D01*
X00305073Y00908795D01*
X00305105Y00908555D01*
X00305143Y00908316D01*
X00305186Y00908079D01*
X00305236Y00907842D01*
X00305291Y00907607D01*
X00305351Y00907373D01*
X00305418Y00907141D01*
X00305489Y00906910D01*
X00305567Y00906681D01*
X00305650Y00906454D01*
X00305738Y00906229D01*
X00305832Y00906006D01*
X00305931Y00905786D01*
X00306036Y00905568D01*
X00306145Y00905353D01*
X00306260Y00905140D01*
X00306380Y00904930D01*
X00306505Y00904724D01*
X00306635Y00904520D01*
X00306770Y00904319D01*
X00306910Y00904122D01*
X00307054Y00903928D01*
X00307203Y00903738D01*
X00307357Y00903552D01*
X00307515Y00903369D01*
X00307677Y00903190D01*
X00307844Y00903015D01*
X00308015Y00902844D01*
X00308190Y00902677D01*
X00308369Y00902515D01*
X00308552Y00902357D01*
X00308738Y00902203D01*
X00308928Y00902054D01*
X00309122Y00901910D01*
X00309319Y00901770D01*
X00309520Y00901635D01*
X00309724Y00901505D01*
X00309930Y00901380D01*
X00310140Y00901260D01*
X00310353Y00901145D01*
X00310568Y00901036D01*
X00310786Y00900931D01*
X00311006Y00900832D01*
X00311229Y00900738D01*
X00311454Y00900650D01*
X00311681Y00900567D01*
X00311910Y00900489D01*
X00312141Y00900418D01*
X00312373Y00900351D01*
X00312607Y00900291D01*
X00312842Y00900236D01*
X00313079Y00900186D01*
X00313316Y00900143D01*
X00313555Y00900105D01*
X00313795Y00900073D01*
X00314035Y00900047D01*
X00314276Y00900026D01*
X00314517Y00900012D01*
X00314758Y00900003D01*
X00315000Y00900000D01*
X00385000Y00950000D02*
X00390000Y00950000D01*
X00410000Y00950000D02*
X00415000Y00950000D01*
X00210000Y01005000D02*
X00200000Y01005000D01*
X00200000Y00995000D01*
X00200000Y01005000D02*
X00190000Y01005000D01*
X00200000Y01005000D02*
X00200000Y01015000D01*
X00050000Y00950000D02*
X00050030Y00952454D01*
X00050120Y00954907D01*
X00050271Y00957356D01*
X00050482Y00959802D01*
X00050752Y00962241D01*
X00051082Y00964673D01*
X00051472Y00967096D01*
X00051921Y00969509D01*
X00052430Y00971910D01*
X00052997Y00974298D01*
X00053622Y00976671D01*
X00054306Y00979028D01*
X00055047Y00981368D01*
X00055846Y00983689D01*
X00056701Y00985990D01*
X00057612Y00988268D01*
X00058579Y00990524D01*
X00059601Y00992756D01*
X00060678Y00994961D01*
X00061808Y00997140D01*
X00062991Y00999290D01*
X00064227Y01001410D01*
X00065515Y01003500D01*
X00066853Y01005557D01*
X00068242Y01007581D01*
X00069679Y01009570D01*
X00071165Y01011523D01*
X00072699Y01013439D01*
X00074279Y01015317D01*
X00075905Y01017156D01*
X00077575Y01018954D01*
X00079289Y01020711D01*
X00081046Y01022425D01*
X00082844Y01024095D01*
X00084683Y01025721D01*
X00086561Y01027301D01*
X00088477Y01028835D01*
X00090430Y01030321D01*
X00092419Y01031758D01*
X00094443Y01033147D01*
X00096500Y01034485D01*
X00098590Y01035773D01*
X00100710Y01037009D01*
X00102860Y01038192D01*
X00105039Y01039322D01*
X00107244Y01040399D01*
X00109476Y01041421D01*
X00111732Y01042388D01*
X00114010Y01043299D01*
X00116311Y01044154D01*
X00118632Y01044953D01*
X00120972Y01045694D01*
X00123329Y01046378D01*
X00125702Y01047003D01*
X00128090Y01047570D01*
X00130491Y01048079D01*
X00132904Y01048528D01*
X00135327Y01048918D01*
X00137759Y01049248D01*
X00140198Y01049518D01*
X00142644Y01049729D01*
X00145093Y01049880D01*
X00147546Y01049970D01*
X00150000Y01050000D01*
X00152454Y01049970D01*
X00154907Y01049880D01*
X00157356Y01049729D01*
X00159802Y01049518D01*
X00162241Y01049248D01*
X00164673Y01048918D01*
X00167096Y01048528D01*
X00169509Y01048079D01*
X00171910Y01047570D01*
X00174298Y01047003D01*
X00176671Y01046378D01*
X00179028Y01045694D01*
X00181368Y01044953D01*
X00183689Y01044154D01*
X00185990Y01043299D01*
X00188268Y01042388D01*
X00190524Y01041421D01*
X00192756Y01040399D01*
X00194961Y01039322D01*
X00197140Y01038192D01*
X00199290Y01037009D01*
X00201410Y01035773D01*
X00203500Y01034485D01*
X00205557Y01033147D01*
X00207581Y01031758D01*
X00209570Y01030321D01*
X00211523Y01028835D01*
X00213439Y01027301D01*
X00215317Y01025721D01*
X00217156Y01024095D01*
X00218954Y01022425D01*
X00220711Y01020711D01*
X00222425Y01018954D01*
X00224095Y01017156D01*
X00225721Y01015317D01*
X00227301Y01013439D01*
X00228835Y01011523D01*
X00230321Y01009570D01*
X00231758Y01007581D01*
X00233147Y01005557D01*
X00234485Y01003500D01*
X00235773Y01001410D01*
X00237009Y00999290D01*
X00238192Y00997140D01*
X00239322Y00994961D01*
X00240399Y00992756D01*
X00241421Y00990524D01*
X00242388Y00988268D01*
X00243299Y00985990D01*
X00244154Y00983689D01*
X00244953Y00981368D01*
X00245694Y00979028D01*
X00246378Y00976671D01*
X00247003Y00974298D01*
X00247570Y00971910D01*
X00248079Y00969509D01*
X00248528Y00967096D01*
X00248918Y00964673D01*
X00249248Y00962241D01*
X00249518Y00959802D01*
X00249729Y00957356D01*
X00249880Y00954907D01*
X00249970Y00952454D01*
X00250000Y00950000D01*
X00249970Y00947546D01*
X00249880Y00945093D01*
X00249729Y00942644D01*
X00249518Y00940198D01*
X00249248Y00937759D01*
X00248918Y00935327D01*
X00248528Y00932904D01*
X00248079Y00930491D01*
X00247570Y00928090D01*
X00247003Y00925702D01*
X00246378Y00923329D01*
X00245694Y00920972D01*
X00244953Y00918632D01*
X00244154Y00916311D01*
X00243299Y00914010D01*
X00242388Y00911732D01*
X00241421Y00909476D01*
X00240399Y00907244D01*
X00239322Y00905039D01*
X00238192Y00902860D01*
X00237009Y00900710D01*
X00235773Y00898590D01*
X00234485Y00896500D01*
X00233147Y00894443D01*
X00231758Y00892419D01*
X00230321Y00890430D01*
X00228835Y00888477D01*
X00227301Y00886561D01*
X00225721Y00884683D01*
X00224095Y00882844D01*
X00222425Y00881046D01*
X00220711Y00879289D01*
X00218954Y00877575D01*
X00217156Y00875905D01*
X00215317Y00874279D01*
X00213439Y00872699D01*
X00211523Y00871165D01*
X00209570Y00869679D01*
X00207581Y00868242D01*
X00205557Y00866853D01*
X00203500Y00865515D01*
X00201410Y00864227D01*
X00199290Y00862991D01*
X00197140Y00861808D01*
X00194961Y00860678D01*
X00192756Y00859601D01*
X00190524Y00858579D01*
X00188268Y00857612D01*
X00185990Y00856701D01*
X00183689Y00855846D01*
X00181368Y00855047D01*
X00179028Y00854306D01*
X00176671Y00853622D01*
X00174298Y00852997D01*
X00171910Y00852430D01*
X00169509Y00851921D01*
X00167096Y00851472D01*
X00164673Y00851082D01*
X00162241Y00850752D01*
X00159802Y00850482D01*
X00157356Y00850271D01*
X00154907Y00850120D01*
X00152454Y00850030D01*
X00150000Y00850000D01*
X00147546Y00850030D01*
X00145093Y00850120D01*
X00142644Y00850271D01*
X00140198Y00850482D01*
X00137759Y00850752D01*
X00135327Y00851082D01*
X00132904Y00851472D01*
X00130491Y00851921D01*
X00128090Y00852430D01*
X00125702Y00852997D01*
X00123329Y00853622D01*
X00120972Y00854306D01*
X00118632Y00855047D01*
X00116311Y00855846D01*
X00114010Y00856701D01*
X00111732Y00857612D01*
X00109476Y00858579D01*
X00107244Y00859601D01*
X00105039Y00860678D01*
X00102860Y00861808D01*
X00100710Y00862991D01*
X00098590Y00864227D01*
X00096500Y00865515D01*
X00094443Y00866853D01*
X00092419Y00868242D01*
X00090430Y00869679D01*
X00088477Y00871165D01*
X00086561Y00872699D01*
X00084683Y00874279D01*
X00082844Y00875905D01*
X00081046Y00877575D01*
X00079289Y00879289D01*
X00077575Y00881046D01*
X00075905Y00882844D01*
X00074279Y00884683D01*
X00072699Y00886561D01*
X00071165Y00888477D01*
X00069679Y00890430D01*
X00068242Y00892419D01*
X00066853Y00894443D01*
X00065515Y00896500D01*
X00064227Y00898590D01*
X00062991Y00900710D01*
X00061808Y00902860D01*
X00060678Y00905039D01*
X00059601Y00907244D01*
X00058579Y00909476D01*
X00057612Y00911732D01*
X00056701Y00914010D01*
X00055846Y00916311D01*
X00055047Y00918632D01*
X00054306Y00920972D01*
X00053622Y00923329D01*
X00052997Y00925702D01*
X00052430Y00928090D01*
X00051921Y00930491D01*
X00051472Y00932904D01*
X00051082Y00935327D01*
X00050752Y00937759D01*
X00050482Y00940198D01*
X00050271Y00942644D01*
X00050120Y00945093D01*
X00050030Y00947546D01*
X00050000Y00950000D01*
X00185000Y01350000D02*
X00415000Y01350000D01*
X00415000Y02350000D01*
X00340000Y02350000D01*
X00339988Y02349026D01*
X00339953Y02348052D01*
X00339893Y02347080D01*
X00339810Y02346110D01*
X00339704Y02345141D01*
X00339574Y02344176D01*
X00339420Y02343214D01*
X00339243Y02342256D01*
X00339043Y02341303D01*
X00338820Y02340355D01*
X00338573Y02339412D01*
X00338304Y02338476D01*
X00338012Y02337547D01*
X00337698Y02336625D01*
X00337361Y02335711D01*
X00337002Y02334805D01*
X00336621Y02333909D01*
X00336218Y02333022D01*
X00335794Y02332145D01*
X00335348Y02331279D01*
X00334882Y02330423D01*
X00334395Y02329580D01*
X00333887Y02328748D01*
X00333360Y02327929D01*
X00332813Y02327123D01*
X00332246Y02326331D01*
X00331660Y02325553D01*
X00331055Y02324789D01*
X00330432Y02324041D01*
X00329791Y02323307D01*
X00329132Y02322590D01*
X00328456Y02321888D01*
X00327763Y02321204D01*
X00327054Y02320536D01*
X00326328Y02319886D01*
X00325587Y02319254D01*
X00324831Y02318640D01*
X00324060Y02318045D01*
X00323274Y02317468D01*
X00322475Y02316911D01*
X00321663Y02316374D01*
X00320838Y02315856D01*
X00320000Y02315359D01*
X00319151Y02314882D01*
X00318290Y02314426D01*
X00317418Y02313991D01*
X00316536Y02313578D01*
X00315644Y02313186D01*
X00314743Y02312816D01*
X00313833Y02312468D01*
X00312915Y02312142D01*
X00311990Y02311839D01*
X00311057Y02311558D01*
X00310117Y02311301D01*
X00309172Y02311066D01*
X00308221Y02310854D01*
X00307265Y02310665D01*
X00306305Y02310500D01*
X00305342Y02310358D01*
X00304375Y02310240D01*
X00303405Y02310145D01*
X00302434Y02310074D01*
X00301461Y02310027D01*
X00300487Y02310003D01*
X00299513Y02310003D01*
X00298539Y02310027D01*
X00297566Y02310074D01*
X00296595Y02310145D01*
X00295625Y02310240D01*
X00294658Y02310358D01*
X00293695Y02310500D01*
X00292735Y02310665D01*
X00291779Y02310854D01*
X00290828Y02311066D01*
X00289883Y02311301D01*
X00288943Y02311558D01*
X00288010Y02311839D01*
X00287085Y02312142D01*
X00286167Y02312468D01*
X00285257Y02312816D01*
X00284356Y02313186D01*
X00283464Y02313578D01*
X00282582Y02313991D01*
X00281710Y02314426D01*
X00280849Y02314882D01*
X00280000Y02315359D01*
X00279162Y02315856D01*
X00278337Y02316374D01*
X00277525Y02316911D01*
X00276726Y02317468D01*
X00275940Y02318045D01*
X00275169Y02318640D01*
X00274413Y02319254D01*
X00273672Y02319886D01*
X00272946Y02320536D01*
X00272237Y02321204D01*
X00271544Y02321888D01*
X00270868Y02322590D01*
X00270209Y02323307D01*
X00269568Y02324041D01*
X00268945Y02324789D01*
X00268340Y02325553D01*
X00267754Y02326331D01*
X00267187Y02327123D01*
X00266640Y02327929D01*
X00266113Y02328748D01*
X00265605Y02329580D01*
X00265118Y02330423D01*
X00264652Y02331279D01*
X00264206Y02332145D01*
X00263782Y02333022D01*
X00263379Y02333909D01*
X00262998Y02334805D01*
X00262639Y02335711D01*
X00262302Y02336625D01*
X00261988Y02337547D01*
X00261696Y02338476D01*
X00261427Y02339412D01*
X00261180Y02340355D01*
X00260957Y02341303D01*
X00260757Y02342256D01*
X00260580Y02343214D01*
X00260426Y02344176D01*
X00260296Y02345141D01*
X00260190Y02346110D01*
X00260107Y02347080D01*
X00260047Y02348052D01*
X00260012Y02349026D01*
X00260000Y02350000D01*
X00185000Y02350000D01*
X00185000Y01350000D01*
X00640000Y02190000D02*
X00640000Y00110000D01*
X01160000Y00110000D01*
X01160000Y02190000D01*
X00950000Y02190000D01*
X00949985Y02188782D01*
X00949941Y02187566D01*
X00949867Y02186350D01*
X00949763Y02185137D01*
X00949630Y02183927D01*
X00949467Y02182720D01*
X00949275Y02181518D01*
X00949054Y02180320D01*
X00948804Y02179128D01*
X00948525Y02177943D01*
X00948217Y02176765D01*
X00947880Y02175595D01*
X00947515Y02174433D01*
X00947122Y02173281D01*
X00946701Y02172138D01*
X00946252Y02171007D01*
X00945776Y02169886D01*
X00945272Y02168777D01*
X00944742Y02167681D01*
X00944185Y02166598D01*
X00943602Y02165529D01*
X00942994Y02164475D01*
X00942359Y02163435D01*
X00941700Y02162412D01*
X00941016Y02161404D01*
X00940307Y02160414D01*
X00939575Y02159441D01*
X00938819Y02158487D01*
X00938040Y02157551D01*
X00937239Y02156634D01*
X00936415Y02155737D01*
X00935570Y02154861D01*
X00934704Y02154005D01*
X00933817Y02153170D01*
X00932910Y02152358D01*
X00931984Y02151568D01*
X00931038Y02150800D01*
X00930075Y02150056D01*
X00929093Y02149336D01*
X00928094Y02148639D01*
X00927079Y02147967D01*
X00926047Y02147320D01*
X00925000Y02146699D01*
X00923938Y02146103D01*
X00922862Y02145533D01*
X00921773Y02144989D01*
X00920670Y02144473D01*
X00919555Y02143983D01*
X00918429Y02143520D01*
X00917292Y02143085D01*
X00916144Y02142678D01*
X00914987Y02142299D01*
X00913821Y02141948D01*
X00912647Y02141626D01*
X00911465Y02141332D01*
X00910276Y02141067D01*
X00909082Y02140832D01*
X00907882Y02140625D01*
X00906677Y02140448D01*
X00905469Y02140300D01*
X00904257Y02140182D01*
X00903042Y02140093D01*
X00901826Y02140033D01*
X00900609Y02140004D01*
X00899391Y02140004D01*
X00898174Y02140033D01*
X00896958Y02140093D01*
X00895743Y02140182D01*
X00894531Y02140300D01*
X00893323Y02140448D01*
X00892118Y02140625D01*
X00890918Y02140832D01*
X00889724Y02141067D01*
X00888535Y02141332D01*
X00887353Y02141626D01*
X00886179Y02141948D01*
X00885013Y02142299D01*
X00883856Y02142678D01*
X00882708Y02143085D01*
X00881571Y02143520D01*
X00880445Y02143983D01*
X00879330Y02144473D01*
X00878227Y02144989D01*
X00877138Y02145533D01*
X00876062Y02146103D01*
X00875000Y02146699D01*
X00873953Y02147320D01*
X00872921Y02147967D01*
X00871906Y02148639D01*
X00870907Y02149336D01*
X00869925Y02150056D01*
X00868962Y02150800D01*
X00868016Y02151568D01*
X00867090Y02152358D01*
X00866183Y02153170D01*
X00865296Y02154005D01*
X00864430Y02154861D01*
X00863585Y02155737D01*
X00862761Y02156634D01*
X00861960Y02157551D01*
X00861181Y02158487D01*
X00860425Y02159441D01*
X00859693Y02160414D01*
X00858984Y02161404D01*
X00858300Y02162412D01*
X00857641Y02163435D01*
X00857006Y02164475D01*
X00856398Y02165529D01*
X00855815Y02166598D01*
X00855258Y02167681D01*
X00854728Y02168777D01*
X00854224Y02169886D01*
X00853748Y02171007D01*
X00853299Y02172138D01*
X00852878Y02173281D01*
X00852485Y02174433D01*
X00852120Y02175595D01*
X00851783Y02176765D01*
X00851475Y02177943D01*
X00851196Y02179128D01*
X00850946Y02180320D01*
X00850725Y02181518D01*
X00850533Y02182720D01*
X00850370Y02183927D01*
X00850237Y02185137D01*
X00850133Y02186350D01*
X00850059Y02187566D01*
X00850015Y02188782D01*
X00850000Y02190000D01*
X00640000Y02190000D01*
X00775000Y02315000D02*
X00910000Y02315000D01*
X00960000Y02315000D02*
X01025000Y02315000D01*
X01035000Y02325000D01*
X01035000Y02350000D01*
X01035000Y02575000D01*
X01025000Y02585000D01*
X00960000Y02585000D01*
X01020000Y02550000D02*
X01035000Y02550000D01*
X01020000Y02550000D02*
X01020000Y02350000D01*
X01035000Y02350000D01*
X01100000Y02425000D02*
X01100000Y02450000D01*
X01100000Y02550000D01*
X01300000Y02550000D01*
X01300000Y02450000D01*
X01300000Y02425000D01*
X01100000Y02425000D01*
X01100000Y02450000D02*
X01300000Y02450000D01*
X00900000Y02420000D02*
X00900000Y02390000D01*
X00870000Y02390000D01*
X00870000Y02420000D01*
X00855000Y02435000D01*
X00840000Y02435000D01*
X00840000Y02465000D01*
X00810000Y02465000D01*
X00810000Y02435000D01*
X00840000Y02435000D01*
X00840000Y02465000D02*
X00855000Y02465000D01*
X00870000Y02480000D01*
X00870000Y02510000D01*
X00900000Y02510000D01*
X00900000Y02480000D01*
X00910000Y02585000D02*
X00775000Y02585000D01*
X00765000Y02575000D01*
X00765000Y02325000D01*
X00775000Y02315000D01*
X00650000Y02415000D02*
X00650000Y02585000D01*
X00649997Y02585242D01*
X00649988Y02585483D01*
X00649974Y02585724D01*
X00649953Y02585965D01*
X00649927Y02586205D01*
X00649895Y02586445D01*
X00649857Y02586684D01*
X00649814Y02586921D01*
X00649764Y02587158D01*
X00649709Y02587393D01*
X00649649Y02587627D01*
X00649582Y02587859D01*
X00649511Y02588090D01*
X00649433Y02588319D01*
X00649350Y02588546D01*
X00649262Y02588771D01*
X00649168Y02588994D01*
X00649069Y02589214D01*
X00648964Y02589432D01*
X00648855Y02589647D01*
X00648740Y02589860D01*
X00648620Y02590070D01*
X00648495Y02590276D01*
X00648365Y02590480D01*
X00648230Y02590681D01*
X00648090Y02590878D01*
X00647946Y02591072D01*
X00647797Y02591262D01*
X00647643Y02591448D01*
X00647485Y02591631D01*
X00647323Y02591810D01*
X00647156Y02591985D01*
X00646985Y02592156D01*
X00646810Y02592323D01*
X00646631Y02592485D01*
X00646448Y02592643D01*
X00646262Y02592797D01*
X00646072Y02592946D01*
X00645878Y02593090D01*
X00645681Y02593230D01*
X00645480Y02593365D01*
X00645276Y02593495D01*
X00645070Y02593620D01*
X00644860Y02593740D01*
X00644647Y02593855D01*
X00644432Y02593964D01*
X00644214Y02594069D01*
X00643994Y02594168D01*
X00643771Y02594262D01*
X00643546Y02594350D01*
X00643319Y02594433D01*
X00643090Y02594511D01*
X00642859Y02594582D01*
X00642627Y02594649D01*
X00642393Y02594709D01*
X00642158Y02594764D01*
X00641921Y02594814D01*
X00641684Y02594857D01*
X00641445Y02594895D01*
X00641205Y02594927D01*
X00640965Y02594953D01*
X00640724Y02594974D01*
X00640483Y02594988D01*
X00640242Y02594997D01*
X00640000Y02595000D01*
X00560000Y02595000D01*
X00559758Y02594997D01*
X00559517Y02594988D01*
X00559276Y02594974D01*
X00559035Y02594953D01*
X00558795Y02594927D01*
X00558555Y02594895D01*
X00558316Y02594857D01*
X00558079Y02594814D01*
X00557842Y02594764D01*
X00557607Y02594709D01*
X00557373Y02594649D01*
X00557141Y02594582D01*
X00556910Y02594511D01*
X00556681Y02594433D01*
X00556454Y02594350D01*
X00556229Y02594262D01*
X00556006Y02594168D01*
X00555786Y02594069D01*
X00555568Y02593964D01*
X00555353Y02593855D01*
X00555140Y02593740D01*
X00554930Y02593620D01*
X00554724Y02593495D01*
X00554520Y02593365D01*
X00554319Y02593230D01*
X00554122Y02593090D01*
X00553928Y02592946D01*
X00553738Y02592797D01*
X00553552Y02592643D01*
X00553369Y02592485D01*
X00553190Y02592323D01*
X00553015Y02592156D01*
X00552844Y02591985D01*
X00552677Y02591810D01*
X00552515Y02591631D01*
X00552357Y02591448D01*
X00552203Y02591262D01*
X00552054Y02591072D01*
X00551910Y02590878D01*
X00551770Y02590681D01*
X00551635Y02590480D01*
X00551505Y02590276D01*
X00551380Y02590070D01*
X00551260Y02589860D01*
X00551145Y02589647D01*
X00551036Y02589432D01*
X00550931Y02589214D01*
X00550832Y02588994D01*
X00550738Y02588771D01*
X00550650Y02588546D01*
X00550567Y02588319D01*
X00550489Y02588090D01*
X00550418Y02587859D01*
X00550351Y02587627D01*
X00550291Y02587393D01*
X00550236Y02587158D01*
X00550186Y02586921D01*
X00550143Y02586684D01*
X00550105Y02586445D01*
X00550073Y02586205D01*
X00550047Y02585965D01*
X00550026Y02585724D01*
X00550012Y02585483D01*
X00550003Y02585242D01*
X00550000Y02585000D01*
X00550000Y02415000D01*
X00550003Y02414758D01*
X00550012Y02414517D01*
X00550026Y02414276D01*
X00550047Y02414035D01*
X00550073Y02413795D01*
X00550105Y02413555D01*
X00550143Y02413316D01*
X00550186Y02413079D01*
X00550236Y02412842D01*
X00550291Y02412607D01*
X00550351Y02412373D01*
X00550418Y02412141D01*
X00550489Y02411910D01*
X00550567Y02411681D01*
X00550650Y02411454D01*
X00550738Y02411229D01*
X00550832Y02411006D01*
X00550931Y02410786D01*
X00551036Y02410568D01*
X00551145Y02410353D01*
X00551260Y02410140D01*
X00551380Y02409930D01*
X00551505Y02409724D01*
X00551635Y02409520D01*
X00551770Y02409319D01*
X00551910Y02409122D01*
X00552054Y02408928D01*
X00552203Y02408738D01*
X00552357Y02408552D01*
X00552515Y02408369D01*
X00552677Y02408190D01*
X00552844Y02408015D01*
X00553015Y02407844D01*
X00553190Y02407677D01*
X00553369Y02407515D01*
X00553552Y02407357D01*
X00553738Y02407203D01*
X00553928Y02407054D01*
X00554122Y02406910D01*
X00554319Y02406770D01*
X00554520Y02406635D01*
X00554724Y02406505D01*
X00554930Y02406380D01*
X00555140Y02406260D01*
X00555353Y02406145D01*
X00555568Y02406036D01*
X00555786Y02405931D01*
X00556006Y02405832D01*
X00556229Y02405738D01*
X00556454Y02405650D01*
X00556681Y02405567D01*
X00556910Y02405489D01*
X00557141Y02405418D01*
X00557373Y02405351D01*
X00557607Y02405291D01*
X00557842Y02405236D01*
X00558079Y02405186D01*
X00558316Y02405143D01*
X00558555Y02405105D01*
X00558795Y02405073D01*
X00559035Y02405047D01*
X00559276Y02405026D01*
X00559517Y02405012D01*
X00559758Y02405003D01*
X00560000Y02405000D01*
X00640000Y02405000D01*
X00640242Y02405003D01*
X00640483Y02405012D01*
X00640724Y02405026D01*
X00640965Y02405047D01*
X00641205Y02405073D01*
X00641445Y02405105D01*
X00641684Y02405143D01*
X00641921Y02405186D01*
X00642158Y02405236D01*
X00642393Y02405291D01*
X00642627Y02405351D01*
X00642859Y02405418D01*
X00643090Y02405489D01*
X00643319Y02405567D01*
X00643546Y02405650D01*
X00643771Y02405738D01*
X00643994Y02405832D01*
X00644214Y02405931D01*
X00644432Y02406036D01*
X00644647Y02406145D01*
X00644860Y02406260D01*
X00645070Y02406380D01*
X00645276Y02406505D01*
X00645480Y02406635D01*
X00645681Y02406770D01*
X00645878Y02406910D01*
X00646072Y02407054D01*
X00646262Y02407203D01*
X00646448Y02407357D01*
X00646631Y02407515D01*
X00646810Y02407677D01*
X00646985Y02407844D01*
X00647156Y02408015D01*
X00647323Y02408190D01*
X00647485Y02408369D01*
X00647643Y02408552D01*
X00647797Y02408738D01*
X00647946Y02408928D01*
X00648090Y02409122D01*
X00648230Y02409319D01*
X00648365Y02409520D01*
X00648495Y02409724D01*
X00648620Y02409930D01*
X00648740Y02410140D01*
X00648855Y02410353D01*
X00648964Y02410568D01*
X00649069Y02410786D01*
X00649168Y02411006D01*
X00649262Y02411229D01*
X00649350Y02411454D01*
X00649433Y02411681D01*
X00649511Y02411910D01*
X00649582Y02412141D01*
X00649649Y02412373D01*
X00649709Y02412607D01*
X00649764Y02412842D01*
X00649814Y02413079D01*
X00649857Y02413316D01*
X00649895Y02413555D01*
X00649927Y02413795D01*
X00649953Y02414035D01*
X00649974Y02414276D01*
X00649988Y02414517D01*
X00649997Y02414758D01*
X00650000Y02415000D01*
X00600000Y02485000D02*
X00600000Y02490000D01*
X00600000Y02510000D02*
X00600000Y02515000D01*
D12*
X00600000Y02510000D02*
X00570000Y02510000D01*
X00570000Y02490000D02*
X00600000Y02490000D01*
X00630000Y02490000D01*
X00630000Y02510000D02*
X00600000Y02510000D01*
X00410000Y00980000D02*
X00410000Y00950000D01*
X00410000Y00920000D01*
X00390000Y00920000D02*
X00390000Y00950000D01*
X00390000Y00980000D01*
X00310000Y00530000D02*
X00310000Y00500000D01*
X00310000Y00470000D01*
X00290000Y00470000D02*
X00290000Y00500000D01*
X00290000Y00530000D01*
D13*
X00307928Y00437538D02*
X00300421Y00430032D01*
X00300421Y00400006D01*
X00307928Y00392500D01*
X00322941Y00392500D01*
X00330447Y00400006D01*
X00346461Y00400006D02*
X00353967Y00392500D01*
X00368980Y00392500D01*
X00376486Y00400006D01*
X00376486Y00407513D01*
X00368980Y00415019D01*
X00361473Y00415019D01*
X00368980Y00415019D02*
X00376486Y00422526D01*
X00376486Y00430032D01*
X00368980Y00437538D01*
X00353967Y00437538D01*
X00346461Y00430032D01*
X00330447Y00430032D02*
X00322941Y00437538D01*
X00307928Y00437538D01*
X00258565Y00397500D02*
X00228539Y00397500D01*
X00243552Y00397500D02*
X00243552Y00442538D01*
X00228539Y00427526D01*
X00212526Y00435032D02*
X00205019Y00442538D01*
X00190006Y00442538D01*
X00182500Y00435032D01*
X00182500Y00427526D01*
X00190006Y00420019D01*
X00205019Y00420019D01*
X00212526Y00412513D01*
X00212526Y00405006D01*
X00205019Y00397500D01*
X00190006Y00397500D01*
X00182500Y00405006D01*
X00209968Y00765421D02*
X00202462Y00772928D01*
X00202462Y00787941D01*
X00209968Y00795447D01*
X00212526Y00807500D02*
X00197513Y00822513D01*
X00202462Y00818967D02*
X00209968Y00811461D01*
X00212526Y00815006D02*
X00205019Y00807500D01*
X00190006Y00807500D01*
X00182500Y00815006D01*
X00182500Y00845032D01*
X00190006Y00852538D01*
X00205019Y00852538D01*
X00212526Y00845032D01*
X00212526Y00815006D01*
X00202462Y00818967D02*
X00202462Y00833980D01*
X00209968Y00841486D01*
X00217474Y00841486D01*
X00247500Y00811461D01*
X00247500Y00841486D01*
X00243552Y00852538D02*
X00243552Y00807500D01*
X00239994Y00795447D02*
X00247500Y00787941D01*
X00247500Y00772928D01*
X00239994Y00765421D01*
X00209968Y00765421D01*
X00228539Y00807500D02*
X00258565Y00807500D01*
X00228539Y00837526D02*
X00243552Y00852538D01*
X00400421Y00850006D02*
X00407928Y00842500D01*
X00422941Y00842500D01*
X00430447Y00850006D01*
X00446461Y00865019D02*
X00476486Y00865019D01*
X00468980Y00842500D02*
X00468980Y00887538D01*
X00446461Y00865019D01*
X00430447Y00880032D02*
X00422941Y00887538D01*
X00407928Y00887538D01*
X00400421Y00880032D01*
X00400421Y00850006D01*
X00702462Y02327500D02*
X00702462Y02350019D01*
X00709968Y02357526D01*
X00724981Y02357526D01*
X00732487Y02350019D01*
X00732487Y02327500D01*
X00732487Y02342513D02*
X00747500Y02357526D01*
X00747500Y02373539D02*
X00747500Y02403565D01*
X00747500Y02388552D02*
X00702462Y02388552D01*
X00717474Y02373539D01*
X00717474Y02419578D02*
X00702462Y02434591D01*
X00747500Y02434591D01*
X00747500Y02419578D02*
X00747500Y02449604D01*
X00699994Y02500421D02*
X00707500Y02507928D01*
X00707500Y02522941D01*
X00699994Y02530447D01*
X00707500Y02546461D02*
X00707500Y02576486D01*
X00707500Y02561473D02*
X00662462Y02561473D01*
X00677474Y02546461D01*
X00669968Y02530447D02*
X00662462Y02522941D01*
X00662462Y02507928D01*
X00669968Y02500421D01*
X00699994Y02500421D01*
X00702462Y02327500D02*
X00747500Y02327500D01*
X00973471Y02333172D02*
X00973471Y02344515D01*
X00979142Y02350186D01*
X00984814Y02350186D01*
X00990485Y02344515D01*
X00996157Y02350186D01*
X01001828Y02350186D01*
X01007500Y02344515D01*
X01007500Y02333172D01*
X01001828Y02327500D01*
X00990485Y02338843D02*
X00990485Y02344515D01*
X00973471Y02333172D02*
X00979142Y02327500D01*
X00984814Y02547500D02*
X00973471Y02558843D01*
X01007500Y02558843D01*
X01007500Y02547500D02*
X01007500Y02570186D01*
D14*
X01212921Y02587673D02*
X01220594Y02580000D01*
X01228268Y02580000D01*
X01235941Y02587673D01*
X01235941Y02626039D01*
X01228268Y02626039D02*
X01243614Y02626039D01*
X01258961Y02610693D02*
X01274307Y02626039D01*
X01274307Y02580000D01*
X01258961Y02580000D02*
X01289653Y02580000D01*
X01409921Y02348039D02*
X01432941Y02348039D01*
X01440614Y02340366D01*
X01440614Y02309673D01*
X01432941Y02302000D01*
X01409921Y02302000D01*
X01409921Y02348039D01*
X01455961Y02332693D02*
X01471307Y02348039D01*
X01471307Y02302000D01*
X01455961Y02302000D02*
X01486653Y02302000D01*
X01478980Y02148039D02*
X01463634Y02148039D01*
X01455961Y02140366D01*
X01440614Y02140366D02*
X01440614Y02109673D01*
X01432941Y02102000D01*
X01409921Y02102000D01*
X01409921Y02148039D01*
X01432941Y02148039D01*
X01440614Y02140366D01*
X01455961Y02102000D02*
X01486653Y02132693D01*
X01486653Y02140366D01*
X01478980Y02148039D01*
X01486653Y02102000D02*
X01455961Y02102000D01*
X01463634Y01948039D02*
X01478980Y01948039D01*
X01486653Y01940366D01*
X01486653Y01932693D01*
X01478980Y01925020D01*
X01486653Y01917346D01*
X01486653Y01909673D01*
X01478980Y01902000D01*
X01463634Y01902000D01*
X01455961Y01909673D01*
X01440614Y01909673D02*
X01440614Y01940366D01*
X01432941Y01948039D01*
X01409921Y01948039D01*
X01409921Y01902000D01*
X01432941Y01902000D01*
X01440614Y01909673D01*
X01455961Y01940366D02*
X01463634Y01948039D01*
X01471307Y01925020D02*
X01478980Y01925020D01*
X01478980Y01748039D02*
X01455961Y01725020D01*
X01486653Y01725020D01*
X01478980Y01748039D02*
X01478980Y01702000D01*
X01440614Y01709673D02*
X01440614Y01740366D01*
X01432941Y01748039D01*
X01409921Y01748039D01*
X01409921Y01702000D01*
X01432941Y01702000D01*
X01440614Y01709673D01*
X01432941Y01548039D02*
X01409921Y01548039D01*
X01409921Y01502000D01*
X01432941Y01502000D01*
X01440614Y01509673D01*
X01440614Y01540366D01*
X01432941Y01548039D01*
X01455961Y01548039D02*
X01455961Y01525020D01*
X01471307Y01532693D01*
X01478980Y01532693D01*
X01486653Y01525020D01*
X01486653Y01509673D01*
X01478980Y01502000D01*
X01463634Y01502000D01*
X01455961Y01509673D01*
X01455961Y01548039D02*
X01486653Y01548039D01*
X01486653Y01348039D02*
X01471307Y01340366D01*
X01455961Y01325020D01*
X01478980Y01325020D01*
X01486653Y01317346D01*
X01486653Y01309673D01*
X01478980Y01302000D01*
X01463634Y01302000D01*
X01455961Y01309673D01*
X01455961Y01325020D01*
X01440614Y01309673D02*
X01440614Y01340366D01*
X01432941Y01348039D01*
X01409921Y01348039D01*
X01409921Y01302000D01*
X01432941Y01302000D01*
X01440614Y01309673D01*
X01432941Y01148039D02*
X01409921Y01148039D01*
X01409921Y01102000D01*
X01432941Y01102000D01*
X01440614Y01109673D01*
X01440614Y01140366D01*
X01432941Y01148039D01*
X01455961Y01148039D02*
X01486653Y01148039D01*
X01486653Y01140366D01*
X01455961Y01109673D01*
X01455961Y01102000D01*
X01463634Y00948039D02*
X01478980Y00948039D01*
X01486653Y00940366D01*
X01486653Y00932693D01*
X01478980Y00925020D01*
X01463634Y00925020D01*
X01455961Y00932693D01*
X01455961Y00940366D01*
X01463634Y00948039D01*
X01463634Y00925020D02*
X01455961Y00917346D01*
X01455961Y00909673D01*
X01463634Y00902000D01*
X01478980Y00902000D01*
X01486653Y00909673D01*
X01486653Y00917346D01*
X01478980Y00925020D01*
X01440614Y00909673D02*
X01440614Y00940366D01*
X01432941Y00948039D01*
X01409921Y00948039D01*
X01409921Y00902000D01*
X01432941Y00902000D01*
X01440614Y00909673D01*
X01759921Y00923039D02*
X01759921Y00877000D01*
X01759921Y00892346D02*
X01782941Y00892346D01*
X01790614Y00900020D01*
X01790614Y00915366D01*
X01782941Y00923039D01*
X01759921Y00923039D01*
X01775268Y00892346D02*
X01790614Y00877000D01*
X01805961Y00877000D02*
X01836653Y00907693D01*
X01836653Y00915366D01*
X01828980Y00923039D01*
X01813634Y00923039D01*
X01805961Y00915366D01*
X01805961Y00877000D02*
X01836653Y00877000D01*
X01828980Y01077000D02*
X01813634Y01077000D01*
X01805961Y01084673D01*
X01805961Y01092346D01*
X01813634Y01100020D01*
X01828980Y01100020D01*
X01836653Y01092346D01*
X01836653Y01084673D01*
X01828980Y01077000D01*
X01828980Y01100020D02*
X01836653Y01107693D01*
X01836653Y01115366D01*
X01828980Y01123039D01*
X01813634Y01123039D01*
X01805961Y01115366D01*
X01805961Y01107693D01*
X01813634Y01100020D01*
X01790614Y01100020D02*
X01790614Y01115366D01*
X01782941Y01123039D01*
X01759921Y01123039D01*
X01759921Y01077000D01*
X01759921Y01092346D02*
X01782941Y01092346D01*
X01790614Y01100020D01*
X01775268Y01092346D02*
X01790614Y01077000D01*
X01790614Y01277000D02*
X01775268Y01292346D01*
X01782941Y01292346D02*
X01759921Y01292346D01*
X01759921Y01277000D02*
X01759921Y01323039D01*
X01782941Y01323039D01*
X01790614Y01315366D01*
X01790614Y01300020D01*
X01782941Y01292346D01*
X01805961Y01284673D02*
X01805961Y01277000D01*
X01805961Y01284673D02*
X01836653Y01315366D01*
X01836653Y01323039D01*
X01805961Y01323039D01*
X01813634Y01477000D02*
X01828980Y01477000D01*
X01836653Y01484673D01*
X01836653Y01492346D01*
X01828980Y01500020D01*
X01805961Y01500020D01*
X01805961Y01484673D01*
X01813634Y01477000D01*
X01790614Y01477000D02*
X01775268Y01492346D01*
X01782941Y01492346D02*
X01759921Y01492346D01*
X01759921Y01477000D02*
X01759921Y01523039D01*
X01782941Y01523039D01*
X01790614Y01515366D01*
X01790614Y01500020D01*
X01782941Y01492346D01*
X01805961Y01500020D02*
X01821307Y01515366D01*
X01836653Y01523039D01*
X01828980Y01677000D02*
X01813634Y01677000D01*
X01805961Y01684673D01*
X01805961Y01700020D02*
X01821307Y01707693D01*
X01828980Y01707693D01*
X01836653Y01700020D01*
X01836653Y01684673D01*
X01828980Y01677000D01*
X01805961Y01700020D02*
X01805961Y01723039D01*
X01836653Y01723039D01*
X01790614Y01715366D02*
X01790614Y01700020D01*
X01782941Y01692346D01*
X01759921Y01692346D01*
X01759921Y01677000D02*
X01759921Y01723039D01*
X01782941Y01723039D01*
X01790614Y01715366D01*
X01775268Y01692346D02*
X01790614Y01677000D01*
X01790614Y01877000D02*
X01775268Y01892346D01*
X01782941Y01892346D02*
X01759921Y01892346D01*
X01759921Y01877000D02*
X01759921Y01923039D01*
X01782941Y01923039D01*
X01790614Y01915366D01*
X01790614Y01900020D01*
X01782941Y01892346D01*
X01805961Y01900020D02*
X01836653Y01900020D01*
X01828980Y01923039D02*
X01828980Y01877000D01*
X01805961Y01900020D02*
X01828980Y01923039D01*
X01828980Y02077000D02*
X01813634Y02077000D01*
X01805961Y02084673D01*
X01790614Y02077000D02*
X01775268Y02092346D01*
X01782941Y02092346D02*
X01759921Y02092346D01*
X01759921Y02077000D02*
X01759921Y02123039D01*
X01782941Y02123039D01*
X01790614Y02115366D01*
X01790614Y02100020D01*
X01782941Y02092346D01*
X01805961Y02115366D02*
X01813634Y02123039D01*
X01828980Y02123039D01*
X01836653Y02115366D01*
X01836653Y02107693D01*
X01828980Y02100020D01*
X01836653Y02092346D01*
X01836653Y02084673D01*
X01828980Y02077000D01*
X01828980Y02100020D02*
X01821307Y02100020D01*
X01821307Y02277000D02*
X01821307Y02323039D01*
X01805961Y02307693D01*
X01790614Y02315366D02*
X01790614Y02300020D01*
X01782941Y02292346D01*
X01759921Y02292346D01*
X01759921Y02277000D02*
X01759921Y02323039D01*
X01782941Y02323039D01*
X01790614Y02315366D01*
X01775268Y02292346D02*
X01790614Y02277000D01*
X01805961Y02277000D02*
X01836653Y02277000D01*
X00386653Y02384673D02*
X00378980Y02377000D01*
X00363634Y02377000D01*
X00355961Y02384673D01*
X00386653Y02415366D01*
X00386653Y02384673D01*
X00355961Y02384673D02*
X00355961Y02415366D01*
X00363634Y02423039D01*
X00378980Y02423039D01*
X00386653Y02415366D01*
X00340614Y02377000D02*
X00309921Y02377000D01*
X00294575Y02377000D02*
X00279228Y02392346D01*
X00286902Y02392346D02*
X00263882Y02392346D01*
X00258732Y02405366D02*
X00266405Y02413039D01*
X00281752Y02413039D01*
X00289425Y02405366D01*
X00289425Y02397693D01*
X00258732Y02367000D01*
X00289425Y02367000D01*
X00286902Y02392346D02*
X00294575Y02400020D01*
X00294575Y02415366D01*
X00286902Y02423039D01*
X00263882Y02423039D01*
X00263882Y02377000D01*
X00243386Y02374673D02*
X00235712Y02367000D01*
X00220366Y02367000D01*
X00212693Y02374673D01*
X00212693Y02405366D01*
X00220366Y02413039D01*
X00235712Y02413039D01*
X00243386Y02405366D01*
X00197346Y02413039D02*
X00182000Y02413039D01*
X00189673Y02413039D02*
X00189673Y02367000D01*
X00182000Y02367000D02*
X00197346Y02367000D01*
X00309921Y02407693D02*
X00325268Y02423039D01*
X00325268Y02377000D01*
X00271059Y01323039D02*
X00255712Y01323039D01*
X00248039Y01315366D01*
X00248039Y01307693D01*
X00255712Y01300020D01*
X00278732Y01300020D01*
X00278732Y01315366D02*
X00271059Y01323039D01*
X00278732Y01315366D02*
X00278732Y01284673D01*
X00271059Y01277000D01*
X00255712Y01277000D01*
X00248039Y01284673D01*
X00232693Y01277000D02*
X00217346Y01292346D01*
X00225020Y01292346D02*
X00202000Y01292346D01*
X00202000Y01277000D02*
X00202000Y01323039D01*
X00225020Y01323039D01*
X00232693Y01315366D01*
X00232693Y01300020D01*
X00225020Y01292346D01*
D15*
X01446063Y01200000D03*
X01446063Y01000000D03*
X01446063Y01400000D03*
X01446063Y01600000D03*
X01446063Y01800000D03*
X01446063Y02000000D03*
X01446063Y02200000D03*
X01446063Y02400000D03*
D16*
X00802961Y02203500D02*
X00760925Y02203500D01*
X00781943Y02203500D02*
X00781943Y02266554D01*
X00760925Y02245536D01*
X00738506Y02256045D02*
X00727997Y02266554D01*
X00706979Y02266554D01*
X00696470Y02256045D01*
X00696470Y02214009D01*
X00706979Y02203500D01*
X00727997Y02203500D01*
X00738506Y02214009D01*
X00674518Y02203500D02*
X00653500Y02203500D01*
X00664009Y02203500D02*
X00664009Y02266554D01*
X00653500Y02266554D02*
X00674518Y02266554D01*
D17*
X00150000Y00770000D02*
X00130000Y00770000D01*
X00130000Y00730000D02*
X00145000Y00730000D01*
D18*
X00151500Y00730000D03*
X00151500Y00770000D03*
D19*
X00885000Y02341000D02*
X00885000Y02356000D01*
X00820000Y02375000D02*
X00810000Y02365000D01*
X00793000Y02450000D02*
X00778000Y02450000D01*
X00820000Y02520000D02*
X00810000Y02530000D01*
X00885000Y02544000D02*
X00885000Y02559000D01*
D20*
X00350000Y00370000D02*
X00350000Y00360000D01*
X00250000Y00360000D01*
X00250000Y00370000D01*
X00250000Y00140000D02*
X00250000Y00130000D01*
X00250000Y00140000D02*
X00345000Y00140000D01*
X00345000Y00130000D01*
D21*
X01150000Y02500000D03*
X01250000Y02500000D03*
M02*
