G75*
%MOIN*%
%OFA0B0*%
%FSLAX26Y26*%
%IPPOS*%
%LPD*%
%AMOC8*
5,1,8,0,0,1.08239X$1,22.5*
%
%ADD10OC8,0.052000*%
%ADD11C,0.052000*%
%ADD12C,0.052000*%
%ADD13C,0.060000*%
%ADD14C,0.016000*%
%ADD15C,0.053150*%
D10*
X01000000Y00600000D03*
X01000000Y00750000D03*
X01000000Y00850000D03*
X01000000Y00950000D03*
X01000000Y01050000D03*
X01000000Y01150000D03*
X01000000Y01250000D03*
X01000000Y01400000D03*
X00950000Y01550000D03*
X00950000Y01650000D03*
X00950000Y01750000D03*
X00950000Y01850000D03*
X00900000Y02050000D03*
X01000000Y02050000D03*
X01000000Y02250000D03*
X00900000Y02250000D03*
X01350000Y01850000D03*
X01350000Y01750000D03*
X01350000Y01650000D03*
X01350000Y01550000D03*
X01400000Y01400000D03*
X01400000Y01250000D03*
X01400000Y01150000D03*
X01400000Y01050000D03*
X01400000Y00950000D03*
X01400000Y00850000D03*
X01400000Y00750000D03*
X01400000Y00600000D03*
X00540000Y02900000D03*
D11*
X00460000Y02900000D03*
X01250000Y02550000D03*
X01250000Y02450000D03*
D12*
X01400000Y02276000D02*
X01400000Y02224000D01*
X01500000Y02224000D02*
X01500000Y02276000D01*
X01600000Y02276000D02*
X01600000Y02224000D01*
X01600000Y01976000D02*
X01600000Y01924000D01*
X01500000Y01924000D02*
X01500000Y01976000D01*
X01400000Y01976000D02*
X01400000Y01924000D01*
X01574000Y01700000D02*
X01626000Y01700000D01*
X01626000Y01600000D02*
X01574000Y01600000D01*
X01574000Y01500000D02*
X01626000Y01500000D01*
X01924000Y01250000D02*
X01976000Y01250000D01*
X01976000Y01150000D02*
X01924000Y01150000D01*
X01924000Y01050000D02*
X01976000Y01050000D01*
X01976000Y00950000D02*
X01924000Y00950000D01*
X01924000Y00850000D02*
X01976000Y00850000D01*
X02124000Y00850000D02*
X02176000Y00850000D01*
X02176000Y00950000D02*
X02124000Y00950000D01*
X02124000Y01050000D02*
X02176000Y01050000D01*
X02176000Y01150000D02*
X02124000Y01150000D01*
X02124000Y01250000D02*
X02176000Y01250000D01*
X02424000Y01250000D02*
X02476000Y01250000D01*
X02476000Y01150000D02*
X02424000Y01150000D01*
X02424000Y01050000D02*
X02476000Y01050000D01*
X02476000Y00950000D02*
X02424000Y00950000D01*
X02424000Y00850000D02*
X02476000Y00850000D01*
X02624000Y00850000D02*
X02676000Y00850000D01*
X02676000Y00950000D02*
X02624000Y00950000D01*
X02624000Y01050000D02*
X02676000Y01050000D01*
X02676000Y01150000D02*
X02624000Y01150000D01*
X02624000Y01250000D02*
X02676000Y01250000D01*
X02974000Y01250000D02*
X03026000Y01250000D01*
X03026000Y01150000D02*
X02974000Y01150000D01*
X02974000Y01050000D02*
X03026000Y01050000D01*
X03026000Y00950000D02*
X02974000Y00950000D01*
X02974000Y00850000D02*
X03026000Y00850000D01*
X03174000Y00850000D02*
X03226000Y00850000D01*
X03226000Y00950000D02*
X03174000Y00950000D01*
X03174000Y01050000D02*
X03226000Y01050000D01*
X03226000Y01150000D02*
X03174000Y01150000D01*
X03174000Y01250000D02*
X03226000Y01250000D01*
X00826000Y01250000D02*
X00774000Y01250000D01*
X00774000Y01150000D02*
X00826000Y01150000D01*
X00826000Y01050000D02*
X00774000Y01050000D01*
X00774000Y00950000D02*
X00826000Y00950000D01*
X00826000Y00850000D02*
X00774000Y00850000D01*
X00774000Y00750000D02*
X00826000Y00750000D01*
X00226000Y00750000D02*
X00174000Y00750000D01*
X00174000Y00850000D02*
X00226000Y00850000D01*
X00226000Y00950000D02*
X00174000Y00950000D01*
X00174000Y01050000D02*
X00226000Y01050000D01*
X00226000Y01150000D02*
X00174000Y01150000D01*
X00174000Y01250000D02*
X00226000Y01250000D01*
X00226000Y01350000D02*
X00174000Y01350000D01*
X00174000Y01450000D02*
X00226000Y01450000D01*
X00226000Y01550000D02*
X00174000Y01550000D01*
X00174000Y01650000D02*
X00226000Y01650000D01*
X00226000Y01750000D02*
X00174000Y01750000D01*
X00174000Y01850000D02*
X00226000Y01850000D01*
X00226000Y01950000D02*
X00174000Y01950000D01*
X00174000Y02050000D02*
X00226000Y02050000D01*
X00226000Y02150000D02*
X00174000Y02150000D01*
X00174000Y02250000D02*
X00226000Y02250000D01*
X00226000Y02350000D02*
X00174000Y02350000D01*
X00174000Y02450000D02*
X00226000Y02450000D01*
X00226000Y02550000D02*
X00174000Y02550000D01*
X00174000Y02650000D02*
X00226000Y02650000D01*
X00774000Y02650000D02*
X00826000Y02650000D01*
X00826000Y02550000D02*
X00774000Y02550000D01*
X00774000Y02450000D02*
X00826000Y02450000D01*
X00826000Y02350000D02*
X00774000Y02350000D01*
X00774000Y02250000D02*
X00826000Y02250000D01*
X00826000Y02150000D02*
X00774000Y02150000D01*
X00774000Y02050000D02*
X00826000Y02050000D01*
X00826000Y01950000D02*
X00774000Y01950000D01*
X00774000Y01850000D02*
X00826000Y01850000D01*
X00826000Y01750000D02*
X00774000Y01750000D01*
X00774000Y01650000D02*
X00826000Y01650000D01*
X00826000Y01550000D02*
X00774000Y01550000D01*
X00774000Y01450000D02*
X00826000Y01450000D01*
X00826000Y01350000D02*
X00774000Y01350000D01*
D13*
X00589000Y00608000D02*
X00589000Y00548000D01*
X00411000Y00548000D02*
X00411000Y00608000D01*
X00411000Y00352000D02*
X00411000Y00292000D01*
X00589000Y00292000D02*
X00589000Y00352000D01*
D14*
X00050000Y00150000D02*
X03339008Y00150000D01*
X03339008Y03050000D01*
X00050000Y03050000D01*
X00050000Y00150000D01*
X00050000Y00159985D02*
X03339008Y00159985D01*
X03339008Y00175984D02*
X00050000Y00175984D01*
X00050000Y00191982D02*
X03339008Y00191982D01*
X03339008Y00207981D02*
X00050000Y00207981D01*
X00050000Y00223979D02*
X03339008Y00223979D01*
X03339008Y00239978D02*
X00050000Y00239978D01*
X00050000Y00255976D02*
X00381970Y00255976D01*
X00384943Y00253003D02*
X00401850Y00246000D01*
X00420150Y00246000D01*
X00437057Y00253003D01*
X00449997Y00265943D01*
X00457000Y00282850D01*
X00457000Y00361150D01*
X00449997Y00378057D01*
X00437057Y00390997D01*
X00420150Y00398000D01*
X00401850Y00398000D01*
X00384943Y00390997D01*
X00372003Y00378057D01*
X00365000Y00361150D01*
X00365000Y00282850D01*
X00372003Y00265943D01*
X00384943Y00253003D01*
X00369505Y00271975D02*
X00050000Y00271975D01*
X00050000Y00287973D02*
X00365000Y00287973D01*
X00365000Y00303972D02*
X00050000Y00303972D01*
X00050000Y00319970D02*
X00365000Y00319970D01*
X00365000Y00335969D02*
X00050000Y00335969D01*
X00050000Y00351968D02*
X00365000Y00351968D01*
X00367823Y00367966D02*
X00050000Y00367966D01*
X00050000Y00383965D02*
X00377911Y00383965D01*
X00444089Y00383965D02*
X00555911Y00383965D01*
X00550003Y00378057D02*
X00562943Y00390997D01*
X00579850Y00398000D01*
X00598150Y00398000D01*
X00615057Y00390997D01*
X00627997Y00378057D01*
X00635000Y00361150D01*
X00635000Y00282850D01*
X00627997Y00265943D01*
X00615057Y00253003D01*
X00598150Y00246000D01*
X00579850Y00246000D01*
X00562943Y00253003D01*
X00550003Y00265943D01*
X00543000Y00282850D01*
X00543000Y00361150D01*
X00550003Y00378057D01*
X00545823Y00367966D02*
X00454177Y00367966D01*
X00457000Y00351968D02*
X00543000Y00351968D01*
X00543000Y00335969D02*
X00457000Y00335969D01*
X00457000Y00319970D02*
X00543000Y00319970D01*
X00543000Y00303972D02*
X00457000Y00303972D01*
X00457000Y00287973D02*
X00543000Y00287973D01*
X00547505Y00271975D02*
X00452495Y00271975D01*
X00440030Y00255976D02*
X00559970Y00255976D01*
X00618030Y00255976D02*
X03339008Y00255976D01*
X03339008Y00271975D02*
X00630495Y00271975D01*
X00635000Y00287973D02*
X03339008Y00287973D01*
X03339008Y00303972D02*
X00635000Y00303972D01*
X00635000Y00319970D02*
X03339008Y00319970D01*
X03339008Y00335969D02*
X00635000Y00335969D01*
X00635000Y00351968D02*
X03339008Y00351968D01*
X03339008Y00367966D02*
X00632177Y00367966D01*
X00622089Y00383965D02*
X03339008Y00383965D01*
X03339008Y00399963D02*
X00050000Y00399963D01*
X00050000Y00415962D02*
X03339008Y00415962D01*
X03339008Y00431960D02*
X00050000Y00431960D01*
X00050000Y00447959D02*
X03339008Y00447959D01*
X03339008Y00463957D02*
X00050000Y00463957D01*
X00050000Y00479956D02*
X03339008Y00479956D01*
X03339008Y00495954D02*
X00050000Y00495954D01*
X00050000Y00511953D02*
X00381993Y00511953D01*
X00384943Y00509003D02*
X00401850Y00502000D01*
X00420150Y00502000D01*
X00437057Y00509003D01*
X00449997Y00521943D01*
X00457000Y00538850D01*
X00457000Y00617150D01*
X00449997Y00634057D01*
X00437057Y00646997D01*
X00420150Y00654000D01*
X00401850Y00654000D01*
X00386358Y00647583D01*
X00363595Y00670346D01*
X00354774Y00674000D01*
X00224000Y00674000D01*
X00224000Y00708000D01*
X00234354Y00708000D01*
X00249791Y00714394D01*
X00261606Y00726209D01*
X00268000Y00741646D01*
X00268000Y00758354D01*
X00261606Y00773791D01*
X00259669Y00775728D01*
X00320346Y00836405D01*
X00324000Y00845226D01*
X00324000Y01554774D01*
X00320346Y01563595D01*
X00313595Y01570346D01*
X00259669Y01624272D01*
X00261606Y01626209D01*
X00268000Y01641646D01*
X00268000Y01658354D01*
X00261606Y01673791D01*
X00259669Y01675728D01*
X00320346Y01736405D01*
X00324000Y01745226D01*
X00324000Y02740059D01*
X00444783Y02860843D01*
X00451646Y02858000D01*
X00468354Y02858000D01*
X00483791Y02864394D01*
X00495606Y02876209D01*
X00498180Y02882423D01*
X00522603Y02858000D01*
X00557397Y02858000D01*
X00557728Y02858331D01*
X00676000Y02740059D01*
X00676000Y01645226D01*
X00679654Y01636405D01*
X00740331Y01575728D01*
X00738394Y01573791D01*
X00732000Y01558354D01*
X00732000Y01541646D01*
X00738394Y01526209D01*
X00750209Y01514394D01*
X00765646Y01508000D01*
X00834354Y01508000D01*
X00849791Y01514394D01*
X00861397Y01526000D01*
X00914603Y01526000D01*
X00932603Y01508000D01*
X00967397Y01508000D01*
X00992000Y01532603D01*
X00992000Y01567397D01*
X00967397Y01592000D01*
X00932603Y01592000D01*
X00914603Y01574000D01*
X00861397Y01574000D01*
X00849791Y01585606D01*
X00834354Y01592000D01*
X00791941Y01592000D01*
X00775941Y01608000D01*
X00834354Y01608000D01*
X00849791Y01614394D01*
X00861397Y01626000D01*
X00914603Y01626000D01*
X00932603Y01608000D01*
X00967397Y01608000D01*
X00992000Y01632603D01*
X00992000Y01667397D01*
X00967397Y01692000D01*
X00932603Y01692000D01*
X00914603Y01674000D01*
X00861397Y01674000D01*
X00849791Y01685606D01*
X00834354Y01692000D01*
X00765646Y01692000D01*
X00750209Y01685606D01*
X00738394Y01673791D01*
X00732000Y01658354D01*
X00732000Y01651941D01*
X00724000Y01659941D01*
X00724000Y02754774D01*
X00720346Y02763595D01*
X00713595Y02770346D01*
X00582000Y02901941D01*
X00582000Y02917397D01*
X00557397Y02942000D01*
X00522603Y02942000D01*
X00498180Y02917577D01*
X00495606Y02923791D01*
X00483791Y02935606D01*
X00468354Y02942000D01*
X00451646Y02942000D01*
X00436209Y02935606D01*
X00424394Y02923791D01*
X00418000Y02908354D01*
X00418000Y02901941D01*
X00286405Y02770346D01*
X00279654Y02763595D01*
X00276000Y02754774D01*
X00276000Y01759941D01*
X00268000Y01751941D01*
X00268000Y01758354D01*
X00261606Y01773791D01*
X00249791Y01785606D01*
X00234354Y01792000D01*
X00165646Y01792000D01*
X00150209Y01785606D01*
X00138394Y01773791D01*
X00132000Y01758354D01*
X00132000Y01741646D01*
X00138394Y01726209D01*
X00150209Y01714394D01*
X00165646Y01708000D01*
X00224059Y01708000D01*
X00208059Y01692000D01*
X00165646Y01692000D01*
X00150209Y01685606D01*
X00138394Y01673791D01*
X00132000Y01658354D01*
X00132000Y01641646D01*
X00138394Y01626209D01*
X00150209Y01614394D01*
X00165646Y01608000D01*
X00208059Y01608000D01*
X00224059Y01592000D01*
X00165646Y01592000D01*
X00150209Y01585606D01*
X00138394Y01573791D01*
X00132000Y01558354D01*
X00132000Y01541646D01*
X00138394Y01526209D01*
X00150209Y01514394D01*
X00165646Y01508000D01*
X00234354Y01508000D01*
X00249791Y01514394D01*
X00261606Y01526209D01*
X00268000Y01541646D01*
X00268000Y01548059D01*
X00276000Y01540059D01*
X00276000Y00859941D01*
X00268000Y00851941D01*
X00268000Y00858354D01*
X00261606Y00873791D01*
X00249791Y00885606D01*
X00234354Y00892000D01*
X00165646Y00892000D01*
X00150209Y00885606D01*
X00138394Y00873791D01*
X00132000Y00858354D01*
X00132000Y00841646D01*
X00138394Y00826209D01*
X00150209Y00814394D01*
X00165646Y00808000D01*
X00224059Y00808000D01*
X00208059Y00792000D01*
X00165646Y00792000D01*
X00150209Y00785606D01*
X00138394Y00773791D01*
X00132000Y00758354D01*
X00132000Y00741646D01*
X00138394Y00726209D01*
X00150209Y00714394D01*
X00165646Y00708000D01*
X00176000Y00708000D01*
X00176000Y00645226D01*
X00179654Y00636405D01*
X00186405Y00629654D01*
X00195226Y00626000D01*
X00340059Y00626000D01*
X00365000Y00601059D01*
X00365000Y00538850D01*
X00372003Y00521943D01*
X00384943Y00509003D01*
X00369514Y00527951D02*
X00050000Y00527951D01*
X00050000Y00543950D02*
X00365000Y00543950D01*
X00365000Y00559948D02*
X00050000Y00559948D01*
X00050000Y00575947D02*
X00365000Y00575947D01*
X00365000Y00591945D02*
X00050000Y00591945D01*
X00050000Y00607944D02*
X00358115Y00607944D01*
X00342116Y00623942D02*
X00050000Y00623942D01*
X00050000Y00639941D02*
X00178189Y00639941D01*
X00176000Y00655939D02*
X00050000Y00655939D01*
X00050000Y00671938D02*
X00176000Y00671938D01*
X00176000Y00687937D02*
X00050000Y00687937D01*
X00050000Y00703935D02*
X00176000Y00703935D01*
X00144669Y00719934D02*
X00050000Y00719934D01*
X00050000Y00735932D02*
X00134367Y00735932D01*
X00132000Y00751931D02*
X00050000Y00751931D01*
X00050000Y00767929D02*
X00135966Y00767929D01*
X00148531Y00783928D02*
X00050000Y00783928D01*
X00050000Y00799926D02*
X00215985Y00799926D01*
X00200000Y00750000D02*
X00200000Y00650000D01*
X00350000Y00650000D01*
X00400000Y00600000D01*
X00411000Y00578000D01*
X00457000Y00575947D02*
X00543000Y00575947D01*
X00543000Y00591945D02*
X00457000Y00591945D01*
X00457000Y00607944D02*
X00543000Y00607944D01*
X00543000Y00617150D02*
X00550003Y00634057D01*
X00562943Y00646997D01*
X00579850Y00654000D01*
X00598150Y00654000D01*
X00615057Y00646997D01*
X00627997Y00634057D01*
X00635000Y00617150D01*
X00635000Y00538850D01*
X00627997Y00521943D01*
X00615057Y00509003D01*
X00598150Y00502000D01*
X00579850Y00502000D01*
X00562943Y00509003D01*
X00550003Y00521943D01*
X00543000Y00538850D01*
X00543000Y00617150D01*
X00545814Y00623942D02*
X00454186Y00623942D01*
X00444113Y00639941D02*
X00555887Y00639941D01*
X00622113Y00639941D02*
X00876118Y00639941D01*
X00892116Y00623942D02*
X00632186Y00623942D01*
X00635000Y00607944D02*
X00908115Y00607944D01*
X00924113Y00591945D02*
X00635000Y00591945D01*
X00635000Y00575947D02*
X00964656Y00575947D01*
X00964603Y00576000D02*
X00982603Y00558000D01*
X01017397Y00558000D01*
X01042000Y00582603D01*
X01042000Y00617397D01*
X01017397Y00642000D01*
X00982603Y00642000D01*
X00964603Y00624000D01*
X00959941Y00624000D01*
X00859669Y00724272D01*
X00861606Y00726209D01*
X00868000Y00741646D01*
X00868000Y00758354D01*
X00861606Y00773791D01*
X00849791Y00785606D01*
X00834354Y00792000D01*
X00765646Y00792000D01*
X00750209Y00785606D01*
X00738394Y00773791D01*
X00732000Y00758354D01*
X00732000Y00741646D01*
X00738394Y00726209D01*
X00750209Y00714394D01*
X00765646Y00708000D01*
X00808059Y00708000D01*
X00929654Y00586405D01*
X00936405Y00579654D01*
X00945226Y00576000D01*
X00964603Y00576000D01*
X00980655Y00559948D02*
X00635000Y00559948D01*
X00635000Y00543950D02*
X03339008Y00543950D01*
X03339008Y00559948D02*
X01419345Y00559948D01*
X01417397Y00558000D02*
X01442000Y00582603D01*
X01442000Y00617397D01*
X01417397Y00642000D01*
X01382603Y00642000D01*
X01358000Y00617397D01*
X01358000Y00582603D01*
X01382603Y00558000D01*
X01417397Y00558000D01*
X01435344Y00575947D02*
X03339008Y00575947D01*
X03339008Y00591945D02*
X01442000Y00591945D01*
X01442000Y00607944D02*
X03339008Y00607944D01*
X03339008Y00623942D02*
X01435454Y00623942D01*
X01419456Y00639941D02*
X03339008Y00639941D01*
X03339008Y00655939D02*
X00928001Y00655939D01*
X00944000Y00639941D02*
X00980544Y00639941D01*
X01019456Y00639941D02*
X01380544Y00639941D01*
X01364546Y00623942D02*
X01035454Y00623942D01*
X01042000Y00607944D02*
X01358000Y00607944D01*
X01358000Y00591945D02*
X01042000Y00591945D01*
X01035344Y00575947D02*
X01364656Y00575947D01*
X01380655Y00559948D02*
X01019345Y00559948D01*
X01000000Y00600000D02*
X00950000Y00600000D01*
X00800000Y00750000D01*
X00748531Y00783928D02*
X00267869Y00783928D01*
X00264034Y00767929D02*
X00735966Y00767929D01*
X00732000Y00751931D02*
X00268000Y00751931D01*
X00265633Y00735932D02*
X00734367Y00735932D01*
X00744669Y00719934D02*
X00255330Y00719934D01*
X00224000Y00703935D02*
X00812124Y00703935D01*
X00828122Y00687937D02*
X00224000Y00687937D01*
X00200000Y00750000D02*
X00300000Y00850000D01*
X00300000Y01550000D01*
X00200000Y01650000D01*
X00300000Y01750000D01*
X00300000Y02750000D01*
X00450000Y02900000D01*
X00460000Y02900000D01*
X00428333Y02927730D02*
X00050000Y02927730D01*
X00050000Y02943728D02*
X03339008Y02943728D01*
X03339008Y02927730D02*
X00571667Y02927730D01*
X00582000Y02911731D02*
X03339008Y02911731D01*
X03339008Y02895733D02*
X00588208Y02895733D01*
X00604207Y02879734D02*
X03339008Y02879734D01*
X03339008Y02863736D02*
X00620205Y02863736D01*
X00636204Y02847737D02*
X03339008Y02847737D01*
X03339008Y02831739D02*
X00652202Y02831739D01*
X00668201Y02815740D02*
X03339008Y02815740D01*
X03339008Y02799742D02*
X00684199Y02799742D01*
X00700198Y02783743D02*
X03339008Y02783743D01*
X03339008Y02767745D02*
X00716196Y02767745D01*
X00724000Y02751746D02*
X03339008Y02751746D01*
X03339008Y02735748D02*
X00724000Y02735748D01*
X00724000Y02719749D02*
X03339008Y02719749D01*
X03339008Y02703750D02*
X00724000Y02703750D01*
X00724000Y02687752D02*
X00751174Y02687752D01*
X00750939Y02687632D02*
X00745336Y02683561D01*
X00740439Y02678664D01*
X00736368Y02673061D01*
X00733224Y02666890D01*
X00731083Y02660303D01*
X00730000Y02653463D01*
X00730000Y02650000D01*
X00799999Y02650000D01*
X00799999Y02649999D01*
X00800000Y02649999D01*
X00800000Y02606000D01*
X00829463Y02606000D01*
X00836303Y02607083D01*
X00842890Y02609224D01*
X00849061Y02612368D01*
X00854664Y02616439D01*
X00859561Y02621336D01*
X00863632Y02626939D01*
X00866776Y02633110D01*
X00868916Y02639697D01*
X00870000Y02646537D01*
X00870000Y02649999D01*
X00800001Y02649999D01*
X00800001Y02650000D01*
X00870000Y02650000D01*
X00870000Y02653463D01*
X00868916Y02660303D01*
X00866776Y02666890D01*
X00863632Y02673061D01*
X00859561Y02678664D01*
X00854664Y02683561D01*
X00849061Y02687632D01*
X00842890Y02690776D01*
X00836303Y02692916D01*
X00829463Y02694000D01*
X00800000Y02694000D01*
X00800000Y02650001D01*
X00799999Y02650001D01*
X00799999Y02694000D01*
X00770537Y02694000D01*
X00763697Y02692916D01*
X00757110Y02690776D01*
X00750939Y02687632D01*
X00735702Y02671753D02*
X00724000Y02671753D01*
X00724000Y02655755D02*
X00730363Y02655755D01*
X00730000Y02649999D02*
X00730000Y02646537D01*
X00731083Y02639697D01*
X00733224Y02633110D01*
X00736368Y02626939D01*
X00740439Y02621336D01*
X00745336Y02616439D01*
X00750939Y02612368D01*
X00757110Y02609224D01*
X00763697Y02607083D01*
X00770537Y02606000D01*
X00799999Y02606000D01*
X00799999Y02649999D01*
X00730000Y02649999D01*
X00731074Y02639756D02*
X00724000Y02639756D01*
X00724000Y02623758D02*
X00738679Y02623758D01*
X00724000Y02607759D02*
X00761616Y02607759D01*
X00765646Y02592000D02*
X00750209Y02585606D01*
X00738394Y02573791D01*
X00732000Y02558354D01*
X00732000Y02541646D01*
X00738394Y02526209D01*
X00750209Y02514394D01*
X00765646Y02508000D01*
X00834354Y02508000D01*
X00849791Y02514394D01*
X00861606Y02526209D01*
X00868000Y02541646D01*
X00868000Y02558354D01*
X00861606Y02573791D01*
X00849791Y02585606D01*
X00834354Y02592000D01*
X00765646Y02592000D01*
X00765069Y02591761D02*
X00724000Y02591761D01*
X00724000Y02575762D02*
X00740365Y02575762D01*
X00732584Y02559764D02*
X00724000Y02559764D01*
X00724000Y02543765D02*
X00732000Y02543765D01*
X00737749Y02527767D02*
X00724000Y02527767D01*
X00724000Y02511768D02*
X00756548Y02511768D01*
X00765646Y02492000D02*
X00750209Y02485606D01*
X00738394Y02473791D01*
X00732000Y02458354D01*
X00732000Y02441646D01*
X00738394Y02426209D01*
X00750209Y02414394D01*
X00765646Y02408000D01*
X00834354Y02408000D01*
X00849791Y02414394D01*
X00861606Y02426209D01*
X00868000Y02441646D01*
X00868000Y02458354D01*
X00861606Y02473791D01*
X00849791Y02485606D01*
X00834354Y02492000D01*
X00765646Y02492000D01*
X00744374Y02479771D02*
X00724000Y02479771D01*
X00724000Y02463773D02*
X00734244Y02463773D01*
X00732000Y02447774D02*
X00724000Y02447774D01*
X00724000Y02431776D02*
X00736088Y02431776D01*
X00724000Y02415777D02*
X00748826Y02415777D01*
X00765646Y02392000D02*
X00750209Y02385606D01*
X00738394Y02373791D01*
X00732000Y02358354D01*
X00732000Y02341646D01*
X00738394Y02326209D01*
X00750209Y02314394D01*
X00765646Y02308000D01*
X00834354Y02308000D01*
X00849791Y02314394D01*
X00861606Y02326209D01*
X00868000Y02341646D01*
X00868000Y02358354D01*
X00861606Y02373791D01*
X00849791Y02385606D01*
X00834354Y02392000D01*
X00765646Y02392000D01*
X00748383Y02383780D02*
X00724000Y02383780D01*
X00724000Y02367781D02*
X00735905Y02367781D01*
X00732000Y02351783D02*
X00724000Y02351783D01*
X00724000Y02335784D02*
X00734428Y02335784D01*
X00744817Y02319786D02*
X00724000Y02319786D01*
X00724000Y02303787D02*
X00976000Y02303787D01*
X00976000Y02287789D02*
X00924436Y02287789D01*
X00918225Y02294000D02*
X00944000Y02268225D01*
X00944000Y02250000D01*
X00900001Y02250000D01*
X00900001Y02249999D01*
X00944000Y02249999D01*
X00944000Y02231775D01*
X00918225Y02206000D01*
X00900000Y02206000D01*
X00900000Y02249999D01*
X00899999Y02249999D01*
X00899999Y02206000D01*
X00881775Y02206000D01*
X00861586Y02226189D01*
X00849791Y02214394D01*
X00834354Y02208000D01*
X00765646Y02208000D01*
X00750209Y02214394D01*
X00738394Y02226209D01*
X00732000Y02241646D01*
X00732000Y02258354D01*
X00738394Y02273791D01*
X00750209Y02285606D01*
X00765646Y02292000D01*
X00834354Y02292000D01*
X00849791Y02285606D01*
X00861586Y02273811D01*
X00881775Y02294000D01*
X00899999Y02294000D01*
X00899999Y02250001D01*
X00900000Y02250001D01*
X00900000Y02294000D01*
X00918225Y02294000D01*
X00900000Y02287789D02*
X00899999Y02287789D01*
X00899999Y02271790D02*
X00900000Y02271790D01*
X00899999Y02255792D02*
X00900000Y02255792D01*
X00900000Y02250000D02*
X00900000Y02050000D01*
X00900001Y02050000D02*
X00944000Y02050000D01*
X00944000Y02068225D01*
X00918225Y02094000D01*
X00900000Y02094000D01*
X00900000Y02050001D01*
X00899999Y02050001D01*
X00899999Y02094000D01*
X00881775Y02094000D01*
X00861586Y02073811D01*
X00849791Y02085606D01*
X00834354Y02092000D01*
X00765646Y02092000D01*
X00750209Y02085606D01*
X00738394Y02073791D01*
X00732000Y02058354D01*
X00732000Y02041646D01*
X00738394Y02026209D01*
X00750209Y02014394D01*
X00765646Y02008000D01*
X00834354Y02008000D01*
X00849791Y02014394D01*
X00861586Y02026189D01*
X00881775Y02006000D01*
X00899999Y02006000D01*
X00899999Y02049999D01*
X00900000Y02049999D01*
X00900000Y02006000D01*
X00918225Y02006000D01*
X00944000Y02031775D01*
X00944000Y02049999D01*
X00900001Y02049999D01*
X00900001Y02050000D01*
X00899999Y02047811D02*
X00900000Y02047811D01*
X00899999Y02031813D02*
X00900000Y02031813D01*
X00899999Y02015814D02*
X00900000Y02015814D01*
X00928039Y02015814D02*
X00974789Y02015814D01*
X00982603Y02008000D02*
X01017397Y02008000D01*
X01042000Y02032603D01*
X01042000Y02067397D01*
X01024000Y02085397D01*
X01024000Y02090059D01*
X01113595Y02179654D01*
X01120346Y02186405D01*
X01124000Y02195226D01*
X01124000Y02313859D01*
X01124117Y02313907D01*
X01136093Y02325883D01*
X01142575Y02341531D01*
X01142575Y02358469D01*
X01136093Y02374117D01*
X01134210Y02376000D01*
X01204774Y02376000D01*
X01213595Y02379654D01*
X01241941Y02408000D01*
X01258354Y02408000D01*
X01273791Y02414394D01*
X01285606Y02426209D01*
X01292000Y02441646D01*
X01292000Y02458354D01*
X01285606Y02473791D01*
X01273791Y02485606D01*
X01258354Y02492000D01*
X01241646Y02492000D01*
X01226209Y02485606D01*
X01214394Y02473791D01*
X01208000Y02458354D01*
X01208000Y02441941D01*
X01190059Y02424000D01*
X01074000Y02424000D01*
X01074000Y02454774D01*
X01070346Y02463595D01*
X01063595Y02470346D01*
X01042526Y02491415D01*
X01042575Y02491531D01*
X01042575Y02508469D01*
X01036093Y02524117D01*
X01024117Y02536093D01*
X01008469Y02542575D01*
X00991531Y02542575D01*
X00975883Y02536093D01*
X00963907Y02524117D01*
X00957425Y02508469D01*
X00957425Y02491531D01*
X00963907Y02475883D01*
X00975883Y02463907D01*
X00991531Y02457425D01*
X01008469Y02457425D01*
X01008585Y02457474D01*
X01026000Y02440059D01*
X01026000Y02409941D01*
X00986405Y02370346D01*
X00979654Y02363595D01*
X00976000Y02354774D01*
X00976000Y02285397D01*
X00958000Y02267397D01*
X00958000Y02232603D01*
X00982603Y02208000D01*
X01017397Y02208000D01*
X01042000Y02232603D01*
X01042000Y02267397D01*
X01024000Y02285397D01*
X01024000Y02340059D01*
X01059941Y02376000D01*
X01065790Y02376000D01*
X01063907Y02374117D01*
X01057425Y02358469D01*
X01057425Y02341531D01*
X01063907Y02325883D01*
X01075883Y02313907D01*
X01076000Y02313859D01*
X01076000Y02209941D01*
X00979654Y02113595D01*
X00976000Y02104774D01*
X00976000Y02085397D01*
X00958000Y02067397D01*
X00958000Y02032603D01*
X00982603Y02008000D01*
X00958790Y02031813D02*
X00944000Y02031813D01*
X00944000Y02047811D02*
X00958000Y02047811D01*
X00958000Y02063810D02*
X00944000Y02063810D01*
X00932417Y02079808D02*
X00970411Y02079808D01*
X00976000Y02095807D02*
X00724000Y02095807D01*
X00724000Y02111805D02*
X00756459Y02111805D01*
X00750209Y02114394D02*
X00765646Y02108000D01*
X00834354Y02108000D01*
X00849791Y02114394D01*
X00861606Y02126209D01*
X00868000Y02141646D01*
X00868000Y02158354D01*
X00861606Y02173791D01*
X00849791Y02185606D01*
X00834354Y02192000D01*
X00765646Y02192000D01*
X00750209Y02185606D01*
X00738394Y02173791D01*
X00732000Y02158354D01*
X00732000Y02141646D01*
X00738394Y02126209D01*
X00750209Y02114394D01*
X00737733Y02127804D02*
X00724000Y02127804D01*
X00724000Y02143802D02*
X00732000Y02143802D01*
X00732599Y02159801D02*
X00724000Y02159801D01*
X00724000Y02175799D02*
X00740402Y02175799D01*
X00724000Y02191798D02*
X00765158Y02191798D01*
X00740808Y02223795D02*
X00724000Y02223795D01*
X00724000Y02239793D02*
X00732767Y02239793D01*
X00732000Y02255792D02*
X00724000Y02255792D01*
X00724000Y02271790D02*
X00737565Y02271790D01*
X00724000Y02287789D02*
X00755479Y02287789D01*
X00676000Y02287789D02*
X00324000Y02287789D01*
X00324000Y02303787D02*
X00676000Y02303787D01*
X00676000Y02319786D02*
X00324000Y02319786D01*
X00324000Y02335784D02*
X00676000Y02335784D01*
X00676000Y02351783D02*
X00324000Y02351783D01*
X00324000Y02367781D02*
X00676000Y02367781D01*
X00676000Y02383780D02*
X00324000Y02383780D01*
X00324000Y02399779D02*
X00676000Y02399779D01*
X00676000Y02415777D02*
X00324000Y02415777D01*
X00324000Y02431776D02*
X00676000Y02431776D01*
X00676000Y02447774D02*
X00324000Y02447774D01*
X00324000Y02463773D02*
X00676000Y02463773D01*
X00676000Y02479771D02*
X00324000Y02479771D01*
X00324000Y02495770D02*
X00676000Y02495770D01*
X00676000Y02511768D02*
X00324000Y02511768D01*
X00324000Y02527767D02*
X00676000Y02527767D01*
X00676000Y02543765D02*
X00324000Y02543765D01*
X00324000Y02559764D02*
X00676000Y02559764D01*
X00676000Y02575762D02*
X00324000Y02575762D01*
X00324000Y02591761D02*
X00676000Y02591761D01*
X00676000Y02607759D02*
X00324000Y02607759D01*
X00324000Y02623758D02*
X00676000Y02623758D01*
X00676000Y02639756D02*
X00324000Y02639756D01*
X00324000Y02655755D02*
X00676000Y02655755D01*
X00676000Y02671753D02*
X00324000Y02671753D01*
X00324000Y02687752D02*
X00676000Y02687752D01*
X00676000Y02703750D02*
X00324000Y02703750D01*
X00324000Y02719749D02*
X00676000Y02719749D01*
X00676000Y02735748D02*
X00324000Y02735748D01*
X00335687Y02751746D02*
X00664313Y02751746D01*
X00648314Y02767745D02*
X00351686Y02767745D01*
X00367684Y02783743D02*
X00632316Y02783743D01*
X00616317Y02799742D02*
X00383683Y02799742D01*
X00399681Y02815740D02*
X00600319Y02815740D01*
X00584320Y02831739D02*
X00415680Y02831739D01*
X00431678Y02847737D02*
X00568322Y02847737D01*
X00516867Y02863736D02*
X00482202Y02863736D01*
X00497066Y02879734D02*
X00500869Y02879734D01*
X00540000Y02900000D02*
X00550000Y02900000D01*
X00700000Y02750000D01*
X00700000Y01650000D01*
X00800000Y01550000D01*
X00950000Y01550000D01*
X00979257Y01519860D02*
X01317915Y01519860D01*
X01306000Y01531775D02*
X01331775Y01506000D01*
X01349999Y01506000D01*
X01349999Y01549999D01*
X01350000Y01549999D01*
X01350000Y01506000D01*
X01368225Y01506000D01*
X01394000Y01531775D01*
X01394000Y01549999D01*
X01350001Y01549999D01*
X01350001Y01550000D01*
X01394000Y01550000D01*
X01394000Y01568225D01*
X01368225Y01594000D01*
X01350000Y01594000D01*
X01350000Y01550001D01*
X01349999Y01550001D01*
X01349999Y01594000D01*
X01331775Y01594000D01*
X01306000Y01568225D01*
X01306000Y01550000D01*
X01349999Y01550000D01*
X01349999Y01549999D01*
X01306000Y01549999D01*
X01306000Y01531775D01*
X01306000Y01535858D02*
X00992000Y01535858D01*
X00992000Y01551857D02*
X01306000Y01551857D01*
X01306000Y01567855D02*
X00991541Y01567855D01*
X00975543Y01583854D02*
X01321629Y01583854D01*
X01332603Y01608000D02*
X01308000Y01632603D01*
X01308000Y01667397D01*
X01332603Y01692000D01*
X01367397Y01692000D01*
X01392000Y01667397D01*
X01392000Y01632603D01*
X01367397Y01608000D01*
X01332603Y01608000D01*
X01324752Y01615851D02*
X00975248Y01615851D01*
X00991246Y01631849D02*
X01308754Y01631849D01*
X01308000Y01647848D02*
X00992000Y01647848D01*
X00992000Y01663846D02*
X01308000Y01663846D01*
X01320448Y01679845D02*
X00979552Y01679845D01*
X00967397Y01708000D02*
X00932603Y01708000D01*
X00914603Y01726000D01*
X00861397Y01726000D01*
X00849791Y01714394D01*
X00834354Y01708000D01*
X00765646Y01708000D01*
X00750209Y01714394D01*
X00738394Y01726209D01*
X00732000Y01741646D01*
X00732000Y01758354D01*
X00738394Y01773791D01*
X00750209Y01785606D01*
X00765646Y01792000D01*
X00834354Y01792000D01*
X00849791Y01785606D01*
X00861397Y01774000D01*
X00914603Y01774000D01*
X00932603Y01792000D01*
X00967397Y01792000D01*
X00992000Y01767397D01*
X00992000Y01732603D01*
X00967397Y01708000D01*
X00971239Y01711842D02*
X01328761Y01711842D01*
X01332603Y01708000D02*
X01367397Y01708000D01*
X01392000Y01732603D01*
X01392000Y01767397D01*
X01367397Y01792000D01*
X01332603Y01792000D01*
X01308000Y01767397D01*
X01308000Y01732603D01*
X01332603Y01708000D01*
X01312762Y01727841D02*
X00987237Y01727841D01*
X00992000Y01743839D02*
X01308000Y01743839D01*
X01308000Y01759838D02*
X00992000Y01759838D01*
X00983561Y01775836D02*
X01316439Y01775836D01*
X01332438Y01791835D02*
X00967562Y01791835D01*
X00967397Y01808000D02*
X00932603Y01808000D01*
X00914603Y01826000D01*
X00861397Y01826000D01*
X00849791Y01814394D01*
X00834354Y01808000D01*
X00765646Y01808000D01*
X00750209Y01814394D01*
X00738394Y01826209D01*
X00732000Y01841646D01*
X00732000Y01858354D01*
X00738394Y01873791D01*
X00750209Y01885606D01*
X00765646Y01892000D01*
X00834354Y01892000D01*
X00849791Y01885606D01*
X00861397Y01874000D01*
X00914603Y01874000D01*
X00932603Y01892000D01*
X00967397Y01892000D01*
X00992000Y01867397D01*
X00992000Y01832603D01*
X00967397Y01808000D01*
X00983229Y01823832D02*
X01316771Y01823832D01*
X01308000Y01832603D02*
X01332603Y01808000D01*
X01367397Y01808000D01*
X01392000Y01832603D01*
X01392000Y01867397D01*
X01367397Y01892000D01*
X01332603Y01892000D01*
X01308000Y01867397D01*
X01308000Y01832603D01*
X01308000Y01839830D02*
X00992000Y01839830D01*
X00992000Y01855829D02*
X01308000Y01855829D01*
X01312430Y01871827D02*
X00987570Y01871827D01*
X00971571Y01887826D02*
X01328429Y01887826D01*
X01362896Y01903824D02*
X00724000Y01903824D01*
X00724000Y01887826D02*
X00755569Y01887826D01*
X00765646Y01908000D02*
X00750209Y01914394D01*
X00738394Y01926209D01*
X00732000Y01941646D01*
X00732000Y01958354D01*
X00738394Y01973791D01*
X00750209Y01985606D01*
X00765646Y01992000D01*
X00834354Y01992000D01*
X00849791Y01985606D01*
X00861606Y01973791D01*
X00868000Y01958354D01*
X00868000Y01941646D01*
X00861606Y01926209D01*
X00849791Y01914394D01*
X00834354Y01908000D01*
X00765646Y01908000D01*
X00744780Y01919823D02*
X00724000Y01919823D01*
X00724000Y01935821D02*
X00734412Y01935821D01*
X00732000Y01951820D02*
X00724000Y01951820D01*
X00724000Y01967818D02*
X00735920Y01967818D01*
X00724000Y01983817D02*
X00748420Y01983817D01*
X00724000Y01999815D02*
X01364419Y01999815D01*
X01364394Y01999791D02*
X01358000Y01984354D01*
X01358000Y01915646D01*
X01364394Y01900209D01*
X01376209Y01888394D01*
X01391646Y01882000D01*
X01408354Y01882000D01*
X01423791Y01888394D01*
X01435606Y01900209D01*
X01442000Y01915646D01*
X01442000Y01984354D01*
X01435606Y01999791D01*
X01423791Y02011606D01*
X01408354Y02018000D01*
X01391646Y02018000D01*
X01376209Y02011606D01*
X01364394Y01999791D01*
X01358000Y01983817D02*
X00851580Y01983817D01*
X00864080Y01967818D02*
X01358000Y01967818D01*
X01358000Y01951820D02*
X00868000Y01951820D01*
X00865587Y01935821D02*
X01358000Y01935821D01*
X01358000Y01919823D02*
X00855220Y01919823D01*
X00844431Y01887826D02*
X00928429Y01887826D01*
X00950000Y01850000D02*
X00800000Y01850000D01*
X00740771Y01823832D02*
X00724000Y01823832D01*
X00724000Y01839830D02*
X00732752Y01839830D01*
X00732000Y01855829D02*
X00724000Y01855829D01*
X00724000Y01871827D02*
X00737581Y01871827D01*
X00676000Y01871827D02*
X00324000Y01871827D01*
X00324000Y01855829D02*
X00676000Y01855829D01*
X00676000Y01839830D02*
X00324000Y01839830D01*
X00324000Y01823832D02*
X00676000Y01823832D01*
X00676000Y01807833D02*
X00324000Y01807833D01*
X00324000Y01791835D02*
X00676000Y01791835D01*
X00676000Y01775836D02*
X00324000Y01775836D01*
X00324000Y01759838D02*
X00676000Y01759838D01*
X00676000Y01743839D02*
X00323425Y01743839D01*
X00311781Y01727841D02*
X00676000Y01727841D01*
X00676000Y01711842D02*
X00295783Y01711842D01*
X00279784Y01695844D02*
X00676000Y01695844D01*
X00676000Y01679845D02*
X00263786Y01679845D01*
X00265725Y01663846D02*
X00676000Y01663846D01*
X00676000Y01647848D02*
X00268000Y01647848D01*
X00263942Y01631849D02*
X00684209Y01631849D01*
X00700208Y01615851D02*
X00268090Y01615851D01*
X00284089Y01599852D02*
X00716206Y01599852D01*
X00732205Y01583854D02*
X00300087Y01583854D01*
X00316086Y01567855D02*
X00735936Y01567855D01*
X00732000Y01551857D02*
X00324000Y01551857D01*
X00324000Y01535858D02*
X00734397Y01535858D01*
X00744743Y01519860D02*
X00324000Y01519860D01*
X00324000Y01503861D02*
X01530063Y01503861D01*
X01530000Y01503463D02*
X01530000Y01500000D01*
X01599999Y01500000D01*
X01599999Y01499999D01*
X01600000Y01499999D01*
X01600000Y01456000D01*
X01629463Y01456000D01*
X01636303Y01457083D01*
X01642890Y01459224D01*
X01649061Y01462368D01*
X01654664Y01466439D01*
X01659561Y01471336D01*
X01663632Y01476939D01*
X01666776Y01483110D01*
X01668916Y01489697D01*
X01670000Y01496537D01*
X01670000Y01499999D01*
X01600001Y01499999D01*
X01600001Y01500000D01*
X01670000Y01500000D01*
X01670000Y01503463D01*
X01668916Y01510303D01*
X01666776Y01516890D01*
X01663632Y01523061D01*
X01659561Y01528664D01*
X01654664Y01533561D01*
X01649061Y01537632D01*
X01642890Y01540776D01*
X01636303Y01542916D01*
X01629463Y01544000D01*
X01600000Y01544000D01*
X01600000Y01500001D01*
X01599999Y01500001D01*
X01599999Y01544000D01*
X01570537Y01544000D01*
X01563697Y01542916D01*
X01557110Y01540776D01*
X01550939Y01537632D01*
X01545336Y01533561D01*
X01540439Y01528664D01*
X01536368Y01523061D01*
X01533224Y01516890D01*
X01531083Y01510303D01*
X01530000Y01503463D01*
X01530000Y01499999D02*
X01530000Y01496537D01*
X01531083Y01489697D01*
X01533224Y01483110D01*
X01536368Y01476939D01*
X01540439Y01471336D01*
X01545336Y01466439D01*
X01550939Y01462368D01*
X01557110Y01459224D01*
X01563697Y01457083D01*
X01570537Y01456000D01*
X01599999Y01456000D01*
X01599999Y01499999D01*
X01530000Y01499999D01*
X01531679Y01487863D02*
X00844342Y01487863D01*
X00849791Y01485606D02*
X00834354Y01492000D01*
X00765646Y01492000D01*
X00750209Y01485606D01*
X00738394Y01473791D01*
X00732000Y01458354D01*
X00732000Y01441646D01*
X00738394Y01426209D01*
X00750209Y01414394D01*
X00765646Y01408000D01*
X00834354Y01408000D01*
X00849791Y01414394D01*
X00861397Y01426000D01*
X00940059Y01426000D01*
X00958000Y01408059D01*
X00958000Y01382603D01*
X00982603Y01358000D01*
X01017397Y01358000D01*
X01042000Y01382603D01*
X01042000Y01417397D01*
X01017397Y01442000D01*
X00991941Y01442000D01*
X00963595Y01470346D01*
X00954774Y01474000D01*
X00861397Y01474000D01*
X00849791Y01485606D01*
X00855257Y01519860D02*
X00920743Y01519860D01*
X00959930Y01471864D02*
X01540055Y01471864D01*
X01534737Y01519860D02*
X01382085Y01519860D01*
X01394000Y01535858D02*
X01548498Y01535858D01*
X01565646Y01558000D02*
X01634354Y01558000D01*
X01649791Y01564394D01*
X01661606Y01576209D01*
X01668000Y01591646D01*
X01668000Y01608354D01*
X01661606Y01623791D01*
X01649791Y01635606D01*
X01634354Y01642000D01*
X01565646Y01642000D01*
X01550209Y01635606D01*
X01538394Y01623791D01*
X01532000Y01608354D01*
X01532000Y01591646D01*
X01538394Y01576209D01*
X01550209Y01564394D01*
X01565646Y01558000D01*
X01546748Y01567855D02*
X01394000Y01567855D01*
X01394000Y01551857D02*
X03339008Y01551857D01*
X03339008Y01567855D02*
X01653252Y01567855D01*
X01664772Y01583854D02*
X03339008Y01583854D01*
X03339008Y01599852D02*
X01668000Y01599852D01*
X01664895Y01615851D02*
X03339008Y01615851D01*
X03339008Y01631849D02*
X01653547Y01631849D01*
X01648469Y01663846D02*
X03339008Y01663846D01*
X03339008Y01647848D02*
X01392000Y01647848D01*
X01392000Y01663846D02*
X01551531Y01663846D01*
X01550209Y01664394D02*
X01565646Y01658000D01*
X01634354Y01658000D01*
X01649791Y01664394D01*
X01661606Y01676209D01*
X01668000Y01691646D01*
X01668000Y01708354D01*
X01661606Y01723791D01*
X01649791Y01735606D01*
X01634354Y01742000D01*
X01565646Y01742000D01*
X01550209Y01735606D01*
X01538394Y01723791D01*
X01532000Y01708354D01*
X01532000Y01691646D01*
X01538394Y01676209D01*
X01550209Y01664394D01*
X01536888Y01679845D02*
X01379552Y01679845D01*
X01371239Y01711842D02*
X01533445Y01711842D01*
X01532000Y01695844D02*
X00724000Y01695844D01*
X00724000Y01711842D02*
X00756370Y01711842D01*
X00737718Y01727841D02*
X00724000Y01727841D01*
X00724000Y01743839D02*
X00732000Y01743839D01*
X00732614Y01759838D02*
X00724000Y01759838D01*
X00724000Y01775836D02*
X00740439Y01775836D01*
X00724000Y01791835D02*
X00765247Y01791835D01*
X00800000Y01750000D02*
X00950000Y01750000D01*
X00916439Y01775836D02*
X00859561Y01775836D01*
X00834753Y01791835D02*
X00932438Y01791835D01*
X00916771Y01823832D02*
X00859229Y01823832D01*
X00843630Y01711842D02*
X00928761Y01711842D01*
X00920448Y01679845D02*
X00855552Y01679845D01*
X00800000Y01650000D02*
X00950000Y01650000D01*
X00924752Y01615851D02*
X00851248Y01615851D01*
X00851543Y01583854D02*
X00924457Y01583854D01*
X00950000Y01450000D02*
X00800000Y01450000D01*
X00755658Y01487863D02*
X00324000Y01487863D01*
X00324000Y01471864D02*
X00737596Y01471864D01*
X00732000Y01455866D02*
X00324000Y01455866D01*
X00324000Y01439867D02*
X00732737Y01439867D01*
X00740734Y01423869D02*
X00324000Y01423869D01*
X00324000Y01407870D02*
X00958000Y01407870D01*
X00958000Y01391872D02*
X00834664Y01391872D01*
X00834354Y01392000D02*
X00765646Y01392000D01*
X00750209Y01385606D01*
X00738394Y01373791D01*
X00732000Y01358354D01*
X00732000Y01341646D01*
X00738394Y01326209D01*
X00750209Y01314394D01*
X00765646Y01308000D01*
X00834354Y01308000D01*
X00849791Y01314394D01*
X00861397Y01326000D01*
X00890059Y01326000D01*
X00958000Y01258059D01*
X00958000Y01232603D01*
X00982603Y01208000D01*
X01017397Y01208000D01*
X01042000Y01232603D01*
X01042000Y01267397D01*
X01017397Y01292000D01*
X00991941Y01292000D01*
X00913595Y01370346D01*
X00904774Y01374000D01*
X00861397Y01374000D01*
X00849791Y01385606D01*
X00834354Y01392000D01*
X00859524Y01375873D02*
X00964730Y01375873D01*
X00980728Y01359875D02*
X00924066Y01359875D01*
X00940065Y01343876D02*
X01422183Y01343876D01*
X01408059Y01358000D02*
X01742059Y01024000D01*
X01684210Y01024000D01*
X01686093Y01025883D01*
X01692575Y01041531D01*
X01692575Y01058469D01*
X01686093Y01074117D01*
X01674117Y01086093D01*
X01658469Y01092575D01*
X01641531Y01092575D01*
X01625883Y01086093D01*
X01613907Y01074117D01*
X01613859Y01074000D01*
X01435397Y01074000D01*
X01417397Y01092000D01*
X01382603Y01092000D01*
X01358000Y01067397D01*
X01358000Y01032603D01*
X01382603Y01008000D01*
X01417397Y01008000D01*
X01435397Y01026000D01*
X01613859Y01026000D01*
X01613907Y01025883D01*
X01615790Y01024000D01*
X01445226Y01024000D01*
X01436405Y01020346D01*
X01429654Y01013595D01*
X01408059Y00992000D01*
X01382603Y00992000D01*
X01358000Y00967397D01*
X01358000Y00932603D01*
X01382603Y00908000D01*
X01417397Y00908000D01*
X01442000Y00932603D01*
X01442000Y00958059D01*
X01459941Y00976000D01*
X01665790Y00976000D01*
X01663907Y00974117D01*
X01663859Y00974000D01*
X01495226Y00974000D01*
X01486405Y00970346D01*
X01479654Y00963595D01*
X01408059Y00892000D01*
X01382603Y00892000D01*
X01358000Y00867397D01*
X01358000Y00842575D01*
X01341531Y00842575D01*
X01325883Y00836093D01*
X01313907Y00824117D01*
X01307425Y00808469D01*
X01307425Y00791531D01*
X01313907Y00775883D01*
X01325883Y00763907D01*
X01326000Y00763859D01*
X01326000Y00695226D01*
X01329654Y00686405D01*
X01336405Y00679654D01*
X01345226Y00676000D01*
X01854774Y00676000D01*
X01863595Y00679654D01*
X01909941Y00726000D01*
X02590059Y00726000D01*
X02629654Y00686405D01*
X02636405Y00679654D01*
X02645226Y00676000D01*
X02754774Y00676000D01*
X02763595Y00679654D01*
X02932000Y00848059D01*
X02932000Y00841646D01*
X02938394Y00826209D01*
X02950209Y00814394D01*
X02965646Y00808000D01*
X03034354Y00808000D01*
X03049791Y00814394D01*
X03061606Y00826209D01*
X03068000Y00841646D01*
X03068000Y00858354D01*
X03061606Y00873791D01*
X03058043Y00877354D01*
X03063595Y00879654D01*
X03132000Y00948059D01*
X03132000Y00941646D01*
X03138394Y00926209D01*
X03150209Y00914394D01*
X03165646Y00908000D01*
X03234354Y00908000D01*
X03249791Y00914394D01*
X03261606Y00926209D01*
X03268000Y00941646D01*
X03268000Y00958354D01*
X03261606Y00973791D01*
X03249791Y00985606D01*
X03234354Y00992000D01*
X03175941Y00992000D01*
X03191941Y01008000D01*
X03234354Y01008000D01*
X03249791Y01014394D01*
X03261606Y01026209D01*
X03268000Y01041646D01*
X03268000Y01058354D01*
X03261606Y01073791D01*
X03249791Y01085606D01*
X03234354Y01092000D01*
X03165646Y01092000D01*
X03150209Y01085606D01*
X03138394Y01073791D01*
X03132000Y01058354D01*
X03132000Y01041646D01*
X03138394Y01026209D01*
X03140331Y01024272D01*
X03068000Y00951941D01*
X03068000Y00958354D01*
X03061606Y00973791D01*
X03049791Y00985606D01*
X03034354Y00992000D01*
X02965646Y00992000D01*
X02950209Y00985606D01*
X02938394Y00973791D01*
X02932000Y00958354D01*
X02932000Y00941646D01*
X02938394Y00926209D01*
X02941957Y00922646D01*
X02936405Y00920346D01*
X02929654Y00913595D01*
X02740059Y00724000D01*
X02734210Y00724000D01*
X02736093Y00725883D01*
X02742575Y00741531D01*
X02742575Y00758469D01*
X02742526Y00758585D01*
X02841415Y00857474D01*
X02841531Y00857425D01*
X02858469Y00857425D01*
X02874117Y00863907D01*
X02886093Y00875883D01*
X02892575Y00891531D01*
X02892575Y00908469D01*
X02886093Y00924117D01*
X02874117Y00936093D01*
X02858469Y00942575D01*
X02841531Y00942575D01*
X02825883Y00936093D01*
X02813907Y00924117D01*
X02807425Y00908469D01*
X02807425Y00891531D01*
X02807474Y00891415D01*
X02708585Y00792526D01*
X02708469Y00792575D01*
X02691531Y00792575D01*
X02675883Y00786093D01*
X02663907Y00774117D01*
X02657425Y00758469D01*
X02657425Y00741531D01*
X02663907Y00725883D01*
X02665790Y00724000D01*
X02659941Y00724000D01*
X02613595Y00770346D01*
X02604774Y00774000D01*
X01895226Y00774000D01*
X01886405Y00770346D01*
X01879654Y00763595D01*
X01840059Y00724000D01*
X01433397Y00724000D01*
X01442000Y00732603D01*
X01442000Y00758059D01*
X01541415Y00857474D01*
X01541531Y00857425D01*
X01558469Y00857425D01*
X01574117Y00863907D01*
X01586093Y00875883D01*
X01592575Y00891531D01*
X01592575Y00908469D01*
X01586093Y00924117D01*
X01584210Y00926000D01*
X01615790Y00926000D01*
X01613907Y00924117D01*
X01607425Y00908469D01*
X01607425Y00891531D01*
X01613907Y00875883D01*
X01625883Y00863907D01*
X01641531Y00857425D01*
X01658469Y00857425D01*
X01674117Y00863907D01*
X01686093Y00875883D01*
X01686141Y00876000D01*
X01790059Y00876000D01*
X01879654Y00786405D01*
X01886405Y00779654D01*
X01895226Y00776000D01*
X02254774Y00776000D01*
X02263595Y00779654D01*
X02270346Y00786405D01*
X02399272Y00915331D01*
X02400209Y00914394D01*
X02415646Y00908000D01*
X02484354Y00908000D01*
X02499791Y00914394D01*
X02511606Y00926209D01*
X02518000Y00941646D01*
X02518000Y00958354D01*
X02511606Y00973791D01*
X02499791Y00985606D01*
X02484354Y00992000D01*
X02415646Y00992000D01*
X02400209Y00985606D01*
X02388394Y00973791D01*
X02387084Y00970627D01*
X02386405Y00970346D01*
X02379654Y00963595D01*
X02240059Y00824000D01*
X02209397Y00824000D01*
X02211606Y00826209D01*
X02218000Y00841646D01*
X02218000Y00858354D01*
X02211606Y00873791D01*
X02199791Y00885606D01*
X02184354Y00892000D01*
X02115646Y00892000D01*
X02100209Y00885606D01*
X02088394Y00873791D01*
X02082000Y00858354D01*
X02082000Y00841646D01*
X02088394Y00826209D01*
X02090603Y00824000D01*
X02009397Y00824000D01*
X02011606Y00826209D01*
X02018000Y00841646D01*
X02018000Y00858354D01*
X02011606Y00873791D01*
X02009397Y00876000D01*
X02054774Y00876000D01*
X02063595Y00879654D01*
X02099272Y00915331D01*
X02100209Y00914394D01*
X02115646Y00908000D01*
X02184354Y00908000D01*
X02199791Y00914394D01*
X02211606Y00926209D01*
X02218000Y00941646D01*
X02218000Y00948059D01*
X02226000Y00940059D01*
X02226000Y00936141D01*
X02225883Y00936093D01*
X02213907Y00924117D01*
X02207425Y00908469D01*
X02207425Y00891531D01*
X02213907Y00875883D01*
X02225883Y00863907D01*
X02241531Y00857425D01*
X02258469Y00857425D01*
X02274117Y00863907D01*
X02286093Y00875883D01*
X02292575Y00891531D01*
X02292575Y00908469D01*
X02286093Y00924117D01*
X02274117Y00936093D01*
X02274000Y00936141D01*
X02274000Y00945226D01*
X02274000Y00954774D01*
X02270346Y00963595D01*
X02220346Y01013595D01*
X02213595Y01020346D01*
X02208043Y01022646D01*
X02211606Y01026209D01*
X02218000Y01041646D01*
X02218000Y01058354D01*
X02211606Y01073791D01*
X02209669Y01075728D01*
X02209941Y01076000D01*
X02390603Y01076000D01*
X02388394Y01073791D01*
X02382000Y01058354D01*
X02382000Y01041646D01*
X02388394Y01026209D01*
X02400209Y01014394D01*
X02415646Y01008000D01*
X02484354Y01008000D01*
X02499791Y01014394D01*
X02511606Y01026209D01*
X02518000Y01041646D01*
X02518000Y01058354D01*
X02511606Y01073791D01*
X02509397Y01076000D01*
X02513859Y01076000D01*
X02513907Y01075883D01*
X02525883Y01063907D01*
X02541531Y01057425D01*
X02558469Y01057425D01*
X02574117Y01063907D01*
X02586093Y01075883D01*
X02592575Y01091531D01*
X02592575Y01108469D01*
X02586093Y01124117D01*
X02574117Y01136093D01*
X02558469Y01142575D01*
X02541531Y01142575D01*
X02525883Y01136093D01*
X02513907Y01124117D01*
X02513859Y01124000D01*
X02509397Y01124000D01*
X02511606Y01126209D01*
X02512916Y01129373D01*
X02513595Y01129654D01*
X02520346Y01136405D01*
X02559941Y01176000D01*
X02590603Y01176000D01*
X02588394Y01173791D01*
X02582000Y01158354D01*
X02582000Y01141646D01*
X02588394Y01126209D01*
X02600209Y01114394D01*
X02615646Y01108000D01*
X02684354Y01108000D01*
X02699791Y01114394D01*
X02711606Y01126209D01*
X02718000Y01141646D01*
X02718000Y01148059D01*
X02757474Y01108585D01*
X02757425Y01108469D01*
X02757425Y01092575D01*
X02741531Y01092575D01*
X02725883Y01086093D01*
X02713907Y01074117D01*
X02712689Y01071176D01*
X02711606Y01073791D01*
X02699791Y01085606D01*
X02684354Y01092000D01*
X02615646Y01092000D01*
X02600209Y01085606D01*
X02588394Y01073791D01*
X02582000Y01058354D01*
X02582000Y01041646D01*
X02588394Y01026209D01*
X02600209Y01014394D01*
X02615646Y01008000D01*
X02684354Y01008000D01*
X02699791Y01014394D01*
X02711606Y01026209D01*
X02712689Y01028824D01*
X02713907Y01025883D01*
X02725883Y01013907D01*
X02726000Y01013859D01*
X02726000Y00959941D01*
X02718000Y00951941D01*
X02718000Y00958354D01*
X02711606Y00973791D01*
X02699791Y00985606D01*
X02684354Y00992000D01*
X02615646Y00992000D01*
X02600209Y00985606D01*
X02588394Y00973791D01*
X02582000Y00958354D01*
X02582000Y00941646D01*
X02588394Y00926209D01*
X02600209Y00914394D01*
X02615646Y00908000D01*
X02674059Y00908000D01*
X02658059Y00892000D01*
X02615646Y00892000D01*
X02600209Y00885606D01*
X02588394Y00873791D01*
X02582000Y00858354D01*
X02582000Y00841646D01*
X02588394Y00826209D01*
X02600209Y00814394D01*
X02615646Y00808000D01*
X02684354Y00808000D01*
X02699791Y00814394D01*
X02711606Y00826209D01*
X02718000Y00841646D01*
X02718000Y00858354D01*
X02711606Y00873791D01*
X02709669Y00875728D01*
X02770346Y00936405D01*
X02774000Y00945226D01*
X02774000Y01013859D01*
X02774117Y01013907D01*
X02786093Y01025883D01*
X02792575Y01041531D01*
X02792575Y01057425D01*
X02808469Y01057425D01*
X02824117Y01063907D01*
X02836093Y01075883D01*
X02842575Y01091531D01*
X02842575Y01108469D01*
X02836093Y01124117D01*
X02824117Y01136093D01*
X02808469Y01142575D01*
X02791531Y01142575D01*
X02791415Y01142526D01*
X02720346Y01213595D01*
X02713595Y01220346D01*
X02708043Y01222646D01*
X02711606Y01226209D01*
X02718000Y01241646D01*
X02718000Y01258354D01*
X02711606Y01273791D01*
X02699791Y01285606D01*
X02684354Y01292000D01*
X02625941Y01292000D01*
X02659941Y01326000D01*
X02990059Y01326000D01*
X03024059Y01292000D01*
X02965646Y01292000D01*
X02950209Y01285606D01*
X02938394Y01273791D01*
X02932000Y01258354D01*
X02932000Y01241646D01*
X02938394Y01226209D01*
X02950209Y01214394D01*
X02965646Y01208000D01*
X03034354Y01208000D01*
X03049791Y01214394D01*
X03061606Y01226209D01*
X03068000Y01241646D01*
X03068000Y01248059D01*
X03140331Y01175728D01*
X03138394Y01173791D01*
X03132000Y01158354D01*
X03132000Y01141646D01*
X03138394Y01126209D01*
X03150209Y01114394D01*
X03165646Y01108000D01*
X03234354Y01108000D01*
X03249791Y01114394D01*
X03261606Y01126209D01*
X03268000Y01141646D01*
X03268000Y01158354D01*
X03261606Y01173791D01*
X03249791Y01185606D01*
X03234354Y01192000D01*
X03191941Y01192000D01*
X03175941Y01208000D01*
X03234354Y01208000D01*
X03249791Y01214394D01*
X03261606Y01226209D01*
X03268000Y01241646D01*
X03268000Y01258354D01*
X03261606Y01273791D01*
X03249791Y01285606D01*
X03234354Y01292000D01*
X03165646Y01292000D01*
X03150209Y01285606D01*
X03149272Y01284669D01*
X03013595Y01420346D01*
X03004774Y01424000D01*
X02445226Y01424000D01*
X02436405Y01420346D01*
X02429654Y01413595D01*
X02358585Y01342526D01*
X02358469Y01342575D01*
X02341531Y01342575D01*
X02325883Y01336093D01*
X02313907Y01324117D01*
X02307425Y01308469D01*
X02307425Y01291531D01*
X02313907Y01275883D01*
X02325883Y01263907D01*
X02341531Y01257425D01*
X02358469Y01257425D01*
X02374117Y01263907D01*
X02386093Y01275883D01*
X02392575Y01291531D01*
X02392575Y01308469D01*
X02392526Y01308585D01*
X02459941Y01376000D01*
X02465790Y01376000D01*
X02463907Y01374117D01*
X02457425Y01358469D01*
X02457425Y01341531D01*
X02463907Y01325883D01*
X02475883Y01313907D01*
X02476000Y01313859D01*
X02476000Y01309941D01*
X02458059Y01292000D01*
X02415646Y01292000D01*
X02400209Y01285606D01*
X02388394Y01273791D01*
X02382000Y01258354D01*
X02382000Y01241646D01*
X02388394Y01226209D01*
X02400209Y01214394D01*
X02415646Y01208000D01*
X02484354Y01208000D01*
X02499791Y01214394D01*
X02511606Y01226209D01*
X02512689Y01228824D01*
X02513907Y01225883D01*
X02525883Y01213907D01*
X02528770Y01212711D01*
X02500728Y01184669D01*
X02499791Y01185606D01*
X02484354Y01192000D01*
X02415646Y01192000D01*
X02400209Y01185606D01*
X02388394Y01173791D01*
X02382000Y01158354D01*
X02382000Y01141646D01*
X02388394Y01126209D01*
X02390603Y01124000D01*
X02209397Y01124000D01*
X02211397Y01126000D01*
X02254774Y01126000D01*
X02263595Y01129654D01*
X02270346Y01136405D01*
X02291415Y01157474D01*
X02291531Y01157425D01*
X02308469Y01157425D01*
X02324117Y01163907D01*
X02336093Y01175883D01*
X02342575Y01191531D01*
X02342575Y01208469D01*
X02336093Y01224117D01*
X02324117Y01236093D01*
X02308469Y01242575D01*
X02291531Y01242575D01*
X02275883Y01236093D01*
X02263907Y01224117D01*
X02257425Y01208469D01*
X02257425Y01191531D01*
X02257474Y01191415D01*
X02240059Y01174000D01*
X02211397Y01174000D01*
X02199791Y01185606D01*
X02184354Y01192000D01*
X02115646Y01192000D01*
X02100209Y01185606D01*
X02088394Y01173791D01*
X02082000Y01158354D01*
X02082000Y01141646D01*
X02088394Y01126209D01*
X02100209Y01114394D01*
X02115646Y01108000D01*
X02174059Y01108000D01*
X02158059Y01092000D01*
X02115646Y01092000D01*
X02100209Y01085606D01*
X02088394Y01073791D01*
X02082000Y01058354D01*
X02082000Y01051941D01*
X02074000Y01059941D01*
X02074000Y01154774D01*
X02070346Y01163595D01*
X02009669Y01224272D01*
X02011606Y01226209D01*
X02018000Y01241646D01*
X02018000Y01258354D01*
X02011606Y01273791D01*
X02009397Y01276000D01*
X02090059Y01276000D01*
X02090331Y01275728D01*
X02088394Y01273791D01*
X02082000Y01258354D01*
X02082000Y01241646D01*
X02088394Y01226209D01*
X02100209Y01214394D01*
X02115646Y01208000D01*
X02184354Y01208000D01*
X02199791Y01214394D01*
X02211606Y01226209D01*
X02218000Y01241646D01*
X02218000Y01258354D01*
X02211606Y01273791D01*
X02199791Y01285606D01*
X02184354Y01292000D01*
X02141941Y01292000D01*
X02113595Y01320346D01*
X02104774Y01324000D01*
X01836141Y01324000D01*
X01836093Y01324117D01*
X01824117Y01336093D01*
X01808469Y01342575D01*
X01791531Y01342575D01*
X01775883Y01336093D01*
X01763907Y01324117D01*
X01757425Y01308469D01*
X01757425Y01291531D01*
X01763907Y01275883D01*
X01775883Y01263907D01*
X01791531Y01257425D01*
X01808469Y01257425D01*
X01824117Y01263907D01*
X01836093Y01275883D01*
X01836141Y01276000D01*
X01890603Y01276000D01*
X01888394Y01273791D01*
X01882000Y01258354D01*
X01882000Y01241646D01*
X01888394Y01226209D01*
X01900209Y01214394D01*
X01915646Y01208000D01*
X01958059Y01208000D01*
X01974059Y01192000D01*
X01915646Y01192000D01*
X01900209Y01185606D01*
X01888394Y01173791D01*
X01882000Y01158354D01*
X01882000Y01151941D01*
X01763595Y01270346D01*
X01754774Y01274000D01*
X01686141Y01274000D01*
X01686093Y01274117D01*
X01674117Y01286093D01*
X01658469Y01292575D01*
X01641531Y01292575D01*
X01625883Y01286093D01*
X01613907Y01274117D01*
X01607425Y01258469D01*
X01607425Y01241531D01*
X01613907Y01225883D01*
X01625883Y01213907D01*
X01641531Y01207425D01*
X01658469Y01207425D01*
X01674117Y01213907D01*
X01686093Y01225883D01*
X01686141Y01226000D01*
X01740059Y01226000D01*
X01890331Y01075728D01*
X01888394Y01073791D01*
X01882000Y01058354D01*
X01882000Y01041646D01*
X01888394Y01026209D01*
X01900209Y01014394D01*
X01915646Y01008000D01*
X01984354Y01008000D01*
X01999791Y01014394D01*
X02011606Y01026209D01*
X02018000Y01041646D01*
X02018000Y01058354D01*
X02011606Y01073791D01*
X01999791Y01085606D01*
X01984354Y01092000D01*
X01941941Y01092000D01*
X01925941Y01108000D01*
X01984354Y01108000D01*
X01999791Y01114394D01*
X02011606Y01126209D01*
X02018000Y01141646D01*
X02018000Y01148059D01*
X02026000Y01140059D01*
X02026000Y01045226D01*
X02029654Y01036405D01*
X02036405Y01029654D01*
X02086405Y00979654D01*
X02091957Y00977354D01*
X02088394Y00973791D01*
X02087084Y00970627D01*
X02086405Y00970346D01*
X02079654Y00963595D01*
X02040059Y00924000D01*
X02009397Y00924000D01*
X02011606Y00926209D01*
X02018000Y00941646D01*
X02018000Y00958354D01*
X02011606Y00973791D01*
X01999791Y00985606D01*
X01984354Y00992000D01*
X01915646Y00992000D01*
X01900209Y00985606D01*
X01888394Y00973791D01*
X01882000Y00958354D01*
X01882000Y00951941D01*
X01442000Y01391941D01*
X01442000Y01417397D01*
X01417397Y01442000D01*
X01382603Y01442000D01*
X01358000Y01417397D01*
X01358000Y01382603D01*
X01382603Y01358000D01*
X01408059Y01358000D01*
X01380728Y01359875D02*
X01019271Y01359875D01*
X01035270Y01375873D02*
X01364730Y01375873D01*
X01358000Y01391872D02*
X01042000Y01391872D01*
X01042000Y01407870D02*
X01358000Y01407870D01*
X01364472Y01423869D02*
X01035528Y01423869D01*
X01019530Y01439867D02*
X01380470Y01439867D01*
X01419530Y01439867D02*
X03339008Y01439867D01*
X03339008Y01423869D02*
X03005091Y01423869D01*
X03000000Y01400000D02*
X03150000Y01250000D01*
X03200000Y01250000D01*
X03138061Y01295880D02*
X03339008Y01295880D01*
X03339008Y01279882D02*
X03255515Y01279882D01*
X03265710Y01263883D02*
X03339008Y01263883D01*
X03339008Y01247885D02*
X03268000Y01247885D01*
X03263957Y01231886D02*
X03339008Y01231886D01*
X03339008Y01215888D02*
X03251285Y01215888D01*
X03251506Y01183891D02*
X03339008Y01183891D01*
X03339008Y01199889D02*
X03184052Y01199889D01*
X03200000Y01150000D02*
X03000000Y01350000D01*
X02650000Y01350000D01*
X02550000Y01250000D01*
X02523902Y01215888D02*
X02501285Y01215888D01*
X02515948Y01199889D02*
X02342575Y01199889D01*
X02339502Y01215888D02*
X02398715Y01215888D01*
X02386042Y01231886D02*
X02328323Y01231886D01*
X02325940Y01263883D02*
X02215710Y01263883D01*
X02218000Y01247885D02*
X02382000Y01247885D01*
X02384290Y01263883D02*
X02374060Y01263883D01*
X02387749Y01279882D02*
X02394485Y01279882D01*
X02392575Y01295880D02*
X02461939Y01295880D01*
X02476000Y01311879D02*
X02395820Y01311879D01*
X02411819Y01327877D02*
X02463081Y01327877D01*
X02457425Y01343876D02*
X02427817Y01343876D01*
X02443816Y01359875D02*
X02458008Y01359875D01*
X02459814Y01375873D02*
X02465663Y01375873D01*
X02450000Y01400000D02*
X03000000Y01400000D01*
X03026071Y01407870D02*
X03339008Y01407870D01*
X03339008Y01391872D02*
X03042069Y01391872D01*
X03058068Y01375873D02*
X03339008Y01375873D01*
X03339008Y01359875D02*
X03074066Y01359875D01*
X03090065Y01343876D02*
X03339008Y01343876D01*
X03339008Y01327877D02*
X03106063Y01327877D01*
X03122062Y01311879D02*
X03339008Y01311879D01*
X03339008Y01455866D02*
X00978075Y01455866D01*
X00950000Y01450000D02*
X01000000Y01400000D01*
X00942190Y01423869D02*
X00859266Y01423869D01*
X00900000Y01350000D02*
X00800000Y01350000D01*
X00765336Y01391872D02*
X00324000Y01391872D01*
X00324000Y01375873D02*
X00740476Y01375873D01*
X00732630Y01359875D02*
X00324000Y01359875D01*
X00324000Y01343876D02*
X00732000Y01343876D01*
X00737703Y01327877D02*
X00324000Y01327877D01*
X00324000Y01311879D02*
X00756281Y01311879D01*
X00765646Y01292000D02*
X00750209Y01285606D01*
X00738394Y01273791D01*
X00732000Y01258354D01*
X00732000Y01241646D01*
X00738394Y01226209D01*
X00750209Y01214394D01*
X00765646Y01208000D01*
X00834354Y01208000D01*
X00849791Y01214394D01*
X00861397Y01226000D01*
X00890059Y01226000D01*
X00958000Y01158059D01*
X00958000Y01132603D01*
X00982603Y01108000D01*
X01017397Y01108000D01*
X01042000Y01132603D01*
X01042000Y01167397D01*
X01017397Y01192000D01*
X00991941Y01192000D01*
X00913595Y01270346D01*
X00904774Y01274000D01*
X00861397Y01274000D01*
X00849791Y01285606D01*
X00834354Y01292000D01*
X00765646Y01292000D01*
X00744485Y01279882D02*
X00324000Y01279882D01*
X00324000Y01295880D02*
X00920178Y01295880D01*
X00936177Y01279882D02*
X00855515Y01279882D01*
X00843719Y01311879D02*
X00904180Y01311879D01*
X00900000Y01350000D02*
X01000000Y01250000D01*
X01029515Y01279882D02*
X01370485Y01279882D01*
X01382603Y01292000D02*
X01358000Y01267397D01*
X01358000Y01232603D01*
X01382603Y01208000D01*
X01417397Y01208000D01*
X01442000Y01232603D01*
X01442000Y01267397D01*
X01417397Y01292000D01*
X01382603Y01292000D01*
X01358000Y01263883D02*
X01042000Y01263883D01*
X01042000Y01247885D02*
X01358000Y01247885D01*
X01358717Y01231886D02*
X01041283Y01231886D01*
X01025285Y01215888D02*
X01374715Y01215888D01*
X01382603Y01192000D02*
X01358000Y01167397D01*
X01358000Y01132603D01*
X01382603Y01108000D01*
X01417397Y01108000D01*
X01435397Y01126000D01*
X01513859Y01126000D01*
X01513907Y01125883D01*
X01525883Y01113907D01*
X01541531Y01107425D01*
X01558469Y01107425D01*
X01574117Y01113907D01*
X01586093Y01125883D01*
X01592575Y01141531D01*
X01592575Y01158469D01*
X01586093Y01174117D01*
X01574117Y01186093D01*
X01558469Y01192575D01*
X01541531Y01192575D01*
X01525883Y01186093D01*
X01513907Y01174117D01*
X01513859Y01174000D01*
X01435397Y01174000D01*
X01417397Y01192000D01*
X01382603Y01192000D01*
X01374494Y01183891D02*
X01025506Y01183891D01*
X01041505Y01167892D02*
X01358495Y01167892D01*
X01358000Y01151894D02*
X01042000Y01151894D01*
X01042000Y01135895D02*
X01358000Y01135895D01*
X01370706Y01119897D02*
X01029294Y01119897D01*
X01017397Y01092000D02*
X00982603Y01092000D01*
X00964603Y01074000D01*
X00909941Y01074000D01*
X00859669Y01124272D01*
X00861606Y01126209D01*
X00868000Y01141646D01*
X00868000Y01158354D01*
X00861606Y01173791D01*
X00849791Y01185606D01*
X00834354Y01192000D01*
X00765646Y01192000D01*
X00750209Y01185606D01*
X00738394Y01173791D01*
X00732000Y01158354D01*
X00732000Y01141646D01*
X00738394Y01126209D01*
X00750209Y01114394D01*
X00765646Y01108000D01*
X00808059Y01108000D01*
X00824059Y01092000D01*
X00765646Y01092000D01*
X00750209Y01085606D01*
X00738394Y01073791D01*
X00732000Y01058354D01*
X00732000Y01041646D01*
X00738394Y01026209D01*
X00750209Y01014394D01*
X00765646Y01008000D01*
X00834354Y01008000D01*
X00849791Y01014394D01*
X00850728Y01015331D01*
X00929654Y00936405D01*
X00936405Y00929654D01*
X00945226Y00926000D01*
X00964603Y00926000D01*
X00982603Y00908000D01*
X01017397Y00908000D01*
X01042000Y00932603D01*
X01042000Y00967397D01*
X01017397Y00992000D01*
X00982603Y00992000D01*
X00964603Y00974000D01*
X00959941Y00974000D01*
X00907941Y01026000D01*
X00964603Y01026000D01*
X00982603Y01008000D01*
X01017397Y01008000D01*
X01042000Y01032603D01*
X01042000Y01067397D01*
X01017397Y01092000D01*
X01021497Y01087900D02*
X01378503Y01087900D01*
X01362504Y01071901D02*
X01037496Y01071901D01*
X01042000Y01055903D02*
X01358000Y01055903D01*
X01358000Y01039904D02*
X01042000Y01039904D01*
X01033302Y01023906D02*
X01366697Y01023906D01*
X01382512Y00991908D02*
X01017488Y00991908D01*
X01033487Y00975910D02*
X01366513Y00975910D01*
X01358000Y00959911D02*
X01042000Y00959911D01*
X01042000Y00943913D02*
X01358000Y00943913D01*
X01362689Y00927914D02*
X01037311Y00927914D01*
X01021313Y00911916D02*
X01378687Y00911916D01*
X01370522Y00879919D02*
X01029478Y00879919D01*
X01017397Y00892000D02*
X01042000Y00867397D01*
X01042000Y00832603D01*
X01017397Y00808000D01*
X00982603Y00808000D01*
X00964603Y00826000D01*
X00907941Y00826000D01*
X00959941Y00774000D01*
X00964603Y00774000D01*
X00982603Y00792000D01*
X01017397Y00792000D01*
X01042000Y00767397D01*
X01042000Y00732603D01*
X01017397Y00708000D01*
X00982603Y00708000D01*
X00964603Y00726000D01*
X00945226Y00726000D01*
X00936405Y00729654D01*
X00929654Y00736405D01*
X00850728Y00815331D01*
X00849791Y00814394D01*
X00834354Y00808000D01*
X00765646Y00808000D01*
X00750209Y00814394D01*
X00738394Y00826209D01*
X00732000Y00841646D01*
X00732000Y00858354D01*
X00738394Y00873791D01*
X00750209Y00885606D01*
X00765646Y00892000D01*
X00824059Y00892000D01*
X00808059Y00908000D01*
X00765646Y00908000D01*
X00750209Y00914394D01*
X00738394Y00926209D01*
X00732000Y00941646D01*
X00732000Y00958354D01*
X00738394Y00973791D01*
X00750209Y00985606D01*
X00765646Y00992000D01*
X00834354Y00992000D01*
X00849791Y00985606D01*
X00861606Y00973791D01*
X00868000Y00958354D01*
X00868000Y00941646D01*
X00861606Y00926209D01*
X00859669Y00924272D01*
X00909941Y00874000D01*
X00964603Y00874000D01*
X00982603Y00892000D01*
X01017397Y00892000D01*
X01042000Y00863920D02*
X01358000Y00863920D01*
X01358000Y00847922D02*
X01042000Y00847922D01*
X01041320Y00831923D02*
X01321713Y00831923D01*
X01310514Y00815925D02*
X01025322Y00815925D01*
X01025469Y00783928D02*
X01310575Y00783928D01*
X01307425Y00799926D02*
X00934015Y00799926D01*
X00950013Y00783928D02*
X00974531Y00783928D01*
X00974678Y00815925D02*
X00918016Y00815925D01*
X00900000Y00850000D02*
X01000000Y00850000D01*
X00970522Y00879919D02*
X00904022Y00879919D01*
X00888024Y00895917D02*
X01411976Y00895917D01*
X01421313Y00911916D02*
X01427975Y00911916D01*
X01437311Y00927914D02*
X01443973Y00927914D01*
X01442000Y00943913D02*
X01459972Y00943913D01*
X01475970Y00959911D02*
X01443852Y00959911D01*
X01459851Y00975910D02*
X01665700Y00975910D01*
X01700000Y00950000D02*
X01500000Y00950000D01*
X01400000Y00850000D01*
X01350000Y00800000D02*
X01350000Y00700000D01*
X01850000Y00700000D01*
X01900000Y00750000D01*
X02600000Y00750000D01*
X02650000Y00700000D01*
X02750000Y00700000D01*
X02950000Y00900000D01*
X03050000Y00900000D01*
X03200000Y01050000D01*
X03155747Y01087900D02*
X03044253Y01087900D01*
X03049791Y01085606D02*
X03034354Y01092000D01*
X02965646Y01092000D01*
X02950209Y01085606D01*
X02938394Y01073791D01*
X02932000Y01058354D01*
X02932000Y01041646D01*
X02938394Y01026209D01*
X02950209Y01014394D01*
X02965646Y01008000D01*
X03034354Y01008000D01*
X03049791Y01014394D01*
X03061606Y01026209D01*
X03068000Y01041646D01*
X03068000Y01058354D01*
X03061606Y01073791D01*
X03049791Y01085606D01*
X03062389Y01071901D02*
X03137611Y01071901D01*
X03132000Y01055903D02*
X03068000Y01055903D01*
X03067278Y01039904D02*
X03132721Y01039904D01*
X03139965Y01023906D02*
X03059302Y01023906D01*
X03034575Y00991908D02*
X03107968Y00991908D01*
X03123966Y01007907D02*
X02774000Y01007907D01*
X02774000Y00991908D02*
X02965425Y00991908D01*
X02940513Y00975910D02*
X02774000Y00975910D01*
X02774000Y00959911D02*
X02932645Y00959911D01*
X02932000Y00943913D02*
X02773456Y00943913D01*
X02761855Y00927914D02*
X02817705Y00927914D01*
X02808853Y00911916D02*
X02745857Y00911916D01*
X02729858Y00895917D02*
X02807425Y00895917D01*
X02795978Y00879919D02*
X02713860Y00879919D01*
X02715694Y00863920D02*
X02779979Y00863920D01*
X02763981Y00847922D02*
X02718000Y00847922D01*
X02713973Y00831923D02*
X02747982Y00831923D01*
X02731984Y00815925D02*
X02701322Y00815925D01*
X02715985Y00799926D02*
X02283867Y00799926D01*
X02270346Y00786405D02*
X02270346Y00786405D01*
X02267869Y00783928D02*
X02673718Y00783928D01*
X02661344Y00767929D02*
X02616012Y00767929D01*
X02632010Y00751931D02*
X02657425Y00751931D01*
X02659744Y00735932D02*
X02648009Y00735932D01*
X02612124Y00703935D02*
X01887876Y00703935D01*
X01871878Y00687937D02*
X02628122Y00687937D01*
X02596125Y00719934D02*
X01903875Y00719934D01*
X01867990Y00751931D02*
X01442000Y00751931D01*
X01442000Y00735932D02*
X01851991Y00735932D01*
X01883988Y00767929D02*
X01451870Y00767929D01*
X01467869Y00783928D02*
X01882131Y00783928D01*
X01866133Y00799926D02*
X01483867Y00799926D01*
X01499866Y00815925D02*
X01850134Y00815925D01*
X01834136Y00831923D02*
X01515864Y00831923D01*
X01531863Y00847922D02*
X01818137Y00847922D01*
X01802139Y00863920D02*
X01674130Y00863920D01*
X01650000Y00900000D02*
X01800000Y00900000D01*
X01900000Y00800000D01*
X02250000Y00800000D01*
X02400000Y00950000D01*
X02450000Y00950000D01*
X02415425Y00991908D02*
X02242032Y00991908D01*
X02226034Y01007907D02*
X02726000Y01007907D01*
X02726000Y00991908D02*
X02684575Y00991908D01*
X02709487Y00975910D02*
X02726000Y00975910D01*
X02725970Y00959911D02*
X02717355Y00959911D01*
X02750000Y00950000D02*
X02650000Y00850000D01*
X02661976Y00895917D02*
X02379858Y00895917D01*
X02394522Y00879919D02*
X02363860Y00879919D01*
X02347861Y00863920D02*
X02384306Y00863920D01*
X02382000Y00858354D02*
X02382000Y00841646D01*
X02388394Y00826209D01*
X02400209Y00814394D01*
X02415646Y00808000D01*
X02484354Y00808000D01*
X02499791Y00814394D01*
X02511606Y00826209D01*
X02518000Y00841646D01*
X02518000Y00858354D01*
X02511606Y00873791D01*
X02499791Y00885606D01*
X02484354Y00892000D01*
X02415646Y00892000D01*
X02400209Y00885606D01*
X02388394Y00873791D01*
X02382000Y00858354D01*
X02382000Y00847922D02*
X02331863Y00847922D01*
X02315864Y00831923D02*
X02386027Y00831923D01*
X02398678Y00815925D02*
X02299866Y00815925D01*
X02263981Y00847922D02*
X02218000Y00847922D01*
X02215694Y00863920D02*
X02225870Y00863920D01*
X02212235Y00879919D02*
X02205478Y00879919D01*
X02207425Y00895917D02*
X02079858Y00895917D01*
X02094522Y00879919D02*
X02063860Y00879919D01*
X02050000Y00900000D02*
X02100000Y00950000D01*
X02150000Y00950000D01*
X02193808Y00911916D02*
X02208853Y00911916D01*
X02212312Y00927914D02*
X02217705Y00927914D01*
X02218000Y00943913D02*
X02222146Y00943913D01*
X02250000Y00950000D02*
X02200000Y01000000D01*
X02100000Y01000000D01*
X02050000Y01050000D01*
X02050000Y01150000D01*
X01950000Y01250000D01*
X02013957Y01231886D02*
X02086042Y01231886D01*
X02082000Y01247885D02*
X02018000Y01247885D01*
X02015710Y01263883D02*
X02084290Y01263883D01*
X02100000Y01300000D02*
X02150000Y01250000D01*
X02138061Y01295880D02*
X02307425Y01295880D01*
X02308838Y01311879D02*
X02122062Y01311879D01*
X02100000Y01300000D02*
X01800000Y01300000D01*
X01832332Y01327877D02*
X02317668Y01327877D01*
X02350000Y01300000D02*
X02450000Y01400000D01*
X02444909Y01423869D02*
X01435528Y01423869D01*
X01442000Y01407870D02*
X02423929Y01407870D01*
X02407930Y01391872D02*
X01442069Y01391872D01*
X01458068Y01375873D02*
X02391932Y01375873D01*
X02375933Y01359875D02*
X01474066Y01359875D01*
X01490065Y01343876D02*
X02359935Y01343876D01*
X02312250Y01279882D02*
X02205515Y01279882D01*
X02213957Y01231886D02*
X02271677Y01231886D01*
X02260498Y01215888D02*
X02201285Y01215888D01*
X02201506Y01183891D02*
X02249950Y01183891D01*
X02257425Y01199889D02*
X02034052Y01199889D01*
X02050050Y01183891D02*
X02098494Y01183891D01*
X02085951Y01167892D02*
X02066049Y01167892D01*
X02074000Y01151894D02*
X02082000Y01151894D01*
X02084382Y01135895D02*
X02074000Y01135895D01*
X02074000Y01119897D02*
X02094706Y01119897D01*
X02074000Y01103898D02*
X02169957Y01103898D01*
X02200000Y01100000D02*
X02150000Y01050000D01*
X02105747Y01087900D02*
X02074000Y01087900D01*
X02074000Y01071901D02*
X02087611Y01071901D01*
X02082000Y01055903D02*
X02078038Y01055903D01*
X02042153Y01023906D02*
X02009302Y01023906D01*
X02017278Y01039904D02*
X02028204Y01039904D01*
X02026000Y01055903D02*
X02018000Y01055903D01*
X02012389Y01071901D02*
X02026000Y01071901D01*
X02026000Y01087900D02*
X01994253Y01087900D01*
X02005294Y01119897D02*
X02026000Y01119897D01*
X02026000Y01135895D02*
X02015618Y01135895D01*
X02026000Y01103898D02*
X01930043Y01103898D01*
X01887611Y01071901D02*
X01762040Y01071901D01*
X01778038Y01055903D02*
X01882000Y01055903D01*
X01882721Y01039904D02*
X01794037Y01039904D01*
X01810035Y01023906D02*
X01890697Y01023906D01*
X01915425Y00991908D02*
X01842032Y00991908D01*
X01858031Y00975910D02*
X01890513Y00975910D01*
X01882645Y00959911D02*
X01874029Y00959911D01*
X01826034Y01007907D02*
X02058152Y01007907D01*
X02074150Y00991908D02*
X01984575Y00991908D01*
X02009487Y00975910D02*
X02090513Y00975910D01*
X02075970Y00959911D02*
X02017355Y00959911D01*
X02018000Y00943913D02*
X02059972Y00943913D01*
X02043973Y00927914D02*
X02012312Y00927914D01*
X02050000Y00900000D02*
X01900000Y00900000D01*
X01400000Y01400000D01*
X01438181Y01327877D02*
X00956063Y01327877D01*
X00972062Y01311879D02*
X01454180Y01311879D01*
X01470179Y01295880D02*
X00988061Y01295880D01*
X00952175Y01263883D02*
X00920058Y01263883D01*
X00936056Y01247885D02*
X00958000Y01247885D01*
X00958717Y01231886D02*
X00952055Y01231886D01*
X00968053Y01215888D02*
X00974715Y01215888D01*
X00984052Y01199889D02*
X01566170Y01199889D01*
X01576319Y01183891D02*
X01582168Y01183891D01*
X01588671Y01167892D02*
X01598167Y01167892D01*
X01592575Y01151894D02*
X01614165Y01151894D01*
X01630164Y01135895D02*
X01590240Y01135895D01*
X01580106Y01119897D02*
X01646162Y01119897D01*
X01662161Y01103898D02*
X00880043Y01103898D01*
X00896041Y01087900D02*
X00978503Y01087900D01*
X00970706Y01119897D02*
X00864044Y01119897D01*
X00865618Y01135895D02*
X00958000Y01135895D01*
X00958000Y01151894D02*
X00868000Y01151894D01*
X00864049Y01167892D02*
X00948167Y01167892D01*
X00932168Y01183891D02*
X00851506Y01183891D01*
X00851285Y01215888D02*
X00900171Y01215888D01*
X00916170Y01199889D02*
X00324000Y01199889D01*
X00324000Y01183891D02*
X00748494Y01183891D01*
X00735951Y01167892D02*
X00324000Y01167892D01*
X00324000Y01151894D02*
X00732000Y01151894D01*
X00734382Y01135895D02*
X00324000Y01135895D01*
X00324000Y01119897D02*
X00744706Y01119897D01*
X00755747Y01087900D02*
X00324000Y01087900D01*
X00324000Y01103898D02*
X00812161Y01103898D01*
X00800000Y01050000D02*
X00850000Y01050000D01*
X00950000Y00950000D01*
X01000000Y00950000D01*
X00966513Y00975910D02*
X00958031Y00975910D01*
X00942032Y00991908D02*
X00982512Y00991908D01*
X00966697Y01023906D02*
X00910035Y01023906D01*
X00926034Y01007907D02*
X01423966Y01007907D01*
X01433302Y01023906D02*
X01444998Y01023906D01*
X01450000Y01000000D02*
X01750000Y01000000D01*
X01900000Y00850000D01*
X01950000Y00850000D01*
X02013973Y00831923D02*
X02086027Y00831923D01*
X02082000Y00847922D02*
X02018000Y00847922D01*
X02015694Y00863920D02*
X02084306Y00863920D01*
X02095857Y00911916D02*
X02106192Y00911916D01*
X02213973Y00831923D02*
X02247982Y00831923D01*
X02274130Y00863920D02*
X02279979Y00863920D01*
X02287765Y00879919D02*
X02295978Y00879919D01*
X02292575Y00895917D02*
X02311976Y00895917D01*
X02327975Y00911916D02*
X02291147Y00911916D01*
X02282295Y00927914D02*
X02343973Y00927914D01*
X02359972Y00943913D02*
X02274000Y00943913D01*
X02271872Y00959911D02*
X02375970Y00959911D01*
X02379654Y00963595D02*
X02379654Y00963595D01*
X02390513Y00975910D02*
X02258031Y00975910D01*
X02250000Y00950000D02*
X02250000Y00900000D01*
X02209302Y01023906D02*
X02390697Y01023906D01*
X02382721Y01039904D02*
X02217278Y01039904D01*
X02218000Y01055903D02*
X02382000Y01055903D01*
X02387611Y01071901D02*
X02212389Y01071901D01*
X02200000Y01100000D02*
X02550000Y01100000D01*
X02582111Y01071901D02*
X02587611Y01071901D01*
X02591070Y01087900D02*
X02605747Y01087900D01*
X02592575Y01103898D02*
X02757425Y01103898D01*
X02746162Y01119897D02*
X02705294Y01119897D01*
X02715618Y01135895D02*
X02730164Y01135895D01*
X02730245Y01087900D02*
X02694253Y01087900D01*
X02712389Y01071901D02*
X02712989Y01071901D01*
X02750000Y01050000D02*
X02750000Y00950000D01*
X02715885Y01023906D02*
X02709302Y01023906D01*
X02784115Y01023906D02*
X02940697Y01023906D01*
X02932721Y01039904D02*
X02791901Y01039904D01*
X02792575Y01055903D02*
X02932000Y01055903D01*
X02937611Y01071901D02*
X02832111Y01071901D01*
X02841070Y01087900D02*
X02955747Y01087900D01*
X02965646Y01108000D02*
X03034354Y01108000D01*
X03049791Y01114394D01*
X03061606Y01126209D01*
X03068000Y01141646D01*
X03068000Y01158354D01*
X03061606Y01173791D01*
X03049791Y01185606D01*
X03034354Y01192000D01*
X02965646Y01192000D01*
X02950209Y01185606D01*
X02938394Y01173791D01*
X02932000Y01158354D01*
X02932000Y01141646D01*
X02938394Y01126209D01*
X02950209Y01114394D01*
X02965646Y01108000D01*
X02944706Y01119897D02*
X02837841Y01119897D01*
X02842575Y01103898D02*
X03339008Y01103898D01*
X03339008Y01087900D02*
X03244253Y01087900D01*
X03262389Y01071901D02*
X03339008Y01071901D01*
X03339008Y01055903D02*
X03268000Y01055903D01*
X03267278Y01039904D02*
X03339008Y01039904D01*
X03339008Y01023906D02*
X03259302Y01023906D01*
X03234575Y00991908D02*
X03339008Y00991908D01*
X03339008Y00975910D02*
X03259487Y00975910D01*
X03267355Y00959911D02*
X03339008Y00959911D01*
X03339008Y00943913D02*
X03268000Y00943913D01*
X03262312Y00927914D02*
X03339008Y00927914D01*
X03339008Y00911916D02*
X03243808Y00911916D01*
X03234354Y00892000D02*
X03249791Y00885606D01*
X03261606Y00873791D01*
X03268000Y00858354D01*
X03268000Y00841646D01*
X03261606Y00826209D01*
X03249791Y00814394D01*
X03234354Y00808000D01*
X03165646Y00808000D01*
X03150209Y00814394D01*
X03138394Y00826209D01*
X03132000Y00841646D01*
X03132000Y00858354D01*
X03138394Y00873791D01*
X03150209Y00885606D01*
X03165646Y00892000D01*
X03234354Y00892000D01*
X03255478Y00879919D02*
X03339008Y00879919D01*
X03339008Y00895917D02*
X03079858Y00895917D01*
X03063860Y00879919D02*
X03144522Y00879919D01*
X03134306Y00863920D02*
X03065694Y00863920D01*
X03068000Y00847922D02*
X03132000Y00847922D01*
X03136027Y00831923D02*
X03063973Y00831923D01*
X03051322Y00815925D02*
X03148678Y00815925D01*
X03156192Y00911916D02*
X03095857Y00911916D01*
X03111855Y00927914D02*
X03137688Y00927914D01*
X03132000Y00943913D02*
X03127854Y00943913D01*
X03091969Y00975910D02*
X03059487Y00975910D01*
X03067355Y00959911D02*
X03075970Y00959911D01*
X03191848Y01007907D02*
X03339008Y01007907D01*
X03339008Y01119897D02*
X03255294Y01119897D01*
X03265618Y01135895D02*
X03339008Y01135895D01*
X03339008Y01151894D02*
X03268000Y01151894D01*
X03264049Y01167892D02*
X03339008Y01167892D01*
X03144706Y01119897D02*
X03055294Y01119897D01*
X03065618Y01135895D02*
X03134382Y01135895D01*
X03132000Y01151894D02*
X03068000Y01151894D01*
X03064049Y01167892D02*
X03135951Y01167892D01*
X03132168Y01183891D02*
X03051506Y01183891D01*
X03051285Y01215888D02*
X03100171Y01215888D01*
X03084173Y01231886D02*
X03063957Y01231886D01*
X03068000Y01247885D02*
X03068174Y01247885D01*
X03020178Y01295880D02*
X02629821Y01295880D01*
X02645820Y01311879D02*
X03004180Y01311879D01*
X02944485Y01279882D02*
X02705515Y01279882D01*
X02715710Y01263883D02*
X02934290Y01263883D01*
X02932000Y01247885D02*
X02718000Y01247885D01*
X02713957Y01231886D02*
X02936042Y01231886D01*
X02948715Y01215888D02*
X02718053Y01215888D01*
X02734052Y01199889D02*
X03116170Y01199889D01*
X02948494Y01183891D02*
X02750050Y01183891D01*
X02766049Y01167892D02*
X02935951Y01167892D01*
X02932000Y01151894D02*
X02782047Y01151894D01*
X02824314Y01135895D02*
X02934382Y01135895D01*
X02800000Y01100000D02*
X02700000Y01200000D01*
X02550000Y01200000D01*
X02500000Y01150000D01*
X02450000Y01150000D01*
X02398494Y01183891D02*
X02339410Y01183891D01*
X02328102Y01167892D02*
X02385951Y01167892D01*
X02382000Y01151894D02*
X02285835Y01151894D01*
X02269836Y01135895D02*
X02384382Y01135895D01*
X02300000Y01200000D02*
X02250000Y01150000D01*
X02150000Y01150000D01*
X02098715Y01215888D02*
X02018053Y01215888D01*
X01966170Y01199889D02*
X01834052Y01199889D01*
X01850050Y01183891D02*
X01898494Y01183891D01*
X01885951Y01167892D02*
X01866049Y01167892D01*
X01830164Y01135895D02*
X01698046Y01135895D01*
X01714044Y01119897D02*
X01846162Y01119897D01*
X01862161Y01103898D02*
X01730043Y01103898D01*
X01746041Y01087900D02*
X01878159Y01087900D01*
X01950000Y01050000D02*
X01750000Y01250000D01*
X01650000Y01250000D01*
X01619672Y01279882D02*
X01554059Y01279882D01*
X01570057Y01263883D02*
X01609668Y01263883D01*
X01607425Y01247885D02*
X01586056Y01247885D01*
X01602055Y01231886D02*
X01611420Y01231886D01*
X01618053Y01215888D02*
X01623902Y01215888D01*
X01634052Y01199889D02*
X01766170Y01199889D01*
X01782168Y01183891D02*
X01650050Y01183891D01*
X01666049Y01167892D02*
X01798167Y01167892D01*
X01814165Y01151894D02*
X01682047Y01151894D01*
X01678159Y01087900D02*
X01669755Y01087900D01*
X01687011Y01071901D02*
X01694158Y01071901D01*
X01692575Y01055903D02*
X01710156Y01055903D01*
X01726155Y01039904D02*
X01691901Y01039904D01*
X01650000Y01050000D02*
X01400000Y01050000D01*
X01421497Y01087900D02*
X01630245Y01087900D01*
X01550000Y01150000D02*
X01400000Y01150000D01*
X01429294Y01119897D02*
X01519893Y01119897D01*
X01523681Y01183891D02*
X01425506Y01183891D01*
X01425285Y01215888D02*
X01550171Y01215888D01*
X01534173Y01231886D02*
X01441283Y01231886D01*
X01442000Y01247885D02*
X01518174Y01247885D01*
X01502176Y01263883D02*
X01442000Y01263883D01*
X01429515Y01279882D02*
X01486177Y01279882D01*
X01522062Y01311879D02*
X01758838Y01311879D01*
X01757425Y01295880D02*
X01538060Y01295880D01*
X01506063Y01327877D02*
X01767668Y01327877D01*
X01762250Y01279882D02*
X01680328Y01279882D01*
X01676098Y01215888D02*
X01750171Y01215888D01*
X01786056Y01247885D02*
X01882000Y01247885D01*
X01884290Y01263883D02*
X01824060Y01263883D01*
X01802055Y01231886D02*
X01886042Y01231886D01*
X01898715Y01215888D02*
X01818053Y01215888D01*
X01775940Y01263883D02*
X01770058Y01263883D01*
X01659945Y01471864D02*
X03339008Y01471864D01*
X03339008Y01487863D02*
X01668320Y01487863D01*
X01669937Y01503861D02*
X03339008Y01503861D01*
X03339008Y01519860D02*
X01665263Y01519860D01*
X01651502Y01535858D02*
X03339008Y01535858D01*
X03339008Y01679845D02*
X01663112Y01679845D01*
X01668000Y01695844D02*
X03339008Y01695844D01*
X03339008Y01711842D02*
X01666555Y01711842D01*
X01657556Y01727841D02*
X03339008Y01727841D01*
X03339008Y01743839D02*
X01392000Y01743839D01*
X01392000Y01759838D02*
X01435707Y01759838D01*
X01441531Y01757425D02*
X01458469Y01757425D01*
X01474117Y01763907D01*
X01486093Y01775883D01*
X01492575Y01791531D01*
X01492575Y01808469D01*
X01486093Y01824117D01*
X01474117Y01836093D01*
X01474000Y01836141D01*
X01474000Y01844334D01*
X01492833Y01882000D01*
X01508354Y01882000D01*
X01523791Y01888394D01*
X01535606Y01900209D01*
X01542000Y01915646D01*
X01542000Y01984354D01*
X01535606Y01999791D01*
X01523791Y02011606D01*
X01508354Y02018000D01*
X01491646Y02018000D01*
X01476209Y02011606D01*
X01464394Y01999791D01*
X01458000Y01984354D01*
X01458000Y01919666D01*
X01430275Y01864216D01*
X01429654Y01863595D01*
X01428153Y01859972D01*
X01426399Y01856463D01*
X01426336Y01855586D01*
X01426000Y01854774D01*
X01426000Y01850852D01*
X01425722Y01846939D01*
X01426000Y01846105D01*
X01426000Y01836141D01*
X01425883Y01836093D01*
X01413907Y01824117D01*
X01407425Y01808469D01*
X01407425Y01791531D01*
X01413907Y01775883D01*
X01425883Y01763907D01*
X01441531Y01757425D01*
X01464293Y01759838D02*
X03339008Y01759838D01*
X03339008Y01775836D02*
X01486046Y01775836D01*
X01492575Y01791835D02*
X03339008Y01791835D01*
X03339008Y01807833D02*
X01492575Y01807833D01*
X01486211Y01823832D02*
X03339008Y01823832D01*
X03339008Y01839830D02*
X01474000Y01839830D01*
X01479747Y01855829D02*
X03339008Y01855829D01*
X03339008Y01871827D02*
X01487746Y01871827D01*
X01522419Y01887826D02*
X01574932Y01887826D01*
X01576939Y01886368D02*
X01583110Y01883224D01*
X01589697Y01881083D01*
X01596537Y01880000D01*
X01599999Y01880000D01*
X01599999Y01949999D01*
X01600000Y01949999D01*
X01600000Y01880000D01*
X01603463Y01880000D01*
X01610303Y01881083D01*
X01616890Y01883224D01*
X01623061Y01886368D01*
X01628664Y01890439D01*
X01633561Y01895336D01*
X01637632Y01900939D01*
X01640776Y01907110D01*
X01642916Y01913697D01*
X01644000Y01920537D01*
X01644000Y01949999D01*
X01600001Y01949999D01*
X01600001Y01950000D01*
X01644000Y01950000D01*
X01644000Y01979463D01*
X01642916Y01986303D01*
X01640776Y01992890D01*
X01637632Y01999061D01*
X01633561Y02004664D01*
X01628664Y02009561D01*
X01623061Y02013632D01*
X01616890Y02016776D01*
X01610303Y02018916D01*
X01603463Y02020000D01*
X01600000Y02020000D01*
X01600000Y01950001D01*
X01599999Y01950001D01*
X01599999Y02020000D01*
X01596537Y02020000D01*
X01589697Y02018916D01*
X01583110Y02016776D01*
X01576939Y02013632D01*
X01571336Y02009561D01*
X01566439Y02004664D01*
X01562368Y01999061D01*
X01559224Y01992890D01*
X01557083Y01986303D01*
X01556000Y01979463D01*
X01556000Y01950000D01*
X01599999Y01950000D01*
X01599999Y01949999D01*
X01556000Y01949999D01*
X01556000Y01920537D01*
X01557083Y01913697D01*
X01559224Y01907110D01*
X01562368Y01900939D01*
X01566439Y01895336D01*
X01571336Y01890439D01*
X01576939Y01886368D01*
X01599999Y01887826D02*
X01600000Y01887826D01*
X01599999Y01903824D02*
X01600000Y01903824D01*
X01599999Y01919823D02*
X01600000Y01919823D01*
X01599999Y01935821D02*
X01600000Y01935821D01*
X01600000Y01950000D02*
X01700000Y01850000D01*
X01700000Y01550000D01*
X01650000Y01500000D01*
X01600000Y01500000D01*
X01599999Y01503861D02*
X01600000Y01503861D01*
X01599999Y01487863D02*
X01600000Y01487863D01*
X01599999Y01471864D02*
X01600000Y01471864D01*
X01599999Y01519860D02*
X01600000Y01519860D01*
X01599999Y01535858D02*
X01600000Y01535858D01*
X01535227Y01583854D02*
X01378371Y01583854D01*
X01350000Y01583854D02*
X01349999Y01583854D01*
X01349999Y01567855D02*
X01350000Y01567855D01*
X01349999Y01551857D02*
X01350000Y01551857D01*
X01349999Y01535858D02*
X01350000Y01535858D01*
X01349999Y01519860D02*
X01350000Y01519860D01*
X01375248Y01615851D02*
X01535105Y01615851D01*
X01532000Y01599852D02*
X00784089Y01599852D01*
X00734275Y01663846D02*
X00724000Y01663846D01*
X00724000Y01679845D02*
X00744448Y01679845D01*
X00724000Y01807833D02*
X01407425Y01807833D01*
X01407425Y01791835D02*
X01367562Y01791835D01*
X01383561Y01775836D02*
X01413954Y01775836D01*
X01450000Y01800000D02*
X01450000Y01850000D01*
X01500000Y01950000D01*
X01542000Y01951820D02*
X01556000Y01951820D01*
X01556000Y01967818D02*
X01542000Y01967818D01*
X01542000Y01983817D02*
X01556690Y01983817D01*
X01562916Y01999815D02*
X01535581Y01999815D01*
X01513632Y02015814D02*
X01581221Y02015814D01*
X01599999Y02015814D02*
X01600000Y02015814D01*
X01599999Y01999815D02*
X01600000Y01999815D01*
X01599999Y01983817D02*
X01600000Y01983817D01*
X01599999Y01967818D02*
X01600000Y01967818D01*
X01599999Y01951820D02*
X01600000Y01951820D01*
X01600000Y01950000D02*
X01600000Y02250000D01*
X01600001Y02250000D02*
X01644000Y02250000D01*
X01644000Y02279463D01*
X01642916Y02286303D01*
X01640776Y02292890D01*
X01637632Y02299061D01*
X01633561Y02304664D01*
X01628664Y02309561D01*
X01623061Y02313632D01*
X01616890Y02316776D01*
X01610303Y02318916D01*
X01603463Y02320000D01*
X01600000Y02320000D01*
X01600000Y02250001D01*
X01599999Y02250001D01*
X01599999Y02320000D01*
X01596537Y02320000D01*
X01589697Y02318916D01*
X01583110Y02316776D01*
X01576939Y02313632D01*
X01571336Y02309561D01*
X01566439Y02304664D01*
X01562368Y02299061D01*
X01559224Y02292890D01*
X01557083Y02286303D01*
X01556000Y02279463D01*
X01556000Y02250000D01*
X01599999Y02250000D01*
X01599999Y02249999D01*
X01600000Y02249999D01*
X01600000Y02180000D01*
X01603463Y02180000D01*
X01610303Y02181083D01*
X01616890Y02183224D01*
X01623061Y02186368D01*
X01628664Y02190439D01*
X01633561Y02195336D01*
X01637632Y02200939D01*
X01640776Y02207110D01*
X01642916Y02213697D01*
X01644000Y02220537D01*
X01644000Y02249999D01*
X01600001Y02249999D01*
X01600001Y02250000D01*
X01599999Y02249999D02*
X01599999Y02180000D01*
X01596537Y02180000D01*
X01589697Y02181083D01*
X01583110Y02183224D01*
X01576939Y02186368D01*
X01571336Y02190439D01*
X01566439Y02195336D01*
X01562368Y02200939D01*
X01559224Y02207110D01*
X01557083Y02213697D01*
X01556000Y02220537D01*
X01556000Y02249999D01*
X01599999Y02249999D01*
X01599999Y02255792D02*
X01600000Y02255792D01*
X01599999Y02271790D02*
X01600000Y02271790D01*
X01599999Y02287789D02*
X01600000Y02287789D01*
X01599999Y02303787D02*
X01600000Y02303787D01*
X01599999Y02319786D02*
X01600000Y02319786D01*
X01604814Y02319786D02*
X03339008Y02319786D01*
X03339008Y02335784D02*
X01140194Y02335784D01*
X01142575Y02351783D02*
X03339008Y02351783D01*
X03339008Y02367781D02*
X01138717Y02367781D01*
X01100000Y02350000D02*
X01100000Y02200000D01*
X01000000Y02100000D01*
X01000000Y02050000D01*
X01029589Y02079808D02*
X03339008Y02079808D01*
X03339008Y02063810D02*
X01042000Y02063810D01*
X01042000Y02047811D02*
X03339008Y02047811D01*
X03339008Y02031813D02*
X01041209Y02031813D01*
X01025211Y02015814D02*
X01386368Y02015814D01*
X01413632Y02015814D02*
X01486368Y02015814D01*
X01464419Y01999815D02*
X01435581Y01999815D01*
X01442000Y01983817D02*
X01458000Y01983817D01*
X01458000Y01967818D02*
X01442000Y01967818D01*
X01442000Y01951820D02*
X01458000Y01951820D01*
X01458000Y01935821D02*
X01442000Y01935821D01*
X01442000Y01919823D02*
X01458000Y01919823D01*
X01450079Y01903824D02*
X01437103Y01903824D01*
X01442080Y01887826D02*
X01422419Y01887826D01*
X01434081Y01871827D02*
X01387570Y01871827D01*
X01392000Y01855829D02*
X01426354Y01855829D01*
X01426000Y01839830D02*
X01392000Y01839830D01*
X01383229Y01823832D02*
X01413789Y01823832D01*
X01377581Y01887826D02*
X01371571Y01887826D01*
X01537103Y01903824D02*
X01560898Y01903824D01*
X01556113Y01919823D02*
X01542000Y01919823D01*
X01542000Y01935821D02*
X01556000Y01935821D01*
X01625068Y01887826D02*
X03339008Y01887826D01*
X03339008Y01903824D02*
X01639102Y01903824D01*
X01643887Y01919823D02*
X03339008Y01919823D01*
X03339008Y01935821D02*
X01644000Y01935821D01*
X01644000Y01951820D02*
X03339008Y01951820D01*
X03339008Y01967818D02*
X01644000Y01967818D01*
X01643310Y01983817D02*
X03339008Y01983817D01*
X03339008Y01999815D02*
X01637084Y01999815D01*
X01618779Y02015814D02*
X03339008Y02015814D01*
X03339008Y02095807D02*
X01029748Y02095807D01*
X01045746Y02111805D02*
X03339008Y02111805D01*
X03339008Y02127804D02*
X01061745Y02127804D01*
X01077743Y02143802D02*
X03339008Y02143802D01*
X03339008Y02159801D02*
X01093742Y02159801D01*
X01109740Y02175799D02*
X03339008Y02175799D01*
X03339008Y02191798D02*
X01630023Y02191798D01*
X01640999Y02207796D02*
X03339008Y02207796D01*
X03339008Y02223795D02*
X01644000Y02223795D01*
X01644000Y02239793D02*
X03339008Y02239793D01*
X03339008Y02255792D02*
X01644000Y02255792D01*
X01644000Y02271790D02*
X03339008Y02271790D01*
X03339008Y02287789D02*
X01642434Y02287789D01*
X01634198Y02303787D02*
X03339008Y02303787D01*
X03339008Y02383780D02*
X01217721Y02383780D01*
X01233719Y02399779D02*
X03339008Y02399779D01*
X03339008Y02415777D02*
X01275174Y02415777D01*
X01287912Y02431776D02*
X03339008Y02431776D01*
X03339008Y02447774D02*
X01292000Y02447774D01*
X01289756Y02463773D02*
X03339008Y02463773D01*
X03339008Y02479771D02*
X01279626Y02479771D01*
X01267452Y02511768D02*
X03339008Y02511768D01*
X03339008Y02495770D02*
X01042575Y02495770D01*
X01041208Y02511768D02*
X01232548Y02511768D01*
X01226209Y02514394D02*
X01241646Y02508000D01*
X01258354Y02508000D01*
X01273791Y02514394D01*
X01285606Y02526209D01*
X01292000Y02541646D01*
X01292000Y02558354D01*
X01285606Y02573791D01*
X01273791Y02585606D01*
X01258354Y02592000D01*
X01241646Y02592000D01*
X01226209Y02585606D01*
X01214394Y02573791D01*
X01208000Y02558354D01*
X01208000Y02541646D01*
X01214394Y02526209D01*
X01226209Y02514394D01*
X01213749Y02527767D02*
X01032443Y02527767D01*
X01000000Y02500000D02*
X01050000Y02450000D01*
X01050000Y02400000D01*
X01200000Y02400000D01*
X01250000Y02450000D01*
X01220374Y02479771D02*
X01054170Y02479771D01*
X01070168Y02463773D02*
X01210244Y02463773D01*
X01208000Y02447774D02*
X01074000Y02447774D01*
X01074000Y02431776D02*
X01197835Y02431776D01*
X01208000Y02543765D02*
X00868000Y02543765D01*
X00867416Y02559764D02*
X01208584Y02559764D01*
X01216365Y02575762D02*
X00859634Y02575762D01*
X00834931Y02591761D02*
X01241069Y02591761D01*
X01258931Y02591761D02*
X03339008Y02591761D01*
X03339008Y02607759D02*
X00838384Y02607759D01*
X00861321Y02623758D02*
X03339008Y02623758D01*
X03339008Y02639756D02*
X00868926Y02639756D01*
X00869637Y02655755D02*
X03339008Y02655755D01*
X03339008Y02671753D02*
X00864298Y02671753D01*
X00848826Y02687752D02*
X03339008Y02687752D01*
X03339008Y02575762D02*
X01283634Y02575762D01*
X01291416Y02559764D02*
X03339008Y02559764D01*
X03339008Y02543765D02*
X01292000Y02543765D01*
X01286251Y02527767D02*
X03339008Y02527767D01*
X03339008Y02959727D02*
X00050000Y02959727D01*
X00050000Y02975725D02*
X03339008Y02975725D01*
X03339008Y02991724D02*
X00050000Y02991724D01*
X00050000Y03007722D02*
X03339008Y03007722D01*
X03339008Y03023721D02*
X00050000Y03023721D01*
X00050000Y03039719D02*
X03339008Y03039719D01*
X01595186Y02319786D02*
X01129996Y02319786D01*
X01124000Y02303787D02*
X01368391Y02303787D01*
X01364394Y02299791D02*
X01358000Y02284354D01*
X01358000Y02215646D01*
X01364394Y02200209D01*
X01376209Y02188394D01*
X01391646Y02182000D01*
X01408354Y02182000D01*
X01423791Y02188394D01*
X01435606Y02200209D01*
X01442000Y02215646D01*
X01442000Y02284354D01*
X01435606Y02299791D01*
X01423791Y02311606D01*
X01408354Y02318000D01*
X01391646Y02318000D01*
X01376209Y02311606D01*
X01364394Y02299791D01*
X01359423Y02287789D02*
X01124000Y02287789D01*
X01124000Y02271790D02*
X01358000Y02271790D01*
X01358000Y02255792D02*
X01124000Y02255792D01*
X01124000Y02239793D02*
X01358000Y02239793D01*
X01358000Y02223795D02*
X01124000Y02223795D01*
X01124000Y02207796D02*
X01361251Y02207796D01*
X01372805Y02191798D02*
X01122580Y02191798D01*
X01073855Y02207796D02*
X00920022Y02207796D01*
X00900000Y02207796D02*
X00899999Y02207796D01*
X00899999Y02223795D02*
X00900000Y02223795D01*
X00899999Y02239793D02*
X00900000Y02239793D01*
X00900000Y02250000D02*
X00950000Y02300000D01*
X00950000Y02600000D01*
X00900000Y02650000D01*
X00800000Y02650000D01*
X00799999Y02655755D02*
X00800000Y02655755D01*
X00799999Y02671753D02*
X00800000Y02671753D01*
X00799999Y02687752D02*
X00800000Y02687752D01*
X00799999Y02639756D02*
X00800000Y02639756D01*
X00799999Y02623758D02*
X00800000Y02623758D01*
X00799999Y02607759D02*
X00800000Y02607759D01*
X00862251Y02527767D02*
X00967557Y02527767D01*
X00958792Y02511768D02*
X00843452Y02511768D01*
X00855626Y02479771D02*
X00962296Y02479771D01*
X00957425Y02495770D02*
X00724000Y02495770D01*
X00724000Y02399779D02*
X01015838Y02399779D01*
X01026000Y02415777D02*
X00851174Y02415777D01*
X00863912Y02431776D02*
X01026000Y02431776D01*
X01018285Y02447774D02*
X00868000Y02447774D01*
X00865756Y02463773D02*
X00976207Y02463773D01*
X01050000Y02400000D02*
X01000000Y02350000D01*
X01000000Y02250000D01*
X01033192Y02223795D02*
X01076000Y02223795D01*
X01076000Y02239793D02*
X01042000Y02239793D01*
X01042000Y02255792D02*
X01076000Y02255792D01*
X01076000Y02271790D02*
X01037606Y02271790D01*
X01024000Y02287789D02*
X01076000Y02287789D01*
X01076000Y02303787D02*
X01024000Y02303787D01*
X01024000Y02319786D02*
X01070004Y02319786D01*
X01059806Y02335784D02*
X01024000Y02335784D01*
X01035724Y02351783D02*
X01057425Y02351783D01*
X01061283Y02367781D02*
X01051722Y02367781D01*
X00999839Y02383780D02*
X00851617Y02383780D01*
X00864095Y02367781D02*
X00983840Y02367781D01*
X00986405Y02370346D02*
X00986405Y02370346D01*
X00976000Y02351783D02*
X00868000Y02351783D01*
X00865572Y02335784D02*
X00976000Y02335784D01*
X00976000Y02319786D02*
X00855183Y02319786D01*
X00844521Y02287789D02*
X00875564Y02287789D01*
X00863980Y02223795D02*
X00859192Y02223795D01*
X00879978Y02207796D02*
X00724000Y02207796D01*
X00676000Y02207796D02*
X00324000Y02207796D01*
X00324000Y02191798D02*
X00676000Y02191798D01*
X00676000Y02175799D02*
X00324000Y02175799D01*
X00324000Y02159801D02*
X00676000Y02159801D01*
X00676000Y02143802D02*
X00324000Y02143802D01*
X00324000Y02127804D02*
X00676000Y02127804D01*
X00676000Y02111805D02*
X00324000Y02111805D01*
X00324000Y02095807D02*
X00676000Y02095807D01*
X00676000Y02079808D02*
X00324000Y02079808D01*
X00324000Y02063810D02*
X00676000Y02063810D01*
X00676000Y02047811D02*
X00324000Y02047811D01*
X00324000Y02031813D02*
X00676000Y02031813D01*
X00676000Y02015814D02*
X00324000Y02015814D01*
X00324000Y01999815D02*
X00676000Y01999815D01*
X00676000Y01983817D02*
X00324000Y01983817D01*
X00324000Y01967818D02*
X00676000Y01967818D01*
X00676000Y01951820D02*
X00324000Y01951820D01*
X00324000Y01935821D02*
X00676000Y01935821D01*
X00676000Y01919823D02*
X00324000Y01919823D01*
X00324000Y01903824D02*
X00676000Y01903824D01*
X00676000Y01887826D02*
X00324000Y01887826D01*
X00276000Y01887826D02*
X00244431Y01887826D01*
X00249791Y01885606D02*
X00234354Y01892000D01*
X00165646Y01892000D01*
X00150209Y01885606D01*
X00138394Y01873791D01*
X00132000Y01858354D01*
X00132000Y01841646D01*
X00138394Y01826209D01*
X00150209Y01814394D01*
X00165646Y01808000D01*
X00234354Y01808000D01*
X00249791Y01814394D01*
X00261606Y01826209D01*
X00268000Y01841646D01*
X00268000Y01858354D01*
X00261606Y01873791D01*
X00249791Y01885606D01*
X00262419Y01871827D02*
X00276000Y01871827D01*
X00276000Y01855829D02*
X00268000Y01855829D01*
X00267248Y01839830D02*
X00276000Y01839830D01*
X00276000Y01823832D02*
X00259229Y01823832D01*
X00276000Y01807833D02*
X00050000Y01807833D01*
X00050000Y01791835D02*
X00165247Y01791835D01*
X00140439Y01775836D02*
X00050000Y01775836D01*
X00050000Y01759838D02*
X00132614Y01759838D01*
X00132000Y01743839D02*
X00050000Y01743839D01*
X00050000Y01727841D02*
X00137718Y01727841D01*
X00156370Y01711842D02*
X00050000Y01711842D01*
X00050000Y01695844D02*
X00211903Y01695844D01*
X00144448Y01679845D02*
X00050000Y01679845D01*
X00050000Y01663846D02*
X00134275Y01663846D01*
X00132000Y01647848D02*
X00050000Y01647848D01*
X00050000Y01631849D02*
X00136058Y01631849D01*
X00148752Y01615851D02*
X00050000Y01615851D01*
X00050000Y01599852D02*
X00216206Y01599852D01*
X00265603Y01535858D02*
X00276000Y01535858D01*
X00276000Y01519860D02*
X00255257Y01519860D01*
X00276000Y01503861D02*
X00050000Y01503861D01*
X00050000Y01487863D02*
X00155658Y01487863D01*
X00150209Y01485606D02*
X00138394Y01473791D01*
X00132000Y01458354D01*
X00132000Y01441646D01*
X00138394Y01426209D01*
X00150209Y01414394D01*
X00165646Y01408000D01*
X00234354Y01408000D01*
X00249791Y01414394D01*
X00261606Y01426209D01*
X00268000Y01441646D01*
X00268000Y01458354D01*
X00261606Y01473791D01*
X00249791Y01485606D01*
X00234354Y01492000D01*
X00165646Y01492000D01*
X00150209Y01485606D01*
X00137596Y01471864D02*
X00050000Y01471864D01*
X00050000Y01455866D02*
X00132000Y01455866D01*
X00132737Y01439867D02*
X00050000Y01439867D01*
X00050000Y01423869D02*
X00140734Y01423869D01*
X00150209Y01385606D02*
X00138394Y01373791D01*
X00132000Y01358354D01*
X00132000Y01341646D01*
X00138394Y01326209D01*
X00150209Y01314394D01*
X00165646Y01308000D01*
X00234354Y01308000D01*
X00249791Y01314394D01*
X00261606Y01326209D01*
X00268000Y01341646D01*
X00268000Y01358354D01*
X00261606Y01373791D01*
X00249791Y01385606D01*
X00234354Y01392000D01*
X00165646Y01392000D01*
X00150209Y01385606D01*
X00140476Y01375873D02*
X00050000Y01375873D01*
X00050000Y01391872D02*
X00165336Y01391872D01*
X00132630Y01359875D02*
X00050000Y01359875D01*
X00050000Y01343876D02*
X00132000Y01343876D01*
X00137703Y01327877D02*
X00050000Y01327877D01*
X00050000Y01311879D02*
X00156281Y01311879D01*
X00165646Y01292000D02*
X00150209Y01285606D01*
X00138394Y01273791D01*
X00132000Y01258354D01*
X00132000Y01241646D01*
X00138394Y01226209D01*
X00150209Y01214394D01*
X00165646Y01208000D01*
X00234354Y01208000D01*
X00249791Y01214394D01*
X00261606Y01226209D01*
X00268000Y01241646D01*
X00268000Y01258354D01*
X00261606Y01273791D01*
X00249791Y01285606D01*
X00234354Y01292000D01*
X00165646Y01292000D01*
X00144485Y01279882D02*
X00050000Y01279882D01*
X00050000Y01295880D02*
X00276000Y01295880D01*
X00276000Y01279882D02*
X00255515Y01279882D01*
X00265710Y01263883D02*
X00276000Y01263883D01*
X00276000Y01247885D02*
X00268000Y01247885D01*
X00263957Y01231886D02*
X00276000Y01231886D01*
X00276000Y01215888D02*
X00251285Y01215888D01*
X00234354Y01192000D02*
X00165646Y01192000D01*
X00150209Y01185606D01*
X00138394Y01173791D01*
X00132000Y01158354D01*
X00132000Y01141646D01*
X00138394Y01126209D01*
X00150209Y01114394D01*
X00165646Y01108000D01*
X00234354Y01108000D01*
X00249791Y01114394D01*
X00261606Y01126209D01*
X00268000Y01141646D01*
X00268000Y01158354D01*
X00261606Y01173791D01*
X00249791Y01185606D01*
X00234354Y01192000D01*
X00251506Y01183891D02*
X00276000Y01183891D01*
X00276000Y01199889D02*
X00050000Y01199889D01*
X00050000Y01183891D02*
X00148494Y01183891D01*
X00135951Y01167892D02*
X00050000Y01167892D01*
X00050000Y01151894D02*
X00132000Y01151894D01*
X00134382Y01135895D02*
X00050000Y01135895D01*
X00050000Y01119897D02*
X00144706Y01119897D01*
X00155747Y01087900D02*
X00050000Y01087900D01*
X00050000Y01103898D02*
X00276000Y01103898D01*
X00276000Y01087900D02*
X00244253Y01087900D01*
X00249791Y01085606D02*
X00234354Y01092000D01*
X00165646Y01092000D01*
X00150209Y01085606D01*
X00138394Y01073791D01*
X00132000Y01058354D01*
X00132000Y01041646D01*
X00138394Y01026209D01*
X00150209Y01014394D01*
X00165646Y01008000D01*
X00234354Y01008000D01*
X00249791Y01014394D01*
X00261606Y01026209D01*
X00268000Y01041646D01*
X00268000Y01058354D01*
X00261606Y01073791D01*
X00249791Y01085606D01*
X00262389Y01071901D02*
X00276000Y01071901D01*
X00276000Y01055903D02*
X00268000Y01055903D01*
X00267278Y01039904D02*
X00276000Y01039904D01*
X00276000Y01023906D02*
X00259302Y01023906D01*
X00276000Y01007907D02*
X00050000Y01007907D01*
X00050000Y00991908D02*
X00165425Y00991908D01*
X00165646Y00992000D02*
X00150209Y00985606D01*
X00138394Y00973791D01*
X00132000Y00958354D01*
X00132000Y00941646D01*
X00138394Y00926209D01*
X00150209Y00914394D01*
X00165646Y00908000D01*
X00234354Y00908000D01*
X00249791Y00914394D01*
X00261606Y00926209D01*
X00268000Y00941646D01*
X00268000Y00958354D01*
X00261606Y00973791D01*
X00249791Y00985606D01*
X00234354Y00992000D01*
X00165646Y00992000D01*
X00140513Y00975910D02*
X00050000Y00975910D01*
X00050000Y00959911D02*
X00132645Y00959911D01*
X00132000Y00943913D02*
X00050000Y00943913D01*
X00050000Y00927914D02*
X00137688Y00927914D01*
X00156192Y00911916D02*
X00050000Y00911916D01*
X00050000Y00895917D02*
X00276000Y00895917D01*
X00276000Y00879919D02*
X00255478Y00879919D01*
X00265694Y00863920D02*
X00276000Y00863920D01*
X00315864Y00831923D02*
X00736027Y00831923D01*
X00732000Y00847922D02*
X00324000Y00847922D01*
X00324000Y00863920D02*
X00734306Y00863920D01*
X00744522Y00879919D02*
X00324000Y00879919D01*
X00324000Y00895917D02*
X00820141Y00895917D01*
X00800000Y00850000D02*
X00850000Y00850000D01*
X00950000Y00750000D01*
X01000000Y00750000D01*
X01029330Y00719934D02*
X01326000Y00719934D01*
X01326000Y00735932D02*
X01042000Y00735932D01*
X01042000Y00751931D02*
X01326000Y00751931D01*
X01321861Y00767929D02*
X01041468Y00767929D01*
X00970669Y00719934D02*
X00864007Y00719934D01*
X00865633Y00735932D02*
X00930127Y00735932D01*
X00914128Y00751931D02*
X00868000Y00751931D01*
X00864034Y00767929D02*
X00898130Y00767929D01*
X00882131Y00783928D02*
X00851469Y00783928D01*
X00866133Y00799926D02*
X00283867Y00799926D01*
X00299866Y00815925D02*
X00748678Y00815925D01*
X00756192Y00911916D02*
X00324000Y00911916D01*
X00324000Y00927914D02*
X00737688Y00927914D01*
X00732000Y00943913D02*
X00324000Y00943913D01*
X00324000Y00959911D02*
X00732645Y00959911D01*
X00740513Y00975910D02*
X00324000Y00975910D01*
X00324000Y00991908D02*
X00765425Y00991908D01*
X00740697Y01023906D02*
X00324000Y01023906D01*
X00324000Y01039904D02*
X00732721Y01039904D01*
X00732000Y01055903D02*
X00324000Y01055903D01*
X00324000Y01071901D02*
X00737611Y01071901D01*
X00834575Y00991908D02*
X00874150Y00991908D01*
X00859487Y00975910D02*
X00890149Y00975910D01*
X00906147Y00959911D02*
X00867355Y00959911D01*
X00868000Y00943913D02*
X00922146Y00943913D01*
X00940604Y00927914D02*
X00862312Y00927914D01*
X00872025Y00911916D02*
X00978687Y00911916D01*
X00900000Y00850000D02*
X00800000Y00950000D01*
X00858152Y01007907D02*
X00324000Y01007907D01*
X00276000Y00991908D02*
X00234575Y00991908D01*
X00259487Y00975910D02*
X00276000Y00975910D01*
X00276000Y00959911D02*
X00267355Y00959911D01*
X00268000Y00943913D02*
X00276000Y00943913D01*
X00276000Y00927914D02*
X00262312Y00927914D01*
X00276000Y00911916D02*
X00243808Y00911916D01*
X00144522Y00879919D02*
X00050000Y00879919D01*
X00050000Y00863920D02*
X00134306Y00863920D01*
X00132000Y00847922D02*
X00050000Y00847922D01*
X00050000Y00831923D02*
X00136027Y00831923D01*
X00148678Y00815925D02*
X00050000Y00815925D01*
X00050000Y01023906D02*
X00140697Y01023906D01*
X00132721Y01039904D02*
X00050000Y01039904D01*
X00050000Y01055903D02*
X00132000Y01055903D01*
X00137611Y01071901D02*
X00050000Y01071901D01*
X00050000Y01215888D02*
X00148715Y01215888D01*
X00136042Y01231886D02*
X00050000Y01231886D01*
X00050000Y01247885D02*
X00132000Y01247885D01*
X00134290Y01263883D02*
X00050000Y01263883D01*
X00050000Y01407870D02*
X00276000Y01407870D01*
X00276000Y01391872D02*
X00234664Y01391872D01*
X00259524Y01375873D02*
X00276000Y01375873D01*
X00276000Y01359875D02*
X00267370Y01359875D01*
X00268000Y01343876D02*
X00276000Y01343876D01*
X00276000Y01327877D02*
X00262297Y01327877D01*
X00276000Y01311879D02*
X00243719Y01311879D01*
X00324000Y01263883D02*
X00734290Y01263883D01*
X00732000Y01247885D02*
X00324000Y01247885D01*
X00324000Y01231886D02*
X00736042Y01231886D01*
X00748715Y01215888D02*
X00324000Y01215888D01*
X00276000Y01167892D02*
X00264049Y01167892D01*
X00268000Y01151894D02*
X00276000Y01151894D01*
X00276000Y01135895D02*
X00265618Y01135895D01*
X00255294Y01119897D02*
X00276000Y01119897D01*
X00276000Y01423869D02*
X00259266Y01423869D01*
X00267263Y01439867D02*
X00276000Y01439867D01*
X00276000Y01455866D02*
X00268000Y01455866D01*
X00262404Y01471864D02*
X00276000Y01471864D01*
X00276000Y01487863D02*
X00244342Y01487863D01*
X00144743Y01519860D02*
X00050000Y01519860D01*
X00050000Y01535858D02*
X00134397Y01535858D01*
X00132000Y01551857D02*
X00050000Y01551857D01*
X00050000Y01567855D02*
X00135936Y01567855D01*
X00148457Y01583854D02*
X00050000Y01583854D01*
X00234753Y01791835D02*
X00276000Y01791835D01*
X00276000Y01775836D02*
X00259561Y01775836D01*
X00267386Y01759838D02*
X00275897Y01759838D01*
X00140771Y01823832D02*
X00050000Y01823832D01*
X00050000Y01839830D02*
X00132752Y01839830D01*
X00132000Y01855829D02*
X00050000Y01855829D01*
X00050000Y01871827D02*
X00137581Y01871827D01*
X00155569Y01887826D02*
X00050000Y01887826D01*
X00050000Y01903824D02*
X00276000Y01903824D01*
X00276000Y01919823D02*
X00255220Y01919823D01*
X00249791Y01914394D02*
X00261606Y01926209D01*
X00268000Y01941646D01*
X00268000Y01958354D01*
X00261606Y01973791D01*
X00249791Y01985606D01*
X00234354Y01992000D01*
X00165646Y01992000D01*
X00150209Y01985606D01*
X00138394Y01973791D01*
X00132000Y01958354D01*
X00132000Y01941646D01*
X00138394Y01926209D01*
X00150209Y01914394D01*
X00165646Y01908000D01*
X00234354Y01908000D01*
X00249791Y01914394D01*
X00265587Y01935821D02*
X00276000Y01935821D01*
X00276000Y01951820D02*
X00268000Y01951820D01*
X00264080Y01967818D02*
X00276000Y01967818D01*
X00276000Y01983817D02*
X00251580Y01983817D01*
X00276000Y01999815D02*
X00050000Y01999815D01*
X00050000Y01983817D02*
X00148420Y01983817D01*
X00135920Y01967818D02*
X00050000Y01967818D01*
X00050000Y01951820D02*
X00132000Y01951820D01*
X00134412Y01935821D02*
X00050000Y01935821D01*
X00050000Y01919823D02*
X00144780Y01919823D01*
X00165646Y02008000D02*
X00150209Y02014394D01*
X00138394Y02026209D01*
X00132000Y02041646D01*
X00132000Y02058354D01*
X00138394Y02073791D01*
X00150209Y02085606D01*
X00165646Y02092000D01*
X00234354Y02092000D01*
X00249791Y02085606D01*
X00261606Y02073791D01*
X00268000Y02058354D01*
X00268000Y02041646D01*
X00261606Y02026209D01*
X00249791Y02014394D01*
X00234354Y02008000D01*
X00165646Y02008000D01*
X00148789Y02015814D02*
X00050000Y02015814D01*
X00050000Y02031813D02*
X00136073Y02031813D01*
X00132000Y02047811D02*
X00050000Y02047811D01*
X00050000Y02063810D02*
X00134260Y02063810D01*
X00144411Y02079808D02*
X00050000Y02079808D01*
X00050000Y02095807D02*
X00276000Y02095807D01*
X00276000Y02111805D02*
X00243541Y02111805D01*
X00249791Y02114394D02*
X00234354Y02108000D01*
X00165646Y02108000D01*
X00150209Y02114394D01*
X00138394Y02126209D01*
X00132000Y02141646D01*
X00132000Y02158354D01*
X00138394Y02173791D01*
X00150209Y02185606D01*
X00165646Y02192000D01*
X00234354Y02192000D01*
X00249791Y02185606D01*
X00261606Y02173791D01*
X00268000Y02158354D01*
X00268000Y02141646D01*
X00261606Y02126209D01*
X00249791Y02114394D01*
X00262266Y02127804D02*
X00276000Y02127804D01*
X00276000Y02143802D02*
X00268000Y02143802D01*
X00267401Y02159801D02*
X00276000Y02159801D01*
X00276000Y02175799D02*
X00259598Y02175799D01*
X00276000Y02191798D02*
X00234842Y02191798D01*
X00234354Y02208000D02*
X00249791Y02214394D01*
X00261606Y02226209D01*
X00268000Y02241646D01*
X00268000Y02258354D01*
X00261606Y02273791D01*
X00249791Y02285606D01*
X00234354Y02292000D01*
X00165646Y02292000D01*
X00150209Y02285606D01*
X00138394Y02273791D01*
X00132000Y02258354D01*
X00132000Y02241646D01*
X00138394Y02226209D01*
X00150209Y02214394D01*
X00165646Y02208000D01*
X00234354Y02208000D01*
X00259192Y02223795D02*
X00276000Y02223795D01*
X00276000Y02239793D02*
X00267233Y02239793D01*
X00268000Y02255792D02*
X00276000Y02255792D01*
X00276000Y02271790D02*
X00262435Y02271790D01*
X00276000Y02287789D02*
X00244521Y02287789D01*
X00234354Y02308000D02*
X00249791Y02314394D01*
X00261606Y02326209D01*
X00268000Y02341646D01*
X00268000Y02358354D01*
X00261606Y02373791D01*
X00249791Y02385606D01*
X00234354Y02392000D01*
X00165646Y02392000D01*
X00150209Y02385606D01*
X00138394Y02373791D01*
X00132000Y02358354D01*
X00132000Y02341646D01*
X00138394Y02326209D01*
X00150209Y02314394D01*
X00165646Y02308000D01*
X00234354Y02308000D01*
X00255183Y02319786D02*
X00276000Y02319786D01*
X00276000Y02335784D02*
X00265572Y02335784D01*
X00268000Y02351783D02*
X00276000Y02351783D01*
X00276000Y02367781D02*
X00264095Y02367781D01*
X00276000Y02383780D02*
X00251617Y02383780D01*
X00276000Y02399779D02*
X00050000Y02399779D01*
X00050000Y02415777D02*
X00148826Y02415777D01*
X00150209Y02414394D02*
X00165646Y02408000D01*
X00234354Y02408000D01*
X00249791Y02414394D01*
X00261606Y02426209D01*
X00268000Y02441646D01*
X00268000Y02458354D01*
X00261606Y02473791D01*
X00249791Y02485606D01*
X00234354Y02492000D01*
X00165646Y02492000D01*
X00150209Y02485606D01*
X00138394Y02473791D01*
X00132000Y02458354D01*
X00132000Y02441646D01*
X00138394Y02426209D01*
X00150209Y02414394D01*
X00136088Y02431776D02*
X00050000Y02431776D01*
X00050000Y02447774D02*
X00132000Y02447774D01*
X00134244Y02463773D02*
X00050000Y02463773D01*
X00050000Y02479771D02*
X00144374Y02479771D01*
X00156548Y02511768D02*
X00050000Y02511768D01*
X00050000Y02495770D02*
X00276000Y02495770D01*
X00276000Y02511768D02*
X00243452Y02511768D01*
X00249791Y02514394D02*
X00234354Y02508000D01*
X00165646Y02508000D01*
X00150209Y02514394D01*
X00138394Y02526209D01*
X00132000Y02541646D01*
X00132000Y02558354D01*
X00138394Y02573791D01*
X00150209Y02585606D01*
X00165646Y02592000D01*
X00234354Y02592000D01*
X00249791Y02585606D01*
X00261606Y02573791D01*
X00268000Y02558354D01*
X00268000Y02541646D01*
X00261606Y02526209D01*
X00249791Y02514394D01*
X00262251Y02527767D02*
X00276000Y02527767D01*
X00276000Y02543765D02*
X00268000Y02543765D01*
X00267416Y02559764D02*
X00276000Y02559764D01*
X00276000Y02575762D02*
X00259634Y02575762D01*
X00276000Y02591761D02*
X00234931Y02591761D01*
X00234354Y02608000D02*
X00249791Y02614394D01*
X00261606Y02626209D01*
X00268000Y02641646D01*
X00268000Y02658354D01*
X00261606Y02673791D01*
X00249791Y02685606D01*
X00234354Y02692000D01*
X00165646Y02692000D01*
X00150209Y02685606D01*
X00138394Y02673791D01*
X00132000Y02658354D01*
X00132000Y02641646D01*
X00138394Y02626209D01*
X00150209Y02614394D01*
X00165646Y02608000D01*
X00234354Y02608000D01*
X00259155Y02623758D02*
X00276000Y02623758D01*
X00276000Y02639756D02*
X00267217Y02639756D01*
X00268000Y02655755D02*
X00276000Y02655755D01*
X00276000Y02671753D02*
X00262450Y02671753D01*
X00276000Y02687752D02*
X00244610Y02687752D01*
X00276000Y02703750D02*
X00050000Y02703750D01*
X00050000Y02687752D02*
X00155390Y02687752D01*
X00137550Y02671753D02*
X00050000Y02671753D01*
X00050000Y02655755D02*
X00132000Y02655755D01*
X00132782Y02639756D02*
X00050000Y02639756D01*
X00050000Y02623758D02*
X00140845Y02623758D01*
X00165069Y02591761D02*
X00050000Y02591761D01*
X00050000Y02607759D02*
X00276000Y02607759D01*
X00140365Y02575762D02*
X00050000Y02575762D01*
X00050000Y02559764D02*
X00132584Y02559764D01*
X00132000Y02543765D02*
X00050000Y02543765D01*
X00050000Y02527767D02*
X00137749Y02527767D01*
X00255626Y02479771D02*
X00276000Y02479771D01*
X00276000Y02463773D02*
X00265756Y02463773D01*
X00268000Y02447774D02*
X00276000Y02447774D01*
X00276000Y02431776D02*
X00263912Y02431776D01*
X00276000Y02415777D02*
X00251174Y02415777D01*
X00148383Y02383780D02*
X00050000Y02383780D01*
X00050000Y02367781D02*
X00135905Y02367781D01*
X00132000Y02351783D02*
X00050000Y02351783D01*
X00050000Y02335784D02*
X00134428Y02335784D01*
X00144817Y02319786D02*
X00050000Y02319786D01*
X00050000Y02303787D02*
X00276000Y02303787D01*
X00324000Y02271790D02*
X00676000Y02271790D01*
X00676000Y02255792D02*
X00324000Y02255792D01*
X00324000Y02239793D02*
X00676000Y02239793D01*
X00676000Y02223795D02*
X00324000Y02223795D01*
X00276000Y02207796D02*
X00050000Y02207796D01*
X00050000Y02191798D02*
X00165158Y02191798D01*
X00140402Y02175799D02*
X00050000Y02175799D01*
X00050000Y02159801D02*
X00132599Y02159801D01*
X00132000Y02143802D02*
X00050000Y02143802D01*
X00050000Y02127804D02*
X00137733Y02127804D01*
X00156459Y02111805D02*
X00050000Y02111805D01*
X00050000Y02223795D02*
X00140808Y02223795D01*
X00132767Y02239793D02*
X00050000Y02239793D01*
X00050000Y02255792D02*
X00132000Y02255792D01*
X00137565Y02271790D02*
X00050000Y02271790D01*
X00050000Y02287789D02*
X00155479Y02287789D01*
X00255589Y02079808D02*
X00276000Y02079808D01*
X00276000Y02063810D02*
X00265740Y02063810D01*
X00268000Y02047811D02*
X00276000Y02047811D01*
X00276000Y02031813D02*
X00263927Y02031813D01*
X00276000Y02015814D02*
X00251211Y02015814D01*
X00724000Y02015814D02*
X00748789Y02015814D01*
X00736073Y02031813D02*
X00724000Y02031813D01*
X00724000Y02047811D02*
X00732000Y02047811D01*
X00734260Y02063810D02*
X00724000Y02063810D01*
X00724000Y02079808D02*
X00744411Y02079808D01*
X00843541Y02111805D02*
X00978913Y02111805D01*
X00993863Y02127804D02*
X00862266Y02127804D01*
X00868000Y02143802D02*
X01009861Y02143802D01*
X01025860Y02159801D02*
X00867401Y02159801D01*
X00859598Y02175799D02*
X01041858Y02175799D01*
X01057857Y02191798D02*
X00834842Y02191798D01*
X00936020Y02223795D02*
X00966808Y02223795D01*
X00958000Y02239793D02*
X00944000Y02239793D01*
X00944000Y02255792D02*
X00958000Y02255792D01*
X00962394Y02271790D02*
X00940435Y02271790D01*
X00900000Y02079808D02*
X00899999Y02079808D01*
X00899999Y02063810D02*
X00900000Y02063810D01*
X00867583Y02079808D02*
X00855589Y02079808D01*
X00851211Y02015814D02*
X00871961Y02015814D01*
X01387237Y01727841D02*
X01542444Y01727841D01*
X01546453Y01631849D02*
X01391246Y01631849D01*
X01000000Y01150000D02*
X00900000Y01250000D01*
X00800000Y01250000D01*
X00800000Y01150000D02*
X00900000Y01050000D01*
X01000000Y01050000D01*
X00880006Y00703935D02*
X01326000Y00703935D01*
X01329019Y00687937D02*
X00896004Y00687937D01*
X00912003Y00671938D02*
X03339008Y00671938D01*
X03339008Y00687937D02*
X02771877Y00687937D01*
X02787876Y00703935D02*
X03339008Y00703935D01*
X03339008Y00719934D02*
X02803875Y00719934D01*
X02819873Y00735932D02*
X03339008Y00735932D01*
X03339008Y00751931D02*
X02835872Y00751931D01*
X02851870Y00767929D02*
X03339008Y00767929D01*
X03339008Y00783928D02*
X02867869Y00783928D01*
X02883867Y00799926D02*
X03339008Y00799926D01*
X03339008Y00815925D02*
X03251322Y00815925D01*
X03263973Y00831923D02*
X03339008Y00831923D01*
X03339008Y00847922D02*
X03268000Y00847922D01*
X03265694Y00863920D02*
X03339008Y00863920D01*
X03339008Y00527951D02*
X00630485Y00527951D01*
X00618007Y00511953D02*
X03339008Y00511953D01*
X02948678Y00815925D02*
X02899866Y00815925D01*
X02915864Y00831923D02*
X02936027Y00831923D01*
X02932000Y00847922D02*
X02931863Y00847922D01*
X02895978Y00879919D02*
X02887765Y00879919D01*
X02892575Y00895917D02*
X02911976Y00895917D01*
X02927975Y00911916D02*
X02891147Y00911916D01*
X02882295Y00927914D02*
X02937688Y00927914D01*
X02879979Y00863920D02*
X02874130Y00863920D01*
X02863981Y00847922D02*
X02831863Y00847922D01*
X02815864Y00831923D02*
X02847982Y00831923D01*
X02831984Y00815925D02*
X02799866Y00815925D01*
X02783867Y00799926D02*
X02815985Y00799926D01*
X02799987Y00783928D02*
X02767869Y00783928D01*
X02751870Y00767929D02*
X02783988Y00767929D01*
X02767990Y00751931D02*
X02742575Y00751931D01*
X02740255Y00735932D02*
X02751991Y00735932D01*
X02700000Y00750000D02*
X02850000Y00900000D01*
X02606192Y00911916D02*
X02493808Y00911916D01*
X02512312Y00927914D02*
X02587688Y00927914D01*
X02582000Y00943913D02*
X02518000Y00943913D01*
X02517355Y00959911D02*
X02582645Y00959911D01*
X02590513Y00975910D02*
X02509487Y00975910D01*
X02484575Y00991908D02*
X02615425Y00991908D01*
X02590697Y01023906D02*
X02509302Y01023906D01*
X02517278Y01039904D02*
X02582721Y01039904D01*
X02582000Y01055903D02*
X02518000Y01055903D01*
X02517889Y01071901D02*
X02512389Y01071901D01*
X02519836Y01135895D02*
X02525685Y01135895D01*
X02535835Y01151894D02*
X02582000Y01151894D01*
X02584382Y01135895D02*
X02574314Y01135895D01*
X02587841Y01119897D02*
X02594706Y01119897D01*
X02585951Y01167892D02*
X02551833Y01167892D01*
X02450000Y01250000D02*
X02500000Y01300000D01*
X02500000Y01350000D01*
X02406192Y00911916D02*
X02395857Y00911916D01*
X02505478Y00879919D02*
X02594522Y00879919D01*
X02584306Y00863920D02*
X02515694Y00863920D01*
X02518000Y00847922D02*
X02582000Y00847922D01*
X02586027Y00831923D02*
X02513973Y00831923D01*
X02501322Y00815925D02*
X02598678Y00815925D01*
X01625870Y00863920D02*
X01574130Y00863920D01*
X01587765Y00879919D02*
X01612235Y00879919D01*
X01607425Y00895917D02*
X01592575Y00895917D01*
X01591147Y00911916D02*
X01608853Y00911916D01*
X01550000Y00900000D02*
X01400000Y00750000D01*
X01400000Y00950000D02*
X01450000Y01000000D01*
X01479654Y00963595D02*
X01479654Y00963595D01*
X00860119Y00655939D02*
X00378001Y00655939D01*
X00359752Y00671938D02*
X00844121Y00671938D01*
X00543000Y00559948D02*
X00457000Y00559948D01*
X00457000Y00543950D02*
X00543000Y00543950D01*
X00547514Y00527951D02*
X00452485Y00527951D01*
X00440007Y00511953D02*
X00559993Y00511953D01*
X01427195Y02191798D02*
X01472805Y02191798D01*
X01476209Y02188394D02*
X01491646Y02182000D01*
X01508354Y02182000D01*
X01523791Y02188394D01*
X01535606Y02200209D01*
X01542000Y02215646D01*
X01542000Y02284354D01*
X01535606Y02299791D01*
X01523791Y02311606D01*
X01508354Y02318000D01*
X01491646Y02318000D01*
X01476209Y02311606D01*
X01464394Y02299791D01*
X01458000Y02284354D01*
X01458000Y02215646D01*
X01464394Y02200209D01*
X01476209Y02188394D01*
X01461251Y02207796D02*
X01438749Y02207796D01*
X01442000Y02223795D02*
X01458000Y02223795D01*
X01458000Y02239793D02*
X01442000Y02239793D01*
X01442000Y02255792D02*
X01458000Y02255792D01*
X01458000Y02271790D02*
X01442000Y02271790D01*
X01440577Y02287789D02*
X01459423Y02287789D01*
X01468391Y02303787D02*
X01431609Y02303787D01*
X01531609Y02303787D02*
X01565802Y02303787D01*
X01557566Y02287789D02*
X01540577Y02287789D01*
X01542000Y02271790D02*
X01556000Y02271790D01*
X01556000Y02255792D02*
X01542000Y02255792D01*
X01542000Y02239793D02*
X01556000Y02239793D01*
X01556000Y02223795D02*
X01542000Y02223795D01*
X01538749Y02207796D02*
X01559000Y02207796D01*
X01569977Y02191798D02*
X01527195Y02191798D01*
X01599999Y02191798D02*
X01600000Y02191798D01*
X01599999Y02207796D02*
X01600000Y02207796D01*
X01599999Y02223795D02*
X01600000Y02223795D01*
X01599999Y02239793D02*
X01600000Y02239793D01*
X00508333Y02927730D02*
X00491667Y02927730D01*
X00419399Y02911731D02*
X00050000Y02911731D01*
X00050000Y02895733D02*
X00411792Y02895733D01*
X00395793Y02879734D02*
X00050000Y02879734D01*
X00050000Y02863736D02*
X00379795Y02863736D01*
X00363796Y02847737D02*
X00050000Y02847737D01*
X00050000Y02831739D02*
X00347798Y02831739D01*
X00331799Y02815740D02*
X00050000Y02815740D01*
X00050000Y02799742D02*
X00315801Y02799742D01*
X00299802Y02783743D02*
X00050000Y02783743D01*
X00050000Y02767745D02*
X00283804Y02767745D01*
X00276000Y02751746D02*
X00050000Y02751746D01*
X00050000Y02735748D02*
X00276000Y02735748D01*
X00276000Y02719749D02*
X00050000Y02719749D01*
D15*
X01000000Y02500000D03*
X01100000Y02350000D03*
X01450000Y01800000D03*
X01800000Y01300000D03*
X01650000Y01250000D03*
X01550000Y01150000D03*
X01650000Y01050000D03*
X01700000Y00950000D03*
X01650000Y00900000D03*
X01550000Y00900000D03*
X01350000Y00800000D03*
X02250000Y00900000D03*
X02550000Y01100000D03*
X02550000Y01250000D03*
X02500000Y01350000D03*
X02350000Y01300000D03*
X02300000Y01200000D03*
X02750000Y01050000D03*
X02800000Y01100000D03*
X02850000Y00900000D03*
X02700000Y00750000D03*
M02*
