%
M48
M72
T01C0.03200
T02C0.03543
T03C0.04000
%
T01
X21256Y66256
X21256Y76256
X21256Y86256
X21256Y96256
X21256Y106256
X21256Y116256
X21256Y126256
X21256Y136256
X21256Y146256
X21256Y156256
X21256Y166256
X21256Y176256
X21256Y186256
X21256Y196256
X21256Y206256
X21256Y216256
X21256Y226256
X21256Y236256
X21256Y246256
X21256Y256256
X47256Y281256
X55256Y281256
X81256Y256256
X81256Y246256
X81256Y236256
X81256Y226256
X81256Y216256
X91256Y216256
X101256Y216256
X101256Y196256
X91256Y196256
X81256Y196256
X81256Y206256
X81256Y186256
X81256Y176256
X81256Y166256
X81256Y156256
X81256Y146256
X81256Y136256
X81256Y126256
X81256Y116256
X81256Y106256
X81256Y96256
X81256Y86256
X81256Y76256
X81256Y66256
X101256Y66256
X101256Y76256
X101256Y86256
X101256Y96256
X101256Y106256
X101256Y116256
X101256Y131256
X96256Y146256
X96256Y156256
X96256Y166256
X96256Y176256
X136256Y176256
X136256Y166256
X136256Y156256
X136256Y146256
X141256Y131256
X141256Y116256
X141256Y106256
X141256Y96256
X141256Y86256
X141256Y76256
X141256Y66256
X141256Y51256
X101256Y51256
X196256Y76256
X196256Y86256
X196256Y96256
X196256Y106256
X196256Y116256
X216256Y116256
X216256Y106256
X216256Y96256
X216256Y86256
X216256Y76256
X246256Y76256
X246256Y86256
X246256Y96256
X246256Y106256
X246256Y116256
X266256Y116256
X266256Y106256
X266256Y96256
X266256Y86256
X266256Y76256
X301256Y76256
X301256Y86256
X301256Y96256
X301256Y106256
X301256Y116256
X321256Y116256
X321256Y106256
X321256Y96256
X321256Y86256
X321256Y76256
X161256Y141256
X161256Y151256
X161256Y161256
X161256Y186256
X151256Y186256
X141256Y186256
X141256Y216256
X151256Y216256
X161256Y216256
X126256Y236256
X126256Y246256
T02
X111256Y226256
X101256Y241256
X146256Y171256
X181256Y121256
X166256Y116256
X156256Y106256
X166256Y96256
X171256Y86256
X166256Y81256
X156256Y81256
X136256Y71256
X226256Y81256
X256256Y101256
X256256Y116256
X251256Y126256
X236256Y121256
X231256Y111256
X276256Y96256
X281256Y101256
X286256Y81256
X271256Y66256
T03
X42356Y23456
X60156Y23456
X60156Y49056
X42356Y49056
M30
