G75*
%MOIN*%
%OFA0B0*%
%FSLAX26Y26*%
%IPPOS*%
%LPD*%
%AMOC8*
5,1,8,0,0,1.08239X$1,22.5*
%
%ADD10C,0.000000*%
%ADD11C,0.005118*%
%ADD12C,0.006000*%
%ADD13C,0.005000*%
%ADD14C,0.010000*%
%ADD15C,0.007000*%
%ADD16R,0.034000X0.024000*%
D10*
X00000000Y00100000D02*
X00000000Y03099606D01*
X03387008Y03099606D01*
X03387008Y00100000D01*
X00000000Y00100000D01*
D11*
X00000000Y03100000D02*
X00000000Y03326772D01*
X00002559Y03250000D02*
X00102362Y03239764D01*
X00102362Y03237431D02*
X00002559Y03250000D01*
X00102362Y03260236D01*
X00102362Y03262569D02*
X00102362Y03237431D01*
X00102362Y03244882D02*
X00002559Y03250000D01*
X00102362Y03255118D01*
X00102362Y03262569D02*
X00002559Y03250000D01*
X03384449Y03250000D01*
X03284646Y03239764D01*
X03284646Y03237431D02*
X03384449Y03250000D01*
X03284646Y03260236D01*
X03284646Y03262569D02*
X03284646Y03237431D01*
X03284646Y03244882D02*
X03384449Y03250000D01*
X03284646Y03255118D01*
X03284646Y03262569D02*
X03384449Y03250000D01*
X03387008Y03326772D02*
X03387008Y03099606D01*
X03676772Y03099606D01*
X03600000Y03097047D02*
X03610236Y02997244D01*
X03612569Y02997244D02*
X03600000Y03097047D01*
X03589764Y02997244D01*
X03587431Y02997244D02*
X03612569Y02997244D01*
X03605118Y02997244D02*
X03600000Y03097047D01*
X03594882Y02997244D01*
X03587431Y02997244D02*
X03600000Y03097047D01*
X03600000Y00102559D01*
X03610236Y00202362D01*
X03612569Y00202362D02*
X03600000Y00102559D01*
X03589764Y00202362D01*
X03587431Y00202362D02*
X03612569Y00202362D01*
X03605118Y00202362D02*
X03600000Y00102559D01*
X03594882Y00202362D01*
X03587431Y00202362D02*
X03600000Y00102559D01*
X03676772Y00100000D02*
X03387008Y00100000D01*
D12*
X03250000Y00800000D02*
X02950000Y00800000D01*
X02950000Y01275000D01*
X02975000Y01300000D01*
X03250000Y01300000D01*
X03250000Y00800000D01*
X02700000Y00800000D02*
X02700000Y01300000D01*
X02425000Y01300000D01*
X02400000Y01275000D01*
X02400000Y00800000D01*
X02700000Y00800000D01*
X02200000Y00800000D02*
X02200000Y01300000D01*
X01925000Y01300000D01*
X01900000Y01275000D01*
X01900000Y00800000D01*
X02200000Y00800000D01*
X01325000Y00785000D02*
X01325000Y00715000D01*
X01324997Y00714758D01*
X01324988Y00714517D01*
X01324974Y00714276D01*
X01324953Y00714035D01*
X01324927Y00713795D01*
X01324895Y00713555D01*
X01324857Y00713316D01*
X01324814Y00713079D01*
X01324764Y00712842D01*
X01324709Y00712607D01*
X01324649Y00712373D01*
X01324582Y00712141D01*
X01324511Y00711910D01*
X01324433Y00711681D01*
X01324350Y00711454D01*
X01324262Y00711229D01*
X01324168Y00711006D01*
X01324069Y00710786D01*
X01323964Y00710568D01*
X01323855Y00710353D01*
X01323740Y00710140D01*
X01323620Y00709930D01*
X01323495Y00709724D01*
X01323365Y00709520D01*
X01323230Y00709319D01*
X01323090Y00709122D01*
X01322946Y00708928D01*
X01322797Y00708738D01*
X01322643Y00708552D01*
X01322485Y00708369D01*
X01322323Y00708190D01*
X01322156Y00708015D01*
X01321985Y00707844D01*
X01321810Y00707677D01*
X01321631Y00707515D01*
X01321448Y00707357D01*
X01321262Y00707203D01*
X01321072Y00707054D01*
X01320878Y00706910D01*
X01320681Y00706770D01*
X01320480Y00706635D01*
X01320276Y00706505D01*
X01320070Y00706380D01*
X01319860Y00706260D01*
X01319647Y00706145D01*
X01319432Y00706036D01*
X01319214Y00705931D01*
X01318994Y00705832D01*
X01318771Y00705738D01*
X01318546Y00705650D01*
X01318319Y00705567D01*
X01318090Y00705489D01*
X01317859Y00705418D01*
X01317627Y00705351D01*
X01317393Y00705291D01*
X01317158Y00705236D01*
X01316921Y00705186D01*
X01316684Y00705143D01*
X01316445Y00705105D01*
X01316205Y00705073D01*
X01315965Y00705047D01*
X01315724Y00705026D01*
X01315483Y00705012D01*
X01315242Y00705003D01*
X01315000Y00705000D01*
X01300000Y00705000D01*
X01295000Y00710000D01*
X01105000Y00710000D01*
X01100000Y00705000D01*
X01085000Y00705000D01*
X01084758Y00705003D01*
X01084517Y00705012D01*
X01084276Y00705026D01*
X01084035Y00705047D01*
X01083795Y00705073D01*
X01083555Y00705105D01*
X01083316Y00705143D01*
X01083079Y00705186D01*
X01082842Y00705236D01*
X01082607Y00705291D01*
X01082373Y00705351D01*
X01082141Y00705418D01*
X01081910Y00705489D01*
X01081681Y00705567D01*
X01081454Y00705650D01*
X01081229Y00705738D01*
X01081006Y00705832D01*
X01080786Y00705931D01*
X01080568Y00706036D01*
X01080353Y00706145D01*
X01080140Y00706260D01*
X01079930Y00706380D01*
X01079724Y00706505D01*
X01079520Y00706635D01*
X01079319Y00706770D01*
X01079122Y00706910D01*
X01078928Y00707054D01*
X01078738Y00707203D01*
X01078552Y00707357D01*
X01078369Y00707515D01*
X01078190Y00707677D01*
X01078015Y00707844D01*
X01077844Y00708015D01*
X01077677Y00708190D01*
X01077515Y00708369D01*
X01077357Y00708552D01*
X01077203Y00708738D01*
X01077054Y00708928D01*
X01076910Y00709122D01*
X01076770Y00709319D01*
X01076635Y00709520D01*
X01076505Y00709724D01*
X01076380Y00709930D01*
X01076260Y00710140D01*
X01076145Y00710353D01*
X01076036Y00710568D01*
X01075931Y00710786D01*
X01075832Y00711006D01*
X01075738Y00711229D01*
X01075650Y00711454D01*
X01075567Y00711681D01*
X01075489Y00711910D01*
X01075418Y00712141D01*
X01075351Y00712373D01*
X01075291Y00712607D01*
X01075236Y00712842D01*
X01075186Y00713079D01*
X01075143Y00713316D01*
X01075105Y00713555D01*
X01075073Y00713795D01*
X01075047Y00714035D01*
X01075026Y00714276D01*
X01075012Y00714517D01*
X01075003Y00714758D01*
X01075000Y00715000D01*
X01075000Y00785000D01*
X01075003Y00785242D01*
X01075012Y00785483D01*
X01075026Y00785724D01*
X01075047Y00785965D01*
X01075073Y00786205D01*
X01075105Y00786445D01*
X01075143Y00786684D01*
X01075186Y00786921D01*
X01075236Y00787158D01*
X01075291Y00787393D01*
X01075351Y00787627D01*
X01075418Y00787859D01*
X01075489Y00788090D01*
X01075567Y00788319D01*
X01075650Y00788546D01*
X01075738Y00788771D01*
X01075832Y00788994D01*
X01075931Y00789214D01*
X01076036Y00789432D01*
X01076145Y00789647D01*
X01076260Y00789860D01*
X01076380Y00790070D01*
X01076505Y00790276D01*
X01076635Y00790480D01*
X01076770Y00790681D01*
X01076910Y00790878D01*
X01077054Y00791072D01*
X01077203Y00791262D01*
X01077357Y00791448D01*
X01077515Y00791631D01*
X01077677Y00791810D01*
X01077844Y00791985D01*
X01078015Y00792156D01*
X01078190Y00792323D01*
X01078369Y00792485D01*
X01078552Y00792643D01*
X01078738Y00792797D01*
X01078928Y00792946D01*
X01079122Y00793090D01*
X01079319Y00793230D01*
X01079520Y00793365D01*
X01079724Y00793495D01*
X01079930Y00793620D01*
X01080140Y00793740D01*
X01080353Y00793855D01*
X01080568Y00793964D01*
X01080786Y00794069D01*
X01081006Y00794168D01*
X01081229Y00794262D01*
X01081454Y00794350D01*
X01081681Y00794433D01*
X01081910Y00794511D01*
X01082141Y00794582D01*
X01082373Y00794649D01*
X01082607Y00794709D01*
X01082842Y00794764D01*
X01083079Y00794814D01*
X01083316Y00794857D01*
X01083555Y00794895D01*
X01083795Y00794927D01*
X01084035Y00794953D01*
X01084276Y00794974D01*
X01084517Y00794988D01*
X01084758Y00794997D01*
X01085000Y00795000D01*
X01100000Y00795000D01*
X01105000Y00790000D01*
X01295000Y00790000D01*
X01300000Y00795000D01*
X01315000Y00795000D01*
X01315242Y00794997D01*
X01315483Y00794988D01*
X01315724Y00794974D01*
X01315965Y00794953D01*
X01316205Y00794927D01*
X01316445Y00794895D01*
X01316684Y00794857D01*
X01316921Y00794814D01*
X01317158Y00794764D01*
X01317393Y00794709D01*
X01317627Y00794649D01*
X01317859Y00794582D01*
X01318090Y00794511D01*
X01318319Y00794433D01*
X01318546Y00794350D01*
X01318771Y00794262D01*
X01318994Y00794168D01*
X01319214Y00794069D01*
X01319432Y00793964D01*
X01319647Y00793855D01*
X01319860Y00793740D01*
X01320070Y00793620D01*
X01320276Y00793495D01*
X01320480Y00793365D01*
X01320681Y00793230D01*
X01320878Y00793090D01*
X01321072Y00792946D01*
X01321262Y00792797D01*
X01321448Y00792643D01*
X01321631Y00792485D01*
X01321810Y00792323D01*
X01321985Y00792156D01*
X01322156Y00791985D01*
X01322323Y00791810D01*
X01322485Y00791631D01*
X01322643Y00791448D01*
X01322797Y00791262D01*
X01322946Y00791072D01*
X01323090Y00790878D01*
X01323230Y00790681D01*
X01323365Y00790480D01*
X01323495Y00790276D01*
X01323620Y00790070D01*
X01323740Y00789860D01*
X01323855Y00789647D01*
X01323964Y00789432D01*
X01324069Y00789214D01*
X01324168Y00788994D01*
X01324262Y00788771D01*
X01324350Y00788546D01*
X01324433Y00788319D01*
X01324511Y00788090D01*
X01324582Y00787859D01*
X01324649Y00787627D01*
X01324709Y00787393D01*
X01324764Y00787158D01*
X01324814Y00786921D01*
X01324857Y00786684D01*
X01324895Y00786445D01*
X01324927Y00786205D01*
X01324953Y00785965D01*
X01324974Y00785724D01*
X01324988Y00785483D01*
X01324997Y00785242D01*
X01325000Y00785000D01*
X01315000Y00805000D02*
X01300000Y00805000D01*
X01295000Y00810000D01*
X01105000Y00810000D01*
X01100000Y00805000D01*
X01085000Y00805000D01*
X01084758Y00805003D01*
X01084517Y00805012D01*
X01084276Y00805026D01*
X01084035Y00805047D01*
X01083795Y00805073D01*
X01083555Y00805105D01*
X01083316Y00805143D01*
X01083079Y00805186D01*
X01082842Y00805236D01*
X01082607Y00805291D01*
X01082373Y00805351D01*
X01082141Y00805418D01*
X01081910Y00805489D01*
X01081681Y00805567D01*
X01081454Y00805650D01*
X01081229Y00805738D01*
X01081006Y00805832D01*
X01080786Y00805931D01*
X01080568Y00806036D01*
X01080353Y00806145D01*
X01080140Y00806260D01*
X01079930Y00806380D01*
X01079724Y00806505D01*
X01079520Y00806635D01*
X01079319Y00806770D01*
X01079122Y00806910D01*
X01078928Y00807054D01*
X01078738Y00807203D01*
X01078552Y00807357D01*
X01078369Y00807515D01*
X01078190Y00807677D01*
X01078015Y00807844D01*
X01077844Y00808015D01*
X01077677Y00808190D01*
X01077515Y00808369D01*
X01077357Y00808552D01*
X01077203Y00808738D01*
X01077054Y00808928D01*
X01076910Y00809122D01*
X01076770Y00809319D01*
X01076635Y00809520D01*
X01076505Y00809724D01*
X01076380Y00809930D01*
X01076260Y00810140D01*
X01076145Y00810353D01*
X01076036Y00810568D01*
X01075931Y00810786D01*
X01075832Y00811006D01*
X01075738Y00811229D01*
X01075650Y00811454D01*
X01075567Y00811681D01*
X01075489Y00811910D01*
X01075418Y00812141D01*
X01075351Y00812373D01*
X01075291Y00812607D01*
X01075236Y00812842D01*
X01075186Y00813079D01*
X01075143Y00813316D01*
X01075105Y00813555D01*
X01075073Y00813795D01*
X01075047Y00814035D01*
X01075026Y00814276D01*
X01075012Y00814517D01*
X01075003Y00814758D01*
X01075000Y00815000D01*
X01075000Y00885000D01*
X01075003Y00885242D01*
X01075012Y00885483D01*
X01075026Y00885724D01*
X01075047Y00885965D01*
X01075073Y00886205D01*
X01075105Y00886445D01*
X01075143Y00886684D01*
X01075186Y00886921D01*
X01075236Y00887158D01*
X01075291Y00887393D01*
X01075351Y00887627D01*
X01075418Y00887859D01*
X01075489Y00888090D01*
X01075567Y00888319D01*
X01075650Y00888546D01*
X01075738Y00888771D01*
X01075832Y00888994D01*
X01075931Y00889214D01*
X01076036Y00889432D01*
X01076145Y00889647D01*
X01076260Y00889860D01*
X01076380Y00890070D01*
X01076505Y00890276D01*
X01076635Y00890480D01*
X01076770Y00890681D01*
X01076910Y00890878D01*
X01077054Y00891072D01*
X01077203Y00891262D01*
X01077357Y00891448D01*
X01077515Y00891631D01*
X01077677Y00891810D01*
X01077844Y00891985D01*
X01078015Y00892156D01*
X01078190Y00892323D01*
X01078369Y00892485D01*
X01078552Y00892643D01*
X01078738Y00892797D01*
X01078928Y00892946D01*
X01079122Y00893090D01*
X01079319Y00893230D01*
X01079520Y00893365D01*
X01079724Y00893495D01*
X01079930Y00893620D01*
X01080140Y00893740D01*
X01080353Y00893855D01*
X01080568Y00893964D01*
X01080786Y00894069D01*
X01081006Y00894168D01*
X01081229Y00894262D01*
X01081454Y00894350D01*
X01081681Y00894433D01*
X01081910Y00894511D01*
X01082141Y00894582D01*
X01082373Y00894649D01*
X01082607Y00894709D01*
X01082842Y00894764D01*
X01083079Y00894814D01*
X01083316Y00894857D01*
X01083555Y00894895D01*
X01083795Y00894927D01*
X01084035Y00894953D01*
X01084276Y00894974D01*
X01084517Y00894988D01*
X01084758Y00894997D01*
X01085000Y00895000D01*
X01100000Y00895000D01*
X01105000Y00890000D01*
X01295000Y00890000D01*
X01300000Y00895000D01*
X01315000Y00895000D01*
X01315242Y00894997D01*
X01315483Y00894988D01*
X01315724Y00894974D01*
X01315965Y00894953D01*
X01316205Y00894927D01*
X01316445Y00894895D01*
X01316684Y00894857D01*
X01316921Y00894814D01*
X01317158Y00894764D01*
X01317393Y00894709D01*
X01317627Y00894649D01*
X01317859Y00894582D01*
X01318090Y00894511D01*
X01318319Y00894433D01*
X01318546Y00894350D01*
X01318771Y00894262D01*
X01318994Y00894168D01*
X01319214Y00894069D01*
X01319432Y00893964D01*
X01319647Y00893855D01*
X01319860Y00893740D01*
X01320070Y00893620D01*
X01320276Y00893495D01*
X01320480Y00893365D01*
X01320681Y00893230D01*
X01320878Y00893090D01*
X01321072Y00892946D01*
X01321262Y00892797D01*
X01321448Y00892643D01*
X01321631Y00892485D01*
X01321810Y00892323D01*
X01321985Y00892156D01*
X01322156Y00891985D01*
X01322323Y00891810D01*
X01322485Y00891631D01*
X01322643Y00891448D01*
X01322797Y00891262D01*
X01322946Y00891072D01*
X01323090Y00890878D01*
X01323230Y00890681D01*
X01323365Y00890480D01*
X01323495Y00890276D01*
X01323620Y00890070D01*
X01323740Y00889860D01*
X01323855Y00889647D01*
X01323964Y00889432D01*
X01324069Y00889214D01*
X01324168Y00888994D01*
X01324262Y00888771D01*
X01324350Y00888546D01*
X01324433Y00888319D01*
X01324511Y00888090D01*
X01324582Y00887859D01*
X01324649Y00887627D01*
X01324709Y00887393D01*
X01324764Y00887158D01*
X01324814Y00886921D01*
X01324857Y00886684D01*
X01324895Y00886445D01*
X01324927Y00886205D01*
X01324953Y00885965D01*
X01324974Y00885724D01*
X01324988Y00885483D01*
X01324997Y00885242D01*
X01325000Y00885000D01*
X01325000Y00815000D01*
X01324997Y00814758D01*
X01324988Y00814517D01*
X01324974Y00814276D01*
X01324953Y00814035D01*
X01324927Y00813795D01*
X01324895Y00813555D01*
X01324857Y00813316D01*
X01324814Y00813079D01*
X01324764Y00812842D01*
X01324709Y00812607D01*
X01324649Y00812373D01*
X01324582Y00812141D01*
X01324511Y00811910D01*
X01324433Y00811681D01*
X01324350Y00811454D01*
X01324262Y00811229D01*
X01324168Y00811006D01*
X01324069Y00810786D01*
X01323964Y00810568D01*
X01323855Y00810353D01*
X01323740Y00810140D01*
X01323620Y00809930D01*
X01323495Y00809724D01*
X01323365Y00809520D01*
X01323230Y00809319D01*
X01323090Y00809122D01*
X01322946Y00808928D01*
X01322797Y00808738D01*
X01322643Y00808552D01*
X01322485Y00808369D01*
X01322323Y00808190D01*
X01322156Y00808015D01*
X01321985Y00807844D01*
X01321810Y00807677D01*
X01321631Y00807515D01*
X01321448Y00807357D01*
X01321262Y00807203D01*
X01321072Y00807054D01*
X01320878Y00806910D01*
X01320681Y00806770D01*
X01320480Y00806635D01*
X01320276Y00806505D01*
X01320070Y00806380D01*
X01319860Y00806260D01*
X01319647Y00806145D01*
X01319432Y00806036D01*
X01319214Y00805931D01*
X01318994Y00805832D01*
X01318771Y00805738D01*
X01318546Y00805650D01*
X01318319Y00805567D01*
X01318090Y00805489D01*
X01317859Y00805418D01*
X01317627Y00805351D01*
X01317393Y00805291D01*
X01317158Y00805236D01*
X01316921Y00805186D01*
X01316684Y00805143D01*
X01316445Y00805105D01*
X01316205Y00805073D01*
X01315965Y00805047D01*
X01315724Y00805026D01*
X01315483Y00805012D01*
X01315242Y00805003D01*
X01315000Y00805000D01*
X01315000Y00905000D02*
X01300000Y00905000D01*
X01295000Y00910000D01*
X01105000Y00910000D01*
X01100000Y00905000D01*
X01085000Y00905000D01*
X01084758Y00905003D01*
X01084517Y00905012D01*
X01084276Y00905026D01*
X01084035Y00905047D01*
X01083795Y00905073D01*
X01083555Y00905105D01*
X01083316Y00905143D01*
X01083079Y00905186D01*
X01082842Y00905236D01*
X01082607Y00905291D01*
X01082373Y00905351D01*
X01082141Y00905418D01*
X01081910Y00905489D01*
X01081681Y00905567D01*
X01081454Y00905650D01*
X01081229Y00905738D01*
X01081006Y00905832D01*
X01080786Y00905931D01*
X01080568Y00906036D01*
X01080353Y00906145D01*
X01080140Y00906260D01*
X01079930Y00906380D01*
X01079724Y00906505D01*
X01079520Y00906635D01*
X01079319Y00906770D01*
X01079122Y00906910D01*
X01078928Y00907054D01*
X01078738Y00907203D01*
X01078552Y00907357D01*
X01078369Y00907515D01*
X01078190Y00907677D01*
X01078015Y00907844D01*
X01077844Y00908015D01*
X01077677Y00908190D01*
X01077515Y00908369D01*
X01077357Y00908552D01*
X01077203Y00908738D01*
X01077054Y00908928D01*
X01076910Y00909122D01*
X01076770Y00909319D01*
X01076635Y00909520D01*
X01076505Y00909724D01*
X01076380Y00909930D01*
X01076260Y00910140D01*
X01076145Y00910353D01*
X01076036Y00910568D01*
X01075931Y00910786D01*
X01075832Y00911006D01*
X01075738Y00911229D01*
X01075650Y00911454D01*
X01075567Y00911681D01*
X01075489Y00911910D01*
X01075418Y00912141D01*
X01075351Y00912373D01*
X01075291Y00912607D01*
X01075236Y00912842D01*
X01075186Y00913079D01*
X01075143Y00913316D01*
X01075105Y00913555D01*
X01075073Y00913795D01*
X01075047Y00914035D01*
X01075026Y00914276D01*
X01075012Y00914517D01*
X01075003Y00914758D01*
X01075000Y00915000D01*
X01075000Y00985000D01*
X01075003Y00985242D01*
X01075012Y00985483D01*
X01075026Y00985724D01*
X01075047Y00985965D01*
X01075073Y00986205D01*
X01075105Y00986445D01*
X01075143Y00986684D01*
X01075186Y00986921D01*
X01075236Y00987158D01*
X01075291Y00987393D01*
X01075351Y00987627D01*
X01075418Y00987859D01*
X01075489Y00988090D01*
X01075567Y00988319D01*
X01075650Y00988546D01*
X01075738Y00988771D01*
X01075832Y00988994D01*
X01075931Y00989214D01*
X01076036Y00989432D01*
X01076145Y00989647D01*
X01076260Y00989860D01*
X01076380Y00990070D01*
X01076505Y00990276D01*
X01076635Y00990480D01*
X01076770Y00990681D01*
X01076910Y00990878D01*
X01077054Y00991072D01*
X01077203Y00991262D01*
X01077357Y00991448D01*
X01077515Y00991631D01*
X01077677Y00991810D01*
X01077844Y00991985D01*
X01078015Y00992156D01*
X01078190Y00992323D01*
X01078369Y00992485D01*
X01078552Y00992643D01*
X01078738Y00992797D01*
X01078928Y00992946D01*
X01079122Y00993090D01*
X01079319Y00993230D01*
X01079520Y00993365D01*
X01079724Y00993495D01*
X01079930Y00993620D01*
X01080140Y00993740D01*
X01080353Y00993855D01*
X01080568Y00993964D01*
X01080786Y00994069D01*
X01081006Y00994168D01*
X01081229Y00994262D01*
X01081454Y00994350D01*
X01081681Y00994433D01*
X01081910Y00994511D01*
X01082141Y00994582D01*
X01082373Y00994649D01*
X01082607Y00994709D01*
X01082842Y00994764D01*
X01083079Y00994814D01*
X01083316Y00994857D01*
X01083555Y00994895D01*
X01083795Y00994927D01*
X01084035Y00994953D01*
X01084276Y00994974D01*
X01084517Y00994988D01*
X01084758Y00994997D01*
X01085000Y00995000D01*
X01100000Y00995000D01*
X01105000Y00990000D01*
X01295000Y00990000D01*
X01300000Y00995000D01*
X01315000Y00995000D01*
X01315242Y00994997D01*
X01315483Y00994988D01*
X01315724Y00994974D01*
X01315965Y00994953D01*
X01316205Y00994927D01*
X01316445Y00994895D01*
X01316684Y00994857D01*
X01316921Y00994814D01*
X01317158Y00994764D01*
X01317393Y00994709D01*
X01317627Y00994649D01*
X01317859Y00994582D01*
X01318090Y00994511D01*
X01318319Y00994433D01*
X01318546Y00994350D01*
X01318771Y00994262D01*
X01318994Y00994168D01*
X01319214Y00994069D01*
X01319432Y00993964D01*
X01319647Y00993855D01*
X01319860Y00993740D01*
X01320070Y00993620D01*
X01320276Y00993495D01*
X01320480Y00993365D01*
X01320681Y00993230D01*
X01320878Y00993090D01*
X01321072Y00992946D01*
X01321262Y00992797D01*
X01321448Y00992643D01*
X01321631Y00992485D01*
X01321810Y00992323D01*
X01321985Y00992156D01*
X01322156Y00991985D01*
X01322323Y00991810D01*
X01322485Y00991631D01*
X01322643Y00991448D01*
X01322797Y00991262D01*
X01322946Y00991072D01*
X01323090Y00990878D01*
X01323230Y00990681D01*
X01323365Y00990480D01*
X01323495Y00990276D01*
X01323620Y00990070D01*
X01323740Y00989860D01*
X01323855Y00989647D01*
X01323964Y00989432D01*
X01324069Y00989214D01*
X01324168Y00988994D01*
X01324262Y00988771D01*
X01324350Y00988546D01*
X01324433Y00988319D01*
X01324511Y00988090D01*
X01324582Y00987859D01*
X01324649Y00987627D01*
X01324709Y00987393D01*
X01324764Y00987158D01*
X01324814Y00986921D01*
X01324857Y00986684D01*
X01324895Y00986445D01*
X01324927Y00986205D01*
X01324953Y00985965D01*
X01324974Y00985724D01*
X01324988Y00985483D01*
X01324997Y00985242D01*
X01325000Y00985000D01*
X01325000Y00915000D01*
X01324997Y00914758D01*
X01324988Y00914517D01*
X01324974Y00914276D01*
X01324953Y00914035D01*
X01324927Y00913795D01*
X01324895Y00913555D01*
X01324857Y00913316D01*
X01324814Y00913079D01*
X01324764Y00912842D01*
X01324709Y00912607D01*
X01324649Y00912373D01*
X01324582Y00912141D01*
X01324511Y00911910D01*
X01324433Y00911681D01*
X01324350Y00911454D01*
X01324262Y00911229D01*
X01324168Y00911006D01*
X01324069Y00910786D01*
X01323964Y00910568D01*
X01323855Y00910353D01*
X01323740Y00910140D01*
X01323620Y00909930D01*
X01323495Y00909724D01*
X01323365Y00909520D01*
X01323230Y00909319D01*
X01323090Y00909122D01*
X01322946Y00908928D01*
X01322797Y00908738D01*
X01322643Y00908552D01*
X01322485Y00908369D01*
X01322323Y00908190D01*
X01322156Y00908015D01*
X01321985Y00907844D01*
X01321810Y00907677D01*
X01321631Y00907515D01*
X01321448Y00907357D01*
X01321262Y00907203D01*
X01321072Y00907054D01*
X01320878Y00906910D01*
X01320681Y00906770D01*
X01320480Y00906635D01*
X01320276Y00906505D01*
X01320070Y00906380D01*
X01319860Y00906260D01*
X01319647Y00906145D01*
X01319432Y00906036D01*
X01319214Y00905931D01*
X01318994Y00905832D01*
X01318771Y00905738D01*
X01318546Y00905650D01*
X01318319Y00905567D01*
X01318090Y00905489D01*
X01317859Y00905418D01*
X01317627Y00905351D01*
X01317393Y00905291D01*
X01317158Y00905236D01*
X01316921Y00905186D01*
X01316684Y00905143D01*
X01316445Y00905105D01*
X01316205Y00905073D01*
X01315965Y00905047D01*
X01315724Y00905026D01*
X01315483Y00905012D01*
X01315242Y00905003D01*
X01315000Y00905000D01*
X01315000Y01005000D02*
X01300000Y01005000D01*
X01295000Y01010000D01*
X01105000Y01010000D01*
X01100000Y01005000D01*
X01085000Y01005000D01*
X01084758Y01005003D01*
X01084517Y01005012D01*
X01084276Y01005026D01*
X01084035Y01005047D01*
X01083795Y01005073D01*
X01083555Y01005105D01*
X01083316Y01005143D01*
X01083079Y01005186D01*
X01082842Y01005236D01*
X01082607Y01005291D01*
X01082373Y01005351D01*
X01082141Y01005418D01*
X01081910Y01005489D01*
X01081681Y01005567D01*
X01081454Y01005650D01*
X01081229Y01005738D01*
X01081006Y01005832D01*
X01080786Y01005931D01*
X01080568Y01006036D01*
X01080353Y01006145D01*
X01080140Y01006260D01*
X01079930Y01006380D01*
X01079724Y01006505D01*
X01079520Y01006635D01*
X01079319Y01006770D01*
X01079122Y01006910D01*
X01078928Y01007054D01*
X01078738Y01007203D01*
X01078552Y01007357D01*
X01078369Y01007515D01*
X01078190Y01007677D01*
X01078015Y01007844D01*
X01077844Y01008015D01*
X01077677Y01008190D01*
X01077515Y01008369D01*
X01077357Y01008552D01*
X01077203Y01008738D01*
X01077054Y01008928D01*
X01076910Y01009122D01*
X01076770Y01009319D01*
X01076635Y01009520D01*
X01076505Y01009724D01*
X01076380Y01009930D01*
X01076260Y01010140D01*
X01076145Y01010353D01*
X01076036Y01010568D01*
X01075931Y01010786D01*
X01075832Y01011006D01*
X01075738Y01011229D01*
X01075650Y01011454D01*
X01075567Y01011681D01*
X01075489Y01011910D01*
X01075418Y01012141D01*
X01075351Y01012373D01*
X01075291Y01012607D01*
X01075236Y01012842D01*
X01075186Y01013079D01*
X01075143Y01013316D01*
X01075105Y01013555D01*
X01075073Y01013795D01*
X01075047Y01014035D01*
X01075026Y01014276D01*
X01075012Y01014517D01*
X01075003Y01014758D01*
X01075000Y01015000D01*
X01075000Y01085000D01*
X01075003Y01085242D01*
X01075012Y01085483D01*
X01075026Y01085724D01*
X01075047Y01085965D01*
X01075073Y01086205D01*
X01075105Y01086445D01*
X01075143Y01086684D01*
X01075186Y01086921D01*
X01075236Y01087158D01*
X01075291Y01087393D01*
X01075351Y01087627D01*
X01075418Y01087859D01*
X01075489Y01088090D01*
X01075567Y01088319D01*
X01075650Y01088546D01*
X01075738Y01088771D01*
X01075832Y01088994D01*
X01075931Y01089214D01*
X01076036Y01089432D01*
X01076145Y01089647D01*
X01076260Y01089860D01*
X01076380Y01090070D01*
X01076505Y01090276D01*
X01076635Y01090480D01*
X01076770Y01090681D01*
X01076910Y01090878D01*
X01077054Y01091072D01*
X01077203Y01091262D01*
X01077357Y01091448D01*
X01077515Y01091631D01*
X01077677Y01091810D01*
X01077844Y01091985D01*
X01078015Y01092156D01*
X01078190Y01092323D01*
X01078369Y01092485D01*
X01078552Y01092643D01*
X01078738Y01092797D01*
X01078928Y01092946D01*
X01079122Y01093090D01*
X01079319Y01093230D01*
X01079520Y01093365D01*
X01079724Y01093495D01*
X01079930Y01093620D01*
X01080140Y01093740D01*
X01080353Y01093855D01*
X01080568Y01093964D01*
X01080786Y01094069D01*
X01081006Y01094168D01*
X01081229Y01094262D01*
X01081454Y01094350D01*
X01081681Y01094433D01*
X01081910Y01094511D01*
X01082141Y01094582D01*
X01082373Y01094649D01*
X01082607Y01094709D01*
X01082842Y01094764D01*
X01083079Y01094814D01*
X01083316Y01094857D01*
X01083555Y01094895D01*
X01083795Y01094927D01*
X01084035Y01094953D01*
X01084276Y01094974D01*
X01084517Y01094988D01*
X01084758Y01094997D01*
X01085000Y01095000D01*
X01100000Y01095000D01*
X01105000Y01090000D01*
X01295000Y01090000D01*
X01300000Y01095000D01*
X01315000Y01095000D01*
X01315242Y01094997D01*
X01315483Y01094988D01*
X01315724Y01094974D01*
X01315965Y01094953D01*
X01316205Y01094927D01*
X01316445Y01094895D01*
X01316684Y01094857D01*
X01316921Y01094814D01*
X01317158Y01094764D01*
X01317393Y01094709D01*
X01317627Y01094649D01*
X01317859Y01094582D01*
X01318090Y01094511D01*
X01318319Y01094433D01*
X01318546Y01094350D01*
X01318771Y01094262D01*
X01318994Y01094168D01*
X01319214Y01094069D01*
X01319432Y01093964D01*
X01319647Y01093855D01*
X01319860Y01093740D01*
X01320070Y01093620D01*
X01320276Y01093495D01*
X01320480Y01093365D01*
X01320681Y01093230D01*
X01320878Y01093090D01*
X01321072Y01092946D01*
X01321262Y01092797D01*
X01321448Y01092643D01*
X01321631Y01092485D01*
X01321810Y01092323D01*
X01321985Y01092156D01*
X01322156Y01091985D01*
X01322323Y01091810D01*
X01322485Y01091631D01*
X01322643Y01091448D01*
X01322797Y01091262D01*
X01322946Y01091072D01*
X01323090Y01090878D01*
X01323230Y01090681D01*
X01323365Y01090480D01*
X01323495Y01090276D01*
X01323620Y01090070D01*
X01323740Y01089860D01*
X01323855Y01089647D01*
X01323964Y01089432D01*
X01324069Y01089214D01*
X01324168Y01088994D01*
X01324262Y01088771D01*
X01324350Y01088546D01*
X01324433Y01088319D01*
X01324511Y01088090D01*
X01324582Y01087859D01*
X01324649Y01087627D01*
X01324709Y01087393D01*
X01324764Y01087158D01*
X01324814Y01086921D01*
X01324857Y01086684D01*
X01324895Y01086445D01*
X01324927Y01086205D01*
X01324953Y01085965D01*
X01324974Y01085724D01*
X01324988Y01085483D01*
X01324997Y01085242D01*
X01325000Y01085000D01*
X01325000Y01015000D01*
X01324997Y01014758D01*
X01324988Y01014517D01*
X01324974Y01014276D01*
X01324953Y01014035D01*
X01324927Y01013795D01*
X01324895Y01013555D01*
X01324857Y01013316D01*
X01324814Y01013079D01*
X01324764Y01012842D01*
X01324709Y01012607D01*
X01324649Y01012373D01*
X01324582Y01012141D01*
X01324511Y01011910D01*
X01324433Y01011681D01*
X01324350Y01011454D01*
X01324262Y01011229D01*
X01324168Y01011006D01*
X01324069Y01010786D01*
X01323964Y01010568D01*
X01323855Y01010353D01*
X01323740Y01010140D01*
X01323620Y01009930D01*
X01323495Y01009724D01*
X01323365Y01009520D01*
X01323230Y01009319D01*
X01323090Y01009122D01*
X01322946Y01008928D01*
X01322797Y01008738D01*
X01322643Y01008552D01*
X01322485Y01008369D01*
X01322323Y01008190D01*
X01322156Y01008015D01*
X01321985Y01007844D01*
X01321810Y01007677D01*
X01321631Y01007515D01*
X01321448Y01007357D01*
X01321262Y01007203D01*
X01321072Y01007054D01*
X01320878Y01006910D01*
X01320681Y01006770D01*
X01320480Y01006635D01*
X01320276Y01006505D01*
X01320070Y01006380D01*
X01319860Y01006260D01*
X01319647Y01006145D01*
X01319432Y01006036D01*
X01319214Y01005931D01*
X01318994Y01005832D01*
X01318771Y01005738D01*
X01318546Y01005650D01*
X01318319Y01005567D01*
X01318090Y01005489D01*
X01317859Y01005418D01*
X01317627Y01005351D01*
X01317393Y01005291D01*
X01317158Y01005236D01*
X01316921Y01005186D01*
X01316684Y01005143D01*
X01316445Y01005105D01*
X01316205Y01005073D01*
X01315965Y01005047D01*
X01315724Y01005026D01*
X01315483Y01005012D01*
X01315242Y01005003D01*
X01315000Y01005000D01*
X01315000Y01105000D02*
X01300000Y01105000D01*
X01295000Y01110000D01*
X01105000Y01110000D01*
X01100000Y01105000D01*
X01085000Y01105000D01*
X01084758Y01105003D01*
X01084517Y01105012D01*
X01084276Y01105026D01*
X01084035Y01105047D01*
X01083795Y01105073D01*
X01083555Y01105105D01*
X01083316Y01105143D01*
X01083079Y01105186D01*
X01082842Y01105236D01*
X01082607Y01105291D01*
X01082373Y01105351D01*
X01082141Y01105418D01*
X01081910Y01105489D01*
X01081681Y01105567D01*
X01081454Y01105650D01*
X01081229Y01105738D01*
X01081006Y01105832D01*
X01080786Y01105931D01*
X01080568Y01106036D01*
X01080353Y01106145D01*
X01080140Y01106260D01*
X01079930Y01106380D01*
X01079724Y01106505D01*
X01079520Y01106635D01*
X01079319Y01106770D01*
X01079122Y01106910D01*
X01078928Y01107054D01*
X01078738Y01107203D01*
X01078552Y01107357D01*
X01078369Y01107515D01*
X01078190Y01107677D01*
X01078015Y01107844D01*
X01077844Y01108015D01*
X01077677Y01108190D01*
X01077515Y01108369D01*
X01077357Y01108552D01*
X01077203Y01108738D01*
X01077054Y01108928D01*
X01076910Y01109122D01*
X01076770Y01109319D01*
X01076635Y01109520D01*
X01076505Y01109724D01*
X01076380Y01109930D01*
X01076260Y01110140D01*
X01076145Y01110353D01*
X01076036Y01110568D01*
X01075931Y01110786D01*
X01075832Y01111006D01*
X01075738Y01111229D01*
X01075650Y01111454D01*
X01075567Y01111681D01*
X01075489Y01111910D01*
X01075418Y01112141D01*
X01075351Y01112373D01*
X01075291Y01112607D01*
X01075236Y01112842D01*
X01075186Y01113079D01*
X01075143Y01113316D01*
X01075105Y01113555D01*
X01075073Y01113795D01*
X01075047Y01114035D01*
X01075026Y01114276D01*
X01075012Y01114517D01*
X01075003Y01114758D01*
X01075000Y01115000D01*
X01075000Y01185000D01*
X01075003Y01185242D01*
X01075012Y01185483D01*
X01075026Y01185724D01*
X01075047Y01185965D01*
X01075073Y01186205D01*
X01075105Y01186445D01*
X01075143Y01186684D01*
X01075186Y01186921D01*
X01075236Y01187158D01*
X01075291Y01187393D01*
X01075351Y01187627D01*
X01075418Y01187859D01*
X01075489Y01188090D01*
X01075567Y01188319D01*
X01075650Y01188546D01*
X01075738Y01188771D01*
X01075832Y01188994D01*
X01075931Y01189214D01*
X01076036Y01189432D01*
X01076145Y01189647D01*
X01076260Y01189860D01*
X01076380Y01190070D01*
X01076505Y01190276D01*
X01076635Y01190480D01*
X01076770Y01190681D01*
X01076910Y01190878D01*
X01077054Y01191072D01*
X01077203Y01191262D01*
X01077357Y01191448D01*
X01077515Y01191631D01*
X01077677Y01191810D01*
X01077844Y01191985D01*
X01078015Y01192156D01*
X01078190Y01192323D01*
X01078369Y01192485D01*
X01078552Y01192643D01*
X01078738Y01192797D01*
X01078928Y01192946D01*
X01079122Y01193090D01*
X01079319Y01193230D01*
X01079520Y01193365D01*
X01079724Y01193495D01*
X01079930Y01193620D01*
X01080140Y01193740D01*
X01080353Y01193855D01*
X01080568Y01193964D01*
X01080786Y01194069D01*
X01081006Y01194168D01*
X01081229Y01194262D01*
X01081454Y01194350D01*
X01081681Y01194433D01*
X01081910Y01194511D01*
X01082141Y01194582D01*
X01082373Y01194649D01*
X01082607Y01194709D01*
X01082842Y01194764D01*
X01083079Y01194814D01*
X01083316Y01194857D01*
X01083555Y01194895D01*
X01083795Y01194927D01*
X01084035Y01194953D01*
X01084276Y01194974D01*
X01084517Y01194988D01*
X01084758Y01194997D01*
X01085000Y01195000D01*
X01100000Y01195000D01*
X01105000Y01190000D01*
X01295000Y01190000D01*
X01300000Y01195000D01*
X01315000Y01195000D01*
X01315242Y01194997D01*
X01315483Y01194988D01*
X01315724Y01194974D01*
X01315965Y01194953D01*
X01316205Y01194927D01*
X01316445Y01194895D01*
X01316684Y01194857D01*
X01316921Y01194814D01*
X01317158Y01194764D01*
X01317393Y01194709D01*
X01317627Y01194649D01*
X01317859Y01194582D01*
X01318090Y01194511D01*
X01318319Y01194433D01*
X01318546Y01194350D01*
X01318771Y01194262D01*
X01318994Y01194168D01*
X01319214Y01194069D01*
X01319432Y01193964D01*
X01319647Y01193855D01*
X01319860Y01193740D01*
X01320070Y01193620D01*
X01320276Y01193495D01*
X01320480Y01193365D01*
X01320681Y01193230D01*
X01320878Y01193090D01*
X01321072Y01192946D01*
X01321262Y01192797D01*
X01321448Y01192643D01*
X01321631Y01192485D01*
X01321810Y01192323D01*
X01321985Y01192156D01*
X01322156Y01191985D01*
X01322323Y01191810D01*
X01322485Y01191631D01*
X01322643Y01191448D01*
X01322797Y01191262D01*
X01322946Y01191072D01*
X01323090Y01190878D01*
X01323230Y01190681D01*
X01323365Y01190480D01*
X01323495Y01190276D01*
X01323620Y01190070D01*
X01323740Y01189860D01*
X01323855Y01189647D01*
X01323964Y01189432D01*
X01324069Y01189214D01*
X01324168Y01188994D01*
X01324262Y01188771D01*
X01324350Y01188546D01*
X01324433Y01188319D01*
X01324511Y01188090D01*
X01324582Y01187859D01*
X01324649Y01187627D01*
X01324709Y01187393D01*
X01324764Y01187158D01*
X01324814Y01186921D01*
X01324857Y01186684D01*
X01324895Y01186445D01*
X01324927Y01186205D01*
X01324953Y01185965D01*
X01324974Y01185724D01*
X01324988Y01185483D01*
X01324997Y01185242D01*
X01325000Y01185000D01*
X01325000Y01115000D01*
X01324997Y01114758D01*
X01324988Y01114517D01*
X01324974Y01114276D01*
X01324953Y01114035D01*
X01324927Y01113795D01*
X01324895Y01113555D01*
X01324857Y01113316D01*
X01324814Y01113079D01*
X01324764Y01112842D01*
X01324709Y01112607D01*
X01324649Y01112373D01*
X01324582Y01112141D01*
X01324511Y01111910D01*
X01324433Y01111681D01*
X01324350Y01111454D01*
X01324262Y01111229D01*
X01324168Y01111006D01*
X01324069Y01110786D01*
X01323964Y01110568D01*
X01323855Y01110353D01*
X01323740Y01110140D01*
X01323620Y01109930D01*
X01323495Y01109724D01*
X01323365Y01109520D01*
X01323230Y01109319D01*
X01323090Y01109122D01*
X01322946Y01108928D01*
X01322797Y01108738D01*
X01322643Y01108552D01*
X01322485Y01108369D01*
X01322323Y01108190D01*
X01322156Y01108015D01*
X01321985Y01107844D01*
X01321810Y01107677D01*
X01321631Y01107515D01*
X01321448Y01107357D01*
X01321262Y01107203D01*
X01321072Y01107054D01*
X01320878Y01106910D01*
X01320681Y01106770D01*
X01320480Y01106635D01*
X01320276Y01106505D01*
X01320070Y01106380D01*
X01319860Y01106260D01*
X01319647Y01106145D01*
X01319432Y01106036D01*
X01319214Y01105931D01*
X01318994Y01105832D01*
X01318771Y01105738D01*
X01318546Y01105650D01*
X01318319Y01105567D01*
X01318090Y01105489D01*
X01317859Y01105418D01*
X01317627Y01105351D01*
X01317393Y01105291D01*
X01317158Y01105236D01*
X01316921Y01105186D01*
X01316684Y01105143D01*
X01316445Y01105105D01*
X01316205Y01105073D01*
X01315965Y01105047D01*
X01315724Y01105026D01*
X01315483Y01105012D01*
X01315242Y01105003D01*
X01315000Y01105000D01*
X01315000Y01205000D02*
X01300000Y01205000D01*
X01295000Y01210000D01*
X01105000Y01210000D01*
X01100000Y01205000D01*
X01085000Y01205000D01*
X01084758Y01205003D01*
X01084517Y01205012D01*
X01084276Y01205026D01*
X01084035Y01205047D01*
X01083795Y01205073D01*
X01083555Y01205105D01*
X01083316Y01205143D01*
X01083079Y01205186D01*
X01082842Y01205236D01*
X01082607Y01205291D01*
X01082373Y01205351D01*
X01082141Y01205418D01*
X01081910Y01205489D01*
X01081681Y01205567D01*
X01081454Y01205650D01*
X01081229Y01205738D01*
X01081006Y01205832D01*
X01080786Y01205931D01*
X01080568Y01206036D01*
X01080353Y01206145D01*
X01080140Y01206260D01*
X01079930Y01206380D01*
X01079724Y01206505D01*
X01079520Y01206635D01*
X01079319Y01206770D01*
X01079122Y01206910D01*
X01078928Y01207054D01*
X01078738Y01207203D01*
X01078552Y01207357D01*
X01078369Y01207515D01*
X01078190Y01207677D01*
X01078015Y01207844D01*
X01077844Y01208015D01*
X01077677Y01208190D01*
X01077515Y01208369D01*
X01077357Y01208552D01*
X01077203Y01208738D01*
X01077054Y01208928D01*
X01076910Y01209122D01*
X01076770Y01209319D01*
X01076635Y01209520D01*
X01076505Y01209724D01*
X01076380Y01209930D01*
X01076260Y01210140D01*
X01076145Y01210353D01*
X01076036Y01210568D01*
X01075931Y01210786D01*
X01075832Y01211006D01*
X01075738Y01211229D01*
X01075650Y01211454D01*
X01075567Y01211681D01*
X01075489Y01211910D01*
X01075418Y01212141D01*
X01075351Y01212373D01*
X01075291Y01212607D01*
X01075236Y01212842D01*
X01075186Y01213079D01*
X01075143Y01213316D01*
X01075105Y01213555D01*
X01075073Y01213795D01*
X01075047Y01214035D01*
X01075026Y01214276D01*
X01075012Y01214517D01*
X01075003Y01214758D01*
X01075000Y01215000D01*
X01075000Y01285000D01*
X01075003Y01285242D01*
X01075012Y01285483D01*
X01075026Y01285724D01*
X01075047Y01285965D01*
X01075073Y01286205D01*
X01075105Y01286445D01*
X01075143Y01286684D01*
X01075186Y01286921D01*
X01075236Y01287158D01*
X01075291Y01287393D01*
X01075351Y01287627D01*
X01075418Y01287859D01*
X01075489Y01288090D01*
X01075567Y01288319D01*
X01075650Y01288546D01*
X01075738Y01288771D01*
X01075832Y01288994D01*
X01075931Y01289214D01*
X01076036Y01289432D01*
X01076145Y01289647D01*
X01076260Y01289860D01*
X01076380Y01290070D01*
X01076505Y01290276D01*
X01076635Y01290480D01*
X01076770Y01290681D01*
X01076910Y01290878D01*
X01077054Y01291072D01*
X01077203Y01291262D01*
X01077357Y01291448D01*
X01077515Y01291631D01*
X01077677Y01291810D01*
X01077844Y01291985D01*
X01078015Y01292156D01*
X01078190Y01292323D01*
X01078369Y01292485D01*
X01078552Y01292643D01*
X01078738Y01292797D01*
X01078928Y01292946D01*
X01079122Y01293090D01*
X01079319Y01293230D01*
X01079520Y01293365D01*
X01079724Y01293495D01*
X01079930Y01293620D01*
X01080140Y01293740D01*
X01080353Y01293855D01*
X01080568Y01293964D01*
X01080786Y01294069D01*
X01081006Y01294168D01*
X01081229Y01294262D01*
X01081454Y01294350D01*
X01081681Y01294433D01*
X01081910Y01294511D01*
X01082141Y01294582D01*
X01082373Y01294649D01*
X01082607Y01294709D01*
X01082842Y01294764D01*
X01083079Y01294814D01*
X01083316Y01294857D01*
X01083555Y01294895D01*
X01083795Y01294927D01*
X01084035Y01294953D01*
X01084276Y01294974D01*
X01084517Y01294988D01*
X01084758Y01294997D01*
X01085000Y01295000D01*
X01100000Y01295000D01*
X01105000Y01290000D01*
X01295000Y01290000D01*
X01300000Y01295000D01*
X01315000Y01295000D01*
X01315242Y01294997D01*
X01315483Y01294988D01*
X01315724Y01294974D01*
X01315965Y01294953D01*
X01316205Y01294927D01*
X01316445Y01294895D01*
X01316684Y01294857D01*
X01316921Y01294814D01*
X01317158Y01294764D01*
X01317393Y01294709D01*
X01317627Y01294649D01*
X01317859Y01294582D01*
X01318090Y01294511D01*
X01318319Y01294433D01*
X01318546Y01294350D01*
X01318771Y01294262D01*
X01318994Y01294168D01*
X01319214Y01294069D01*
X01319432Y01293964D01*
X01319647Y01293855D01*
X01319860Y01293740D01*
X01320070Y01293620D01*
X01320276Y01293495D01*
X01320480Y01293365D01*
X01320681Y01293230D01*
X01320878Y01293090D01*
X01321072Y01292946D01*
X01321262Y01292797D01*
X01321448Y01292643D01*
X01321631Y01292485D01*
X01321810Y01292323D01*
X01321985Y01292156D01*
X01322156Y01291985D01*
X01322323Y01291810D01*
X01322485Y01291631D01*
X01322643Y01291448D01*
X01322797Y01291262D01*
X01322946Y01291072D01*
X01323090Y01290878D01*
X01323230Y01290681D01*
X01323365Y01290480D01*
X01323495Y01290276D01*
X01323620Y01290070D01*
X01323740Y01289860D01*
X01323855Y01289647D01*
X01323964Y01289432D01*
X01324069Y01289214D01*
X01324168Y01288994D01*
X01324262Y01288771D01*
X01324350Y01288546D01*
X01324433Y01288319D01*
X01324511Y01288090D01*
X01324582Y01287859D01*
X01324649Y01287627D01*
X01324709Y01287393D01*
X01324764Y01287158D01*
X01324814Y01286921D01*
X01324857Y01286684D01*
X01324895Y01286445D01*
X01324927Y01286205D01*
X01324953Y01285965D01*
X01324974Y01285724D01*
X01324988Y01285483D01*
X01324997Y01285242D01*
X01325000Y01285000D01*
X01325000Y01215000D01*
X01324997Y01214758D01*
X01324988Y01214517D01*
X01324974Y01214276D01*
X01324953Y01214035D01*
X01324927Y01213795D01*
X01324895Y01213555D01*
X01324857Y01213316D01*
X01324814Y01213079D01*
X01324764Y01212842D01*
X01324709Y01212607D01*
X01324649Y01212373D01*
X01324582Y01212141D01*
X01324511Y01211910D01*
X01324433Y01211681D01*
X01324350Y01211454D01*
X01324262Y01211229D01*
X01324168Y01211006D01*
X01324069Y01210786D01*
X01323964Y01210568D01*
X01323855Y01210353D01*
X01323740Y01210140D01*
X01323620Y01209930D01*
X01323495Y01209724D01*
X01323365Y01209520D01*
X01323230Y01209319D01*
X01323090Y01209122D01*
X01322946Y01208928D01*
X01322797Y01208738D01*
X01322643Y01208552D01*
X01322485Y01208369D01*
X01322323Y01208190D01*
X01322156Y01208015D01*
X01321985Y01207844D01*
X01321810Y01207677D01*
X01321631Y01207515D01*
X01321448Y01207357D01*
X01321262Y01207203D01*
X01321072Y01207054D01*
X01320878Y01206910D01*
X01320681Y01206770D01*
X01320480Y01206635D01*
X01320276Y01206505D01*
X01320070Y01206380D01*
X01319860Y01206260D01*
X01319647Y01206145D01*
X01319432Y01206036D01*
X01319214Y01205931D01*
X01318994Y01205832D01*
X01318771Y01205738D01*
X01318546Y01205650D01*
X01318319Y01205567D01*
X01318090Y01205489D01*
X01317859Y01205418D01*
X01317627Y01205351D01*
X01317393Y01205291D01*
X01317158Y01205236D01*
X01316921Y01205186D01*
X01316684Y01205143D01*
X01316445Y01205105D01*
X01316205Y01205073D01*
X01315965Y01205047D01*
X01315724Y01205026D01*
X01315483Y01205012D01*
X01315242Y01205003D01*
X01315000Y01205000D01*
X01315000Y01355000D02*
X01300000Y01355000D01*
X01295000Y01360000D01*
X01105000Y01360000D01*
X01100000Y01355000D01*
X01085000Y01355000D01*
X01084758Y01355003D01*
X01084517Y01355012D01*
X01084276Y01355026D01*
X01084035Y01355047D01*
X01083795Y01355073D01*
X01083555Y01355105D01*
X01083316Y01355143D01*
X01083079Y01355186D01*
X01082842Y01355236D01*
X01082607Y01355291D01*
X01082373Y01355351D01*
X01082141Y01355418D01*
X01081910Y01355489D01*
X01081681Y01355567D01*
X01081454Y01355650D01*
X01081229Y01355738D01*
X01081006Y01355832D01*
X01080786Y01355931D01*
X01080568Y01356036D01*
X01080353Y01356145D01*
X01080140Y01356260D01*
X01079930Y01356380D01*
X01079724Y01356505D01*
X01079520Y01356635D01*
X01079319Y01356770D01*
X01079122Y01356910D01*
X01078928Y01357054D01*
X01078738Y01357203D01*
X01078552Y01357357D01*
X01078369Y01357515D01*
X01078190Y01357677D01*
X01078015Y01357844D01*
X01077844Y01358015D01*
X01077677Y01358190D01*
X01077515Y01358369D01*
X01077357Y01358552D01*
X01077203Y01358738D01*
X01077054Y01358928D01*
X01076910Y01359122D01*
X01076770Y01359319D01*
X01076635Y01359520D01*
X01076505Y01359724D01*
X01076380Y01359930D01*
X01076260Y01360140D01*
X01076145Y01360353D01*
X01076036Y01360568D01*
X01075931Y01360786D01*
X01075832Y01361006D01*
X01075738Y01361229D01*
X01075650Y01361454D01*
X01075567Y01361681D01*
X01075489Y01361910D01*
X01075418Y01362141D01*
X01075351Y01362373D01*
X01075291Y01362607D01*
X01075236Y01362842D01*
X01075186Y01363079D01*
X01075143Y01363316D01*
X01075105Y01363555D01*
X01075073Y01363795D01*
X01075047Y01364035D01*
X01075026Y01364276D01*
X01075012Y01364517D01*
X01075003Y01364758D01*
X01075000Y01365000D01*
X01075000Y01435000D01*
X01075003Y01435242D01*
X01075012Y01435483D01*
X01075026Y01435724D01*
X01075047Y01435965D01*
X01075073Y01436205D01*
X01075105Y01436445D01*
X01075143Y01436684D01*
X01075186Y01436921D01*
X01075236Y01437158D01*
X01075291Y01437393D01*
X01075351Y01437627D01*
X01075418Y01437859D01*
X01075489Y01438090D01*
X01075567Y01438319D01*
X01075650Y01438546D01*
X01075738Y01438771D01*
X01075832Y01438994D01*
X01075931Y01439214D01*
X01076036Y01439432D01*
X01076145Y01439647D01*
X01076260Y01439860D01*
X01076380Y01440070D01*
X01076505Y01440276D01*
X01076635Y01440480D01*
X01076770Y01440681D01*
X01076910Y01440878D01*
X01077054Y01441072D01*
X01077203Y01441262D01*
X01077357Y01441448D01*
X01077515Y01441631D01*
X01077677Y01441810D01*
X01077844Y01441985D01*
X01078015Y01442156D01*
X01078190Y01442323D01*
X01078369Y01442485D01*
X01078552Y01442643D01*
X01078738Y01442797D01*
X01078928Y01442946D01*
X01079122Y01443090D01*
X01079319Y01443230D01*
X01079520Y01443365D01*
X01079724Y01443495D01*
X01079930Y01443620D01*
X01080140Y01443740D01*
X01080353Y01443855D01*
X01080568Y01443964D01*
X01080786Y01444069D01*
X01081006Y01444168D01*
X01081229Y01444262D01*
X01081454Y01444350D01*
X01081681Y01444433D01*
X01081910Y01444511D01*
X01082141Y01444582D01*
X01082373Y01444649D01*
X01082607Y01444709D01*
X01082842Y01444764D01*
X01083079Y01444814D01*
X01083316Y01444857D01*
X01083555Y01444895D01*
X01083795Y01444927D01*
X01084035Y01444953D01*
X01084276Y01444974D01*
X01084517Y01444988D01*
X01084758Y01444997D01*
X01085000Y01445000D01*
X01100000Y01445000D01*
X01105000Y01440000D01*
X01295000Y01440000D01*
X01300000Y01445000D01*
X01315000Y01445000D01*
X01315242Y01444997D01*
X01315483Y01444988D01*
X01315724Y01444974D01*
X01315965Y01444953D01*
X01316205Y01444927D01*
X01316445Y01444895D01*
X01316684Y01444857D01*
X01316921Y01444814D01*
X01317158Y01444764D01*
X01317393Y01444709D01*
X01317627Y01444649D01*
X01317859Y01444582D01*
X01318090Y01444511D01*
X01318319Y01444433D01*
X01318546Y01444350D01*
X01318771Y01444262D01*
X01318994Y01444168D01*
X01319214Y01444069D01*
X01319432Y01443964D01*
X01319647Y01443855D01*
X01319860Y01443740D01*
X01320070Y01443620D01*
X01320276Y01443495D01*
X01320480Y01443365D01*
X01320681Y01443230D01*
X01320878Y01443090D01*
X01321072Y01442946D01*
X01321262Y01442797D01*
X01321448Y01442643D01*
X01321631Y01442485D01*
X01321810Y01442323D01*
X01321985Y01442156D01*
X01322156Y01441985D01*
X01322323Y01441810D01*
X01322485Y01441631D01*
X01322643Y01441448D01*
X01322797Y01441262D01*
X01322946Y01441072D01*
X01323090Y01440878D01*
X01323230Y01440681D01*
X01323365Y01440480D01*
X01323495Y01440276D01*
X01323620Y01440070D01*
X01323740Y01439860D01*
X01323855Y01439647D01*
X01323964Y01439432D01*
X01324069Y01439214D01*
X01324168Y01438994D01*
X01324262Y01438771D01*
X01324350Y01438546D01*
X01324433Y01438319D01*
X01324511Y01438090D01*
X01324582Y01437859D01*
X01324649Y01437627D01*
X01324709Y01437393D01*
X01324764Y01437158D01*
X01324814Y01436921D01*
X01324857Y01436684D01*
X01324895Y01436445D01*
X01324927Y01436205D01*
X01324953Y01435965D01*
X01324974Y01435724D01*
X01324988Y01435483D01*
X01324997Y01435242D01*
X01325000Y01435000D01*
X01325000Y01365000D01*
X01324997Y01364758D01*
X01324988Y01364517D01*
X01324974Y01364276D01*
X01324953Y01364035D01*
X01324927Y01363795D01*
X01324895Y01363555D01*
X01324857Y01363316D01*
X01324814Y01363079D01*
X01324764Y01362842D01*
X01324709Y01362607D01*
X01324649Y01362373D01*
X01324582Y01362141D01*
X01324511Y01361910D01*
X01324433Y01361681D01*
X01324350Y01361454D01*
X01324262Y01361229D01*
X01324168Y01361006D01*
X01324069Y01360786D01*
X01323964Y01360568D01*
X01323855Y01360353D01*
X01323740Y01360140D01*
X01323620Y01359930D01*
X01323495Y01359724D01*
X01323365Y01359520D01*
X01323230Y01359319D01*
X01323090Y01359122D01*
X01322946Y01358928D01*
X01322797Y01358738D01*
X01322643Y01358552D01*
X01322485Y01358369D01*
X01322323Y01358190D01*
X01322156Y01358015D01*
X01321985Y01357844D01*
X01321810Y01357677D01*
X01321631Y01357515D01*
X01321448Y01357357D01*
X01321262Y01357203D01*
X01321072Y01357054D01*
X01320878Y01356910D01*
X01320681Y01356770D01*
X01320480Y01356635D01*
X01320276Y01356505D01*
X01320070Y01356380D01*
X01319860Y01356260D01*
X01319647Y01356145D01*
X01319432Y01356036D01*
X01319214Y01355931D01*
X01318994Y01355832D01*
X01318771Y01355738D01*
X01318546Y01355650D01*
X01318319Y01355567D01*
X01318090Y01355489D01*
X01317859Y01355418D01*
X01317627Y01355351D01*
X01317393Y01355291D01*
X01317158Y01355236D01*
X01316921Y01355186D01*
X01316684Y01355143D01*
X01316445Y01355105D01*
X01316205Y01355073D01*
X01315965Y01355047D01*
X01315724Y01355026D01*
X01315483Y01355012D01*
X01315242Y01355003D01*
X01315000Y01355000D01*
X01265000Y01505000D02*
X01250000Y01505000D01*
X01245000Y01510000D01*
X01055000Y01510000D01*
X01050000Y01505000D01*
X01035000Y01505000D01*
X01034758Y01505003D01*
X01034517Y01505012D01*
X01034276Y01505026D01*
X01034035Y01505047D01*
X01033795Y01505073D01*
X01033555Y01505105D01*
X01033316Y01505143D01*
X01033079Y01505186D01*
X01032842Y01505236D01*
X01032607Y01505291D01*
X01032373Y01505351D01*
X01032141Y01505418D01*
X01031910Y01505489D01*
X01031681Y01505567D01*
X01031454Y01505650D01*
X01031229Y01505738D01*
X01031006Y01505832D01*
X01030786Y01505931D01*
X01030568Y01506036D01*
X01030353Y01506145D01*
X01030140Y01506260D01*
X01029930Y01506380D01*
X01029724Y01506505D01*
X01029520Y01506635D01*
X01029319Y01506770D01*
X01029122Y01506910D01*
X01028928Y01507054D01*
X01028738Y01507203D01*
X01028552Y01507357D01*
X01028369Y01507515D01*
X01028190Y01507677D01*
X01028015Y01507844D01*
X01027844Y01508015D01*
X01027677Y01508190D01*
X01027515Y01508369D01*
X01027357Y01508552D01*
X01027203Y01508738D01*
X01027054Y01508928D01*
X01026910Y01509122D01*
X01026770Y01509319D01*
X01026635Y01509520D01*
X01026505Y01509724D01*
X01026380Y01509930D01*
X01026260Y01510140D01*
X01026145Y01510353D01*
X01026036Y01510568D01*
X01025931Y01510786D01*
X01025832Y01511006D01*
X01025738Y01511229D01*
X01025650Y01511454D01*
X01025567Y01511681D01*
X01025489Y01511910D01*
X01025418Y01512141D01*
X01025351Y01512373D01*
X01025291Y01512607D01*
X01025236Y01512842D01*
X01025186Y01513079D01*
X01025143Y01513316D01*
X01025105Y01513555D01*
X01025073Y01513795D01*
X01025047Y01514035D01*
X01025026Y01514276D01*
X01025012Y01514517D01*
X01025003Y01514758D01*
X01025000Y01515000D01*
X01025000Y01585000D01*
X01025003Y01585242D01*
X01025012Y01585483D01*
X01025026Y01585724D01*
X01025047Y01585965D01*
X01025073Y01586205D01*
X01025105Y01586445D01*
X01025143Y01586684D01*
X01025186Y01586921D01*
X01025236Y01587158D01*
X01025291Y01587393D01*
X01025351Y01587627D01*
X01025418Y01587859D01*
X01025489Y01588090D01*
X01025567Y01588319D01*
X01025650Y01588546D01*
X01025738Y01588771D01*
X01025832Y01588994D01*
X01025931Y01589214D01*
X01026036Y01589432D01*
X01026145Y01589647D01*
X01026260Y01589860D01*
X01026380Y01590070D01*
X01026505Y01590276D01*
X01026635Y01590480D01*
X01026770Y01590681D01*
X01026910Y01590878D01*
X01027054Y01591072D01*
X01027203Y01591262D01*
X01027357Y01591448D01*
X01027515Y01591631D01*
X01027677Y01591810D01*
X01027844Y01591985D01*
X01028015Y01592156D01*
X01028190Y01592323D01*
X01028369Y01592485D01*
X01028552Y01592643D01*
X01028738Y01592797D01*
X01028928Y01592946D01*
X01029122Y01593090D01*
X01029319Y01593230D01*
X01029520Y01593365D01*
X01029724Y01593495D01*
X01029930Y01593620D01*
X01030140Y01593740D01*
X01030353Y01593855D01*
X01030568Y01593964D01*
X01030786Y01594069D01*
X01031006Y01594168D01*
X01031229Y01594262D01*
X01031454Y01594350D01*
X01031681Y01594433D01*
X01031910Y01594511D01*
X01032141Y01594582D01*
X01032373Y01594649D01*
X01032607Y01594709D01*
X01032842Y01594764D01*
X01033079Y01594814D01*
X01033316Y01594857D01*
X01033555Y01594895D01*
X01033795Y01594927D01*
X01034035Y01594953D01*
X01034276Y01594974D01*
X01034517Y01594988D01*
X01034758Y01594997D01*
X01035000Y01595000D01*
X01050000Y01595000D01*
X01055000Y01590000D01*
X01245000Y01590000D01*
X01250000Y01595000D01*
X01265000Y01595000D01*
X01265242Y01594997D01*
X01265483Y01594988D01*
X01265724Y01594974D01*
X01265965Y01594953D01*
X01266205Y01594927D01*
X01266445Y01594895D01*
X01266684Y01594857D01*
X01266921Y01594814D01*
X01267158Y01594764D01*
X01267393Y01594709D01*
X01267627Y01594649D01*
X01267859Y01594582D01*
X01268090Y01594511D01*
X01268319Y01594433D01*
X01268546Y01594350D01*
X01268771Y01594262D01*
X01268994Y01594168D01*
X01269214Y01594069D01*
X01269432Y01593964D01*
X01269647Y01593855D01*
X01269860Y01593740D01*
X01270070Y01593620D01*
X01270276Y01593495D01*
X01270480Y01593365D01*
X01270681Y01593230D01*
X01270878Y01593090D01*
X01271072Y01592946D01*
X01271262Y01592797D01*
X01271448Y01592643D01*
X01271631Y01592485D01*
X01271810Y01592323D01*
X01271985Y01592156D01*
X01272156Y01591985D01*
X01272323Y01591810D01*
X01272485Y01591631D01*
X01272643Y01591448D01*
X01272797Y01591262D01*
X01272946Y01591072D01*
X01273090Y01590878D01*
X01273230Y01590681D01*
X01273365Y01590480D01*
X01273495Y01590276D01*
X01273620Y01590070D01*
X01273740Y01589860D01*
X01273855Y01589647D01*
X01273964Y01589432D01*
X01274069Y01589214D01*
X01274168Y01588994D01*
X01274262Y01588771D01*
X01274350Y01588546D01*
X01274433Y01588319D01*
X01274511Y01588090D01*
X01274582Y01587859D01*
X01274649Y01587627D01*
X01274709Y01587393D01*
X01274764Y01587158D01*
X01274814Y01586921D01*
X01274857Y01586684D01*
X01274895Y01586445D01*
X01274927Y01586205D01*
X01274953Y01585965D01*
X01274974Y01585724D01*
X01274988Y01585483D01*
X01274997Y01585242D01*
X01275000Y01585000D01*
X01275000Y01515000D01*
X01274997Y01514758D01*
X01274988Y01514517D01*
X01274974Y01514276D01*
X01274953Y01514035D01*
X01274927Y01513795D01*
X01274895Y01513555D01*
X01274857Y01513316D01*
X01274814Y01513079D01*
X01274764Y01512842D01*
X01274709Y01512607D01*
X01274649Y01512373D01*
X01274582Y01512141D01*
X01274511Y01511910D01*
X01274433Y01511681D01*
X01274350Y01511454D01*
X01274262Y01511229D01*
X01274168Y01511006D01*
X01274069Y01510786D01*
X01273964Y01510568D01*
X01273855Y01510353D01*
X01273740Y01510140D01*
X01273620Y01509930D01*
X01273495Y01509724D01*
X01273365Y01509520D01*
X01273230Y01509319D01*
X01273090Y01509122D01*
X01272946Y01508928D01*
X01272797Y01508738D01*
X01272643Y01508552D01*
X01272485Y01508369D01*
X01272323Y01508190D01*
X01272156Y01508015D01*
X01271985Y01507844D01*
X01271810Y01507677D01*
X01271631Y01507515D01*
X01271448Y01507357D01*
X01271262Y01507203D01*
X01271072Y01507054D01*
X01270878Y01506910D01*
X01270681Y01506770D01*
X01270480Y01506635D01*
X01270276Y01506505D01*
X01270070Y01506380D01*
X01269860Y01506260D01*
X01269647Y01506145D01*
X01269432Y01506036D01*
X01269214Y01505931D01*
X01268994Y01505832D01*
X01268771Y01505738D01*
X01268546Y01505650D01*
X01268319Y01505567D01*
X01268090Y01505489D01*
X01267859Y01505418D01*
X01267627Y01505351D01*
X01267393Y01505291D01*
X01267158Y01505236D01*
X01266921Y01505186D01*
X01266684Y01505143D01*
X01266445Y01505105D01*
X01266205Y01505073D01*
X01265965Y01505047D01*
X01265724Y01505026D01*
X01265483Y01505012D01*
X01265242Y01505003D01*
X01265000Y01505000D01*
X01265000Y01605000D02*
X01250000Y01605000D01*
X01245000Y01610000D01*
X01055000Y01610000D01*
X01050000Y01605000D01*
X01035000Y01605000D01*
X01034758Y01605003D01*
X01034517Y01605012D01*
X01034276Y01605026D01*
X01034035Y01605047D01*
X01033795Y01605073D01*
X01033555Y01605105D01*
X01033316Y01605143D01*
X01033079Y01605186D01*
X01032842Y01605236D01*
X01032607Y01605291D01*
X01032373Y01605351D01*
X01032141Y01605418D01*
X01031910Y01605489D01*
X01031681Y01605567D01*
X01031454Y01605650D01*
X01031229Y01605738D01*
X01031006Y01605832D01*
X01030786Y01605931D01*
X01030568Y01606036D01*
X01030353Y01606145D01*
X01030140Y01606260D01*
X01029930Y01606380D01*
X01029724Y01606505D01*
X01029520Y01606635D01*
X01029319Y01606770D01*
X01029122Y01606910D01*
X01028928Y01607054D01*
X01028738Y01607203D01*
X01028552Y01607357D01*
X01028369Y01607515D01*
X01028190Y01607677D01*
X01028015Y01607844D01*
X01027844Y01608015D01*
X01027677Y01608190D01*
X01027515Y01608369D01*
X01027357Y01608552D01*
X01027203Y01608738D01*
X01027054Y01608928D01*
X01026910Y01609122D01*
X01026770Y01609319D01*
X01026635Y01609520D01*
X01026505Y01609724D01*
X01026380Y01609930D01*
X01026260Y01610140D01*
X01026145Y01610353D01*
X01026036Y01610568D01*
X01025931Y01610786D01*
X01025832Y01611006D01*
X01025738Y01611229D01*
X01025650Y01611454D01*
X01025567Y01611681D01*
X01025489Y01611910D01*
X01025418Y01612141D01*
X01025351Y01612373D01*
X01025291Y01612607D01*
X01025236Y01612842D01*
X01025186Y01613079D01*
X01025143Y01613316D01*
X01025105Y01613555D01*
X01025073Y01613795D01*
X01025047Y01614035D01*
X01025026Y01614276D01*
X01025012Y01614517D01*
X01025003Y01614758D01*
X01025000Y01615000D01*
X01025000Y01685000D01*
X01025003Y01685242D01*
X01025012Y01685483D01*
X01025026Y01685724D01*
X01025047Y01685965D01*
X01025073Y01686205D01*
X01025105Y01686445D01*
X01025143Y01686684D01*
X01025186Y01686921D01*
X01025236Y01687158D01*
X01025291Y01687393D01*
X01025351Y01687627D01*
X01025418Y01687859D01*
X01025489Y01688090D01*
X01025567Y01688319D01*
X01025650Y01688546D01*
X01025738Y01688771D01*
X01025832Y01688994D01*
X01025931Y01689214D01*
X01026036Y01689432D01*
X01026145Y01689647D01*
X01026260Y01689860D01*
X01026380Y01690070D01*
X01026505Y01690276D01*
X01026635Y01690480D01*
X01026770Y01690681D01*
X01026910Y01690878D01*
X01027054Y01691072D01*
X01027203Y01691262D01*
X01027357Y01691448D01*
X01027515Y01691631D01*
X01027677Y01691810D01*
X01027844Y01691985D01*
X01028015Y01692156D01*
X01028190Y01692323D01*
X01028369Y01692485D01*
X01028552Y01692643D01*
X01028738Y01692797D01*
X01028928Y01692946D01*
X01029122Y01693090D01*
X01029319Y01693230D01*
X01029520Y01693365D01*
X01029724Y01693495D01*
X01029930Y01693620D01*
X01030140Y01693740D01*
X01030353Y01693855D01*
X01030568Y01693964D01*
X01030786Y01694069D01*
X01031006Y01694168D01*
X01031229Y01694262D01*
X01031454Y01694350D01*
X01031681Y01694433D01*
X01031910Y01694511D01*
X01032141Y01694582D01*
X01032373Y01694649D01*
X01032607Y01694709D01*
X01032842Y01694764D01*
X01033079Y01694814D01*
X01033316Y01694857D01*
X01033555Y01694895D01*
X01033795Y01694927D01*
X01034035Y01694953D01*
X01034276Y01694974D01*
X01034517Y01694988D01*
X01034758Y01694997D01*
X01035000Y01695000D01*
X01050000Y01695000D01*
X01055000Y01690000D01*
X01245000Y01690000D01*
X01250000Y01695000D01*
X01265000Y01695000D01*
X01265242Y01694997D01*
X01265483Y01694988D01*
X01265724Y01694974D01*
X01265965Y01694953D01*
X01266205Y01694927D01*
X01266445Y01694895D01*
X01266684Y01694857D01*
X01266921Y01694814D01*
X01267158Y01694764D01*
X01267393Y01694709D01*
X01267627Y01694649D01*
X01267859Y01694582D01*
X01268090Y01694511D01*
X01268319Y01694433D01*
X01268546Y01694350D01*
X01268771Y01694262D01*
X01268994Y01694168D01*
X01269214Y01694069D01*
X01269432Y01693964D01*
X01269647Y01693855D01*
X01269860Y01693740D01*
X01270070Y01693620D01*
X01270276Y01693495D01*
X01270480Y01693365D01*
X01270681Y01693230D01*
X01270878Y01693090D01*
X01271072Y01692946D01*
X01271262Y01692797D01*
X01271448Y01692643D01*
X01271631Y01692485D01*
X01271810Y01692323D01*
X01271985Y01692156D01*
X01272156Y01691985D01*
X01272323Y01691810D01*
X01272485Y01691631D01*
X01272643Y01691448D01*
X01272797Y01691262D01*
X01272946Y01691072D01*
X01273090Y01690878D01*
X01273230Y01690681D01*
X01273365Y01690480D01*
X01273495Y01690276D01*
X01273620Y01690070D01*
X01273740Y01689860D01*
X01273855Y01689647D01*
X01273964Y01689432D01*
X01274069Y01689214D01*
X01274168Y01688994D01*
X01274262Y01688771D01*
X01274350Y01688546D01*
X01274433Y01688319D01*
X01274511Y01688090D01*
X01274582Y01687859D01*
X01274649Y01687627D01*
X01274709Y01687393D01*
X01274764Y01687158D01*
X01274814Y01686921D01*
X01274857Y01686684D01*
X01274895Y01686445D01*
X01274927Y01686205D01*
X01274953Y01685965D01*
X01274974Y01685724D01*
X01274988Y01685483D01*
X01274997Y01685242D01*
X01275000Y01685000D01*
X01275000Y01615000D01*
X01274997Y01614758D01*
X01274988Y01614517D01*
X01274974Y01614276D01*
X01274953Y01614035D01*
X01274927Y01613795D01*
X01274895Y01613555D01*
X01274857Y01613316D01*
X01274814Y01613079D01*
X01274764Y01612842D01*
X01274709Y01612607D01*
X01274649Y01612373D01*
X01274582Y01612141D01*
X01274511Y01611910D01*
X01274433Y01611681D01*
X01274350Y01611454D01*
X01274262Y01611229D01*
X01274168Y01611006D01*
X01274069Y01610786D01*
X01273964Y01610568D01*
X01273855Y01610353D01*
X01273740Y01610140D01*
X01273620Y01609930D01*
X01273495Y01609724D01*
X01273365Y01609520D01*
X01273230Y01609319D01*
X01273090Y01609122D01*
X01272946Y01608928D01*
X01272797Y01608738D01*
X01272643Y01608552D01*
X01272485Y01608369D01*
X01272323Y01608190D01*
X01272156Y01608015D01*
X01271985Y01607844D01*
X01271810Y01607677D01*
X01271631Y01607515D01*
X01271448Y01607357D01*
X01271262Y01607203D01*
X01271072Y01607054D01*
X01270878Y01606910D01*
X01270681Y01606770D01*
X01270480Y01606635D01*
X01270276Y01606505D01*
X01270070Y01606380D01*
X01269860Y01606260D01*
X01269647Y01606145D01*
X01269432Y01606036D01*
X01269214Y01605931D01*
X01268994Y01605832D01*
X01268771Y01605738D01*
X01268546Y01605650D01*
X01268319Y01605567D01*
X01268090Y01605489D01*
X01267859Y01605418D01*
X01267627Y01605351D01*
X01267393Y01605291D01*
X01267158Y01605236D01*
X01266921Y01605186D01*
X01266684Y01605143D01*
X01266445Y01605105D01*
X01266205Y01605073D01*
X01265965Y01605047D01*
X01265724Y01605026D01*
X01265483Y01605012D01*
X01265242Y01605003D01*
X01265000Y01605000D01*
X01265000Y01705000D02*
X01250000Y01705000D01*
X01245000Y01710000D01*
X01055000Y01710000D01*
X01050000Y01705000D01*
X01035000Y01705000D01*
X01034758Y01705003D01*
X01034517Y01705012D01*
X01034276Y01705026D01*
X01034035Y01705047D01*
X01033795Y01705073D01*
X01033555Y01705105D01*
X01033316Y01705143D01*
X01033079Y01705186D01*
X01032842Y01705236D01*
X01032607Y01705291D01*
X01032373Y01705351D01*
X01032141Y01705418D01*
X01031910Y01705489D01*
X01031681Y01705567D01*
X01031454Y01705650D01*
X01031229Y01705738D01*
X01031006Y01705832D01*
X01030786Y01705931D01*
X01030568Y01706036D01*
X01030353Y01706145D01*
X01030140Y01706260D01*
X01029930Y01706380D01*
X01029724Y01706505D01*
X01029520Y01706635D01*
X01029319Y01706770D01*
X01029122Y01706910D01*
X01028928Y01707054D01*
X01028738Y01707203D01*
X01028552Y01707357D01*
X01028369Y01707515D01*
X01028190Y01707677D01*
X01028015Y01707844D01*
X01027844Y01708015D01*
X01027677Y01708190D01*
X01027515Y01708369D01*
X01027357Y01708552D01*
X01027203Y01708738D01*
X01027054Y01708928D01*
X01026910Y01709122D01*
X01026770Y01709319D01*
X01026635Y01709520D01*
X01026505Y01709724D01*
X01026380Y01709930D01*
X01026260Y01710140D01*
X01026145Y01710353D01*
X01026036Y01710568D01*
X01025931Y01710786D01*
X01025832Y01711006D01*
X01025738Y01711229D01*
X01025650Y01711454D01*
X01025567Y01711681D01*
X01025489Y01711910D01*
X01025418Y01712141D01*
X01025351Y01712373D01*
X01025291Y01712607D01*
X01025236Y01712842D01*
X01025186Y01713079D01*
X01025143Y01713316D01*
X01025105Y01713555D01*
X01025073Y01713795D01*
X01025047Y01714035D01*
X01025026Y01714276D01*
X01025012Y01714517D01*
X01025003Y01714758D01*
X01025000Y01715000D01*
X01025000Y01785000D01*
X01025003Y01785242D01*
X01025012Y01785483D01*
X01025026Y01785724D01*
X01025047Y01785965D01*
X01025073Y01786205D01*
X01025105Y01786445D01*
X01025143Y01786684D01*
X01025186Y01786921D01*
X01025236Y01787158D01*
X01025291Y01787393D01*
X01025351Y01787627D01*
X01025418Y01787859D01*
X01025489Y01788090D01*
X01025567Y01788319D01*
X01025650Y01788546D01*
X01025738Y01788771D01*
X01025832Y01788994D01*
X01025931Y01789214D01*
X01026036Y01789432D01*
X01026145Y01789647D01*
X01026260Y01789860D01*
X01026380Y01790070D01*
X01026505Y01790276D01*
X01026635Y01790480D01*
X01026770Y01790681D01*
X01026910Y01790878D01*
X01027054Y01791072D01*
X01027203Y01791262D01*
X01027357Y01791448D01*
X01027515Y01791631D01*
X01027677Y01791810D01*
X01027844Y01791985D01*
X01028015Y01792156D01*
X01028190Y01792323D01*
X01028369Y01792485D01*
X01028552Y01792643D01*
X01028738Y01792797D01*
X01028928Y01792946D01*
X01029122Y01793090D01*
X01029319Y01793230D01*
X01029520Y01793365D01*
X01029724Y01793495D01*
X01029930Y01793620D01*
X01030140Y01793740D01*
X01030353Y01793855D01*
X01030568Y01793964D01*
X01030786Y01794069D01*
X01031006Y01794168D01*
X01031229Y01794262D01*
X01031454Y01794350D01*
X01031681Y01794433D01*
X01031910Y01794511D01*
X01032141Y01794582D01*
X01032373Y01794649D01*
X01032607Y01794709D01*
X01032842Y01794764D01*
X01033079Y01794814D01*
X01033316Y01794857D01*
X01033555Y01794895D01*
X01033795Y01794927D01*
X01034035Y01794953D01*
X01034276Y01794974D01*
X01034517Y01794988D01*
X01034758Y01794997D01*
X01035000Y01795000D01*
X01050000Y01795000D01*
X01055000Y01790000D01*
X01245000Y01790000D01*
X01250000Y01795000D01*
X01265000Y01795000D01*
X01265242Y01794997D01*
X01265483Y01794988D01*
X01265724Y01794974D01*
X01265965Y01794953D01*
X01266205Y01794927D01*
X01266445Y01794895D01*
X01266684Y01794857D01*
X01266921Y01794814D01*
X01267158Y01794764D01*
X01267393Y01794709D01*
X01267627Y01794649D01*
X01267859Y01794582D01*
X01268090Y01794511D01*
X01268319Y01794433D01*
X01268546Y01794350D01*
X01268771Y01794262D01*
X01268994Y01794168D01*
X01269214Y01794069D01*
X01269432Y01793964D01*
X01269647Y01793855D01*
X01269860Y01793740D01*
X01270070Y01793620D01*
X01270276Y01793495D01*
X01270480Y01793365D01*
X01270681Y01793230D01*
X01270878Y01793090D01*
X01271072Y01792946D01*
X01271262Y01792797D01*
X01271448Y01792643D01*
X01271631Y01792485D01*
X01271810Y01792323D01*
X01271985Y01792156D01*
X01272156Y01791985D01*
X01272323Y01791810D01*
X01272485Y01791631D01*
X01272643Y01791448D01*
X01272797Y01791262D01*
X01272946Y01791072D01*
X01273090Y01790878D01*
X01273230Y01790681D01*
X01273365Y01790480D01*
X01273495Y01790276D01*
X01273620Y01790070D01*
X01273740Y01789860D01*
X01273855Y01789647D01*
X01273964Y01789432D01*
X01274069Y01789214D01*
X01274168Y01788994D01*
X01274262Y01788771D01*
X01274350Y01788546D01*
X01274433Y01788319D01*
X01274511Y01788090D01*
X01274582Y01787859D01*
X01274649Y01787627D01*
X01274709Y01787393D01*
X01274764Y01787158D01*
X01274814Y01786921D01*
X01274857Y01786684D01*
X01274895Y01786445D01*
X01274927Y01786205D01*
X01274953Y01785965D01*
X01274974Y01785724D01*
X01274988Y01785483D01*
X01274997Y01785242D01*
X01275000Y01785000D01*
X01275000Y01715000D01*
X01274997Y01714758D01*
X01274988Y01714517D01*
X01274974Y01714276D01*
X01274953Y01714035D01*
X01274927Y01713795D01*
X01274895Y01713555D01*
X01274857Y01713316D01*
X01274814Y01713079D01*
X01274764Y01712842D01*
X01274709Y01712607D01*
X01274649Y01712373D01*
X01274582Y01712141D01*
X01274511Y01711910D01*
X01274433Y01711681D01*
X01274350Y01711454D01*
X01274262Y01711229D01*
X01274168Y01711006D01*
X01274069Y01710786D01*
X01273964Y01710568D01*
X01273855Y01710353D01*
X01273740Y01710140D01*
X01273620Y01709930D01*
X01273495Y01709724D01*
X01273365Y01709520D01*
X01273230Y01709319D01*
X01273090Y01709122D01*
X01272946Y01708928D01*
X01272797Y01708738D01*
X01272643Y01708552D01*
X01272485Y01708369D01*
X01272323Y01708190D01*
X01272156Y01708015D01*
X01271985Y01707844D01*
X01271810Y01707677D01*
X01271631Y01707515D01*
X01271448Y01707357D01*
X01271262Y01707203D01*
X01271072Y01707054D01*
X01270878Y01706910D01*
X01270681Y01706770D01*
X01270480Y01706635D01*
X01270276Y01706505D01*
X01270070Y01706380D01*
X01269860Y01706260D01*
X01269647Y01706145D01*
X01269432Y01706036D01*
X01269214Y01705931D01*
X01268994Y01705832D01*
X01268771Y01705738D01*
X01268546Y01705650D01*
X01268319Y01705567D01*
X01268090Y01705489D01*
X01267859Y01705418D01*
X01267627Y01705351D01*
X01267393Y01705291D01*
X01267158Y01705236D01*
X01266921Y01705186D01*
X01266684Y01705143D01*
X01266445Y01705105D01*
X01266205Y01705073D01*
X01265965Y01705047D01*
X01265724Y01705026D01*
X01265483Y01705012D01*
X01265242Y01705003D01*
X01265000Y01705000D01*
X01265000Y01805000D02*
X01250000Y01805000D01*
X01245000Y01810000D01*
X01055000Y01810000D01*
X01050000Y01805000D01*
X01035000Y01805000D01*
X01034758Y01805003D01*
X01034517Y01805012D01*
X01034276Y01805026D01*
X01034035Y01805047D01*
X01033795Y01805073D01*
X01033555Y01805105D01*
X01033316Y01805143D01*
X01033079Y01805186D01*
X01032842Y01805236D01*
X01032607Y01805291D01*
X01032373Y01805351D01*
X01032141Y01805418D01*
X01031910Y01805489D01*
X01031681Y01805567D01*
X01031454Y01805650D01*
X01031229Y01805738D01*
X01031006Y01805832D01*
X01030786Y01805931D01*
X01030568Y01806036D01*
X01030353Y01806145D01*
X01030140Y01806260D01*
X01029930Y01806380D01*
X01029724Y01806505D01*
X01029520Y01806635D01*
X01029319Y01806770D01*
X01029122Y01806910D01*
X01028928Y01807054D01*
X01028738Y01807203D01*
X01028552Y01807357D01*
X01028369Y01807515D01*
X01028190Y01807677D01*
X01028015Y01807844D01*
X01027844Y01808015D01*
X01027677Y01808190D01*
X01027515Y01808369D01*
X01027357Y01808552D01*
X01027203Y01808738D01*
X01027054Y01808928D01*
X01026910Y01809122D01*
X01026770Y01809319D01*
X01026635Y01809520D01*
X01026505Y01809724D01*
X01026380Y01809930D01*
X01026260Y01810140D01*
X01026145Y01810353D01*
X01026036Y01810568D01*
X01025931Y01810786D01*
X01025832Y01811006D01*
X01025738Y01811229D01*
X01025650Y01811454D01*
X01025567Y01811681D01*
X01025489Y01811910D01*
X01025418Y01812141D01*
X01025351Y01812373D01*
X01025291Y01812607D01*
X01025236Y01812842D01*
X01025186Y01813079D01*
X01025143Y01813316D01*
X01025105Y01813555D01*
X01025073Y01813795D01*
X01025047Y01814035D01*
X01025026Y01814276D01*
X01025012Y01814517D01*
X01025003Y01814758D01*
X01025000Y01815000D01*
X01025000Y01885000D01*
X01025003Y01885242D01*
X01025012Y01885483D01*
X01025026Y01885724D01*
X01025047Y01885965D01*
X01025073Y01886205D01*
X01025105Y01886445D01*
X01025143Y01886684D01*
X01025186Y01886921D01*
X01025236Y01887158D01*
X01025291Y01887393D01*
X01025351Y01887627D01*
X01025418Y01887859D01*
X01025489Y01888090D01*
X01025567Y01888319D01*
X01025650Y01888546D01*
X01025738Y01888771D01*
X01025832Y01888994D01*
X01025931Y01889214D01*
X01026036Y01889432D01*
X01026145Y01889647D01*
X01026260Y01889860D01*
X01026380Y01890070D01*
X01026505Y01890276D01*
X01026635Y01890480D01*
X01026770Y01890681D01*
X01026910Y01890878D01*
X01027054Y01891072D01*
X01027203Y01891262D01*
X01027357Y01891448D01*
X01027515Y01891631D01*
X01027677Y01891810D01*
X01027844Y01891985D01*
X01028015Y01892156D01*
X01028190Y01892323D01*
X01028369Y01892485D01*
X01028552Y01892643D01*
X01028738Y01892797D01*
X01028928Y01892946D01*
X01029122Y01893090D01*
X01029319Y01893230D01*
X01029520Y01893365D01*
X01029724Y01893495D01*
X01029930Y01893620D01*
X01030140Y01893740D01*
X01030353Y01893855D01*
X01030568Y01893964D01*
X01030786Y01894069D01*
X01031006Y01894168D01*
X01031229Y01894262D01*
X01031454Y01894350D01*
X01031681Y01894433D01*
X01031910Y01894511D01*
X01032141Y01894582D01*
X01032373Y01894649D01*
X01032607Y01894709D01*
X01032842Y01894764D01*
X01033079Y01894814D01*
X01033316Y01894857D01*
X01033555Y01894895D01*
X01033795Y01894927D01*
X01034035Y01894953D01*
X01034276Y01894974D01*
X01034517Y01894988D01*
X01034758Y01894997D01*
X01035000Y01895000D01*
X01050000Y01895000D01*
X01055000Y01890000D01*
X01245000Y01890000D01*
X01250000Y01895000D01*
X01265000Y01895000D01*
X01265242Y01894997D01*
X01265483Y01894988D01*
X01265724Y01894974D01*
X01265965Y01894953D01*
X01266205Y01894927D01*
X01266445Y01894895D01*
X01266684Y01894857D01*
X01266921Y01894814D01*
X01267158Y01894764D01*
X01267393Y01894709D01*
X01267627Y01894649D01*
X01267859Y01894582D01*
X01268090Y01894511D01*
X01268319Y01894433D01*
X01268546Y01894350D01*
X01268771Y01894262D01*
X01268994Y01894168D01*
X01269214Y01894069D01*
X01269432Y01893964D01*
X01269647Y01893855D01*
X01269860Y01893740D01*
X01270070Y01893620D01*
X01270276Y01893495D01*
X01270480Y01893365D01*
X01270681Y01893230D01*
X01270878Y01893090D01*
X01271072Y01892946D01*
X01271262Y01892797D01*
X01271448Y01892643D01*
X01271631Y01892485D01*
X01271810Y01892323D01*
X01271985Y01892156D01*
X01272156Y01891985D01*
X01272323Y01891810D01*
X01272485Y01891631D01*
X01272643Y01891448D01*
X01272797Y01891262D01*
X01272946Y01891072D01*
X01273090Y01890878D01*
X01273230Y01890681D01*
X01273365Y01890480D01*
X01273495Y01890276D01*
X01273620Y01890070D01*
X01273740Y01889860D01*
X01273855Y01889647D01*
X01273964Y01889432D01*
X01274069Y01889214D01*
X01274168Y01888994D01*
X01274262Y01888771D01*
X01274350Y01888546D01*
X01274433Y01888319D01*
X01274511Y01888090D01*
X01274582Y01887859D01*
X01274649Y01887627D01*
X01274709Y01887393D01*
X01274764Y01887158D01*
X01274814Y01886921D01*
X01274857Y01886684D01*
X01274895Y01886445D01*
X01274927Y01886205D01*
X01274953Y01885965D01*
X01274974Y01885724D01*
X01274988Y01885483D01*
X01274997Y01885242D01*
X01275000Y01885000D01*
X01275000Y01815000D01*
X01274997Y01814758D01*
X01274988Y01814517D01*
X01274974Y01814276D01*
X01274953Y01814035D01*
X01274927Y01813795D01*
X01274895Y01813555D01*
X01274857Y01813316D01*
X01274814Y01813079D01*
X01274764Y01812842D01*
X01274709Y01812607D01*
X01274649Y01812373D01*
X01274582Y01812141D01*
X01274511Y01811910D01*
X01274433Y01811681D01*
X01274350Y01811454D01*
X01274262Y01811229D01*
X01274168Y01811006D01*
X01274069Y01810786D01*
X01273964Y01810568D01*
X01273855Y01810353D01*
X01273740Y01810140D01*
X01273620Y01809930D01*
X01273495Y01809724D01*
X01273365Y01809520D01*
X01273230Y01809319D01*
X01273090Y01809122D01*
X01272946Y01808928D01*
X01272797Y01808738D01*
X01272643Y01808552D01*
X01272485Y01808369D01*
X01272323Y01808190D01*
X01272156Y01808015D01*
X01271985Y01807844D01*
X01271810Y01807677D01*
X01271631Y01807515D01*
X01271448Y01807357D01*
X01271262Y01807203D01*
X01271072Y01807054D01*
X01270878Y01806910D01*
X01270681Y01806770D01*
X01270480Y01806635D01*
X01270276Y01806505D01*
X01270070Y01806380D01*
X01269860Y01806260D01*
X01269647Y01806145D01*
X01269432Y01806036D01*
X01269214Y01805931D01*
X01268994Y01805832D01*
X01268771Y01805738D01*
X01268546Y01805650D01*
X01268319Y01805567D01*
X01268090Y01805489D01*
X01267859Y01805418D01*
X01267627Y01805351D01*
X01267393Y01805291D01*
X01267158Y01805236D01*
X01266921Y01805186D01*
X01266684Y01805143D01*
X01266445Y01805105D01*
X01266205Y01805073D01*
X01265965Y01805047D01*
X01265724Y01805026D01*
X01265483Y01805012D01*
X01265242Y01805003D01*
X01265000Y01805000D01*
X01045000Y01970000D02*
X01045000Y02130000D01*
X01044997Y02130242D01*
X01044988Y02130483D01*
X01044974Y02130724D01*
X01044953Y02130965D01*
X01044927Y02131205D01*
X01044895Y02131445D01*
X01044857Y02131684D01*
X01044814Y02131921D01*
X01044764Y02132158D01*
X01044709Y02132393D01*
X01044649Y02132627D01*
X01044582Y02132859D01*
X01044511Y02133090D01*
X01044433Y02133319D01*
X01044350Y02133546D01*
X01044262Y02133771D01*
X01044168Y02133994D01*
X01044069Y02134214D01*
X01043964Y02134432D01*
X01043855Y02134647D01*
X01043740Y02134860D01*
X01043620Y02135070D01*
X01043495Y02135276D01*
X01043365Y02135480D01*
X01043230Y02135681D01*
X01043090Y02135878D01*
X01042946Y02136072D01*
X01042797Y02136262D01*
X01042643Y02136448D01*
X01042485Y02136631D01*
X01042323Y02136810D01*
X01042156Y02136985D01*
X01041985Y02137156D01*
X01041810Y02137323D01*
X01041631Y02137485D01*
X01041448Y02137643D01*
X01041262Y02137797D01*
X01041072Y02137946D01*
X01040878Y02138090D01*
X01040681Y02138230D01*
X01040480Y02138365D01*
X01040276Y02138495D01*
X01040070Y02138620D01*
X01039860Y02138740D01*
X01039647Y02138855D01*
X01039432Y02138964D01*
X01039214Y02139069D01*
X01038994Y02139168D01*
X01038771Y02139262D01*
X01038546Y02139350D01*
X01038319Y02139433D01*
X01038090Y02139511D01*
X01037859Y02139582D01*
X01037627Y02139649D01*
X01037393Y02139709D01*
X01037158Y02139764D01*
X01036921Y02139814D01*
X01036684Y02139857D01*
X01036445Y02139895D01*
X01036205Y02139927D01*
X01035965Y02139953D01*
X01035724Y02139974D01*
X01035483Y02139988D01*
X01035242Y02139997D01*
X01035000Y02140000D01*
X00865000Y02140000D01*
X00864758Y02139997D01*
X00864517Y02139988D01*
X00864276Y02139974D01*
X00864035Y02139953D01*
X00863795Y02139927D01*
X00863555Y02139895D01*
X00863316Y02139857D01*
X00863079Y02139814D01*
X00862842Y02139764D01*
X00862607Y02139709D01*
X00862373Y02139649D01*
X00862141Y02139582D01*
X00861910Y02139511D01*
X00861681Y02139433D01*
X00861454Y02139350D01*
X00861229Y02139262D01*
X00861006Y02139168D01*
X00860786Y02139069D01*
X00860568Y02138964D01*
X00860353Y02138855D01*
X00860140Y02138740D01*
X00859930Y02138620D01*
X00859724Y02138495D01*
X00859520Y02138365D01*
X00859319Y02138230D01*
X00859122Y02138090D01*
X00858928Y02137946D01*
X00858738Y02137797D01*
X00858552Y02137643D01*
X00858369Y02137485D01*
X00858190Y02137323D01*
X00858015Y02137156D01*
X00857844Y02136985D01*
X00857677Y02136810D01*
X00857515Y02136631D01*
X00857357Y02136448D01*
X00857203Y02136262D01*
X00857054Y02136072D01*
X00856910Y02135878D01*
X00856770Y02135681D01*
X00856635Y02135480D01*
X00856505Y02135276D01*
X00856380Y02135070D01*
X00856260Y02134860D01*
X00856145Y02134647D01*
X00856036Y02134432D01*
X00855931Y02134214D01*
X00855832Y02133994D01*
X00855738Y02133771D01*
X00855650Y02133546D01*
X00855567Y02133319D01*
X00855489Y02133090D01*
X00855418Y02132859D01*
X00855351Y02132627D01*
X00855291Y02132393D01*
X00855236Y02132158D01*
X00855186Y02131921D01*
X00855143Y02131684D01*
X00855105Y02131445D01*
X00855073Y02131205D01*
X00855047Y02130965D01*
X00855026Y02130724D01*
X00855012Y02130483D01*
X00855003Y02130242D01*
X00855000Y02130000D01*
X00855000Y01970000D01*
X00855003Y01969758D01*
X00855012Y01969517D01*
X00855026Y01969276D01*
X00855047Y01969035D01*
X00855073Y01968795D01*
X00855105Y01968555D01*
X00855143Y01968316D01*
X00855186Y01968079D01*
X00855236Y01967842D01*
X00855291Y01967607D01*
X00855351Y01967373D01*
X00855418Y01967141D01*
X00855489Y01966910D01*
X00855567Y01966681D01*
X00855650Y01966454D01*
X00855738Y01966229D01*
X00855832Y01966006D01*
X00855931Y01965786D01*
X00856036Y01965568D01*
X00856145Y01965353D01*
X00856260Y01965140D01*
X00856380Y01964930D01*
X00856505Y01964724D01*
X00856635Y01964520D01*
X00856770Y01964319D01*
X00856910Y01964122D01*
X00857054Y01963928D01*
X00857203Y01963738D01*
X00857357Y01963552D01*
X00857515Y01963369D01*
X00857677Y01963190D01*
X00857844Y01963015D01*
X00858015Y01962844D01*
X00858190Y01962677D01*
X00858369Y01962515D01*
X00858552Y01962357D01*
X00858738Y01962203D01*
X00858928Y01962054D01*
X00859122Y01961910D01*
X00859319Y01961770D01*
X00859520Y01961635D01*
X00859724Y01961505D01*
X00859930Y01961380D01*
X00860140Y01961260D01*
X00860353Y01961145D01*
X00860568Y01961036D01*
X00860786Y01960931D01*
X00861006Y01960832D01*
X00861229Y01960738D01*
X00861454Y01960650D01*
X00861681Y01960567D01*
X00861910Y01960489D01*
X00862141Y01960418D01*
X00862373Y01960351D01*
X00862607Y01960291D01*
X00862842Y01960236D01*
X00863079Y01960186D01*
X00863316Y01960143D01*
X00863555Y01960105D01*
X00863795Y01960073D01*
X00864035Y01960047D01*
X00864276Y01960026D01*
X00864517Y01960012D01*
X00864758Y01960003D01*
X00865000Y01960000D01*
X01035000Y01960000D01*
X01035242Y01960003D01*
X01035483Y01960012D01*
X01035724Y01960026D01*
X01035965Y01960047D01*
X01036205Y01960073D01*
X01036445Y01960105D01*
X01036684Y01960143D01*
X01036921Y01960186D01*
X01037158Y01960236D01*
X01037393Y01960291D01*
X01037627Y01960351D01*
X01037859Y01960418D01*
X01038090Y01960489D01*
X01038319Y01960567D01*
X01038546Y01960650D01*
X01038771Y01960738D01*
X01038994Y01960832D01*
X01039214Y01960931D01*
X01039432Y01961036D01*
X01039647Y01961145D01*
X01039860Y01961260D01*
X01040070Y01961380D01*
X01040276Y01961505D01*
X01040480Y01961635D01*
X01040681Y01961770D01*
X01040878Y01961910D01*
X01041072Y01962054D01*
X01041262Y01962203D01*
X01041448Y01962357D01*
X01041631Y01962515D01*
X01041810Y01962677D01*
X01041985Y01962844D01*
X01042156Y01963015D01*
X01042323Y01963190D01*
X01042485Y01963369D01*
X01042643Y01963552D01*
X01042797Y01963738D01*
X01042946Y01963928D01*
X01043090Y01964122D01*
X01043230Y01964319D01*
X01043365Y01964520D01*
X01043495Y01964724D01*
X01043620Y01964930D01*
X01043740Y01965140D01*
X01043855Y01965353D01*
X01043964Y01965568D01*
X01044069Y01965786D01*
X01044168Y01966006D01*
X01044262Y01966229D01*
X01044350Y01966454D01*
X01044433Y01966681D01*
X01044511Y01966910D01*
X01044582Y01967141D01*
X01044649Y01967373D01*
X01044709Y01967607D01*
X01044764Y01967842D01*
X01044814Y01968079D01*
X01044857Y01968316D01*
X01044895Y01968555D01*
X01044927Y01968795D01*
X01044953Y01969035D01*
X01044974Y01969276D01*
X01044988Y01969517D01*
X01044997Y01969758D01*
X01045000Y01970000D01*
X00965000Y02050000D02*
X00960000Y02050000D01*
X00940000Y02050000D02*
X00935000Y02050000D01*
X00865000Y02160000D02*
X01035000Y02160000D01*
X01035242Y02160003D01*
X01035483Y02160012D01*
X01035724Y02160026D01*
X01035965Y02160047D01*
X01036205Y02160073D01*
X01036445Y02160105D01*
X01036684Y02160143D01*
X01036921Y02160186D01*
X01037158Y02160236D01*
X01037393Y02160291D01*
X01037627Y02160351D01*
X01037859Y02160418D01*
X01038090Y02160489D01*
X01038319Y02160567D01*
X01038546Y02160650D01*
X01038771Y02160738D01*
X01038994Y02160832D01*
X01039214Y02160931D01*
X01039432Y02161036D01*
X01039647Y02161145D01*
X01039860Y02161260D01*
X01040070Y02161380D01*
X01040276Y02161505D01*
X01040480Y02161635D01*
X01040681Y02161770D01*
X01040878Y02161910D01*
X01041072Y02162054D01*
X01041262Y02162203D01*
X01041448Y02162357D01*
X01041631Y02162515D01*
X01041810Y02162677D01*
X01041985Y02162844D01*
X01042156Y02163015D01*
X01042323Y02163190D01*
X01042485Y02163369D01*
X01042643Y02163552D01*
X01042797Y02163738D01*
X01042946Y02163928D01*
X01043090Y02164122D01*
X01043230Y02164319D01*
X01043365Y02164520D01*
X01043495Y02164724D01*
X01043620Y02164930D01*
X01043740Y02165140D01*
X01043855Y02165353D01*
X01043964Y02165568D01*
X01044069Y02165786D01*
X01044168Y02166006D01*
X01044262Y02166229D01*
X01044350Y02166454D01*
X01044433Y02166681D01*
X01044511Y02166910D01*
X01044582Y02167141D01*
X01044649Y02167373D01*
X01044709Y02167607D01*
X01044764Y02167842D01*
X01044814Y02168079D01*
X01044857Y02168316D01*
X01044895Y02168555D01*
X01044927Y02168795D01*
X01044953Y02169035D01*
X01044974Y02169276D01*
X01044988Y02169517D01*
X01044997Y02169758D01*
X01045000Y02170000D01*
X01045000Y02330000D01*
X01044997Y02330242D01*
X01044988Y02330483D01*
X01044974Y02330724D01*
X01044953Y02330965D01*
X01044927Y02331205D01*
X01044895Y02331445D01*
X01044857Y02331684D01*
X01044814Y02331921D01*
X01044764Y02332158D01*
X01044709Y02332393D01*
X01044649Y02332627D01*
X01044582Y02332859D01*
X01044511Y02333090D01*
X01044433Y02333319D01*
X01044350Y02333546D01*
X01044262Y02333771D01*
X01044168Y02333994D01*
X01044069Y02334214D01*
X01043964Y02334432D01*
X01043855Y02334647D01*
X01043740Y02334860D01*
X01043620Y02335070D01*
X01043495Y02335276D01*
X01043365Y02335480D01*
X01043230Y02335681D01*
X01043090Y02335878D01*
X01042946Y02336072D01*
X01042797Y02336262D01*
X01042643Y02336448D01*
X01042485Y02336631D01*
X01042323Y02336810D01*
X01042156Y02336985D01*
X01041985Y02337156D01*
X01041810Y02337323D01*
X01041631Y02337485D01*
X01041448Y02337643D01*
X01041262Y02337797D01*
X01041072Y02337946D01*
X01040878Y02338090D01*
X01040681Y02338230D01*
X01040480Y02338365D01*
X01040276Y02338495D01*
X01040070Y02338620D01*
X01039860Y02338740D01*
X01039647Y02338855D01*
X01039432Y02338964D01*
X01039214Y02339069D01*
X01038994Y02339168D01*
X01038771Y02339262D01*
X01038546Y02339350D01*
X01038319Y02339433D01*
X01038090Y02339511D01*
X01037859Y02339582D01*
X01037627Y02339649D01*
X01037393Y02339709D01*
X01037158Y02339764D01*
X01036921Y02339814D01*
X01036684Y02339857D01*
X01036445Y02339895D01*
X01036205Y02339927D01*
X01035965Y02339953D01*
X01035724Y02339974D01*
X01035483Y02339988D01*
X01035242Y02339997D01*
X01035000Y02340000D01*
X00865000Y02340000D01*
X00864758Y02339997D01*
X00864517Y02339988D01*
X00864276Y02339974D01*
X00864035Y02339953D01*
X00863795Y02339927D01*
X00863555Y02339895D01*
X00863316Y02339857D01*
X00863079Y02339814D01*
X00862842Y02339764D01*
X00862607Y02339709D01*
X00862373Y02339649D01*
X00862141Y02339582D01*
X00861910Y02339511D01*
X00861681Y02339433D01*
X00861454Y02339350D01*
X00861229Y02339262D01*
X00861006Y02339168D01*
X00860786Y02339069D01*
X00860568Y02338964D01*
X00860353Y02338855D01*
X00860140Y02338740D01*
X00859930Y02338620D01*
X00859724Y02338495D01*
X00859520Y02338365D01*
X00859319Y02338230D01*
X00859122Y02338090D01*
X00858928Y02337946D01*
X00858738Y02337797D01*
X00858552Y02337643D01*
X00858369Y02337485D01*
X00858190Y02337323D01*
X00858015Y02337156D01*
X00857844Y02336985D01*
X00857677Y02336810D01*
X00857515Y02336631D01*
X00857357Y02336448D01*
X00857203Y02336262D01*
X00857054Y02336072D01*
X00856910Y02335878D01*
X00856770Y02335681D01*
X00856635Y02335480D01*
X00856505Y02335276D01*
X00856380Y02335070D01*
X00856260Y02334860D01*
X00856145Y02334647D01*
X00856036Y02334432D01*
X00855931Y02334214D01*
X00855832Y02333994D01*
X00855738Y02333771D01*
X00855650Y02333546D01*
X00855567Y02333319D01*
X00855489Y02333090D01*
X00855418Y02332859D01*
X00855351Y02332627D01*
X00855291Y02332393D01*
X00855236Y02332158D01*
X00855186Y02331921D01*
X00855143Y02331684D01*
X00855105Y02331445D01*
X00855073Y02331205D01*
X00855047Y02330965D01*
X00855026Y02330724D01*
X00855012Y02330483D01*
X00855003Y02330242D01*
X00855000Y02330000D01*
X00855000Y02170000D01*
X00855003Y02169758D01*
X00855012Y02169517D01*
X00855026Y02169276D01*
X00855047Y02169035D01*
X00855073Y02168795D01*
X00855105Y02168555D01*
X00855143Y02168316D01*
X00855186Y02168079D01*
X00855236Y02167842D01*
X00855291Y02167607D01*
X00855351Y02167373D01*
X00855418Y02167141D01*
X00855489Y02166910D01*
X00855567Y02166681D01*
X00855650Y02166454D01*
X00855738Y02166229D01*
X00855832Y02166006D01*
X00855931Y02165786D01*
X00856036Y02165568D01*
X00856145Y02165353D01*
X00856260Y02165140D01*
X00856380Y02164930D01*
X00856505Y02164724D01*
X00856635Y02164520D01*
X00856770Y02164319D01*
X00856910Y02164122D01*
X00857054Y02163928D01*
X00857203Y02163738D01*
X00857357Y02163552D01*
X00857515Y02163369D01*
X00857677Y02163190D01*
X00857844Y02163015D01*
X00858015Y02162844D01*
X00858190Y02162677D01*
X00858369Y02162515D01*
X00858552Y02162357D01*
X00858738Y02162203D01*
X00858928Y02162054D01*
X00859122Y02161910D01*
X00859319Y02161770D01*
X00859520Y02161635D01*
X00859724Y02161505D01*
X00859930Y02161380D01*
X00860140Y02161260D01*
X00860353Y02161145D01*
X00860568Y02161036D01*
X00860786Y02160931D01*
X00861006Y02160832D01*
X00861229Y02160738D01*
X00861454Y02160650D01*
X00861681Y02160567D01*
X00861910Y02160489D01*
X00862141Y02160418D01*
X00862373Y02160351D01*
X00862607Y02160291D01*
X00862842Y02160236D01*
X00863079Y02160186D01*
X00863316Y02160143D01*
X00863555Y02160105D01*
X00863795Y02160073D01*
X00864035Y02160047D01*
X00864276Y02160026D01*
X00864517Y02160012D01*
X00864758Y02160003D01*
X00865000Y02160000D01*
X00935000Y02250000D02*
X00940000Y02250000D01*
X00960000Y02250000D02*
X00965000Y02250000D01*
X00760000Y02740000D02*
X00760000Y00660000D01*
X00550000Y00660000D01*
X00549985Y00661218D01*
X00549941Y00662434D01*
X00549867Y00663650D01*
X00549763Y00664863D01*
X00549630Y00666073D01*
X00549467Y00667280D01*
X00549275Y00668482D01*
X00549054Y00669680D01*
X00548804Y00670872D01*
X00548525Y00672057D01*
X00548217Y00673235D01*
X00547880Y00674405D01*
X00547515Y00675567D01*
X00547122Y00676719D01*
X00546701Y00677862D01*
X00546252Y00678993D01*
X00545776Y00680114D01*
X00545272Y00681223D01*
X00544742Y00682319D01*
X00544185Y00683402D01*
X00543602Y00684471D01*
X00542994Y00685525D01*
X00542359Y00686565D01*
X00541700Y00687588D01*
X00541016Y00688596D01*
X00540307Y00689586D01*
X00539575Y00690559D01*
X00538819Y00691513D01*
X00538040Y00692449D01*
X00537239Y00693366D01*
X00536415Y00694263D01*
X00535570Y00695139D01*
X00534704Y00695995D01*
X00533817Y00696830D01*
X00532910Y00697642D01*
X00531984Y00698432D01*
X00531038Y00699200D01*
X00530075Y00699944D01*
X00529093Y00700664D01*
X00528094Y00701361D01*
X00527079Y00702033D01*
X00526047Y00702680D01*
X00525000Y00703301D01*
X00523938Y00703897D01*
X00522862Y00704467D01*
X00521773Y00705011D01*
X00520670Y00705527D01*
X00519555Y00706017D01*
X00518429Y00706480D01*
X00517292Y00706915D01*
X00516144Y00707322D01*
X00514987Y00707701D01*
X00513821Y00708052D01*
X00512647Y00708374D01*
X00511465Y00708668D01*
X00510276Y00708933D01*
X00509082Y00709168D01*
X00507882Y00709375D01*
X00506677Y00709552D01*
X00505469Y00709700D01*
X00504257Y00709818D01*
X00503042Y00709907D01*
X00501826Y00709967D01*
X00500609Y00709996D01*
X00499391Y00709996D01*
X00498174Y00709967D01*
X00496958Y00709907D01*
X00495743Y00709818D01*
X00494531Y00709700D01*
X00493323Y00709552D01*
X00492118Y00709375D01*
X00490918Y00709168D01*
X00489724Y00708933D01*
X00488535Y00708668D01*
X00487353Y00708374D01*
X00486179Y00708052D01*
X00485013Y00707701D01*
X00483856Y00707322D01*
X00482708Y00706915D01*
X00481571Y00706480D01*
X00480445Y00706017D01*
X00479330Y00705527D01*
X00478227Y00705011D01*
X00477138Y00704467D01*
X00476062Y00703897D01*
X00475000Y00703301D01*
X00473953Y00702680D01*
X00472921Y00702033D01*
X00471906Y00701361D01*
X00470907Y00700664D01*
X00469925Y00699944D01*
X00468962Y00699200D01*
X00468016Y00698432D01*
X00467090Y00697642D01*
X00466183Y00696830D01*
X00465296Y00695995D01*
X00464430Y00695139D01*
X00463585Y00694263D01*
X00462761Y00693366D01*
X00461960Y00692449D01*
X00461181Y00691513D01*
X00460425Y00690559D01*
X00459693Y00689586D01*
X00458984Y00688596D01*
X00458300Y00687588D01*
X00457641Y00686565D01*
X00457006Y00685525D01*
X00456398Y00684471D01*
X00455815Y00683402D01*
X00455258Y00682319D01*
X00454728Y00681223D01*
X00454224Y00680114D01*
X00453748Y00678993D01*
X00453299Y00677862D01*
X00452878Y00676719D01*
X00452485Y00675567D01*
X00452120Y00674405D01*
X00451783Y00673235D01*
X00451475Y00672057D01*
X00451196Y00670872D01*
X00450946Y00669680D01*
X00450725Y00668482D01*
X00450533Y00667280D01*
X00450370Y00666073D01*
X00450237Y00664863D01*
X00450133Y00663650D01*
X00450059Y00662434D01*
X00450015Y00661218D01*
X00450000Y00660000D01*
X00240000Y00660000D01*
X00240000Y02740000D01*
X00760000Y02740000D01*
X00400000Y02900000D02*
X00400030Y02902454D01*
X00400120Y02904907D01*
X00400271Y02907356D01*
X00400482Y02909802D01*
X00400752Y02912241D01*
X00401082Y02914673D01*
X00401472Y02917096D01*
X00401921Y02919509D01*
X00402430Y02921910D01*
X00402997Y02924298D01*
X00403622Y02926671D01*
X00404306Y02929028D01*
X00405047Y02931368D01*
X00405846Y02933689D01*
X00406701Y02935990D01*
X00407612Y02938268D01*
X00408579Y02940524D01*
X00409601Y02942756D01*
X00410678Y02944961D01*
X00411808Y02947140D01*
X00412991Y02949290D01*
X00414227Y02951410D01*
X00415515Y02953500D01*
X00416853Y02955557D01*
X00418242Y02957581D01*
X00419679Y02959570D01*
X00421165Y02961523D01*
X00422699Y02963439D01*
X00424279Y02965317D01*
X00425905Y02967156D01*
X00427575Y02968954D01*
X00429289Y02970711D01*
X00431046Y02972425D01*
X00432844Y02974095D01*
X00434683Y02975721D01*
X00436561Y02977301D01*
X00438477Y02978835D01*
X00440430Y02980321D01*
X00442419Y02981758D01*
X00444443Y02983147D01*
X00446500Y02984485D01*
X00448590Y02985773D01*
X00450710Y02987009D01*
X00452860Y02988192D01*
X00455039Y02989322D01*
X00457244Y02990399D01*
X00459476Y02991421D01*
X00461732Y02992388D01*
X00464010Y02993299D01*
X00466311Y02994154D01*
X00468632Y02994953D01*
X00470972Y02995694D01*
X00473329Y02996378D01*
X00475702Y02997003D01*
X00478090Y02997570D01*
X00480491Y02998079D01*
X00482904Y02998528D01*
X00485327Y02998918D01*
X00487759Y02999248D01*
X00490198Y02999518D01*
X00492644Y02999729D01*
X00495093Y02999880D01*
X00497546Y02999970D01*
X00500000Y03000000D01*
X00502454Y02999970D01*
X00504907Y02999880D01*
X00507356Y02999729D01*
X00509802Y02999518D01*
X00512241Y02999248D01*
X00514673Y02998918D01*
X00517096Y02998528D01*
X00519509Y02998079D01*
X00521910Y02997570D01*
X00524298Y02997003D01*
X00526671Y02996378D01*
X00529028Y02995694D01*
X00531368Y02994953D01*
X00533689Y02994154D01*
X00535990Y02993299D01*
X00538268Y02992388D01*
X00540524Y02991421D01*
X00542756Y02990399D01*
X00544961Y02989322D01*
X00547140Y02988192D01*
X00549290Y02987009D01*
X00551410Y02985773D01*
X00553500Y02984485D01*
X00555557Y02983147D01*
X00557581Y02981758D01*
X00559570Y02980321D01*
X00561523Y02978835D01*
X00563439Y02977301D01*
X00565317Y02975721D01*
X00567156Y02974095D01*
X00568954Y02972425D01*
X00570711Y02970711D01*
X00572425Y02968954D01*
X00574095Y02967156D01*
X00575721Y02965317D01*
X00577301Y02963439D01*
X00578835Y02961523D01*
X00580321Y02959570D01*
X00581758Y02957581D01*
X00583147Y02955557D01*
X00584485Y02953500D01*
X00585773Y02951410D01*
X00587009Y02949290D01*
X00588192Y02947140D01*
X00589322Y02944961D01*
X00590399Y02942756D01*
X00591421Y02940524D01*
X00592388Y02938268D01*
X00593299Y02935990D01*
X00594154Y02933689D01*
X00594953Y02931368D01*
X00595694Y02929028D01*
X00596378Y02926671D01*
X00597003Y02924298D01*
X00597570Y02921910D01*
X00598079Y02919509D01*
X00598528Y02917096D01*
X00598918Y02914673D01*
X00599248Y02912241D01*
X00599518Y02909802D01*
X00599729Y02907356D01*
X00599880Y02904907D01*
X00599970Y02902454D01*
X00600000Y02900000D01*
X00599970Y02897546D01*
X00599880Y02895093D01*
X00599729Y02892644D01*
X00599518Y02890198D01*
X00599248Y02887759D01*
X00598918Y02885327D01*
X00598528Y02882904D01*
X00598079Y02880491D01*
X00597570Y02878090D01*
X00597003Y02875702D01*
X00596378Y02873329D01*
X00595694Y02870972D01*
X00594953Y02868632D01*
X00594154Y02866311D01*
X00593299Y02864010D01*
X00592388Y02861732D01*
X00591421Y02859476D01*
X00590399Y02857244D01*
X00589322Y02855039D01*
X00588192Y02852860D01*
X00587009Y02850710D01*
X00585773Y02848590D01*
X00584485Y02846500D01*
X00583147Y02844443D01*
X00581758Y02842419D01*
X00580321Y02840430D01*
X00578835Y02838477D01*
X00577301Y02836561D01*
X00575721Y02834683D01*
X00574095Y02832844D01*
X00572425Y02831046D01*
X00570711Y02829289D01*
X00568954Y02827575D01*
X00567156Y02825905D01*
X00565317Y02824279D01*
X00563439Y02822699D01*
X00561523Y02821165D01*
X00559570Y02819679D01*
X00557581Y02818242D01*
X00555557Y02816853D01*
X00553500Y02815515D01*
X00551410Y02814227D01*
X00549290Y02812991D01*
X00547140Y02811808D01*
X00544961Y02810678D01*
X00542756Y02809601D01*
X00540524Y02808579D01*
X00538268Y02807612D01*
X00535990Y02806701D01*
X00533689Y02805846D01*
X00531368Y02805047D01*
X00529028Y02804306D01*
X00526671Y02803622D01*
X00524298Y02802997D01*
X00521910Y02802430D01*
X00519509Y02801921D01*
X00517096Y02801472D01*
X00514673Y02801082D01*
X00512241Y02800752D01*
X00509802Y02800482D01*
X00507356Y02800271D01*
X00504907Y02800120D01*
X00502454Y02800030D01*
X00500000Y02800000D01*
X00497546Y02800030D01*
X00495093Y02800120D01*
X00492644Y02800271D01*
X00490198Y02800482D01*
X00487759Y02800752D01*
X00485327Y02801082D01*
X00482904Y02801472D01*
X00480491Y02801921D01*
X00478090Y02802430D01*
X00475702Y02802997D01*
X00473329Y02803622D01*
X00470972Y02804306D01*
X00468632Y02805047D01*
X00466311Y02805846D01*
X00464010Y02806701D01*
X00461732Y02807612D01*
X00459476Y02808579D01*
X00457244Y02809601D01*
X00455039Y02810678D01*
X00452860Y02811808D01*
X00450710Y02812991D01*
X00448590Y02814227D01*
X00446500Y02815515D01*
X00444443Y02816853D01*
X00442419Y02818242D01*
X00440430Y02819679D01*
X00438477Y02821165D01*
X00436561Y02822699D01*
X00434683Y02824279D01*
X00432844Y02825905D01*
X00431046Y02827575D01*
X00429289Y02829289D01*
X00427575Y02831046D01*
X00425905Y02832844D01*
X00424279Y02834683D01*
X00422699Y02836561D01*
X00421165Y02838477D01*
X00419679Y02840430D01*
X00418242Y02842419D01*
X00416853Y02844443D01*
X00415515Y02846500D01*
X00414227Y02848590D01*
X00412991Y02850710D01*
X00411808Y02852860D01*
X00410678Y02855039D01*
X00409601Y02857244D01*
X00408579Y02859476D01*
X00407612Y02861732D01*
X00406701Y02864010D01*
X00405846Y02866311D01*
X00405047Y02868632D01*
X00404306Y02870972D01*
X00403622Y02873329D01*
X00402997Y02875702D01*
X00402430Y02878090D01*
X00401921Y02880491D01*
X00401472Y02882904D01*
X00401082Y02885327D01*
X00400752Y02887759D01*
X00400482Y02890198D01*
X00400271Y02892644D01*
X00400120Y02895093D01*
X00400030Y02897546D01*
X00400000Y02900000D01*
X00460000Y02960000D02*
X00460000Y02980000D01*
X00450000Y02970000D02*
X00470000Y02970000D01*
X01571753Y03286294D02*
X01571753Y03296970D01*
X01582428Y03307645D01*
X01603780Y03307645D01*
X01614456Y03296970D01*
X01614456Y03286294D01*
X01603780Y03275618D01*
X01582428Y03275618D01*
X01571753Y03286294D01*
X01582428Y03307645D02*
X01571753Y03318321D01*
X01571753Y03328997D01*
X01582428Y03339673D01*
X01603780Y03339673D01*
X01614456Y03328997D01*
X01614456Y03318321D01*
X01603780Y03307645D01*
X01636208Y03307645D02*
X01668235Y03307645D01*
X01678911Y03296970D01*
X01678911Y03286294D01*
X01668235Y03275618D01*
X01646883Y03275618D01*
X01636208Y03286294D01*
X01636208Y03307645D01*
X01657559Y03328997D01*
X01678911Y03339673D01*
X01700663Y03286294D02*
X01711338Y03286294D01*
X01711338Y03275618D01*
X01700663Y03275618D01*
X01700663Y03286294D01*
X01732890Y03286294D02*
X01743566Y03275618D01*
X01764917Y03275618D01*
X01775593Y03286294D01*
X01775593Y03328997D01*
X01732890Y03286294D01*
X01732890Y03328997D01*
X01743566Y03339673D01*
X01764917Y03339673D01*
X01775593Y03328997D01*
X01797345Y03328997D02*
X01808021Y03339673D01*
X01829372Y03339673D01*
X01840048Y03328997D01*
X01840048Y03318321D01*
X01829372Y03307645D01*
X01840048Y03296970D01*
X01840048Y03286294D01*
X01829372Y03275618D01*
X01808021Y03275618D01*
X01797345Y03286294D01*
X01818696Y03307645D02*
X01829372Y03307645D01*
X03510327Y01735672D02*
X03510327Y01714320D01*
X03521003Y01703644D01*
X03531679Y01703644D01*
X03542355Y01714320D01*
X03542355Y01746347D01*
X03563706Y01746347D02*
X03521003Y01746347D01*
X03510327Y01735672D01*
X03563706Y01746347D02*
X03574382Y01735672D01*
X03574382Y01714320D01*
X03563706Y01703644D01*
X03574382Y01681892D02*
X03574382Y01639189D01*
X03574382Y01660541D02*
X03510327Y01660541D01*
X03531679Y01639189D01*
X03563706Y01617637D02*
X03574382Y01617637D01*
X03574382Y01606962D01*
X03563706Y01606962D01*
X03563706Y01617637D01*
X03563706Y01585210D02*
X03553030Y01585210D01*
X03542355Y01574534D01*
X03542355Y01542507D01*
X03563706Y01542507D01*
X03574382Y01553182D01*
X03574382Y01574534D01*
X03563706Y01585210D01*
X03521003Y01563858D02*
X03542355Y01542507D01*
X03521003Y01563858D02*
X03510327Y01585210D01*
X03510327Y01520755D02*
X03521003Y01520755D01*
X03563706Y01478052D01*
X03574382Y01478052D01*
X03510327Y01478052D02*
X03510327Y01520755D01*
X01325000Y00635000D02*
X01325000Y00565000D01*
X01324997Y00564758D01*
X01324988Y00564517D01*
X01324974Y00564276D01*
X01324953Y00564035D01*
X01324927Y00563795D01*
X01324895Y00563555D01*
X01324857Y00563316D01*
X01324814Y00563079D01*
X01324764Y00562842D01*
X01324709Y00562607D01*
X01324649Y00562373D01*
X01324582Y00562141D01*
X01324511Y00561910D01*
X01324433Y00561681D01*
X01324350Y00561454D01*
X01324262Y00561229D01*
X01324168Y00561006D01*
X01324069Y00560786D01*
X01323964Y00560568D01*
X01323855Y00560353D01*
X01323740Y00560140D01*
X01323620Y00559930D01*
X01323495Y00559724D01*
X01323365Y00559520D01*
X01323230Y00559319D01*
X01323090Y00559122D01*
X01322946Y00558928D01*
X01322797Y00558738D01*
X01322643Y00558552D01*
X01322485Y00558369D01*
X01322323Y00558190D01*
X01322156Y00558015D01*
X01321985Y00557844D01*
X01321810Y00557677D01*
X01321631Y00557515D01*
X01321448Y00557357D01*
X01321262Y00557203D01*
X01321072Y00557054D01*
X01320878Y00556910D01*
X01320681Y00556770D01*
X01320480Y00556635D01*
X01320276Y00556505D01*
X01320070Y00556380D01*
X01319860Y00556260D01*
X01319647Y00556145D01*
X01319432Y00556036D01*
X01319214Y00555931D01*
X01318994Y00555832D01*
X01318771Y00555738D01*
X01318546Y00555650D01*
X01318319Y00555567D01*
X01318090Y00555489D01*
X01317859Y00555418D01*
X01317627Y00555351D01*
X01317393Y00555291D01*
X01317158Y00555236D01*
X01316921Y00555186D01*
X01316684Y00555143D01*
X01316445Y00555105D01*
X01316205Y00555073D01*
X01315965Y00555047D01*
X01315724Y00555026D01*
X01315483Y00555012D01*
X01315242Y00555003D01*
X01315000Y00555000D01*
X01300000Y00555000D01*
X01295000Y00560000D01*
X01105000Y00560000D01*
X01100000Y00555000D01*
X01085000Y00555000D01*
X01084758Y00555003D01*
X01084517Y00555012D01*
X01084276Y00555026D01*
X01084035Y00555047D01*
X01083795Y00555073D01*
X01083555Y00555105D01*
X01083316Y00555143D01*
X01083079Y00555186D01*
X01082842Y00555236D01*
X01082607Y00555291D01*
X01082373Y00555351D01*
X01082141Y00555418D01*
X01081910Y00555489D01*
X01081681Y00555567D01*
X01081454Y00555650D01*
X01081229Y00555738D01*
X01081006Y00555832D01*
X01080786Y00555931D01*
X01080568Y00556036D01*
X01080353Y00556145D01*
X01080140Y00556260D01*
X01079930Y00556380D01*
X01079724Y00556505D01*
X01079520Y00556635D01*
X01079319Y00556770D01*
X01079122Y00556910D01*
X01078928Y00557054D01*
X01078738Y00557203D01*
X01078552Y00557357D01*
X01078369Y00557515D01*
X01078190Y00557677D01*
X01078015Y00557844D01*
X01077844Y00558015D01*
X01077677Y00558190D01*
X01077515Y00558369D01*
X01077357Y00558552D01*
X01077203Y00558738D01*
X01077054Y00558928D01*
X01076910Y00559122D01*
X01076770Y00559319D01*
X01076635Y00559520D01*
X01076505Y00559724D01*
X01076380Y00559930D01*
X01076260Y00560140D01*
X01076145Y00560353D01*
X01076036Y00560568D01*
X01075931Y00560786D01*
X01075832Y00561006D01*
X01075738Y00561229D01*
X01075650Y00561454D01*
X01075567Y00561681D01*
X01075489Y00561910D01*
X01075418Y00562141D01*
X01075351Y00562373D01*
X01075291Y00562607D01*
X01075236Y00562842D01*
X01075186Y00563079D01*
X01075143Y00563316D01*
X01075105Y00563555D01*
X01075073Y00563795D01*
X01075047Y00564035D01*
X01075026Y00564276D01*
X01075012Y00564517D01*
X01075003Y00564758D01*
X01075000Y00565000D01*
X01075000Y00635000D01*
X01075003Y00635242D01*
X01075012Y00635483D01*
X01075026Y00635724D01*
X01075047Y00635965D01*
X01075073Y00636205D01*
X01075105Y00636445D01*
X01075143Y00636684D01*
X01075186Y00636921D01*
X01075236Y00637158D01*
X01075291Y00637393D01*
X01075351Y00637627D01*
X01075418Y00637859D01*
X01075489Y00638090D01*
X01075567Y00638319D01*
X01075650Y00638546D01*
X01075738Y00638771D01*
X01075832Y00638994D01*
X01075931Y00639214D01*
X01076036Y00639432D01*
X01076145Y00639647D01*
X01076260Y00639860D01*
X01076380Y00640070D01*
X01076505Y00640276D01*
X01076635Y00640480D01*
X01076770Y00640681D01*
X01076910Y00640878D01*
X01077054Y00641072D01*
X01077203Y00641262D01*
X01077357Y00641448D01*
X01077515Y00641631D01*
X01077677Y00641810D01*
X01077844Y00641985D01*
X01078015Y00642156D01*
X01078190Y00642323D01*
X01078369Y00642485D01*
X01078552Y00642643D01*
X01078738Y00642797D01*
X01078928Y00642946D01*
X01079122Y00643090D01*
X01079319Y00643230D01*
X01079520Y00643365D01*
X01079724Y00643495D01*
X01079930Y00643620D01*
X01080140Y00643740D01*
X01080353Y00643855D01*
X01080568Y00643964D01*
X01080786Y00644069D01*
X01081006Y00644168D01*
X01081229Y00644262D01*
X01081454Y00644350D01*
X01081681Y00644433D01*
X01081910Y00644511D01*
X01082141Y00644582D01*
X01082373Y00644649D01*
X01082607Y00644709D01*
X01082842Y00644764D01*
X01083079Y00644814D01*
X01083316Y00644857D01*
X01083555Y00644895D01*
X01083795Y00644927D01*
X01084035Y00644953D01*
X01084276Y00644974D01*
X01084517Y00644988D01*
X01084758Y00644997D01*
X01085000Y00645000D01*
X01100000Y00645000D01*
X01105000Y00640000D01*
X01295000Y00640000D01*
X01300000Y00645000D01*
X01315000Y00645000D01*
X01315242Y00644997D01*
X01315483Y00644988D01*
X01315724Y00644974D01*
X01315965Y00644953D01*
X01316205Y00644927D01*
X01316445Y00644895D01*
X01316684Y00644857D01*
X01316921Y00644814D01*
X01317158Y00644764D01*
X01317393Y00644709D01*
X01317627Y00644649D01*
X01317859Y00644582D01*
X01318090Y00644511D01*
X01318319Y00644433D01*
X01318546Y00644350D01*
X01318771Y00644262D01*
X01318994Y00644168D01*
X01319214Y00644069D01*
X01319432Y00643964D01*
X01319647Y00643855D01*
X01319860Y00643740D01*
X01320070Y00643620D01*
X01320276Y00643495D01*
X01320480Y00643365D01*
X01320681Y00643230D01*
X01320878Y00643090D01*
X01321072Y00642946D01*
X01321262Y00642797D01*
X01321448Y00642643D01*
X01321631Y00642485D01*
X01321810Y00642323D01*
X01321985Y00642156D01*
X01322156Y00641985D01*
X01322323Y00641810D01*
X01322485Y00641631D01*
X01322643Y00641448D01*
X01322797Y00641262D01*
X01322946Y00641072D01*
X01323090Y00640878D01*
X01323230Y00640681D01*
X01323365Y00640480D01*
X01323495Y00640276D01*
X01323620Y00640070D01*
X01323740Y00639860D01*
X01323855Y00639647D01*
X01323964Y00639432D01*
X01324069Y00639214D01*
X01324168Y00638994D01*
X01324262Y00638771D01*
X01324350Y00638546D01*
X01324433Y00638319D01*
X01324511Y00638090D01*
X01324582Y00637859D01*
X01324649Y00637627D01*
X01324709Y00637393D01*
X01324764Y00637158D01*
X01324814Y00636921D01*
X01324857Y00636684D01*
X01324895Y00636445D01*
X01324927Y00636205D01*
X01324953Y00635965D01*
X01324974Y00635724D01*
X01324988Y00635483D01*
X01324997Y00635242D01*
X01325000Y00635000D01*
D13*
X01158565Y00662500D02*
X01128539Y00662500D01*
X01143552Y00662500D02*
X01143552Y00707538D01*
X01128539Y00692526D01*
X01112526Y00700032D02*
X01112526Y00685019D01*
X01105019Y00677513D01*
X01082500Y00677513D01*
X01097513Y00677513D02*
X01112526Y00662500D01*
X01082500Y00662500D02*
X01082500Y00707538D01*
X01105019Y00707538D01*
X01112526Y00700032D01*
X01112526Y00812500D02*
X01097513Y00827513D01*
X01105019Y00827513D02*
X01082500Y00827513D01*
X01082500Y00812500D02*
X01082500Y00857538D01*
X01105019Y00857538D01*
X01112526Y00850032D01*
X01112526Y00835019D01*
X01105019Y00827513D01*
X01128539Y00812500D02*
X01158565Y00842526D01*
X01158565Y00850032D01*
X01151058Y00857538D01*
X01136046Y00857538D01*
X01128539Y00850032D01*
X01128539Y00812500D02*
X01158565Y00812500D01*
X01151058Y00912500D02*
X01136046Y00912500D01*
X01128539Y00920006D01*
X01112526Y00912500D02*
X01097513Y00927513D01*
X01105019Y00927513D02*
X01082500Y00927513D01*
X01082500Y00912500D02*
X01082500Y00957538D01*
X01105019Y00957538D01*
X01112526Y00950032D01*
X01112526Y00935019D01*
X01105019Y00927513D01*
X01128539Y00950032D02*
X01136046Y00957538D01*
X01151058Y00957538D01*
X01158565Y00950032D01*
X01158565Y00942526D01*
X01151058Y00935019D01*
X01158565Y00927513D01*
X01158565Y00920006D01*
X01151058Y00912500D01*
X01151058Y00935019D02*
X01143552Y00935019D01*
X01151058Y01012500D02*
X01151058Y01057538D01*
X01128539Y01035019D01*
X01158565Y01035019D01*
X01112526Y01035019D02*
X01112526Y01050032D01*
X01105019Y01057538D01*
X01082500Y01057538D01*
X01082500Y01012500D01*
X01082500Y01027513D02*
X01105019Y01027513D01*
X01112526Y01035019D01*
X01097513Y01027513D02*
X01112526Y01012500D01*
X01112526Y01112500D02*
X01097513Y01127513D01*
X01105019Y01127513D02*
X01082500Y01127513D01*
X01082500Y01112500D02*
X01082500Y01157538D01*
X01105019Y01157538D01*
X01112526Y01150032D01*
X01112526Y01135019D01*
X01105019Y01127513D01*
X01128539Y01135019D02*
X01143552Y01142526D01*
X01151058Y01142526D01*
X01158565Y01135019D01*
X01158565Y01120006D01*
X01151058Y01112500D01*
X01136046Y01112500D01*
X01128539Y01120006D01*
X01128539Y01135019D02*
X01128539Y01157538D01*
X01158565Y01157538D01*
X01151058Y01212500D02*
X01158565Y01220006D01*
X01158565Y01227513D01*
X01151058Y01235019D01*
X01128539Y01235019D01*
X01128539Y01220006D01*
X01136046Y01212500D01*
X01151058Y01212500D01*
X01128539Y01235019D02*
X01143552Y01250032D01*
X01158565Y01257538D01*
X01112526Y01250032D02*
X01112526Y01235019D01*
X01105019Y01227513D01*
X01082500Y01227513D01*
X01097513Y01227513D02*
X01112526Y01212500D01*
X01082500Y01212500D02*
X01082500Y01257538D01*
X01105019Y01257538D01*
X01112526Y01250032D01*
X01112526Y01312500D02*
X01097513Y01327513D01*
X01105019Y01327513D02*
X01082500Y01327513D01*
X01082500Y01312500D02*
X01082500Y01357538D01*
X01105019Y01357538D01*
X01112526Y01350032D01*
X01112526Y01335019D01*
X01105019Y01327513D01*
X01128539Y01320006D02*
X01128539Y01312500D01*
X01128539Y01320006D02*
X01158565Y01350032D01*
X01158565Y01357538D01*
X01128539Y01357538D01*
X01180421Y01442500D02*
X01180421Y01487538D01*
X01202941Y01487538D01*
X01210447Y01480032D01*
X01210447Y01465019D01*
X01202941Y01457513D01*
X01180421Y01457513D01*
X01195434Y01457513D02*
X01210447Y01442500D01*
X01226461Y01450006D02*
X01233967Y01442500D01*
X01248980Y01442500D01*
X01256486Y01450006D01*
X01256486Y01480032D01*
X01248980Y01487538D01*
X01233967Y01487538D01*
X01226461Y01480032D01*
X01226461Y01472526D01*
X01233967Y01465019D01*
X01256486Y01465019D01*
X01158565Y01470006D02*
X01151058Y01462500D01*
X01136046Y01462500D01*
X01128539Y01470006D01*
X01128539Y01477513D01*
X01136046Y01485019D01*
X01151058Y01485019D01*
X01158565Y01477513D01*
X01158565Y01470006D01*
X01151058Y01485019D02*
X01158565Y01492526D01*
X01158565Y01500032D01*
X01151058Y01507538D01*
X01136046Y01507538D01*
X01128539Y01500032D01*
X01128539Y01492526D01*
X01136046Y01485019D01*
X01112526Y01485019D02*
X01105019Y01477513D01*
X01082500Y01477513D01*
X01097513Y01477513D02*
X01112526Y01462500D01*
X01112526Y01485019D02*
X01112526Y01500032D01*
X01105019Y01507538D01*
X01082500Y01507538D01*
X01082500Y01462500D01*
X01078539Y01712500D02*
X01108565Y01712500D01*
X01093552Y01712500D02*
X01093552Y01757538D01*
X01078539Y01742526D01*
X01062526Y01750032D02*
X01062526Y01735019D01*
X01055019Y01727513D01*
X01032500Y01727513D01*
X01047513Y01727513D02*
X01062526Y01712500D01*
X01032500Y01712500D02*
X01032500Y01757538D01*
X01055019Y01757538D01*
X01062526Y01750032D01*
X01124578Y01750032D02*
X01124578Y01720006D01*
X01154604Y01750032D01*
X01154604Y01720006D01*
X01147098Y01712500D01*
X01132085Y01712500D01*
X01124578Y01720006D01*
X01124578Y01750032D02*
X01132085Y01757538D01*
X01147098Y01757538D01*
X01154604Y01750032D01*
X01154604Y01812500D02*
X01124578Y01812500D01*
X01139591Y01812500D02*
X01139591Y01857538D01*
X01124578Y01842526D01*
X01108565Y01812500D02*
X01078539Y01812500D01*
X01093552Y01812500D02*
X01093552Y01857538D01*
X01078539Y01842526D01*
X01062526Y01850032D02*
X01062526Y01835019D01*
X01055019Y01827513D01*
X01032500Y01827513D01*
X01047513Y01827513D02*
X01062526Y01812500D01*
X01032500Y01812500D02*
X01032500Y01857538D01*
X01055019Y01857538D01*
X01062526Y01850032D01*
X01062526Y01912500D02*
X01047513Y01927513D01*
X01055019Y01927513D02*
X01032500Y01927513D01*
X01032500Y01912500D02*
X01032500Y01957538D01*
X01055019Y01957538D01*
X01062526Y01950032D01*
X01062526Y01935019D01*
X01055019Y01927513D01*
X01078539Y01942526D02*
X01093552Y01957538D01*
X01093552Y01912500D01*
X01078539Y01912500D02*
X01108565Y01912500D01*
X01124578Y01912500D02*
X01154604Y01942526D01*
X01154604Y01950032D01*
X01147098Y01957538D01*
X01132085Y01957538D01*
X01124578Y01950032D01*
X01124578Y01912500D02*
X01154604Y01912500D01*
X01417520Y01885000D02*
X01582480Y01885000D01*
X01555276Y01945000D02*
X01544724Y01945000D01*
X01595460Y01906228D02*
X01594394Y01903973D01*
X01593274Y01901745D01*
X01592101Y01899544D01*
X01590877Y01897371D01*
X01589601Y01895228D01*
X01588275Y01893116D01*
X01586899Y01891036D01*
X01585474Y01888989D01*
X01584001Y01886976D01*
X01582480Y01885000D01*
X01595000Y01994721D02*
X01593885Y01997018D01*
X01592714Y01999287D01*
X01591488Y02001527D01*
X01590208Y02003736D01*
X01588874Y02005914D01*
X01587488Y02008058D01*
X01586051Y02010169D01*
X01584562Y02012243D01*
X01583024Y02014281D01*
X01581436Y02016281D01*
X01579800Y02018242D01*
X01578117Y02020162D01*
X01576388Y02022041D01*
X01574614Y02023877D01*
X01572795Y02025669D01*
X01570934Y02027417D01*
X01569030Y02029119D01*
X01567086Y02030774D01*
X01565102Y02032382D01*
X01563080Y02033940D01*
X01561020Y02035449D01*
X01558924Y02036908D01*
X01556793Y02038315D01*
X01554629Y02039670D01*
X01552432Y02040972D01*
X01550205Y02042220D01*
X01547947Y02043413D01*
X01545662Y02044552D01*
X01543349Y02045634D01*
X01541011Y02046660D01*
X01538648Y02047628D01*
X01536263Y02048539D01*
X01533856Y02049392D01*
X01531429Y02050186D01*
X01528984Y02050920D01*
X01526521Y02051595D01*
X01524043Y02052210D01*
X01521550Y02052765D01*
X01519045Y02053258D01*
X01516529Y02053691D01*
X01514002Y02054062D01*
X01511468Y02054372D01*
X01508926Y02054620D01*
X01506380Y02054806D01*
X01503829Y02054930D01*
X01501277Y02054992D01*
X01498723Y02054992D01*
X01496171Y02054930D01*
X01493620Y02054806D01*
X01491074Y02054620D01*
X01488532Y02054372D01*
X01485998Y02054062D01*
X01483471Y02053691D01*
X01480955Y02053258D01*
X01478450Y02052765D01*
X01475957Y02052210D01*
X01473479Y02051595D01*
X01471016Y02050920D01*
X01468571Y02050186D01*
X01466144Y02049392D01*
X01463737Y02048539D01*
X01461352Y02047628D01*
X01458989Y02046660D01*
X01456651Y02045634D01*
X01454338Y02044552D01*
X01452053Y02043413D01*
X01449795Y02042220D01*
X01447568Y02040972D01*
X01445371Y02039670D01*
X01443207Y02038315D01*
X01441076Y02036908D01*
X01438980Y02035449D01*
X01436920Y02033940D01*
X01434898Y02032382D01*
X01432914Y02030774D01*
X01430970Y02029119D01*
X01429066Y02027417D01*
X01427205Y02025669D01*
X01425386Y02023877D01*
X01423612Y02022041D01*
X01421883Y02020162D01*
X01420200Y02018242D01*
X01418564Y02016281D01*
X01416976Y02014281D01*
X01415438Y02012243D01*
X01413949Y02010169D01*
X01412512Y02008058D01*
X01411126Y02005914D01*
X01409792Y02003736D01*
X01408512Y02001527D01*
X01407286Y01999287D01*
X01406115Y01997018D01*
X01405000Y01994721D01*
X01444724Y01945000D02*
X01455276Y01945000D01*
X01404979Y01905279D02*
X01406022Y01903129D01*
X01407113Y01901003D01*
X01408252Y01898903D01*
X01409438Y01896829D01*
X01410672Y01894782D01*
X01411951Y01892764D01*
X01413277Y01890776D01*
X01414647Y01888819D01*
X01416061Y01886893D01*
X01417519Y01885000D01*
X01425019Y02072500D02*
X01410006Y02072500D01*
X01402500Y02080006D01*
X01402500Y02110032D01*
X01410006Y02117538D01*
X01425019Y02117538D01*
X01432526Y02110032D01*
X01432526Y02080006D01*
X01425019Y02072500D01*
X01432526Y02072500D02*
X01417513Y02087513D01*
X01448539Y02072500D02*
X01478565Y02102526D01*
X01478565Y02110032D01*
X01471058Y02117538D01*
X01456046Y02117538D01*
X01448539Y02110032D01*
X01448539Y02072500D02*
X01478565Y02072500D01*
X01417520Y02185000D02*
X01582480Y02185000D01*
X01555276Y02245000D02*
X01544724Y02245000D01*
X01595460Y02206228D02*
X01594394Y02203973D01*
X01593274Y02201745D01*
X01592101Y02199544D01*
X01590877Y02197371D01*
X01589601Y02195228D01*
X01588275Y02193116D01*
X01586899Y02191036D01*
X01585474Y02188989D01*
X01584001Y02186976D01*
X01582480Y02185000D01*
X01595000Y02294721D02*
X01593885Y02297018D01*
X01592714Y02299287D01*
X01591488Y02301527D01*
X01590208Y02303736D01*
X01588874Y02305914D01*
X01587488Y02308058D01*
X01586051Y02310169D01*
X01584562Y02312243D01*
X01583024Y02314281D01*
X01581436Y02316281D01*
X01579800Y02318242D01*
X01578117Y02320162D01*
X01576388Y02322041D01*
X01574614Y02323877D01*
X01572795Y02325669D01*
X01570934Y02327417D01*
X01569030Y02329119D01*
X01567086Y02330774D01*
X01565102Y02332382D01*
X01563080Y02333940D01*
X01561020Y02335449D01*
X01558924Y02336908D01*
X01556793Y02338315D01*
X01554629Y02339670D01*
X01552432Y02340972D01*
X01550205Y02342220D01*
X01547947Y02343413D01*
X01545662Y02344552D01*
X01543349Y02345634D01*
X01541011Y02346660D01*
X01538648Y02347628D01*
X01536263Y02348539D01*
X01533856Y02349392D01*
X01531429Y02350186D01*
X01528984Y02350920D01*
X01526521Y02351595D01*
X01524043Y02352210D01*
X01521550Y02352765D01*
X01519045Y02353258D01*
X01516529Y02353691D01*
X01514002Y02354062D01*
X01511468Y02354372D01*
X01508926Y02354620D01*
X01506380Y02354806D01*
X01503829Y02354930D01*
X01501277Y02354992D01*
X01498723Y02354992D01*
X01496171Y02354930D01*
X01493620Y02354806D01*
X01491074Y02354620D01*
X01488532Y02354372D01*
X01485998Y02354062D01*
X01483471Y02353691D01*
X01480955Y02353258D01*
X01478450Y02352765D01*
X01475957Y02352210D01*
X01473479Y02351595D01*
X01471016Y02350920D01*
X01468571Y02350186D01*
X01466144Y02349392D01*
X01463737Y02348539D01*
X01461352Y02347628D01*
X01458989Y02346660D01*
X01456651Y02345634D01*
X01454338Y02344552D01*
X01452053Y02343413D01*
X01449795Y02342220D01*
X01447568Y02340972D01*
X01445371Y02339670D01*
X01443207Y02338315D01*
X01441076Y02336908D01*
X01438980Y02335449D01*
X01436920Y02333940D01*
X01434898Y02332382D01*
X01432914Y02330774D01*
X01430970Y02329119D01*
X01429066Y02327417D01*
X01427205Y02325669D01*
X01425386Y02323877D01*
X01423612Y02322041D01*
X01421883Y02320162D01*
X01420200Y02318242D01*
X01418564Y02316281D01*
X01416976Y02314281D01*
X01415438Y02312243D01*
X01413949Y02310169D01*
X01412512Y02308058D01*
X01411126Y02305914D01*
X01409792Y02303736D01*
X01408512Y02301527D01*
X01407286Y02299287D01*
X01406115Y02297018D01*
X01405000Y02294721D01*
X01444724Y02245000D02*
X01455276Y02245000D01*
X01404979Y02205279D02*
X01406022Y02203129D01*
X01407113Y02201003D01*
X01408252Y02198903D01*
X01409438Y02196829D01*
X01410672Y02194782D01*
X01411951Y02192764D01*
X01413277Y02190776D01*
X01414647Y02188819D01*
X01416061Y02186893D01*
X01417519Y02185000D01*
X01425019Y02372500D02*
X01410006Y02372500D01*
X01402500Y02380006D01*
X01402500Y02410032D01*
X01410006Y02417538D01*
X01425019Y02417538D01*
X01432526Y02410032D01*
X01432526Y02380006D01*
X01425019Y02372500D01*
X01432526Y02372500D02*
X01417513Y02387513D01*
X01448539Y02380006D02*
X01456046Y02372500D01*
X01471058Y02372500D01*
X01478565Y02380006D01*
X01478565Y02387513D01*
X01471058Y02395019D01*
X01463552Y02395019D01*
X01471058Y02395019D02*
X01478565Y02402526D01*
X01478565Y02410032D01*
X01471058Y02417538D01*
X01456046Y02417538D01*
X01448539Y02410032D01*
X00938565Y02375019D02*
X00908539Y02375019D01*
X00931058Y02397538D01*
X00931058Y02352500D01*
X00892526Y02360006D02*
X00885019Y02352500D01*
X00870006Y02352500D01*
X00862500Y02360006D01*
X00862500Y02390032D01*
X00870006Y02397538D01*
X00885019Y02397538D01*
X00892526Y02390032D01*
X00885019Y02197538D02*
X00870006Y02197538D01*
X00862500Y02190032D01*
X00862500Y02160006D01*
X00870006Y02152500D01*
X00885019Y02152500D01*
X00892526Y02160006D01*
X00908539Y02160006D02*
X00916046Y02152500D01*
X00931058Y02152500D01*
X00938565Y02160006D01*
X00938565Y02167513D01*
X00931058Y02175019D01*
X00923552Y02175019D01*
X00931058Y02175019D02*
X00938565Y02182526D01*
X00938565Y02190032D01*
X00931058Y02197538D01*
X00916046Y02197538D01*
X00908539Y02190032D01*
X00892526Y02190032D02*
X00885019Y02197538D01*
X01535000Y01682480D02*
X01535000Y01517520D01*
X01595000Y01544724D02*
X01595000Y01555276D01*
X01556228Y01504540D02*
X01553973Y01505606D01*
X01551745Y01506726D01*
X01549544Y01507899D01*
X01547371Y01509123D01*
X01545228Y01510399D01*
X01543116Y01511725D01*
X01541036Y01513101D01*
X01538989Y01514526D01*
X01536976Y01515999D01*
X01535000Y01517520D01*
X01644721Y01505000D02*
X01647018Y01506115D01*
X01649287Y01507286D01*
X01651527Y01508512D01*
X01653736Y01509792D01*
X01655914Y01511126D01*
X01658058Y01512512D01*
X01660169Y01513949D01*
X01662243Y01515438D01*
X01664281Y01516976D01*
X01666281Y01518564D01*
X01668242Y01520200D01*
X01670162Y01521883D01*
X01672041Y01523612D01*
X01673877Y01525386D01*
X01675669Y01527205D01*
X01677417Y01529066D01*
X01679119Y01530970D01*
X01680774Y01532914D01*
X01682382Y01534898D01*
X01683940Y01536920D01*
X01685449Y01538980D01*
X01686908Y01541076D01*
X01688315Y01543207D01*
X01689670Y01545371D01*
X01690972Y01547568D01*
X01692220Y01549795D01*
X01693413Y01552053D01*
X01694552Y01554338D01*
X01695634Y01556651D01*
X01696660Y01558989D01*
X01697628Y01561352D01*
X01698539Y01563737D01*
X01699392Y01566144D01*
X01700186Y01568571D01*
X01700920Y01571016D01*
X01701595Y01573479D01*
X01702210Y01575957D01*
X01702765Y01578450D01*
X01703258Y01580955D01*
X01703691Y01583471D01*
X01704062Y01585998D01*
X01704372Y01588532D01*
X01704620Y01591074D01*
X01704806Y01593620D01*
X01704930Y01596171D01*
X01704992Y01598723D01*
X01704992Y01601277D01*
X01704930Y01603829D01*
X01704806Y01606380D01*
X01704620Y01608926D01*
X01704372Y01611468D01*
X01704062Y01614002D01*
X01703691Y01616529D01*
X01703258Y01619045D01*
X01702765Y01621550D01*
X01702210Y01624043D01*
X01701595Y01626521D01*
X01700920Y01628984D01*
X01700186Y01631429D01*
X01699392Y01633856D01*
X01698539Y01636263D01*
X01697628Y01638648D01*
X01696660Y01641011D01*
X01695634Y01643349D01*
X01694552Y01645662D01*
X01693413Y01647947D01*
X01692220Y01650205D01*
X01690972Y01652432D01*
X01689670Y01654629D01*
X01688315Y01656793D01*
X01686908Y01658924D01*
X01685449Y01661020D01*
X01683940Y01663080D01*
X01682382Y01665102D01*
X01680774Y01667086D01*
X01679119Y01669030D01*
X01677417Y01670934D01*
X01675669Y01672795D01*
X01673877Y01674614D01*
X01672041Y01676388D01*
X01670162Y01678117D01*
X01668242Y01679800D01*
X01666281Y01681436D01*
X01664281Y01683024D01*
X01662243Y01684562D01*
X01660169Y01686051D01*
X01658058Y01687488D01*
X01655914Y01688874D01*
X01653736Y01690208D01*
X01651527Y01691488D01*
X01649287Y01692714D01*
X01647018Y01693885D01*
X01644721Y01695000D01*
X01595000Y01655276D02*
X01595000Y01644724D01*
X01555279Y01695020D02*
X01553129Y01693977D01*
X01551003Y01692886D01*
X01548903Y01691747D01*
X01546829Y01690561D01*
X01544782Y01689327D01*
X01542764Y01688048D01*
X01540776Y01686722D01*
X01538819Y01685352D01*
X01536893Y01683938D01*
X01535000Y01682480D01*
X01722462Y01671473D02*
X01767500Y01671473D01*
X01767500Y01656461D02*
X01767500Y01686486D01*
X01737474Y01656461D02*
X01722462Y01671473D01*
X01729968Y01640447D02*
X01759994Y01640447D01*
X01767500Y01632941D01*
X01767500Y01617928D01*
X01759994Y01610421D01*
X01729968Y01610421D01*
X01722462Y01617928D01*
X01722462Y01632941D01*
X01729968Y01640447D01*
X01752487Y01625434D02*
X01767500Y01640447D01*
X01902500Y01365538D02*
X01925019Y01365538D01*
X01932526Y01358032D01*
X01932526Y01328006D01*
X01925019Y01320500D01*
X01902500Y01320500D01*
X01902500Y01365538D01*
X01948539Y01365538D02*
X01963552Y01365538D01*
X01956046Y01365538D02*
X01956046Y01320500D01*
X01963552Y01320500D02*
X01948539Y01320500D01*
X01979232Y01328006D02*
X01986738Y01320500D01*
X02001751Y01320500D01*
X02009258Y01328006D01*
X02009258Y01335513D01*
X02001751Y01343019D01*
X01986738Y01343019D01*
X01979232Y01350526D01*
X01979232Y01358032D01*
X01986738Y01365538D01*
X02001751Y01365538D01*
X02009258Y01358032D01*
X02025271Y01358032D02*
X02032778Y01365538D01*
X02047790Y01365538D01*
X02055297Y01358032D01*
X02055297Y01350526D01*
X02047790Y01343019D01*
X02055297Y01335513D01*
X02055297Y01328006D01*
X02047790Y01320500D01*
X02032778Y01320500D01*
X02025271Y01328006D01*
X02040284Y01343019D02*
X02047790Y01343019D01*
X02402500Y01320500D02*
X02425019Y01320500D01*
X02432526Y01328006D01*
X02432526Y01358032D01*
X02425019Y01365538D01*
X02402500Y01365538D01*
X02402500Y01320500D01*
X02448539Y01320500D02*
X02463552Y01320500D01*
X02456046Y01320500D02*
X02456046Y01365538D01*
X02463552Y01365538D02*
X02448539Y01365538D01*
X02479232Y01358032D02*
X02479232Y01350526D01*
X02486738Y01343019D01*
X02501751Y01343019D01*
X02509258Y01335513D01*
X02509258Y01328006D01*
X02501751Y01320500D01*
X02486738Y01320500D01*
X02479232Y01328006D01*
X02479232Y01358032D02*
X02486738Y01365538D01*
X02501751Y01365538D01*
X02509258Y01358032D01*
X02525271Y01358032D02*
X02532778Y01365538D01*
X02547790Y01365538D01*
X02555297Y01358032D01*
X02555297Y01350526D01*
X02525271Y01320500D01*
X02555297Y01320500D01*
X02952500Y01320500D02*
X02975019Y01320500D01*
X02982526Y01328006D01*
X02982526Y01358032D01*
X02975019Y01365538D01*
X02952500Y01365538D01*
X02952500Y01320500D01*
X02998539Y01320500D02*
X03013552Y01320500D01*
X03006046Y01320500D02*
X03006046Y01365538D01*
X03013552Y01365538D02*
X02998539Y01365538D01*
X03029232Y01358032D02*
X03029232Y01350526D01*
X03036738Y01343019D01*
X03051751Y01343019D01*
X03059258Y01335513D01*
X03059258Y01328006D01*
X03051751Y01320500D01*
X03036738Y01320500D01*
X03029232Y01328006D01*
X03029232Y01358032D02*
X03036738Y01365538D01*
X03051751Y01365538D01*
X03059258Y01358032D01*
X03075271Y01350526D02*
X03090284Y01365538D01*
X03090284Y01320500D01*
X03075271Y01320500D02*
X03105297Y01320500D01*
X00678565Y02942500D02*
X00648539Y02942500D01*
X00678565Y02972526D01*
X00678565Y02980032D01*
X00671058Y02987538D01*
X00656046Y02987538D01*
X00648539Y02980032D01*
X00632526Y02980032D02*
X00625019Y02987538D01*
X00610006Y02987538D01*
X00602500Y02980032D01*
X00602500Y02950006D01*
X00610006Y02942500D01*
X00625019Y02942500D01*
X00632526Y02950006D01*
D14*
X00940000Y02280000D02*
X00940000Y02250000D01*
X00940000Y02220000D01*
X00960000Y02220000D02*
X00960000Y02250000D01*
X00960000Y02280000D01*
X00960000Y02080000D02*
X00960000Y02050000D01*
X00960000Y02020000D01*
X00940000Y02020000D02*
X00940000Y02050000D01*
X00940000Y02080000D01*
D15*
X00710063Y00646554D02*
X00710063Y00583500D01*
X00689045Y00583500D02*
X00731081Y00583500D01*
X00689045Y00625536D02*
X00710063Y00646554D01*
X00666626Y00636045D02*
X00656117Y00646554D01*
X00635099Y00646554D01*
X00624590Y00636045D01*
X00624590Y00594009D01*
X00635099Y00583500D01*
X00656117Y00583500D01*
X00666626Y00594009D01*
X00602638Y00583500D02*
X00581620Y00583500D01*
X00592129Y00583500D02*
X00592129Y00646554D01*
X00581620Y00646554D02*
X00602638Y00646554D01*
D16*
X01058000Y00600000D03*
X01058000Y00750000D03*
X01058000Y00850000D03*
X01058000Y00950000D03*
X01058000Y01050000D03*
X01058000Y01150000D03*
X01058000Y01250000D03*
X01058000Y01400000D03*
X01008000Y01550000D03*
X01008000Y01650000D03*
X01008000Y01750000D03*
X01008000Y01850000D03*
X01292000Y01850000D03*
X01292000Y01750000D03*
X01292000Y01650000D03*
X01292000Y01550000D03*
X01342000Y01400000D03*
X01342000Y01250000D03*
X01342000Y01150000D03*
X01342000Y01050000D03*
X01342000Y00950000D03*
X01342000Y00850000D03*
X01342000Y00750000D03*
X01342000Y00600000D03*
M02*
