G75*
%MOIN*%
%OFA0B0*%
%FSLAX26Y26*%
%IPPOS*%
%LPD*%
%AMOC8*
5,1,8,0,0,1.08239X$1,22.5*
%
%ADD10OC8,0.052000*%
%ADD11C,0.052000*%
%ADD12C,0.052000*%
%ADD13C,0.060000*%
%ADD14C,0.016000*%
%ADD15C,0.053150*%
D10*
X01000000Y00600000D03*
X01000000Y00750000D03*
X01000000Y00850000D03*
X01000000Y00950000D03*
X01000000Y01050000D03*
X01000000Y01150000D03*
X01000000Y01250000D03*
X01000000Y01400000D03*
X00950000Y01550000D03*
X00950000Y01650000D03*
X00950000Y01750000D03*
X00950000Y01850000D03*
X00900000Y02050000D03*
X01000000Y02050000D03*
X01000000Y02250000D03*
X00900000Y02250000D03*
X01350000Y01850000D03*
X01350000Y01750000D03*
X01350000Y01650000D03*
X01350000Y01550000D03*
X01400000Y01400000D03*
X01400000Y01250000D03*
X01400000Y01150000D03*
X01400000Y01050000D03*
X01400000Y00950000D03*
X01400000Y00850000D03*
X01400000Y00750000D03*
X01400000Y00600000D03*
X00540000Y02900000D03*
D11*
X00460000Y02900000D03*
X01250000Y02550000D03*
X01250000Y02450000D03*
D12*
X01400000Y02276000D02*
X01400000Y02224000D01*
X01500000Y02224000D02*
X01500000Y02276000D01*
X01600000Y02276000D02*
X01600000Y02224000D01*
X01600000Y01976000D02*
X01600000Y01924000D01*
X01500000Y01924000D02*
X01500000Y01976000D01*
X01400000Y01976000D02*
X01400000Y01924000D01*
X01574000Y01700000D02*
X01626000Y01700000D01*
X01626000Y01600000D02*
X01574000Y01600000D01*
X01574000Y01500000D02*
X01626000Y01500000D01*
X01924000Y01250000D02*
X01976000Y01250000D01*
X01976000Y01150000D02*
X01924000Y01150000D01*
X01924000Y01050000D02*
X01976000Y01050000D01*
X01976000Y00950000D02*
X01924000Y00950000D01*
X01924000Y00850000D02*
X01976000Y00850000D01*
X02124000Y00850000D02*
X02176000Y00850000D01*
X02176000Y00950000D02*
X02124000Y00950000D01*
X02124000Y01050000D02*
X02176000Y01050000D01*
X02176000Y01150000D02*
X02124000Y01150000D01*
X02124000Y01250000D02*
X02176000Y01250000D01*
X02424000Y01250000D02*
X02476000Y01250000D01*
X02476000Y01150000D02*
X02424000Y01150000D01*
X02424000Y01050000D02*
X02476000Y01050000D01*
X02476000Y00950000D02*
X02424000Y00950000D01*
X02424000Y00850000D02*
X02476000Y00850000D01*
X02624000Y00850000D02*
X02676000Y00850000D01*
X02676000Y00950000D02*
X02624000Y00950000D01*
X02624000Y01050000D02*
X02676000Y01050000D01*
X02676000Y01150000D02*
X02624000Y01150000D01*
X02624000Y01250000D02*
X02676000Y01250000D01*
X02974000Y01250000D02*
X03026000Y01250000D01*
X03026000Y01150000D02*
X02974000Y01150000D01*
X02974000Y01050000D02*
X03026000Y01050000D01*
X03026000Y00950000D02*
X02974000Y00950000D01*
X02974000Y00850000D02*
X03026000Y00850000D01*
X03174000Y00850000D02*
X03226000Y00850000D01*
X03226000Y00950000D02*
X03174000Y00950000D01*
X03174000Y01050000D02*
X03226000Y01050000D01*
X03226000Y01150000D02*
X03174000Y01150000D01*
X03174000Y01250000D02*
X03226000Y01250000D01*
X00826000Y01250000D02*
X00774000Y01250000D01*
X00774000Y01150000D02*
X00826000Y01150000D01*
X00826000Y01050000D02*
X00774000Y01050000D01*
X00774000Y00950000D02*
X00826000Y00950000D01*
X00826000Y00850000D02*
X00774000Y00850000D01*
X00774000Y00750000D02*
X00826000Y00750000D01*
X00226000Y00750000D02*
X00174000Y00750000D01*
X00174000Y00850000D02*
X00226000Y00850000D01*
X00226000Y00950000D02*
X00174000Y00950000D01*
X00174000Y01050000D02*
X00226000Y01050000D01*
X00226000Y01150000D02*
X00174000Y01150000D01*
X00174000Y01250000D02*
X00226000Y01250000D01*
X00226000Y01350000D02*
X00174000Y01350000D01*
X00174000Y01450000D02*
X00226000Y01450000D01*
X00226000Y01550000D02*
X00174000Y01550000D01*
X00174000Y01650000D02*
X00226000Y01650000D01*
X00226000Y01750000D02*
X00174000Y01750000D01*
X00174000Y01850000D02*
X00226000Y01850000D01*
X00226000Y01950000D02*
X00174000Y01950000D01*
X00174000Y02050000D02*
X00226000Y02050000D01*
X00226000Y02150000D02*
X00174000Y02150000D01*
X00174000Y02250000D02*
X00226000Y02250000D01*
X00226000Y02350000D02*
X00174000Y02350000D01*
X00174000Y02450000D02*
X00226000Y02450000D01*
X00226000Y02550000D02*
X00174000Y02550000D01*
X00174000Y02650000D02*
X00226000Y02650000D01*
X00774000Y02650000D02*
X00826000Y02650000D01*
X00826000Y02550000D02*
X00774000Y02550000D01*
X00774000Y02450000D02*
X00826000Y02450000D01*
X00826000Y02350000D02*
X00774000Y02350000D01*
X00774000Y02250000D02*
X00826000Y02250000D01*
X00826000Y02150000D02*
X00774000Y02150000D01*
X00774000Y02050000D02*
X00826000Y02050000D01*
X00826000Y01950000D02*
X00774000Y01950000D01*
X00774000Y01850000D02*
X00826000Y01850000D01*
X00826000Y01750000D02*
X00774000Y01750000D01*
X00774000Y01650000D02*
X00826000Y01650000D01*
X00826000Y01550000D02*
X00774000Y01550000D01*
X00774000Y01450000D02*
X00826000Y01450000D01*
X00826000Y01350000D02*
X00774000Y01350000D01*
D13*
X00411000Y00352000D02*
X00411000Y00292000D01*
X00589000Y00292000D02*
X00589000Y00352000D01*
X00589000Y00548000D02*
X00589000Y00608000D01*
X00411000Y00608000D02*
X00411000Y00548000D01*
D14*
X00457000Y00550000D02*
X00457000Y00617150D01*
X00450000Y00634049D01*
X00450000Y02700000D01*
X03339008Y02700000D01*
X03339008Y00550000D01*
X00635000Y00550000D01*
X00635000Y00617150D01*
X00627997Y00634057D01*
X00624000Y00638054D01*
X00624000Y01340059D01*
X00732000Y01448059D01*
X00732000Y01441646D01*
X00738394Y01426209D01*
X00750209Y01414394D01*
X00765646Y01408000D01*
X00834354Y01408000D01*
X00849791Y01414394D01*
X00861606Y01426209D01*
X00868000Y01441646D01*
X00868000Y01458354D01*
X00861606Y01473791D01*
X00849791Y01485606D01*
X00834354Y01492000D01*
X00775941Y01492000D01*
X00791941Y01508000D01*
X00834354Y01508000D01*
X00849791Y01514394D01*
X00861606Y01526209D01*
X00868000Y01541646D01*
X00868000Y01558354D01*
X00861606Y01573791D01*
X00849791Y01585606D01*
X00834354Y01592000D01*
X00765646Y01592000D01*
X00750209Y01585606D01*
X00738394Y01573791D01*
X00732000Y01558354D01*
X00732000Y01541646D01*
X00738394Y01526209D01*
X00740331Y01524272D01*
X00579654Y01363595D01*
X00576000Y01354774D01*
X00576000Y00652405D01*
X00562943Y00646997D01*
X00550003Y00634057D01*
X00543000Y00617150D01*
X00543000Y00550000D01*
X00457000Y00550000D01*
X00457000Y00559948D02*
X00543000Y00559948D01*
X00543000Y00575947D02*
X00457000Y00575947D01*
X00457000Y00591945D02*
X00543000Y00591945D01*
X00543000Y00607944D02*
X00457000Y00607944D01*
X00454186Y00623942D02*
X00545814Y00623942D01*
X00555887Y00639941D02*
X00450000Y00639941D01*
X00450000Y00655939D02*
X00576000Y00655939D01*
X00576000Y00671938D02*
X00450000Y00671938D01*
X00450000Y00687937D02*
X00576000Y00687937D01*
X00576000Y00703935D02*
X00450000Y00703935D01*
X00450000Y00719934D02*
X00576000Y00719934D01*
X00576000Y00735932D02*
X00450000Y00735932D01*
X00450000Y00751931D02*
X00576000Y00751931D01*
X00576000Y00767929D02*
X00450000Y00767929D01*
X00450000Y00783928D02*
X00576000Y00783928D01*
X00576000Y00799926D02*
X00450000Y00799926D01*
X00450000Y00815925D02*
X00576000Y00815925D01*
X00576000Y00831923D02*
X00450000Y00831923D01*
X00450000Y00847922D02*
X00576000Y00847922D01*
X00576000Y00863920D02*
X00450000Y00863920D01*
X00450000Y00879919D02*
X00576000Y00879919D01*
X00576000Y00895917D02*
X00450000Y00895917D01*
X00450000Y00911916D02*
X00576000Y00911916D01*
X00576000Y00927914D02*
X00450000Y00927914D01*
X00450000Y00943913D02*
X00576000Y00943913D01*
X00576000Y00959911D02*
X00450000Y00959911D01*
X00450000Y00975910D02*
X00576000Y00975910D01*
X00576000Y00991908D02*
X00450000Y00991908D01*
X00450000Y01007907D02*
X00576000Y01007907D01*
X00576000Y01023906D02*
X00450000Y01023906D01*
X00450000Y01039904D02*
X00576000Y01039904D01*
X00576000Y01055903D02*
X00450000Y01055903D01*
X00450000Y01071901D02*
X00576000Y01071901D01*
X00576000Y01087900D02*
X00450000Y01087900D01*
X00450000Y01103898D02*
X00576000Y01103898D01*
X00576000Y01119897D02*
X00450000Y01119897D01*
X00450000Y01135895D02*
X00576000Y01135895D01*
X00576000Y01151894D02*
X00450000Y01151894D01*
X00450000Y01167892D02*
X00576000Y01167892D01*
X00576000Y01183891D02*
X00450000Y01183891D01*
X00450000Y01199889D02*
X00576000Y01199889D01*
X00576000Y01215888D02*
X00450000Y01215888D01*
X00450000Y01231886D02*
X00576000Y01231886D01*
X00576000Y01247885D02*
X00450000Y01247885D01*
X00450000Y01263883D02*
X00576000Y01263883D01*
X00576000Y01279882D02*
X00450000Y01279882D01*
X00450000Y01295880D02*
X00576000Y01295880D01*
X00576000Y01311879D02*
X00450000Y01311879D01*
X00450000Y01327877D02*
X00576000Y01327877D01*
X00576000Y01343876D02*
X00450000Y01343876D01*
X00450000Y01359875D02*
X00578113Y01359875D01*
X00591932Y01375873D02*
X00450000Y01375873D01*
X00450000Y01391872D02*
X00607931Y01391872D01*
X00623929Y01407870D02*
X00450000Y01407870D01*
X00450000Y01423869D02*
X00639928Y01423869D01*
X00655926Y01439867D02*
X00450000Y01439867D01*
X00450000Y01455866D02*
X00671925Y01455866D01*
X00687923Y01471864D02*
X00450000Y01471864D01*
X00450000Y01487863D02*
X00703922Y01487863D01*
X00719920Y01503861D02*
X00450000Y01503861D01*
X00450000Y01519860D02*
X00735919Y01519860D01*
X00734397Y01535858D02*
X00450000Y01535858D01*
X00450000Y01551857D02*
X00732000Y01551857D01*
X00735936Y01567855D02*
X00450000Y01567855D01*
X00450000Y01583854D02*
X00748457Y01583854D01*
X00765646Y01608000D02*
X00750209Y01614394D01*
X00738394Y01626209D01*
X00732000Y01641646D01*
X00732000Y01658354D01*
X00738394Y01673791D01*
X00750209Y01685606D01*
X00765646Y01692000D01*
X00834354Y01692000D01*
X00849791Y01685606D01*
X00861606Y01673791D01*
X00868000Y01658354D01*
X00868000Y01641646D01*
X00861606Y01626209D01*
X00849791Y01614394D01*
X00834354Y01608000D01*
X00765646Y01608000D01*
X00748752Y01615851D02*
X00450000Y01615851D01*
X00450000Y01631849D02*
X00736058Y01631849D01*
X00732000Y01647848D02*
X00450000Y01647848D01*
X00450000Y01663846D02*
X00734275Y01663846D01*
X00744448Y01679845D02*
X00450000Y01679845D01*
X00450000Y01695844D02*
X01532000Y01695844D01*
X01532000Y01691646D02*
X01538394Y01676209D01*
X01550209Y01664394D01*
X01565646Y01658000D01*
X01608059Y01658000D01*
X01624059Y01642000D01*
X01565646Y01642000D01*
X01550209Y01635606D01*
X01538603Y01624000D01*
X01509941Y01624000D01*
X01463595Y01670346D01*
X01454774Y01674000D01*
X01385397Y01674000D01*
X01367397Y01692000D01*
X01332603Y01692000D01*
X01308000Y01667397D01*
X01308000Y01632603D01*
X01332603Y01608000D01*
X01367397Y01608000D01*
X01385397Y01626000D01*
X01440059Y01626000D01*
X01479654Y01586405D01*
X01486405Y01579654D01*
X01495226Y01576000D01*
X01538603Y01576000D01*
X01550209Y01564394D01*
X01565646Y01558000D01*
X01634354Y01558000D01*
X01649791Y01564394D01*
X01661606Y01576209D01*
X01668000Y01591646D01*
X01668000Y01598059D01*
X01926000Y01340059D01*
X01926000Y01292000D01*
X01915646Y01292000D01*
X01900209Y01285606D01*
X01888394Y01273791D01*
X01882000Y01258354D01*
X01882000Y01241646D01*
X01888394Y01226209D01*
X01900209Y01214394D01*
X01915646Y01208000D01*
X01984354Y01208000D01*
X01999791Y01214394D01*
X02011606Y01226209D01*
X02018000Y01241646D01*
X02018000Y01258354D01*
X02011606Y01273791D01*
X01999791Y01285606D01*
X01984354Y01292000D01*
X01974000Y01292000D01*
X01974000Y01354774D01*
X01970346Y01363595D01*
X01659669Y01674272D01*
X01661606Y01676209D01*
X01668000Y01691646D01*
X01668000Y01708354D01*
X01661606Y01723791D01*
X01649791Y01735606D01*
X01634354Y01742000D01*
X01565646Y01742000D01*
X01550209Y01735606D01*
X01538394Y01723791D01*
X01532000Y01708354D01*
X01532000Y01691646D01*
X01536888Y01679845D02*
X01379552Y01679845D01*
X01367397Y01708000D02*
X01332603Y01708000D01*
X01308000Y01732603D01*
X01308000Y01767397D01*
X01332603Y01792000D01*
X01367397Y01792000D01*
X01385397Y01774000D01*
X01390059Y01774000D01*
X01407474Y01791415D01*
X01407425Y01791531D01*
X01407425Y01808469D01*
X01413907Y01824117D01*
X01425883Y01836093D01*
X01441531Y01842575D01*
X01458469Y01842575D01*
X01474117Y01836093D01*
X01486093Y01824117D01*
X01492575Y01808469D01*
X01492575Y01791531D01*
X01486093Y01775883D01*
X01474117Y01763907D01*
X01458469Y01757425D01*
X01441531Y01757425D01*
X01441415Y01757474D01*
X01413595Y01729654D01*
X01404774Y01726000D01*
X01385397Y01726000D01*
X01367397Y01708000D01*
X01371239Y01711842D02*
X01533445Y01711842D01*
X01542444Y01727841D02*
X01409217Y01727841D01*
X01400000Y01750000D02*
X01450000Y01800000D01*
X01465094Y01839830D02*
X01476229Y01839830D01*
X01480275Y01835783D02*
X01480669Y01834997D01*
X01483632Y01832427D01*
X01486405Y01829654D01*
X01487217Y01829317D01*
X01487882Y01828741D01*
X01491602Y01827501D01*
X01495226Y01826000D01*
X01496105Y01826000D01*
X01637036Y01779023D01*
X02086405Y01329654D01*
X02095226Y01326000D01*
X02315790Y01326000D01*
X02313907Y01324117D01*
X02307425Y01308469D01*
X02307425Y01291531D01*
X02313907Y01275883D01*
X02315790Y01274000D01*
X02211397Y01274000D01*
X02199791Y01285606D01*
X02184354Y01292000D01*
X02115646Y01292000D01*
X02100209Y01285606D01*
X02088394Y01273791D01*
X02082000Y01258354D01*
X02082000Y01241646D01*
X02088394Y01226209D01*
X02091957Y01222646D01*
X02086405Y01220346D01*
X02040059Y01174000D01*
X02011397Y01174000D01*
X01999791Y01185606D01*
X01984354Y01192000D01*
X01915646Y01192000D01*
X01900209Y01185606D01*
X01888603Y01174000D01*
X01586141Y01174000D01*
X01586093Y01174117D01*
X01584210Y01176000D01*
X01704774Y01176000D01*
X01713595Y01179654D01*
X01720346Y01186405D01*
X01791415Y01257474D01*
X01791531Y01257425D01*
X01808469Y01257425D01*
X01824117Y01263907D01*
X01836093Y01275883D01*
X01842575Y01291531D01*
X01842575Y01308469D01*
X01836093Y01324117D01*
X01824117Y01336093D01*
X01808469Y01342575D01*
X01791531Y01342575D01*
X01775883Y01336093D01*
X01763907Y01324117D01*
X01757425Y01308469D01*
X01757425Y01291531D01*
X01757474Y01291415D01*
X01690059Y01224000D01*
X01684210Y01224000D01*
X01686093Y01225883D01*
X01692575Y01241531D01*
X01692575Y01258469D01*
X01686093Y01274117D01*
X01674117Y01286093D01*
X01658469Y01292575D01*
X01641531Y01292575D01*
X01625883Y01286093D01*
X01613907Y01274117D01*
X01613859Y01274000D01*
X01435397Y01274000D01*
X01417397Y01292000D01*
X01382603Y01292000D01*
X01358000Y01267397D01*
X01358000Y01232603D01*
X01382603Y01208000D01*
X01417397Y01208000D01*
X01435397Y01226000D01*
X01613859Y01226000D01*
X01613907Y01225883D01*
X01615790Y01224000D01*
X01495226Y01224000D01*
X01486405Y01220346D01*
X01479654Y01213595D01*
X01437728Y01171669D01*
X01417397Y01192000D01*
X01382603Y01192000D01*
X01358000Y01167397D01*
X01358000Y01132603D01*
X01382603Y01108000D01*
X01417397Y01108000D01*
X01426000Y01116603D01*
X01426000Y01083397D01*
X01417397Y01092000D01*
X01382603Y01092000D01*
X01358000Y01067397D01*
X01358000Y01032603D01*
X01382603Y01008000D01*
X01417397Y01008000D01*
X01426000Y01016603D01*
X01426000Y00983397D01*
X01417397Y00992000D01*
X01382603Y00992000D01*
X01358000Y00967397D01*
X01358000Y00932603D01*
X01382603Y00908000D01*
X01417397Y00908000D01*
X01426000Y00916603D01*
X01426000Y00883397D01*
X01417397Y00892000D01*
X01382603Y00892000D01*
X01358000Y00867397D01*
X01358000Y00842575D01*
X01341531Y00842575D01*
X01325883Y00836093D01*
X01313907Y00824117D01*
X01307425Y00808469D01*
X01307425Y00791531D01*
X01313907Y00775883D01*
X01325883Y00763907D01*
X01341531Y00757425D01*
X01358000Y00757425D01*
X01358000Y00732603D01*
X01382603Y00708000D01*
X01417397Y00708000D01*
X01426000Y00716603D01*
X01426000Y00705666D01*
X01394167Y00642000D01*
X01382603Y00642000D01*
X01358000Y00617397D01*
X01358000Y00582603D01*
X01382603Y00558000D01*
X01417397Y00558000D01*
X01442000Y00582603D01*
X01442000Y00617397D01*
X01437687Y00621709D01*
X01469725Y00685783D01*
X01470346Y00686405D01*
X01471847Y00690028D01*
X01473601Y00693537D01*
X01473663Y00694414D01*
X01474000Y00695226D01*
X01474000Y00699148D01*
X01474278Y00703061D01*
X01474000Y00703895D01*
X01474000Y01140059D01*
X01509941Y01176000D01*
X01515790Y01176000D01*
X01513907Y01174117D01*
X01507425Y01158469D01*
X01507425Y01141531D01*
X01513907Y01125883D01*
X01525883Y01113907D01*
X01541531Y01107425D01*
X01558469Y01107425D01*
X01574117Y01113907D01*
X01586093Y01125883D01*
X01586141Y01126000D01*
X01888603Y01126000D01*
X01890603Y01124000D01*
X01595226Y01124000D01*
X01586405Y01120346D01*
X01579654Y01113595D01*
X01529654Y01063595D01*
X01526000Y01054774D01*
X01526000Y00936141D01*
X01525883Y00936093D01*
X01513907Y00924117D01*
X01507425Y00908469D01*
X01507425Y00891531D01*
X01513907Y00875883D01*
X01525883Y00863907D01*
X01541531Y00857425D01*
X01558469Y00857425D01*
X01574117Y00863907D01*
X01586093Y00875883D01*
X01592575Y00891531D01*
X01592575Y00908469D01*
X01586093Y00924117D01*
X01574117Y00936093D01*
X01574000Y00936141D01*
X01574000Y01040059D01*
X01609941Y01076000D01*
X01615790Y01076000D01*
X01613907Y01074117D01*
X01607425Y01058469D01*
X01607425Y01041531D01*
X01613907Y01025883D01*
X01625883Y01013907D01*
X01626000Y01013859D01*
X01626000Y00936141D01*
X01625883Y00936093D01*
X01613907Y00924117D01*
X01607425Y00908469D01*
X01607425Y00891531D01*
X01613907Y00875883D01*
X01625883Y00863907D01*
X01641531Y00857425D01*
X01658469Y00857425D01*
X01674117Y00863907D01*
X01686093Y00875883D01*
X01686141Y00876000D01*
X01790059Y00876000D01*
X01879654Y00786405D01*
X01886405Y00779654D01*
X01895226Y00776000D01*
X02040059Y00776000D01*
X02079654Y00736405D01*
X02086405Y00729654D01*
X02095226Y00726000D01*
X02663859Y00726000D01*
X02663907Y00725883D01*
X02675883Y00713907D01*
X02691531Y00707425D01*
X02708469Y00707425D01*
X02724117Y00713907D01*
X02736093Y00725883D01*
X02742575Y00741531D01*
X02742575Y00758469D01*
X02736093Y00774117D01*
X02724117Y00786093D01*
X02721230Y00787289D01*
X02759941Y00826000D01*
X02938603Y00826000D01*
X02950209Y00814394D01*
X02965646Y00808000D01*
X03034354Y00808000D01*
X03049791Y00814394D01*
X03061606Y00826209D01*
X03068000Y00841646D01*
X03068000Y00858354D01*
X03061606Y00873791D01*
X03049791Y00885606D01*
X03034354Y00892000D01*
X02965646Y00892000D01*
X02950209Y00885606D01*
X02938603Y00874000D01*
X02884210Y00874000D01*
X02886093Y00875883D01*
X02886141Y00876000D01*
X02904774Y00876000D01*
X02913595Y00879654D01*
X02949272Y00915331D01*
X02950209Y00914394D01*
X02965646Y00908000D01*
X03034354Y00908000D01*
X03049791Y00914394D01*
X03061606Y00926209D01*
X03068000Y00941646D01*
X03068000Y00958354D01*
X03061606Y00973791D01*
X03059397Y00976000D01*
X03090059Y00976000D01*
X03129654Y00936405D01*
X03136405Y00929654D01*
X03137084Y00929373D01*
X03138394Y00926209D01*
X03150209Y00914394D01*
X03165646Y00908000D01*
X03224059Y00908000D01*
X03208059Y00892000D01*
X03165646Y00892000D01*
X03150209Y00885606D01*
X03138394Y00873791D01*
X03132000Y00858354D01*
X03132000Y00841646D01*
X03138394Y00826209D01*
X03150209Y00814394D01*
X03165646Y00808000D01*
X03234354Y00808000D01*
X03249791Y00814394D01*
X03261606Y00826209D01*
X03268000Y00841646D01*
X03268000Y00858354D01*
X03261606Y00873791D01*
X03259669Y00875728D01*
X03320346Y00936405D01*
X03324000Y00945226D01*
X03324000Y01054774D01*
X03320346Y01063595D01*
X03313595Y01070346D01*
X03313595Y01070346D01*
X03270346Y01113595D01*
X03263595Y01120346D01*
X03258043Y01122646D01*
X03261606Y01126209D01*
X03268000Y01141646D01*
X03268000Y01158354D01*
X03261606Y01173791D01*
X03249791Y01185606D01*
X03234354Y01192000D01*
X03165646Y01192000D01*
X03150209Y01185606D01*
X03138394Y01173791D01*
X03132000Y01158354D01*
X03132000Y01151941D01*
X03059669Y01224272D01*
X03061606Y01226209D01*
X03068000Y01241646D01*
X03068000Y01258354D01*
X03061606Y01273791D01*
X03049791Y01285606D01*
X03034354Y01292000D01*
X02965646Y01292000D01*
X02950209Y01285606D01*
X02938603Y01274000D01*
X02809941Y01274000D01*
X02670346Y01413595D01*
X02663595Y01420346D01*
X02654774Y01424000D01*
X02259941Y01424000D01*
X01501941Y02182000D01*
X01508354Y02182000D01*
X01523791Y02188394D01*
X01535606Y02200209D01*
X01542000Y02215646D01*
X01542000Y02284354D01*
X01535606Y02299791D01*
X01523791Y02311606D01*
X01520627Y02312916D01*
X01520346Y02313595D01*
X01470346Y02363595D01*
X01463595Y02370346D01*
X01454774Y02374000D01*
X01345226Y02374000D01*
X01336405Y02370346D01*
X01329654Y02363595D01*
X01286405Y02320346D01*
X01279654Y02313595D01*
X01276000Y02304774D01*
X01276000Y01895226D01*
X01279654Y01886405D01*
X01308000Y01858059D01*
X01308000Y01832603D01*
X01332603Y01808000D01*
X01367397Y01808000D01*
X01392000Y01832603D01*
X01392000Y01867397D01*
X01367397Y01892000D01*
X01341941Y01892000D01*
X01324000Y01909941D01*
X01324000Y02290059D01*
X01359941Y02326000D01*
X01440059Y02326000D01*
X01465331Y02300728D01*
X01464394Y02299791D01*
X01458000Y02284354D01*
X01458000Y02225941D01*
X01442000Y02241941D01*
X01442000Y02284354D01*
X01435606Y02299791D01*
X01423791Y02311606D01*
X01408354Y02318000D01*
X01391646Y02318000D01*
X01376209Y02311606D01*
X01364394Y02299791D01*
X01358000Y02284354D01*
X01358000Y02215646D01*
X01364394Y02200209D01*
X01376209Y02188394D01*
X01391646Y02182000D01*
X01408354Y02182000D01*
X01423791Y02188394D01*
X01425728Y02190331D01*
X01596124Y02019935D01*
X01589697Y02018916D01*
X01583110Y02016776D01*
X01576939Y02013632D01*
X01571336Y02009561D01*
X01566439Y02004664D01*
X01562368Y01999061D01*
X01559224Y01992890D01*
X01557083Y01986303D01*
X01556000Y01979463D01*
X01556000Y01950000D01*
X01599999Y01950000D01*
X01599999Y01949999D01*
X01600000Y01949999D01*
X01600000Y01880000D01*
X01603463Y01880000D01*
X01610303Y01881083D01*
X01616890Y01883224D01*
X01623061Y01886368D01*
X01628664Y01890439D01*
X01633561Y01895336D01*
X01637632Y01900939D01*
X01640776Y01907110D01*
X01642916Y01913697D01*
X01644000Y01920537D01*
X01644000Y01949999D01*
X01600001Y01949999D01*
X01600001Y01950000D01*
X01644000Y01950000D01*
X01644000Y01972059D01*
X02236405Y01379654D01*
X02245226Y01376000D01*
X02465790Y01376000D01*
X02463907Y01374117D01*
X02463859Y01374000D01*
X02109941Y01374000D01*
X01669724Y01814217D01*
X01669331Y01815003D01*
X01666369Y01817572D01*
X01663595Y01820346D01*
X01662782Y01820683D01*
X01662118Y01821259D01*
X01658398Y01822499D01*
X01654774Y01824000D01*
X01653894Y01824000D01*
X01512964Y01870977D01*
X01501941Y01882000D01*
X01508354Y01882000D01*
X01523791Y01888394D01*
X01535606Y01900209D01*
X01542000Y01915646D01*
X01542000Y01984354D01*
X01535606Y01999791D01*
X01523791Y02011606D01*
X01508354Y02018000D01*
X01491646Y02018000D01*
X01476209Y02011606D01*
X01464394Y01999791D01*
X01458000Y01984354D01*
X01458000Y01925941D01*
X01442000Y01941941D01*
X01442000Y01984354D01*
X01435606Y01999791D01*
X01423791Y02011606D01*
X01408354Y02018000D01*
X01391646Y02018000D01*
X01376209Y02011606D01*
X01364394Y01999791D01*
X01358000Y01984354D01*
X01358000Y01915646D01*
X01364394Y01900209D01*
X01376209Y01888394D01*
X01391646Y01882000D01*
X01408354Y01882000D01*
X01423791Y01888394D01*
X01425728Y01890331D01*
X01480275Y01835783D01*
X01486211Y01823832D02*
X01502610Y01823832D01*
X01492575Y01807833D02*
X01550606Y01807833D01*
X01558408Y01855829D02*
X01760230Y01855829D01*
X01744232Y01871827D02*
X01512114Y01871827D01*
X01522419Y01887826D02*
X01574932Y01887826D01*
X01576939Y01886368D02*
X01583110Y01883224D01*
X01589697Y01881083D01*
X01596537Y01880000D01*
X01599999Y01880000D01*
X01599999Y01949999D01*
X01556000Y01949999D01*
X01556000Y01920537D01*
X01557083Y01913697D01*
X01559224Y01907110D01*
X01562368Y01900939D01*
X01566439Y01895336D01*
X01571336Y01890439D01*
X01576939Y01886368D01*
X01599999Y01887826D02*
X01600000Y01887826D01*
X01599999Y01903824D02*
X01600000Y01903824D01*
X01599999Y01919823D02*
X01600000Y01919823D01*
X01599999Y01935821D02*
X01600000Y01935821D01*
X01644000Y01935821D02*
X01680237Y01935821D01*
X01664239Y01951820D02*
X01644000Y01951820D01*
X01644000Y01967818D02*
X01648240Y01967818D01*
X01684125Y01999815D02*
X03339008Y01999815D01*
X03339008Y01983817D02*
X01700124Y01983817D01*
X01716123Y01967818D02*
X03339008Y01967818D01*
X03339008Y01951820D02*
X01732121Y01951820D01*
X01748120Y01935821D02*
X03339008Y01935821D01*
X03339008Y01919823D02*
X01764118Y01919823D01*
X01780117Y01903824D02*
X03339008Y01903824D01*
X03339008Y01887826D02*
X01796115Y01887826D01*
X01812114Y01871827D02*
X03339008Y01871827D01*
X03339008Y01855829D02*
X01828112Y01855829D01*
X01844111Y01839830D02*
X03339008Y01839830D01*
X03339008Y01823832D02*
X01860109Y01823832D01*
X01876108Y01807833D02*
X03339008Y01807833D01*
X03339008Y01791835D02*
X01892106Y01791835D01*
X01908105Y01775836D02*
X03339008Y01775836D01*
X03339008Y01759838D02*
X01924103Y01759838D01*
X01940102Y01743839D02*
X03339008Y01743839D01*
X03339008Y01727841D02*
X01956100Y01727841D01*
X01972099Y01711842D02*
X03339008Y01711842D01*
X03339008Y01695844D02*
X01988097Y01695844D01*
X02004096Y01679845D02*
X03339008Y01679845D01*
X03339008Y01663846D02*
X02020094Y01663846D01*
X02036093Y01647848D02*
X03339008Y01647848D01*
X03339008Y01631849D02*
X02052092Y01631849D01*
X02068090Y01615851D02*
X03339008Y01615851D01*
X03339008Y01599852D02*
X02084089Y01599852D01*
X02100087Y01583854D02*
X03339008Y01583854D01*
X03339008Y01567855D02*
X02116086Y01567855D01*
X02132084Y01551857D02*
X03339008Y01551857D01*
X03339008Y01535858D02*
X02148083Y01535858D01*
X02164081Y01519860D02*
X03339008Y01519860D01*
X03339008Y01503861D02*
X02180080Y01503861D01*
X02196078Y01487863D02*
X03339008Y01487863D01*
X03339008Y01471864D02*
X02212077Y01471864D01*
X02228075Y01455866D02*
X03339008Y01455866D01*
X03339008Y01439867D02*
X02244074Y01439867D01*
X02208189Y01407870D02*
X02076071Y01407870D01*
X02092069Y01391872D02*
X02224187Y01391872D01*
X02250000Y01400000D02*
X01400000Y02250000D01*
X01442000Y02255792D02*
X01458000Y02255792D01*
X01458000Y02271790D02*
X01442000Y02271790D01*
X01440577Y02287789D02*
X01459423Y02287789D01*
X01462271Y02303787D02*
X01431609Y02303787D01*
X01446273Y02319786D02*
X01353727Y02319786D01*
X01368391Y02303787D02*
X01337728Y02303787D01*
X01324000Y02287789D02*
X01359423Y02287789D01*
X01358000Y02271790D02*
X01324000Y02271790D01*
X01324000Y02255792D02*
X01358000Y02255792D01*
X01358000Y02239793D02*
X01324000Y02239793D01*
X01324000Y02223795D02*
X01358000Y02223795D01*
X01361251Y02207796D02*
X01324000Y02207796D01*
X01324000Y02191798D02*
X01372805Y02191798D01*
X01324000Y02175799D02*
X01440260Y02175799D01*
X01456258Y02159801D02*
X01324000Y02159801D01*
X01324000Y02143802D02*
X01472257Y02143802D01*
X01488255Y02127804D02*
X01324000Y02127804D01*
X01324000Y02111805D02*
X01504254Y02111805D01*
X01520252Y02095807D02*
X01324000Y02095807D01*
X01324000Y02079808D02*
X01536251Y02079808D01*
X01552249Y02063810D02*
X01324000Y02063810D01*
X01324000Y02047811D02*
X01568248Y02047811D01*
X01584246Y02031813D02*
X01324000Y02031813D01*
X01324000Y02015814D02*
X01386368Y02015814D01*
X01364419Y01999815D02*
X01324000Y01999815D01*
X01324000Y01983817D02*
X01358000Y01983817D01*
X01358000Y01967818D02*
X01324000Y01967818D01*
X01324000Y01951820D02*
X01358000Y01951820D01*
X01358000Y01935821D02*
X01324000Y01935821D01*
X01324000Y01919823D02*
X01358000Y01919823D01*
X01362896Y01903824D02*
X01330117Y01903824D01*
X01300000Y01900000D02*
X01350000Y01850000D01*
X01383229Y01823832D02*
X01413789Y01823832D01*
X01407425Y01807833D02*
X00450000Y01807833D01*
X00450000Y01791835D02*
X00765247Y01791835D01*
X00765646Y01792000D02*
X00750209Y01785606D01*
X00738394Y01773791D01*
X00732000Y01758354D01*
X00732000Y01741646D01*
X00738394Y01726209D01*
X00750209Y01714394D01*
X00765646Y01708000D01*
X00834354Y01708000D01*
X00849791Y01714394D01*
X00861606Y01726209D01*
X00868000Y01741646D01*
X00868000Y01758354D01*
X00861606Y01773791D01*
X00849791Y01785606D01*
X00834354Y01792000D01*
X00765646Y01792000D01*
X00765646Y01808000D02*
X00750209Y01814394D01*
X00738394Y01826209D01*
X00732000Y01841646D01*
X00732000Y01858354D01*
X00738394Y01873791D01*
X00750209Y01885606D01*
X00765646Y01892000D01*
X00834354Y01892000D01*
X00849791Y01885606D01*
X00861606Y01873791D01*
X00868000Y01858354D01*
X00868000Y01841646D01*
X00861606Y01826209D01*
X00849791Y01814394D01*
X00834354Y01808000D01*
X00765646Y01808000D01*
X00740771Y01823832D02*
X00450000Y01823832D01*
X00450000Y01839830D02*
X00732752Y01839830D01*
X00732000Y01855829D02*
X00450000Y01855829D01*
X00450000Y01871827D02*
X00737581Y01871827D01*
X00755569Y01887826D02*
X00450000Y01887826D01*
X00450000Y01903824D02*
X01276000Y01903824D01*
X01276000Y01919823D02*
X00855220Y01919823D01*
X00849791Y01914394D02*
X00861606Y01926209D01*
X00868000Y01941646D01*
X00868000Y01958354D01*
X00861606Y01973791D01*
X00849791Y01985606D01*
X00834354Y01992000D01*
X00765646Y01992000D01*
X00750209Y01985606D01*
X00738394Y01973791D01*
X00732000Y01958354D01*
X00732000Y01941646D01*
X00738394Y01926209D01*
X00750209Y01914394D01*
X00765646Y01908000D01*
X00834354Y01908000D01*
X00849791Y01914394D01*
X00865587Y01935821D02*
X01276000Y01935821D01*
X01276000Y01951820D02*
X00868000Y01951820D01*
X00864080Y01967818D02*
X01276000Y01967818D01*
X01276000Y01983817D02*
X00851580Y01983817D01*
X00834354Y02008000D02*
X00849791Y02014394D01*
X00861586Y02026189D01*
X00881775Y02006000D01*
X00899999Y02006000D01*
X00899999Y02049999D01*
X00900000Y02049999D01*
X00900000Y02006000D01*
X00918225Y02006000D01*
X00944000Y02031775D01*
X00944000Y02049999D01*
X00900001Y02049999D01*
X00900001Y02050000D01*
X00944000Y02050000D01*
X00944000Y02068225D01*
X00918225Y02094000D01*
X00900000Y02094000D01*
X00900000Y02050001D01*
X00899999Y02050001D01*
X00899999Y02094000D01*
X00881775Y02094000D01*
X00861586Y02073811D01*
X00849791Y02085606D01*
X00834354Y02092000D01*
X00765646Y02092000D01*
X00750209Y02085606D01*
X00738394Y02073791D01*
X00732000Y02058354D01*
X00732000Y02041646D01*
X00738394Y02026209D01*
X00750209Y02014394D01*
X00765646Y02008000D01*
X00834354Y02008000D01*
X00851211Y02015814D02*
X00871961Y02015814D01*
X00899999Y02015814D02*
X00900000Y02015814D01*
X00900000Y02000000D02*
X00950000Y01950000D01*
X01100000Y01950000D01*
X01200000Y01850000D01*
X01200000Y01550000D01*
X01350000Y01550000D01*
X01400000Y01550000D01*
X01450000Y01500000D01*
X01600000Y01500000D01*
X01600000Y01500001D02*
X01599999Y01500001D01*
X01599999Y01544000D01*
X01570537Y01544000D01*
X01563697Y01542916D01*
X01557110Y01540776D01*
X01550939Y01537632D01*
X01545336Y01533561D01*
X01540439Y01528664D01*
X01536368Y01523061D01*
X01533224Y01516890D01*
X01531083Y01510303D01*
X01530000Y01503463D01*
X01530000Y01500000D01*
X01599999Y01500000D01*
X01599999Y01499999D01*
X01600000Y01499999D01*
X01600000Y01456000D01*
X01629463Y01456000D01*
X01636303Y01457083D01*
X01642890Y01459224D01*
X01649061Y01462368D01*
X01654664Y01466439D01*
X01659561Y01471336D01*
X01663632Y01476939D01*
X01666776Y01483110D01*
X01668916Y01489697D01*
X01670000Y01496537D01*
X01670000Y01499999D01*
X01600001Y01499999D01*
X01600001Y01500000D01*
X01670000Y01500000D01*
X01670000Y01503463D01*
X01668916Y01510303D01*
X01666776Y01516890D01*
X01663632Y01523061D01*
X01659561Y01528664D01*
X01654664Y01533561D01*
X01649061Y01537632D01*
X01642890Y01540776D01*
X01636303Y01542916D01*
X01629463Y01544000D01*
X01600000Y01544000D01*
X01600000Y01500001D01*
X01599999Y01499999D02*
X01530000Y01499999D01*
X01530000Y01496537D01*
X01531083Y01489697D01*
X01533224Y01483110D01*
X01536368Y01476939D01*
X01540439Y01471336D01*
X01545336Y01466439D01*
X01550939Y01462368D01*
X01557110Y01459224D01*
X01563697Y01457083D01*
X01570537Y01456000D01*
X01599999Y01456000D01*
X01599999Y01499999D01*
X01599999Y01503861D02*
X01600000Y01503861D01*
X01599999Y01487863D02*
X01600000Y01487863D01*
X01599999Y01471864D02*
X01600000Y01471864D01*
X01599999Y01519860D02*
X01600000Y01519860D01*
X01599999Y01535858D02*
X01600000Y01535858D01*
X01548498Y01535858D02*
X01394000Y01535858D01*
X01394000Y01531775D02*
X01394000Y01549999D01*
X01350001Y01549999D01*
X01350001Y01550000D01*
X01394000Y01550000D01*
X01394000Y01568225D01*
X01368225Y01594000D01*
X01350000Y01594000D01*
X01350000Y01550001D01*
X01349999Y01550001D01*
X01349999Y01594000D01*
X01331775Y01594000D01*
X01306000Y01568225D01*
X01306000Y01550000D01*
X01349999Y01550000D01*
X01349999Y01549999D01*
X01350000Y01549999D01*
X01350000Y01506000D01*
X01368225Y01506000D01*
X01394000Y01531775D01*
X01382085Y01519860D02*
X01534737Y01519860D01*
X01530063Y01503861D02*
X00787802Y01503861D01*
X00800000Y01550000D02*
X00600000Y01350000D01*
X00600000Y00600000D01*
X00589000Y00578000D01*
X00635000Y00575947D02*
X00964656Y00575947D01*
X00958000Y00582603D02*
X00982603Y00558000D01*
X01017397Y00558000D01*
X01042000Y00582603D01*
X01042000Y00617397D01*
X01017397Y00642000D01*
X00982603Y00642000D01*
X00958000Y00617397D01*
X00958000Y00582603D01*
X00958000Y00591945D02*
X00635000Y00591945D01*
X00635000Y00607944D02*
X00958000Y00607944D01*
X00964546Y00623942D02*
X00632186Y00623942D01*
X00624000Y00639941D02*
X00980544Y00639941D01*
X01019456Y00639941D02*
X01380544Y00639941D01*
X01364546Y00623942D02*
X01035454Y00623942D01*
X01042000Y00607944D02*
X01358000Y00607944D01*
X01358000Y00591945D02*
X01042000Y00591945D01*
X01035344Y00575947D02*
X01364656Y00575947D01*
X01380655Y00559948D02*
X01019345Y00559948D01*
X00980655Y00559948D02*
X00635000Y00559948D01*
X00624000Y00655939D02*
X01401137Y00655939D01*
X01409136Y00671938D02*
X00624000Y00671938D01*
X00624000Y00687937D02*
X01417136Y00687937D01*
X01425135Y00703935D02*
X00624000Y00703935D01*
X00624000Y00719934D02*
X00744669Y00719934D01*
X00750209Y00714394D02*
X00765646Y00708000D01*
X00834354Y00708000D01*
X00849791Y00714394D01*
X00861606Y00726209D01*
X00868000Y00741646D01*
X00868000Y00758354D01*
X00861606Y00773791D01*
X00849791Y00785606D01*
X00834354Y00792000D01*
X00765646Y00792000D01*
X00750209Y00785606D01*
X00738394Y00773791D01*
X00732000Y00758354D01*
X00732000Y00741646D01*
X00738394Y00726209D01*
X00750209Y00714394D01*
X00734367Y00735932D02*
X00624000Y00735932D01*
X00624000Y00751931D02*
X00732000Y00751931D01*
X00735966Y00767929D02*
X00624000Y00767929D01*
X00624000Y00783928D02*
X00748531Y00783928D01*
X00765646Y00808000D02*
X00750209Y00814394D01*
X00738394Y00826209D01*
X00732000Y00841646D01*
X00732000Y00858354D01*
X00738394Y00873791D01*
X00750209Y00885606D01*
X00765646Y00892000D01*
X00834354Y00892000D01*
X00849791Y00885606D01*
X00861606Y00873791D01*
X00868000Y00858354D01*
X00868000Y00841646D01*
X00861606Y00826209D01*
X00849791Y00814394D01*
X00834354Y00808000D01*
X00765646Y00808000D01*
X00748678Y00815925D02*
X00624000Y00815925D01*
X00624000Y00831923D02*
X00736027Y00831923D01*
X00732000Y00847922D02*
X00624000Y00847922D01*
X00624000Y00863920D02*
X00734306Y00863920D01*
X00744522Y00879919D02*
X00624000Y00879919D01*
X00624000Y00895917D02*
X01426000Y00895917D01*
X01426000Y00911916D02*
X01421313Y00911916D01*
X01378687Y00911916D02*
X01021313Y00911916D01*
X01017397Y00908000D02*
X00982603Y00908000D01*
X00958000Y00932603D01*
X00958000Y00967397D01*
X00982603Y00992000D01*
X01017397Y00992000D01*
X01042000Y00967397D01*
X01042000Y00932603D01*
X01017397Y00908000D01*
X01017397Y00892000D02*
X00982603Y00892000D01*
X00958000Y00867397D01*
X00958000Y00832603D01*
X00982603Y00808000D01*
X01017397Y00808000D01*
X01042000Y00832603D01*
X01042000Y00867397D01*
X01017397Y00892000D01*
X01029478Y00879919D02*
X01370522Y00879919D01*
X01358000Y00863920D02*
X01042000Y00863920D01*
X01042000Y00847922D02*
X01358000Y00847922D01*
X01321713Y00831923D02*
X01041320Y00831923D01*
X01025322Y00815925D02*
X01310514Y00815925D01*
X01307425Y00799926D02*
X00624000Y00799926D01*
X00624000Y00911916D02*
X00756192Y00911916D01*
X00750209Y00914394D02*
X00765646Y00908000D01*
X00834354Y00908000D01*
X00849791Y00914394D01*
X00861606Y00926209D01*
X00868000Y00941646D01*
X00868000Y00958354D01*
X00861606Y00973791D01*
X00849791Y00985606D01*
X00834354Y00992000D01*
X00765646Y00992000D01*
X00750209Y00985606D01*
X00738394Y00973791D01*
X00732000Y00958354D01*
X00732000Y00941646D01*
X00738394Y00926209D01*
X00750209Y00914394D01*
X00737688Y00927914D02*
X00624000Y00927914D01*
X00624000Y00943913D02*
X00732000Y00943913D01*
X00732645Y00959911D02*
X00624000Y00959911D01*
X00624000Y00975910D02*
X00740513Y00975910D01*
X00765425Y00991908D02*
X00624000Y00991908D01*
X00624000Y01007907D02*
X01426000Y01007907D01*
X01426000Y00991908D02*
X01417488Y00991908D01*
X01382512Y00991908D02*
X01017488Y00991908D01*
X01017397Y01008000D02*
X01042000Y01032603D01*
X01042000Y01067397D01*
X01017397Y01092000D01*
X00982603Y01092000D01*
X00958000Y01067397D01*
X00958000Y01032603D01*
X00982603Y01008000D01*
X01017397Y01008000D01*
X01033302Y01023906D02*
X01366697Y01023906D01*
X01358000Y01039904D02*
X01042000Y01039904D01*
X01042000Y01055903D02*
X01358000Y01055903D01*
X01362504Y01071901D02*
X01037496Y01071901D01*
X01021497Y01087900D02*
X01378503Y01087900D01*
X01370706Y01119897D02*
X01029294Y01119897D01*
X01017397Y01108000D02*
X01042000Y01132603D01*
X01042000Y01167397D01*
X01017397Y01192000D01*
X00982603Y01192000D01*
X00958000Y01167397D01*
X00958000Y01132603D01*
X00982603Y01108000D01*
X01017397Y01108000D01*
X01042000Y01135895D02*
X01358000Y01135895D01*
X01358000Y01151894D02*
X01042000Y01151894D01*
X01041505Y01167892D02*
X01358495Y01167892D01*
X01374494Y01183891D02*
X01025506Y01183891D01*
X01017397Y01208000D02*
X01042000Y01232603D01*
X01042000Y01267397D01*
X01017397Y01292000D01*
X00982603Y01292000D01*
X00958000Y01267397D01*
X00958000Y01232603D01*
X00982603Y01208000D01*
X01017397Y01208000D01*
X01025285Y01215888D02*
X01374715Y01215888D01*
X01358717Y01231886D02*
X01041283Y01231886D01*
X01042000Y01247885D02*
X01358000Y01247885D01*
X01358000Y01263883D02*
X01042000Y01263883D01*
X01029515Y01279882D02*
X01370485Y01279882D01*
X01400000Y01250000D02*
X01650000Y01250000D01*
X01619672Y01279882D02*
X01429515Y01279882D01*
X01425285Y01215888D02*
X01481947Y01215888D01*
X01465948Y01199889D02*
X00624000Y01199889D01*
X00624000Y01183891D02*
X00748494Y01183891D01*
X00750209Y01185606D02*
X00738394Y01173791D01*
X00732000Y01158354D01*
X00732000Y01141646D01*
X00738394Y01126209D01*
X00750209Y01114394D01*
X00765646Y01108000D01*
X00834354Y01108000D01*
X00849791Y01114394D01*
X00861606Y01126209D01*
X00868000Y01141646D01*
X00868000Y01158354D01*
X00861606Y01173791D01*
X00849791Y01185606D01*
X00834354Y01192000D01*
X00765646Y01192000D01*
X00750209Y01185606D01*
X00735951Y01167892D02*
X00624000Y01167892D01*
X00624000Y01151894D02*
X00732000Y01151894D01*
X00734382Y01135895D02*
X00624000Y01135895D01*
X00624000Y01119897D02*
X00744706Y01119897D01*
X00755747Y01087900D02*
X00624000Y01087900D01*
X00624000Y01103898D02*
X01426000Y01103898D01*
X01426000Y01087900D02*
X01421497Y01087900D01*
X01474000Y01087900D02*
X01553959Y01087900D01*
X01569957Y01103898D02*
X01474000Y01103898D01*
X01474000Y01119897D02*
X01519893Y01119897D01*
X01509760Y01135895D02*
X01474000Y01135895D01*
X01485835Y01151894D02*
X01507425Y01151894D01*
X01511329Y01167892D02*
X01501833Y01167892D01*
X01500000Y01200000D02*
X01700000Y01200000D01*
X01800000Y01300000D01*
X01832332Y01327877D02*
X01926000Y01327877D01*
X01926000Y01311879D02*
X01841162Y01311879D01*
X01842575Y01295880D02*
X01926000Y01295880D01*
X01894485Y01279882D02*
X01837749Y01279882D01*
X01824060Y01263883D02*
X01884290Y01263883D01*
X01882000Y01247885D02*
X01781826Y01247885D01*
X01765827Y01231886D02*
X01886042Y01231886D01*
X01898715Y01215888D02*
X01749829Y01215888D01*
X01733830Y01199889D02*
X02065948Y01199889D01*
X02049950Y01183891D02*
X02001506Y01183891D01*
X02001285Y01215888D02*
X02081947Y01215888D01*
X02086042Y01231886D02*
X02013957Y01231886D01*
X02018000Y01247885D02*
X02082000Y01247885D01*
X02084290Y01263883D02*
X02015710Y01263883D01*
X02005515Y01279882D02*
X02094485Y01279882D01*
X02090693Y01327877D02*
X01974000Y01327877D01*
X01974000Y01311879D02*
X02308838Y01311879D01*
X02307425Y01295880D02*
X01974000Y01295880D01*
X01950000Y01250000D02*
X01950000Y01350000D01*
X01600000Y01700000D01*
X01618211Y01647848D02*
X01486093Y01647848D01*
X01470094Y01663846D02*
X01551531Y01663846D01*
X01546453Y01631849D02*
X01502092Y01631849D01*
X01500000Y01600000D02*
X01450000Y01650000D01*
X01350000Y01650000D01*
X01320448Y01679845D02*
X00979552Y01679845D01*
X00967397Y01692000D02*
X00932603Y01692000D01*
X00908000Y01667397D01*
X00908000Y01632603D01*
X00932603Y01608000D01*
X00967397Y01608000D01*
X00992000Y01632603D01*
X00992000Y01667397D01*
X00967397Y01692000D01*
X00967397Y01708000D02*
X00932603Y01708000D01*
X00908000Y01732603D01*
X00908000Y01767397D01*
X00932603Y01792000D01*
X00967397Y01792000D01*
X00992000Y01767397D01*
X00992000Y01732603D01*
X00967397Y01708000D01*
X00971239Y01711842D02*
X01328761Y01711842D01*
X01312762Y01727841D02*
X00987237Y01727841D01*
X00992000Y01743839D02*
X01308000Y01743839D01*
X01308000Y01759838D02*
X00992000Y01759838D01*
X00983561Y01775836D02*
X01316439Y01775836D01*
X01332438Y01791835D02*
X00967562Y01791835D01*
X00967397Y01808000D02*
X00932603Y01808000D01*
X00908000Y01832603D01*
X00908000Y01867397D01*
X00932603Y01892000D01*
X00967397Y01892000D01*
X00992000Y01867397D01*
X00992000Y01832603D01*
X00967397Y01808000D01*
X00983229Y01823832D02*
X01316771Y01823832D01*
X01308000Y01839830D02*
X00992000Y01839830D01*
X00992000Y01855829D02*
X01308000Y01855829D01*
X01294232Y01871827D02*
X00987570Y01871827D01*
X00971571Y01887826D02*
X01279065Y01887826D01*
X01300000Y01900000D02*
X01300000Y02300000D01*
X01350000Y02350000D01*
X01450000Y02350000D01*
X01500000Y02300000D01*
X01500000Y02250000D01*
X01542000Y02255792D02*
X01556000Y02255792D01*
X01556000Y02250000D02*
X01599999Y02250000D01*
X01599999Y02249999D01*
X01600000Y02249999D01*
X01600000Y02180000D01*
X01603463Y02180000D01*
X01610303Y02181083D01*
X01616890Y02183224D01*
X01623061Y02186368D01*
X01628664Y02190439D01*
X01633561Y02195336D01*
X01637632Y02200939D01*
X01640776Y02207110D01*
X01642916Y02213697D01*
X01644000Y02220537D01*
X01644000Y02249999D01*
X01600001Y02249999D01*
X01600001Y02250000D01*
X01644000Y02250000D01*
X01644000Y02279463D01*
X01642916Y02286303D01*
X01640776Y02292890D01*
X01637632Y02299061D01*
X01633561Y02304664D01*
X01628664Y02309561D01*
X01623061Y02313632D01*
X01616890Y02316776D01*
X01610303Y02318916D01*
X01603463Y02320000D01*
X01600000Y02320000D01*
X01600000Y02250001D01*
X01599999Y02250001D01*
X01599999Y02320000D01*
X01596537Y02320000D01*
X01589697Y02318916D01*
X01583110Y02316776D01*
X01576939Y02313632D01*
X01571336Y02309561D01*
X01566439Y02304664D01*
X01562368Y02299061D01*
X01559224Y02292890D01*
X01557083Y02286303D01*
X01556000Y02279463D01*
X01556000Y02250000D01*
X01556000Y02249999D02*
X01556000Y02220537D01*
X01557083Y02213697D01*
X01559224Y02207110D01*
X01562368Y02200939D01*
X01566439Y02195336D01*
X01571336Y02190439D01*
X01576939Y02186368D01*
X01583110Y02183224D01*
X01589697Y02181083D01*
X01596537Y02180000D01*
X01599999Y02180000D01*
X01599999Y02249999D01*
X01556000Y02249999D01*
X01556000Y02239793D02*
X01542000Y02239793D01*
X01542000Y02223795D02*
X01556000Y02223795D01*
X01559000Y02207796D02*
X01538749Y02207796D01*
X01527195Y02191798D02*
X01569977Y02191798D01*
X01599999Y02191798D02*
X01600000Y02191798D01*
X01599999Y02207796D02*
X01600000Y02207796D01*
X01599999Y02223795D02*
X01600000Y02223795D01*
X01599999Y02239793D02*
X01600000Y02239793D01*
X01599999Y02255792D02*
X01600000Y02255792D01*
X01599999Y02271790D02*
X01600000Y02271790D01*
X01599999Y02287789D02*
X01600000Y02287789D01*
X01599999Y02303787D02*
X01600000Y02303787D01*
X01599999Y02319786D02*
X01600000Y02319786D01*
X01604814Y02319786D02*
X03339008Y02319786D01*
X03339008Y02335784D02*
X01498156Y02335784D01*
X01482158Y02351783D02*
X03339008Y02351783D01*
X03339008Y02367781D02*
X01466159Y02367781D01*
X01514155Y02319786D02*
X01595186Y02319786D01*
X01565802Y02303787D02*
X01531609Y02303787D01*
X01540577Y02287789D02*
X01557566Y02287789D01*
X01556000Y02271790D02*
X01542000Y02271790D01*
X01458000Y02239793D02*
X01444148Y02239793D01*
X01508142Y02175799D02*
X03339008Y02175799D01*
X03339008Y02159801D02*
X01524140Y02159801D01*
X01540139Y02143802D02*
X03339008Y02143802D01*
X03339008Y02127804D02*
X01556137Y02127804D01*
X01572136Y02111805D02*
X03339008Y02111805D01*
X03339008Y02095807D02*
X01588134Y02095807D01*
X01604133Y02079808D02*
X03339008Y02079808D01*
X03339008Y02063810D02*
X01620131Y02063810D01*
X01636130Y02047811D02*
X03339008Y02047811D01*
X03339008Y02031813D02*
X01652128Y02031813D01*
X01668127Y02015814D02*
X03339008Y02015814D01*
X03339008Y02191798D02*
X01630023Y02191798D01*
X01640999Y02207796D02*
X03339008Y02207796D01*
X03339008Y02223795D02*
X01644000Y02223795D01*
X01644000Y02239793D02*
X03339008Y02239793D01*
X03339008Y02255792D02*
X01644000Y02255792D01*
X01644000Y02271790D02*
X03339008Y02271790D01*
X03339008Y02287789D02*
X01642434Y02287789D01*
X01634198Y02303787D02*
X03339008Y02303787D01*
X03339008Y02383780D02*
X01126430Y02383780D01*
X01124117Y02386093D02*
X01124000Y02386141D01*
X01124000Y02440059D01*
X01159941Y02476000D01*
X01204774Y02476000D01*
X01213595Y02479654D01*
X01241941Y02508000D01*
X01258354Y02508000D01*
X01273791Y02514394D01*
X01285606Y02526209D01*
X01292000Y02541646D01*
X01292000Y02558354D01*
X01285606Y02573791D01*
X01274000Y02585397D01*
X01274000Y02604774D01*
X01270346Y02613595D01*
X01220346Y02663595D01*
X01213595Y02670346D01*
X01204774Y02674000D01*
X00895226Y02674000D01*
X00886405Y02670346D01*
X00869935Y02653875D01*
X00868916Y02660303D01*
X00866776Y02666890D01*
X00863632Y02673061D01*
X00859561Y02678664D01*
X00854664Y02683561D01*
X00849061Y02687632D01*
X00842890Y02690776D01*
X00836303Y02692916D01*
X00829463Y02694000D01*
X00800000Y02694000D01*
X00800000Y02650001D01*
X00799999Y02650001D01*
X00799999Y02694000D01*
X00770537Y02694000D01*
X00763697Y02692916D01*
X00757110Y02690776D01*
X00750939Y02687632D01*
X00745336Y02683561D01*
X00740439Y02678664D01*
X00736368Y02673061D01*
X00733224Y02666890D01*
X00731083Y02660303D01*
X00730000Y02653463D01*
X00730000Y02650000D01*
X00799999Y02650000D01*
X00799999Y02649999D01*
X00800000Y02649999D01*
X00800000Y02606000D01*
X00822059Y02606000D01*
X00808059Y02592000D01*
X00765646Y02592000D01*
X00750209Y02585606D01*
X00738394Y02573791D01*
X00732000Y02558354D01*
X00732000Y02541646D01*
X00738394Y02526209D01*
X00750209Y02514394D01*
X00765646Y02508000D01*
X00834354Y02508000D01*
X00849791Y02514394D01*
X00861606Y02526209D01*
X00868000Y02541646D01*
X00868000Y02558354D01*
X00861606Y02573791D01*
X00859669Y02575728D01*
X00909941Y02626000D01*
X01190059Y02626000D01*
X01226000Y02590059D01*
X01226000Y02585397D01*
X01214394Y02573791D01*
X01208000Y02558354D01*
X01208000Y02541941D01*
X01190059Y02524000D01*
X01145226Y02524000D01*
X01136405Y02520346D01*
X01129654Y02513595D01*
X01079654Y02463595D01*
X01076000Y02454774D01*
X01076000Y02386141D01*
X01075883Y02386093D01*
X01063907Y02374117D01*
X01057425Y02358469D01*
X01057425Y02341531D01*
X01063907Y02325883D01*
X01075883Y02313907D01*
X01091531Y02307425D01*
X01108469Y02307425D01*
X01124117Y02313907D01*
X01136093Y02325883D01*
X01142575Y02341531D01*
X01142575Y02358469D01*
X01136093Y02374117D01*
X01124117Y02386093D01*
X01124000Y02399779D02*
X03339008Y02399779D01*
X03339008Y02415777D02*
X01275174Y02415777D01*
X01273791Y02414394D02*
X01285606Y02426209D01*
X01292000Y02441646D01*
X01292000Y02458354D01*
X01285606Y02473791D01*
X01273791Y02485606D01*
X01258354Y02492000D01*
X01241646Y02492000D01*
X01226209Y02485606D01*
X01214394Y02473791D01*
X01208000Y02458354D01*
X01208000Y02441646D01*
X01214394Y02426209D01*
X01226209Y02414394D01*
X01241646Y02408000D01*
X01258354Y02408000D01*
X01273791Y02414394D01*
X01287912Y02431776D02*
X03339008Y02431776D01*
X03339008Y02447774D02*
X01292000Y02447774D01*
X01289756Y02463773D02*
X03339008Y02463773D01*
X03339008Y02479771D02*
X01279626Y02479771D01*
X01267452Y02511768D02*
X03339008Y02511768D01*
X03339008Y02495770D02*
X01229711Y02495770D01*
X01220374Y02479771D02*
X01213712Y02479771D01*
X01210244Y02463773D02*
X01147714Y02463773D01*
X01131715Y02447774D02*
X01208000Y02447774D01*
X01212088Y02431776D02*
X01124000Y02431776D01*
X01124000Y02415777D02*
X01224826Y02415777D01*
X01138717Y02367781D02*
X01333840Y02367781D01*
X01329654Y02363595D02*
X01329654Y02363595D01*
X01317842Y02351783D02*
X01142575Y02351783D01*
X01140194Y02335784D02*
X01301844Y02335784D01*
X01286405Y02320346D02*
X01286405Y02320346D01*
X01285845Y02319786D02*
X01129996Y02319786D01*
X01100000Y02350000D02*
X01100000Y02450000D01*
X01150000Y02500000D01*
X01200000Y02500000D01*
X01250000Y02550000D01*
X01250000Y02600000D01*
X01200000Y02650000D01*
X00900000Y02650000D01*
X00800000Y02550000D01*
X00756548Y02511768D02*
X00450000Y02511768D01*
X00450000Y02495770D02*
X00861829Y02495770D01*
X00850728Y02484669D02*
X00849791Y02485606D01*
X00834354Y02492000D01*
X00765646Y02492000D01*
X00750209Y02485606D01*
X00738394Y02473791D01*
X00732000Y02458354D01*
X00732000Y02441646D01*
X00738394Y02426209D01*
X00750209Y02414394D01*
X00765646Y02408000D01*
X00834354Y02408000D01*
X00849791Y02414394D01*
X00861606Y02426209D01*
X00862916Y02429373D01*
X00863595Y02429654D01*
X00909941Y02476000D01*
X00963859Y02476000D01*
X00963907Y02475883D01*
X00975883Y02463907D01*
X00991531Y02457425D01*
X01008469Y02457425D01*
X01024117Y02463907D01*
X01036093Y02475883D01*
X01042575Y02491531D01*
X01042575Y02508469D01*
X01036093Y02524117D01*
X01024117Y02536093D01*
X01008469Y02542575D01*
X00991531Y02542575D01*
X00975883Y02536093D01*
X00963907Y02524117D01*
X00963859Y02524000D01*
X00895226Y02524000D01*
X00886405Y02520346D01*
X00879654Y02513595D01*
X00850728Y02484669D01*
X00843452Y02511768D02*
X00877827Y02511768D01*
X00862251Y02527767D02*
X00967557Y02527767D01*
X01000000Y02500000D02*
X00900000Y02500000D01*
X00850000Y02450000D01*
X00800000Y02450000D01*
X00748826Y02415777D02*
X00450000Y02415777D01*
X00450000Y02399779D02*
X01076000Y02399779D01*
X01076000Y02415777D02*
X00851174Y02415777D01*
X00865717Y02431776D02*
X01076000Y02431776D01*
X01076000Y02447774D02*
X00881715Y02447774D01*
X00897714Y02463773D02*
X00976207Y02463773D01*
X01023793Y02463773D02*
X01079832Y02463773D01*
X01095830Y02479771D02*
X01037703Y02479771D01*
X01042575Y02495770D02*
X01111829Y02495770D01*
X01127827Y02511768D02*
X01041208Y02511768D01*
X01032443Y02527767D02*
X01193826Y02527767D01*
X01208000Y02543765D02*
X00868000Y02543765D01*
X00867416Y02559764D02*
X01208584Y02559764D01*
X01216366Y02575762D02*
X00859703Y02575762D01*
X00875702Y02591761D02*
X01224298Y02591761D01*
X01208299Y02607759D02*
X00891700Y02607759D01*
X00907699Y02623758D02*
X01192301Y02623758D01*
X01228186Y02655755D02*
X03339008Y02655755D01*
X03339008Y02671753D02*
X01210197Y02671753D01*
X01244185Y02639756D02*
X03339008Y02639756D01*
X03339008Y02623758D02*
X01260183Y02623758D01*
X01272763Y02607759D02*
X03339008Y02607759D01*
X03339008Y02591761D02*
X01274000Y02591761D01*
X01283634Y02575762D02*
X03339008Y02575762D01*
X03339008Y02559764D02*
X01291416Y02559764D01*
X01292000Y02543765D02*
X03339008Y02543765D01*
X03339008Y02527767D02*
X01286251Y02527767D01*
X01073570Y02383780D02*
X00851617Y02383780D01*
X00849791Y02385606D02*
X00834354Y02392000D01*
X00765646Y02392000D01*
X00750209Y02385606D01*
X00738394Y02373791D01*
X00732000Y02358354D01*
X00732000Y02341646D01*
X00738394Y02326209D01*
X00750209Y02314394D01*
X00765646Y02308000D01*
X00834354Y02308000D01*
X00849791Y02314394D01*
X00861606Y02326209D01*
X00868000Y02341646D01*
X00868000Y02358354D01*
X00861606Y02373791D01*
X00849791Y02385606D01*
X00864095Y02367781D02*
X01061283Y02367781D01*
X01057425Y02351783D02*
X00868000Y02351783D01*
X00865572Y02335784D02*
X01059806Y02335784D01*
X01070004Y02319786D02*
X00855183Y02319786D01*
X00844521Y02287789D02*
X00875564Y02287789D01*
X00881775Y02294000D02*
X00861586Y02273811D01*
X00849791Y02285606D01*
X00834354Y02292000D01*
X00765646Y02292000D01*
X00750209Y02285606D01*
X00738394Y02273791D01*
X00732000Y02258354D01*
X00732000Y02241646D01*
X00738394Y02226209D01*
X00750209Y02214394D01*
X00765646Y02208000D01*
X00834354Y02208000D01*
X00849791Y02214394D01*
X00861586Y02226189D01*
X00881775Y02206000D01*
X00899999Y02206000D01*
X00899999Y02249999D01*
X00900000Y02249999D01*
X00900000Y02206000D01*
X00918225Y02206000D01*
X00944000Y02231775D01*
X00944000Y02249999D01*
X00900001Y02249999D01*
X00900001Y02250000D01*
X00944000Y02250000D01*
X00944000Y02268225D01*
X00918225Y02294000D01*
X00900000Y02294000D01*
X00900000Y02250001D01*
X00899999Y02250001D01*
X00899999Y02294000D01*
X00881775Y02294000D01*
X00899999Y02287789D02*
X00900000Y02287789D01*
X00899999Y02271790D02*
X00900000Y02271790D01*
X00899999Y02255792D02*
X00900000Y02255792D01*
X00899999Y02239793D02*
X00900000Y02239793D01*
X00899999Y02223795D02*
X00900000Y02223795D01*
X00899999Y02207796D02*
X00900000Y02207796D01*
X00920022Y02207796D02*
X01276000Y02207796D01*
X01276000Y02191798D02*
X00834842Y02191798D01*
X00834354Y02192000D02*
X00765646Y02192000D01*
X00750209Y02185606D01*
X00738394Y02173791D01*
X00732000Y02158354D01*
X00732000Y02141646D01*
X00738394Y02126209D01*
X00750209Y02114394D01*
X00765646Y02108000D01*
X00834354Y02108000D01*
X00849791Y02114394D01*
X00861606Y02126209D01*
X00868000Y02141646D01*
X00868000Y02158354D01*
X00861606Y02173791D01*
X00849791Y02185606D01*
X00834354Y02192000D01*
X00859598Y02175799D02*
X01276000Y02175799D01*
X01276000Y02159801D02*
X00867401Y02159801D01*
X00868000Y02143802D02*
X01276000Y02143802D01*
X01276000Y02127804D02*
X00862266Y02127804D01*
X00843541Y02111805D02*
X01276000Y02111805D01*
X01276000Y02095807D02*
X00450000Y02095807D01*
X00450000Y02111805D02*
X00756459Y02111805D01*
X00737733Y02127804D02*
X00450000Y02127804D01*
X00450000Y02143802D02*
X00732000Y02143802D01*
X00732599Y02159801D02*
X00450000Y02159801D01*
X00450000Y02175799D02*
X00740402Y02175799D01*
X00765158Y02191798D02*
X00450000Y02191798D01*
X00450000Y02207796D02*
X00879978Y02207796D01*
X00863980Y02223795D02*
X00859192Y02223795D01*
X00936020Y02223795D02*
X00966808Y02223795D01*
X00958000Y02232603D02*
X00982603Y02208000D01*
X01017397Y02208000D01*
X01042000Y02232603D01*
X01042000Y02267397D01*
X01017397Y02292000D01*
X00982603Y02292000D01*
X00958000Y02267397D01*
X00958000Y02232603D01*
X00958000Y02239793D02*
X00944000Y02239793D01*
X00944000Y02255792D02*
X00958000Y02255792D01*
X00962393Y02271790D02*
X00940435Y02271790D01*
X00924436Y02287789D02*
X00978392Y02287789D01*
X01021608Y02287789D02*
X01276000Y02287789D01*
X01276000Y02303787D02*
X00450000Y02303787D01*
X00450000Y02287789D02*
X00755479Y02287789D01*
X00737565Y02271790D02*
X00450000Y02271790D01*
X00450000Y02255792D02*
X00732000Y02255792D01*
X00732767Y02239793D02*
X00450000Y02239793D01*
X00450000Y02223795D02*
X00740808Y02223795D01*
X00744817Y02319786D02*
X00450000Y02319786D01*
X00450000Y02335784D02*
X00734428Y02335784D01*
X00732000Y02351783D02*
X00450000Y02351783D01*
X00450000Y02367781D02*
X00735905Y02367781D01*
X00748383Y02383780D02*
X00450000Y02383780D01*
X00450000Y02431776D02*
X00736088Y02431776D01*
X00732000Y02447774D02*
X00450000Y02447774D01*
X00450000Y02463773D02*
X00734244Y02463773D01*
X00744374Y02479771D02*
X00450000Y02479771D01*
X00450000Y02527767D02*
X00737749Y02527767D01*
X00732000Y02543765D02*
X00450000Y02543765D01*
X00450000Y02559764D02*
X00732584Y02559764D01*
X00740365Y02575762D02*
X00450000Y02575762D01*
X00450000Y02591761D02*
X00765069Y02591761D01*
X00770537Y02606000D02*
X00799999Y02606000D01*
X00799999Y02649999D01*
X00730000Y02649999D01*
X00730000Y02646537D01*
X00731083Y02639697D01*
X00733224Y02633110D01*
X00736368Y02626939D01*
X00740439Y02621336D01*
X00745336Y02616439D01*
X00750939Y02612368D01*
X00757110Y02609224D01*
X00763697Y02607083D01*
X00770537Y02606000D01*
X00761616Y02607759D02*
X00450000Y02607759D01*
X00450000Y02623758D02*
X00738679Y02623758D01*
X00731074Y02639756D02*
X00450000Y02639756D01*
X00450000Y02655755D02*
X00730363Y02655755D01*
X00735702Y02671753D02*
X00450000Y02671753D01*
X00450000Y02687752D02*
X00751174Y02687752D01*
X00799999Y02687752D02*
X00800000Y02687752D01*
X00799999Y02671753D02*
X00800000Y02671753D01*
X00799999Y02655755D02*
X00800000Y02655755D01*
X00799999Y02639756D02*
X00800000Y02639756D01*
X00799999Y02623758D02*
X00800000Y02623758D01*
X00799999Y02607759D02*
X00800000Y02607759D01*
X00869637Y02655755D02*
X00871814Y02655755D01*
X00864298Y02671753D02*
X00889803Y02671753D01*
X00848826Y02687752D02*
X03339008Y02687752D01*
X02080201Y01535858D02*
X01948083Y01535858D01*
X01964081Y01519860D02*
X02096199Y01519860D01*
X02112198Y01503861D02*
X01980080Y01503861D01*
X01996078Y01487863D02*
X02128196Y01487863D01*
X02144195Y01471864D02*
X02012077Y01471864D01*
X02028075Y01455866D02*
X02160193Y01455866D01*
X02176192Y01439867D02*
X02044074Y01439867D01*
X02060072Y01423869D02*
X02192190Y01423869D01*
X02250000Y01400000D02*
X02650000Y01400000D01*
X02800000Y01250000D01*
X03000000Y01250000D01*
X03150000Y01100000D01*
X03250000Y01100000D01*
X03300000Y01050000D01*
X03300000Y00950000D01*
X03200000Y00850000D01*
X03211976Y00895917D02*
X02929858Y00895917D01*
X02944522Y00879919D02*
X02913860Y00879919D01*
X02900000Y00900000D02*
X02950000Y00950000D01*
X03000000Y00950000D01*
X03043808Y00911916D02*
X03156192Y00911916D01*
X03137688Y00927914D02*
X03062312Y00927914D01*
X03068000Y00943913D02*
X03122146Y00943913D01*
X03106147Y00959911D02*
X03067355Y00959911D01*
X03059487Y00975910D02*
X03090149Y00975910D01*
X03100000Y01000000D02*
X03150000Y00950000D01*
X03200000Y00950000D01*
X03144522Y00879919D02*
X03055478Y00879919D01*
X03065694Y00863920D02*
X03134306Y00863920D01*
X03132000Y00847922D02*
X03068000Y00847922D01*
X03063973Y00831923D02*
X03136027Y00831923D01*
X03148678Y00815925D02*
X03051322Y00815925D01*
X03000000Y00850000D02*
X02750000Y00850000D01*
X02700000Y00800000D01*
X02500000Y00800000D01*
X02450000Y00850000D01*
X02400000Y00800000D01*
X02100000Y00800000D01*
X02050000Y00850000D01*
X01950000Y00850000D01*
X02000000Y00900000D02*
X02150000Y01050000D01*
X02100000Y01100000D02*
X02050000Y01050000D01*
X01950000Y01050000D01*
X02050000Y01100000D02*
X02100000Y01150000D01*
X02150000Y01150000D01*
X02100000Y01200000D02*
X02050000Y01150000D01*
X01950000Y01150000D01*
X01550000Y01150000D01*
X01580106Y01119897D02*
X01585956Y01119897D01*
X01600000Y01100000D02*
X02050000Y01100000D01*
X02100000Y01100000D02*
X02200000Y01100000D01*
X02300000Y01000000D01*
X02350000Y01000000D01*
X02400000Y01050000D01*
X02450000Y01050000D01*
X02550000Y01050000D01*
X02600000Y01000000D01*
X02900000Y01000000D01*
X02950000Y01050000D01*
X03000000Y01050000D01*
X02950000Y01100000D02*
X03000000Y01150000D01*
X02950000Y01100000D02*
X02800000Y01100000D01*
X02750000Y01050000D02*
X02750000Y01250000D01*
X02650000Y01350000D01*
X02500000Y01350000D01*
X02100000Y01350000D01*
X01650000Y01800000D01*
X01500000Y01850000D01*
X01400000Y01950000D01*
X01442000Y01951820D02*
X01458000Y01951820D01*
X01458000Y01967818D02*
X01442000Y01967818D01*
X01442000Y01983817D02*
X01458000Y01983817D01*
X01464419Y01999815D02*
X01435581Y01999815D01*
X01413632Y02015814D02*
X01486368Y02015814D01*
X01513632Y02015814D02*
X01581221Y02015814D01*
X01562916Y01999815D02*
X01535581Y01999815D01*
X01542000Y01983817D02*
X01556690Y01983817D01*
X01556000Y01967818D02*
X01542000Y01967818D01*
X01542000Y01951820D02*
X01556000Y01951820D01*
X01556000Y01935821D02*
X01542000Y01935821D01*
X01542000Y01919823D02*
X01556113Y01919823D01*
X01560898Y01903824D02*
X01537103Y01903824D01*
X01458000Y01935821D02*
X01448119Y01935821D01*
X01428233Y01887826D02*
X01422419Y01887826D01*
X01444232Y01871827D02*
X01387570Y01871827D01*
X01392000Y01855829D02*
X01460230Y01855829D01*
X01434906Y01839830D02*
X01392000Y01839830D01*
X01377581Y01887826D02*
X01371571Y01887826D01*
X01367562Y01791835D02*
X01407425Y01791835D01*
X01391895Y01775836D02*
X01383561Y01775836D01*
X01400000Y01750000D02*
X01350000Y01750000D01*
X01427780Y01743839D02*
X01672220Y01743839D01*
X01657556Y01727841D02*
X01688218Y01727841D01*
X01704217Y01711842D02*
X01666555Y01711842D01*
X01668000Y01695844D02*
X01720215Y01695844D01*
X01736214Y01679845D02*
X01663112Y01679845D01*
X01670094Y01663846D02*
X01752212Y01663846D01*
X01768211Y01647848D02*
X01686093Y01647848D01*
X01702092Y01631849D02*
X01784209Y01631849D01*
X01800208Y01615851D02*
X01718090Y01615851D01*
X01734089Y01599852D02*
X01816206Y01599852D01*
X01832205Y01583854D02*
X01750087Y01583854D01*
X01766086Y01567855D02*
X01848203Y01567855D01*
X01864202Y01551857D02*
X01782084Y01551857D01*
X01798083Y01535858D02*
X01880201Y01535858D01*
X01896199Y01519860D02*
X01814081Y01519860D01*
X01830080Y01503861D02*
X01912198Y01503861D01*
X01928196Y01487863D02*
X01846078Y01487863D01*
X01862077Y01471864D02*
X01944195Y01471864D01*
X01960193Y01455866D02*
X01878075Y01455866D01*
X01894074Y01439867D02*
X01976192Y01439867D01*
X01992190Y01423869D02*
X01910072Y01423869D01*
X01926071Y01407870D02*
X02008189Y01407870D01*
X02024187Y01391872D02*
X01942069Y01391872D01*
X01958068Y01375873D02*
X02040186Y01375873D01*
X02056184Y01359875D02*
X01971887Y01359875D01*
X01974000Y01343876D02*
X02072183Y01343876D01*
X02108068Y01375873D02*
X02465663Y01375873D01*
X02400000Y01300000D02*
X02600000Y01300000D01*
X02650000Y01250000D01*
X02550000Y01250000D02*
X02550000Y01200000D01*
X02600000Y01150000D01*
X02650000Y01150000D01*
X02600000Y01100000D02*
X02550000Y01100000D01*
X02500000Y01100000D01*
X02450000Y01150000D02*
X02400000Y01100000D01*
X02300000Y01100000D01*
X02200000Y01200000D01*
X02100000Y01200000D01*
X02150000Y01250000D02*
X02350000Y01250000D01*
X02350000Y01300000D01*
X02312250Y01279882D02*
X02205515Y01279882D01*
X02300000Y01200000D02*
X02550000Y01200000D01*
X02600000Y01100000D02*
X02650000Y01050000D01*
X02650000Y00950000D02*
X02600000Y00950000D01*
X02550000Y00900000D01*
X02400000Y00900000D01*
X02350000Y00950000D01*
X02150000Y00950000D01*
X02150000Y00850000D02*
X02200000Y00850000D01*
X02250000Y00900000D01*
X02100000Y00750000D02*
X02700000Y00750000D01*
X02730143Y00719934D02*
X03339008Y00719934D01*
X03339008Y00735932D02*
X02740255Y00735932D01*
X02742575Y00751931D02*
X03339008Y00751931D01*
X03339008Y00767929D02*
X02738656Y00767929D01*
X02726282Y00783928D02*
X03339008Y00783928D01*
X03339008Y00799926D02*
X02733867Y00799926D01*
X02749866Y00815925D02*
X02948678Y00815925D01*
X02900000Y00900000D02*
X02850000Y00900000D01*
X02900000Y00950000D02*
X02950000Y01000000D01*
X03100000Y01000000D01*
X02956192Y00911916D02*
X02945857Y00911916D01*
X02900000Y00950000D02*
X02650000Y00950000D01*
X02669857Y00719934D02*
X01474000Y00719934D01*
X01474000Y00735932D02*
X02080127Y00735932D01*
X02064128Y00751931D02*
X01474000Y00751931D01*
X01474000Y00767929D02*
X02048130Y00767929D01*
X02050000Y00800000D02*
X02100000Y00750000D01*
X02050000Y00800000D02*
X01900000Y00800000D01*
X01800000Y00900000D01*
X01650000Y00900000D01*
X01650000Y01050000D01*
X01800000Y01050000D01*
X01900000Y00950000D01*
X01950000Y00950000D01*
X02000000Y00900000D02*
X01900000Y00900000D01*
X01850000Y00950000D01*
X01700000Y00950000D01*
X01626000Y00943913D02*
X01574000Y00943913D01*
X01574000Y00959911D02*
X01626000Y00959911D01*
X01626000Y00975910D02*
X01574000Y00975910D01*
X01574000Y00991908D02*
X01626000Y00991908D01*
X01626000Y01007907D02*
X01574000Y01007907D01*
X01574000Y01023906D02*
X01615885Y01023906D01*
X01608099Y01039904D02*
X01574000Y01039904D01*
X01589844Y01055903D02*
X01607425Y01055903D01*
X01605842Y01071901D02*
X01612989Y01071901D01*
X01600000Y01100000D02*
X01550000Y01050000D01*
X01550000Y00900000D01*
X01582295Y00927914D02*
X01617705Y00927914D01*
X01608853Y00911916D02*
X01591147Y00911916D01*
X01592575Y00895917D02*
X01607425Y00895917D01*
X01612235Y00879919D02*
X01587765Y00879919D01*
X01574130Y00863920D02*
X01625870Y00863920D01*
X01674130Y00863920D02*
X01802139Y00863920D01*
X01818137Y00847922D02*
X01474000Y00847922D01*
X01474000Y00863920D02*
X01525870Y00863920D01*
X01512235Y00879919D02*
X01474000Y00879919D01*
X01474000Y00895917D02*
X01507425Y00895917D01*
X01508853Y00911916D02*
X01474000Y00911916D01*
X01474000Y00927914D02*
X01517705Y00927914D01*
X01526000Y00943913D02*
X01474000Y00943913D01*
X01474000Y00959911D02*
X01526000Y00959911D01*
X01526000Y00975910D02*
X01474000Y00975910D01*
X01474000Y00991908D02*
X01526000Y00991908D01*
X01526000Y01007907D02*
X01474000Y01007907D01*
X01474000Y01023906D02*
X01526000Y01023906D01*
X01526000Y01039904D02*
X01474000Y01039904D01*
X01474000Y01055903D02*
X01526468Y01055903D01*
X01537960Y01071901D02*
X01474000Y01071901D01*
X01450000Y01150000D02*
X01500000Y01200000D01*
X01449950Y01183891D02*
X01425506Y01183891D01*
X01450000Y01150000D02*
X01450000Y00700000D01*
X01400000Y00600000D01*
X01442000Y00607944D02*
X03339008Y00607944D01*
X03339008Y00623942D02*
X01438804Y00623942D01*
X01446803Y00639941D02*
X03339008Y00639941D01*
X03339008Y00655939D02*
X01454802Y00655939D01*
X01462802Y00671938D02*
X03339008Y00671938D01*
X03339008Y00687937D02*
X01470980Y00687937D01*
X01474000Y00703935D02*
X03339008Y00703935D01*
X03339008Y00591945D02*
X01442000Y00591945D01*
X01435344Y00575947D02*
X03339008Y00575947D01*
X03339008Y00559948D02*
X01419345Y00559948D01*
X01370669Y00719934D02*
X01029330Y00719934D01*
X01017397Y00708000D02*
X01042000Y00732603D01*
X01042000Y00767397D01*
X01017397Y00792000D01*
X00982603Y00792000D01*
X00958000Y00767397D01*
X00958000Y00732603D01*
X00982603Y00708000D01*
X01017397Y00708000D01*
X01042000Y00735932D02*
X01358000Y00735932D01*
X01358000Y00751931D02*
X01042000Y00751931D01*
X01041468Y00767929D02*
X01321861Y00767929D01*
X01310575Y00783928D02*
X01025469Y00783928D01*
X00974531Y00783928D02*
X00851469Y00783928D01*
X00864034Y00767929D02*
X00958532Y00767929D01*
X00958000Y00751931D02*
X00868000Y00751931D01*
X00865633Y00735932D02*
X00958000Y00735932D01*
X00970669Y00719934D02*
X00855330Y00719934D01*
X00851322Y00815925D02*
X00974678Y00815925D01*
X00958680Y00831923D02*
X00863973Y00831923D01*
X00868000Y00847922D02*
X00958000Y00847922D01*
X00958000Y00863920D02*
X00865694Y00863920D01*
X00855478Y00879919D02*
X00970522Y00879919D01*
X00978687Y00911916D02*
X00843808Y00911916D01*
X00862312Y00927914D02*
X00962689Y00927914D01*
X00958000Y00943913D02*
X00868000Y00943913D01*
X00867355Y00959911D02*
X00958000Y00959911D01*
X00966513Y00975910D02*
X00859487Y00975910D01*
X00834575Y00991908D02*
X00982512Y00991908D01*
X00966697Y01023906D02*
X00859302Y01023906D01*
X00861606Y01026209D02*
X00868000Y01041646D01*
X00868000Y01058354D01*
X00861606Y01073791D01*
X00849791Y01085606D01*
X00834354Y01092000D01*
X00765646Y01092000D01*
X00750209Y01085606D01*
X00738394Y01073791D01*
X00732000Y01058354D01*
X00732000Y01041646D01*
X00738394Y01026209D01*
X00750209Y01014394D01*
X00765646Y01008000D01*
X00834354Y01008000D01*
X00849791Y01014394D01*
X00861606Y01026209D01*
X00867278Y01039904D02*
X00958000Y01039904D01*
X00958000Y01055903D02*
X00868000Y01055903D01*
X00862389Y01071901D02*
X00962504Y01071901D01*
X00978503Y01087900D02*
X00844253Y01087900D01*
X00855294Y01119897D02*
X00970706Y01119897D01*
X00958000Y01135895D02*
X00865618Y01135895D01*
X00868000Y01151894D02*
X00958000Y01151894D01*
X00958495Y01167892D02*
X00864049Y01167892D01*
X00851506Y01183891D02*
X00974494Y01183891D01*
X00974715Y01215888D02*
X00851285Y01215888D01*
X00849791Y01214394D02*
X00861606Y01226209D01*
X00868000Y01241646D01*
X00868000Y01258354D01*
X00861606Y01273791D01*
X00849791Y01285606D01*
X00834354Y01292000D01*
X00765646Y01292000D01*
X00750209Y01285606D01*
X00738394Y01273791D01*
X00732000Y01258354D01*
X00732000Y01241646D01*
X00738394Y01226209D01*
X00750209Y01214394D01*
X00765646Y01208000D01*
X00834354Y01208000D01*
X00849791Y01214394D01*
X00863957Y01231886D02*
X00958717Y01231886D01*
X00958000Y01247885D02*
X00868000Y01247885D01*
X00865710Y01263883D02*
X00958000Y01263883D01*
X00970485Y01279882D02*
X00855515Y01279882D01*
X00843719Y01311879D02*
X01758838Y01311879D01*
X01757425Y01295880D02*
X00624000Y01295880D01*
X00624000Y01279882D02*
X00744485Y01279882D01*
X00734290Y01263883D02*
X00624000Y01263883D01*
X00624000Y01247885D02*
X00732000Y01247885D01*
X00736042Y01231886D02*
X00624000Y01231886D01*
X00624000Y01215888D02*
X00748715Y01215888D01*
X00765646Y01308000D02*
X00750209Y01314394D01*
X00738394Y01326209D01*
X00732000Y01341646D01*
X00732000Y01358354D01*
X00738394Y01373791D01*
X00750209Y01385606D01*
X00765646Y01392000D01*
X00834354Y01392000D01*
X00849791Y01385606D01*
X00861606Y01373791D01*
X00868000Y01358354D01*
X00868000Y01341646D01*
X00861606Y01326209D01*
X00849791Y01314394D01*
X00834354Y01308000D01*
X00765646Y01308000D01*
X00756281Y01311879D02*
X00624000Y01311879D01*
X00624000Y01327877D02*
X00737703Y01327877D01*
X00732000Y01343876D02*
X00627817Y01343876D01*
X00643815Y01359875D02*
X00732630Y01359875D01*
X00740476Y01375873D02*
X00659814Y01375873D01*
X00675813Y01391872D02*
X00765336Y01391872D01*
X00740734Y01423869D02*
X00707810Y01423869D01*
X00723808Y01439867D02*
X00732737Y01439867D01*
X00691811Y01407870D02*
X00958000Y01407870D01*
X00958000Y01417397D02*
X00958000Y01382603D01*
X00982603Y01358000D01*
X01017397Y01358000D01*
X01042000Y01382603D01*
X01042000Y01417397D01*
X01017397Y01442000D01*
X00982603Y01442000D01*
X00958000Y01417397D01*
X00964472Y01423869D02*
X00859266Y01423869D01*
X00867263Y01439867D02*
X00980470Y01439867D01*
X01019530Y01439867D02*
X01380470Y01439867D01*
X01382603Y01442000D02*
X01358000Y01417397D01*
X01358000Y01382603D01*
X01382603Y01358000D01*
X01417397Y01358000D01*
X01442000Y01382603D01*
X01442000Y01417397D01*
X01417397Y01442000D01*
X01382603Y01442000D01*
X01364472Y01423869D02*
X01035528Y01423869D01*
X01042000Y01407870D02*
X01358000Y01407870D01*
X01358000Y01391872D02*
X01042000Y01391872D01*
X01035270Y01375873D02*
X01364730Y01375873D01*
X01380728Y01359875D02*
X01019271Y01359875D01*
X00980728Y01359875D02*
X00867370Y01359875D01*
X00868000Y01343876D02*
X01922183Y01343876D01*
X01906184Y01359875D02*
X01419271Y01359875D01*
X01435270Y01375873D02*
X01890186Y01375873D01*
X01874187Y01391872D02*
X01442000Y01391872D01*
X01442000Y01407870D02*
X01858189Y01407870D01*
X01842190Y01423869D02*
X01435528Y01423869D01*
X01419530Y01439867D02*
X01826192Y01439867D01*
X01810193Y01455866D02*
X00868000Y01455866D01*
X00862404Y01471864D02*
X01540055Y01471864D01*
X01531679Y01487863D02*
X00844342Y01487863D01*
X00855257Y01519860D02*
X00920743Y01519860D01*
X00932603Y01508000D02*
X00967397Y01508000D01*
X00992000Y01532603D01*
X00992000Y01567397D01*
X00967397Y01592000D01*
X00932603Y01592000D01*
X00908000Y01567397D01*
X00908000Y01532603D01*
X00932603Y01508000D01*
X00908000Y01535858D02*
X00865603Y01535858D01*
X00868000Y01551857D02*
X00908000Y01551857D01*
X00908458Y01567855D02*
X00864064Y01567855D01*
X00851543Y01583854D02*
X00924457Y01583854D01*
X00924752Y01615851D02*
X00851248Y01615851D01*
X00863942Y01631849D02*
X00908754Y01631849D01*
X00908000Y01647848D02*
X00868000Y01647848D01*
X00865725Y01663846D02*
X00908000Y01663846D01*
X00920448Y01679845D02*
X00855552Y01679845D01*
X00843630Y01711842D02*
X00928761Y01711842D01*
X00912762Y01727841D02*
X00862282Y01727841D01*
X00868000Y01743839D02*
X00908000Y01743839D01*
X00908000Y01759838D02*
X00867386Y01759838D01*
X00859561Y01775836D02*
X00916439Y01775836D01*
X00932438Y01791835D02*
X00834753Y01791835D01*
X00859229Y01823832D02*
X00916771Y01823832D01*
X00908000Y01839830D02*
X00867248Y01839830D01*
X00868000Y01855829D02*
X00908000Y01855829D01*
X00912430Y01871827D02*
X00862419Y01871827D01*
X00844431Y01887826D02*
X00928429Y01887826D01*
X00900000Y02000000D02*
X00900000Y02050000D01*
X00899999Y02047811D02*
X00900000Y02047811D01*
X00899999Y02031813D02*
X00900000Y02031813D01*
X00899999Y02063810D02*
X00900000Y02063810D01*
X00899999Y02079808D02*
X00900000Y02079808D01*
X00867583Y02079808D02*
X00855589Y02079808D01*
X00932417Y02079808D02*
X00970411Y02079808D01*
X00982603Y02092000D02*
X00958000Y02067397D01*
X00958000Y02032603D01*
X00982603Y02008000D01*
X01017397Y02008000D01*
X01042000Y02032603D01*
X01042000Y02067397D01*
X01017397Y02092000D01*
X00982603Y02092000D01*
X00958000Y02063810D02*
X00944000Y02063810D01*
X00944000Y02047811D02*
X00958000Y02047811D01*
X00958790Y02031813D02*
X00944000Y02031813D01*
X00928039Y02015814D02*
X00974789Y02015814D01*
X01025211Y02015814D02*
X01276000Y02015814D01*
X01276000Y01999815D02*
X00450000Y01999815D01*
X00450000Y01983817D02*
X00748420Y01983817D01*
X00735920Y01967818D02*
X00450000Y01967818D01*
X00450000Y01951820D02*
X00732000Y01951820D01*
X00734412Y01935821D02*
X00450000Y01935821D01*
X00450000Y01919823D02*
X00744780Y01919823D01*
X00748789Y02015814D02*
X00450000Y02015814D01*
X00450000Y02031813D02*
X00736073Y02031813D01*
X00732000Y02047811D02*
X00450000Y02047811D01*
X00450000Y02063810D02*
X00734260Y02063810D01*
X00744411Y02079808D02*
X00450000Y02079808D01*
X00450000Y01775836D02*
X00740439Y01775836D01*
X00732614Y01759838D02*
X00450000Y01759838D01*
X00450000Y01743839D02*
X00732000Y01743839D01*
X00737718Y01727841D02*
X00450000Y01727841D01*
X00450000Y01711842D02*
X00756370Y01711842D01*
X00975248Y01615851D02*
X01324752Y01615851D01*
X01308754Y01631849D02*
X00991246Y01631849D01*
X00992000Y01647848D02*
X01308000Y01647848D01*
X01308000Y01663846D02*
X00992000Y01663846D01*
X00975543Y01583854D02*
X01321629Y01583854D01*
X01306000Y01567855D02*
X00991541Y01567855D01*
X00992000Y01551857D02*
X01306000Y01551857D01*
X01306000Y01549999D02*
X01306000Y01531775D01*
X01331775Y01506000D01*
X01349999Y01506000D01*
X01349999Y01549999D01*
X01306000Y01549999D01*
X01306000Y01535858D02*
X00992000Y01535858D01*
X00979257Y01519860D02*
X01317915Y01519860D01*
X01349999Y01519860D02*
X01350000Y01519860D01*
X01349999Y01535858D02*
X01350000Y01535858D01*
X01349999Y01551857D02*
X01350000Y01551857D01*
X01349999Y01567855D02*
X01350000Y01567855D01*
X01349999Y01583854D02*
X01350000Y01583854D01*
X01378371Y01583854D02*
X01482205Y01583854D01*
X01466206Y01599852D02*
X00450000Y01599852D01*
X00834664Y01391872D02*
X00958000Y01391872D01*
X00964730Y01375873D02*
X00859524Y01375873D01*
X00862297Y01327877D02*
X01767668Y01327877D01*
X01745941Y01279882D02*
X01680328Y01279882D01*
X01690332Y01263883D02*
X01729942Y01263883D01*
X01713944Y01247885D02*
X01692575Y01247885D01*
X01688579Y01231886D02*
X01697945Y01231886D01*
X01720346Y01186405D02*
X01720346Y01186405D01*
X01717832Y01183891D02*
X01898494Y01183891D01*
X01794195Y01471864D02*
X01659945Y01471864D01*
X01668320Y01487863D02*
X01778196Y01487863D01*
X01762198Y01503861D02*
X01669937Y01503861D01*
X01665263Y01519860D02*
X01746199Y01519860D01*
X01730201Y01535858D02*
X01651502Y01535858D01*
X01653252Y01567855D02*
X01698203Y01567855D01*
X01682205Y01583854D02*
X01664772Y01583854D01*
X01714202Y01551857D02*
X01394000Y01551857D01*
X01394000Y01567855D02*
X01546748Y01567855D01*
X01500000Y01600000D02*
X01600000Y01600000D01*
X01450208Y01615851D02*
X01375248Y01615851D01*
X01464293Y01759838D02*
X01656221Y01759838D01*
X01640223Y01775836D02*
X01486046Y01775836D01*
X01492575Y01791835D02*
X01598601Y01791835D01*
X01606403Y01839830D02*
X01776229Y01839830D01*
X01792227Y01823832D02*
X01655180Y01823832D01*
X01676108Y01807833D02*
X01808226Y01807833D01*
X01824224Y01791835D02*
X01692106Y01791835D01*
X01708105Y01775836D02*
X01840223Y01775836D01*
X01856221Y01759838D02*
X01724103Y01759838D01*
X01740102Y01743839D02*
X01872220Y01743839D01*
X01888218Y01727841D02*
X01756100Y01727841D01*
X01772099Y01711842D02*
X01904217Y01711842D01*
X01920215Y01695844D02*
X01788097Y01695844D01*
X01804096Y01679845D02*
X01936214Y01679845D01*
X01952212Y01663846D02*
X01820094Y01663846D01*
X01836093Y01647848D02*
X01968211Y01647848D01*
X01984209Y01631849D02*
X01852092Y01631849D01*
X01868090Y01615851D02*
X02000208Y01615851D01*
X02016206Y01599852D02*
X01884089Y01599852D01*
X01900087Y01583854D02*
X02032205Y01583854D01*
X02048203Y01567855D02*
X01916086Y01567855D01*
X01932084Y01551857D02*
X02064202Y01551857D01*
X02350000Y01250000D02*
X02400000Y01300000D01*
X02655091Y01423869D02*
X03339008Y01423869D01*
X03339008Y01407870D02*
X02676071Y01407870D01*
X02692069Y01391872D02*
X03339008Y01391872D01*
X03339008Y01375873D02*
X02708068Y01375873D01*
X02724066Y01359875D02*
X03339008Y01359875D01*
X03339008Y01343876D02*
X02740065Y01343876D01*
X02756063Y01327877D02*
X03339008Y01327877D01*
X03339008Y01311879D02*
X02772062Y01311879D01*
X02788061Y01295880D02*
X03339008Y01295880D01*
X03339008Y01279882D02*
X03255515Y01279882D01*
X03249791Y01285606D02*
X03234354Y01292000D01*
X03165646Y01292000D01*
X03150209Y01285606D01*
X03138394Y01273791D01*
X03132000Y01258354D01*
X03132000Y01241646D01*
X03138394Y01226209D01*
X03150209Y01214394D01*
X03165646Y01208000D01*
X03234354Y01208000D01*
X03249791Y01214394D01*
X03261606Y01226209D01*
X03268000Y01241646D01*
X03268000Y01258354D01*
X03261606Y01273791D01*
X03249791Y01285606D01*
X03265710Y01263883D02*
X03339008Y01263883D01*
X03339008Y01247885D02*
X03268000Y01247885D01*
X03263957Y01231886D02*
X03339008Y01231886D01*
X03339008Y01215888D02*
X03251285Y01215888D01*
X03251506Y01183891D02*
X03339008Y01183891D01*
X03339008Y01199889D02*
X03084052Y01199889D01*
X03100050Y01183891D02*
X03148494Y01183891D01*
X03135951Y01167892D02*
X03116049Y01167892D01*
X03148715Y01215888D02*
X03068053Y01215888D01*
X03063957Y01231886D02*
X03136042Y01231886D01*
X03132000Y01247885D02*
X03068000Y01247885D01*
X03065710Y01263883D02*
X03134290Y01263883D01*
X03144485Y01279882D02*
X03055515Y01279882D01*
X02944485Y01279882D02*
X02804059Y01279882D01*
X03264049Y01167892D02*
X03339008Y01167892D01*
X03339008Y01151894D02*
X03268000Y01151894D01*
X03265618Y01135895D02*
X03339008Y01135895D01*
X03339008Y01119897D02*
X03264044Y01119897D01*
X03270346Y01113595D02*
X03270346Y01113595D01*
X03280043Y01103898D02*
X03339008Y01103898D01*
X03339008Y01087900D02*
X03296041Y01087900D01*
X03312040Y01071901D02*
X03339008Y01071901D01*
X03339008Y01055903D02*
X03323532Y01055903D01*
X03324000Y01039904D02*
X03339008Y01039904D01*
X03339008Y01023906D02*
X03324000Y01023906D01*
X03324000Y01007907D02*
X03339008Y01007907D01*
X03339008Y00991908D02*
X03324000Y00991908D01*
X03324000Y00975910D02*
X03339008Y00975910D01*
X03339008Y00959911D02*
X03324000Y00959911D01*
X03323456Y00943913D02*
X03339008Y00943913D01*
X03339008Y00927914D02*
X03311855Y00927914D01*
X03295857Y00911916D02*
X03339008Y00911916D01*
X03339008Y00895917D02*
X03279858Y00895917D01*
X03263860Y00879919D02*
X03339008Y00879919D01*
X03339008Y00863920D02*
X03265694Y00863920D01*
X03268000Y00847922D02*
X03339008Y00847922D01*
X03339008Y00831923D02*
X03263973Y00831923D01*
X03251322Y00815925D02*
X03339008Y00815925D01*
X01882131Y00783928D02*
X01474000Y00783928D01*
X01474000Y00799926D02*
X01866133Y00799926D01*
X01850134Y00815925D02*
X01474000Y00815925D01*
X01474000Y00831923D02*
X01834136Y00831923D01*
X01400000Y00850000D02*
X01350000Y00800000D01*
X01362689Y00927914D02*
X01037311Y00927914D01*
X01042000Y00943913D02*
X01358000Y00943913D01*
X01358000Y00959911D02*
X01042000Y00959911D01*
X01033487Y00975910D02*
X01366513Y00975910D01*
X00740697Y01023906D02*
X00624000Y01023906D01*
X00624000Y01039904D02*
X00732721Y01039904D01*
X00732000Y01055903D02*
X00624000Y01055903D01*
X00624000Y01071901D02*
X00737611Y01071901D01*
X01625068Y01887826D02*
X01728233Y01887826D01*
X01712234Y01903824D02*
X01639102Y01903824D01*
X01643887Y01919823D02*
X01696236Y01919823D01*
X01276000Y02031813D02*
X01041209Y02031813D01*
X01042000Y02047811D02*
X01276000Y02047811D01*
X01276000Y02063810D02*
X01042000Y02063810D01*
X01029589Y02079808D02*
X01276000Y02079808D01*
X01276000Y02223795D02*
X01033192Y02223795D01*
X01042000Y02239793D02*
X01276000Y02239793D01*
X01276000Y02255792D02*
X01042000Y02255792D01*
X01037606Y02271790D02*
X01276000Y02271790D01*
D15*
X01100000Y02350000D03*
X01000000Y02500000D03*
X01450000Y01800000D03*
X01800000Y01300000D03*
X01650000Y01250000D03*
X01550000Y01150000D03*
X01650000Y01050000D03*
X01700000Y00950000D03*
X01650000Y00900000D03*
X01550000Y00900000D03*
X01350000Y00800000D03*
X02250000Y00900000D03*
X02550000Y01100000D03*
X02550000Y01250000D03*
X02500000Y01350000D03*
X02350000Y01300000D03*
X02300000Y01200000D03*
X02750000Y01050000D03*
X02800000Y01100000D03*
X02850000Y00900000D03*
X02700000Y00750000D03*
M02*
