G75*
%MOIN*%
%OFA0B0*%
%FSLAX26Y26*%
%IPPOS*%
%LPD*%
%AMOC8*
5,1,8,0,0,1.08239X$1,22.5*
%
%ADD10OC8,0.060000*%
%ADD11C,0.060000*%
%ADD12C,0.060000*%
%ADD13C,0.068000*%
%ADD14C,0.061150*%
D10*
X01000000Y00600000D03*
X01000000Y00750000D03*
X01000000Y00850000D03*
X01000000Y00950000D03*
X01000000Y01050000D03*
X01000000Y01150000D03*
X01000000Y01250000D03*
X01000000Y01400000D03*
X00950000Y01550000D03*
X00950000Y01650000D03*
X00950000Y01750000D03*
X00950000Y01850000D03*
X00900000Y02050000D03*
X01000000Y02050000D03*
X01000000Y02250000D03*
X00900000Y02250000D03*
X01350000Y01850000D03*
X01350000Y01750000D03*
X01350000Y01650000D03*
X01350000Y01550000D03*
X01400000Y01400000D03*
X01400000Y01250000D03*
X01400000Y01150000D03*
X01400000Y01050000D03*
X01400000Y00950000D03*
X01400000Y00850000D03*
X01400000Y00750000D03*
X01400000Y00600000D03*
X00540000Y02900000D03*
D11*
X00460000Y02900000D03*
X01250000Y02550000D03*
X01250000Y02450000D03*
D12*
X01400000Y02276000D02*
X01400000Y02224000D01*
X01500000Y02224000D02*
X01500000Y02276000D01*
X01600000Y02276000D02*
X01600000Y02224000D01*
X01600000Y01976000D02*
X01600000Y01924000D01*
X01500000Y01924000D02*
X01500000Y01976000D01*
X01400000Y01976000D02*
X01400000Y01924000D01*
X01574000Y01700000D02*
X01626000Y01700000D01*
X01626000Y01600000D02*
X01574000Y01600000D01*
X01574000Y01500000D02*
X01626000Y01500000D01*
X01924000Y01250000D02*
X01976000Y01250000D01*
X01976000Y01150000D02*
X01924000Y01150000D01*
X01924000Y01050000D02*
X01976000Y01050000D01*
X01976000Y00950000D02*
X01924000Y00950000D01*
X01924000Y00850000D02*
X01976000Y00850000D01*
X02124000Y00850000D02*
X02176000Y00850000D01*
X02176000Y00950000D02*
X02124000Y00950000D01*
X02124000Y01050000D02*
X02176000Y01050000D01*
X02176000Y01150000D02*
X02124000Y01150000D01*
X02124000Y01250000D02*
X02176000Y01250000D01*
X02424000Y01250000D02*
X02476000Y01250000D01*
X02476000Y01150000D02*
X02424000Y01150000D01*
X02424000Y01050000D02*
X02476000Y01050000D01*
X02476000Y00950000D02*
X02424000Y00950000D01*
X02424000Y00850000D02*
X02476000Y00850000D01*
X02624000Y00850000D02*
X02676000Y00850000D01*
X02676000Y00950000D02*
X02624000Y00950000D01*
X02624000Y01050000D02*
X02676000Y01050000D01*
X02676000Y01150000D02*
X02624000Y01150000D01*
X02624000Y01250000D02*
X02676000Y01250000D01*
X02974000Y01250000D02*
X03026000Y01250000D01*
X03026000Y01150000D02*
X02974000Y01150000D01*
X02974000Y01050000D02*
X03026000Y01050000D01*
X03026000Y00950000D02*
X02974000Y00950000D01*
X02974000Y00850000D02*
X03026000Y00850000D01*
X03174000Y00850000D02*
X03226000Y00850000D01*
X03226000Y00950000D02*
X03174000Y00950000D01*
X03174000Y01050000D02*
X03226000Y01050000D01*
X03226000Y01150000D02*
X03174000Y01150000D01*
X03174000Y01250000D02*
X03226000Y01250000D01*
X00826000Y01250000D02*
X00774000Y01250000D01*
X00774000Y01150000D02*
X00826000Y01150000D01*
X00826000Y01050000D02*
X00774000Y01050000D01*
X00774000Y00950000D02*
X00826000Y00950000D01*
X00826000Y00850000D02*
X00774000Y00850000D01*
X00774000Y00750000D02*
X00826000Y00750000D01*
X00226000Y00750000D02*
X00174000Y00750000D01*
X00174000Y00850000D02*
X00226000Y00850000D01*
X00226000Y00950000D02*
X00174000Y00950000D01*
X00174000Y01050000D02*
X00226000Y01050000D01*
X00226000Y01150000D02*
X00174000Y01150000D01*
X00174000Y01250000D02*
X00226000Y01250000D01*
X00226000Y01350000D02*
X00174000Y01350000D01*
X00174000Y01450000D02*
X00226000Y01450000D01*
X00226000Y01550000D02*
X00174000Y01550000D01*
X00174000Y01650000D02*
X00226000Y01650000D01*
X00226000Y01750000D02*
X00174000Y01750000D01*
X00174000Y01850000D02*
X00226000Y01850000D01*
X00226000Y01950000D02*
X00174000Y01950000D01*
X00174000Y02050000D02*
X00226000Y02050000D01*
X00226000Y02150000D02*
X00174000Y02150000D01*
X00174000Y02250000D02*
X00226000Y02250000D01*
X00226000Y02350000D02*
X00174000Y02350000D01*
X00174000Y02450000D02*
X00226000Y02450000D01*
X00226000Y02550000D02*
X00174000Y02550000D01*
X00174000Y02650000D02*
X00226000Y02650000D01*
X00774000Y02650000D02*
X00826000Y02650000D01*
X00826000Y02550000D02*
X00774000Y02550000D01*
X00774000Y02450000D02*
X00826000Y02450000D01*
X00826000Y02350000D02*
X00774000Y02350000D01*
X00774000Y02250000D02*
X00826000Y02250000D01*
X00826000Y02150000D02*
X00774000Y02150000D01*
X00774000Y02050000D02*
X00826000Y02050000D01*
X00826000Y01950000D02*
X00774000Y01950000D01*
X00774000Y01850000D02*
X00826000Y01850000D01*
X00826000Y01750000D02*
X00774000Y01750000D01*
X00774000Y01650000D02*
X00826000Y01650000D01*
X00826000Y01550000D02*
X00774000Y01550000D01*
X00774000Y01450000D02*
X00826000Y01450000D01*
X00826000Y01350000D02*
X00774000Y01350000D01*
D13*
X00411000Y00352000D02*
X00411000Y00292000D01*
X00589000Y00292000D02*
X00589000Y00352000D01*
X00589000Y00548000D02*
X00589000Y00608000D01*
X00411000Y00608000D02*
X00411000Y00548000D01*
D14*
X01350000Y00800000D03*
X01550000Y00900000D03*
X01650000Y00900000D03*
X01700000Y00950000D03*
X01650000Y01050000D03*
X01550000Y01150000D03*
X01650000Y01250000D03*
X01800000Y01300000D03*
X02250000Y00900000D03*
X02550000Y01100000D03*
X02550000Y01250000D03*
X02500000Y01350000D03*
X02350000Y01300000D03*
X02300000Y01200000D03*
X02750000Y01050000D03*
X02800000Y01100000D03*
X02850000Y00900000D03*
X02700000Y00750000D03*
X01450000Y01800000D03*
X01100000Y02350000D03*
X01000000Y02500000D03*
M02*
