G75*
%MOIN*%
%OFA0B0*%
%FSLAX26Y26*%
%IPPOS*%
%LPD*%
%AMOC8*
5,1,8,0,0,1.08239X$1,22.5*
%
%ADD10R,0.102362X0.062992*%
%ADD11R,0.062992X0.102362*%
%ADD12R,0.051181X0.059055*%
%ADD13R,0.059055X0.051181*%
%ADD14R,0.029921X0.070866*%
%ADD15R,0.070866X0.029921*%
%ADD16R,0.080000X0.026000*%
%ADD17C,0.060000*%
%ADD18C,0.052000*%
%ADD19OC8,0.060000*%
%ADD20C,0.016000*%
%ADD21C,0.053150*%
D10*
X01141634Y00250000D03*
X01283366Y00250000D03*
X01416634Y00250000D03*
X01558366Y00250000D03*
D11*
X00187500Y00404134D03*
X00187500Y00545866D03*
D12*
X00212598Y00662500D03*
X00287402Y00662500D03*
X00299902Y00775000D03*
X00225098Y00775000D03*
D13*
X01675000Y00624902D03*
X01675000Y00550098D03*
X01675000Y00449902D03*
X01675000Y00375098D03*
X01675000Y00274902D03*
X01675000Y00200098D03*
D14*
X01037500Y00415551D03*
X00987500Y00415551D03*
X00937500Y00415551D03*
X00887500Y00415551D03*
X00837500Y00415551D03*
X00787500Y00415551D03*
X00737500Y00415551D03*
X00687500Y00415551D03*
X00637500Y00415551D03*
X00587500Y00415551D03*
X00537500Y00415551D03*
X00537500Y01034449D03*
X00587500Y01034449D03*
X00637500Y01034449D03*
X00687500Y01034449D03*
X00737500Y01034449D03*
X00787500Y01034449D03*
X00837500Y01034449D03*
X00887500Y01034449D03*
X00937500Y01034449D03*
X00987500Y01034449D03*
X01037500Y01034449D03*
D15*
X01096949Y00975000D03*
X01096949Y00925000D03*
X01096949Y00875000D03*
X01096949Y00825000D03*
X01096949Y00775000D03*
X01096949Y00725000D03*
X01096949Y00675000D03*
X01096949Y00625000D03*
X01096949Y00575000D03*
X01096949Y00525000D03*
X01096949Y00475000D03*
X00478051Y00475000D03*
X00478051Y00525000D03*
X00478051Y00575000D03*
X00478051Y00625000D03*
X00478051Y00675000D03*
X00478051Y00725000D03*
X00478051Y00775000D03*
X00478051Y00825000D03*
X00478051Y00875000D03*
X00478051Y00925000D03*
X00478051Y00975000D03*
D16*
X01232000Y00987500D03*
X01232000Y00937500D03*
X01232000Y00887500D03*
X01232000Y00837500D03*
X01232000Y00787500D03*
X01232000Y00737500D03*
X01232000Y00687500D03*
X01618000Y00687500D03*
X01618000Y00737500D03*
X01618000Y00787500D03*
X01618000Y00837500D03*
X01618000Y00887500D03*
X01618000Y00937500D03*
X01618000Y00987500D03*
X01618000Y01037500D03*
X01232000Y01037500D03*
D17*
X01204500Y00564000D02*
X01264500Y00564000D01*
X01264500Y00386000D02*
X01204500Y00386000D01*
X00975000Y00217500D02*
X00975000Y00157500D01*
X00875000Y00157500D02*
X00875000Y00217500D01*
X00775000Y00217500D02*
X00775000Y00157500D01*
X00675000Y00157500D02*
X00675000Y00217500D01*
X00575000Y00217500D02*
X00575000Y00157500D01*
X00475000Y00157500D02*
X00475000Y00217500D01*
X00375000Y00217500D02*
X00375000Y00157500D01*
X00275000Y00157500D02*
X00275000Y00217500D01*
X01460500Y00386000D02*
X01520500Y00386000D01*
X01520500Y00564000D02*
X01460500Y00564000D01*
D18*
X00312500Y00875000D03*
X00212500Y00875000D03*
D19*
X00813000Y01306500D03*
X00921000Y01306500D03*
X01029000Y01306500D03*
X01137000Y01306500D03*
X01083000Y01418500D03*
X00975000Y01418500D03*
X00867000Y01418500D03*
X00759000Y01418500D03*
X01191000Y01418500D03*
D20*
X00048000Y01601285D02*
X00048000Y00047681D01*
X01826508Y00035821D01*
X01826508Y00616298D01*
X01824117Y00613907D01*
X01808469Y00607425D01*
X01799000Y00607425D01*
X01799000Y00245226D01*
X01795346Y00236405D01*
X01745346Y00186405D01*
X01738595Y00179654D01*
X01729774Y00176000D01*
X01720527Y00176000D01*
X01720527Y00167880D01*
X01711155Y00158508D01*
X01638845Y00158508D01*
X01629472Y00167880D01*
X01629472Y00232316D01*
X01633242Y00236086D01*
X01631069Y00238259D01*
X01628699Y00242363D01*
X01627472Y00246941D01*
X01627472Y00270106D01*
X01670204Y00270106D01*
X01670204Y00279697D01*
X01627472Y00279697D01*
X01627472Y00302862D01*
X01628699Y00307440D01*
X01631069Y00311544D01*
X01634420Y00314896D01*
X01638525Y00317265D01*
X01643103Y00318492D01*
X01670204Y00318492D01*
X01670204Y00279698D01*
X01679795Y00279698D01*
X01679795Y00318492D01*
X01706897Y00318492D01*
X01711475Y00317265D01*
X01715580Y00314896D01*
X01718931Y00311544D01*
X01721301Y00307440D01*
X01722527Y00302862D01*
X01722527Y00279697D01*
X01679796Y00279697D01*
X01679796Y00270106D01*
X01722527Y00270106D01*
X01722527Y00246941D01*
X01721301Y00242363D01*
X01718931Y00238259D01*
X01716758Y00236086D01*
X01720527Y00232316D01*
X01720527Y00229468D01*
X01751000Y00259941D01*
X01751000Y00442059D01*
X01745346Y00436405D01*
X01738595Y00429654D01*
X01729774Y00426000D01*
X01720527Y00426000D01*
X01720527Y00417684D01*
X01716758Y00413914D01*
X01718931Y00411741D01*
X01721301Y00407637D01*
X01722527Y00403059D01*
X01722527Y00379894D01*
X01679796Y00379894D01*
X01679796Y00370303D01*
X01722527Y00370303D01*
X01722527Y00347138D01*
X01721301Y00342560D01*
X01718931Y00338456D01*
X01715580Y00335104D01*
X01711475Y00332734D01*
X01706897Y00331508D01*
X01679795Y00331508D01*
X01679795Y00370302D01*
X01670204Y00370302D01*
X01670204Y00331508D01*
X01643103Y00331508D01*
X01638525Y00332734D01*
X01634420Y00335104D01*
X01631069Y00338456D01*
X01628699Y00342560D01*
X01627472Y00347138D01*
X01627472Y00370303D01*
X01670204Y00370303D01*
X01670204Y00379894D01*
X01627472Y00379894D01*
X01627472Y00392263D01*
X01624117Y00388907D01*
X01624000Y00388859D01*
X01624000Y00289671D01*
X01625547Y00288123D01*
X01625547Y00211876D01*
X01616175Y00202504D01*
X01500558Y00202504D01*
X01491185Y00211876D01*
X01491185Y00288123D01*
X01500558Y00297496D01*
X01517294Y00297496D01*
X01513907Y00300883D01*
X01507425Y00316531D01*
X01507425Y00333469D01*
X01507474Y00333585D01*
X01501059Y00340000D01*
X01451350Y00340000D01*
X01437491Y00345740D01*
X01442575Y00333469D01*
X01442575Y00316531D01*
X01436093Y00300883D01*
X01432706Y00297496D01*
X01474442Y00297496D01*
X01483815Y00288123D01*
X01483815Y00211876D01*
X01474442Y00202504D01*
X01358825Y00202504D01*
X01350000Y00211329D01*
X01341175Y00202504D01*
X01225558Y00202504D01*
X01216185Y00211876D01*
X01216185Y00288123D01*
X01225558Y00297496D01*
X01276000Y00297496D01*
X01276000Y00329774D01*
X01279654Y00338595D01*
X01286298Y00345239D01*
X01273650Y00340000D01*
X01195350Y00340000D01*
X01178443Y00347003D01*
X01174000Y00351446D01*
X01174000Y00297496D01*
X01199442Y00297496D01*
X01208815Y00288123D01*
X01208815Y00211876D01*
X01199442Y00202504D01*
X01083825Y00202504D01*
X01074453Y00211876D01*
X01074453Y00288123D01*
X01083825Y00297496D01*
X01126000Y00297496D01*
X01126000Y00340790D01*
X01124117Y00338907D01*
X01108469Y00332425D01*
X01091531Y00332425D01*
X01091415Y00332474D01*
X01063595Y00304654D01*
X01054774Y00301000D01*
X00920226Y00301000D01*
X00917575Y00302098D01*
X00917575Y00291531D01*
X00917526Y00291415D01*
X00951419Y00257522D01*
X00965850Y00263500D01*
X00984150Y00263500D01*
X01001057Y00256497D01*
X01013997Y00243557D01*
X01021000Y00226650D01*
X01021000Y00148350D01*
X01013997Y00131443D01*
X01001057Y00118503D01*
X00984150Y00111500D01*
X00965850Y00111500D01*
X00948943Y00118503D01*
X00936003Y00131443D01*
X00929000Y00148350D01*
X00929000Y00212059D01*
X00921000Y00220059D01*
X00921000Y00148350D01*
X00913997Y00131443D01*
X00901057Y00118503D01*
X00884150Y00111500D01*
X00865850Y00111500D01*
X00848943Y00118503D01*
X00836003Y00131443D01*
X00829000Y00148350D01*
X00829000Y00212059D01*
X00821000Y00220059D01*
X00821000Y00148350D01*
X00813997Y00131443D01*
X00801057Y00118503D01*
X00784150Y00111500D01*
X00765850Y00111500D01*
X00748943Y00118503D01*
X00736003Y00131443D01*
X00729000Y00148350D01*
X00729000Y00212059D01*
X00721000Y00220059D01*
X00721000Y00148350D01*
X00713997Y00131443D01*
X00701057Y00118503D01*
X00684150Y00111500D01*
X00665850Y00111500D01*
X00648943Y00118503D01*
X00636003Y00131443D01*
X00629000Y00148350D01*
X00629000Y00212059D01*
X00621000Y00220059D01*
X00621000Y00148350D01*
X00613997Y00131443D01*
X00601057Y00118503D01*
X00584150Y00111500D01*
X00565850Y00111500D01*
X00548943Y00118503D01*
X00536003Y00131443D01*
X00529000Y00148350D01*
X00529000Y00212059D01*
X00521000Y00220059D01*
X00521000Y00148350D01*
X00513997Y00131443D01*
X00501057Y00118503D01*
X00484150Y00111500D01*
X00465850Y00111500D01*
X00448943Y00118503D01*
X00436003Y00131443D01*
X00429000Y00148350D01*
X00429000Y00212059D01*
X00421000Y00220059D01*
X00421000Y00148350D01*
X00413997Y00131443D01*
X00401057Y00118503D01*
X00384150Y00111500D01*
X00365850Y00111500D01*
X00348943Y00118503D01*
X00336003Y00131443D01*
X00329000Y00148350D01*
X00329000Y00212059D01*
X00321000Y00220059D01*
X00321000Y00148350D01*
X00313997Y00131443D01*
X00301057Y00118503D01*
X00284150Y00111500D01*
X00265850Y00111500D01*
X00248943Y00118503D01*
X00236003Y00131443D01*
X00229000Y00148350D01*
X00229000Y00226650D01*
X00236003Y00243557D01*
X00248943Y00256497D01*
X00251000Y00257349D01*
X00251000Y00504774D01*
X00254654Y00513595D01*
X00398484Y00657425D01*
X00391531Y00657425D01*
X00375883Y00663907D01*
X00363907Y00675883D01*
X00357425Y00691531D01*
X00357425Y00702098D01*
X00354774Y00701000D01*
X00328596Y00701000D01*
X00329765Y00698975D01*
X00330992Y00694397D01*
X00330992Y00667295D01*
X00292198Y00667295D01*
X00292198Y00657704D01*
X00330992Y00657704D01*
X00330992Y00630603D01*
X00329765Y00626025D01*
X00327396Y00621920D01*
X00324044Y00618569D01*
X00319940Y00616199D01*
X00315362Y00614972D01*
X00292197Y00614972D01*
X00292197Y00657704D01*
X00282606Y00657704D01*
X00282606Y00614972D01*
X00259441Y00614972D01*
X00254863Y00616199D01*
X00250759Y00618569D01*
X00248586Y00620742D01*
X00244816Y00616972D01*
X00191968Y00616972D01*
X00195894Y00613047D01*
X00225623Y00613047D01*
X00234996Y00603675D01*
X00234996Y00488058D01*
X00225623Y00478685D01*
X00149376Y00478685D01*
X00140004Y00488058D01*
X00140004Y00601055D01*
X00129654Y00611405D01*
X00126000Y00620226D01*
X00126000Y00713859D01*
X00125883Y00713907D01*
X00113907Y00725883D01*
X00107425Y00741531D01*
X00107425Y00758469D01*
X00113907Y00774117D01*
X00125883Y00786093D01*
X00129184Y00787460D01*
X00129654Y00788595D01*
X00136405Y00795346D01*
X00145226Y00799000D01*
X00154774Y00799000D01*
X00163595Y00795346D01*
X00170346Y00788595D01*
X00170816Y00787460D01*
X00174117Y00786093D01*
X00186093Y00774117D01*
X00187713Y00770204D01*
X00220302Y00770204D01*
X00220302Y00779795D01*
X00181508Y00779795D01*
X00181508Y00806897D01*
X00182734Y00811475D01*
X00185104Y00815580D01*
X00188456Y00818931D01*
X00192560Y00821301D01*
X00197138Y00822527D01*
X00220303Y00822527D01*
X00220303Y00779796D01*
X00229894Y00779796D01*
X00229894Y00822527D01*
X00253059Y00822527D01*
X00257637Y00821301D01*
X00261741Y00818931D01*
X00263914Y00816758D01*
X00267684Y00820527D01*
X00270531Y00820527D01*
X00243978Y00847081D01*
X00236291Y00839394D01*
X00220854Y00833000D01*
X00204146Y00833000D01*
X00188709Y00839394D01*
X00176894Y00851209D01*
X00170500Y00866646D01*
X00170500Y00883354D01*
X00176894Y00898791D01*
X00188709Y00910606D01*
X00204146Y00917000D01*
X00220854Y00917000D01*
X00236291Y00910606D01*
X00243978Y00902919D01*
X00279654Y00938595D01*
X00286405Y00945346D01*
X00295226Y00949000D01*
X00338859Y00949000D01*
X00338907Y00949117D01*
X00350883Y00961093D01*
X00366531Y00967575D01*
X00383469Y00967575D01*
X00399117Y00961093D01*
X00411093Y00949117D01*
X00417575Y00933469D01*
X00417575Y00916531D01*
X00411093Y00900883D01*
X00409210Y00899000D01*
X00429030Y00899000D01*
X00430030Y00900000D01*
X00426618Y00903412D01*
X00426618Y00946588D01*
X00430030Y00950000D01*
X00426618Y00953412D01*
X00426618Y00996588D01*
X00435991Y01005961D01*
X00506539Y01005961D01*
X00506539Y01076509D01*
X00515912Y01085882D01*
X00559088Y01085882D01*
X00562500Y01082470D01*
X00565912Y01085882D01*
X00609088Y01085882D01*
X00612500Y01082470D01*
X00615912Y01085882D01*
X00659088Y01085882D01*
X00662500Y01082470D01*
X00665912Y01085882D01*
X00709088Y01085882D01*
X00712500Y01082470D01*
X00715912Y01085882D01*
X00726000Y01085882D01*
X00726000Y01104774D01*
X00729654Y01113595D01*
X00736405Y01120346D01*
X00754654Y01138595D01*
X00761405Y01145346D01*
X00770226Y01149000D01*
X00840059Y01149000D01*
X00854654Y01163595D01*
X00861405Y01170346D01*
X00870226Y01174000D01*
X00940790Y01174000D01*
X00938907Y01175883D01*
X00932425Y01191531D01*
X00932425Y01208469D01*
X00938907Y01224117D01*
X00950883Y01236093D01*
X00951000Y01236141D01*
X00951000Y01271446D01*
X00940054Y01260500D01*
X00901946Y01260500D01*
X00875000Y01287446D01*
X00875000Y01325554D01*
X00901946Y01352500D01*
X00940054Y01352500D01*
X00951000Y01341554D01*
X00951000Y01377446D01*
X00929000Y01399446D01*
X00929000Y01437554D01*
X00955946Y01464500D01*
X00994054Y01464500D01*
X01021000Y01437554D01*
X01021000Y01399446D01*
X00999000Y01377446D01*
X00999000Y01341554D01*
X01009946Y01352500D01*
X01048054Y01352500D01*
X01075000Y01325554D01*
X01075000Y01308941D01*
X01091000Y01292941D01*
X01091000Y01325554D01*
X01117946Y01352500D01*
X01138559Y01352500D01*
X01110306Y01380753D01*
X01102054Y01372500D01*
X01063946Y01372500D01*
X01037000Y01399446D01*
X01037000Y01437554D01*
X01063946Y01464500D01*
X01102054Y01464500D01*
X01129000Y01437554D01*
X01129000Y01429941D01*
X01145000Y01413941D01*
X01145000Y01437554D01*
X01171946Y01464500D01*
X01210054Y01464500D01*
X01237000Y01437554D01*
X01237000Y01399446D01*
X01210054Y01372500D01*
X01186441Y01372500D01*
X01484941Y01074000D01*
X01597853Y01074000D01*
X01600439Y01074466D01*
X01602581Y01074000D01*
X01604774Y01074000D01*
X01607201Y01072994D01*
X01609768Y01072436D01*
X01611569Y01071185D01*
X01613595Y01070346D01*
X01615452Y01068488D01*
X01618316Y01066500D01*
X01664627Y01066500D01*
X01674000Y01057127D01*
X01674000Y01017873D01*
X01668627Y01012500D01*
X01674000Y01007127D01*
X01674000Y00967873D01*
X01670034Y00963907D01*
X01763595Y00870346D01*
X01770346Y00863595D01*
X01774000Y00854774D01*
X01774000Y00684210D01*
X01775883Y00686093D01*
X01791531Y00692575D01*
X01808469Y00692575D01*
X01824117Y00686093D01*
X01826508Y00683702D01*
X01826508Y01589425D01*
X00048000Y01601285D01*
X00048000Y01599852D02*
X00262867Y01599852D01*
X00412616Y01452922D02*
X00391578Y01431884D01*
X00376701Y01406116D01*
X00369000Y01377377D01*
X00369000Y01347623D01*
X00376701Y01318884D01*
X00391578Y01293116D01*
X00412616Y01272078D01*
X00438384Y01257201D01*
X00467123Y01249500D01*
X00496877Y01249500D01*
X00525616Y01257201D01*
X00551384Y01272078D01*
X00572422Y01293116D01*
X00587299Y01318884D01*
X00595000Y01347623D01*
X00595000Y01377377D01*
X00587299Y01406116D01*
X00572422Y01431884D01*
X00551384Y01452922D01*
X00525616Y01467799D01*
X00496877Y01475500D01*
X00467123Y01475500D01*
X00438384Y01467799D01*
X00412616Y01452922D01*
X00417714Y01455866D02*
X00048000Y01455866D01*
X00048000Y01471864D02*
X00453555Y01471864D01*
X00510445Y01471864D02*
X01439555Y01471864D01*
X01453123Y01475500D02*
X01424384Y01467799D01*
X01398616Y01452922D01*
X01377578Y01431884D01*
X01362701Y01406116D01*
X01355000Y01377377D01*
X01355000Y01347623D01*
X01362701Y01318884D01*
X01377578Y01293116D01*
X01398616Y01272078D01*
X01424384Y01257201D01*
X01453123Y01249500D01*
X01482877Y01249500D01*
X01511616Y01257201D01*
X01537384Y01272078D01*
X01558422Y01293116D01*
X01573299Y01318884D01*
X01581000Y01347623D01*
X01581000Y01377377D01*
X01573299Y01406116D01*
X01558422Y01431884D01*
X01537384Y01452922D01*
X01511616Y01467799D01*
X01482877Y01475500D01*
X01453123Y01475500D01*
X01496445Y01471864D02*
X01826508Y01471864D01*
X01826508Y01455866D02*
X01532286Y01455866D01*
X01550439Y01439867D02*
X01826508Y01439867D01*
X01826508Y01423869D02*
X01563050Y01423869D01*
X01572287Y01407870D02*
X01826508Y01407870D01*
X01826508Y01391872D02*
X01577116Y01391872D01*
X01581000Y01375873D02*
X01826508Y01375873D01*
X01826508Y01359875D02*
X01581000Y01359875D01*
X01579996Y01343876D02*
X01826508Y01343876D01*
X01826508Y01327877D02*
X01575709Y01327877D01*
X01569255Y01311879D02*
X01826508Y01311879D01*
X01826508Y01295880D02*
X01560018Y01295880D01*
X01545188Y01279882D02*
X01826508Y01279882D01*
X01826508Y01263883D02*
X01523191Y01263883D01*
X01412809Y01263883D02*
X01295058Y01263883D01*
X01311056Y01247885D02*
X01826508Y01247885D01*
X01826508Y01231886D02*
X01327055Y01231886D01*
X01343053Y01215888D02*
X01826508Y01215888D01*
X01826508Y01199889D02*
X01359052Y01199889D01*
X01375050Y01183891D02*
X01826508Y01183891D01*
X01826508Y01167892D02*
X01391049Y01167892D01*
X01407047Y01151894D02*
X01826508Y01151894D01*
X01826508Y01135895D02*
X01423046Y01135895D01*
X01439044Y01119897D02*
X01826508Y01119897D01*
X01826508Y01103898D02*
X01455043Y01103898D01*
X01471041Y01087900D02*
X01826508Y01087900D01*
X01826508Y01071901D02*
X01610538Y01071901D01*
X01600000Y01050000D02*
X01618000Y01037500D01*
X01600000Y01050000D02*
X01475000Y01050000D01*
X01100000Y01425000D01*
X01083000Y01418500D01*
X01037000Y01423869D02*
X01021000Y01423869D01*
X01021000Y01407870D02*
X01037000Y01407870D01*
X01044575Y01391872D02*
X01013425Y01391872D01*
X00999000Y01375873D02*
X01060573Y01375873D01*
X01056678Y01343876D02*
X01109322Y01343876D01*
X01093324Y01327877D02*
X01072676Y01327877D01*
X01075000Y01311879D02*
X01091000Y01311879D01*
X01091000Y01295880D02*
X01088061Y01295880D01*
X01050000Y01300000D02*
X01029000Y01306500D01*
X01050000Y01300000D02*
X01125000Y01225000D01*
X01225000Y01225000D01*
X01350000Y01100000D01*
X01350000Y01050000D01*
X01325000Y01025000D01*
X01325000Y00900000D01*
X01275000Y00850000D01*
X01250000Y00850000D01*
X01232000Y00837500D01*
X01250000Y00800000D02*
X01232000Y00787500D01*
X01250000Y00800000D02*
X01300000Y00800000D01*
X01325000Y00825000D01*
X01342291Y00863920D02*
X01529979Y00863920D01*
X01536405Y00870346D02*
X01311405Y00645346D01*
X01304654Y00638595D01*
X01304184Y00637460D01*
X01300883Y00636093D01*
X01288907Y00624117D01*
X01282425Y00608469D01*
X01282425Y00606365D01*
X01273650Y00610000D01*
X01218941Y00610000D01*
X01265145Y00656204D01*
X01266990Y00657389D01*
X01267761Y00658500D01*
X01278627Y00658500D01*
X01288000Y00667873D01*
X01288000Y00707127D01*
X01284041Y00711086D01*
X01286404Y00713448D01*
X01288773Y00717552D01*
X01290000Y00722130D01*
X01290000Y00737499D01*
X01232001Y00737499D01*
X01232001Y00737500D01*
X01290000Y00737500D01*
X01290000Y00752870D01*
X01288773Y00757448D01*
X01286404Y00761552D01*
X01284041Y00763914D01*
X01288000Y00767873D01*
X01288000Y00776000D01*
X01304774Y00776000D01*
X01313595Y00779654D01*
X01316415Y00782474D01*
X01316531Y00782425D01*
X01333469Y00782425D01*
X01349117Y00788907D01*
X01361093Y00800883D01*
X01367575Y00816531D01*
X01367575Y00833469D01*
X01361093Y00849117D01*
X01349117Y00861093D01*
X01333469Y00867575D01*
X01326516Y00867575D01*
X01338595Y00879654D01*
X01345346Y00886405D01*
X01349000Y00895226D01*
X01349000Y01015059D01*
X01363595Y01029654D01*
X01370346Y01036405D01*
X01374000Y01045226D01*
X01374000Y01104774D01*
X01370346Y01113595D01*
X01245346Y01238595D01*
X01238595Y01245346D01*
X01229774Y01249000D01*
X01134941Y01249000D01*
X01123441Y01260500D01*
X01156054Y01260500D01*
X01183000Y01287446D01*
X01183000Y01308059D01*
X01454654Y01036405D01*
X01461405Y01029654D01*
X01470226Y01026000D01*
X01562000Y01026000D01*
X01562000Y01017873D01*
X01567373Y01012500D01*
X01562000Y01007127D01*
X01562000Y00967873D01*
X01567373Y00962500D01*
X01562000Y00957127D01*
X01562000Y00917873D01*
X01567373Y00912500D01*
X01562000Y00907127D01*
X01562000Y00874000D01*
X01545226Y00874000D01*
X01536405Y00870346D01*
X01550000Y00850000D02*
X01325000Y00625000D01*
X01325000Y00600000D01*
X01282425Y00607944D02*
X01278613Y00607944D01*
X01288835Y00623942D02*
X01232883Y00623942D01*
X01248882Y00639941D02*
X01306000Y00639941D01*
X01321998Y00655939D02*
X01264880Y00655939D01*
X01250000Y00675000D02*
X01232000Y00687500D01*
X01225000Y00675000D01*
X01096949Y00675000D01*
X01045516Y00671938D02*
X00529484Y00671938D01*
X00529484Y00655939D02*
X01045516Y00655939D01*
X01045516Y00653412D02*
X01048928Y00650000D01*
X01045516Y00646588D01*
X01045516Y00603412D01*
X01048928Y00600000D01*
X01045516Y00596588D01*
X01045516Y00553412D01*
X01048928Y00550000D01*
X01045516Y00546588D01*
X01045516Y00503412D01*
X01048928Y00500000D01*
X01045516Y00496588D01*
X01045516Y00466984D01*
X01015912Y00466984D01*
X01012500Y00463572D01*
X01009088Y00466984D01*
X00965912Y00466984D01*
X00962500Y00463572D01*
X00959088Y00466984D01*
X00915912Y00466984D01*
X00912500Y00463572D01*
X00909088Y00466984D01*
X00865912Y00466984D01*
X00862500Y00463572D01*
X00859088Y00466984D01*
X00815912Y00466984D01*
X00812500Y00463572D01*
X00809088Y00466984D01*
X00765912Y00466984D01*
X00762500Y00463572D01*
X00759088Y00466984D01*
X00715912Y00466984D01*
X00712500Y00463572D01*
X00709088Y00466984D01*
X00702194Y00466984D01*
X00711093Y00475883D01*
X00717575Y00491531D01*
X00717575Y00508469D01*
X00711093Y00524117D01*
X00699117Y00536093D01*
X00683469Y00542575D01*
X00666531Y00542575D01*
X00650883Y00536093D01*
X00638907Y00524117D01*
X00632425Y00508469D01*
X00632425Y00491531D01*
X00632474Y00491415D01*
X00629654Y00488595D01*
X00626000Y00479774D01*
X00626000Y00466984D01*
X00615912Y00466984D01*
X00612500Y00463572D01*
X00609088Y00466984D01*
X00565912Y00466984D01*
X00562500Y00463572D01*
X00559088Y00466984D01*
X00529484Y00466984D01*
X00529484Y00496588D01*
X00526072Y00500000D01*
X00529484Y00503412D01*
X00529484Y00546588D01*
X00526072Y00550000D01*
X00529484Y00553412D01*
X00529484Y00596588D01*
X00526072Y00600000D01*
X00529484Y00603412D01*
X00529484Y00646588D01*
X00526072Y00650000D01*
X00529484Y00653412D01*
X00529484Y00696588D01*
X00526072Y00700000D01*
X00529484Y00703412D01*
X00529484Y00746588D01*
X00527486Y00748586D01*
X00527888Y00748987D01*
X00530258Y00753092D01*
X00531484Y00757670D01*
X00531484Y00774999D01*
X00478052Y00774999D01*
X00478052Y00775000D01*
X00531484Y00775000D01*
X00531484Y00792330D01*
X00530258Y00796908D01*
X00527888Y00801013D01*
X00527486Y00801414D01*
X00529484Y00803412D01*
X00529484Y00846588D01*
X00526072Y00850000D01*
X00529484Y00853412D01*
X00529484Y00896588D01*
X00526072Y00900000D01*
X00529484Y00903412D01*
X00529484Y00946588D01*
X00526072Y00950000D01*
X00529484Y00953412D01*
X00529484Y00983016D01*
X00559088Y00983016D01*
X00562500Y00986428D01*
X00565912Y00983016D01*
X00609088Y00983016D01*
X00612500Y00986428D01*
X00615912Y00983016D01*
X00659088Y00983016D01*
X00662500Y00986428D01*
X00665912Y00983016D01*
X00709088Y00983016D01*
X00712500Y00986428D01*
X00715912Y00983016D01*
X00759088Y00983016D01*
X00762500Y00986428D01*
X00765912Y00983016D01*
X00809088Y00983016D01*
X00812500Y00986428D01*
X00815912Y00983016D01*
X00849075Y00983016D01*
X00815059Y00949000D01*
X00636141Y00949000D01*
X00636093Y00949117D01*
X00624117Y00961093D01*
X00608469Y00967575D01*
X00591531Y00967575D01*
X00575883Y00961093D01*
X00563907Y00949117D01*
X00557425Y00933469D01*
X00557425Y00916531D01*
X00563907Y00900883D01*
X00575883Y00888907D01*
X00591531Y00882425D01*
X00608469Y00882425D01*
X00624117Y00888907D01*
X00636093Y00900883D01*
X00636141Y00901000D01*
X00829774Y00901000D01*
X00838595Y00904654D01*
X00845346Y00911405D01*
X00862711Y00928770D01*
X00863907Y00925883D01*
X00875883Y00913907D01*
X00891531Y00907425D01*
X00908469Y00907425D01*
X00924117Y00913907D01*
X00936093Y00925883D01*
X00936141Y00926000D01*
X00988859Y00926000D01*
X00988907Y00925883D01*
X01000883Y00913907D01*
X01016531Y00907425D01*
X01033469Y00907425D01*
X01045516Y00912415D01*
X01045516Y00903412D01*
X01048928Y00900000D01*
X01045516Y00896588D01*
X01045516Y00853412D01*
X01048928Y00850000D01*
X01045516Y00846588D01*
X01045516Y00803412D01*
X01048928Y00800000D01*
X01045516Y00796588D01*
X01045516Y00753412D01*
X01048928Y00750000D01*
X01045516Y00746588D01*
X01045516Y00703412D01*
X01048928Y00700000D01*
X01045516Y00696588D01*
X01045516Y00653412D01*
X01045516Y00639941D02*
X00529484Y00639941D01*
X00529484Y00623942D02*
X01045516Y00623942D01*
X01045516Y00607944D02*
X00529484Y00607944D01*
X00529484Y00591945D02*
X01045516Y00591945D01*
X01045516Y00575947D02*
X00529484Y00575947D01*
X00529484Y00559948D02*
X01045516Y00559948D01*
X01045516Y00543950D02*
X00529484Y00543950D01*
X00529484Y00527951D02*
X00642742Y00527951D01*
X00633868Y00511953D02*
X00529484Y00511953D01*
X00529484Y00495954D02*
X00632425Y00495954D01*
X00626075Y00479956D02*
X00529484Y00479956D01*
X00562115Y00463957D02*
X00562885Y00463957D01*
X00612115Y00463957D02*
X00612885Y00463957D01*
X00650000Y00475000D02*
X00650000Y00425000D01*
X00637500Y00415551D01*
X00587500Y00415551D02*
X00575000Y00400000D01*
X00650000Y00325000D01*
X00675000Y00325000D01*
X00700000Y00300000D01*
X00775000Y00300000D01*
X00875000Y00200000D01*
X00875000Y00187500D01*
X00921000Y00191982D02*
X00929000Y00191982D01*
X00929000Y00175984D02*
X00921000Y00175984D01*
X00921000Y00159985D02*
X00929000Y00159985D01*
X00930807Y00143987D02*
X00919193Y00143987D01*
X00910542Y00127988D02*
X00939458Y00127988D01*
X00964668Y00111990D02*
X00885332Y00111990D01*
X00864668Y00111990D02*
X00785332Y00111990D01*
X00764668Y00111990D02*
X00685332Y00111990D01*
X00664668Y00111990D02*
X00585332Y00111990D01*
X00564668Y00111990D02*
X00485332Y00111990D01*
X00464668Y00111990D02*
X00385332Y00111990D01*
X00364668Y00111990D02*
X00285332Y00111990D01*
X00264668Y00111990D02*
X00048000Y00111990D01*
X00048000Y00127988D02*
X00239458Y00127988D01*
X00230807Y00143987D02*
X00048000Y00143987D01*
X00048000Y00159985D02*
X00229000Y00159985D01*
X00229000Y00175984D02*
X00048000Y00175984D01*
X00048000Y00191982D02*
X00229000Y00191982D01*
X00229000Y00207981D02*
X00048000Y00207981D01*
X00048000Y00223979D02*
X00229000Y00223979D01*
X00234521Y00239978D02*
X00048000Y00239978D01*
X00048000Y00255976D02*
X00248423Y00255976D01*
X00251000Y00271975D02*
X00048000Y00271975D01*
X00048000Y00287973D02*
X00251000Y00287973D01*
X00251000Y00303972D02*
X00048000Y00303972D01*
X00048000Y00319970D02*
X00251000Y00319970D01*
X00251000Y00335969D02*
X00048000Y00335969D01*
X00048000Y00351968D02*
X00140004Y00351968D01*
X00140004Y00346325D02*
X00149376Y00336953D01*
X00225623Y00336953D01*
X00234996Y00346325D01*
X00234996Y00461942D01*
X00225623Y00471315D01*
X00149376Y00471315D01*
X00140004Y00461942D01*
X00140004Y00346325D01*
X00140004Y00367966D02*
X00048000Y00367966D01*
X00048000Y00383965D02*
X00140004Y00383965D01*
X00140004Y00399963D02*
X00048000Y00399963D01*
X00048000Y00415962D02*
X00140004Y00415962D01*
X00140004Y00431960D02*
X00048000Y00431960D01*
X00048000Y00447959D02*
X00140004Y00447959D01*
X00142019Y00463957D02*
X00048000Y00463957D01*
X00048000Y00479956D02*
X00148106Y00479956D01*
X00140004Y00495954D02*
X00048000Y00495954D01*
X00048000Y00511953D02*
X00140004Y00511953D01*
X00140004Y00527951D02*
X00048000Y00527951D01*
X00048000Y00543950D02*
X00140004Y00543950D01*
X00140004Y00559948D02*
X00048000Y00559948D01*
X00048000Y00575947D02*
X00140004Y00575947D01*
X00140004Y00591945D02*
X00048000Y00591945D01*
X00048000Y00607944D02*
X00133115Y00607944D01*
X00126000Y00623942D02*
X00048000Y00623942D01*
X00048000Y00639941D02*
X00126000Y00639941D01*
X00126000Y00655939D02*
X00048000Y00655939D01*
X00048000Y00671938D02*
X00126000Y00671938D01*
X00126000Y00687937D02*
X00048000Y00687937D01*
X00048000Y00703935D02*
X00126000Y00703935D01*
X00119857Y00719934D02*
X00048000Y00719934D01*
X00048000Y00735932D02*
X00109744Y00735932D01*
X00107425Y00751931D02*
X00048000Y00751931D01*
X00048000Y00767929D02*
X00111344Y00767929D01*
X00123718Y00783928D02*
X00048000Y00783928D01*
X00048000Y00799926D02*
X00181508Y00799926D01*
X00181508Y00783928D02*
X00176282Y00783928D01*
X00150000Y00775000D02*
X00150000Y00750000D01*
X00150000Y00625000D01*
X00200000Y00575000D01*
X00200000Y00550000D01*
X00187500Y00545866D01*
X00234996Y00543950D02*
X00285009Y00543950D01*
X00301007Y00559948D02*
X00234996Y00559948D01*
X00234996Y00575947D02*
X00317006Y00575947D01*
X00333004Y00591945D02*
X00234996Y00591945D01*
X00230727Y00607944D02*
X00349003Y00607944D01*
X00365001Y00623942D02*
X00328563Y00623942D01*
X00330992Y00639941D02*
X00381000Y00639941D01*
X00396999Y00655939D02*
X00330992Y00655939D01*
X00330992Y00671938D02*
X00367852Y00671938D01*
X00358914Y00687937D02*
X00330992Y00687937D01*
X00350000Y00725000D02*
X00250000Y00725000D01*
X00200000Y00675000D01*
X00212598Y00662500D01*
X00282606Y00655939D02*
X00292197Y00655939D01*
X00292197Y00639941D02*
X00282606Y00639941D01*
X00282606Y00623942D02*
X00292197Y00623942D01*
X00269010Y00527951D02*
X00234996Y00527951D01*
X00234996Y00511953D02*
X00253974Y00511953D01*
X00251000Y00495954D02*
X00234996Y00495954D01*
X00226894Y00479956D02*
X00251000Y00479956D01*
X00251000Y00463957D02*
X00232981Y00463957D01*
X00234996Y00447959D02*
X00251000Y00447959D01*
X00251000Y00431960D02*
X00234996Y00431960D01*
X00234996Y00415962D02*
X00251000Y00415962D01*
X00251000Y00399963D02*
X00234996Y00399963D01*
X00234996Y00383965D02*
X00251000Y00383965D01*
X00251000Y00367966D02*
X00234996Y00367966D01*
X00234996Y00351968D02*
X00251000Y00351968D01*
X00325000Y00350000D02*
X00325000Y00450000D01*
X00450000Y00575000D01*
X00478051Y00575000D01*
X00478051Y00525000D02*
X00450000Y00525000D01*
X00375000Y00450000D01*
X00375000Y00375000D01*
X00475000Y00275000D01*
X00500000Y00275000D01*
X00575000Y00200000D01*
X00575000Y00187500D01*
X00621000Y00191982D02*
X00629000Y00191982D01*
X00629000Y00175984D02*
X00621000Y00175984D01*
X00621000Y00159985D02*
X00629000Y00159985D01*
X00630807Y00143987D02*
X00619193Y00143987D01*
X00610542Y00127988D02*
X00639458Y00127988D01*
X00675000Y00187500D02*
X00675000Y00200000D01*
X00575000Y00300000D01*
X00500000Y00300000D01*
X00400000Y00400000D01*
X00400000Y00425000D01*
X00450000Y00475000D01*
X00478051Y00475000D01*
X00537500Y00415551D02*
X00550000Y00400000D01*
X00550000Y00375000D01*
X00650000Y00275000D01*
X00700000Y00275000D01*
X00775000Y00200000D01*
X00775000Y00187500D01*
X00821000Y00191982D02*
X00829000Y00191982D01*
X00829000Y00175984D02*
X00821000Y00175984D01*
X00821000Y00159985D02*
X00829000Y00159985D01*
X00830807Y00143987D02*
X00819193Y00143987D01*
X00810542Y00127988D02*
X00839458Y00127988D01*
X00829000Y00207981D02*
X00821000Y00207981D01*
X00729000Y00207981D02*
X00721000Y00207981D01*
X00721000Y00191982D02*
X00729000Y00191982D01*
X00729000Y00175984D02*
X00721000Y00175984D01*
X00721000Y00159985D02*
X00729000Y00159985D01*
X00730807Y00143987D02*
X00719193Y00143987D01*
X00710542Y00127988D02*
X00739458Y00127988D01*
X00629000Y00207981D02*
X00621000Y00207981D01*
X00530807Y00143987D02*
X00519193Y00143987D01*
X00521000Y00159985D02*
X00529000Y00159985D01*
X00529000Y00175984D02*
X00521000Y00175984D01*
X00521000Y00191982D02*
X00529000Y00191982D01*
X00529000Y00207981D02*
X00521000Y00207981D01*
X00475000Y00200000D02*
X00475000Y00187500D01*
X00475000Y00200000D02*
X00325000Y00350000D01*
X00300000Y00275000D02*
X00300000Y00475000D01*
X00450000Y00625000D01*
X00478051Y00625000D01*
X00478051Y00675000D02*
X00450000Y00675000D01*
X00275000Y00500000D01*
X00275000Y00187500D01*
X00321000Y00191982D02*
X00329000Y00191982D01*
X00329000Y00175984D02*
X00321000Y00175984D01*
X00321000Y00159985D02*
X00329000Y00159985D01*
X00330807Y00143987D02*
X00319193Y00143987D01*
X00310542Y00127988D02*
X00339458Y00127988D01*
X00375000Y00187500D02*
X00375000Y00200000D01*
X00300000Y00275000D01*
X00321000Y00207981D02*
X00329000Y00207981D01*
X00421000Y00207981D02*
X00429000Y00207981D01*
X00429000Y00191982D02*
X00421000Y00191982D01*
X00421000Y00175984D02*
X00429000Y00175984D01*
X00429000Y00159985D02*
X00421000Y00159985D01*
X00419193Y00143987D02*
X00430807Y00143987D01*
X00439458Y00127988D02*
X00410542Y00127988D01*
X00510542Y00127988D02*
X00539458Y00127988D01*
X00825000Y00400000D02*
X00837500Y00415551D01*
X00825000Y00400000D02*
X00875000Y00350000D01*
X00900000Y00350000D01*
X00925000Y00325000D01*
X01050000Y00325000D01*
X01100000Y00375000D01*
X01125000Y00400000D01*
X01125000Y00425000D01*
X01175000Y00475000D01*
X01175000Y00525000D01*
X01150000Y00550000D01*
X01150000Y00575000D01*
X01250000Y00675000D01*
X01288000Y00671938D02*
X01337997Y00671938D01*
X01353995Y00687937D02*
X01288000Y00687937D01*
X01288000Y00703935D02*
X01369994Y00703935D01*
X01385992Y00719934D02*
X01289411Y00719934D01*
X01290000Y00735932D02*
X01401991Y00735932D01*
X01417990Y00751931D02*
X01290000Y00751931D01*
X01288000Y00767929D02*
X01433988Y00767929D01*
X01449987Y00783928D02*
X01337096Y00783928D01*
X01360136Y00799926D02*
X01465985Y00799926D01*
X01481984Y00815925D02*
X01367323Y00815925D01*
X01367575Y00831923D02*
X01497982Y00831923D01*
X01513981Y00847922D02*
X01361588Y00847922D01*
X01338860Y00879919D02*
X01562000Y00879919D01*
X01562000Y00895917D02*
X01349000Y00895917D01*
X01349000Y00911916D02*
X01566789Y00911916D01*
X01562000Y00927914D02*
X01349000Y00927914D01*
X01349000Y00943913D02*
X01562000Y00943913D01*
X01564784Y00959911D02*
X01349000Y00959911D01*
X01349000Y00975910D02*
X01562000Y00975910D01*
X01562000Y00991908D02*
X01349000Y00991908D01*
X01349000Y01007907D02*
X01562780Y01007907D01*
X01562000Y01023906D02*
X01357847Y01023906D01*
X01371795Y01039904D02*
X01451155Y01039904D01*
X01435156Y01055903D02*
X01374000Y01055903D01*
X01374000Y01071901D02*
X01419158Y01071901D01*
X01403159Y01087900D02*
X01374000Y01087900D01*
X01374000Y01103898D02*
X01387161Y01103898D01*
X01371162Y01119897D02*
X01364044Y01119897D01*
X01355164Y01135895D02*
X01348046Y01135895D01*
X01339165Y01151894D02*
X01332047Y01151894D01*
X01323167Y01167892D02*
X01316049Y01167892D01*
X01307168Y01183891D02*
X01300050Y01183891D01*
X01291170Y01199889D02*
X01284052Y01199889D01*
X01275171Y01215888D02*
X01268053Y01215888D01*
X01259172Y01231886D02*
X01252055Y01231886D01*
X01243174Y01247885D02*
X01232466Y01247885D01*
X01227175Y01263883D02*
X01159437Y01263883D01*
X01175436Y01279882D02*
X01211177Y01279882D01*
X01195178Y01295880D02*
X01183000Y01295880D01*
X01215065Y01343876D02*
X01356004Y01343876D01*
X01355000Y01359875D02*
X01199066Y01359875D01*
X01213427Y01375873D02*
X01355000Y01375873D01*
X01358884Y01391872D02*
X01229425Y01391872D01*
X01237000Y01407870D02*
X01363713Y01407870D01*
X01372950Y01423869D02*
X01237000Y01423869D01*
X01234687Y01439867D02*
X01385561Y01439867D01*
X01403714Y01455866D02*
X01218688Y01455866D01*
X01163312Y01455866D02*
X01110688Y01455866D01*
X01126687Y01439867D02*
X01147313Y01439867D01*
X01145000Y01423869D02*
X01135072Y01423869D01*
X01115186Y01375873D02*
X01105427Y01375873D01*
X01131184Y01359875D02*
X00999000Y01359875D01*
X00999000Y01343876D02*
X01001322Y01343876D01*
X00951000Y01343876D02*
X00948678Y01343876D01*
X00951000Y01359875D02*
X00595000Y01359875D01*
X00595000Y01375873D02*
X00733745Y01375873D01*
X00739118Y01370500D02*
X00757000Y01370500D01*
X00757000Y01416499D01*
X00761000Y01416499D01*
X00761000Y01370500D01*
X00778882Y01370500D01*
X00807000Y01398618D01*
X00807000Y01416500D01*
X00761001Y01416500D01*
X00761001Y01420500D01*
X00807000Y01420500D01*
X00807000Y01438382D01*
X00778882Y01466500D01*
X00761000Y01466500D01*
X00761000Y01420501D01*
X00757000Y01420501D01*
X00757000Y01466500D01*
X00739118Y01466500D01*
X00711000Y01438382D01*
X00711000Y01420500D01*
X00756999Y01420500D01*
X00756999Y01416500D01*
X00711000Y01416500D01*
X00711000Y01398618D01*
X00739118Y01370500D01*
X00757000Y01375873D02*
X00761000Y01375873D01*
X00761000Y01391872D02*
X00757000Y01391872D01*
X00750000Y01400000D02*
X00759000Y01418500D01*
X00757000Y01423869D02*
X00761000Y01423869D01*
X00761000Y01439867D02*
X00757000Y01439867D01*
X00757000Y01455866D02*
X00761000Y01455866D01*
X00728484Y01455866D02*
X00546286Y01455866D01*
X00564439Y01439867D02*
X00712485Y01439867D01*
X00711000Y01423869D02*
X00577050Y01423869D01*
X00586287Y01407870D02*
X00711000Y01407870D01*
X00717746Y01391872D02*
X00591116Y01391872D01*
X00593996Y01343876D02*
X00785322Y01343876D01*
X00793946Y01352500D02*
X00767000Y01325554D01*
X00767000Y01287446D01*
X00793946Y01260500D01*
X00832054Y01260500D01*
X00859000Y01287446D01*
X00859000Y01325554D01*
X00832054Y01352500D01*
X00793946Y01352500D01*
X00784255Y01375873D02*
X00844573Y01375873D01*
X00847946Y01372500D02*
X00886054Y01372500D01*
X00913000Y01399446D01*
X00913000Y01437554D01*
X00886054Y01464500D01*
X00847946Y01464500D01*
X00821000Y01437554D01*
X00821000Y01399446D01*
X00847946Y01372500D01*
X00828575Y01391872D02*
X00800254Y01391872D01*
X00807000Y01407870D02*
X00821000Y01407870D01*
X00821000Y01423869D02*
X00807000Y01423869D01*
X00805515Y01439867D02*
X00823313Y01439867D01*
X00839312Y01455866D02*
X00789516Y01455866D01*
X00761000Y01407870D02*
X00757000Y01407870D01*
X00750000Y01400000D02*
X00450000Y01100000D01*
X00506539Y01071901D02*
X00048000Y01071901D01*
X00048000Y01055903D02*
X00506539Y01055903D01*
X00506539Y01039904D02*
X00048000Y01039904D01*
X00048000Y01023906D02*
X00506539Y01023906D01*
X00506539Y01007907D02*
X00048000Y01007907D01*
X00048000Y00991908D02*
X00426618Y00991908D01*
X00426618Y00975910D02*
X00048000Y00975910D01*
X00048000Y00959911D02*
X00349702Y00959911D01*
X00375000Y00925000D02*
X00300000Y00925000D01*
X00250000Y00875000D01*
X00300000Y00825000D01*
X00300000Y00775000D01*
X00299902Y00775000D01*
X00259136Y00831923D02*
X00048000Y00831923D01*
X00048000Y00815925D02*
X00185449Y00815925D01*
X00180181Y00847922D02*
X00048000Y00847922D01*
X00048000Y00863920D02*
X00171629Y00863920D01*
X00170500Y00879919D02*
X00048000Y00879919D01*
X00048000Y00895917D02*
X00175704Y00895917D01*
X00191872Y00911916D02*
X00048000Y00911916D01*
X00048000Y00927914D02*
X00268973Y00927914D01*
X00252975Y00911916D02*
X00233128Y00911916D01*
X00250000Y00875000D02*
X00212500Y00875000D01*
X00220303Y00815925D02*
X00229894Y00815925D01*
X00229894Y00799926D02*
X00220303Y00799926D01*
X00220303Y00783928D02*
X00229894Y00783928D01*
X00312500Y00875000D02*
X00375000Y00875000D01*
X00375000Y00750000D01*
X00350000Y00725000D01*
X00400000Y00700000D02*
X00400000Y00775000D01*
X00450000Y00825000D01*
X00478051Y00825000D01*
X00478051Y00775000D02*
X00575000Y00775000D01*
X00625000Y00725000D01*
X00625000Y00775000D01*
X00531484Y00767929D02*
X01045516Y00767929D01*
X01045516Y00783928D02*
X00531484Y00783928D01*
X00528515Y00799926D02*
X01048854Y00799926D01*
X01045516Y00815925D02*
X00529484Y00815925D01*
X00529484Y00831923D02*
X01045516Y00831923D01*
X01046850Y00847922D02*
X00528150Y00847922D01*
X00529484Y00863920D02*
X01045516Y00863920D01*
X01045516Y00879919D02*
X00529484Y00879919D01*
X00529484Y00895917D02*
X00568873Y00895917D01*
X00559337Y00911916D02*
X00529484Y00911916D01*
X00529484Y00927914D02*
X00557425Y00927914D01*
X00561751Y00943913D02*
X00529484Y00943913D01*
X00529484Y00959911D02*
X00574702Y00959911D01*
X00600000Y00925000D02*
X00825000Y00925000D01*
X00875000Y00975000D01*
X00900000Y00950000D01*
X01025000Y00950000D01*
X01044310Y00911916D02*
X01045516Y00911916D01*
X01045516Y00895917D02*
X00631127Y00895917D01*
X00625298Y00959911D02*
X00825970Y00959911D01*
X00841969Y00975910D02*
X00529484Y00975910D01*
X00426618Y00959911D02*
X00400298Y00959911D01*
X00413249Y00943913D02*
X00426618Y00943913D01*
X00426618Y00927914D02*
X00417575Y00927914D01*
X00415663Y00911916D02*
X00426618Y00911916D01*
X00478051Y00875000D02*
X00375000Y00875000D01*
X00284972Y00943913D02*
X00048000Y00943913D01*
X00048000Y01087900D02*
X00726000Y01087900D01*
X00726000Y01103898D02*
X00048000Y01103898D01*
X00048000Y01119897D02*
X00735956Y01119897D01*
X00751954Y01135895D02*
X00048000Y01135895D01*
X00048000Y01151894D02*
X00842953Y01151894D01*
X00858951Y01167892D02*
X00048000Y01167892D01*
X00048000Y01183891D02*
X00935590Y01183891D01*
X00932425Y01199889D02*
X00048000Y01199889D01*
X00048000Y01215888D02*
X00935498Y01215888D01*
X00946677Y01231886D02*
X00048000Y01231886D01*
X00048000Y01247885D02*
X00951000Y01247885D01*
X00951000Y01263883D02*
X00943437Y01263883D01*
X00898563Y01263883D02*
X00835437Y01263883D01*
X00851436Y01279882D02*
X00882564Y01279882D01*
X00875000Y01295880D02*
X00859000Y01295880D01*
X00859000Y01311879D02*
X00875000Y01311879D01*
X00877324Y01327877D02*
X00856676Y01327877D01*
X00840678Y01343876D02*
X00893322Y01343876D01*
X00889427Y01375873D02*
X00951000Y01375873D01*
X00936575Y01391872D02*
X00905425Y01391872D01*
X00913000Y01407870D02*
X00929000Y01407870D01*
X00929000Y01423869D02*
X00913000Y01423869D01*
X00910687Y01439867D02*
X00931313Y01439867D01*
X00947312Y01455866D02*
X00894688Y01455866D01*
X00975000Y01418500D02*
X00975000Y01200000D01*
X01050000Y01150000D02*
X01075000Y01175000D01*
X01050000Y01150000D02*
X00875000Y01150000D01*
X00850000Y01125000D01*
X00775000Y01125000D01*
X00750000Y01100000D01*
X00750000Y01050000D01*
X00737500Y01034449D01*
X00825000Y01050000D02*
X00837500Y01034449D01*
X00825000Y01050000D02*
X00900000Y01125000D01*
X01125000Y01125000D01*
X01200000Y01075000D02*
X01200000Y01050000D01*
X01225000Y01025000D01*
X01232000Y01037500D01*
X01200000Y01075000D02*
X01225000Y01100000D01*
X01300000Y01075000D02*
X01300000Y01025000D01*
X01250000Y00975000D01*
X01232000Y00987500D01*
X01232000Y00937500D02*
X01225000Y00925000D01*
X01096949Y00925000D01*
X01096949Y00875000D02*
X01125000Y00875000D01*
X01150000Y00900000D01*
X01225000Y00900000D01*
X01232000Y00887500D01*
X01181373Y00862500D02*
X01176000Y00857127D01*
X01176000Y00817873D01*
X01181373Y00812500D01*
X01176000Y00807127D01*
X01176000Y00767873D01*
X01179958Y00763914D01*
X01177596Y00761552D01*
X01175227Y00757448D01*
X01174000Y00752870D01*
X01174000Y00737500D01*
X01231999Y00737500D01*
X01231999Y00737499D01*
X01174000Y00737499D01*
X01174000Y00722130D01*
X01175227Y00717552D01*
X01177596Y00713448D01*
X01179958Y00711086D01*
X01176000Y00707127D01*
X01176000Y00699000D01*
X01145970Y00699000D01*
X01144970Y00700000D01*
X01148382Y00703412D01*
X01148382Y00746588D01*
X01144970Y00750000D01*
X01148382Y00753412D01*
X01148382Y00796588D01*
X01144970Y00800000D01*
X01148382Y00803412D01*
X01148382Y00846588D01*
X01144970Y00850000D01*
X01148382Y00853412D01*
X01148382Y00864441D01*
X01159941Y00876000D01*
X01176000Y00876000D01*
X01176000Y00867873D01*
X01181373Y00862500D01*
X01179952Y00863920D02*
X01148382Y00863920D01*
X01147048Y00847922D02*
X01176000Y00847922D01*
X01176000Y00831923D02*
X01148382Y00831923D01*
X01148382Y00815925D02*
X01177948Y00815925D01*
X01176000Y00799926D02*
X01145044Y00799926D01*
X01148382Y00783928D02*
X01176000Y00783928D01*
X01176000Y00767929D02*
X01148382Y00767929D01*
X01146900Y00751931D02*
X01174000Y00751931D01*
X01174000Y00735932D02*
X01148382Y00735932D01*
X01148382Y00719934D02*
X01174588Y00719934D01*
X01176000Y00703935D02*
X01148382Y00703935D01*
X01232000Y00737500D02*
X01250000Y00750000D01*
X01375000Y00750000D01*
X01525000Y00900000D01*
X01550000Y00850000D02*
X01600000Y00850000D01*
X01618000Y00837500D01*
X01600000Y00800000D02*
X01575000Y00800000D01*
X01525000Y00750000D01*
X01500000Y00700000D02*
X01600000Y00700000D01*
X01618000Y00687500D01*
X01629311Y00658500D02*
X01628699Y00657440D01*
X01627472Y00652862D01*
X01627472Y00629697D01*
X01670204Y00629697D01*
X01670204Y00620106D01*
X01627472Y00620106D01*
X01627472Y00596941D01*
X01628699Y00592363D01*
X01631069Y00588259D01*
X01633242Y00586086D01*
X01629472Y00582316D01*
X01629472Y00563414D01*
X01498059Y00432000D01*
X01451350Y00432000D01*
X01442575Y00428365D01*
X01442575Y00433469D01*
X01436093Y00449117D01*
X01424117Y00461093D01*
X01408469Y00467575D01*
X01391531Y00467575D01*
X01375883Y00461093D01*
X01363907Y00449117D01*
X01357425Y00433469D01*
X01357425Y00416531D01*
X01357474Y00416415D01*
X01305261Y00364202D01*
X01310500Y00376850D01*
X01310500Y00395150D01*
X01303497Y00412057D01*
X01290557Y00424997D01*
X01273650Y00432000D01*
X01215941Y00432000D01*
X01234941Y00451000D01*
X01279774Y00451000D01*
X01288595Y00454654D01*
X01419739Y00585798D01*
X01414500Y00573150D01*
X01414500Y00554850D01*
X01421503Y00537943D01*
X01434443Y00525003D01*
X01451350Y00518000D01*
X01529650Y00518000D01*
X01546557Y00525003D01*
X01559497Y00537943D01*
X01566500Y00554850D01*
X01566500Y00573150D01*
X01559497Y00590057D01*
X01546557Y00602997D01*
X01534667Y00607922D01*
X01549117Y00613907D01*
X01561093Y00625883D01*
X01567575Y00641531D01*
X01567575Y00658469D01*
X01564867Y00665006D01*
X01571373Y00658500D01*
X01629311Y00658500D01*
X01628297Y00655939D02*
X01567575Y00655939D01*
X01566916Y00639941D02*
X01627472Y00639941D01*
X01627472Y00607944D02*
X01534721Y00607944D01*
X01557608Y00591945D02*
X01628940Y00591945D01*
X01629472Y00575947D02*
X01565341Y00575947D01*
X01566500Y00559948D02*
X01626007Y00559948D01*
X01610009Y00543950D02*
X01561985Y00543950D01*
X01549505Y00527951D02*
X01594010Y00527951D01*
X01578012Y00511953D02*
X01345894Y00511953D01*
X01361892Y00527951D02*
X01431495Y00527951D01*
X01419015Y00543950D02*
X01377891Y00543950D01*
X01393889Y00559948D02*
X01414500Y00559948D01*
X01415659Y00575947D02*
X01409888Y00575947D01*
X01490500Y00564000D02*
X01500000Y00575000D01*
X01500000Y00625000D01*
X01525000Y00650000D01*
X01559152Y00623942D02*
X01670204Y00623942D01*
X01670204Y00629698D02*
X01670204Y00664077D01*
X01674000Y00667873D01*
X01674000Y00707127D01*
X01668627Y00712500D01*
X01672959Y00716831D01*
X01675883Y00713907D01*
X01691531Y00707425D01*
X01708469Y00707425D01*
X01724117Y00713907D01*
X01726000Y00715790D01*
X01726000Y00484941D01*
X01720527Y00479468D01*
X01720527Y00482119D01*
X01711155Y00491492D01*
X01638845Y00491492D01*
X01629472Y00482119D01*
X01629472Y00455737D01*
X01624117Y00461093D01*
X01608469Y00467575D01*
X01601516Y00467575D01*
X01642449Y00508508D01*
X01711155Y00508508D01*
X01720527Y00517880D01*
X01720527Y00582316D01*
X01716758Y00586086D01*
X01718931Y00588259D01*
X01721301Y00592363D01*
X01722527Y00596941D01*
X01722527Y00620106D01*
X01679796Y00620106D01*
X01679796Y00629697D01*
X01722527Y00629697D01*
X01722527Y00652862D01*
X01721301Y00657440D01*
X01718931Y00661544D01*
X01715580Y00664896D01*
X01711475Y00667265D01*
X01706897Y00668492D01*
X01679795Y00668492D01*
X01679795Y00629698D01*
X01670204Y00629698D01*
X01670204Y00639941D02*
X01679795Y00639941D01*
X01679795Y00655939D02*
X01670204Y00655939D01*
X01674000Y00671938D02*
X01726000Y00671938D01*
X01726000Y00655939D02*
X01721703Y00655939D01*
X01722527Y00639941D02*
X01726000Y00639941D01*
X01726000Y00623942D02*
X01679796Y00623942D01*
X01722527Y00607944D02*
X01726000Y00607944D01*
X01726000Y00591945D02*
X01721060Y00591945D01*
X01720527Y00575947D02*
X01726000Y00575947D01*
X01726000Y00559948D02*
X01720527Y00559948D01*
X01720527Y00543950D02*
X01726000Y00543950D01*
X01726000Y00527951D02*
X01720527Y00527951D01*
X01726000Y00511953D02*
X01714600Y00511953D01*
X01726000Y00495954D02*
X01629895Y00495954D01*
X01629472Y00479956D02*
X01613897Y00479956D01*
X01617202Y00463957D02*
X01629472Y00463957D01*
X01675000Y00450000D02*
X01675000Y00449902D01*
X01675000Y00450000D02*
X01725000Y00450000D01*
X01750000Y00475000D01*
X01750000Y00850000D01*
X01650000Y00950000D01*
X01625000Y00950000D01*
X01618000Y00937500D01*
X01625000Y00900000D02*
X01618000Y00887500D01*
X01625000Y00900000D02*
X01650000Y00900000D01*
X01700000Y00850000D01*
X01700000Y00825000D01*
X01754022Y00879919D02*
X01826508Y00879919D01*
X01826508Y00895917D02*
X01738024Y00895917D01*
X01722025Y00911916D02*
X01826508Y00911916D01*
X01826508Y00927914D02*
X01706027Y00927914D01*
X01690028Y00943913D02*
X01826508Y00943913D01*
X01826508Y00959911D02*
X01674030Y00959911D01*
X01674000Y00975910D02*
X01826508Y00975910D01*
X01826508Y00991908D02*
X01674000Y00991908D01*
X01673220Y01007907D02*
X01826508Y01007907D01*
X01826508Y01023906D02*
X01674000Y01023906D01*
X01674000Y01039904D02*
X01826508Y01039904D01*
X01826508Y01055903D02*
X01674000Y01055903D01*
X01770021Y00863920D02*
X01826508Y00863920D01*
X01826508Y00847922D02*
X01774000Y00847922D01*
X01774000Y00831923D02*
X01826508Y00831923D01*
X01826508Y00815925D02*
X01774000Y00815925D01*
X01774000Y00799926D02*
X01826508Y00799926D01*
X01826508Y00783928D02*
X01774000Y00783928D01*
X01774000Y00767929D02*
X01826508Y00767929D01*
X01826508Y00751931D02*
X01774000Y00751931D01*
X01774000Y00735932D02*
X01826508Y00735932D01*
X01826508Y00719934D02*
X01774000Y00719934D01*
X01774000Y00703935D02*
X01826508Y00703935D01*
X01826508Y00687937D02*
X01819666Y00687937D01*
X01780334Y00687937D02*
X01774000Y00687937D01*
X01800000Y00650000D02*
X01775000Y00625000D01*
X01775000Y00250000D01*
X01725000Y00200000D01*
X01675000Y00200000D01*
X01675000Y00200098D01*
X01629472Y00207981D02*
X01621651Y00207981D01*
X01625547Y00223979D02*
X01629472Y00223979D01*
X01630076Y00239978D02*
X01625547Y00239978D01*
X01625547Y00255976D02*
X01627472Y00255976D01*
X01625547Y00271975D02*
X01670204Y00271975D01*
X01679796Y00271975D02*
X01751000Y00271975D01*
X01751000Y00287973D02*
X01722527Y00287973D01*
X01722230Y00303972D02*
X01751000Y00303972D01*
X01751000Y00319970D02*
X01624000Y00319970D01*
X01624000Y00303972D02*
X01627770Y00303972D01*
X01627472Y00287973D02*
X01625547Y00287973D01*
X01600000Y00250000D02*
X01558366Y00250000D01*
X01600000Y00250000D02*
X01600000Y00425000D01*
X01624000Y00383965D02*
X01627472Y00383965D01*
X01627472Y00367966D02*
X01624000Y00367966D01*
X01624000Y00351968D02*
X01627472Y00351968D01*
X01624000Y00335969D02*
X01633555Y00335969D01*
X01670204Y00335969D02*
X01679795Y00335969D01*
X01679795Y00351968D02*
X01670204Y00351968D01*
X01670204Y00367966D02*
X01679795Y00367966D01*
X01722527Y00367966D02*
X01751000Y00367966D01*
X01751000Y00351968D02*
X01722527Y00351968D01*
X01716445Y00335969D02*
X01751000Y00335969D01*
X01751000Y00383965D02*
X01722527Y00383965D01*
X01722527Y00399963D02*
X01751000Y00399963D01*
X01751000Y00415962D02*
X01718805Y00415962D01*
X01740901Y00431960D02*
X01751000Y00431960D01*
X01721015Y00479956D02*
X01720527Y00479956D01*
X01799000Y00479956D02*
X01826508Y00479956D01*
X01826508Y00495954D02*
X01799000Y00495954D01*
X01799000Y00511953D02*
X01826508Y00511953D01*
X01826508Y00527951D02*
X01799000Y00527951D01*
X01799000Y00543950D02*
X01826508Y00543950D01*
X01826508Y00559948D02*
X01799000Y00559948D01*
X01799000Y00575947D02*
X01826508Y00575947D01*
X01826508Y00591945D02*
X01799000Y00591945D01*
X01809721Y00607944D02*
X01826508Y00607944D01*
X01726000Y00687937D02*
X01674000Y00687937D01*
X01674000Y00703935D02*
X01726000Y00703935D01*
X01700000Y00750000D02*
X01625000Y00750000D01*
X01618000Y00737500D01*
X01618000Y00787500D02*
X01600000Y00800000D01*
X01500000Y00700000D02*
X01275000Y00475000D01*
X01225000Y00475000D01*
X01150000Y00400000D01*
X01150000Y00250000D01*
X01141634Y00250000D01*
X01126000Y00303972D02*
X01061949Y00303972D01*
X01074453Y00287973D02*
X00920968Y00287973D01*
X00936966Y00271975D02*
X01074453Y00271975D01*
X01074453Y00255976D02*
X01001577Y00255976D01*
X01015479Y00239978D02*
X01074453Y00239978D01*
X01074453Y00223979D02*
X01021000Y00223979D01*
X01021000Y00207981D02*
X01078348Y00207981D01*
X01021000Y00191982D02*
X01629472Y00191982D01*
X01629472Y00175984D02*
X01021000Y00175984D01*
X01021000Y00159985D02*
X01637368Y00159985D01*
X01712632Y00159985D02*
X01826508Y00159985D01*
X01826508Y00143987D02*
X01019193Y00143987D01*
X01010542Y00127988D02*
X01826508Y00127988D01*
X01826508Y00111990D02*
X00985332Y00111990D01*
X00975000Y00187500D02*
X00975000Y00200000D01*
X00875000Y00300000D01*
X00921000Y00207981D02*
X00929000Y00207981D01*
X01078912Y00319970D02*
X01126000Y00319970D01*
X01126000Y00335969D02*
X01117024Y00335969D01*
X01174000Y00335969D02*
X01278566Y00335969D01*
X01276000Y00319970D02*
X01174000Y00319970D01*
X01174000Y00303972D02*
X01276000Y00303972D01*
X01300000Y00325000D02*
X01400000Y00425000D01*
X01382798Y00463957D02*
X01297898Y00463957D01*
X01313897Y00479956D02*
X01546015Y00479956D01*
X01562013Y00495954D02*
X01329895Y00495954D01*
X01363427Y00447959D02*
X01231900Y00447959D01*
X01273746Y00431960D02*
X01357425Y00431960D01*
X01357021Y00415962D02*
X01299592Y00415962D01*
X01308506Y00399963D02*
X01341022Y00399963D01*
X01325023Y00383965D02*
X01310500Y00383965D01*
X01309025Y00367966D02*
X01306820Y00367966D01*
X01300000Y00325000D02*
X01300000Y00250000D01*
X01283366Y00250000D01*
X01216185Y00255976D02*
X01208815Y00255976D01*
X01208815Y00239978D02*
X01216185Y00239978D01*
X01216185Y00223979D02*
X01208815Y00223979D01*
X01204919Y00207981D02*
X01220081Y00207981D01*
X01216185Y00271975D02*
X01208815Y00271975D01*
X01208815Y00287973D02*
X01216185Y00287973D01*
X01346651Y00207981D02*
X01353348Y00207981D01*
X01400000Y00250000D02*
X01416634Y00250000D01*
X01400000Y00250000D02*
X01400000Y00325000D01*
X01442575Y00319970D02*
X01507425Y00319970D01*
X01505090Y00335969D02*
X01441539Y00335969D01*
X01437372Y00303972D02*
X01512627Y00303972D01*
X01491185Y00287973D02*
X01483815Y00287973D01*
X01483815Y00271975D02*
X01491185Y00271975D01*
X01491185Y00255976D02*
X01483815Y00255976D01*
X01483815Y00239978D02*
X01491185Y00239978D01*
X01491185Y00223979D02*
X01483815Y00223979D01*
X01479919Y00207981D02*
X01495081Y00207981D01*
X01550000Y00325000D02*
X01500000Y00375000D01*
X01490500Y00386000D01*
X01500000Y00400000D01*
X01650000Y00550000D01*
X01675000Y00550000D01*
X01675000Y00550098D01*
X01799000Y00463957D02*
X01826508Y00463957D01*
X01826508Y00447959D02*
X01799000Y00447959D01*
X01799000Y00431960D02*
X01826508Y00431960D01*
X01826508Y00415962D02*
X01799000Y00415962D01*
X01799000Y00399963D02*
X01826508Y00399963D01*
X01826508Y00383965D02*
X01799000Y00383965D01*
X01799000Y00367966D02*
X01826508Y00367966D01*
X01826508Y00351968D02*
X01799000Y00351968D01*
X01799000Y00335969D02*
X01826508Y00335969D01*
X01826508Y00319970D02*
X01799000Y00319970D01*
X01799000Y00303972D02*
X01826508Y00303972D01*
X01826508Y00287973D02*
X01799000Y00287973D01*
X01799000Y00271975D02*
X01826508Y00271975D01*
X01826508Y00255976D02*
X01799000Y00255976D01*
X01796826Y00239978D02*
X01826508Y00239978D01*
X01826508Y00223979D02*
X01782920Y00223979D01*
X01766922Y00207981D02*
X01826508Y00207981D01*
X01826508Y00191982D02*
X01750923Y00191982D01*
X01720527Y00175984D02*
X01826508Y00175984D01*
X01826508Y00095991D02*
X00048000Y00095991D01*
X00048000Y00079993D02*
X01826508Y00079993D01*
X01826508Y00063994D02*
X00048000Y00063994D01*
X00048000Y00047996D02*
X01826508Y00047996D01*
X01731037Y00239978D02*
X01719924Y00239978D01*
X01722527Y00255976D02*
X01747035Y00255976D01*
X01679795Y00287973D02*
X01670204Y00287973D01*
X01670204Y00303972D02*
X01679795Y00303972D01*
X01530016Y00463957D02*
X01417202Y00463957D01*
X01436573Y00447959D02*
X01514018Y00447959D01*
X01451254Y00431960D02*
X01442575Y00431960D01*
X01045516Y00479956D02*
X00712780Y00479956D01*
X00712885Y00463957D02*
X00712115Y00463957D01*
X00717575Y00495954D02*
X01045516Y00495954D01*
X01045516Y00511953D02*
X00716132Y00511953D01*
X00707258Y00527951D02*
X01045516Y00527951D01*
X01012885Y00463957D02*
X01012115Y00463957D01*
X00962885Y00463957D02*
X00962115Y00463957D01*
X00912885Y00463957D02*
X00912115Y00463957D01*
X00862885Y00463957D02*
X00862115Y00463957D01*
X00812885Y00463957D02*
X00812115Y00463957D01*
X00762885Y00463957D02*
X00762115Y00463957D01*
X00675000Y00500000D02*
X00650000Y00475000D01*
X00529484Y00687937D02*
X01045516Y00687937D01*
X01045516Y00703935D02*
X00529484Y00703935D01*
X00529484Y00719934D02*
X01045516Y00719934D01*
X01045516Y00735932D02*
X00529484Y00735932D01*
X00529587Y00751931D02*
X01046997Y00751931D01*
X01005690Y00911916D02*
X00919310Y00911916D01*
X00880690Y00911916D02*
X00845857Y00911916D01*
X00861855Y00927914D02*
X00863066Y00927914D01*
X00875000Y00975000D02*
X00900000Y01000000D01*
X00900000Y01025000D01*
X00887500Y01034449D01*
X00790563Y01263883D02*
X00537191Y01263883D01*
X00559188Y01279882D02*
X00774564Y01279882D01*
X00767000Y01295880D02*
X00574018Y01295880D01*
X00583255Y01311879D02*
X00767000Y01311879D01*
X00769324Y01327877D02*
X00589709Y01327877D01*
X00426809Y01263883D02*
X00048000Y01263883D01*
X00048000Y01279882D02*
X00404812Y01279882D01*
X00389982Y01295880D02*
X00048000Y01295880D01*
X00048000Y01311879D02*
X00380745Y01311879D01*
X00374291Y01327877D02*
X00048000Y01327877D01*
X00048000Y01343876D02*
X00370004Y01343876D01*
X00369000Y01359875D02*
X00048000Y01359875D01*
X00048000Y01375873D02*
X00369000Y01375873D01*
X00372884Y01391872D02*
X00048000Y01391872D01*
X00048000Y01407870D02*
X00377713Y01407870D01*
X00386950Y01423869D02*
X00048000Y01423869D01*
X00048000Y01439867D02*
X00399561Y01439867D01*
X00048000Y01487863D02*
X01826508Y01487863D01*
X01826508Y01503861D02*
X00048000Y01503861D01*
X00048000Y01519860D02*
X01826508Y01519860D01*
X01826508Y01535858D02*
X00048000Y01535858D01*
X00048000Y01551857D02*
X01826508Y01551857D01*
X01826508Y01567855D02*
X00048000Y01567855D01*
X00048000Y01583854D02*
X01826508Y01583854D01*
X01390812Y01279882D02*
X01279059Y01279882D01*
X01263061Y01295880D02*
X01375982Y01295880D01*
X01366745Y01311879D02*
X01247062Y01311879D01*
X01231063Y01327877D02*
X01360291Y01327877D01*
X01055312Y01455866D02*
X01002688Y01455866D01*
X01018687Y01439867D02*
X01039313Y01439867D01*
D21*
X00975000Y01200000D03*
X01075000Y01175000D03*
X01125000Y01125000D03*
X01225000Y01100000D03*
X01300000Y01075000D03*
X01525000Y00900000D03*
X01525000Y00750000D03*
X01525000Y00650000D03*
X01700000Y00750000D03*
X01700000Y00825000D03*
X01700000Y00975000D03*
X01800000Y00650000D03*
X01600000Y00425000D03*
X01550000Y00325000D03*
X01400000Y00325000D03*
X01400000Y00425000D03*
X01325000Y00600000D03*
X01100000Y00375000D03*
X00875000Y00300000D03*
X00675000Y00500000D03*
X00400000Y00700000D03*
X00625000Y00775000D03*
X00600000Y00925000D03*
X00450000Y01100000D03*
X00375000Y00925000D03*
X00150000Y00750000D03*
X00900000Y00950000D03*
X01025000Y00950000D03*
X01325000Y00825000D03*
M02*
