G75*
%MOIN*%
%OFA0B0*%
%FSLAX26Y26*%
%IPPOS*%
%LPD*%
%AMOC8*
5,1,8,0,0,1.08239X$1,22.5*
%
%ADD10R,0.102362X0.062992*%
%ADD11R,0.062992X0.102362*%
%ADD12R,0.029921X0.070866*%
%ADD13R,0.070866X0.029921*%
%ADD14R,0.026000X0.080000*%
%ADD15C,0.060000*%
%ADD16C,0.052000*%
%ADD17OC8,0.060000*%
%ADD18C,0.016000*%
%ADD19C,0.053150*%
D10*
X01229134Y02350000D03*
X01370866Y02350000D03*
X01479134Y02350000D03*
X01620866Y02350000D03*
D11*
X00750000Y00770866D03*
X00750000Y00629134D03*
D12*
X00900000Y00940551D03*
X00950000Y00940551D03*
X01000000Y00940551D03*
X01050000Y00940551D03*
X01100000Y00940551D03*
X01150000Y00940551D03*
X01200000Y00940551D03*
X01250000Y00940551D03*
X01300000Y00940551D03*
X01350000Y00940551D03*
X01400000Y00940551D03*
X01400000Y01559449D03*
X01350000Y01559449D03*
X01300000Y01559449D03*
X01250000Y01559449D03*
X01200000Y01559449D03*
X01150000Y01559449D03*
X01100000Y01559449D03*
X01050000Y01559449D03*
X01000000Y01559449D03*
X00950000Y01559449D03*
X00900000Y01559449D03*
D13*
X00840551Y01500000D03*
X00840551Y01450000D03*
X00840551Y01400000D03*
X00840551Y01350000D03*
X00840551Y01300000D03*
X00840551Y01250000D03*
X00840551Y01200000D03*
X00840551Y01150000D03*
X00840551Y01100000D03*
X00840551Y01050000D03*
X00840551Y01000000D03*
X01459449Y01000000D03*
X01459449Y01050000D03*
X01459449Y01100000D03*
X01459449Y01150000D03*
X01459449Y01200000D03*
X01459449Y01250000D03*
X01459449Y01300000D03*
X01459449Y01350000D03*
X01459449Y01400000D03*
X01459449Y01450000D03*
X01459449Y01500000D03*
D14*
X01475000Y01757000D03*
X01425000Y01757000D03*
X01375000Y01757000D03*
X01325000Y01757000D03*
X01275000Y01757000D03*
X01225000Y01757000D03*
X01175000Y01757000D03*
X01525000Y01757000D03*
X01525000Y02143000D03*
X01475000Y02143000D03*
X01425000Y02143000D03*
X01375000Y02143000D03*
X01325000Y02143000D03*
X01275000Y02143000D03*
X01225000Y02143000D03*
X01175000Y02143000D03*
D15*
X00280000Y01300000D02*
X00220000Y01300000D01*
X00220000Y01200000D02*
X00280000Y01200000D01*
X00280000Y01100000D02*
X00220000Y01100000D01*
X00220000Y01000000D02*
X00280000Y01000000D01*
X00280000Y00900000D02*
X00220000Y00900000D01*
X00220000Y00800000D02*
X00280000Y00800000D01*
X00280000Y00700000D02*
X00220000Y00700000D01*
X00220000Y00600000D02*
X00280000Y00600000D01*
X01142000Y00611000D02*
X01202000Y00611000D01*
X01202000Y00789000D02*
X01142000Y00789000D01*
X01398000Y00789000D02*
X01458000Y00789000D01*
X01458000Y00611000D02*
X01398000Y00611000D01*
D16*
X00750000Y01750000D03*
X00650000Y01750000D03*
D17*
X01944000Y01716000D03*
X01944000Y01608000D03*
X01944000Y01500000D03*
X01944000Y01392000D03*
X01944000Y01284000D03*
X02056000Y01338000D03*
X02056000Y01446000D03*
X02056000Y01554000D03*
X02056000Y01662000D03*
D18*
X02276508Y00300000D02*
X00137500Y00300000D01*
X00137500Y02450000D01*
X02276508Y02450000D01*
X02276508Y00300000D01*
X02276508Y00303972D02*
X00137500Y00303972D01*
X00137500Y00319970D02*
X02276508Y00319970D01*
X02276508Y00335969D02*
X00137500Y00335969D01*
X00137500Y00351968D02*
X02276508Y00351968D01*
X02276508Y00367966D02*
X00137500Y00367966D01*
X00137500Y00383965D02*
X02276508Y00383965D01*
X02276508Y00399963D02*
X00137500Y00399963D01*
X00137500Y00415962D02*
X02276508Y00415962D01*
X02276508Y00431960D02*
X00137500Y00431960D01*
X00137500Y00447959D02*
X02276508Y00447959D01*
X02276508Y00463957D02*
X00137500Y00463957D01*
X00137500Y00479956D02*
X02276508Y00479956D01*
X02276508Y00495954D02*
X00137500Y00495954D01*
X00137500Y00511953D02*
X02276508Y00511953D01*
X02276508Y00527951D02*
X00137500Y00527951D01*
X00137500Y00543950D02*
X02276508Y00543950D01*
X02276508Y00559948D02*
X00303510Y00559948D01*
X00306057Y00561003D02*
X00318997Y00573943D01*
X00326000Y00590850D01*
X00326000Y00609150D01*
X00318997Y00626057D01*
X00306057Y00638997D01*
X00289150Y00646000D01*
X00210850Y00646000D01*
X00193943Y00638997D01*
X00181003Y00626057D01*
X00174000Y00609150D01*
X00174000Y00590850D01*
X00181003Y00573943D01*
X00193943Y00561003D01*
X00210850Y00554000D01*
X00289150Y00554000D01*
X00306057Y00561003D01*
X00319827Y00575947D02*
X00702504Y00575947D01*
X00702504Y00571325D02*
X00711876Y00561953D01*
X00788123Y00561953D01*
X00797496Y00571325D01*
X00797496Y00588500D01*
X01101530Y00588500D01*
X01103003Y00584943D01*
X01115943Y00572003D01*
X01132850Y00565000D01*
X01211150Y00565000D01*
X01228057Y00572003D01*
X01240997Y00584943D01*
X01248000Y00601850D01*
X01248000Y00620150D01*
X01240997Y00637057D01*
X01228057Y00649997D01*
X01211150Y00657000D01*
X01132850Y00657000D01*
X01115943Y00649997D01*
X01103003Y00637057D01*
X01102772Y00636500D01*
X00797496Y00636500D01*
X00797496Y00686942D01*
X00788123Y00696315D01*
X00750126Y00696315D01*
X00742756Y00703685D01*
X00788123Y00703685D01*
X00797496Y00713058D01*
X00797496Y00763500D01*
X00801866Y00763500D01*
X00816531Y00757425D01*
X00833469Y00757425D01*
X00848134Y00763500D01*
X01102772Y00763500D01*
X01103003Y00762943D01*
X01115943Y00750003D01*
X01132850Y00743000D01*
X01211150Y00743000D01*
X01228057Y00750003D01*
X01240997Y00762943D01*
X01248000Y00779850D01*
X01248000Y00798150D01*
X01240997Y00815057D01*
X01228057Y00827997D01*
X01216659Y00832718D01*
X01220346Y00836405D01*
X01224000Y00845226D01*
X01224000Y00891530D01*
X01225000Y00892530D01*
X01228412Y00889118D01*
X01271588Y00889118D01*
X01275000Y00892530D01*
X01278412Y00889118D01*
X01321588Y00889118D01*
X01325000Y00892530D01*
X01328412Y00889118D01*
X01371588Y00889118D01*
X01375000Y00892530D01*
X01378412Y00889118D01*
X01421588Y00889118D01*
X01430961Y00898491D01*
X01430961Y00969039D01*
X01501509Y00969039D01*
X01510882Y00978412D01*
X01510882Y01021588D01*
X01507470Y01025000D01*
X01510882Y01028412D01*
X01510882Y01071588D01*
X01507470Y01075000D01*
X01510882Y01078412D01*
X01510882Y01121588D01*
X01507470Y01125000D01*
X01510882Y01128412D01*
X01510882Y01171588D01*
X01507470Y01175000D01*
X01510882Y01178412D01*
X01510882Y01189441D01*
X01557846Y01236405D01*
X01561500Y01245226D01*
X01561500Y01717274D01*
X01557846Y01726095D01*
X01554000Y01729941D01*
X01554000Y01803627D01*
X01544627Y01813000D01*
X01505373Y01813000D01*
X01501414Y01809041D01*
X01499052Y01811404D01*
X01494948Y01813773D01*
X01490370Y01815000D01*
X01486441Y01815000D01*
X01497441Y01826000D01*
X01540059Y01826000D01*
X01879654Y01486405D01*
X01886405Y01479654D01*
X01895226Y01476000D01*
X01902946Y01476000D01*
X01924946Y01454000D01*
X01963054Y01454000D01*
X01990000Y01480946D01*
X01990000Y01519054D01*
X01983054Y01526000D01*
X02018946Y01526000D01*
X02036946Y01508000D01*
X02075054Y01508000D01*
X02102000Y01534946D01*
X02102000Y01573054D01*
X02075054Y01600000D01*
X02036946Y01600000D01*
X02010946Y01574000D01*
X01975054Y01574000D01*
X01990000Y01588946D01*
X01990000Y01627054D01*
X01963054Y01654000D01*
X01924946Y01654000D01*
X01898000Y01627054D01*
X01898000Y01624000D01*
X01884941Y01624000D01*
X01588595Y01920346D01*
X01579774Y01924000D01*
X01397441Y01924000D01*
X01234441Y02087000D01*
X01244627Y02087000D01*
X01250000Y02092373D01*
X01255373Y02087000D01*
X01294627Y02087000D01*
X01300000Y02092373D01*
X01305373Y02087000D01*
X01344627Y02087000D01*
X01350000Y02092373D01*
X01355373Y02087000D01*
X01389290Y02087000D01*
X01388907Y02086617D01*
X01382425Y02070969D01*
X01382425Y02054031D01*
X01388907Y02038383D01*
X01400883Y02026407D01*
X01416531Y02019925D01*
X01433469Y02019925D01*
X01449117Y02026407D01*
X01461093Y02038383D01*
X01467575Y02054031D01*
X01467575Y02070969D01*
X01467526Y02071085D01*
X01483441Y02087000D01*
X01494627Y02087000D01*
X01500000Y02092373D01*
X01505373Y02087000D01*
X01544627Y02087000D01*
X01554000Y02096373D01*
X01554000Y02189627D01*
X01549000Y02194627D01*
X01549000Y02227559D01*
X01623945Y02302504D01*
X01678675Y02302504D01*
X01688047Y02311876D01*
X01688047Y02388123D01*
X01678675Y02397496D01*
X01563058Y02397496D01*
X01553685Y02388123D01*
X01553685Y02311876D01*
X01559560Y02306001D01*
X01511405Y02257846D01*
X01504654Y02251095D01*
X01501000Y02242274D01*
X01501000Y02194627D01*
X01500000Y02193627D01*
X01494627Y02199000D01*
X01455373Y02199000D01*
X01450000Y02193627D01*
X01449000Y02194627D01*
X01449000Y02227559D01*
X01495346Y02273905D01*
X01499000Y02282726D01*
X01499000Y02302504D01*
X01536942Y02302504D01*
X01546315Y02311876D01*
X01546315Y02388123D01*
X01536942Y02397496D01*
X01313058Y02397496D01*
X01303685Y02388123D01*
X01303685Y02311876D01*
X01313058Y02302504D01*
X01351000Y02302504D01*
X01351000Y02194627D01*
X01350000Y02193627D01*
X01349000Y02194627D01*
X01349000Y02242274D01*
X01345346Y02251095D01*
X01338595Y02257846D01*
X01290440Y02306001D01*
X01296315Y02311876D01*
X01296315Y02388123D01*
X01286942Y02397496D01*
X01171325Y02397496D01*
X01161953Y02388123D01*
X01161953Y02311876D01*
X01171325Y02302504D01*
X01226055Y02302504D01*
X01301000Y02227559D01*
X01301000Y02194627D01*
X01300000Y02193627D01*
X01294627Y02199000D01*
X01284941Y02199000D01*
X01238595Y02245346D01*
X01229774Y02249000D01*
X01123641Y02249000D01*
X01123593Y02249117D01*
X01111617Y02261093D01*
X01095969Y02267575D01*
X01079031Y02267575D01*
X01063383Y02261093D01*
X01051407Y02249117D01*
X01044925Y02233469D01*
X01044925Y02216531D01*
X01051407Y02200883D01*
X01063383Y02188907D01*
X01079031Y02182425D01*
X01095969Y02182425D01*
X01111617Y02188907D01*
X01123593Y02200883D01*
X01123641Y02201000D01*
X01215059Y02201000D01*
X01217059Y02199000D01*
X01205373Y02199000D01*
X01200000Y02193627D01*
X01194627Y02199000D01*
X01155373Y02199000D01*
X01146000Y02189627D01*
X01146000Y02096373D01*
X01155373Y02087000D01*
X01166559Y02087000D01*
X01367154Y01886405D01*
X01373905Y01879654D01*
X01382726Y01876000D01*
X01429559Y01876000D01*
X01366559Y01813000D01*
X01355373Y01813000D01*
X01350000Y01807627D01*
X01344627Y01813000D01*
X01333441Y01813000D01*
X01276095Y01870346D01*
X01267274Y01874000D01*
X01120226Y01874000D01*
X01111405Y01870346D01*
X01104654Y01863595D01*
X01023905Y01782846D01*
X01017154Y01776095D01*
X01013500Y01767274D01*
X01013500Y01711141D01*
X01013383Y01711093D01*
X01001407Y01699117D01*
X00994925Y01683469D01*
X00994925Y01666531D01*
X01001407Y01650883D01*
X01013383Y01638907D01*
X01029031Y01632425D01*
X01045969Y01632425D01*
X01061617Y01638907D01*
X01073593Y01650883D01*
X01080075Y01666531D01*
X01080075Y01683469D01*
X01073593Y01699117D01*
X01061617Y01711093D01*
X01061500Y01711141D01*
X01061500Y01752559D01*
X01134941Y01826000D01*
X01252559Y01826000D01*
X01265559Y01813000D01*
X01255373Y01813000D01*
X01250000Y01807627D01*
X01244627Y01813000D01*
X01205373Y01813000D01*
X01200000Y01807627D01*
X01194627Y01813000D01*
X01155373Y01813000D01*
X01146000Y01803627D01*
X01146000Y01710373D01*
X01151000Y01705373D01*
X01151000Y01677991D01*
X01145969Y01680075D01*
X01129031Y01680075D01*
X01113383Y01673593D01*
X01101407Y01661617D01*
X01094925Y01645969D01*
X01094925Y01629031D01*
X01094974Y01628915D01*
X01086405Y01620346D01*
X01079654Y01613595D01*
X01078530Y01610882D01*
X01078412Y01610882D01*
X01075000Y01607470D01*
X01071588Y01610882D01*
X01028412Y01610882D01*
X01025000Y01607470D01*
X01021588Y01610882D01*
X00978412Y01610882D01*
X00975000Y01607470D01*
X00971588Y01610882D01*
X00928412Y01610882D01*
X00925000Y01607470D01*
X00921588Y01610882D01*
X00878412Y01610882D01*
X00869039Y01601509D01*
X00869039Y01530961D01*
X00798491Y01530961D01*
X00789118Y01521588D01*
X00789118Y01478412D01*
X00792530Y01475000D01*
X00789118Y01471588D01*
X00789118Y01433591D01*
X00786617Y01436093D01*
X00770969Y01442575D01*
X00754031Y01442575D01*
X00738383Y01436093D01*
X00726407Y01424117D01*
X00719925Y01408469D01*
X00719925Y01391531D01*
X00726407Y01375883D01*
X00738383Y01363907D01*
X00754031Y01357425D01*
X00770969Y01357425D01*
X00771085Y01357474D01*
X00789118Y01339441D01*
X00789118Y01328412D01*
X00791116Y01326414D01*
X00790714Y01326013D01*
X00788345Y01321908D01*
X00787118Y01317330D01*
X00787118Y01300000D01*
X00840550Y01300000D01*
X00840550Y01299999D01*
X00787118Y01299999D01*
X00787118Y01282670D01*
X00788345Y01278092D01*
X00790714Y01273987D01*
X00791116Y01273586D01*
X00789118Y01271588D01*
X00789118Y01228412D01*
X00792530Y01225000D01*
X00791530Y01224000D01*
X00759941Y01224000D01*
X00701095Y01282846D01*
X00692274Y01286500D01*
X00522441Y01286500D01*
X00499891Y01309050D01*
X00511617Y01313907D01*
X00523593Y01325883D01*
X00530075Y01341531D01*
X00530075Y01358469D01*
X00530026Y01358585D01*
X00953915Y01782474D01*
X00954031Y01782425D01*
X00970969Y01782425D01*
X00986617Y01788907D01*
X00998593Y01800883D01*
X01005075Y01816531D01*
X01005075Y01833469D01*
X00998593Y01849117D01*
X00986617Y01861093D01*
X00970969Y01867575D01*
X00954031Y01867575D01*
X00938383Y01861093D01*
X00926407Y01849117D01*
X00919925Y01833469D01*
X00919925Y01816531D01*
X00919974Y01816415D01*
X00753450Y01649891D01*
X00748593Y01661617D01*
X00736617Y01673593D01*
X00720969Y01680075D01*
X00704031Y01680075D01*
X00703915Y01680026D01*
X00674000Y01709941D01*
X00674000Y01714603D01*
X00685606Y01726209D01*
X00692000Y01741646D01*
X00692000Y01758354D01*
X00685606Y01773791D01*
X00673791Y01785606D01*
X00658354Y01792000D01*
X00641646Y01792000D01*
X00626209Y01785606D01*
X00614394Y01773791D01*
X00608000Y01758354D01*
X00608000Y01741646D01*
X00614394Y01726209D01*
X00626000Y01714603D01*
X00626000Y01695226D01*
X00629654Y01686405D01*
X00636405Y01679654D01*
X00669974Y01646085D01*
X00669925Y01645969D01*
X00669925Y01629031D01*
X00676407Y01613383D01*
X00688383Y01601407D01*
X00700109Y01596550D01*
X00496085Y01392526D01*
X00495969Y01392575D01*
X00479031Y01392575D01*
X00463383Y01386093D01*
X00451407Y01374117D01*
X00444925Y01358469D01*
X00444925Y01341531D01*
X00451407Y01325883D01*
X00453290Y01324000D01*
X00319849Y01324000D01*
X00318997Y01326057D01*
X00306057Y01338997D01*
X00289150Y01346000D01*
X00210850Y01346000D01*
X00193943Y01338997D01*
X00181003Y01326057D01*
X00174000Y01309150D01*
X00174000Y01290850D01*
X00181003Y01273943D01*
X00193943Y01261003D01*
X00210850Y01254000D01*
X00289150Y01254000D01*
X00306057Y01261003D01*
X00318997Y01273943D01*
X00319849Y01276000D01*
X00465059Y01276000D01*
X00492154Y01248905D01*
X00498905Y01242154D01*
X00507726Y01238500D01*
X00677559Y01238500D01*
X00729654Y01186405D01*
X00736405Y01179654D01*
X00745226Y01176000D01*
X00791530Y01176000D01*
X00792530Y01175000D01*
X00791530Y01174000D01*
X00745226Y01174000D01*
X00736405Y01170346D01*
X00729654Y01163595D01*
X00665059Y01099000D01*
X00459941Y01099000D01*
X00338595Y01220346D01*
X00329774Y01224000D01*
X00319849Y01224000D01*
X00318997Y01226057D01*
X00306057Y01238997D01*
X00289150Y01246000D01*
X00210850Y01246000D01*
X00193943Y01238997D01*
X00181003Y01226057D01*
X00174000Y01209150D01*
X00174000Y01190850D01*
X00181003Y01173943D01*
X00193943Y01161003D01*
X00210850Y01154000D01*
X00289150Y01154000D01*
X00306057Y01161003D01*
X00318056Y01173003D01*
X00367059Y01124000D01*
X00319849Y01124000D01*
X00318997Y01126057D01*
X00306057Y01138997D01*
X00289150Y01146000D01*
X00210850Y01146000D01*
X00193943Y01138997D01*
X00181003Y01126057D01*
X00174000Y01109150D01*
X00174000Y01090850D01*
X00181003Y01073943D01*
X00193943Y01061003D01*
X00210850Y01054000D01*
X00289150Y01054000D01*
X00306057Y01061003D01*
X00318997Y01073943D01*
X00319849Y01076000D01*
X00377559Y01076000D01*
X00417154Y01036405D01*
X00423905Y01029654D01*
X00432726Y01026000D01*
X00692274Y01026000D01*
X00701095Y01029654D01*
X00747441Y01076000D01*
X00791530Y01076000D01*
X00792530Y01075000D01*
X00791530Y01074000D01*
X00770226Y01074000D01*
X00761405Y01070346D01*
X00754654Y01063595D01*
X00640059Y00949000D01*
X00459941Y00949000D01*
X00388595Y01020346D01*
X00379774Y01024000D01*
X00319849Y01024000D01*
X00318997Y01026057D01*
X00306057Y01038997D01*
X00289150Y01046000D01*
X00210850Y01046000D01*
X00193943Y01038997D01*
X00181003Y01026057D01*
X00174000Y01009150D01*
X00174000Y00990850D01*
X00181003Y00973943D01*
X00193943Y00961003D01*
X00210850Y00954000D01*
X00289150Y00954000D01*
X00306057Y00961003D01*
X00318997Y00973943D01*
X00319849Y00976000D01*
X00365059Y00976000D01*
X00417059Y00924000D01*
X00319849Y00924000D01*
X00318997Y00926057D01*
X00306057Y00938997D01*
X00289150Y00946000D01*
X00210850Y00946000D01*
X00193943Y00938997D01*
X00181003Y00926057D01*
X00174000Y00909150D01*
X00174000Y00890850D01*
X00181003Y00873943D01*
X00193943Y00861003D01*
X00210850Y00854000D01*
X00289150Y00854000D01*
X00306057Y00861003D01*
X00318997Y00873943D01*
X00319849Y00876000D01*
X00417059Y00876000D01*
X00365059Y00824000D01*
X00319849Y00824000D01*
X00318997Y00826057D01*
X00306057Y00838997D01*
X00289150Y00846000D01*
X00210850Y00846000D01*
X00193943Y00838997D01*
X00181003Y00826057D01*
X00174000Y00809150D01*
X00174000Y00790850D01*
X00181003Y00773943D01*
X00193943Y00761003D01*
X00210850Y00754000D01*
X00289150Y00754000D01*
X00306057Y00761003D01*
X00318997Y00773943D01*
X00319849Y00776000D01*
X00328290Y00776000D01*
X00326407Y00774117D01*
X00319925Y00758469D01*
X00319925Y00741531D01*
X00326407Y00725883D01*
X00338383Y00713907D01*
X00354031Y00707425D01*
X00370969Y00707425D01*
X00386617Y00713907D01*
X00398593Y00725883D01*
X00405075Y00741531D01*
X00405075Y00758469D01*
X00405026Y00758585D01*
X00472441Y00826000D01*
X00640790Y00826000D01*
X00638907Y00824117D01*
X00632425Y00808469D01*
X00632425Y00791531D01*
X00638907Y00775883D01*
X00650883Y00763907D01*
X00651000Y00763859D01*
X00651000Y00732726D01*
X00654654Y00723905D01*
X00702504Y00676055D01*
X00702504Y00571325D01*
X00702504Y00591945D02*
X00326000Y00591945D01*
X00326000Y00607944D02*
X00702504Y00607944D01*
X00702504Y00623942D02*
X00319873Y00623942D01*
X00303778Y00639941D02*
X00702504Y00639941D01*
X00702504Y00655939D02*
X00293832Y00655939D01*
X00289150Y00654000D02*
X00306057Y00661003D01*
X00318997Y00673943D01*
X00326000Y00690850D01*
X00326000Y00709150D01*
X00318997Y00726057D01*
X00306057Y00738997D01*
X00289150Y00746000D01*
X00210850Y00746000D01*
X00193943Y00738997D01*
X00181003Y00726057D01*
X00174000Y00709150D01*
X00174000Y00690850D01*
X00181003Y00673943D01*
X00193943Y00661003D01*
X00210850Y00654000D01*
X00289150Y00654000D01*
X00316992Y00671938D02*
X00702504Y00671938D01*
X00690622Y00687937D02*
X00324793Y00687937D01*
X00326000Y00703935D02*
X00674624Y00703935D01*
X00658625Y00719934D02*
X00392643Y00719934D01*
X00402755Y00735932D02*
X00651000Y00735932D01*
X00651000Y00751931D02*
X00405075Y00751931D01*
X00414370Y00767929D02*
X00646861Y00767929D01*
X00635575Y00783928D02*
X00430369Y00783928D01*
X00446367Y00799926D02*
X00632425Y00799926D01*
X00635514Y00815925D02*
X00462366Y00815925D01*
X00462500Y00850000D02*
X00687500Y00850000D01*
X00750000Y00912500D01*
X00850000Y00912500D01*
X00875000Y00887500D01*
X00925000Y00887500D01*
X00950000Y00912500D01*
X00950000Y00940551D01*
X00900000Y00940551D02*
X00900000Y00937500D01*
X00737500Y00937500D01*
X00675000Y00875000D01*
X00450000Y00875000D01*
X00375000Y00800000D01*
X00250000Y00800000D01*
X00312983Y00767929D02*
X00323844Y00767929D01*
X00319925Y00751931D02*
X00137500Y00751931D01*
X00137500Y00767929D02*
X00187017Y00767929D01*
X00176867Y00783928D02*
X00137500Y00783928D01*
X00137500Y00799926D02*
X00174000Y00799926D01*
X00176806Y00815925D02*
X00137500Y00815925D01*
X00137500Y00831923D02*
X00186869Y00831923D01*
X00191026Y00863920D02*
X00137500Y00863920D01*
X00137500Y00847922D02*
X00388981Y00847922D01*
X00404979Y00863920D02*
X00308974Y00863920D01*
X00313130Y00831923D02*
X00372982Y00831923D01*
X00362500Y00750000D02*
X00462500Y00850000D01*
X00450000Y00925000D02*
X00650000Y00925000D01*
X00775000Y01050000D01*
X00840551Y01050000D01*
X00840551Y01000000D02*
X00762500Y01000000D01*
X00662500Y00900000D01*
X00250000Y00900000D01*
X00294188Y00943913D02*
X00397146Y00943913D01*
X00381147Y00959911D02*
X00303421Y00959911D01*
X00319811Y00975910D02*
X00365149Y00975910D01*
X00375000Y01000000D02*
X00450000Y00925000D01*
X00449030Y00959911D02*
X00650970Y00959911D01*
X00666969Y00975910D02*
X00433031Y00975910D01*
X00417032Y00991908D02*
X00682967Y00991908D01*
X00698966Y01007907D02*
X00401034Y01007907D01*
X00380002Y01023906D02*
X00714964Y01023906D01*
X00711345Y01039904D02*
X00730963Y01039904D01*
X00727344Y01055903D02*
X00746961Y01055903D01*
X00743342Y01071901D02*
X00765159Y01071901D01*
X00737500Y01100000D02*
X00840551Y01100000D01*
X00840551Y01150000D02*
X00750000Y01150000D01*
X00675000Y01075000D01*
X00450000Y01075000D01*
X00325000Y01200000D01*
X00250000Y01200000D01*
X00312946Y01167892D02*
X00323167Y01167892D01*
X00339165Y01151894D02*
X00137500Y01151894D01*
X00137500Y01167892D02*
X00187054Y01167892D01*
X00176883Y01183891D02*
X00137500Y01183891D01*
X00137500Y01199889D02*
X00174000Y01199889D01*
X00176791Y01215888D02*
X00137500Y01215888D01*
X00137500Y01231886D02*
X00186833Y01231886D01*
X00191063Y01263883D02*
X00137500Y01263883D01*
X00137500Y01247885D02*
X00493174Y01247885D01*
X00492154Y01248905D02*
X00492154Y01248905D01*
X00477175Y01263883D02*
X00308937Y01263883D01*
X00313167Y01231886D02*
X00684172Y01231886D01*
X00700171Y01215888D02*
X00343053Y01215888D01*
X00359052Y01199889D02*
X00716170Y01199889D01*
X00732168Y01183891D02*
X00375050Y01183891D01*
X00391049Y01167892D02*
X00733951Y01167892D01*
X00717953Y01151894D02*
X00407047Y01151894D01*
X00423046Y01135895D02*
X00701954Y01135895D01*
X00685956Y01119897D02*
X00439044Y01119897D01*
X00455043Y01103898D02*
X00669957Y01103898D01*
X00687500Y01050000D02*
X00737500Y01100000D01*
X00687500Y01050000D02*
X00437500Y01050000D01*
X00387500Y01100000D01*
X00250000Y01100000D01*
X00293743Y01055903D02*
X00397656Y01055903D01*
X00381658Y01071901D02*
X00316955Y01071901D01*
X00303867Y01039904D02*
X00413655Y01039904D01*
X00375000Y01000000D02*
X00250000Y01000000D01*
X00205812Y00943913D02*
X00137500Y00943913D01*
X00137500Y00959911D02*
X00196578Y00959911D01*
X00180188Y00975910D02*
X00137500Y00975910D01*
X00137500Y00991908D02*
X00174000Y00991908D01*
X00174000Y01007907D02*
X00137500Y01007907D01*
X00137500Y01023906D02*
X00180112Y01023906D01*
X00196133Y01039904D02*
X00137500Y01039904D01*
X00137500Y01055903D02*
X00206257Y01055903D01*
X00183045Y01071901D02*
X00137500Y01071901D01*
X00137500Y01087900D02*
X00175222Y01087900D01*
X00174000Y01103898D02*
X00137500Y01103898D01*
X00137500Y01119897D02*
X00178452Y01119897D01*
X00190841Y01135895D02*
X00137500Y01135895D01*
X00137500Y01279882D02*
X00178543Y01279882D01*
X00174000Y01295880D02*
X00137500Y01295880D01*
X00137500Y01311879D02*
X00175130Y01311879D01*
X00182824Y01327877D02*
X00137500Y01327877D01*
X00137500Y01343876D02*
X00205722Y01343876D01*
X00250000Y01300000D02*
X00475000Y01300000D01*
X00512500Y01262500D01*
X00687500Y01262500D01*
X00750000Y01200000D01*
X00840551Y01200000D01*
X00891984Y01199889D02*
X01390948Y01199889D01*
X01404654Y01213595D02*
X01183043Y00991984D01*
X01178412Y00991984D01*
X01175000Y00988572D01*
X01171588Y00991984D01*
X01128412Y00991984D01*
X01125000Y00988572D01*
X01121588Y00991984D01*
X01078412Y00991984D01*
X01075000Y00988572D01*
X01071588Y00991984D01*
X01028412Y00991984D01*
X01025000Y00988572D01*
X01021588Y00991984D01*
X00978412Y00991984D01*
X00975000Y00988572D01*
X00971588Y00991984D01*
X00928412Y00991984D01*
X00925000Y00988572D01*
X00921588Y00991984D01*
X00891984Y00991984D01*
X00891984Y01021588D01*
X00888572Y01025000D01*
X00891984Y01028412D01*
X00891984Y01071588D01*
X00888572Y01075000D01*
X00891984Y01078412D01*
X00891984Y01121588D01*
X00888572Y01125000D01*
X00891984Y01128412D01*
X00891984Y01171588D01*
X00888572Y01175000D01*
X00891984Y01178412D01*
X00891984Y01221588D01*
X00888572Y01225000D01*
X00891984Y01228412D01*
X00891984Y01271588D01*
X00889986Y01273586D01*
X00890388Y01273987D01*
X00891128Y01275270D01*
X00904031Y01269925D01*
X00920969Y01269925D01*
X00936617Y01276407D01*
X00948593Y01288383D01*
X00955075Y01304031D01*
X00955075Y01320969D01*
X00949000Y01335634D01*
X00949000Y01345226D01*
X00949000Y01354774D01*
X00945346Y01363595D01*
X00914016Y01394925D01*
X00920969Y01394925D01*
X00936617Y01401407D01*
X00948593Y01413383D01*
X00955075Y01429031D01*
X00955075Y01445969D01*
X00948593Y01461617D01*
X00936617Y01473593D01*
X00920969Y01480075D01*
X00904031Y01480075D01*
X00889512Y01474060D01*
X00888572Y01475000D01*
X00891984Y01478412D01*
X00891984Y01508016D01*
X00921588Y01508016D01*
X00925000Y01511428D01*
X00928412Y01508016D01*
X00971588Y01508016D01*
X00975000Y01511428D01*
X00978412Y01508016D01*
X01021588Y01508016D01*
X01025000Y01511428D01*
X01028412Y01508016D01*
X01071588Y01508016D01*
X01075000Y01511428D01*
X01078412Y01508016D01*
X01121588Y01508016D01*
X01125000Y01511428D01*
X01128412Y01508016D01*
X01171588Y01508016D01*
X01175000Y01511428D01*
X01178412Y01508016D01*
X01199075Y01508016D01*
X01196085Y01505026D01*
X01195969Y01505075D01*
X01179031Y01505075D01*
X01163383Y01498593D01*
X01151407Y01486617D01*
X01144925Y01470969D01*
X01144925Y01454031D01*
X01151407Y01438383D01*
X01163383Y01426407D01*
X01179031Y01419925D01*
X01195969Y01419925D01*
X01211617Y01426407D01*
X01223593Y01438383D01*
X01230075Y01454031D01*
X01230075Y01470969D01*
X01230026Y01471085D01*
X01263595Y01504654D01*
X01266957Y01508016D01*
X01271588Y01508016D01*
X01275000Y01511428D01*
X01278412Y01508016D01*
X01321588Y01508016D01*
X01325000Y01511428D01*
X01328412Y01508016D01*
X01371588Y01508016D01*
X01375000Y01511428D01*
X01378412Y01508016D01*
X01408016Y01508016D01*
X01408016Y01478412D01*
X01411428Y01475000D01*
X01408016Y01471588D01*
X01408016Y01428412D01*
X01411428Y01425000D01*
X01410428Y01424000D01*
X01348641Y01424000D01*
X01348593Y01424117D01*
X01336617Y01436093D01*
X01320969Y01442575D01*
X01304031Y01442575D01*
X01288383Y01436093D01*
X01276407Y01424117D01*
X01269925Y01408469D01*
X01269925Y01391531D01*
X01276407Y01375883D01*
X01288383Y01363907D01*
X01304031Y01357425D01*
X01320969Y01357425D01*
X01336617Y01363907D01*
X01348593Y01375883D01*
X01348641Y01376000D01*
X01410428Y01376000D01*
X01411428Y01375000D01*
X01408016Y01371588D01*
X01408016Y01328412D01*
X01411428Y01325000D01*
X01408016Y01321588D01*
X01408016Y01278412D01*
X01411428Y01275000D01*
X01408016Y01271588D01*
X01408016Y01228412D01*
X01411428Y01225000D01*
X01408016Y01221588D01*
X01408016Y01216957D01*
X01404654Y01213595D01*
X01406947Y01215888D02*
X00891984Y01215888D01*
X00891984Y01231886D02*
X01408016Y01231886D01*
X01408016Y01247885D02*
X00891984Y01247885D01*
X00891984Y01263883D02*
X01408016Y01263883D01*
X01408016Y01279882D02*
X00940092Y01279882D01*
X00951698Y01295880D02*
X01408016Y01295880D01*
X01408016Y01311879D02*
X00955075Y01311879D01*
X00952213Y01327877D02*
X01408550Y01327877D01*
X01408016Y01343876D02*
X00949000Y01343876D01*
X00946887Y01359875D02*
X01298118Y01359875D01*
X01276417Y01375873D02*
X00933068Y01375873D01*
X00917069Y01391872D02*
X01269925Y01391872D01*
X01269925Y01407870D02*
X00943080Y01407870D01*
X00952936Y01423869D02*
X01169511Y01423869D01*
X01150792Y01439867D02*
X00955075Y01439867D01*
X00950975Y01455866D02*
X01144925Y01455866D01*
X01145296Y01471864D02*
X00938345Y01471864D01*
X00912500Y01437500D02*
X00875000Y01400000D01*
X00840551Y01400000D01*
X00875000Y01400000D02*
X00925000Y01350000D01*
X00925000Y01300000D01*
X00912500Y01312500D01*
X00975000Y01312500D02*
X01112500Y01312500D01*
X01287500Y01487500D01*
X01262802Y01503861D02*
X01408016Y01503861D01*
X01408016Y01487863D02*
X01246804Y01487863D01*
X01230805Y01471864D02*
X01408292Y01471864D01*
X01408016Y01455866D02*
X01230075Y01455866D01*
X01224208Y01439867D02*
X01297495Y01439867D01*
X01276304Y01423869D02*
X01205489Y01423869D01*
X01187500Y01462500D02*
X01250000Y01525000D01*
X01250000Y01559449D01*
X01200000Y01559449D02*
X01200000Y01637500D01*
X01175000Y01662500D01*
X01175000Y01757000D01*
X01146000Y01759838D02*
X01068779Y01759838D01*
X01061500Y01743839D02*
X01146000Y01743839D01*
X01146000Y01727841D02*
X01061500Y01727841D01*
X01061500Y01711842D02*
X01146000Y01711842D01*
X01151000Y01695844D02*
X01074949Y01695844D01*
X01080075Y01679845D02*
X01128477Y01679845D01*
X01146523Y01679845D02*
X01151000Y01679845D01*
X01137500Y01637500D02*
X01100000Y01600000D01*
X01100000Y01559449D01*
X01152653Y01487863D02*
X00891984Y01487863D01*
X00891984Y01503861D02*
X01176102Y01503861D01*
X01081910Y01615851D02*
X00787292Y01615851D01*
X00803290Y01631849D02*
X01094925Y01631849D01*
X01095704Y01647848D02*
X01070558Y01647848D01*
X01078962Y01663846D02*
X01103637Y01663846D01*
X01037500Y01675000D02*
X01037500Y01762500D01*
X01125000Y01850000D01*
X01262500Y01850000D01*
X01325000Y01787500D01*
X01325000Y01757000D01*
X01275000Y01757000D02*
X01275000Y01725000D01*
X01350000Y01650000D01*
X01400000Y01650000D01*
X01512500Y01537500D01*
X01512500Y01475000D01*
X01487500Y01450000D01*
X01459449Y01450000D01*
X01459449Y01400000D02*
X01312500Y01400000D01*
X01326882Y01359875D02*
X01408016Y01359875D01*
X01410555Y01375873D02*
X01348583Y01375873D01*
X01327505Y01439867D02*
X01408016Y01439867D01*
X01513500Y01570441D02*
X01413595Y01670346D01*
X01404774Y01674000D01*
X01395226Y01674000D01*
X01359941Y01674000D01*
X01332941Y01701000D01*
X01344627Y01701000D01*
X01350000Y01706373D01*
X01355373Y01701000D01*
X01394627Y01701000D01*
X01400000Y01706373D01*
X01405373Y01701000D01*
X01444627Y01701000D01*
X01448586Y01704958D01*
X01450948Y01702596D01*
X01455052Y01700227D01*
X01459630Y01699000D01*
X01474999Y01699000D01*
X01474999Y01756999D01*
X01475000Y01756999D01*
X01475000Y01699000D01*
X01490370Y01699000D01*
X01494948Y01700227D01*
X01499052Y01702596D01*
X01501414Y01704958D01*
X01505373Y01701000D01*
X01513500Y01701000D01*
X01513500Y01570441D01*
X01513500Y01583854D02*
X01500087Y01583854D01*
X01513500Y01599852D02*
X01484089Y01599852D01*
X01468090Y01615851D02*
X01513500Y01615851D01*
X01513500Y01631849D02*
X01452092Y01631849D01*
X01436093Y01647848D02*
X01513500Y01647848D01*
X01513500Y01663846D02*
X01420094Y01663846D01*
X01354096Y01679845D02*
X01513500Y01679845D01*
X01513500Y01695844D02*
X01338097Y01695844D01*
X01375000Y01757000D02*
X01375000Y01787500D01*
X01462500Y01875000D01*
X01562500Y01875000D01*
X01862500Y01575000D01*
X01900000Y01575000D01*
X01925000Y01550000D01*
X02050000Y01550000D01*
X02056000Y01554000D01*
X02086914Y01519860D02*
X02276508Y01519860D01*
X02276508Y01535858D02*
X02102000Y01535858D01*
X02102000Y01551857D02*
X02276508Y01551857D01*
X02276508Y01567855D02*
X02102000Y01567855D01*
X02091200Y01583854D02*
X02276508Y01583854D01*
X02276508Y01599852D02*
X02075201Y01599852D01*
X02075054Y01616000D02*
X02036946Y01616000D01*
X02010000Y01642946D01*
X02010000Y01681054D01*
X02036946Y01708000D01*
X02075054Y01708000D01*
X02102000Y01681054D01*
X02102000Y01642946D01*
X02075054Y01616000D01*
X02090903Y01631849D02*
X02276508Y01631849D01*
X02276508Y01615851D02*
X01990000Y01615851D01*
X01990000Y01599852D02*
X02036799Y01599852D01*
X02020800Y01583854D02*
X01984907Y01583854D01*
X01944000Y01608000D02*
X01937500Y01600000D01*
X01875000Y01600000D01*
X01575000Y01900000D01*
X01387500Y01900000D01*
X01175000Y02112500D01*
X01175000Y02143000D01*
X01146000Y02143802D02*
X00137500Y02143802D01*
X00137500Y02127804D02*
X01146000Y02127804D01*
X01146000Y02111805D02*
X00137500Y02111805D01*
X00137500Y02095807D02*
X01146566Y02095807D01*
X01173751Y02079808D02*
X00137500Y02079808D01*
X00137500Y02063810D02*
X01189749Y02063810D01*
X01205748Y02047811D02*
X00137500Y02047811D01*
X00137500Y02031813D02*
X01221746Y02031813D01*
X01237745Y02015814D02*
X00137500Y02015814D01*
X00137500Y01999815D02*
X01253743Y01999815D01*
X01269742Y01983817D02*
X00137500Y01983817D01*
X00137500Y01967818D02*
X01285740Y01967818D01*
X01301739Y01951820D02*
X00137500Y01951820D01*
X00137500Y01935821D02*
X01317737Y01935821D01*
X01333736Y01919823D02*
X00137500Y01919823D01*
X00137500Y01903824D02*
X01349734Y01903824D01*
X01365733Y01887826D02*
X00137500Y01887826D01*
X00137500Y01871827D02*
X01114981Y01871827D01*
X01096888Y01855829D02*
X00991881Y01855829D01*
X01002440Y01839830D02*
X01080889Y01839830D01*
X01064891Y01823832D02*
X01005075Y01823832D01*
X01001472Y01807833D02*
X01048892Y01807833D01*
X01032894Y01791835D02*
X00989544Y01791835D01*
X01017047Y01775836D02*
X00947277Y01775836D01*
X00931279Y01759838D02*
X01013500Y01759838D01*
X01013500Y01743839D02*
X00915280Y01743839D01*
X00899282Y01727841D02*
X01013500Y01727841D01*
X01013500Y01711842D02*
X00883283Y01711842D01*
X00867285Y01695844D02*
X01000051Y01695844D01*
X00994925Y01679845D02*
X00851286Y01679845D01*
X00835288Y01663846D02*
X00996037Y01663846D01*
X01004442Y01647848D02*
X00819289Y01647848D01*
X00783404Y01679845D02*
X00721523Y01679845D01*
X00746363Y01663846D02*
X00767406Y01663846D01*
X00758354Y01708000D02*
X00773791Y01714394D01*
X00785606Y01726209D01*
X00792000Y01741646D01*
X00792000Y01758354D01*
X00785606Y01773791D01*
X00773791Y01785606D01*
X00758354Y01792000D01*
X00741646Y01792000D01*
X00726209Y01785606D01*
X00714394Y01773791D01*
X00708000Y01758354D01*
X00708000Y01741646D01*
X00714394Y01726209D01*
X00726209Y01714394D01*
X00741646Y01708000D01*
X00758354Y01708000D01*
X00767630Y01711842D02*
X00815401Y01711842D01*
X00799403Y01695844D02*
X00688097Y01695844D01*
X00674000Y01711842D02*
X00732370Y01711842D01*
X00713718Y01727841D02*
X00686282Y01727841D01*
X00692000Y01743839D02*
X00708000Y01743839D01*
X00708614Y01759838D02*
X00691386Y01759838D01*
X00683561Y01775836D02*
X00716439Y01775836D01*
X00741247Y01791835D02*
X00658753Y01791835D01*
X00641247Y01791835D02*
X00137500Y01791835D01*
X00137500Y01807833D02*
X00911392Y01807833D01*
X00919925Y01823832D02*
X00137500Y01823832D01*
X00137500Y01839830D02*
X00922560Y01839830D01*
X00933119Y01855829D02*
X00137500Y01855829D01*
X00137500Y01775836D02*
X00616439Y01775836D01*
X00608614Y01759838D02*
X00137500Y01759838D01*
X00137500Y01743839D02*
X00608000Y01743839D01*
X00613718Y01727841D02*
X00137500Y01727841D01*
X00137500Y01711842D02*
X00626000Y01711842D01*
X00626000Y01695844D02*
X00137500Y01695844D01*
X00137500Y01679845D02*
X00636214Y01679845D01*
X00652212Y01663846D02*
X00137500Y01663846D01*
X00137500Y01647848D02*
X00668211Y01647848D01*
X00669925Y01631849D02*
X00137500Y01631849D01*
X00137500Y01615851D02*
X00675385Y01615851D01*
X00692136Y01599852D02*
X00137500Y01599852D01*
X00137500Y01583854D02*
X00687413Y01583854D01*
X00671414Y01567855D02*
X00137500Y01567855D01*
X00137500Y01551857D02*
X00655416Y01551857D01*
X00639417Y01535858D02*
X00137500Y01535858D01*
X00137500Y01519860D02*
X00623419Y01519860D01*
X00607420Y01503861D02*
X00137500Y01503861D01*
X00137500Y01487863D02*
X00591422Y01487863D01*
X00575423Y01471864D02*
X00137500Y01471864D01*
X00137500Y01455866D02*
X00559425Y01455866D01*
X00543426Y01439867D02*
X00137500Y01439867D01*
X00137500Y01423869D02*
X00527428Y01423869D01*
X00511429Y01407870D02*
X00137500Y01407870D01*
X00137500Y01391872D02*
X00477334Y01391872D01*
X00453163Y01375873D02*
X00137500Y01375873D01*
X00137500Y01359875D02*
X00445508Y01359875D01*
X00444925Y01343876D02*
X00294278Y01343876D01*
X00317176Y01327877D02*
X00450581Y01327877D01*
X00487500Y01350000D02*
X00962500Y01825000D01*
X00895394Y01791835D02*
X00758753Y01791835D01*
X00783561Y01775836D02*
X00879395Y01775836D01*
X00863397Y01759838D02*
X00791386Y01759838D01*
X00792000Y01743839D02*
X00847398Y01743839D01*
X00831400Y01727841D02*
X00786282Y01727841D01*
X00712500Y01637500D02*
X00650000Y01700000D01*
X00650000Y01750000D01*
X00771293Y01599852D02*
X00869039Y01599852D01*
X00869039Y01583854D02*
X00755295Y01583854D01*
X00739296Y01567855D02*
X00869039Y01567855D01*
X00869039Y01551857D02*
X00723298Y01551857D01*
X00707299Y01535858D02*
X00869039Y01535858D01*
X00789118Y01519860D02*
X00691301Y01519860D01*
X00675302Y01503861D02*
X00789118Y01503861D01*
X00789118Y01487863D02*
X00659304Y01487863D01*
X00643305Y01471864D02*
X00789394Y01471864D01*
X00789118Y01455866D02*
X00627307Y01455866D01*
X00611308Y01439867D02*
X00747495Y01439867D01*
X00726304Y01423869D02*
X00595310Y01423869D01*
X00579311Y01407870D02*
X00719925Y01407870D01*
X00719925Y01391872D02*
X00563313Y01391872D01*
X00547314Y01375873D02*
X00726417Y01375873D01*
X00748118Y01359875D02*
X00531316Y01359875D01*
X00530075Y01343876D02*
X00784683Y01343876D01*
X00789653Y01327877D02*
X00524419Y01327877D01*
X00506721Y01311879D02*
X00787118Y01311879D01*
X00787118Y01295880D02*
X00513060Y01295880D01*
X00687500Y01362500D02*
X00775000Y01275000D01*
X00762500Y01262500D01*
X00775000Y01275000D02*
X00800000Y01300000D01*
X00840551Y01300000D01*
X00840551Y01350000D02*
X00812500Y01350000D01*
X00762500Y01400000D01*
X00777505Y01439867D02*
X00789118Y01439867D01*
X00787865Y01279882D02*
X00704059Y01279882D01*
X00720058Y01263883D02*
X00789118Y01263883D01*
X00789118Y01247885D02*
X00736056Y01247885D01*
X00752055Y01231886D02*
X00789118Y01231886D01*
X00891984Y01183891D02*
X01374950Y01183891D01*
X01358951Y01167892D02*
X00891984Y01167892D01*
X00891984Y01151894D02*
X01342953Y01151894D01*
X01326954Y01135895D02*
X00891984Y01135895D01*
X00891984Y01119897D02*
X01310956Y01119897D01*
X01294957Y01103898D02*
X00891984Y01103898D01*
X00891984Y01087900D02*
X01278959Y01087900D01*
X01262960Y01071901D02*
X00891671Y01071901D01*
X00891984Y01055903D02*
X01246962Y01055903D01*
X01230963Y01039904D02*
X00891984Y01039904D01*
X00889667Y01023906D02*
X01214965Y01023906D01*
X01198966Y01007907D02*
X00891984Y01007907D01*
X00921664Y00991908D02*
X00928336Y00991908D01*
X00971664Y00991908D02*
X00978336Y00991908D01*
X01021664Y00991908D02*
X01028336Y00991908D01*
X01071664Y00991908D02*
X01078336Y00991908D01*
X01121664Y00991908D02*
X01128336Y00991908D01*
X01171664Y00991908D02*
X01178336Y00991908D01*
X01200000Y00975000D02*
X01425000Y01200000D01*
X01459449Y01200000D01*
X01487500Y01200000D01*
X01537500Y01250000D01*
X01537500Y01712500D01*
X01525000Y01725000D01*
X01525000Y01757000D01*
X01554000Y01759838D02*
X01606221Y01759838D01*
X01590223Y01775836D02*
X01554000Y01775836D01*
X01554000Y01791835D02*
X01574224Y01791835D01*
X01558226Y01807833D02*
X01549794Y01807833D01*
X01542227Y01823832D02*
X01495273Y01823832D01*
X01512500Y01825000D02*
X01537500Y01825000D01*
X01650000Y01712500D01*
X01650000Y01700000D01*
X01612500Y01662500D01*
X01587500Y01662500D01*
X01561500Y01663846D02*
X01702212Y01663846D01*
X01718211Y01647848D02*
X01561500Y01647848D01*
X01561500Y01631849D02*
X01734209Y01631849D01*
X01750208Y01615851D02*
X01561500Y01615851D01*
X01561500Y01599852D02*
X01766206Y01599852D01*
X01782205Y01583854D02*
X01561500Y01583854D01*
X01561500Y01567855D02*
X01798203Y01567855D01*
X01814202Y01551857D02*
X01561500Y01551857D01*
X01561500Y01535858D02*
X01830201Y01535858D01*
X01846199Y01519860D02*
X01561500Y01519860D01*
X01561500Y01503861D02*
X01862198Y01503861D01*
X01862500Y01500000D02*
X01862500Y01362500D01*
X01937500Y01287500D01*
X01944000Y01284000D01*
X01946000Y01286001D02*
X01942000Y01286001D01*
X01942000Y01332000D01*
X01924118Y01332000D01*
X01896000Y01303882D01*
X01896000Y01286000D01*
X01941999Y01286000D01*
X01941999Y01282000D01*
X01896000Y01282000D01*
X01896000Y01264118D01*
X01924118Y01236000D01*
X01942000Y01236000D01*
X01942000Y01281999D01*
X01946000Y01281999D01*
X01946000Y01236000D01*
X01963882Y01236000D01*
X01992000Y01264118D01*
X01992000Y01282000D01*
X01946001Y01282000D01*
X01946001Y01286000D01*
X01992000Y01286000D01*
X01992000Y01303882D01*
X01963882Y01332000D01*
X01946000Y01332000D01*
X01946000Y01286001D01*
X01946000Y01279882D02*
X01942000Y01279882D01*
X01942000Y01295880D02*
X01946000Y01295880D01*
X01946000Y01311879D02*
X01942000Y01311879D01*
X01942000Y01327877D02*
X01946000Y01327877D01*
X01968005Y01327877D02*
X02010000Y01327877D01*
X02010000Y01318946D02*
X02036946Y01292000D01*
X02075054Y01292000D01*
X02102000Y01318946D01*
X02102000Y01357054D01*
X02075054Y01384000D01*
X02036946Y01384000D01*
X02010000Y01357054D01*
X02010000Y01318946D01*
X02017067Y01311879D02*
X01984003Y01311879D01*
X01992000Y01295880D02*
X02033066Y01295880D01*
X01992000Y01279882D02*
X02276508Y01279882D01*
X02276508Y01295880D02*
X02078934Y01295880D01*
X02094933Y01311879D02*
X02276508Y01311879D01*
X02276508Y01327877D02*
X02102000Y01327877D01*
X02102000Y01343876D02*
X02276508Y01343876D01*
X02276508Y01359875D02*
X02099179Y01359875D01*
X02083181Y01375873D02*
X02276508Y01375873D01*
X02276508Y01391872D02*
X01990000Y01391872D01*
X01990000Y01407870D02*
X02029076Y01407870D01*
X02036946Y01400000D02*
X02010000Y01426946D01*
X02010000Y01465054D01*
X02036946Y01492000D01*
X02075054Y01492000D01*
X02102000Y01465054D01*
X02102000Y01426946D01*
X02075054Y01400000D01*
X02036946Y01400000D01*
X02028819Y01375873D02*
X01990000Y01375873D01*
X01990000Y01372946D02*
X01963054Y01346000D01*
X01924946Y01346000D01*
X01898000Y01372946D01*
X01898000Y01411054D01*
X01924946Y01438000D01*
X01963054Y01438000D01*
X01990000Y01411054D01*
X01990000Y01372946D01*
X01976928Y01359875D02*
X02012821Y01359875D01*
X02010000Y01343876D02*
X01561500Y01343876D01*
X01561500Y01327877D02*
X01919995Y01327877D01*
X01903997Y01311879D02*
X01561500Y01311879D01*
X01561500Y01295880D02*
X01896000Y01295880D01*
X01896000Y01279882D02*
X01561500Y01279882D01*
X01561500Y01263883D02*
X01896234Y01263883D01*
X01912233Y01247885D02*
X01561500Y01247885D01*
X01553327Y01231886D02*
X02276508Y01231886D01*
X02276508Y01215888D02*
X01537329Y01215888D01*
X01521330Y01199889D02*
X02276508Y01199889D01*
X02276508Y01183891D02*
X01510882Y01183891D01*
X01510882Y01167892D02*
X02276508Y01167892D01*
X02276508Y01151894D02*
X01510882Y01151894D01*
X01510882Y01135895D02*
X02276508Y01135895D01*
X02276508Y01119897D02*
X02015262Y01119897D01*
X02014877Y01120000D02*
X01985123Y01120000D01*
X01956384Y01112299D01*
X01930616Y01097422D01*
X01909578Y01076384D01*
X01894701Y01050616D01*
X01887000Y01021877D01*
X01887000Y00992123D01*
X01894701Y00963384D01*
X01909578Y00937616D01*
X01930616Y00916578D01*
X01956384Y00901701D01*
X01985123Y00894000D01*
X02014877Y00894000D01*
X02043616Y00901701D01*
X02069384Y00916578D01*
X02090422Y00937616D01*
X02105299Y00963384D01*
X02113000Y00992123D01*
X02113000Y01021877D01*
X02105299Y01050616D01*
X02090422Y01076384D01*
X02069384Y01097422D01*
X02043616Y01112299D01*
X02014877Y01120000D01*
X01984738Y01119897D02*
X01510882Y01119897D01*
X01510882Y01103898D02*
X01941833Y01103898D01*
X01921094Y01087900D02*
X01510882Y01087900D01*
X01510569Y01071901D02*
X01906990Y01071901D01*
X01897753Y01055903D02*
X01510882Y01055903D01*
X01510882Y01039904D02*
X01891830Y01039904D01*
X01887544Y01023906D02*
X01508564Y01023906D01*
X01510882Y01007907D02*
X01887000Y01007907D01*
X01887057Y00991908D02*
X01510882Y00991908D01*
X01508380Y00975910D02*
X01891344Y00975910D01*
X01896705Y00959911D02*
X01430961Y00959911D01*
X01430961Y00943913D02*
X01905942Y00943913D01*
X01919279Y00927914D02*
X01430961Y00927914D01*
X01430961Y00911916D02*
X01938690Y00911916D01*
X01977968Y00895917D02*
X01428387Y00895917D01*
X01467150Y00835000D02*
X01388850Y00835000D01*
X01371943Y00827997D01*
X01359003Y00815057D01*
X01352000Y00798150D01*
X01352000Y00779850D01*
X01359003Y00762943D01*
X01371943Y00750003D01*
X01388850Y00743000D01*
X01467150Y00743000D01*
X01484057Y00750003D01*
X01496997Y00762943D01*
X01504000Y00779850D01*
X01504000Y00798150D01*
X01496997Y00815057D01*
X01484057Y00827997D01*
X01467150Y00835000D01*
X01474578Y00831923D02*
X02276508Y00831923D01*
X02276508Y00815925D02*
X01496129Y00815925D01*
X01503264Y00799926D02*
X02276508Y00799926D01*
X02276508Y00783928D02*
X01504000Y00783928D01*
X01499062Y00767929D02*
X02276508Y00767929D01*
X02276508Y00751931D02*
X01485984Y00751931D01*
X01467150Y00657000D02*
X01388850Y00657000D01*
X01371943Y00649997D01*
X01359003Y00637057D01*
X01352000Y00620150D01*
X01352000Y00601850D01*
X01359003Y00584943D01*
X01371943Y00572003D01*
X01388850Y00565000D01*
X01467150Y00565000D01*
X01484057Y00572003D01*
X01496997Y00584943D01*
X01504000Y00601850D01*
X01504000Y00620150D01*
X01496997Y00637057D01*
X01484057Y00649997D01*
X01467150Y00657000D01*
X01469710Y00655939D02*
X02276508Y00655939D01*
X02276508Y00639941D02*
X01494113Y00639941D01*
X01502429Y00623942D02*
X02276508Y00623942D01*
X02276508Y00607944D02*
X01504000Y00607944D01*
X01499897Y00591945D02*
X02276508Y00591945D01*
X02276508Y00575947D02*
X01488001Y00575947D01*
X01386290Y00655939D02*
X01213710Y00655939D01*
X01238113Y00639941D02*
X01361887Y00639941D01*
X01353571Y00623942D02*
X01246429Y00623942D01*
X01248000Y00607944D02*
X01352000Y00607944D01*
X01356102Y00591945D02*
X01243897Y00591945D01*
X01232001Y00575947D02*
X01367999Y00575947D01*
X01370016Y00751931D02*
X01229984Y00751931D01*
X01243062Y00767929D02*
X01356938Y00767929D01*
X01352000Y00783928D02*
X01248000Y00783928D01*
X01247264Y00799926D02*
X01352736Y00799926D01*
X01359871Y00815925D02*
X01240129Y00815925D01*
X01218578Y00831923D02*
X01381422Y00831923D01*
X01224000Y00847922D02*
X02276508Y00847922D01*
X02276508Y00863920D02*
X01224000Y00863920D01*
X01224000Y00879919D02*
X02276508Y00879919D01*
X02276508Y00895917D02*
X02022032Y00895917D01*
X02061309Y00911916D02*
X02276508Y00911916D01*
X02276508Y00927914D02*
X02080720Y00927914D01*
X02094058Y00943913D02*
X02276508Y00943913D01*
X02276508Y00959911D02*
X02103294Y00959911D01*
X02108656Y00975910D02*
X02276508Y00975910D01*
X02276508Y00991908D02*
X02112942Y00991908D01*
X02113000Y01007907D02*
X02276508Y01007907D01*
X02276508Y01023906D02*
X02112456Y01023906D01*
X02108170Y01039904D02*
X02276508Y01039904D01*
X02276508Y01055903D02*
X02102247Y01055903D01*
X02093010Y01071901D02*
X02276508Y01071901D01*
X02276508Y01087900D02*
X02078906Y01087900D01*
X02058167Y01103898D02*
X02276508Y01103898D01*
X02276508Y01247885D02*
X01975767Y01247885D01*
X01991766Y01263883D02*
X02276508Y01263883D01*
X02276508Y01407870D02*
X02082924Y01407870D01*
X02098922Y01423869D02*
X02276508Y01423869D01*
X02276508Y01439867D02*
X02102000Y01439867D01*
X02102000Y01455866D02*
X02276508Y01455866D01*
X02276508Y01471864D02*
X02095189Y01471864D01*
X02079191Y01487863D02*
X02276508Y01487863D01*
X02276508Y01503861D02*
X01990000Y01503861D01*
X01990000Y01487863D02*
X02032809Y01487863D01*
X02016810Y01471864D02*
X01980918Y01471864D01*
X01964919Y01455866D02*
X02010000Y01455866D01*
X02010000Y01439867D02*
X01561500Y01439867D01*
X01561500Y01423869D02*
X01910815Y01423869D01*
X01898000Y01407870D02*
X01561500Y01407870D01*
X01561500Y01391872D02*
X01898000Y01391872D01*
X01898000Y01375873D02*
X01561500Y01375873D01*
X01561500Y01359875D02*
X01911072Y01359875D01*
X01977185Y01423869D02*
X02013078Y01423869D01*
X01944000Y01500000D02*
X01900000Y01500000D01*
X01550000Y01850000D01*
X01487500Y01850000D01*
X01425000Y01787500D01*
X01425000Y01757000D01*
X01474999Y01757001D02*
X01474999Y01803558D01*
X01475000Y01803560D01*
X01475000Y01757001D01*
X01474999Y01757001D01*
X01475000Y01757000D02*
X01475000Y01787500D01*
X01512500Y01825000D01*
X01475000Y01791835D02*
X01474999Y01791835D01*
X01474999Y01775836D02*
X01475000Y01775836D01*
X01474999Y01759838D02*
X01475000Y01759838D01*
X01474999Y01743839D02*
X01475000Y01743839D01*
X01474999Y01727841D02*
X01475000Y01727841D01*
X01474999Y01711842D02*
X01475000Y01711842D01*
X01556100Y01727841D02*
X01638218Y01727841D01*
X01650000Y01712500D02*
X01862500Y01500000D01*
X01878196Y01487863D02*
X01561500Y01487863D01*
X01561500Y01471864D02*
X01907082Y01471864D01*
X01923080Y01455866D02*
X01561500Y01455866D01*
X01561500Y01679845D02*
X01686214Y01679845D01*
X01670215Y01695844D02*
X01561500Y01695844D01*
X01561500Y01711842D02*
X01654217Y01711842D01*
X01622220Y01743839D02*
X01554000Y01743839D01*
X01653112Y01855829D02*
X02276508Y01855829D01*
X02276508Y01871827D02*
X01637114Y01871827D01*
X01621115Y01887826D02*
X01956167Y01887826D01*
X01956384Y01887701D02*
X01985123Y01880000D01*
X02014877Y01880000D01*
X02043616Y01887701D01*
X02069384Y01902578D01*
X02090422Y01923616D01*
X02105299Y01949384D01*
X02113000Y01978123D01*
X02113000Y02007877D01*
X02105299Y02036616D01*
X02090422Y02062384D01*
X02069384Y02083422D01*
X02043616Y02098299D01*
X02014877Y02106000D01*
X01985123Y02106000D01*
X01956384Y02098299D01*
X01930616Y02083422D01*
X01909578Y02062384D01*
X01894701Y02036616D01*
X01887000Y02007877D01*
X01887000Y01978123D01*
X01894701Y01949384D01*
X01909578Y01923616D01*
X01930616Y01902578D01*
X01956384Y01887701D01*
X01929369Y01903824D02*
X01605117Y01903824D01*
X01589118Y01919823D02*
X01913371Y01919823D01*
X01902531Y01935821D02*
X01385620Y01935821D01*
X01369621Y01951820D02*
X01894048Y01951820D01*
X01889761Y01967818D02*
X01353623Y01967818D01*
X01337624Y01983817D02*
X01887000Y01983817D01*
X01887000Y01999815D02*
X01321625Y01999815D01*
X01305627Y02015814D02*
X01889127Y02015814D01*
X01893414Y02031813D02*
X01454522Y02031813D01*
X01464998Y02047811D02*
X01901164Y02047811D01*
X01911003Y02063810D02*
X01467575Y02063810D01*
X01476249Y02079808D02*
X01927002Y02079808D01*
X01952067Y02095807D02*
X01553434Y02095807D01*
X01554000Y02111805D02*
X02276508Y02111805D01*
X02276508Y02095807D02*
X02047933Y02095807D01*
X02072998Y02079808D02*
X02276508Y02079808D01*
X02276508Y02063810D02*
X02088996Y02063810D01*
X02098836Y02047811D02*
X02276508Y02047811D01*
X02276508Y02031813D02*
X02106586Y02031813D01*
X02110873Y02015814D02*
X02276508Y02015814D01*
X02276508Y01999815D02*
X02113000Y01999815D01*
X02113000Y01983817D02*
X02276508Y01983817D01*
X02276508Y01967818D02*
X02110239Y01967818D01*
X02105952Y01951820D02*
X02276508Y01951820D01*
X02276508Y01935821D02*
X02097469Y01935821D01*
X02086629Y01919823D02*
X02276508Y01919823D01*
X02276508Y01903824D02*
X02070630Y01903824D01*
X02043833Y01887826D02*
X02276508Y01887826D01*
X02276508Y01839830D02*
X01669111Y01839830D01*
X01685109Y01823832D02*
X02276508Y01823832D01*
X02276508Y01807833D02*
X01701108Y01807833D01*
X01717106Y01791835D02*
X02276508Y01791835D01*
X02276508Y01775836D02*
X01733105Y01775836D01*
X01749103Y01759838D02*
X01922784Y01759838D01*
X01924946Y01762000D02*
X01898000Y01735054D01*
X01898000Y01696946D01*
X01924946Y01670000D01*
X01963054Y01670000D01*
X01990000Y01696946D01*
X01990000Y01735054D01*
X01963054Y01762000D01*
X01924946Y01762000D01*
X01906785Y01743839D02*
X01765102Y01743839D01*
X01781100Y01727841D02*
X01898000Y01727841D01*
X01898000Y01711842D02*
X01797099Y01711842D01*
X01813097Y01695844D02*
X01899103Y01695844D01*
X01915101Y01679845D02*
X01829096Y01679845D01*
X01845094Y01663846D02*
X02010000Y01663846D01*
X02010000Y01647848D02*
X01969206Y01647848D01*
X01985204Y01631849D02*
X02021097Y01631849D01*
X02010000Y01679845D02*
X01972899Y01679845D01*
X01988897Y01695844D02*
X02024790Y01695844D01*
X01990000Y01711842D02*
X02276508Y01711842D01*
X02276508Y01695844D02*
X02087210Y01695844D01*
X02102000Y01679845D02*
X02276508Y01679845D01*
X02276508Y01663846D02*
X02102000Y01663846D01*
X02102000Y01647848D02*
X02276508Y01647848D01*
X02276508Y01727841D02*
X01990000Y01727841D01*
X01981215Y01743839D02*
X02276508Y01743839D01*
X02276508Y01759838D02*
X01965216Y01759838D01*
X01918794Y01647848D02*
X01861093Y01647848D01*
X01877092Y01631849D02*
X01902796Y01631849D01*
X01989194Y01519860D02*
X02025086Y01519860D01*
X01946000Y01263883D02*
X01942000Y01263883D01*
X01942000Y01247885D02*
X01946000Y01247885D01*
X02276508Y00735932D02*
X00797496Y00735932D01*
X00797496Y00719934D02*
X02276508Y00719934D01*
X02276508Y00703935D02*
X00788373Y00703935D01*
X00796502Y00687937D02*
X02276508Y00687937D01*
X02276508Y00671938D02*
X00797496Y00671938D01*
X00797496Y00655939D02*
X01130290Y00655939D01*
X01105887Y00639941D02*
X00797496Y00639941D01*
X00750000Y00629134D02*
X00750000Y00612500D01*
X01162500Y00612500D01*
X01172000Y00611000D01*
X01111999Y00575947D02*
X00797496Y00575947D01*
X00750000Y00629134D02*
X00750000Y00662500D01*
X00675000Y00737500D01*
X00675000Y00800000D01*
X00750000Y00787500D02*
X00750000Y00770866D01*
X00750000Y00787500D02*
X00825000Y00787500D01*
X00825000Y00800000D01*
X00825000Y00787500D02*
X01162500Y00787500D01*
X01172000Y00789000D01*
X01175000Y00800000D01*
X01175000Y00825000D01*
X01200000Y00850000D01*
X01200000Y00940551D01*
X01200000Y00975000D01*
X01000000Y00940551D02*
X01000000Y00912500D01*
X00925000Y00837500D01*
X00797496Y00751931D02*
X01114016Y00751931D01*
X00413144Y00927914D02*
X00317139Y00927914D01*
X00182861Y00927914D02*
X00137500Y00927914D01*
X00137500Y00911916D02*
X00175146Y00911916D01*
X00174000Y00895917D02*
X00137500Y00895917D01*
X00137500Y00879919D02*
X00178528Y00879919D01*
X00190878Y00735932D02*
X00137500Y00735932D01*
X00137500Y00719934D02*
X00178467Y00719934D01*
X00174000Y00703935D02*
X00137500Y00703935D01*
X00137500Y00687937D02*
X00175207Y00687937D01*
X00183008Y00671938D02*
X00137500Y00671938D01*
X00137500Y00655939D02*
X00206168Y00655939D01*
X00196222Y00639941D02*
X00137500Y00639941D01*
X00137500Y00623942D02*
X00180127Y00623942D01*
X00174000Y00607944D02*
X00137500Y00607944D01*
X00137500Y00591945D02*
X00174000Y00591945D01*
X00180173Y00575947D02*
X00137500Y00575947D01*
X00137500Y00559948D02*
X00196489Y00559948D01*
X00321533Y00719934D02*
X00332357Y00719934D01*
X00322244Y00735932D02*
X00309122Y00735932D01*
X00309158Y01135895D02*
X00355164Y01135895D01*
X01084777Y01775836D02*
X01146000Y01775836D01*
X01146000Y01791835D02*
X01100776Y01791835D01*
X01116774Y01807833D02*
X01150206Y01807833D01*
X01132773Y01823832D02*
X01254727Y01823832D01*
X01250206Y01807833D02*
X01249794Y01807833D01*
X01200206Y01807833D02*
X01199794Y01807833D01*
X01225000Y01757000D02*
X01225000Y01675000D01*
X01349794Y01807833D02*
X01350206Y01807833D01*
X01377391Y01823832D02*
X01322609Y01823832D01*
X01306611Y01839830D02*
X01393389Y01839830D01*
X01409388Y01855829D02*
X01290612Y01855829D01*
X01272519Y01871827D02*
X01425386Y01871827D01*
X01395478Y02031813D02*
X01289628Y02031813D01*
X01273630Y02047811D02*
X01385002Y02047811D01*
X01382425Y02063810D02*
X01257631Y02063810D01*
X01241633Y02079808D02*
X01386087Y02079808D01*
X01425000Y02062500D02*
X01475000Y02112500D01*
X01475000Y02143000D01*
X01425000Y02143000D02*
X01425000Y02237500D01*
X01475000Y02287500D01*
X01475000Y02350000D01*
X01479134Y02350000D01*
X01499000Y02287789D02*
X01541348Y02287789D01*
X01538226Y02303787D02*
X01557346Y02303787D01*
X01553685Y02319786D02*
X01546315Y02319786D01*
X01546315Y02335784D02*
X01553685Y02335784D01*
X01553685Y02351783D02*
X01546315Y02351783D01*
X01546315Y02367781D02*
X01553685Y02367781D01*
X01553685Y02383780D02*
X01546315Y02383780D01*
X01612500Y02350000D02*
X01612500Y02325000D01*
X01525000Y02237500D01*
X01525000Y02143000D01*
X01554000Y02143802D02*
X02276508Y02143802D01*
X02276508Y02127804D02*
X01554000Y02127804D01*
X01554000Y02159801D02*
X02276508Y02159801D01*
X02276508Y02175799D02*
X01554000Y02175799D01*
X01551829Y02191798D02*
X02276508Y02191798D01*
X02276508Y02207796D02*
X01549000Y02207796D01*
X01549000Y02223795D02*
X02276508Y02223795D01*
X02276508Y02239793D02*
X01561234Y02239793D01*
X01577233Y02255792D02*
X02276508Y02255792D01*
X02276508Y02271790D02*
X01593231Y02271790D01*
X01609230Y02287789D02*
X02276508Y02287789D01*
X02276508Y02303787D02*
X01679958Y02303787D01*
X01688047Y02319786D02*
X02276508Y02319786D01*
X02276508Y02335784D02*
X01688047Y02335784D01*
X01688047Y02351783D02*
X02276508Y02351783D01*
X02276508Y02367781D02*
X01688047Y02367781D01*
X01688047Y02383780D02*
X02276508Y02383780D01*
X02276508Y02399779D02*
X00137500Y02399779D01*
X00137500Y02415777D02*
X02276508Y02415777D01*
X02276508Y02431776D02*
X00137500Y02431776D01*
X00137500Y02447774D02*
X02276508Y02447774D01*
X01620866Y02350000D02*
X01612500Y02350000D01*
X01525349Y02271790D02*
X01493231Y02271790D01*
X01477233Y02255792D02*
X01509351Y02255792D01*
X01501000Y02239793D02*
X01461234Y02239793D01*
X01449000Y02223795D02*
X01501000Y02223795D01*
X01501000Y02207796D02*
X01449000Y02207796D01*
X01375000Y02143000D02*
X01375000Y02350000D01*
X01370866Y02350000D01*
X01351000Y02287789D02*
X01308652Y02287789D01*
X01311774Y02303787D02*
X01292654Y02303787D01*
X01296315Y02319786D02*
X01303685Y02319786D01*
X01303685Y02335784D02*
X01296315Y02335784D01*
X01296315Y02351783D02*
X01303685Y02351783D01*
X01303685Y02367781D02*
X01296315Y02367781D01*
X01296315Y02383780D02*
X01303685Y02383780D01*
X01237500Y02350000D02*
X01237500Y02325000D01*
X01325000Y02237500D01*
X01325000Y02143000D01*
X01275000Y02143000D02*
X01275000Y02175000D01*
X01225000Y02225000D01*
X01087500Y02225000D01*
X01048543Y02207796D02*
X00137500Y02207796D01*
X00137500Y02191798D02*
X01060492Y02191798D01*
X01044925Y02223795D02*
X00137500Y02223795D01*
X00137500Y02239793D02*
X01047545Y02239793D01*
X01058082Y02255792D02*
X00137500Y02255792D01*
X00137500Y02271790D02*
X01256768Y02271790D01*
X01240770Y02287789D02*
X00137500Y02287789D01*
X00137500Y02303787D02*
X01170042Y02303787D01*
X01161953Y02319786D02*
X00137500Y02319786D01*
X00137500Y02335784D02*
X01161953Y02335784D01*
X01161953Y02351783D02*
X00137500Y02351783D01*
X00137500Y02367781D02*
X01161953Y02367781D01*
X01161953Y02383780D02*
X00137500Y02383780D01*
X00137500Y02175799D02*
X01146000Y02175799D01*
X01146000Y02159801D02*
X00137500Y02159801D01*
X01114508Y02191798D02*
X01148170Y02191798D01*
X01116918Y02255792D02*
X01272767Y02255792D01*
X01288766Y02239793D02*
X01244148Y02239793D01*
X01260146Y02223795D02*
X01301000Y02223795D01*
X01301000Y02207796D02*
X01276145Y02207796D01*
X01324651Y02271790D02*
X01351000Y02271790D01*
X01351000Y02255792D02*
X01340649Y02255792D01*
X01349000Y02239793D02*
X01351000Y02239793D01*
X01351000Y02223795D02*
X01349000Y02223795D01*
X01349000Y02207796D02*
X01351000Y02207796D01*
X01237500Y02350000D02*
X01229134Y02350000D01*
D19*
X01087500Y02225000D03*
X01425000Y02062500D03*
X01225000Y01675000D03*
X01137500Y01637500D03*
X01037500Y01675000D03*
X00962500Y01825000D03*
X00712500Y01637500D03*
X00762500Y01400000D03*
X00687500Y01362500D03*
X00762500Y01262500D03*
X00912500Y01312500D03*
X00975000Y01312500D03*
X00912500Y01437500D03*
X01187500Y01462500D03*
X01287500Y01487500D03*
X01312500Y01400000D03*
X01587500Y01662500D03*
X00925000Y00837500D03*
X00825000Y00800000D03*
X00675000Y00800000D03*
X00362500Y00750000D03*
X00487500Y01350000D03*
M02*
