G75*
%MOIN*%
%OFA0B0*%
%FSLAX26Y26*%
%IPPOS*%
%LPD*%
%AMOC8*
5,1,8,0,0,1.08239X$1,22.5*
%
%ADD10C,0.000000*%
%ADD11C,0.008000*%
%ADD12C,0.004000*%
%ADD13C,0.006000*%
%ADD14C,0.002000*%
%ADD15C,0.007000*%
%ADD16C,0.005000*%
%ADD17R,0.020000X0.005000*%
%ADD18R,0.020000X0.020000*%
%ADD19C,0.016000*%
%ADD20R,0.016000X0.023000*%
D10*
X00000000Y00000000D02*
X00000000Y02524606D01*
X02324508Y02512106D01*
X02324508Y-00012500D01*
X00000000Y00000000D01*
X01935000Y01007000D02*
X01935020Y01008595D01*
X01935078Y01010189D01*
X01935176Y01011782D01*
X01935313Y01013371D01*
X01935489Y01014957D01*
X01935704Y01016537D01*
X01935957Y01018113D01*
X01936249Y01019681D01*
X01936579Y01021242D01*
X01936948Y01022794D01*
X01937355Y01024336D01*
X01937799Y01025869D01*
X01938281Y01027389D01*
X01938800Y01028898D01*
X01939355Y01030393D01*
X01939948Y01031874D01*
X01940576Y01033341D01*
X01941241Y01034791D01*
X01941940Y01036225D01*
X01942675Y01037641D01*
X01943444Y01039038D01*
X01944248Y01040417D01*
X01945085Y01041775D01*
X01945954Y01043112D01*
X01946857Y01044428D01*
X01947792Y01045720D01*
X01948757Y01046990D01*
X01949754Y01048236D01*
X01950781Y01049456D01*
X01951838Y01050651D01*
X01952924Y01051820D01*
X01954038Y01052962D01*
X01955180Y01054076D01*
X01956349Y01055162D01*
X01957544Y01056219D01*
X01958764Y01057246D01*
X01960010Y01058243D01*
X01961280Y01059208D01*
X01962572Y01060143D01*
X01963888Y01061046D01*
X01965225Y01061915D01*
X01966583Y01062752D01*
X01967962Y01063556D01*
X01969359Y01064325D01*
X01970775Y01065060D01*
X01972209Y01065759D01*
X01973659Y01066424D01*
X01975126Y01067052D01*
X01976607Y01067645D01*
X01978102Y01068200D01*
X01979611Y01068719D01*
X01981131Y01069201D01*
X01982664Y01069645D01*
X01984206Y01070052D01*
X01985758Y01070421D01*
X01987319Y01070751D01*
X01988887Y01071043D01*
X01990463Y01071296D01*
X01992043Y01071511D01*
X01993629Y01071687D01*
X01995218Y01071824D01*
X01996811Y01071922D01*
X01998405Y01071980D01*
X02000000Y01072000D01*
X02001595Y01071980D01*
X02003189Y01071922D01*
X02004782Y01071824D01*
X02006371Y01071687D01*
X02007957Y01071511D01*
X02009537Y01071296D01*
X02011113Y01071043D01*
X02012681Y01070751D01*
X02014242Y01070421D01*
X02015794Y01070052D01*
X02017336Y01069645D01*
X02018869Y01069201D01*
X02020389Y01068719D01*
X02021898Y01068200D01*
X02023393Y01067645D01*
X02024874Y01067052D01*
X02026341Y01066424D01*
X02027791Y01065759D01*
X02029225Y01065060D01*
X02030641Y01064325D01*
X02032038Y01063556D01*
X02033417Y01062752D01*
X02034775Y01061915D01*
X02036112Y01061046D01*
X02037428Y01060143D01*
X02038720Y01059208D01*
X02039990Y01058243D01*
X02041236Y01057246D01*
X02042456Y01056219D01*
X02043651Y01055162D01*
X02044820Y01054076D01*
X02045962Y01052962D01*
X02047076Y01051820D01*
X02048162Y01050651D01*
X02049219Y01049456D01*
X02050246Y01048236D01*
X02051243Y01046990D01*
X02052208Y01045720D01*
X02053143Y01044428D01*
X02054046Y01043112D01*
X02054915Y01041775D01*
X02055752Y01040417D01*
X02056556Y01039038D01*
X02057325Y01037641D01*
X02058060Y01036225D01*
X02058759Y01034791D01*
X02059424Y01033341D01*
X02060052Y01031874D01*
X02060645Y01030393D01*
X02061200Y01028898D01*
X02061719Y01027389D01*
X02062201Y01025869D01*
X02062645Y01024336D01*
X02063052Y01022794D01*
X02063421Y01021242D01*
X02063751Y01019681D01*
X02064043Y01018113D01*
X02064296Y01016537D01*
X02064511Y01014957D01*
X02064687Y01013371D01*
X02064824Y01011782D01*
X02064922Y01010189D01*
X02064980Y01008595D01*
X02065000Y01007000D01*
X02064980Y01005405D01*
X02064922Y01003811D01*
X02064824Y01002218D01*
X02064687Y01000629D01*
X02064511Y00999043D01*
X02064296Y00997463D01*
X02064043Y00995887D01*
X02063751Y00994319D01*
X02063421Y00992758D01*
X02063052Y00991206D01*
X02062645Y00989664D01*
X02062201Y00988131D01*
X02061719Y00986611D01*
X02061200Y00985102D01*
X02060645Y00983607D01*
X02060052Y00982126D01*
X02059424Y00980659D01*
X02058759Y00979209D01*
X02058060Y00977775D01*
X02057325Y00976359D01*
X02056556Y00974962D01*
X02055752Y00973583D01*
X02054915Y00972225D01*
X02054046Y00970888D01*
X02053143Y00969572D01*
X02052208Y00968280D01*
X02051243Y00967010D01*
X02050246Y00965764D01*
X02049219Y00964544D01*
X02048162Y00963349D01*
X02047076Y00962180D01*
X02045962Y00961038D01*
X02044820Y00959924D01*
X02043651Y00958838D01*
X02042456Y00957781D01*
X02041236Y00956754D01*
X02039990Y00955757D01*
X02038720Y00954792D01*
X02037428Y00953857D01*
X02036112Y00952954D01*
X02034775Y00952085D01*
X02033417Y00951248D01*
X02032038Y00950444D01*
X02030641Y00949675D01*
X02029225Y00948940D01*
X02027791Y00948241D01*
X02026341Y00947576D01*
X02024874Y00946948D01*
X02023393Y00946355D01*
X02021898Y00945800D01*
X02020389Y00945281D01*
X02018869Y00944799D01*
X02017336Y00944355D01*
X02015794Y00943948D01*
X02014242Y00943579D01*
X02012681Y00943249D01*
X02011113Y00942957D01*
X02009537Y00942704D01*
X02007957Y00942489D01*
X02006371Y00942313D01*
X02004782Y00942176D01*
X02003189Y00942078D01*
X02001595Y00942020D01*
X02000000Y00942000D01*
X01998405Y00942020D01*
X01996811Y00942078D01*
X01995218Y00942176D01*
X01993629Y00942313D01*
X01992043Y00942489D01*
X01990463Y00942704D01*
X01988887Y00942957D01*
X01987319Y00943249D01*
X01985758Y00943579D01*
X01984206Y00943948D01*
X01982664Y00944355D01*
X01981131Y00944799D01*
X01979611Y00945281D01*
X01978102Y00945800D01*
X01976607Y00946355D01*
X01975126Y00946948D01*
X01973659Y00947576D01*
X01972209Y00948241D01*
X01970775Y00948940D01*
X01969359Y00949675D01*
X01967962Y00950444D01*
X01966583Y00951248D01*
X01965225Y00952085D01*
X01963888Y00952954D01*
X01962572Y00953857D01*
X01961280Y00954792D01*
X01960010Y00955757D01*
X01958764Y00956754D01*
X01957544Y00957781D01*
X01956349Y00958838D01*
X01955180Y00959924D01*
X01954038Y00961038D01*
X01952924Y00962180D01*
X01951838Y00963349D01*
X01950781Y00964544D01*
X01949754Y00965764D01*
X01948757Y00967010D01*
X01947792Y00968280D01*
X01946857Y00969572D01*
X01945954Y00970888D01*
X01945085Y00972225D01*
X01944248Y00973583D01*
X01943444Y00974962D01*
X01942675Y00976359D01*
X01941940Y00977775D01*
X01941241Y00979209D01*
X01940576Y00980659D01*
X01939948Y00982126D01*
X01939355Y00983607D01*
X01938800Y00985102D01*
X01938281Y00986611D01*
X01937799Y00988131D01*
X01937355Y00989664D01*
X01936948Y00991206D01*
X01936579Y00992758D01*
X01936249Y00994319D01*
X01935957Y00995887D01*
X01935704Y00997463D01*
X01935489Y00999043D01*
X01935313Y01000629D01*
X01935176Y01002218D01*
X01935078Y01003811D01*
X01935020Y01005405D01*
X01935000Y01007000D01*
X01935000Y01993000D02*
X01935020Y01994595D01*
X01935078Y01996189D01*
X01935176Y01997782D01*
X01935313Y01999371D01*
X01935489Y02000957D01*
X01935704Y02002537D01*
X01935957Y02004113D01*
X01936249Y02005681D01*
X01936579Y02007242D01*
X01936948Y02008794D01*
X01937355Y02010336D01*
X01937799Y02011869D01*
X01938281Y02013389D01*
X01938800Y02014898D01*
X01939355Y02016393D01*
X01939948Y02017874D01*
X01940576Y02019341D01*
X01941241Y02020791D01*
X01941940Y02022225D01*
X01942675Y02023641D01*
X01943444Y02025038D01*
X01944248Y02026417D01*
X01945085Y02027775D01*
X01945954Y02029112D01*
X01946857Y02030428D01*
X01947792Y02031720D01*
X01948757Y02032990D01*
X01949754Y02034236D01*
X01950781Y02035456D01*
X01951838Y02036651D01*
X01952924Y02037820D01*
X01954038Y02038962D01*
X01955180Y02040076D01*
X01956349Y02041162D01*
X01957544Y02042219D01*
X01958764Y02043246D01*
X01960010Y02044243D01*
X01961280Y02045208D01*
X01962572Y02046143D01*
X01963888Y02047046D01*
X01965225Y02047915D01*
X01966583Y02048752D01*
X01967962Y02049556D01*
X01969359Y02050325D01*
X01970775Y02051060D01*
X01972209Y02051759D01*
X01973659Y02052424D01*
X01975126Y02053052D01*
X01976607Y02053645D01*
X01978102Y02054200D01*
X01979611Y02054719D01*
X01981131Y02055201D01*
X01982664Y02055645D01*
X01984206Y02056052D01*
X01985758Y02056421D01*
X01987319Y02056751D01*
X01988887Y02057043D01*
X01990463Y02057296D01*
X01992043Y02057511D01*
X01993629Y02057687D01*
X01995218Y02057824D01*
X01996811Y02057922D01*
X01998405Y02057980D01*
X02000000Y02058000D01*
X02001595Y02057980D01*
X02003189Y02057922D01*
X02004782Y02057824D01*
X02006371Y02057687D01*
X02007957Y02057511D01*
X02009537Y02057296D01*
X02011113Y02057043D01*
X02012681Y02056751D01*
X02014242Y02056421D01*
X02015794Y02056052D01*
X02017336Y02055645D01*
X02018869Y02055201D01*
X02020389Y02054719D01*
X02021898Y02054200D01*
X02023393Y02053645D01*
X02024874Y02053052D01*
X02026341Y02052424D01*
X02027791Y02051759D01*
X02029225Y02051060D01*
X02030641Y02050325D01*
X02032038Y02049556D01*
X02033417Y02048752D01*
X02034775Y02047915D01*
X02036112Y02047046D01*
X02037428Y02046143D01*
X02038720Y02045208D01*
X02039990Y02044243D01*
X02041236Y02043246D01*
X02042456Y02042219D01*
X02043651Y02041162D01*
X02044820Y02040076D01*
X02045962Y02038962D01*
X02047076Y02037820D01*
X02048162Y02036651D01*
X02049219Y02035456D01*
X02050246Y02034236D01*
X02051243Y02032990D01*
X02052208Y02031720D01*
X02053143Y02030428D01*
X02054046Y02029112D01*
X02054915Y02027775D01*
X02055752Y02026417D01*
X02056556Y02025038D01*
X02057325Y02023641D01*
X02058060Y02022225D01*
X02058759Y02020791D01*
X02059424Y02019341D01*
X02060052Y02017874D01*
X02060645Y02016393D01*
X02061200Y02014898D01*
X02061719Y02013389D01*
X02062201Y02011869D01*
X02062645Y02010336D01*
X02063052Y02008794D01*
X02063421Y02007242D01*
X02063751Y02005681D01*
X02064043Y02004113D01*
X02064296Y02002537D01*
X02064511Y02000957D01*
X02064687Y01999371D01*
X02064824Y01997782D01*
X02064922Y01996189D01*
X02064980Y01994595D01*
X02065000Y01993000D01*
X02064980Y01991405D01*
X02064922Y01989811D01*
X02064824Y01988218D01*
X02064687Y01986629D01*
X02064511Y01985043D01*
X02064296Y01983463D01*
X02064043Y01981887D01*
X02063751Y01980319D01*
X02063421Y01978758D01*
X02063052Y01977206D01*
X02062645Y01975664D01*
X02062201Y01974131D01*
X02061719Y01972611D01*
X02061200Y01971102D01*
X02060645Y01969607D01*
X02060052Y01968126D01*
X02059424Y01966659D01*
X02058759Y01965209D01*
X02058060Y01963775D01*
X02057325Y01962359D01*
X02056556Y01960962D01*
X02055752Y01959583D01*
X02054915Y01958225D01*
X02054046Y01956888D01*
X02053143Y01955572D01*
X02052208Y01954280D01*
X02051243Y01953010D01*
X02050246Y01951764D01*
X02049219Y01950544D01*
X02048162Y01949349D01*
X02047076Y01948180D01*
X02045962Y01947038D01*
X02044820Y01945924D01*
X02043651Y01944838D01*
X02042456Y01943781D01*
X02041236Y01942754D01*
X02039990Y01941757D01*
X02038720Y01940792D01*
X02037428Y01939857D01*
X02036112Y01938954D01*
X02034775Y01938085D01*
X02033417Y01937248D01*
X02032038Y01936444D01*
X02030641Y01935675D01*
X02029225Y01934940D01*
X02027791Y01934241D01*
X02026341Y01933576D01*
X02024874Y01932948D01*
X02023393Y01932355D01*
X02021898Y01931800D01*
X02020389Y01931281D01*
X02018869Y01930799D01*
X02017336Y01930355D01*
X02015794Y01929948D01*
X02014242Y01929579D01*
X02012681Y01929249D01*
X02011113Y01928957D01*
X02009537Y01928704D01*
X02007957Y01928489D01*
X02006371Y01928313D01*
X02004782Y01928176D01*
X02003189Y01928078D01*
X02001595Y01928020D01*
X02000000Y01928000D01*
X01998405Y01928020D01*
X01996811Y01928078D01*
X01995218Y01928176D01*
X01993629Y01928313D01*
X01992043Y01928489D01*
X01990463Y01928704D01*
X01988887Y01928957D01*
X01987319Y01929249D01*
X01985758Y01929579D01*
X01984206Y01929948D01*
X01982664Y01930355D01*
X01981131Y01930799D01*
X01979611Y01931281D01*
X01978102Y01931800D01*
X01976607Y01932355D01*
X01975126Y01932948D01*
X01973659Y01933576D01*
X01972209Y01934241D01*
X01970775Y01934940D01*
X01969359Y01935675D01*
X01967962Y01936444D01*
X01966583Y01937248D01*
X01965225Y01938085D01*
X01963888Y01938954D01*
X01962572Y01939857D01*
X01961280Y01940792D01*
X01960010Y01941757D01*
X01958764Y01942754D01*
X01957544Y01943781D01*
X01956349Y01944838D01*
X01955180Y01945924D01*
X01954038Y01947038D01*
X01952924Y01948180D01*
X01951838Y01949349D01*
X01950781Y01950544D01*
X01949754Y01951764D01*
X01948757Y01953010D01*
X01947792Y01954280D01*
X01946857Y01955572D01*
X01945954Y01956888D01*
X01945085Y01958225D01*
X01944248Y01959583D01*
X01943444Y01960962D01*
X01942675Y01962359D01*
X01941940Y01963775D01*
X01941241Y01965209D01*
X01940576Y01966659D01*
X01939948Y01968126D01*
X01939355Y01969607D01*
X01938800Y01971102D01*
X01938281Y01972611D01*
X01937799Y01974131D01*
X01937355Y01975664D01*
X01936948Y01977206D01*
X01936579Y01978758D01*
X01936249Y01980319D01*
X01935957Y01981887D01*
X01935704Y01983463D01*
X01935489Y01985043D01*
X01935313Y01986629D01*
X01935176Y01988218D01*
X01935078Y01989811D01*
X01935020Y01991405D01*
X01935000Y01993000D01*
D11*
X01634646Y02300787D02*
X01599213Y02265354D01*
X01465354Y02265354D01*
X01465354Y02306693D01*
X01384646Y02308661D02*
X01384646Y02300787D01*
X01349213Y02265354D01*
X01215354Y02265354D01*
X01215354Y02306693D01*
X01215354Y02393307D02*
X01215354Y02434646D01*
X01349213Y02434646D01*
X01384646Y02399213D01*
X01384646Y02393307D01*
X01465354Y02393307D02*
X01465354Y02434646D01*
X01599213Y02434646D01*
X01634646Y02399213D01*
X01634646Y02393307D01*
X01634646Y02308661D02*
X01634646Y02300787D01*
X01614960Y02387401D02*
X01614029Y02388974D01*
X01613060Y02390523D01*
X01612053Y02392049D01*
X01611010Y02393549D01*
X01609930Y02395023D01*
X01608815Y02396471D01*
X01607664Y02397891D01*
X01606480Y02399282D01*
X01605261Y02400645D01*
X01604010Y02401977D01*
X01602727Y02403278D01*
X01601413Y02404548D01*
X01600067Y02405785D01*
X01598693Y02406989D01*
X01597289Y02408159D01*
X01595857Y02409295D01*
X01594398Y02410395D01*
X01592912Y02411459D01*
X01591401Y02412487D01*
X01589865Y02413478D01*
X01588306Y02414431D01*
X01586724Y02415346D01*
X01585120Y02416222D01*
X01583495Y02417058D01*
X01581850Y02417855D01*
X01580187Y02418611D01*
X01578505Y02419326D01*
X01576807Y02420001D01*
X01575092Y02420634D01*
X01573363Y02421224D01*
X01571619Y02421773D01*
X01569863Y02422278D01*
X01568095Y02422741D01*
X01566316Y02423161D01*
X01564528Y02423537D01*
X01562731Y02423869D01*
X01560926Y02424157D01*
X01559115Y02424402D01*
X01557299Y02424602D01*
X01555478Y02424758D01*
X01553654Y02424869D01*
X01551827Y02424936D01*
X01550000Y02424958D01*
X01548173Y02424936D01*
X01546346Y02424869D01*
X01544522Y02424758D01*
X01542701Y02424602D01*
X01540885Y02424402D01*
X01539074Y02424157D01*
X01537269Y02423869D01*
X01535472Y02423537D01*
X01533684Y02423161D01*
X01531905Y02422741D01*
X01530137Y02422278D01*
X01528381Y02421773D01*
X01526637Y02421224D01*
X01524908Y02420634D01*
X01523193Y02420001D01*
X01521495Y02419326D01*
X01519813Y02418611D01*
X01518150Y02417855D01*
X01516505Y02417058D01*
X01514880Y02416222D01*
X01513276Y02415346D01*
X01511694Y02414431D01*
X01510135Y02413478D01*
X01508599Y02412487D01*
X01507088Y02411459D01*
X01505602Y02410395D01*
X01504143Y02409295D01*
X01502711Y02408159D01*
X01501307Y02406989D01*
X01499933Y02405785D01*
X01498587Y02404548D01*
X01497273Y02403278D01*
X01495990Y02401977D01*
X01494739Y02400645D01*
X01493520Y02399282D01*
X01492336Y02397891D01*
X01491185Y02396471D01*
X01490070Y02395023D01*
X01488990Y02393549D01*
X01487947Y02392049D01*
X01486940Y02390523D01*
X01485971Y02388974D01*
X01485040Y02387401D01*
X01485040Y02312599D02*
X01485971Y02311026D01*
X01486940Y02309477D01*
X01487947Y02307951D01*
X01488990Y02306451D01*
X01490070Y02304977D01*
X01491185Y02303529D01*
X01492336Y02302109D01*
X01493520Y02300718D01*
X01494739Y02299355D01*
X01495990Y02298023D01*
X01497273Y02296722D01*
X01498587Y02295452D01*
X01499933Y02294215D01*
X01501307Y02293011D01*
X01502711Y02291841D01*
X01504143Y02290705D01*
X01505602Y02289605D01*
X01507088Y02288541D01*
X01508599Y02287513D01*
X01510135Y02286522D01*
X01511694Y02285569D01*
X01513276Y02284654D01*
X01514880Y02283778D01*
X01516505Y02282942D01*
X01518150Y02282145D01*
X01519813Y02281389D01*
X01521495Y02280674D01*
X01523193Y02279999D01*
X01524908Y02279366D01*
X01526637Y02278776D01*
X01528381Y02278227D01*
X01530137Y02277722D01*
X01531905Y02277259D01*
X01533684Y02276839D01*
X01535472Y02276463D01*
X01537269Y02276131D01*
X01539074Y02275843D01*
X01540885Y02275598D01*
X01542701Y02275398D01*
X01544522Y02275242D01*
X01546346Y02275131D01*
X01548173Y02275064D01*
X01550000Y02275042D01*
X01551827Y02275064D01*
X01553654Y02275131D01*
X01555478Y02275242D01*
X01557299Y02275398D01*
X01559115Y02275598D01*
X01560926Y02275843D01*
X01562731Y02276131D01*
X01564528Y02276463D01*
X01566316Y02276839D01*
X01568095Y02277259D01*
X01569863Y02277722D01*
X01571619Y02278227D01*
X01573363Y02278776D01*
X01575092Y02279366D01*
X01576807Y02279999D01*
X01578505Y02280674D01*
X01580187Y02281389D01*
X01581850Y02282145D01*
X01583495Y02282942D01*
X01585120Y02283778D01*
X01586724Y02284654D01*
X01588306Y02285569D01*
X01589865Y02286522D01*
X01591401Y02287513D01*
X01592912Y02288541D01*
X01594398Y02289605D01*
X01595857Y02290705D01*
X01597289Y02291841D01*
X01598693Y02293011D01*
X01600067Y02294215D01*
X01601413Y02295452D01*
X01602727Y02296722D01*
X01604010Y02298023D01*
X01605261Y02299355D01*
X01606480Y02300718D01*
X01607664Y02302109D01*
X01608815Y02303529D01*
X01609930Y02304977D01*
X01611010Y02306451D01*
X01612053Y02307951D01*
X01613060Y02309477D01*
X01614029Y02311026D01*
X01614960Y02312599D01*
X01364960Y02387401D02*
X01364029Y02388974D01*
X01363060Y02390523D01*
X01362053Y02392049D01*
X01361010Y02393549D01*
X01359930Y02395023D01*
X01358815Y02396471D01*
X01357664Y02397891D01*
X01356480Y02399282D01*
X01355261Y02400645D01*
X01354010Y02401977D01*
X01352727Y02403278D01*
X01351413Y02404548D01*
X01350067Y02405785D01*
X01348693Y02406989D01*
X01347289Y02408159D01*
X01345857Y02409295D01*
X01344398Y02410395D01*
X01342912Y02411459D01*
X01341401Y02412487D01*
X01339865Y02413478D01*
X01338306Y02414431D01*
X01336724Y02415346D01*
X01335120Y02416222D01*
X01333495Y02417058D01*
X01331850Y02417855D01*
X01330187Y02418611D01*
X01328505Y02419326D01*
X01326807Y02420001D01*
X01325092Y02420634D01*
X01323363Y02421224D01*
X01321619Y02421773D01*
X01319863Y02422278D01*
X01318095Y02422741D01*
X01316316Y02423161D01*
X01314528Y02423537D01*
X01312731Y02423869D01*
X01310926Y02424157D01*
X01309115Y02424402D01*
X01307299Y02424602D01*
X01305478Y02424758D01*
X01303654Y02424869D01*
X01301827Y02424936D01*
X01300000Y02424958D01*
X01298173Y02424936D01*
X01296346Y02424869D01*
X01294522Y02424758D01*
X01292701Y02424602D01*
X01290885Y02424402D01*
X01289074Y02424157D01*
X01287269Y02423869D01*
X01285472Y02423537D01*
X01283684Y02423161D01*
X01281905Y02422741D01*
X01280137Y02422278D01*
X01278381Y02421773D01*
X01276637Y02421224D01*
X01274908Y02420634D01*
X01273193Y02420001D01*
X01271495Y02419326D01*
X01269813Y02418611D01*
X01268150Y02417855D01*
X01266505Y02417058D01*
X01264880Y02416222D01*
X01263276Y02415346D01*
X01261694Y02414431D01*
X01260135Y02413478D01*
X01258599Y02412487D01*
X01257088Y02411459D01*
X01255602Y02410395D01*
X01254143Y02409295D01*
X01252711Y02408159D01*
X01251307Y02406989D01*
X01249933Y02405785D01*
X01248587Y02404548D01*
X01247273Y02403278D01*
X01245990Y02401977D01*
X01244739Y02400645D01*
X01243520Y02399282D01*
X01242336Y02397891D01*
X01241185Y02396471D01*
X01240070Y02395023D01*
X01238990Y02393549D01*
X01237947Y02392049D01*
X01236940Y02390523D01*
X01235971Y02388974D01*
X01235040Y02387401D01*
X01235040Y02312599D02*
X01235971Y02311026D01*
X01236940Y02309477D01*
X01237947Y02307951D01*
X01238990Y02306451D01*
X01240070Y02304977D01*
X01241185Y02303529D01*
X01242336Y02302109D01*
X01243520Y02300718D01*
X01244739Y02299355D01*
X01245990Y02298023D01*
X01247273Y02296722D01*
X01248587Y02295452D01*
X01249933Y02294215D01*
X01251307Y02293011D01*
X01252711Y02291841D01*
X01254143Y02290705D01*
X01255602Y02289605D01*
X01257088Y02288541D01*
X01258599Y02287513D01*
X01260135Y02286522D01*
X01261694Y02285569D01*
X01263276Y02284654D01*
X01264880Y02283778D01*
X01266505Y02282942D01*
X01268150Y02282145D01*
X01269813Y02281389D01*
X01271495Y02280674D01*
X01273193Y02279999D01*
X01274908Y02279366D01*
X01276637Y02278776D01*
X01278381Y02278227D01*
X01280137Y02277722D01*
X01281905Y02277259D01*
X01283684Y02276839D01*
X01285472Y02276463D01*
X01287269Y02276131D01*
X01289074Y02275843D01*
X01290885Y02275598D01*
X01292701Y02275398D01*
X01294522Y02275242D01*
X01296346Y02275131D01*
X01298173Y02275064D01*
X01300000Y02275042D01*
X01301827Y02275064D01*
X01303654Y02275131D01*
X01305478Y02275242D01*
X01307299Y02275398D01*
X01309115Y02275598D01*
X01310926Y02275843D01*
X01312731Y02276131D01*
X01314528Y02276463D01*
X01316316Y02276839D01*
X01318095Y02277259D01*
X01319863Y02277722D01*
X01321619Y02278227D01*
X01323363Y02278776D01*
X01325092Y02279366D01*
X01326807Y02279999D01*
X01328505Y02280674D01*
X01330187Y02281389D01*
X01331850Y02282145D01*
X01333495Y02282942D01*
X01335120Y02283778D01*
X01336724Y02284654D01*
X01338306Y02285569D01*
X01339865Y02286522D01*
X01341401Y02287513D01*
X01342912Y02288541D01*
X01344398Y02289605D01*
X01345857Y02290705D01*
X01347289Y02291841D01*
X01348693Y02293011D01*
X01350067Y02294215D01*
X01351413Y02295452D01*
X01352727Y02296722D01*
X01354010Y02298023D01*
X01355261Y02299355D01*
X01356480Y02300718D01*
X01357664Y02302109D01*
X01358815Y02303529D01*
X01359930Y02304977D01*
X01361010Y02306451D01*
X01362053Y02307951D01*
X01363060Y02309477D01*
X01364029Y02311026D01*
X01364960Y02312599D01*
X00799213Y00784646D02*
X00834646Y00749213D01*
X00834646Y00615354D01*
X00793307Y00615354D01*
X00706693Y00615354D02*
X00665354Y00615354D01*
X00665354Y00749213D01*
X00700787Y00784646D01*
X00706693Y00784646D01*
X00787401Y00764960D02*
X00788974Y00764029D01*
X00790523Y00763060D01*
X00792049Y00762053D01*
X00793549Y00761010D01*
X00795023Y00759930D01*
X00796471Y00758815D01*
X00797891Y00757664D01*
X00799282Y00756480D01*
X00800645Y00755261D01*
X00801977Y00754010D01*
X00803278Y00752727D01*
X00804548Y00751413D01*
X00805785Y00750067D01*
X00806989Y00748693D01*
X00808159Y00747289D01*
X00809295Y00745857D01*
X00810395Y00744398D01*
X00811459Y00742912D01*
X00812487Y00741401D01*
X00813478Y00739865D01*
X00814431Y00738306D01*
X00815346Y00736724D01*
X00816222Y00735120D01*
X00817058Y00733495D01*
X00817855Y00731850D01*
X00818611Y00730187D01*
X00819326Y00728505D01*
X00820001Y00726807D01*
X00820634Y00725092D01*
X00821224Y00723363D01*
X00821773Y00721619D01*
X00822278Y00719863D01*
X00822741Y00718095D01*
X00823161Y00716316D01*
X00823537Y00714528D01*
X00823869Y00712731D01*
X00824157Y00710926D01*
X00824402Y00709115D01*
X00824602Y00707299D01*
X00824758Y00705478D01*
X00824869Y00703654D01*
X00824936Y00701827D01*
X00824958Y00700000D01*
X00824936Y00698173D01*
X00824869Y00696346D01*
X00824758Y00694522D01*
X00824602Y00692701D01*
X00824402Y00690885D01*
X00824157Y00689074D01*
X00823869Y00687269D01*
X00823537Y00685472D01*
X00823161Y00683684D01*
X00822741Y00681905D01*
X00822278Y00680137D01*
X00821773Y00678381D01*
X00821224Y00676637D01*
X00820634Y00674908D01*
X00820001Y00673193D01*
X00819326Y00671495D01*
X00818611Y00669813D01*
X00817855Y00668150D01*
X00817058Y00666505D01*
X00816222Y00664880D01*
X00815346Y00663276D01*
X00814431Y00661694D01*
X00813478Y00660135D01*
X00812487Y00658599D01*
X00811459Y00657088D01*
X00810395Y00655602D01*
X00809295Y00654143D01*
X00808159Y00652711D01*
X00806989Y00651307D01*
X00805785Y00649933D01*
X00804548Y00648587D01*
X00803278Y00647273D01*
X00801977Y00645990D01*
X00800645Y00644739D01*
X00799282Y00643520D01*
X00797891Y00642336D01*
X00796471Y00641185D01*
X00795023Y00640070D01*
X00793549Y00638990D01*
X00792049Y00637947D01*
X00790523Y00636940D01*
X00788974Y00635971D01*
X00787401Y00635040D01*
X00712599Y00635040D02*
X00711026Y00635971D01*
X00709477Y00636940D01*
X00707951Y00637947D01*
X00706451Y00638990D01*
X00704977Y00640070D01*
X00703529Y00641185D01*
X00702109Y00642336D01*
X00700718Y00643520D01*
X00699355Y00644739D01*
X00698023Y00645990D01*
X00696722Y00647273D01*
X00695452Y00648587D01*
X00694215Y00649933D01*
X00693011Y00651307D01*
X00691841Y00652711D01*
X00690705Y00654143D01*
X00689605Y00655602D01*
X00688541Y00657088D01*
X00687513Y00658599D01*
X00686522Y00660135D01*
X00685569Y00661694D01*
X00684654Y00663276D01*
X00683778Y00664880D01*
X00682942Y00666505D01*
X00682145Y00668150D01*
X00681389Y00669813D01*
X00680674Y00671495D01*
X00679999Y00673193D01*
X00679366Y00674908D01*
X00678776Y00676637D01*
X00678227Y00678381D01*
X00677722Y00680137D01*
X00677259Y00681905D01*
X00676839Y00683684D01*
X00676463Y00685472D01*
X00676131Y00687269D01*
X00675843Y00689074D01*
X00675598Y00690885D01*
X00675398Y00692701D01*
X00675242Y00694522D01*
X00675131Y00696346D01*
X00675064Y00698173D01*
X00675042Y00700000D01*
X00675064Y00701827D01*
X00675131Y00703654D01*
X00675242Y00705478D01*
X00675398Y00707299D01*
X00675598Y00709115D01*
X00675843Y00710926D01*
X00676131Y00712731D01*
X00676463Y00714528D01*
X00676839Y00716316D01*
X00677259Y00718095D01*
X00677722Y00719863D01*
X00678227Y00721619D01*
X00678776Y00723363D01*
X00679366Y00725092D01*
X00679999Y00726807D01*
X00680674Y00728505D01*
X00681389Y00730187D01*
X00682145Y00731850D01*
X00682942Y00733495D01*
X00683778Y00735120D01*
X00684654Y00736724D01*
X00685569Y00738306D01*
X00686522Y00739865D01*
X00687513Y00741401D01*
X00688541Y00742912D01*
X00689605Y00744398D01*
X00690705Y00745857D01*
X00691841Y00747289D01*
X00693011Y00748693D01*
X00694215Y00750067D01*
X00695452Y00751413D01*
X00696722Y00752727D01*
X00698023Y00754010D01*
X00699355Y00755261D01*
X00700718Y00756480D01*
X00702109Y00757664D01*
X00703529Y00758815D01*
X00704977Y00759930D01*
X00706451Y00761010D01*
X00707951Y00762053D01*
X00709477Y00763060D01*
X00711026Y00764029D01*
X00712599Y00764960D01*
X00791339Y00784646D02*
X00799213Y00784646D01*
D12*
X00650362Y00682870D02*
X00650362Y00667523D01*
X00642689Y00659850D01*
X00642689Y00644504D02*
X00650362Y00636831D01*
X00650362Y00621484D01*
X00642689Y00613811D01*
X00611996Y00613811D01*
X00604323Y00621484D01*
X00604323Y00636831D01*
X00611996Y00644504D01*
X00611996Y00659850D02*
X00604323Y00667523D01*
X00604323Y00682870D01*
X00611996Y00690543D01*
X00619669Y00690543D01*
X00627343Y00682870D01*
X00635016Y00690543D01*
X00642689Y00690543D01*
X00650362Y00682870D01*
X00627343Y00682870D02*
X00627343Y00675197D01*
X00170000Y00945594D02*
X00170000Y00953268D01*
X00162327Y00960941D01*
X00123961Y00960941D01*
X00123961Y00953268D02*
X00123961Y00968614D01*
X00139307Y00983961D02*
X00123961Y00999307D01*
X00170000Y00999307D01*
X00170000Y00983961D02*
X00170000Y01014653D01*
X00170000Y00945594D02*
X00162327Y00937921D01*
X01221484Y02449638D02*
X01236831Y02449638D01*
X01244504Y02457311D01*
X01259850Y02449638D02*
X01290543Y02480331D01*
X01290543Y02488004D01*
X01282870Y02495677D01*
X01267523Y02495677D01*
X01259850Y02488004D01*
X01244504Y02488004D02*
X01236831Y02495677D01*
X01221484Y02495677D01*
X01213811Y02488004D01*
X01213811Y02457311D01*
X01221484Y02449638D01*
X01259850Y02449638D02*
X01290543Y02449638D01*
X01463811Y02457311D02*
X01471484Y02449638D01*
X01486831Y02449638D01*
X01494504Y02457311D01*
X01509850Y02449638D02*
X01540543Y02449638D01*
X01525197Y02449638D02*
X01525197Y02495677D01*
X01509850Y02480331D01*
X01494504Y02488004D02*
X01486831Y02495677D01*
X01471484Y02495677D01*
X01463811Y02488004D01*
X01463811Y02457311D01*
D13*
X01542000Y02097000D02*
X01158000Y02097000D01*
X01157638Y02096996D01*
X01157275Y02096982D01*
X01156913Y02096961D01*
X01156552Y02096930D01*
X01156192Y02096891D01*
X01155833Y02096843D01*
X01155475Y02096786D01*
X01155118Y02096721D01*
X01154763Y02096647D01*
X01154410Y02096564D01*
X01154059Y02096473D01*
X01153711Y02096374D01*
X01153365Y02096266D01*
X01153021Y02096150D01*
X01152681Y02096025D01*
X01152344Y02095893D01*
X01152010Y02095752D01*
X01151679Y02095603D01*
X01151352Y02095446D01*
X01151029Y02095282D01*
X01150710Y02095110D01*
X01150396Y02094930D01*
X01150085Y02094742D01*
X01149780Y02094547D01*
X01149479Y02094345D01*
X01149183Y02094135D01*
X01148893Y02093919D01*
X01148607Y02093695D01*
X01148327Y02093465D01*
X01148053Y02093228D01*
X01147785Y02092984D01*
X01147522Y02092734D01*
X01147266Y02092478D01*
X01147016Y02092215D01*
X01146772Y02091947D01*
X01146535Y02091673D01*
X01146305Y02091393D01*
X01146081Y02091107D01*
X01145865Y02090817D01*
X01145655Y02090521D01*
X01145453Y02090220D01*
X01145258Y02089915D01*
X01145070Y02089604D01*
X01144890Y02089290D01*
X01144718Y02088971D01*
X01144554Y02088648D01*
X01144397Y02088321D01*
X01144248Y02087990D01*
X01144107Y02087656D01*
X01143975Y02087319D01*
X01143850Y02086979D01*
X01143734Y02086635D01*
X01143626Y02086289D01*
X01143527Y02085941D01*
X01143436Y02085590D01*
X01143353Y02085237D01*
X01143279Y02084882D01*
X01143214Y02084525D01*
X01143157Y02084167D01*
X01143109Y02083808D01*
X01143070Y02083448D01*
X01143039Y02083087D01*
X01143018Y02082725D01*
X01143004Y02082362D01*
X01143000Y02082000D01*
X01143000Y01818000D01*
X01143004Y01817638D01*
X01143018Y01817275D01*
X01143039Y01816913D01*
X01143070Y01816552D01*
X01143109Y01816192D01*
X01143157Y01815833D01*
X01143214Y01815475D01*
X01143279Y01815118D01*
X01143353Y01814763D01*
X01143436Y01814410D01*
X01143527Y01814059D01*
X01143626Y01813711D01*
X01143734Y01813365D01*
X01143850Y01813021D01*
X01143975Y01812681D01*
X01144107Y01812344D01*
X01144248Y01812010D01*
X01144397Y01811679D01*
X01144554Y01811352D01*
X01144718Y01811029D01*
X01144890Y01810710D01*
X01145070Y01810396D01*
X01145258Y01810085D01*
X01145453Y01809780D01*
X01145655Y01809479D01*
X01145865Y01809183D01*
X01146081Y01808893D01*
X01146305Y01808607D01*
X01146535Y01808327D01*
X01146772Y01808053D01*
X01147016Y01807785D01*
X01147266Y01807522D01*
X01147522Y01807266D01*
X01147785Y01807016D01*
X01148053Y01806772D01*
X01148327Y01806535D01*
X01148607Y01806305D01*
X01148893Y01806081D01*
X01149183Y01805865D01*
X01149479Y01805655D01*
X01149780Y01805453D01*
X01150085Y01805258D01*
X01150396Y01805070D01*
X01150710Y01804890D01*
X01151029Y01804718D01*
X01151352Y01804554D01*
X01151679Y01804397D01*
X01152010Y01804248D01*
X01152344Y01804107D01*
X01152681Y01803975D01*
X01153021Y01803850D01*
X01153365Y01803734D01*
X01153711Y01803626D01*
X01154059Y01803527D01*
X01154410Y01803436D01*
X01154763Y01803353D01*
X01155118Y01803279D01*
X01155475Y01803214D01*
X01155833Y01803157D01*
X01156192Y01803109D01*
X01156552Y01803070D01*
X01156913Y01803039D01*
X01157275Y01803018D01*
X01157638Y01803004D01*
X01158000Y01803000D01*
X01542000Y01803000D01*
X01542362Y01803004D01*
X01542725Y01803018D01*
X01543087Y01803039D01*
X01543448Y01803070D01*
X01543808Y01803109D01*
X01544167Y01803157D01*
X01544525Y01803214D01*
X01544882Y01803279D01*
X01545237Y01803353D01*
X01545590Y01803436D01*
X01545941Y01803527D01*
X01546289Y01803626D01*
X01546635Y01803734D01*
X01546979Y01803850D01*
X01547319Y01803975D01*
X01547656Y01804107D01*
X01547990Y01804248D01*
X01548321Y01804397D01*
X01548648Y01804554D01*
X01548971Y01804718D01*
X01549290Y01804890D01*
X01549604Y01805070D01*
X01549915Y01805258D01*
X01550220Y01805453D01*
X01550521Y01805655D01*
X01550817Y01805865D01*
X01551107Y01806081D01*
X01551393Y01806305D01*
X01551673Y01806535D01*
X01551947Y01806772D01*
X01552215Y01807016D01*
X01552478Y01807266D01*
X01552734Y01807522D01*
X01552984Y01807785D01*
X01553228Y01808053D01*
X01553465Y01808327D01*
X01553695Y01808607D01*
X01553919Y01808893D01*
X01554135Y01809183D01*
X01554345Y01809479D01*
X01554547Y01809780D01*
X01554742Y01810085D01*
X01554930Y01810396D01*
X01555110Y01810710D01*
X01555282Y01811029D01*
X01555446Y01811352D01*
X01555603Y01811679D01*
X01555752Y01812010D01*
X01555893Y01812344D01*
X01556025Y01812681D01*
X01556150Y01813021D01*
X01556266Y01813365D01*
X01556374Y01813711D01*
X01556473Y01814059D01*
X01556564Y01814410D01*
X01556647Y01814763D01*
X01556721Y01815118D01*
X01556786Y01815475D01*
X01556843Y01815833D01*
X01556891Y01816192D01*
X01556930Y01816552D01*
X01556961Y01816913D01*
X01556982Y01817275D01*
X01556996Y01817638D01*
X01557000Y01818000D01*
X01557000Y01900000D01*
X01557000Y02000000D01*
X01557000Y02082000D01*
X01556996Y02082362D01*
X01556982Y02082725D01*
X01556961Y02083087D01*
X01556930Y02083448D01*
X01556891Y02083808D01*
X01556843Y02084167D01*
X01556786Y02084525D01*
X01556721Y02084882D01*
X01556647Y02085237D01*
X01556564Y02085590D01*
X01556473Y02085941D01*
X01556374Y02086289D01*
X01556266Y02086635D01*
X01556150Y02086979D01*
X01556025Y02087319D01*
X01555893Y02087656D01*
X01555752Y02087990D01*
X01555603Y02088321D01*
X01555446Y02088648D01*
X01555282Y02088971D01*
X01555110Y02089290D01*
X01554930Y02089604D01*
X01554742Y02089915D01*
X01554547Y02090220D01*
X01554345Y02090521D01*
X01554135Y02090817D01*
X01553919Y02091107D01*
X01553695Y02091393D01*
X01553465Y02091673D01*
X01553228Y02091947D01*
X01552984Y02092215D01*
X01552734Y02092478D01*
X01552478Y02092734D01*
X01552215Y02092984D01*
X01551947Y02093228D01*
X01551673Y02093465D01*
X01551393Y02093695D01*
X01551107Y02093919D01*
X01550817Y02094135D01*
X01550521Y02094345D01*
X01550220Y02094547D01*
X01549915Y02094742D01*
X01549604Y02094930D01*
X01549290Y02095110D01*
X01548971Y02095282D01*
X01548648Y02095446D01*
X01548321Y02095603D01*
X01547990Y02095752D01*
X01547656Y02095893D01*
X01547319Y02096025D01*
X01546979Y02096150D01*
X01546635Y02096266D01*
X01546289Y02096374D01*
X01545941Y02096473D01*
X01545590Y02096564D01*
X01545237Y02096647D01*
X01544882Y02096721D01*
X01544525Y02096786D01*
X01544167Y02096843D01*
X01543808Y02096891D01*
X01543448Y02096930D01*
X01543087Y02096961D01*
X01542725Y02096982D01*
X01542362Y02096996D01*
X01542000Y02097000D01*
X01557000Y02000000D02*
X01555782Y01999985D01*
X01554566Y01999941D01*
X01553350Y01999867D01*
X01552137Y01999763D01*
X01550927Y01999630D01*
X01549720Y01999467D01*
X01548518Y01999275D01*
X01547320Y01999054D01*
X01546128Y01998804D01*
X01544943Y01998525D01*
X01543765Y01998217D01*
X01542595Y01997880D01*
X01541433Y01997515D01*
X01540281Y01997122D01*
X01539138Y01996701D01*
X01538007Y01996252D01*
X01536886Y01995776D01*
X01535777Y01995272D01*
X01534681Y01994742D01*
X01533598Y01994185D01*
X01532529Y01993602D01*
X01531475Y01992994D01*
X01530435Y01992359D01*
X01529412Y01991700D01*
X01528404Y01991016D01*
X01527414Y01990307D01*
X01526441Y01989575D01*
X01525487Y01988819D01*
X01524551Y01988040D01*
X01523634Y01987239D01*
X01522737Y01986415D01*
X01521861Y01985570D01*
X01521005Y01984704D01*
X01520170Y01983817D01*
X01519358Y01982910D01*
X01518568Y01981984D01*
X01517800Y01981038D01*
X01517056Y01980075D01*
X01516336Y01979093D01*
X01515639Y01978094D01*
X01514967Y01977079D01*
X01514320Y01976047D01*
X01513699Y01975000D01*
X01513103Y01973938D01*
X01512533Y01972862D01*
X01511989Y01971773D01*
X01511473Y01970670D01*
X01510983Y01969555D01*
X01510520Y01968429D01*
X01510085Y01967292D01*
X01509678Y01966144D01*
X01509299Y01964987D01*
X01508948Y01963821D01*
X01508626Y01962647D01*
X01508332Y01961465D01*
X01508067Y01960276D01*
X01507832Y01959082D01*
X01507625Y01957882D01*
X01507448Y01956677D01*
X01507300Y01955469D01*
X01507182Y01954257D01*
X01507093Y01953042D01*
X01507033Y01951826D01*
X01507004Y01950609D01*
X01507004Y01949391D01*
X01507033Y01948174D01*
X01507093Y01946958D01*
X01507182Y01945743D01*
X01507300Y01944531D01*
X01507448Y01943323D01*
X01507625Y01942118D01*
X01507832Y01940918D01*
X01508067Y01939724D01*
X01508332Y01938535D01*
X01508626Y01937353D01*
X01508948Y01936179D01*
X01509299Y01935013D01*
X01509678Y01933856D01*
X01510085Y01932708D01*
X01510520Y01931571D01*
X01510983Y01930445D01*
X01511473Y01929330D01*
X01511989Y01928227D01*
X01512533Y01927138D01*
X01513103Y01926062D01*
X01513699Y01925000D01*
X01514320Y01923953D01*
X01514967Y01922921D01*
X01515639Y01921906D01*
X01516336Y01920907D01*
X01517056Y01919925D01*
X01517800Y01918962D01*
X01518568Y01918016D01*
X01519358Y01917090D01*
X01520170Y01916183D01*
X01521005Y01915296D01*
X01521861Y01914430D01*
X01522737Y01913585D01*
X01523634Y01912761D01*
X01524551Y01911960D01*
X01525487Y01911181D01*
X01526441Y01910425D01*
X01527414Y01909693D01*
X01528404Y01908984D01*
X01529412Y01908300D01*
X01530435Y01907641D01*
X01531475Y01907006D01*
X01532529Y01906398D01*
X01533598Y01905815D01*
X01534681Y01905258D01*
X01535777Y01904728D01*
X01536886Y01904224D01*
X01538007Y01903748D01*
X01539138Y01903299D01*
X01540281Y01902878D01*
X01541433Y01902485D01*
X01542595Y01902120D01*
X01543765Y01901783D01*
X01544943Y01901475D01*
X01546128Y01901196D01*
X01547320Y01900946D01*
X01548518Y01900725D01*
X01549720Y01900533D01*
X01550927Y01900370D01*
X01552137Y01900237D01*
X01553350Y01900133D01*
X01554566Y01900059D01*
X01555782Y01900015D01*
X01557000Y01900000D01*
X01755000Y01900000D02*
X01755000Y02000000D01*
X01760000Y02000000D01*
X01760000Y01900000D01*
X01755000Y01900000D01*
X01755000Y01100000D01*
X01755000Y01000000D01*
X01755000Y00915000D01*
X01755007Y00914396D01*
X01755029Y00913792D01*
X01755066Y00913189D01*
X01755117Y00912587D01*
X01755182Y00911987D01*
X01755262Y00911388D01*
X01755357Y00910791D01*
X01755466Y00910197D01*
X01755589Y00909605D01*
X01755726Y00909017D01*
X01755878Y00908432D01*
X01756044Y00907851D01*
X01756224Y00907275D01*
X01756417Y00906702D01*
X01756625Y00906135D01*
X01756846Y00905573D01*
X01757080Y00905016D01*
X01757328Y00904465D01*
X01757589Y00903920D01*
X01757864Y00903382D01*
X01758151Y00902850D01*
X01758451Y00902326D01*
X01758763Y00901809D01*
X01759088Y00901300D01*
X01759425Y00900798D01*
X01759775Y00900305D01*
X01760136Y00899821D01*
X01760508Y00899345D01*
X01760892Y00898879D01*
X01761287Y00898422D01*
X01761693Y00897975D01*
X01762110Y00897537D01*
X01762537Y00897110D01*
X01762975Y00896693D01*
X01763422Y00896287D01*
X01763879Y00895892D01*
X01764345Y00895508D01*
X01764821Y00895136D01*
X01765305Y00894775D01*
X01765798Y00894425D01*
X01766300Y00894088D01*
X01766809Y00893763D01*
X01767326Y00893451D01*
X01767850Y00893151D01*
X01768382Y00892864D01*
X01768920Y00892589D01*
X01769465Y00892328D01*
X01770016Y00892080D01*
X01770573Y00891846D01*
X01771135Y00891625D01*
X01771702Y00891417D01*
X01772275Y00891224D01*
X01772851Y00891044D01*
X01773432Y00890878D01*
X01774017Y00890726D01*
X01774605Y00890589D01*
X01775197Y00890466D01*
X01775791Y00890357D01*
X01776388Y00890262D01*
X01776987Y00890182D01*
X01777587Y00890117D01*
X01778189Y00890066D01*
X01778792Y00890029D01*
X01779396Y00890007D01*
X01780000Y00890000D01*
X02220000Y00890000D01*
X02220604Y00890007D01*
X02221208Y00890029D01*
X02221811Y00890066D01*
X02222413Y00890117D01*
X02223013Y00890182D01*
X02223612Y00890262D01*
X02224209Y00890357D01*
X02224803Y00890466D01*
X02225395Y00890589D01*
X02225983Y00890726D01*
X02226568Y00890878D01*
X02227149Y00891044D01*
X02227725Y00891224D01*
X02228298Y00891417D01*
X02228865Y00891625D01*
X02229427Y00891846D01*
X02229984Y00892080D01*
X02230535Y00892328D01*
X02231080Y00892589D01*
X02231618Y00892864D01*
X02232150Y00893151D01*
X02232674Y00893451D01*
X02233191Y00893763D01*
X02233700Y00894088D01*
X02234202Y00894425D01*
X02234695Y00894775D01*
X02235179Y00895136D01*
X02235655Y00895508D01*
X02236121Y00895892D01*
X02236578Y00896287D01*
X02237025Y00896693D01*
X02237463Y00897110D01*
X02237890Y00897537D01*
X02238307Y00897975D01*
X02238713Y00898422D01*
X02239108Y00898879D01*
X02239492Y00899345D01*
X02239864Y00899821D01*
X02240225Y00900305D01*
X02240575Y00900798D01*
X02240912Y00901300D01*
X02241237Y00901809D01*
X02241549Y00902326D01*
X02241849Y00902850D01*
X02242136Y00903382D01*
X02242411Y00903920D01*
X02242672Y00904465D01*
X02242920Y00905016D01*
X02243154Y00905573D01*
X02243375Y00906135D01*
X02243583Y00906702D01*
X02243776Y00907275D01*
X02243956Y00907851D01*
X02244122Y00908432D01*
X02244274Y00909017D01*
X02244411Y00909605D01*
X02244534Y00910197D01*
X02244643Y00910791D01*
X02244738Y00911388D01*
X02244818Y00911987D01*
X02244883Y00912587D01*
X02244934Y00913189D01*
X02244971Y00913792D01*
X02244993Y00914396D01*
X02245000Y00915000D01*
X02245000Y01000000D01*
X02245000Y01100000D01*
X02245000Y01900000D01*
X02245000Y02000000D01*
X02245000Y02085000D01*
X02244993Y02085604D01*
X02244971Y02086208D01*
X02244934Y02086811D01*
X02244883Y02087413D01*
X02244818Y02088013D01*
X02244738Y02088612D01*
X02244643Y02089209D01*
X02244534Y02089803D01*
X02244411Y02090395D01*
X02244274Y02090983D01*
X02244122Y02091568D01*
X02243956Y02092149D01*
X02243776Y02092725D01*
X02243583Y02093298D01*
X02243375Y02093865D01*
X02243154Y02094427D01*
X02242920Y02094984D01*
X02242672Y02095535D01*
X02242411Y02096080D01*
X02242136Y02096618D01*
X02241849Y02097150D01*
X02241549Y02097674D01*
X02241237Y02098191D01*
X02240912Y02098700D01*
X02240575Y02099202D01*
X02240225Y02099695D01*
X02239864Y02100179D01*
X02239492Y02100655D01*
X02239108Y02101121D01*
X02238713Y02101578D01*
X02238307Y02102025D01*
X02237890Y02102463D01*
X02237463Y02102890D01*
X02237025Y02103307D01*
X02236578Y02103713D01*
X02236121Y02104108D01*
X02235655Y02104492D01*
X02235179Y02104864D01*
X02234695Y02105225D01*
X02234202Y02105575D01*
X02233700Y02105912D01*
X02233191Y02106237D01*
X02232674Y02106549D01*
X02232150Y02106849D01*
X02231618Y02107136D01*
X02231080Y02107411D01*
X02230535Y02107672D01*
X02229984Y02107920D01*
X02229427Y02108154D01*
X02228865Y02108375D01*
X02228298Y02108583D01*
X02227725Y02108776D01*
X02227149Y02108956D01*
X02226568Y02109122D01*
X02225983Y02109274D01*
X02225395Y02109411D01*
X02224803Y02109534D01*
X02224209Y02109643D01*
X02223612Y02109738D01*
X02223013Y02109818D01*
X02222413Y02109883D01*
X02221811Y02109934D01*
X02221208Y02109971D01*
X02220604Y02109993D01*
X02220000Y02110000D01*
X01780000Y02110000D01*
X01779396Y02109993D01*
X01778792Y02109971D01*
X01778189Y02109934D01*
X01777587Y02109883D01*
X01776987Y02109818D01*
X01776388Y02109738D01*
X01775791Y02109643D01*
X01775197Y02109534D01*
X01774605Y02109411D01*
X01774017Y02109274D01*
X01773432Y02109122D01*
X01772851Y02108956D01*
X01772275Y02108776D01*
X01771702Y02108583D01*
X01771135Y02108375D01*
X01770573Y02108154D01*
X01770016Y02107920D01*
X01769465Y02107672D01*
X01768920Y02107411D01*
X01768382Y02107136D01*
X01767850Y02106849D01*
X01767326Y02106549D01*
X01766809Y02106237D01*
X01766300Y02105912D01*
X01765798Y02105575D01*
X01765305Y02105225D01*
X01764821Y02104864D01*
X01764345Y02104492D01*
X01763879Y02104108D01*
X01763422Y02103713D01*
X01762975Y02103307D01*
X01762537Y02102890D01*
X01762110Y02102463D01*
X01761693Y02102025D01*
X01761287Y02101578D01*
X01760892Y02101121D01*
X01760508Y02100655D01*
X01760136Y02100179D01*
X01759775Y02099695D01*
X01759425Y02099202D01*
X01759088Y02098700D01*
X01758763Y02098191D01*
X01758451Y02097674D01*
X01758151Y02097150D01*
X01757864Y02096618D01*
X01757589Y02096080D01*
X01757328Y02095535D01*
X01757080Y02094984D01*
X01756846Y02094427D01*
X01756625Y02093865D01*
X01756417Y02093298D01*
X01756224Y02092725D01*
X01756044Y02092149D01*
X01755878Y02091568D01*
X01755726Y02090983D01*
X01755589Y02090395D01*
X01755466Y02089803D01*
X01755357Y02089209D01*
X01755262Y02088612D01*
X01755182Y02088013D01*
X01755117Y02087413D01*
X01755066Y02086811D01*
X01755029Y02086208D01*
X01755007Y02085604D01*
X01755000Y02085000D01*
X01755000Y02000000D01*
X01909000Y01827000D02*
X02115000Y01796000D01*
X02114370Y01796523D02*
X02115617Y01796208D01*
X02116856Y01795862D01*
X02118087Y01795487D01*
X02119308Y01795081D01*
X02120518Y01794647D01*
X02121718Y01794182D01*
X02122906Y01793689D01*
X02124082Y01793168D01*
X02125245Y01792618D01*
X02126394Y01792039D01*
X02127529Y01791433D01*
X02128649Y01790800D01*
X02129753Y01790140D01*
X02130840Y01789453D01*
X02131911Y01788740D01*
X02132964Y01788001D01*
X02133999Y01787237D01*
X02135015Y01786448D01*
X02136012Y01785634D01*
X02136988Y01784797D01*
X02137944Y01783936D01*
X02138879Y01783052D01*
X02139792Y01782146D01*
X02140682Y01781218D01*
X02141550Y01780268D01*
X02142395Y01779298D01*
X02143216Y01778308D01*
X02144012Y01777297D01*
X02144784Y01776268D01*
X02145531Y01775221D01*
X02146252Y01774155D01*
X02146947Y01773073D01*
X02147615Y01771974D01*
X02148256Y01770859D01*
X02148871Y01769728D01*
X02149457Y01768583D01*
X02150016Y01767425D01*
X02150547Y01766253D01*
X02151048Y01765068D01*
X02151521Y01763872D01*
X02151965Y01762664D01*
X02152379Y01761447D01*
X02152764Y01760219D01*
X02153119Y01758982D01*
X02153443Y01757738D01*
X02153738Y01756485D01*
X02154001Y01755226D01*
X02154235Y01753961D01*
X02154437Y01752691D01*
X02154609Y01751416D01*
X02154749Y01750137D01*
X02154859Y01748855D01*
X02154937Y01747571D01*
X02154984Y01746286D01*
X02155000Y01745000D01*
X02155000Y01255000D01*
X02154984Y01253708D01*
X02154937Y01252417D01*
X02154858Y01251127D01*
X02154748Y01249840D01*
X02154607Y01248556D01*
X02154434Y01247275D01*
X02154230Y01245999D01*
X02153995Y01244729D01*
X02153729Y01243464D01*
X02153433Y01242207D01*
X02153106Y01240957D01*
X02152748Y01239715D01*
X02152361Y01238483D01*
X02151943Y01237260D01*
X02151496Y01236048D01*
X02151019Y01234847D01*
X02150513Y01233658D01*
X02149978Y01232482D01*
X02149415Y01231319D01*
X02148824Y01230170D01*
X02148205Y01229036D01*
X02147558Y01227918D01*
X02146884Y01226815D01*
X02146184Y01225729D01*
X02145457Y01224661D01*
X02144705Y01223611D01*
X02143927Y01222579D01*
X02143124Y01221566D01*
X02142297Y01220574D01*
X02141446Y01219602D01*
X02140571Y01218651D01*
X02139674Y01217721D01*
X02138754Y01216814D01*
X02137812Y01215930D01*
X02136849Y01215068D01*
X02135865Y01214231D01*
X02134861Y01213417D01*
X02133838Y01212628D01*
X02132796Y01211865D01*
X02131735Y01211127D01*
X02130657Y01210415D01*
X02129561Y01209730D01*
X02128450Y01209072D01*
X02127322Y01208440D01*
X02126180Y01207837D01*
X02125023Y01207262D01*
X02123852Y01206715D01*
X02122669Y01206196D01*
X02121473Y01205707D01*
X02120265Y01205247D01*
X02119047Y01204816D01*
X02117819Y01204416D01*
X02116581Y01204045D01*
X02115335Y01203705D01*
X02116000Y01204000D02*
X01908000Y01173000D01*
X01908393Y01173028D02*
X01907132Y01172791D01*
X01905864Y01172586D01*
X01904593Y01172411D01*
X01903317Y01172266D01*
X01902038Y01172153D01*
X01900757Y01172071D01*
X01899475Y01172019D01*
X01898191Y01171999D01*
X01896907Y01172010D01*
X01895624Y01172052D01*
X01894343Y01172125D01*
X01893063Y01172230D01*
X01891787Y01172365D01*
X01890514Y01172531D01*
X01889245Y01172727D01*
X01887982Y01172955D01*
X01886724Y01173213D01*
X01885473Y01173501D01*
X01884230Y01173819D01*
X01882994Y01174168D01*
X01881768Y01174546D01*
X01880550Y01174954D01*
X01879343Y01175392D01*
X01878147Y01175858D01*
X01876963Y01176353D01*
X01875791Y01176877D01*
X01874632Y01177429D01*
X01873487Y01178009D01*
X01872356Y01178616D01*
X01871240Y01179251D01*
X01870140Y01179913D01*
X01869056Y01180601D01*
X01867989Y01181315D01*
X01866940Y01182054D01*
X01865909Y01182819D01*
X01864897Y01183609D01*
X01863904Y01184423D01*
X01862932Y01185260D01*
X01861979Y01186121D01*
X01861048Y01187005D01*
X01860139Y01187911D01*
X01859252Y01188839D01*
X01858387Y01189788D01*
X01857546Y01190758D01*
X01856729Y01191748D01*
X01855936Y01192757D01*
X01855167Y01193785D01*
X01854424Y01194832D01*
X01853706Y01195896D01*
X01853014Y01196977D01*
X01852348Y01198075D01*
X01851710Y01199189D01*
X01851098Y01200317D01*
X01850514Y01201461D01*
X01849958Y01202618D01*
X01849430Y01203788D01*
X01848930Y01204970D01*
X01848460Y01206165D01*
X01848018Y01207370D01*
X01847606Y01208586D01*
X01847223Y01209811D01*
X01846870Y01211045D01*
X01846547Y01212288D01*
X01846254Y01213538D01*
X01845992Y01214794D01*
X01845760Y01216057D01*
X01845559Y01217325D01*
X01845388Y01218597D01*
X01845249Y01219873D01*
X01845140Y01221152D01*
X01845062Y01222434D01*
X01845016Y01223716D01*
X01845000Y01225000D01*
X01845000Y01775000D01*
X01845016Y01776296D01*
X01845063Y01777592D01*
X01845143Y01778886D01*
X01845253Y01780178D01*
X01845396Y01781466D01*
X01845570Y01782751D01*
X01845775Y01784031D01*
X01846011Y01785306D01*
X01846279Y01786574D01*
X01846578Y01787836D01*
X01846907Y01789090D01*
X01847267Y01790335D01*
X01847657Y01791572D01*
X01848077Y01792798D01*
X01848528Y01794014D01*
X01849007Y01795218D01*
X01849516Y01796411D01*
X01850055Y01797590D01*
X01850621Y01798756D01*
X01851216Y01799908D01*
X01851840Y01801045D01*
X01852490Y01802166D01*
X01853168Y01803271D01*
X01853873Y01804359D01*
X01854604Y01805430D01*
X01855362Y01806482D01*
X01856144Y01807516D01*
X01856952Y01808530D01*
X01857784Y01809524D01*
X01858641Y01810497D01*
X01859520Y01811449D01*
X01860423Y01812380D01*
X01861349Y01813288D01*
X01862296Y01814173D01*
X01863265Y01815034D01*
X01864254Y01815872D01*
X01865264Y01816685D01*
X01866293Y01817474D01*
X01867341Y01818237D01*
X01868408Y01818974D01*
X01869492Y01819684D01*
X01870593Y01820368D01*
X01871711Y01821025D01*
X01872845Y01821655D01*
X01873993Y01822256D01*
X01875156Y01822829D01*
X01876333Y01823374D01*
X01877522Y01823889D01*
X01878724Y01824376D01*
X01879937Y01824833D01*
X01881161Y01825260D01*
X01882395Y01825657D01*
X01883639Y01826023D01*
X01884891Y01826359D01*
X01886151Y01826665D01*
X01887418Y01826939D01*
X01888691Y01827183D01*
X01889970Y01827395D01*
X01891254Y01827576D01*
X01892542Y01827725D01*
X01893833Y01827843D01*
X01895127Y01827930D01*
X01896422Y01827984D01*
X01897718Y01828007D01*
X01899015Y01827998D01*
X01900310Y01827958D01*
X01901605Y01827886D01*
X01902897Y01827782D01*
X01904187Y01827647D01*
X01905472Y01827480D01*
X01906753Y01827282D01*
X01908029Y01827052D01*
X01909299Y01826791D01*
X01935000Y01993000D02*
X01935020Y01994595D01*
X01935078Y01996189D01*
X01935176Y01997782D01*
X01935313Y01999371D01*
X01935489Y02000957D01*
X01935704Y02002537D01*
X01935957Y02004113D01*
X01936249Y02005681D01*
X01936579Y02007242D01*
X01936948Y02008794D01*
X01937355Y02010336D01*
X01937799Y02011869D01*
X01938281Y02013389D01*
X01938800Y02014898D01*
X01939355Y02016393D01*
X01939948Y02017874D01*
X01940576Y02019341D01*
X01941241Y02020791D01*
X01941940Y02022225D01*
X01942675Y02023641D01*
X01943444Y02025038D01*
X01944248Y02026417D01*
X01945085Y02027775D01*
X01945954Y02029112D01*
X01946857Y02030428D01*
X01947792Y02031720D01*
X01948757Y02032990D01*
X01949754Y02034236D01*
X01950781Y02035456D01*
X01951838Y02036651D01*
X01952924Y02037820D01*
X01954038Y02038962D01*
X01955180Y02040076D01*
X01956349Y02041162D01*
X01957544Y02042219D01*
X01958764Y02043246D01*
X01960010Y02044243D01*
X01961280Y02045208D01*
X01962572Y02046143D01*
X01963888Y02047046D01*
X01965225Y02047915D01*
X01966583Y02048752D01*
X01967962Y02049556D01*
X01969359Y02050325D01*
X01970775Y02051060D01*
X01972209Y02051759D01*
X01973659Y02052424D01*
X01975126Y02053052D01*
X01976607Y02053645D01*
X01978102Y02054200D01*
X01979611Y02054719D01*
X01981131Y02055201D01*
X01982664Y02055645D01*
X01984206Y02056052D01*
X01985758Y02056421D01*
X01987319Y02056751D01*
X01988887Y02057043D01*
X01990463Y02057296D01*
X01992043Y02057511D01*
X01993629Y02057687D01*
X01995218Y02057824D01*
X01996811Y02057922D01*
X01998405Y02057980D01*
X02000000Y02058000D01*
X02001595Y02057980D01*
X02003189Y02057922D01*
X02004782Y02057824D01*
X02006371Y02057687D01*
X02007957Y02057511D01*
X02009537Y02057296D01*
X02011113Y02057043D01*
X02012681Y02056751D01*
X02014242Y02056421D01*
X02015794Y02056052D01*
X02017336Y02055645D01*
X02018869Y02055201D01*
X02020389Y02054719D01*
X02021898Y02054200D01*
X02023393Y02053645D01*
X02024874Y02053052D01*
X02026341Y02052424D01*
X02027791Y02051759D01*
X02029225Y02051060D01*
X02030641Y02050325D01*
X02032038Y02049556D01*
X02033417Y02048752D01*
X02034775Y02047915D01*
X02036112Y02047046D01*
X02037428Y02046143D01*
X02038720Y02045208D01*
X02039990Y02044243D01*
X02041236Y02043246D01*
X02042456Y02042219D01*
X02043651Y02041162D01*
X02044820Y02040076D01*
X02045962Y02038962D01*
X02047076Y02037820D01*
X02048162Y02036651D01*
X02049219Y02035456D01*
X02050246Y02034236D01*
X02051243Y02032990D01*
X02052208Y02031720D01*
X02053143Y02030428D01*
X02054046Y02029112D01*
X02054915Y02027775D01*
X02055752Y02026417D01*
X02056556Y02025038D01*
X02057325Y02023641D01*
X02058060Y02022225D01*
X02058759Y02020791D01*
X02059424Y02019341D01*
X02060052Y02017874D01*
X02060645Y02016393D01*
X02061200Y02014898D01*
X02061719Y02013389D01*
X02062201Y02011869D01*
X02062645Y02010336D01*
X02063052Y02008794D01*
X02063421Y02007242D01*
X02063751Y02005681D01*
X02064043Y02004113D01*
X02064296Y02002537D01*
X02064511Y02000957D01*
X02064687Y01999371D01*
X02064824Y01997782D01*
X02064922Y01996189D01*
X02064980Y01994595D01*
X02065000Y01993000D01*
X02064980Y01991405D01*
X02064922Y01989811D01*
X02064824Y01988218D01*
X02064687Y01986629D01*
X02064511Y01985043D01*
X02064296Y01983463D01*
X02064043Y01981887D01*
X02063751Y01980319D01*
X02063421Y01978758D01*
X02063052Y01977206D01*
X02062645Y01975664D01*
X02062201Y01974131D01*
X02061719Y01972611D01*
X02061200Y01971102D01*
X02060645Y01969607D01*
X02060052Y01968126D01*
X02059424Y01966659D01*
X02058759Y01965209D01*
X02058060Y01963775D01*
X02057325Y01962359D01*
X02056556Y01960962D01*
X02055752Y01959583D01*
X02054915Y01958225D01*
X02054046Y01956888D01*
X02053143Y01955572D01*
X02052208Y01954280D01*
X02051243Y01953010D01*
X02050246Y01951764D01*
X02049219Y01950544D01*
X02048162Y01949349D01*
X02047076Y01948180D01*
X02045962Y01947038D01*
X02044820Y01945924D01*
X02043651Y01944838D01*
X02042456Y01943781D01*
X02041236Y01942754D01*
X02039990Y01941757D01*
X02038720Y01940792D01*
X02037428Y01939857D01*
X02036112Y01938954D01*
X02034775Y01938085D01*
X02033417Y01937248D01*
X02032038Y01936444D01*
X02030641Y01935675D01*
X02029225Y01934940D01*
X02027791Y01934241D01*
X02026341Y01933576D01*
X02024874Y01932948D01*
X02023393Y01932355D01*
X02021898Y01931800D01*
X02020389Y01931281D01*
X02018869Y01930799D01*
X02017336Y01930355D01*
X02015794Y01929948D01*
X02014242Y01929579D01*
X02012681Y01929249D01*
X02011113Y01928957D01*
X02009537Y01928704D01*
X02007957Y01928489D01*
X02006371Y01928313D01*
X02004782Y01928176D01*
X02003189Y01928078D01*
X02001595Y01928020D01*
X02000000Y01928000D01*
X01998405Y01928020D01*
X01996811Y01928078D01*
X01995218Y01928176D01*
X01993629Y01928313D01*
X01992043Y01928489D01*
X01990463Y01928704D01*
X01988887Y01928957D01*
X01987319Y01929249D01*
X01985758Y01929579D01*
X01984206Y01929948D01*
X01982664Y01930355D01*
X01981131Y01930799D01*
X01979611Y01931281D01*
X01978102Y01931800D01*
X01976607Y01932355D01*
X01975126Y01932948D01*
X01973659Y01933576D01*
X01972209Y01934241D01*
X01970775Y01934940D01*
X01969359Y01935675D01*
X01967962Y01936444D01*
X01966583Y01937248D01*
X01965225Y01938085D01*
X01963888Y01938954D01*
X01962572Y01939857D01*
X01961280Y01940792D01*
X01960010Y01941757D01*
X01958764Y01942754D01*
X01957544Y01943781D01*
X01956349Y01944838D01*
X01955180Y01945924D01*
X01954038Y01947038D01*
X01952924Y01948180D01*
X01951838Y01949349D01*
X01950781Y01950544D01*
X01949754Y01951764D01*
X01948757Y01953010D01*
X01947792Y01954280D01*
X01946857Y01955572D01*
X01945954Y01956888D01*
X01945085Y01958225D01*
X01944248Y01959583D01*
X01943444Y01960962D01*
X01942675Y01962359D01*
X01941940Y01963775D01*
X01941241Y01965209D01*
X01940576Y01966659D01*
X01939948Y01968126D01*
X01939355Y01969607D01*
X01938800Y01971102D01*
X01938281Y01972611D01*
X01937799Y01974131D01*
X01937355Y01975664D01*
X01936948Y01977206D01*
X01936579Y01978758D01*
X01936249Y01980319D01*
X01935957Y01981887D01*
X01935704Y01983463D01*
X01935489Y01985043D01*
X01935313Y01986629D01*
X01935176Y01988218D01*
X01935078Y01989811D01*
X01935020Y01991405D01*
X01935000Y01993000D01*
X02240000Y02000000D02*
X02240000Y01900000D01*
X02245000Y01900000D01*
X02245000Y02000000D02*
X02240000Y02000000D01*
X01474409Y01519331D02*
X01427165Y01576378D01*
X01419331Y01576378D01*
X01380669Y01576378D02*
X01369331Y01576378D01*
X01330669Y01576378D02*
X01319331Y01576378D01*
X01280669Y01576378D02*
X01269331Y01576378D01*
X01230669Y01576378D02*
X01219331Y01576378D01*
X01180669Y01576378D02*
X01169331Y01576378D01*
X01130669Y01576378D02*
X01119331Y01576378D01*
X01080669Y01576378D02*
X01069331Y01576378D01*
X01030669Y01576378D02*
X01019331Y01576378D01*
X00980669Y01576378D02*
X00969331Y01576378D01*
X00930669Y01576378D02*
X00919331Y01576378D01*
X00880669Y01576378D02*
X00843307Y01576378D01*
X00823622Y01556693D01*
X00823622Y01519331D01*
X00823622Y01480669D02*
X00823622Y01469331D01*
X00823622Y01430669D02*
X00823622Y01419331D01*
X00823622Y01380669D02*
X00823622Y01369331D01*
X00823622Y01330669D02*
X00823622Y01319331D01*
X00823622Y01280669D02*
X00823622Y01269331D01*
X00823622Y01230669D02*
X00823622Y01219331D01*
X00823622Y01180669D02*
X00823622Y01169331D01*
X00823622Y01130669D02*
X00823622Y01119331D01*
X00823622Y01080669D02*
X00823622Y01069331D01*
X00823622Y01030669D02*
X00823622Y01019331D01*
X00823622Y00980669D02*
X00823622Y00943307D01*
X00843307Y00923622D01*
X00880669Y00923622D01*
X00919331Y00923622D02*
X00930669Y00923622D01*
X00969331Y00923622D02*
X00980669Y00923622D01*
X01019331Y00923622D02*
X01030669Y00923622D01*
X01069331Y00923622D02*
X01080669Y00923622D01*
X01119331Y00923622D02*
X01130669Y00923622D01*
X01169331Y00923622D02*
X01180669Y00923622D01*
X01219331Y00923622D02*
X01230669Y00923622D01*
X01269331Y00923622D02*
X01280669Y00923622D01*
X01319331Y00923622D02*
X01330669Y00923622D01*
X01369331Y00923622D02*
X01380669Y00923622D01*
X01419331Y00923622D02*
X01456693Y00923622D01*
X01476378Y00943307D01*
X01476378Y00980669D01*
X01476378Y01019331D02*
X01476378Y01030669D01*
X01476378Y01069331D02*
X01476378Y01080669D01*
X01476378Y01119331D02*
X01476378Y01130669D01*
X01476378Y01169331D02*
X01476378Y01180669D01*
X01476378Y01219331D02*
X01476378Y01230669D01*
X01476378Y01269331D02*
X01476378Y01280669D01*
X01476378Y01319331D02*
X01476378Y01330669D01*
X01476378Y01369331D02*
X01476378Y01380669D01*
X01476378Y01419331D02*
X01476378Y01430669D01*
X01476378Y01469331D02*
X01476378Y01480669D01*
X01755000Y01100000D02*
X01760000Y01100000D01*
X01760000Y01000000D01*
X01755000Y01000000D01*
X01935000Y01007000D02*
X01935020Y01008595D01*
X01935078Y01010189D01*
X01935176Y01011782D01*
X01935313Y01013371D01*
X01935489Y01014957D01*
X01935704Y01016537D01*
X01935957Y01018113D01*
X01936249Y01019681D01*
X01936579Y01021242D01*
X01936948Y01022794D01*
X01937355Y01024336D01*
X01937799Y01025869D01*
X01938281Y01027389D01*
X01938800Y01028898D01*
X01939355Y01030393D01*
X01939948Y01031874D01*
X01940576Y01033341D01*
X01941241Y01034791D01*
X01941940Y01036225D01*
X01942675Y01037641D01*
X01943444Y01039038D01*
X01944248Y01040417D01*
X01945085Y01041775D01*
X01945954Y01043112D01*
X01946857Y01044428D01*
X01947792Y01045720D01*
X01948757Y01046990D01*
X01949754Y01048236D01*
X01950781Y01049456D01*
X01951838Y01050651D01*
X01952924Y01051820D01*
X01954038Y01052962D01*
X01955180Y01054076D01*
X01956349Y01055162D01*
X01957544Y01056219D01*
X01958764Y01057246D01*
X01960010Y01058243D01*
X01961280Y01059208D01*
X01962572Y01060143D01*
X01963888Y01061046D01*
X01965225Y01061915D01*
X01966583Y01062752D01*
X01967962Y01063556D01*
X01969359Y01064325D01*
X01970775Y01065060D01*
X01972209Y01065759D01*
X01973659Y01066424D01*
X01975126Y01067052D01*
X01976607Y01067645D01*
X01978102Y01068200D01*
X01979611Y01068719D01*
X01981131Y01069201D01*
X01982664Y01069645D01*
X01984206Y01070052D01*
X01985758Y01070421D01*
X01987319Y01070751D01*
X01988887Y01071043D01*
X01990463Y01071296D01*
X01992043Y01071511D01*
X01993629Y01071687D01*
X01995218Y01071824D01*
X01996811Y01071922D01*
X01998405Y01071980D01*
X02000000Y01072000D01*
X02001595Y01071980D01*
X02003189Y01071922D01*
X02004782Y01071824D01*
X02006371Y01071687D01*
X02007957Y01071511D01*
X02009537Y01071296D01*
X02011113Y01071043D01*
X02012681Y01070751D01*
X02014242Y01070421D01*
X02015794Y01070052D01*
X02017336Y01069645D01*
X02018869Y01069201D01*
X02020389Y01068719D01*
X02021898Y01068200D01*
X02023393Y01067645D01*
X02024874Y01067052D01*
X02026341Y01066424D01*
X02027791Y01065759D01*
X02029225Y01065060D01*
X02030641Y01064325D01*
X02032038Y01063556D01*
X02033417Y01062752D01*
X02034775Y01061915D01*
X02036112Y01061046D01*
X02037428Y01060143D01*
X02038720Y01059208D01*
X02039990Y01058243D01*
X02041236Y01057246D01*
X02042456Y01056219D01*
X02043651Y01055162D01*
X02044820Y01054076D01*
X02045962Y01052962D01*
X02047076Y01051820D01*
X02048162Y01050651D01*
X02049219Y01049456D01*
X02050246Y01048236D01*
X02051243Y01046990D01*
X02052208Y01045720D01*
X02053143Y01044428D01*
X02054046Y01043112D01*
X02054915Y01041775D01*
X02055752Y01040417D01*
X02056556Y01039038D01*
X02057325Y01037641D01*
X02058060Y01036225D01*
X02058759Y01034791D01*
X02059424Y01033341D01*
X02060052Y01031874D01*
X02060645Y01030393D01*
X02061200Y01028898D01*
X02061719Y01027389D01*
X02062201Y01025869D01*
X02062645Y01024336D01*
X02063052Y01022794D01*
X02063421Y01021242D01*
X02063751Y01019681D01*
X02064043Y01018113D01*
X02064296Y01016537D01*
X02064511Y01014957D01*
X02064687Y01013371D01*
X02064824Y01011782D01*
X02064922Y01010189D01*
X02064980Y01008595D01*
X02065000Y01007000D01*
X02064980Y01005405D01*
X02064922Y01003811D01*
X02064824Y01002218D01*
X02064687Y01000629D01*
X02064511Y00999043D01*
X02064296Y00997463D01*
X02064043Y00995887D01*
X02063751Y00994319D01*
X02063421Y00992758D01*
X02063052Y00991206D01*
X02062645Y00989664D01*
X02062201Y00988131D01*
X02061719Y00986611D01*
X02061200Y00985102D01*
X02060645Y00983607D01*
X02060052Y00982126D01*
X02059424Y00980659D01*
X02058759Y00979209D01*
X02058060Y00977775D01*
X02057325Y00976359D01*
X02056556Y00974962D01*
X02055752Y00973583D01*
X02054915Y00972225D01*
X02054046Y00970888D01*
X02053143Y00969572D01*
X02052208Y00968280D01*
X02051243Y00967010D01*
X02050246Y00965764D01*
X02049219Y00964544D01*
X02048162Y00963349D01*
X02047076Y00962180D01*
X02045962Y00961038D01*
X02044820Y00959924D01*
X02043651Y00958838D01*
X02042456Y00957781D01*
X02041236Y00956754D01*
X02039990Y00955757D01*
X02038720Y00954792D01*
X02037428Y00953857D01*
X02036112Y00952954D01*
X02034775Y00952085D01*
X02033417Y00951248D01*
X02032038Y00950444D01*
X02030641Y00949675D01*
X02029225Y00948940D01*
X02027791Y00948241D01*
X02026341Y00947576D01*
X02024874Y00946948D01*
X02023393Y00946355D01*
X02021898Y00945800D01*
X02020389Y00945281D01*
X02018869Y00944799D01*
X02017336Y00944355D01*
X02015794Y00943948D01*
X02014242Y00943579D01*
X02012681Y00943249D01*
X02011113Y00942957D01*
X02009537Y00942704D01*
X02007957Y00942489D01*
X02006371Y00942313D01*
X02004782Y00942176D01*
X02003189Y00942078D01*
X02001595Y00942020D01*
X02000000Y00942000D01*
X01998405Y00942020D01*
X01996811Y00942078D01*
X01995218Y00942176D01*
X01993629Y00942313D01*
X01992043Y00942489D01*
X01990463Y00942704D01*
X01988887Y00942957D01*
X01987319Y00943249D01*
X01985758Y00943579D01*
X01984206Y00943948D01*
X01982664Y00944355D01*
X01981131Y00944799D01*
X01979611Y00945281D01*
X01978102Y00945800D01*
X01976607Y00946355D01*
X01975126Y00946948D01*
X01973659Y00947576D01*
X01972209Y00948241D01*
X01970775Y00948940D01*
X01969359Y00949675D01*
X01967962Y00950444D01*
X01966583Y00951248D01*
X01965225Y00952085D01*
X01963888Y00952954D01*
X01962572Y00953857D01*
X01961280Y00954792D01*
X01960010Y00955757D01*
X01958764Y00956754D01*
X01957544Y00957781D01*
X01956349Y00958838D01*
X01955180Y00959924D01*
X01954038Y00961038D01*
X01952924Y00962180D01*
X01951838Y00963349D01*
X01950781Y00964544D01*
X01949754Y00965764D01*
X01948757Y00967010D01*
X01947792Y00968280D01*
X01946857Y00969572D01*
X01945954Y00970888D01*
X01945085Y00972225D01*
X01944248Y00973583D01*
X01943444Y00974962D01*
X01942675Y00976359D01*
X01941940Y00977775D01*
X01941241Y00979209D01*
X01940576Y00980659D01*
X01939948Y00982126D01*
X01939355Y00983607D01*
X01938800Y00985102D01*
X01938281Y00986611D01*
X01937799Y00988131D01*
X01937355Y00989664D01*
X01936948Y00991206D01*
X01936579Y00992758D01*
X01936249Y00994319D01*
X01935957Y00995887D01*
X01935704Y00997463D01*
X01935489Y00999043D01*
X01935313Y01000629D01*
X01935176Y01002218D01*
X01935078Y01003811D01*
X01935020Y01005405D01*
X01935000Y01007000D01*
X02240000Y01000000D02*
X02240000Y01100000D01*
X02245000Y01100000D01*
X02245000Y01000000D02*
X02240000Y01000000D01*
X01430000Y00730000D02*
X01430000Y00670000D01*
X01420000Y00670000D01*
X01420000Y00660000D01*
X01420000Y00730000D02*
X01420000Y00740000D01*
X01420000Y00730000D02*
X01430000Y00730000D01*
X01385000Y00820000D02*
X01350000Y00820000D01*
X01255000Y00820000D01*
X01215000Y00820000D01*
X01180000Y00740000D02*
X01180000Y00730000D01*
X01170000Y00730000D01*
X01170000Y00670000D01*
X01180000Y00670000D01*
X01180000Y00660000D01*
X01215000Y00580000D02*
X01250000Y00580000D01*
X01350000Y00580000D01*
X01385000Y00580000D01*
X01290000Y00700000D02*
X01290003Y00700245D01*
X01290012Y00700491D01*
X01290027Y00700736D01*
X01290048Y00700980D01*
X01290075Y00701224D01*
X01290108Y00701467D01*
X01290147Y00701710D01*
X01290192Y00701951D01*
X01290243Y00702191D01*
X01290300Y00702430D01*
X01290362Y00702667D01*
X01290431Y00702903D01*
X01290505Y00703137D01*
X01290585Y00703369D01*
X01290670Y00703599D01*
X01290761Y00703827D01*
X01290858Y00704052D01*
X01290960Y00704276D01*
X01291068Y00704496D01*
X01291181Y00704714D01*
X01291299Y00704929D01*
X01291423Y00705141D01*
X01291551Y00705350D01*
X01291685Y00705556D01*
X01291824Y00705758D01*
X01291968Y00705957D01*
X01292117Y00706152D01*
X01292270Y00706344D01*
X01292428Y00706532D01*
X01292590Y00706716D01*
X01292758Y00706895D01*
X01292929Y00707071D01*
X01293105Y00707242D01*
X01293284Y00707410D01*
X01293468Y00707572D01*
X01293656Y00707730D01*
X01293848Y00707883D01*
X01294043Y00708032D01*
X01294242Y00708176D01*
X01294444Y00708315D01*
X01294650Y00708449D01*
X01294859Y00708577D01*
X01295071Y00708701D01*
X01295286Y00708819D01*
X01295504Y00708932D01*
X01295724Y00709040D01*
X01295948Y00709142D01*
X01296173Y00709239D01*
X01296401Y00709330D01*
X01296631Y00709415D01*
X01296863Y00709495D01*
X01297097Y00709569D01*
X01297333Y00709638D01*
X01297570Y00709700D01*
X01297809Y00709757D01*
X01298049Y00709808D01*
X01298290Y00709853D01*
X01298533Y00709892D01*
X01298776Y00709925D01*
X01299020Y00709952D01*
X01299264Y00709973D01*
X01299509Y00709988D01*
X01299755Y00709997D01*
X01300000Y00710000D01*
X01300245Y00709997D01*
X01300491Y00709988D01*
X01300736Y00709973D01*
X01300980Y00709952D01*
X01301224Y00709925D01*
X01301467Y00709892D01*
X01301710Y00709853D01*
X01301951Y00709808D01*
X01302191Y00709757D01*
X01302430Y00709700D01*
X01302667Y00709638D01*
X01302903Y00709569D01*
X01303137Y00709495D01*
X01303369Y00709415D01*
X01303599Y00709330D01*
X01303827Y00709239D01*
X01304052Y00709142D01*
X01304276Y00709040D01*
X01304496Y00708932D01*
X01304714Y00708819D01*
X01304929Y00708701D01*
X01305141Y00708577D01*
X01305350Y00708449D01*
X01305556Y00708315D01*
X01305758Y00708176D01*
X01305957Y00708032D01*
X01306152Y00707883D01*
X01306344Y00707730D01*
X01306532Y00707572D01*
X01306716Y00707410D01*
X01306895Y00707242D01*
X01307071Y00707071D01*
X01307242Y00706895D01*
X01307410Y00706716D01*
X01307572Y00706532D01*
X01307730Y00706344D01*
X01307883Y00706152D01*
X01308032Y00705957D01*
X01308176Y00705758D01*
X01308315Y00705556D01*
X01308449Y00705350D01*
X01308577Y00705141D01*
X01308701Y00704929D01*
X01308819Y00704714D01*
X01308932Y00704496D01*
X01309040Y00704276D01*
X01309142Y00704052D01*
X01309239Y00703827D01*
X01309330Y00703599D01*
X01309415Y00703369D01*
X01309495Y00703137D01*
X01309569Y00702903D01*
X01309638Y00702667D01*
X01309700Y00702430D01*
X01309757Y00702191D01*
X01309808Y00701951D01*
X01309853Y00701710D01*
X01309892Y00701467D01*
X01309925Y00701224D01*
X01309952Y00700980D01*
X01309973Y00700736D01*
X01309988Y00700491D01*
X01309997Y00700245D01*
X01310000Y00700000D01*
X01309997Y00699755D01*
X01309988Y00699509D01*
X01309973Y00699264D01*
X01309952Y00699020D01*
X01309925Y00698776D01*
X01309892Y00698533D01*
X01309853Y00698290D01*
X01309808Y00698049D01*
X01309757Y00697809D01*
X01309700Y00697570D01*
X01309638Y00697333D01*
X01309569Y00697097D01*
X01309495Y00696863D01*
X01309415Y00696631D01*
X01309330Y00696401D01*
X01309239Y00696173D01*
X01309142Y00695948D01*
X01309040Y00695724D01*
X01308932Y00695504D01*
X01308819Y00695286D01*
X01308701Y00695071D01*
X01308577Y00694859D01*
X01308449Y00694650D01*
X01308315Y00694444D01*
X01308176Y00694242D01*
X01308032Y00694043D01*
X01307883Y00693848D01*
X01307730Y00693656D01*
X01307572Y00693468D01*
X01307410Y00693284D01*
X01307242Y00693105D01*
X01307071Y00692929D01*
X01306895Y00692758D01*
X01306716Y00692590D01*
X01306532Y00692428D01*
X01306344Y00692270D01*
X01306152Y00692117D01*
X01305957Y00691968D01*
X01305758Y00691824D01*
X01305556Y00691685D01*
X01305350Y00691551D01*
X01305141Y00691423D01*
X01304929Y00691299D01*
X01304714Y00691181D01*
X01304496Y00691068D01*
X01304276Y00690960D01*
X01304052Y00690858D01*
X01303827Y00690761D01*
X01303599Y00690670D01*
X01303369Y00690585D01*
X01303137Y00690505D01*
X01302903Y00690431D01*
X01302667Y00690362D01*
X01302430Y00690300D01*
X01302191Y00690243D01*
X01301951Y00690192D01*
X01301710Y00690147D01*
X01301467Y00690108D01*
X01301224Y00690075D01*
X01300980Y00690048D01*
X01300736Y00690027D01*
X01300491Y00690012D01*
X01300245Y00690003D01*
X01300000Y00690000D01*
X01299755Y00690003D01*
X01299509Y00690012D01*
X01299264Y00690027D01*
X01299020Y00690048D01*
X01298776Y00690075D01*
X01298533Y00690108D01*
X01298290Y00690147D01*
X01298049Y00690192D01*
X01297809Y00690243D01*
X01297570Y00690300D01*
X01297333Y00690362D01*
X01297097Y00690431D01*
X01296863Y00690505D01*
X01296631Y00690585D01*
X01296401Y00690670D01*
X01296173Y00690761D01*
X01295948Y00690858D01*
X01295724Y00690960D01*
X01295504Y00691068D01*
X01295286Y00691181D01*
X01295071Y00691299D01*
X01294859Y00691423D01*
X01294650Y00691551D01*
X01294444Y00691685D01*
X01294242Y00691824D01*
X01294043Y00691968D01*
X01293848Y00692117D01*
X01293656Y00692270D01*
X01293468Y00692428D01*
X01293284Y00692590D01*
X01293105Y00692758D01*
X01292929Y00692929D01*
X01292758Y00693105D01*
X01292590Y00693284D01*
X01292428Y00693468D01*
X01292270Y00693656D01*
X01292117Y00693848D01*
X01291968Y00694043D01*
X01291824Y00694242D01*
X01291685Y00694444D01*
X01291551Y00694650D01*
X01291423Y00694859D01*
X01291299Y00695071D01*
X01291181Y00695286D01*
X01291068Y00695504D01*
X01290960Y00695724D01*
X01290858Y00695948D01*
X01290761Y00696173D01*
X01290670Y00696401D01*
X01290585Y00696631D01*
X01290505Y00696863D01*
X01290431Y00697097D01*
X01290362Y00697333D01*
X01290300Y00697570D01*
X01290243Y00697809D01*
X01290192Y00698049D01*
X01290147Y00698290D01*
X01290108Y00698533D01*
X01290075Y00698776D01*
X01290048Y00699020D01*
X01290027Y00699264D01*
X01290012Y00699509D01*
X01290003Y00699755D01*
X01290000Y00700000D01*
X01230000Y00700000D02*
X01230021Y00701718D01*
X01230084Y00703435D01*
X01230190Y00705150D01*
X01230337Y00706861D01*
X01230526Y00708569D01*
X01230758Y00710271D01*
X01231031Y00711967D01*
X01231345Y00713656D01*
X01231701Y00715337D01*
X01232098Y00717009D01*
X01232536Y00718670D01*
X01233014Y00720320D01*
X01233533Y00721958D01*
X01234092Y00723582D01*
X01234691Y00725193D01*
X01235328Y00726788D01*
X01236005Y00728367D01*
X01236721Y00729929D01*
X01237474Y00731473D01*
X01238266Y00732998D01*
X01239094Y00734503D01*
X01239959Y00735987D01*
X01240860Y00737450D01*
X01241797Y00738890D01*
X01242769Y00740307D01*
X01243775Y00741699D01*
X01244816Y00743066D01*
X01245889Y00744408D01*
X01246995Y00745722D01*
X01248133Y00747009D01*
X01249303Y00748268D01*
X01250503Y00749497D01*
X01251732Y00750697D01*
X01252991Y00751867D01*
X01254278Y00753005D01*
X01255592Y00754111D01*
X01256934Y00755184D01*
X01258301Y00756225D01*
X01259693Y00757231D01*
X01261110Y00758203D01*
X01262550Y00759140D01*
X01264013Y00760041D01*
X01265497Y00760906D01*
X01267002Y00761734D01*
X01268527Y00762526D01*
X01270071Y00763279D01*
X01271633Y00763995D01*
X01273212Y00764672D01*
X01274807Y00765309D01*
X01276418Y00765908D01*
X01278042Y00766467D01*
X01279680Y00766986D01*
X01281330Y00767464D01*
X01282991Y00767902D01*
X01284663Y00768299D01*
X01286344Y00768655D01*
X01288033Y00768969D01*
X01289729Y00769242D01*
X01291431Y00769474D01*
X01293139Y00769663D01*
X01294850Y00769810D01*
X01296565Y00769916D01*
X01298282Y00769979D01*
X01300000Y00770000D01*
X01301718Y00769979D01*
X01303435Y00769916D01*
X01305150Y00769810D01*
X01306861Y00769663D01*
X01308569Y00769474D01*
X01310271Y00769242D01*
X01311967Y00768969D01*
X01313656Y00768655D01*
X01315337Y00768299D01*
X01317009Y00767902D01*
X01318670Y00767464D01*
X01320320Y00766986D01*
X01321958Y00766467D01*
X01323582Y00765908D01*
X01325193Y00765309D01*
X01326788Y00764672D01*
X01328367Y00763995D01*
X01329929Y00763279D01*
X01331473Y00762526D01*
X01332998Y00761734D01*
X01334503Y00760906D01*
X01335987Y00760041D01*
X01337450Y00759140D01*
X01338890Y00758203D01*
X01340307Y00757231D01*
X01341699Y00756225D01*
X01343066Y00755184D01*
X01344408Y00754111D01*
X01345722Y00753005D01*
X01347009Y00751867D01*
X01348268Y00750697D01*
X01349497Y00749497D01*
X01350697Y00748268D01*
X01351867Y00747009D01*
X01353005Y00745722D01*
X01354111Y00744408D01*
X01355184Y00743066D01*
X01356225Y00741699D01*
X01357231Y00740307D01*
X01358203Y00738890D01*
X01359140Y00737450D01*
X01360041Y00735987D01*
X01360906Y00734503D01*
X01361734Y00732998D01*
X01362526Y00731473D01*
X01363279Y00729929D01*
X01363995Y00728367D01*
X01364672Y00726788D01*
X01365309Y00725193D01*
X01365908Y00723582D01*
X01366467Y00721958D01*
X01366986Y00720320D01*
X01367464Y00718670D01*
X01367902Y00717009D01*
X01368299Y00715337D01*
X01368655Y00713656D01*
X01368969Y00711967D01*
X01369242Y00710271D01*
X01369474Y00708569D01*
X01369663Y00706861D01*
X01369810Y00705150D01*
X01369916Y00703435D01*
X01369979Y00701718D01*
X01370000Y00700000D01*
X01369979Y00698282D01*
X01369916Y00696565D01*
X01369810Y00694850D01*
X01369663Y00693139D01*
X01369474Y00691431D01*
X01369242Y00689729D01*
X01368969Y00688033D01*
X01368655Y00686344D01*
X01368299Y00684663D01*
X01367902Y00682991D01*
X01367464Y00681330D01*
X01366986Y00679680D01*
X01366467Y00678042D01*
X01365908Y00676418D01*
X01365309Y00674807D01*
X01364672Y00673212D01*
X01363995Y00671633D01*
X01363279Y00670071D01*
X01362526Y00668527D01*
X01361734Y00667002D01*
X01360906Y00665497D01*
X01360041Y00664013D01*
X01359140Y00662550D01*
X01358203Y00661110D01*
X01357231Y00659693D01*
X01356225Y00658301D01*
X01355184Y00656934D01*
X01354111Y00655592D01*
X01353005Y00654278D01*
X01351867Y00652991D01*
X01350697Y00651732D01*
X01349497Y00650503D01*
X01348268Y00649303D01*
X01347009Y00648133D01*
X01345722Y00646995D01*
X01344408Y00645889D01*
X01343066Y00644816D01*
X01341699Y00643775D01*
X01340307Y00642769D01*
X01338890Y00641797D01*
X01337450Y00640860D01*
X01335987Y00639959D01*
X01334503Y00639094D01*
X01332998Y00638266D01*
X01331473Y00637474D01*
X01329929Y00636721D01*
X01328367Y00636005D01*
X01326788Y00635328D01*
X01325193Y00634691D01*
X01323582Y00634092D01*
X01321958Y00633533D01*
X01320320Y00633014D01*
X01318670Y00632536D01*
X01317009Y00632098D01*
X01315337Y00631701D01*
X01313656Y00631345D01*
X01311967Y00631031D01*
X01310271Y00630758D01*
X01308569Y00630526D01*
X01306861Y00630337D01*
X01305150Y00630190D01*
X01303435Y00630084D01*
X01301718Y00630021D01*
X01300000Y00630000D01*
X01298282Y00630021D01*
X01296565Y00630084D01*
X01294850Y00630190D01*
X01293139Y00630337D01*
X01291431Y00630526D01*
X01289729Y00630758D01*
X01288033Y00631031D01*
X01286344Y00631345D01*
X01284663Y00631701D01*
X01282991Y00632098D01*
X01281330Y00632536D01*
X01279680Y00633014D01*
X01278042Y00633533D01*
X01276418Y00634092D01*
X01274807Y00634691D01*
X01273212Y00635328D01*
X01271633Y00636005D01*
X01270071Y00636721D01*
X01268527Y00637474D01*
X01267002Y00638266D01*
X01265497Y00639094D01*
X01264013Y00639959D01*
X01262550Y00640860D01*
X01261110Y00641797D01*
X01259693Y00642769D01*
X01258301Y00643775D01*
X01256934Y00644816D01*
X01255592Y00645889D01*
X01254278Y00646995D01*
X01252991Y00648133D01*
X01251732Y00649303D01*
X01250503Y00650503D01*
X01249303Y00651732D01*
X01248133Y00652991D01*
X01246995Y00654278D01*
X01245889Y00655592D01*
X01244816Y00656934D01*
X01243775Y00658301D01*
X01242769Y00659693D01*
X01241797Y00661110D01*
X01240860Y00662550D01*
X01239959Y00664013D01*
X01239094Y00665497D01*
X01238266Y00667002D01*
X01237474Y00668527D01*
X01236721Y00670071D01*
X01236005Y00671633D01*
X01235328Y00673212D01*
X01234691Y00674807D01*
X01234092Y00676418D01*
X01233533Y00678042D01*
X01233014Y00679680D01*
X01232536Y00681330D01*
X01232098Y00682991D01*
X01231701Y00684663D01*
X01231345Y00686344D01*
X01231031Y00688033D01*
X01230758Y00689729D01*
X01230526Y00691431D01*
X01230337Y00693139D01*
X01230190Y00694850D01*
X01230084Y00696565D01*
X01230021Y00698282D01*
X01230000Y00700000D01*
X00325000Y00550000D02*
X00300000Y00550000D01*
X00200000Y00550000D01*
X00200000Y01350000D01*
X00300000Y01350000D01*
X00325000Y01350000D01*
X00325000Y00550000D01*
X00300000Y00550000D02*
X00300000Y01350000D01*
X00645000Y01815000D02*
X00645000Y01830000D01*
X00755000Y01830000D01*
X00760000Y01830000D01*
X00760000Y02130000D01*
X00759997Y02130242D01*
X00759988Y02130483D01*
X00759974Y02130724D01*
X00759953Y02130965D01*
X00759927Y02131205D01*
X00759895Y02131445D01*
X00759857Y02131684D01*
X00759814Y02131921D01*
X00759764Y02132158D01*
X00759709Y02132393D01*
X00759649Y02132627D01*
X00759582Y02132859D01*
X00759511Y02133090D01*
X00759433Y02133319D01*
X00759350Y02133546D01*
X00759262Y02133771D01*
X00759168Y02133994D01*
X00759069Y02134214D01*
X00758964Y02134432D01*
X00758855Y02134647D01*
X00758740Y02134860D01*
X00758620Y02135070D01*
X00758495Y02135276D01*
X00758365Y02135480D01*
X00758230Y02135681D01*
X00758090Y02135878D01*
X00757946Y02136072D01*
X00757797Y02136262D01*
X00757643Y02136448D01*
X00757485Y02136631D01*
X00757323Y02136810D01*
X00757156Y02136985D01*
X00756985Y02137156D01*
X00756810Y02137323D01*
X00756631Y02137485D01*
X00756448Y02137643D01*
X00756262Y02137797D01*
X00756072Y02137946D01*
X00755878Y02138090D01*
X00755681Y02138230D01*
X00755480Y02138365D01*
X00755276Y02138495D01*
X00755070Y02138620D01*
X00754860Y02138740D01*
X00754647Y02138855D01*
X00754432Y02138964D01*
X00754214Y02139069D01*
X00753994Y02139168D01*
X00753771Y02139262D01*
X00753546Y02139350D01*
X00753319Y02139433D01*
X00753090Y02139511D01*
X00752859Y02139582D01*
X00752627Y02139649D01*
X00752393Y02139709D01*
X00752158Y02139764D01*
X00751921Y02139814D01*
X00751684Y02139857D01*
X00751445Y02139895D01*
X00751205Y02139927D01*
X00750965Y02139953D01*
X00750724Y02139974D01*
X00750483Y02139988D01*
X00750242Y02139997D01*
X00750000Y02140000D01*
X00650000Y02140000D01*
X00649758Y02139997D01*
X00649517Y02139988D01*
X00649276Y02139974D01*
X00649035Y02139953D01*
X00648795Y02139927D01*
X00648555Y02139895D01*
X00648316Y02139857D01*
X00648079Y02139814D01*
X00647842Y02139764D01*
X00647607Y02139709D01*
X00647373Y02139649D01*
X00647141Y02139582D01*
X00646910Y02139511D01*
X00646681Y02139433D01*
X00646454Y02139350D01*
X00646229Y02139262D01*
X00646006Y02139168D01*
X00645786Y02139069D01*
X00645568Y02138964D01*
X00645353Y02138855D01*
X00645140Y02138740D01*
X00644930Y02138620D01*
X00644724Y02138495D01*
X00644520Y02138365D01*
X00644319Y02138230D01*
X00644122Y02138090D01*
X00643928Y02137946D01*
X00643738Y02137797D01*
X00643552Y02137643D01*
X00643369Y02137485D01*
X00643190Y02137323D01*
X00643015Y02137156D01*
X00642844Y02136985D01*
X00642677Y02136810D01*
X00642515Y02136631D01*
X00642357Y02136448D01*
X00642203Y02136262D01*
X00642054Y02136072D01*
X00641910Y02135878D01*
X00641770Y02135681D01*
X00641635Y02135480D01*
X00641505Y02135276D01*
X00641380Y02135070D01*
X00641260Y02134860D01*
X00641145Y02134647D01*
X00641036Y02134432D01*
X00640931Y02134214D01*
X00640832Y02133994D01*
X00640738Y02133771D01*
X00640650Y02133546D01*
X00640567Y02133319D01*
X00640489Y02133090D01*
X00640418Y02132859D01*
X00640351Y02132627D01*
X00640291Y02132393D01*
X00640236Y02132158D01*
X00640186Y02131921D01*
X00640143Y02131684D01*
X00640105Y02131445D01*
X00640073Y02131205D01*
X00640047Y02130965D01*
X00640026Y02130724D01*
X00640012Y02130483D01*
X00640003Y02130242D01*
X00640000Y02130000D01*
X00640000Y01830000D01*
X00645000Y01830000D01*
X00645000Y01815000D02*
X00755000Y01815000D01*
X00755000Y01830000D01*
X00700000Y01920000D02*
X00700000Y01940000D01*
X00730000Y01940000D01*
X00730000Y01955000D02*
X00730000Y01970000D01*
X00670000Y01970000D01*
X00670000Y01955000D01*
X00730000Y01955000D01*
X00730000Y01985000D02*
X00700000Y01985000D01*
X00700000Y02005000D01*
X00700000Y01985000D02*
X00670000Y01985000D01*
X00670000Y01940000D02*
X00700000Y01940000D01*
D14*
X00843307Y01576378D02*
X00853150Y01556693D01*
X00882244Y01556693D01*
X00917756Y01556693D02*
X00932244Y01556693D01*
X00967756Y01556693D02*
X00982244Y01556693D01*
X01017756Y01556693D02*
X01032244Y01556693D01*
X01067756Y01556693D02*
X01082244Y01556693D01*
X01117756Y01556693D02*
X01132244Y01556693D01*
X01167756Y01556693D02*
X01182244Y01556693D01*
X01217756Y01556693D02*
X01232244Y01556693D01*
X01267756Y01556693D02*
X01282244Y01556693D01*
X01317756Y01556693D02*
X01332244Y01556693D01*
X01367756Y01556693D02*
X01382244Y01556693D01*
X01417756Y01556693D02*
X01427165Y01556693D01*
X01427165Y01576378D01*
X01427165Y01556693D02*
X01427165Y01517756D01*
X01427165Y01556693D02*
X01473583Y01519764D01*
X01427165Y01482244D02*
X01427165Y01467756D01*
X01427165Y01432244D02*
X01427165Y01417756D01*
X01427165Y01382244D02*
X01427165Y01367756D01*
X01427165Y01332244D02*
X01427165Y01317756D01*
X01427165Y01282244D02*
X01427165Y01267756D01*
X01427165Y01232244D02*
X01427165Y01217756D01*
X01427165Y01182244D02*
X01427165Y01167756D01*
X01427165Y01132244D02*
X01427165Y01117756D01*
X01427165Y01082244D02*
X01427165Y01067756D01*
X01427165Y01032244D02*
X01427165Y01017756D01*
X01427165Y00982244D02*
X01427165Y00943307D01*
X01456693Y00923622D01*
X01427165Y00943307D02*
X01417756Y00943307D01*
X01382244Y00943307D02*
X01367756Y00943307D01*
X01332244Y00943307D02*
X01317756Y00943307D01*
X01282244Y00943307D02*
X01267756Y00943307D01*
X01232244Y00943307D02*
X01217756Y00943307D01*
X01182244Y00943307D02*
X01167756Y00943307D01*
X01132244Y00943307D02*
X01117756Y00943307D01*
X01082244Y00943307D02*
X01067756Y00943307D01*
X01032244Y00943307D02*
X01017756Y00943307D01*
X00982244Y00943307D02*
X00967756Y00943307D01*
X00932244Y00943307D02*
X00917756Y00943307D01*
X00882244Y00943307D02*
X00853150Y00943307D01*
X00843307Y00923622D01*
X00853150Y00943307D02*
X00843307Y00953150D01*
X00823622Y00943307D01*
X00843307Y00953150D02*
X00843307Y00982244D01*
X00843307Y01017756D02*
X00843307Y01032244D01*
X00843307Y01067756D02*
X00843307Y01082244D01*
X00843307Y01117756D02*
X00843307Y01132244D01*
X00843307Y01167756D02*
X00843307Y01182244D01*
X00843307Y01217756D02*
X00843307Y01232244D01*
X00843307Y01267756D02*
X00843307Y01282244D01*
X00843307Y01317756D02*
X00843307Y01332244D01*
X00843307Y01367756D02*
X00843307Y01382244D01*
X00843307Y01417756D02*
X00843307Y01432244D01*
X00843307Y01467756D02*
X00843307Y01482244D01*
X00843307Y01517756D02*
X00843307Y01546850D01*
X00823622Y01556693D01*
X00843307Y01546850D02*
X00853150Y01556693D01*
X01144000Y02083000D02*
X01555000Y02083000D01*
X01364961Y01250000D02*
X01364967Y01250483D01*
X01364985Y01250966D01*
X01365014Y01251448D01*
X01365056Y01251929D01*
X01365109Y01252410D01*
X01365174Y01252888D01*
X01365251Y01253365D01*
X01365339Y01253840D01*
X01365439Y01254313D01*
X01365551Y01254783D01*
X01365674Y01255250D01*
X01365809Y01255714D01*
X01365955Y01256175D01*
X01366112Y01256632D01*
X01366280Y01257085D01*
X01366459Y01257533D01*
X01366650Y01257977D01*
X01366851Y01258416D01*
X01367063Y01258851D01*
X01367285Y01259279D01*
X01367518Y01259703D01*
X01367762Y01260120D01*
X01368015Y01260531D01*
X01368279Y01260936D01*
X01368552Y01261335D01*
X01368835Y01261726D01*
X01369127Y01262111D01*
X01369429Y01262488D01*
X01369740Y01262858D01*
X01370060Y01263220D01*
X01370389Y01263574D01*
X01370727Y01263919D01*
X01371072Y01264257D01*
X01371426Y01264586D01*
X01371788Y01264906D01*
X01372158Y01265217D01*
X01372535Y01265519D01*
X01372920Y01265811D01*
X01373311Y01266094D01*
X01373710Y01266367D01*
X01374115Y01266631D01*
X01374526Y01266884D01*
X01374943Y01267128D01*
X01375367Y01267361D01*
X01375795Y01267583D01*
X01376230Y01267795D01*
X01376669Y01267996D01*
X01377113Y01268187D01*
X01377561Y01268366D01*
X01378014Y01268534D01*
X01378471Y01268691D01*
X01378932Y01268837D01*
X01379396Y01268972D01*
X01379863Y01269095D01*
X01380333Y01269207D01*
X01380806Y01269307D01*
X01381281Y01269395D01*
X01381758Y01269472D01*
X01382236Y01269537D01*
X01382717Y01269590D01*
X01383198Y01269632D01*
X01383680Y01269661D01*
X01384163Y01269679D01*
X01384646Y01269685D01*
X01385129Y01269679D01*
X01385612Y01269661D01*
X01386094Y01269632D01*
X01386575Y01269590D01*
X01387056Y01269537D01*
X01387534Y01269472D01*
X01388011Y01269395D01*
X01388486Y01269307D01*
X01388959Y01269207D01*
X01389429Y01269095D01*
X01389896Y01268972D01*
X01390360Y01268837D01*
X01390821Y01268691D01*
X01391278Y01268534D01*
X01391731Y01268366D01*
X01392179Y01268187D01*
X01392623Y01267996D01*
X01393062Y01267795D01*
X01393497Y01267583D01*
X01393925Y01267361D01*
X01394349Y01267128D01*
X01394766Y01266884D01*
X01395177Y01266631D01*
X01395582Y01266367D01*
X01395981Y01266094D01*
X01396372Y01265811D01*
X01396757Y01265519D01*
X01397134Y01265217D01*
X01397504Y01264906D01*
X01397866Y01264586D01*
X01398220Y01264257D01*
X01398565Y01263919D01*
X01398903Y01263574D01*
X01399232Y01263220D01*
X01399552Y01262858D01*
X01399863Y01262488D01*
X01400165Y01262111D01*
X01400457Y01261726D01*
X01400740Y01261335D01*
X01401013Y01260936D01*
X01401277Y01260531D01*
X01401530Y01260120D01*
X01401774Y01259703D01*
X01402007Y01259279D01*
X01402229Y01258851D01*
X01402441Y01258416D01*
X01402642Y01257977D01*
X01402833Y01257533D01*
X01403012Y01257085D01*
X01403180Y01256632D01*
X01403337Y01256175D01*
X01403483Y01255714D01*
X01403618Y01255250D01*
X01403741Y01254783D01*
X01403853Y01254313D01*
X01403953Y01253840D01*
X01404041Y01253365D01*
X01404118Y01252888D01*
X01404183Y01252410D01*
X01404236Y01251929D01*
X01404278Y01251448D01*
X01404307Y01250966D01*
X01404325Y01250483D01*
X01404331Y01250000D01*
X01404325Y01249517D01*
X01404307Y01249034D01*
X01404278Y01248552D01*
X01404236Y01248071D01*
X01404183Y01247590D01*
X01404118Y01247112D01*
X01404041Y01246635D01*
X01403953Y01246160D01*
X01403853Y01245687D01*
X01403741Y01245217D01*
X01403618Y01244750D01*
X01403483Y01244286D01*
X01403337Y01243825D01*
X01403180Y01243368D01*
X01403012Y01242915D01*
X01402833Y01242467D01*
X01402642Y01242023D01*
X01402441Y01241584D01*
X01402229Y01241149D01*
X01402007Y01240721D01*
X01401774Y01240297D01*
X01401530Y01239880D01*
X01401277Y01239469D01*
X01401013Y01239064D01*
X01400740Y01238665D01*
X01400457Y01238274D01*
X01400165Y01237889D01*
X01399863Y01237512D01*
X01399552Y01237142D01*
X01399232Y01236780D01*
X01398903Y01236426D01*
X01398565Y01236081D01*
X01398220Y01235743D01*
X01397866Y01235414D01*
X01397504Y01235094D01*
X01397134Y01234783D01*
X01396757Y01234481D01*
X01396372Y01234189D01*
X01395981Y01233906D01*
X01395582Y01233633D01*
X01395177Y01233369D01*
X01394766Y01233116D01*
X01394349Y01232872D01*
X01393925Y01232639D01*
X01393497Y01232417D01*
X01393062Y01232205D01*
X01392623Y01232004D01*
X01392179Y01231813D01*
X01391731Y01231634D01*
X01391278Y01231466D01*
X01390821Y01231309D01*
X01390360Y01231163D01*
X01389896Y01231028D01*
X01389429Y01230905D01*
X01388959Y01230793D01*
X01388486Y01230693D01*
X01388011Y01230605D01*
X01387534Y01230528D01*
X01387056Y01230463D01*
X01386575Y01230410D01*
X01386094Y01230368D01*
X01385612Y01230339D01*
X01385129Y01230321D01*
X01384646Y01230315D01*
X01384163Y01230321D01*
X01383680Y01230339D01*
X01383198Y01230368D01*
X01382717Y01230410D01*
X01382236Y01230463D01*
X01381758Y01230528D01*
X01381281Y01230605D01*
X01380806Y01230693D01*
X01380333Y01230793D01*
X01379863Y01230905D01*
X01379396Y01231028D01*
X01378932Y01231163D01*
X01378471Y01231309D01*
X01378014Y01231466D01*
X01377561Y01231634D01*
X01377113Y01231813D01*
X01376669Y01232004D01*
X01376230Y01232205D01*
X01375795Y01232417D01*
X01375367Y01232639D01*
X01374943Y01232872D01*
X01374526Y01233116D01*
X01374115Y01233369D01*
X01373710Y01233633D01*
X01373311Y01233906D01*
X01372920Y01234189D01*
X01372535Y01234481D01*
X01372158Y01234783D01*
X01371788Y01235094D01*
X01371426Y01235414D01*
X01371072Y01235743D01*
X01370727Y01236081D01*
X01370389Y01236426D01*
X01370060Y01236780D01*
X01369740Y01237142D01*
X01369429Y01237512D01*
X01369127Y01237889D01*
X01368835Y01238274D01*
X01368552Y01238665D01*
X01368279Y01239064D01*
X01368015Y01239469D01*
X01367762Y01239880D01*
X01367518Y01240297D01*
X01367285Y01240721D01*
X01367063Y01241149D01*
X01366851Y01241584D01*
X01366650Y01242023D01*
X01366459Y01242467D01*
X01366280Y01242915D01*
X01366112Y01243368D01*
X01365955Y01243825D01*
X01365809Y01244286D01*
X01365674Y01244750D01*
X01365551Y01245217D01*
X01365439Y01245687D01*
X01365339Y01246160D01*
X01365251Y01246635D01*
X01365174Y01247112D01*
X01365109Y01247590D01*
X01365056Y01248071D01*
X01365014Y01248552D01*
X01364985Y01249034D01*
X01364967Y01249517D01*
X01364961Y01250000D01*
X01350000Y00820000D02*
X01350000Y00810000D01*
X01255000Y00810000D01*
X01255000Y00820000D01*
X01250000Y00590000D02*
X01250000Y00580000D01*
X01250000Y00590000D02*
X01350000Y00590000D01*
X01350000Y00580000D01*
D15*
X01658446Y00898500D02*
X01721500Y00940536D01*
X01721500Y00962955D02*
X01721500Y01004991D01*
X01721500Y00983973D02*
X01658446Y00983973D01*
X01679464Y00962955D01*
X01658446Y00940536D02*
X01721500Y00898500D01*
X01571500Y01186620D02*
X01571500Y01207638D01*
X01571500Y01197129D02*
X01508446Y01197129D01*
X01508446Y01186620D02*
X01508446Y01207638D01*
X01518955Y01229590D02*
X01508446Y01240099D01*
X01508446Y01261117D01*
X01518955Y01271626D01*
X01529464Y01294045D02*
X01508446Y01315063D01*
X01571500Y01315063D01*
X01571500Y01294045D02*
X01571500Y01336081D01*
X01560991Y01271626D02*
X01571500Y01261117D01*
X01571500Y01240099D01*
X01560991Y01229590D01*
X01518955Y01229590D01*
D16*
X01863471Y01267500D02*
X01880485Y01267500D01*
X01874814Y01278843D01*
X01874814Y01284515D01*
X01880485Y01290186D01*
X01891828Y01290186D01*
X01897500Y01284515D01*
X01897500Y01273172D01*
X01891828Y01267500D01*
X01863471Y01267500D02*
X01863471Y01290186D01*
X01880485Y01377500D02*
X01880485Y01400186D01*
X01863471Y01394515D02*
X01880485Y01377500D01*
X01897500Y01394515D02*
X01863471Y01394515D01*
X01869142Y01482500D02*
X01863471Y01488172D01*
X01863471Y01499515D01*
X01869142Y01505186D01*
X01874814Y01505186D01*
X01880485Y01499515D01*
X01886157Y01505186D01*
X01891828Y01505186D01*
X01897500Y01499515D01*
X01897500Y01488172D01*
X01891828Y01482500D01*
X01880485Y01493843D02*
X01880485Y01499515D01*
X01869142Y01592500D02*
X01863471Y01598172D01*
X01863471Y01609515D01*
X01869142Y01615186D01*
X01874814Y01615186D01*
X01897500Y01592500D01*
X01897500Y01615186D01*
X01897500Y01702500D02*
X01897500Y01725186D01*
X01897500Y01713843D02*
X01863471Y01713843D01*
X01874814Y01702500D01*
X02103471Y01675186D02*
X02109142Y01663843D01*
X02120485Y01652500D01*
X02120485Y01669515D01*
X02126157Y01675186D01*
X02131828Y01675186D01*
X02137500Y01669515D01*
X02137500Y01658172D01*
X02131828Y01652500D01*
X02120485Y01652500D01*
X02109142Y01565186D02*
X02131828Y01542500D01*
X02137500Y01542500D01*
X02103471Y01542500D02*
X02103471Y01565186D01*
X02109142Y01565186D01*
X02109142Y01455186D02*
X02114814Y01455186D01*
X02120485Y01449515D01*
X02120485Y01438172D01*
X02114814Y01432500D01*
X02109142Y01432500D01*
X02103471Y01438172D01*
X02103471Y01449515D01*
X02109142Y01455186D01*
X02120485Y01449515D02*
X02126157Y01455186D01*
X02131828Y01455186D01*
X02137500Y01449515D01*
X02137500Y01438172D01*
X02131828Y01432500D01*
X02126157Y01432500D01*
X02120485Y01438172D01*
X02120485Y01345186D02*
X02120485Y01328172D01*
X02114814Y01322500D01*
X02109142Y01322500D01*
X02103471Y01328172D01*
X02103471Y01339515D01*
X02109142Y01345186D01*
X02131828Y01345186D01*
X02137500Y01339515D01*
X02137500Y01328172D01*
X02131828Y01322500D01*
X01617500Y01969728D02*
X01617500Y01984741D01*
X01617500Y01977235D02*
X01572462Y01977235D01*
X01572462Y01984741D02*
X01572462Y01969728D01*
X01579968Y02000421D02*
X01609994Y02000421D01*
X01617500Y02007928D01*
X01617500Y02022940D01*
X01609994Y02030447D01*
X01609994Y02046461D02*
X01617500Y02053967D01*
X01617500Y02068980D01*
X01609994Y02076486D01*
X01602487Y02076486D01*
X01594981Y02068980D01*
X01594981Y02061473D01*
X01594981Y02068980D02*
X01587474Y02076486D01*
X01579968Y02076486D01*
X01572462Y02068980D01*
X01572462Y02053967D01*
X01579968Y02046461D01*
X01579968Y02030447D02*
X01572462Y02022940D01*
X01572462Y02007928D01*
X01579968Y02000421D01*
X00622500Y01908565D02*
X00622500Y01878539D01*
X00622500Y01893552D02*
X00577462Y01893552D01*
X00592474Y01878539D01*
X00584968Y01862526D02*
X00614994Y01862526D01*
X00622500Y01855019D01*
X00622500Y01840006D01*
X00614994Y01832500D01*
X00584968Y01832500D01*
X00577462Y01840006D01*
X00577462Y01855019D01*
X00584968Y01862526D01*
X00607487Y01847513D02*
X00622500Y01862526D01*
X01337928Y00552538D02*
X01330421Y00545032D01*
X01330421Y00537526D01*
X01337928Y00530019D01*
X01352941Y00530019D01*
X01360447Y00522513D01*
X01360447Y00515006D01*
X01352941Y00507500D01*
X01337928Y00507500D01*
X01330421Y00515006D01*
X01337928Y00552538D02*
X01352941Y00552538D01*
X01360447Y00545032D01*
X01376461Y00537526D02*
X01391473Y00552538D01*
X01391473Y00507500D01*
X01376461Y00507500D02*
X01406486Y00507500D01*
D17*
X01425000Y01800500D03*
X01375000Y01800500D03*
X01325000Y01800500D03*
X01275000Y01800500D03*
X01225000Y01800500D03*
X01175000Y01800500D03*
X01175000Y02099500D03*
X01225000Y02099500D03*
X01275000Y02099500D03*
X01325000Y02099500D03*
X01375000Y02099500D03*
X01425000Y02099500D03*
X01475000Y02099500D03*
X01525000Y02099500D03*
X01525000Y01800500D03*
X01475000Y01800500D03*
D18*
X00250000Y01300000D03*
X00250000Y01200000D03*
X00250000Y01100000D03*
X00250000Y01000000D03*
X00250000Y00900000D03*
X00250000Y00800000D03*
X00250000Y00700000D03*
X00250000Y00600000D03*
D19*
X00678000Y01778000D02*
X00680000Y01780000D01*
X00680000Y01790000D01*
X00720000Y01795000D02*
X00720000Y01780000D01*
X00722000Y01778000D01*
D20*
X00720000Y01801500D03*
X00680000Y01801500D03*
M02*
