%
M48
M72
T01C0.03200
T02C0.03543
T03C0.04000
T04C0.13000
%
T01
X66000Y177250
X76000Y177250
T02
X72250Y166000
X77250Y142250
X69750Y138500
X77250Y128500
X92250Y133500
X98500Y133500
X92250Y146000
X104750Y169750
X114750Y166000
X123500Y169750
X129750Y151000
X132250Y142250
X119750Y148500
X97250Y184750
X109750Y224750
X143500Y208500
X159750Y168500
X93500Y86000
X83500Y82250
X68500Y82250
X37250Y77250
X49750Y137250
T03
X26000Y62250
X26000Y72250
X26000Y82250
X26000Y92250
X26000Y102250
X26000Y112250
X26000Y122250
X26000Y132250
X118200Y81150
X118200Y63350
X143800Y63350
X143800Y81150
X195400Y130650
X195400Y141450
X195400Y152250
X195400Y163050
X195400Y173850
X206600Y168450
X206600Y157650
X206600Y146850
X206600Y136050
T04
X201000Y102950
X201000Y201550
M30
