G75*
%MOIN*%
%OFA0B0*%
%FSLAX26Y26*%
%IPPOS*%
%LPD*%
%AMOC8*
5,1,8,0,0,1.08239X$1,22.5*
%
%ADD10R,0.110362X0.070992*%
%ADD11R,0.070992X0.110362*%
%ADD12R,0.037921X0.078866*%
%ADD13R,0.078866X0.037921*%
%ADD14R,0.034000X0.088000*%
%ADD15C,0.068000*%
%ADD16C,0.060000*%
%ADD17OC8,0.068000*%
%ADD18C,0.138000*%
%ADD19C,0.061150*%
D10*
X01229134Y02350000D03*
X01370866Y02350000D03*
X01479134Y02350000D03*
X01620866Y02350000D03*
D11*
X00750000Y00770866D03*
X00750000Y00629134D03*
D12*
X00900000Y00940551D03*
X00950000Y00940551D03*
X01000000Y00940551D03*
X01050000Y00940551D03*
X01100000Y00940551D03*
X01150000Y00940551D03*
X01200000Y00940551D03*
X01250000Y00940551D03*
X01300000Y00940551D03*
X01350000Y00940551D03*
X01400000Y00940551D03*
X01400000Y01559449D03*
X01350000Y01559449D03*
X01300000Y01559449D03*
X01250000Y01559449D03*
X01200000Y01559449D03*
X01150000Y01559449D03*
X01100000Y01559449D03*
X01050000Y01559449D03*
X01000000Y01559449D03*
X00950000Y01559449D03*
X00900000Y01559449D03*
D13*
X00840551Y01500000D03*
X00840551Y01450000D03*
X00840551Y01400000D03*
X00840551Y01350000D03*
X00840551Y01300000D03*
X00840551Y01250000D03*
X00840551Y01200000D03*
X00840551Y01150000D03*
X00840551Y01100000D03*
X00840551Y01050000D03*
X00840551Y01000000D03*
X01459449Y01000000D03*
X01459449Y01050000D03*
X01459449Y01100000D03*
X01459449Y01150000D03*
X01459449Y01200000D03*
X01459449Y01250000D03*
X01459449Y01300000D03*
X01459449Y01350000D03*
X01459449Y01400000D03*
X01459449Y01450000D03*
X01459449Y01500000D03*
D14*
X01475000Y01757000D03*
X01425000Y01757000D03*
X01375000Y01757000D03*
X01325000Y01757000D03*
X01275000Y01757000D03*
X01225000Y01757000D03*
X01175000Y01757000D03*
X01525000Y01757000D03*
X01525000Y02143000D03*
X01475000Y02143000D03*
X01425000Y02143000D03*
X01375000Y02143000D03*
X01325000Y02143000D03*
X01275000Y02143000D03*
X01225000Y02143000D03*
X01175000Y02143000D03*
D15*
X00280000Y00600000D02*
X00220000Y00600000D01*
X00220000Y00700000D02*
X00280000Y00700000D01*
X00280000Y00800000D02*
X00220000Y00800000D01*
X00220000Y00900000D02*
X00280000Y00900000D01*
X00280000Y01000000D02*
X00220000Y01000000D01*
X00220000Y01100000D02*
X00280000Y01100000D01*
X00280000Y01200000D02*
X00220000Y01200000D01*
X00220000Y01300000D02*
X00280000Y01300000D01*
X01142000Y00789000D02*
X01202000Y00789000D01*
X01202000Y00611000D02*
X01142000Y00611000D01*
X01398000Y00611000D02*
X01458000Y00611000D01*
X01458000Y00789000D02*
X01398000Y00789000D01*
D16*
X00750000Y01750000D03*
X00650000Y01750000D03*
D17*
X01944000Y01716000D03*
X01944000Y01608000D03*
X01944000Y01500000D03*
X01944000Y01392000D03*
X01944000Y01284000D03*
X02056000Y01338000D03*
X02056000Y01446000D03*
X02056000Y01554000D03*
X02056000Y01662000D03*
D18*
X02000000Y01993000D03*
X02000000Y01007000D03*
D19*
X01587500Y01662500D03*
X01312500Y01400000D03*
X01287500Y01487500D03*
X01187500Y01462500D03*
X01137500Y01637500D03*
X01225000Y01675000D03*
X01037500Y01675000D03*
X00962500Y01825000D03*
X00712500Y01637500D03*
X00762500Y01400000D03*
X00687500Y01362500D03*
X00762500Y01262500D03*
X00912500Y01312500D03*
X00975000Y01312500D03*
X00912500Y01437500D03*
X00487500Y01350000D03*
X00925000Y00837500D03*
X00825000Y00800000D03*
X00675000Y00800000D03*
X00362500Y00750000D03*
X01425000Y02062500D03*
X01087500Y02225000D03*
M02*
