G75*
%MOIN*%
%OFA0B0*%
%FSLAX26Y26*%
%IPPOS*%
%LPD*%
%AMOC8*
5,1,8,0,0,1.08239X$1,22.5*
%
%ADD10OC8,0.052000*%
%ADD11OC8,0.063000*%
%ADD12C,0.063000*%
%ADD13C,0.052000*%
%ADD14C,0.052000*%
%ADD15C,0.060000*%
%ADD16C,0.016000*%
%ADD17C,0.053150*%
D10*
X00250000Y00500000D03*
X00350000Y00500000D03*
X00350000Y00950000D03*
X00450000Y00950000D03*
X00600000Y02450000D03*
X00600000Y02550000D03*
D11*
X00150000Y00900000D03*
D12*
X00150000Y01000000D03*
D13*
X00124000Y01400000D02*
X00176000Y01400000D01*
X00176000Y01500000D02*
X00124000Y01500000D01*
X00124000Y01600000D02*
X00176000Y01600000D01*
X00176000Y01700000D02*
X00124000Y01700000D01*
X00124000Y01800000D02*
X00176000Y01800000D01*
X00176000Y01900000D02*
X00124000Y01900000D01*
X00124000Y02000000D02*
X00176000Y02000000D01*
X00176000Y02100000D02*
X00124000Y02100000D01*
X00124000Y02200000D02*
X00176000Y02200000D01*
X00176000Y02300000D02*
X00124000Y02300000D01*
X00424000Y02300000D02*
X00476000Y02300000D01*
X00476000Y02200000D02*
X00424000Y02200000D01*
X00424000Y02100000D02*
X00476000Y02100000D01*
X00476000Y02000000D02*
X00424000Y02000000D01*
X00424000Y01900000D02*
X00476000Y01900000D01*
X00476000Y01800000D02*
X00424000Y01800000D01*
X00424000Y01700000D02*
X00476000Y01700000D01*
X00476000Y01600000D02*
X00424000Y01600000D01*
X00424000Y01500000D02*
X00476000Y01500000D01*
X00476000Y01400000D02*
X00424000Y01400000D01*
X00574000Y01400000D02*
X00626000Y01400000D01*
X00626000Y01300000D02*
X00574000Y01300000D01*
X00574000Y01200000D02*
X00626000Y01200000D01*
X00626000Y01100000D02*
X00574000Y01100000D01*
X00574000Y01000000D02*
X00626000Y01000000D01*
X00626000Y00900000D02*
X00574000Y00900000D01*
X00574000Y00800000D02*
X00626000Y00800000D01*
X00626000Y00700000D02*
X00574000Y00700000D01*
X00574000Y00600000D02*
X00626000Y00600000D01*
X00626000Y00500000D02*
X00574000Y00500000D01*
X00574000Y00400000D02*
X00626000Y00400000D01*
X00626000Y00300000D02*
X00574000Y00300000D01*
X00574000Y00200000D02*
X00626000Y00200000D01*
X01174000Y00200000D02*
X01226000Y00200000D01*
X01226000Y00300000D02*
X01174000Y00300000D01*
X01174000Y00400000D02*
X01226000Y00400000D01*
X01226000Y00500000D02*
X01174000Y00500000D01*
X01174000Y00600000D02*
X01226000Y00600000D01*
X01226000Y00700000D02*
X01174000Y00700000D01*
X01174000Y00800000D02*
X01226000Y00800000D01*
X01226000Y00900000D02*
X01174000Y00900000D01*
X01174000Y01000000D02*
X01226000Y01000000D01*
X01226000Y01100000D02*
X01174000Y01100000D01*
X01174000Y01200000D02*
X01226000Y01200000D01*
X01226000Y01300000D02*
X01174000Y01300000D01*
X01174000Y01400000D02*
X01226000Y01400000D01*
X01226000Y01500000D02*
X01174000Y01500000D01*
X01174000Y01600000D02*
X01226000Y01600000D01*
X01226000Y01700000D02*
X01174000Y01700000D01*
X01174000Y01800000D02*
X01226000Y01800000D01*
X01226000Y01900000D02*
X01174000Y01900000D01*
X01174000Y02000000D02*
X01226000Y02000000D01*
X01226000Y02100000D02*
X01174000Y02100000D01*
X00961000Y02350000D02*
X00909000Y02350000D01*
X00909000Y02450000D02*
X00961000Y02450000D01*
X00961000Y02550000D02*
X00909000Y02550000D01*
X00626000Y02100000D02*
X00574000Y02100000D01*
X00574000Y02000000D02*
X00626000Y02000000D01*
X00626000Y01900000D02*
X00574000Y01900000D01*
X00574000Y01800000D02*
X00626000Y01800000D01*
X00626000Y01700000D02*
X00574000Y01700000D01*
X00574000Y01600000D02*
X00626000Y01600000D01*
X00626000Y01500000D02*
X00574000Y01500000D01*
D14*
X00100000Y00800000D03*
X00100000Y00700000D03*
D15*
X00142000Y00339000D02*
X00202000Y00339000D01*
X00202000Y00161000D02*
X00142000Y00161000D01*
X00398000Y00161000D02*
X00458000Y00161000D01*
X00458000Y00339000D02*
X00398000Y00339000D01*
X01150000Y02470000D02*
X01150000Y02530000D01*
X01250000Y02530000D02*
X01250000Y02470000D01*
D16*
X00048000Y00318059D02*
X00048000Y00048000D01*
X01939008Y00048000D01*
X01939008Y02651606D01*
X00048000Y02651606D01*
X00048000Y01481941D01*
X00079654Y01513595D01*
X00086405Y01520346D01*
X00087084Y01520627D01*
X00088394Y01523791D01*
X00100209Y01535606D01*
X00115646Y01542000D01*
X00184354Y01542000D01*
X00199791Y01535606D01*
X00200728Y01534669D01*
X00236405Y01570346D01*
X00245226Y01574000D01*
X00390603Y01574000D01*
X00388394Y01576209D01*
X00382000Y01591646D01*
X00382000Y01608354D01*
X00388394Y01623791D01*
X00400209Y01635606D01*
X00415646Y01642000D01*
X00484354Y01642000D01*
X00499791Y01635606D01*
X00511397Y01624000D01*
X00538603Y01624000D01*
X00550209Y01635606D01*
X00565646Y01642000D01*
X00634354Y01642000D01*
X00649791Y01635606D01*
X00661606Y01623791D01*
X00668000Y01608354D01*
X00668000Y01591646D01*
X00661606Y01576209D01*
X00659397Y01574000D01*
X00763859Y01574000D01*
X00763907Y01574117D01*
X00775883Y01586093D01*
X00791531Y01592575D01*
X00808469Y01592575D01*
X00824117Y01586093D01*
X00836093Y01574117D01*
X00842575Y01558469D01*
X00842575Y01541531D01*
X00836093Y01525883D01*
X00824117Y01513907D01*
X00808469Y01507425D01*
X00791531Y01507425D01*
X00775883Y01513907D01*
X00763907Y01525883D01*
X00763859Y01526000D01*
X00659397Y01526000D01*
X00661606Y01523791D01*
X00668000Y01508354D01*
X00668000Y01491646D01*
X00661606Y01476209D01*
X00649791Y01464394D01*
X00634354Y01458000D01*
X00565646Y01458000D01*
X00550209Y01464394D01*
X00538603Y01476000D01*
X00511397Y01476000D01*
X00499791Y01464394D01*
X00484354Y01458000D01*
X00415646Y01458000D01*
X00400209Y01464394D01*
X00388394Y01476209D01*
X00382000Y01491646D01*
X00382000Y01508354D01*
X00388394Y01523791D01*
X00390603Y01526000D01*
X00259941Y01526000D01*
X00220346Y01486405D01*
X00213595Y01479654D01*
X00212916Y01479373D01*
X00211606Y01476209D01*
X00199791Y01464394D01*
X00184354Y01458000D01*
X00115646Y01458000D01*
X00100209Y01464394D01*
X00099272Y01465331D01*
X00074000Y01440059D01*
X00074000Y01334210D01*
X00075883Y01336093D01*
X00091531Y01342575D01*
X00108469Y01342575D01*
X00124117Y01336093D01*
X00136093Y01324117D01*
X00142575Y01308469D01*
X00142575Y01291531D01*
X00142526Y01291415D01*
X00213595Y01220346D01*
X00220346Y01213595D01*
X00224000Y01204774D01*
X00224000Y00909941D01*
X00226000Y00907941D01*
X00226000Y01263859D01*
X00225883Y01263907D01*
X00213907Y01275883D01*
X00207425Y01291531D01*
X00207425Y01308469D01*
X00213907Y01324117D01*
X00225883Y01336093D01*
X00241531Y01342575D01*
X00258469Y01342575D01*
X00274117Y01336093D01*
X00286093Y01324117D01*
X00287289Y01321230D01*
X00307474Y01341415D01*
X00307425Y01341531D01*
X00307425Y01358469D01*
X00313907Y01374117D01*
X00325883Y01386093D01*
X00341531Y01392575D01*
X00358469Y01392575D01*
X00374117Y01386093D01*
X00386093Y01374117D01*
X00392575Y01358469D01*
X00392575Y01341531D01*
X00386093Y01325883D01*
X00374117Y01313907D01*
X00358469Y01307425D01*
X00341531Y01307425D01*
X00341415Y01307474D01*
X00324000Y01290059D01*
X00324000Y00983397D01*
X00332603Y00992000D01*
X00367397Y00992000D01*
X00392000Y00967397D01*
X00392000Y00932603D01*
X00367397Y00908000D01*
X00332603Y00908000D01*
X00324000Y00916603D01*
X00324000Y00909941D01*
X00509941Y00724000D01*
X00538603Y00724000D01*
X00550209Y00735606D01*
X00565646Y00742000D01*
X00634354Y00742000D01*
X00649791Y00735606D01*
X00661606Y00723791D01*
X00668000Y00708354D01*
X00668000Y00691646D01*
X00661606Y00676209D01*
X00649791Y00664394D01*
X00634354Y00658000D01*
X00565646Y00658000D01*
X00550209Y00664394D01*
X00538603Y00676000D01*
X00507941Y00676000D01*
X00549272Y00634669D01*
X00550209Y00635606D01*
X00565646Y00642000D01*
X00634354Y00642000D01*
X00649791Y00635606D01*
X00661606Y00623791D01*
X00668000Y00608354D01*
X00668000Y00601941D01*
X00676000Y00609941D01*
X00676000Y00740059D01*
X00650728Y00765331D01*
X00649791Y00764394D01*
X00634354Y00758000D01*
X00565646Y00758000D01*
X00550209Y00764394D01*
X00538394Y00776209D01*
X00532000Y00791646D01*
X00532000Y00808354D01*
X00538394Y00823791D01*
X00550209Y00835606D01*
X00565646Y00842000D01*
X00634354Y00842000D01*
X00649791Y00835606D01*
X00661606Y00823791D01*
X00662916Y00820627D01*
X00663595Y00820346D01*
X00670346Y00813595D01*
X00720346Y00763595D01*
X00724000Y00754774D01*
X00724000Y00595226D01*
X00720346Y00586405D01*
X00713595Y00579654D01*
X00663595Y00529654D01*
X00658043Y00527354D01*
X00661606Y00523791D01*
X00662689Y00521176D01*
X00663907Y00524117D01*
X00675883Y00536093D01*
X00691531Y00542575D01*
X00708469Y00542575D01*
X00724117Y00536093D01*
X00736093Y00524117D01*
X00742575Y00508469D01*
X00742575Y00491531D01*
X00736093Y00475883D01*
X00724117Y00463907D01*
X00724000Y00463859D01*
X00724000Y00445226D01*
X00720346Y00436405D01*
X00713595Y00429654D01*
X00663595Y00379654D01*
X00662916Y00379373D01*
X00661606Y00376209D01*
X00649791Y00364394D01*
X00634354Y00358000D01*
X00565646Y00358000D01*
X00550209Y00364394D01*
X00538394Y00376209D01*
X00532000Y00391646D01*
X00532000Y00408354D01*
X00538394Y00423791D01*
X00550209Y00435606D01*
X00565646Y00442000D01*
X00634354Y00442000D01*
X00649791Y00435606D01*
X00650728Y00434669D01*
X00676000Y00459941D01*
X00676000Y00463859D01*
X00675883Y00463907D01*
X00663907Y00475883D01*
X00662689Y00478824D01*
X00661606Y00476209D01*
X00649791Y00464394D01*
X00634354Y00458000D01*
X00565646Y00458000D01*
X00550209Y00464394D01*
X00538394Y00476209D01*
X00532000Y00491646D01*
X00532000Y00508354D01*
X00538394Y00523791D01*
X00541957Y00527354D01*
X00536405Y00529654D01*
X00529654Y00536405D01*
X00224000Y00842059D01*
X00224000Y00709941D01*
X00241415Y00692526D01*
X00241531Y00692575D01*
X00258469Y00692575D01*
X00274117Y00686093D01*
X00286093Y00674117D01*
X00292575Y00658469D01*
X00292575Y00641531D01*
X00286093Y00625883D01*
X00274117Y00613907D01*
X00258469Y00607425D01*
X00241531Y00607425D01*
X00225883Y00613907D01*
X00213907Y00625883D01*
X00207425Y00641531D01*
X00207425Y00658469D01*
X00207474Y00658585D01*
X00200000Y00666059D01*
X00174000Y00640059D01*
X00174000Y00509941D01*
X00191415Y00492526D01*
X00191531Y00492575D01*
X00208000Y00492575D01*
X00208000Y00517397D01*
X00232603Y00542000D01*
X00267397Y00542000D01*
X00292000Y00517397D01*
X00292000Y00491941D01*
X00320346Y00463595D01*
X00324000Y00454774D01*
X00324000Y00445226D01*
X00320346Y00436405D01*
X00313595Y00429654D01*
X00313595Y00429654D01*
X00283941Y00400000D01*
X00320346Y00363595D01*
X00324000Y00354774D01*
X00324000Y00309941D01*
X00359941Y00274000D01*
X00490059Y00274000D01*
X00529654Y00313595D01*
X00536405Y00320346D01*
X00537084Y00320627D01*
X00538394Y00323791D01*
X00550209Y00335606D01*
X00565646Y00342000D01*
X00634354Y00342000D01*
X00649791Y00335606D01*
X00661606Y00323791D01*
X00668000Y00308354D01*
X00668000Y00291646D01*
X00661606Y00276209D01*
X00649791Y00264394D01*
X00634354Y00258000D01*
X00565646Y00258000D01*
X00550209Y00264394D01*
X00549272Y00265331D01*
X00513595Y00229654D01*
X00504774Y00226000D01*
X00345226Y00226000D01*
X00336405Y00229654D01*
X00329654Y00236405D01*
X00279654Y00286405D01*
X00276000Y00295226D01*
X00276000Y00304774D01*
X00276000Y00340059D01*
X00240059Y00376000D01*
X00230054Y00376000D01*
X00240997Y00365057D01*
X00248000Y00348150D01*
X00248000Y00329850D01*
X00240997Y00312943D01*
X00228057Y00300003D01*
X00211150Y00293000D01*
X00140941Y00293000D01*
X00159941Y00274000D01*
X00254774Y00274000D01*
X00263595Y00270346D01*
X00291415Y00242526D01*
X00291531Y00242575D01*
X00308469Y00242575D01*
X00324117Y00236093D01*
X00336093Y00224117D01*
X00342575Y00208469D01*
X00342575Y00191531D01*
X00336093Y00175883D01*
X00324117Y00163907D01*
X00308469Y00157425D01*
X00291531Y00157425D01*
X00275883Y00163907D01*
X00263907Y00175883D01*
X00257425Y00191531D01*
X00257425Y00208469D01*
X00257474Y00208585D01*
X00240059Y00226000D01*
X00145226Y00226000D01*
X00136405Y00229654D01*
X00129654Y00236405D01*
X00048000Y00318059D01*
X00048000Y00303972D02*
X00062087Y00303972D01*
X00048000Y00287973D02*
X00078085Y00287973D01*
X00094084Y00271975D02*
X00048000Y00271975D01*
X00048000Y00255976D02*
X00110082Y00255976D01*
X00126081Y00239978D02*
X00048000Y00239978D01*
X00048000Y00223979D02*
X00242079Y00223979D01*
X00257425Y00207981D02*
X00048000Y00207981D01*
X00048000Y00191982D02*
X00107929Y00191982D01*
X00103003Y00187057D02*
X00115943Y00199997D01*
X00132850Y00207000D01*
X00211150Y00207000D01*
X00228057Y00199997D01*
X00240997Y00187057D01*
X00248000Y00170150D01*
X00248000Y00151850D01*
X00240997Y00134943D01*
X00228057Y00122003D01*
X00211150Y00115000D01*
X00132850Y00115000D01*
X00115943Y00122003D01*
X00103003Y00134943D01*
X00096000Y00151850D01*
X00096000Y00170150D01*
X00103003Y00187057D01*
X00098416Y00175984D02*
X00048000Y00175984D01*
X00048000Y00159985D02*
X00096000Y00159985D01*
X00099257Y00143987D02*
X00048000Y00143987D01*
X00048000Y00127988D02*
X00109958Y00127988D01*
X00048000Y00111990D02*
X01939008Y00111990D01*
X01939008Y00127988D02*
X00490042Y00127988D01*
X00484057Y00122003D02*
X00496997Y00134943D01*
X00504000Y00151850D01*
X00504000Y00170150D01*
X00496997Y00187057D01*
X00484057Y00199997D01*
X00467150Y00207000D01*
X00388850Y00207000D01*
X00371943Y00199997D01*
X00359003Y00187057D01*
X00352000Y00170150D01*
X00352000Y00151850D01*
X00359003Y00134943D01*
X00371943Y00122003D01*
X00388850Y00115000D01*
X00467150Y00115000D01*
X00484057Y00122003D01*
X00500743Y00143987D02*
X01939008Y00143987D01*
X01939008Y00159985D02*
X01239147Y00159985D01*
X01234354Y00158000D02*
X01249791Y00164394D01*
X01261606Y00176209D01*
X01268000Y00191646D01*
X01268000Y00208354D01*
X01261606Y00223791D01*
X01249791Y00235606D01*
X01234354Y00242000D01*
X01165646Y00242000D01*
X01150209Y00235606D01*
X01138394Y00223791D01*
X01132000Y00208354D01*
X01132000Y00191646D01*
X01138394Y00176209D01*
X01150209Y00164394D01*
X01165646Y00158000D01*
X01234354Y00158000D01*
X01261381Y00175984D02*
X01939008Y00175984D01*
X01939008Y00191982D02*
X01268000Y00191982D01*
X01268000Y00207981D02*
X01939008Y00207981D01*
X01939008Y00223979D02*
X01261417Y00223979D01*
X01239236Y00239978D02*
X01939008Y00239978D01*
X01939008Y00255976D02*
X00539917Y00255976D01*
X00550939Y00237632D02*
X00545336Y00233561D01*
X00540439Y00228664D01*
X00536368Y00223061D01*
X00533224Y00216890D01*
X00531083Y00210303D01*
X00530000Y00203463D01*
X00530000Y00200000D01*
X00599999Y00200000D01*
X00599999Y00199999D01*
X00600000Y00199999D01*
X00600000Y00156000D01*
X00629463Y00156000D01*
X00636303Y00157083D01*
X00642890Y00159224D01*
X00649061Y00162368D01*
X00654664Y00166439D01*
X00659561Y00171336D01*
X00663632Y00176939D01*
X00666776Y00183110D01*
X00668916Y00189697D01*
X00670000Y00196537D01*
X00670000Y00199999D01*
X00600001Y00199999D01*
X00600001Y00200000D01*
X00670000Y00200000D01*
X00670000Y00203463D01*
X00668916Y00210303D01*
X00666776Y00216890D01*
X00663632Y00223061D01*
X00659561Y00228664D01*
X00654664Y00233561D01*
X00649061Y00237632D01*
X00642890Y00240776D01*
X00636303Y00242916D01*
X00629463Y00244000D01*
X00600000Y00244000D01*
X00600000Y00200001D01*
X00599999Y00200001D01*
X00599999Y00244000D01*
X00570537Y00244000D01*
X00563697Y00242916D01*
X00557110Y00240776D01*
X00550939Y00237632D01*
X00555543Y00239978D02*
X00523919Y00239978D01*
X00537035Y00223979D02*
X00336150Y00223979D01*
X00342575Y00207981D02*
X00530716Y00207981D01*
X00530000Y00199999D02*
X00530000Y00196537D01*
X00531083Y00189697D01*
X00533224Y00183110D01*
X00536368Y00176939D01*
X00540439Y00171336D01*
X00545336Y00166439D01*
X00550939Y00162368D01*
X00557110Y00159224D01*
X00563697Y00157083D01*
X00570537Y00156000D01*
X00599999Y00156000D01*
X00599999Y00199999D01*
X00530000Y00199999D01*
X00530721Y00191982D02*
X00492071Y00191982D01*
X00501584Y00175984D02*
X00537062Y00175984D01*
X00555615Y00159985D02*
X00504000Y00159985D01*
X00500000Y00250000D02*
X00550000Y00300000D01*
X00600000Y00300000D01*
X00599999Y00239978D02*
X00600000Y00239978D01*
X00599999Y00223979D02*
X00600000Y00223979D01*
X00599999Y00207981D02*
X00600000Y00207981D01*
X00599999Y00191982D02*
X00600000Y00191982D01*
X00599999Y00175984D02*
X00600000Y00175984D01*
X00599999Y00159985D02*
X00600000Y00159985D01*
X00644385Y00159985D02*
X01160853Y00159985D01*
X01138619Y00175984D02*
X00662938Y00175984D01*
X00669278Y00191982D02*
X01132000Y00191982D01*
X01132000Y00207981D02*
X00669284Y00207981D01*
X00662965Y00223979D02*
X01138582Y00223979D01*
X01160764Y00239978D02*
X00644457Y00239978D01*
X00657372Y00271975D02*
X01142628Y00271975D01*
X01138394Y00276209D02*
X01150209Y00264394D01*
X01165646Y00258000D01*
X01234354Y00258000D01*
X01249791Y00264394D01*
X01261606Y00276209D01*
X01268000Y00291646D01*
X01268000Y00308354D01*
X01261606Y00323791D01*
X01249791Y00335606D01*
X01234354Y00342000D01*
X01165646Y00342000D01*
X01150209Y00335606D01*
X01138394Y00323791D01*
X01132000Y00308354D01*
X01132000Y00291646D01*
X01138394Y00276209D01*
X01133521Y00287973D02*
X00666479Y00287973D01*
X00668000Y00303972D02*
X01132000Y00303972D01*
X01136812Y00319970D02*
X00663188Y00319970D01*
X00648914Y00335969D02*
X01151086Y00335969D01*
X01165646Y00358000D02*
X01150209Y00364394D01*
X01138394Y00376209D01*
X01132000Y00391646D01*
X01132000Y00408354D01*
X01138394Y00423791D01*
X01150209Y00435606D01*
X01165646Y00442000D01*
X01234354Y00442000D01*
X01249791Y00435606D01*
X01261606Y00423791D01*
X01268000Y00408354D01*
X01268000Y00391646D01*
X01261606Y00376209D01*
X01249791Y00364394D01*
X01234354Y00358000D01*
X01165646Y00358000D01*
X01146637Y00367966D02*
X00653363Y00367966D01*
X00667906Y00383965D02*
X01135181Y00383965D01*
X01132000Y00399963D02*
X00683904Y00399963D01*
X00699903Y00415962D02*
X01135151Y00415962D01*
X01146563Y00431960D02*
X00715901Y00431960D01*
X00724000Y00447959D02*
X01939008Y00447959D01*
X01939008Y00463957D02*
X01248736Y00463957D01*
X01249791Y00464394D02*
X01261606Y00476209D01*
X01268000Y00491646D01*
X01268000Y00508354D01*
X01261606Y00523791D01*
X01249791Y00535606D01*
X01234354Y00542000D01*
X01165646Y00542000D01*
X01150209Y00535606D01*
X01138394Y00523791D01*
X01132000Y00508354D01*
X01132000Y00491646D01*
X01138394Y00476209D01*
X01150209Y00464394D01*
X01165646Y00458000D01*
X01234354Y00458000D01*
X01249791Y00464394D01*
X01263158Y00479956D02*
X01939008Y00479956D01*
X01939008Y00495954D02*
X01268000Y00495954D01*
X01266509Y00511953D02*
X01939008Y00511953D01*
X01939008Y00527951D02*
X01257445Y00527951D01*
X01239058Y00559948D02*
X01939008Y00559948D01*
X01939008Y00543950D02*
X00677891Y00543950D01*
X00667742Y00527951D02*
X00659484Y00527951D01*
X00650000Y00550000D02*
X00700000Y00600000D01*
X00700000Y00750000D01*
X00650000Y00800000D01*
X00600000Y00800000D01*
X00653474Y00831923D02*
X01146526Y00831923D01*
X01150209Y00835606D02*
X01138394Y00823791D01*
X01132000Y00808354D01*
X01132000Y00791646D01*
X01138394Y00776209D01*
X01150209Y00764394D01*
X01165646Y00758000D01*
X01234354Y00758000D01*
X01249791Y00764394D01*
X01261606Y00776209D01*
X01268000Y00791646D01*
X01268000Y00808354D01*
X01261606Y00823791D01*
X01249791Y00835606D01*
X01234354Y00842000D01*
X01165646Y00842000D01*
X01150209Y00835606D01*
X01135136Y00815925D02*
X00668016Y00815925D01*
X00684015Y00799926D02*
X01132000Y00799926D01*
X01135197Y00783928D02*
X00700013Y00783928D01*
X00716012Y00767929D02*
X01146674Y00767929D01*
X01165646Y00742000D02*
X01150209Y00735606D01*
X01138394Y00723791D01*
X01132000Y00708354D01*
X01132000Y00691646D01*
X01138394Y00676209D01*
X01150209Y00664394D01*
X01165646Y00658000D01*
X01234354Y00658000D01*
X01249791Y00664394D01*
X01261606Y00676209D01*
X01268000Y00691646D01*
X01268000Y00708354D01*
X01261606Y00723791D01*
X01249791Y00735606D01*
X01234354Y00742000D01*
X01165646Y00742000D01*
X01150997Y00735932D02*
X00724000Y00735932D01*
X00724000Y00719934D02*
X01136796Y00719934D01*
X01132000Y00703935D02*
X00724000Y00703935D01*
X00724000Y00687937D02*
X01133536Y00687937D01*
X01142665Y00671938D02*
X00724000Y00671938D01*
X00724000Y00655939D02*
X01939008Y00655939D01*
X01939008Y00639941D02*
X01239325Y00639941D01*
X01234354Y00642000D02*
X01249791Y00635606D01*
X01261606Y00623791D01*
X01268000Y00608354D01*
X01268000Y00591646D01*
X01261606Y00576209D01*
X01249791Y00564394D01*
X01234354Y00558000D01*
X01165646Y00558000D01*
X01150209Y00564394D01*
X01138394Y00576209D01*
X01132000Y00591646D01*
X01132000Y00608354D01*
X01138394Y00623791D01*
X01150209Y00635606D01*
X01165646Y00642000D01*
X01234354Y00642000D01*
X01261454Y00623942D02*
X01939008Y00623942D01*
X01939008Y00607944D02*
X01268000Y00607944D01*
X01268000Y00591945D02*
X01939008Y00591945D01*
X01939008Y00575947D02*
X01261344Y00575947D01*
X01257335Y00671938D02*
X01939008Y00671938D01*
X01939008Y00687937D02*
X01266463Y00687937D01*
X01268000Y00703935D02*
X01939008Y00703935D01*
X01939008Y00719934D02*
X01263204Y00719934D01*
X01249003Y00735932D02*
X01939008Y00735932D01*
X01939008Y00751931D02*
X00724000Y00751931D01*
X00676000Y00735932D02*
X00649003Y00735932D01*
X00663204Y00719934D02*
X00676000Y00719934D01*
X00676000Y00703935D02*
X00668000Y00703935D01*
X00666463Y00687937D02*
X00676000Y00687937D01*
X00676000Y00671938D02*
X00657335Y00671938D01*
X00676000Y00655939D02*
X00528001Y00655939D01*
X00542665Y00671938D02*
X00512003Y00671938D01*
X00500000Y00700000D02*
X00600000Y00700000D01*
X00560675Y00639941D02*
X00544000Y00639941D01*
X00550000Y00600000D02*
X00600000Y00600000D01*
X00639325Y00639941D02*
X00676000Y00639941D01*
X00676000Y00623942D02*
X00661454Y00623942D01*
X00668000Y00607944D02*
X00674003Y00607944D01*
X00693889Y00559948D02*
X01160942Y00559948D01*
X01138656Y00575947D02*
X00709888Y00575947D01*
X00722641Y00591945D02*
X01132000Y00591945D01*
X01132000Y00607944D02*
X00724000Y00607944D01*
X00724000Y00623942D02*
X01138546Y00623942D01*
X01160675Y00639941D02*
X00724000Y00639941D01*
X00650000Y00550000D02*
X00550000Y00550000D01*
X00200000Y00900000D01*
X00200000Y01200000D01*
X00100000Y01300000D01*
X00074000Y01343876D02*
X00307425Y01343876D01*
X00308008Y01359875D02*
X00194168Y01359875D01*
X00192890Y01359224D02*
X00199061Y01362368D01*
X00204664Y01366439D01*
X00209561Y01371336D01*
X00213632Y01376939D01*
X00216776Y01383110D01*
X00218916Y01389697D01*
X00220000Y01396537D01*
X00220000Y01399999D01*
X00150001Y01399999D01*
X00150001Y01400000D01*
X00220000Y01400000D01*
X00220000Y01403463D01*
X00218916Y01410303D01*
X00216776Y01416890D01*
X00213632Y01423061D01*
X00209561Y01428664D01*
X00204664Y01433561D01*
X00199061Y01437632D01*
X00192890Y01440776D01*
X00186303Y01442916D01*
X00179463Y01444000D01*
X00150000Y01444000D01*
X00150000Y01400001D01*
X00149999Y01400001D01*
X00149999Y01444000D01*
X00120537Y01444000D01*
X00113697Y01442916D01*
X00107110Y01440776D01*
X00100939Y01437632D01*
X00095336Y01433561D01*
X00090439Y01428664D01*
X00086368Y01423061D01*
X00083224Y01416890D01*
X00081083Y01410303D01*
X00080000Y01403463D01*
X00080000Y01400000D01*
X00149999Y01400000D01*
X00149999Y01399999D01*
X00150000Y01399999D01*
X00150000Y01356000D01*
X00179463Y01356000D01*
X00186303Y01357083D01*
X00192890Y01359224D01*
X00212858Y01375873D02*
X00315663Y01375873D01*
X00339834Y01391872D02*
X00219261Y01391872D01*
X00219302Y01407870D02*
X00382000Y01407870D01*
X00382000Y01408354D02*
X00382000Y01391646D01*
X00388394Y01376209D01*
X00400209Y01364394D01*
X00415646Y01358000D01*
X00484354Y01358000D01*
X00499791Y01364394D01*
X00511397Y01376000D01*
X00538603Y01376000D01*
X00550209Y01364394D01*
X00565646Y01358000D01*
X00634354Y01358000D01*
X00649791Y01364394D01*
X00661606Y01376209D01*
X00668000Y01391646D01*
X00668000Y01408354D01*
X00661606Y01423791D01*
X00649791Y01435606D01*
X00634354Y01442000D01*
X00565646Y01442000D01*
X00550209Y01435606D01*
X00538603Y01424000D01*
X00511397Y01424000D01*
X00499791Y01435606D01*
X00484354Y01442000D01*
X00415646Y01442000D01*
X00400209Y01435606D01*
X00388394Y01423791D01*
X00382000Y01408354D01*
X00382000Y01391872D02*
X00360166Y01391872D01*
X00384337Y01375873D02*
X00388730Y01375873D01*
X00391992Y01359875D02*
X00411120Y01359875D01*
X00392575Y01343876D02*
X01939008Y01343876D01*
X01939008Y01327877D02*
X01257519Y01327877D01*
X01261606Y01323791D02*
X01249791Y01335606D01*
X01234354Y01342000D01*
X01165646Y01342000D01*
X01150209Y01335606D01*
X01138394Y01323791D01*
X01132000Y01308354D01*
X01132000Y01291646D01*
X01138394Y01276209D01*
X01150209Y01264394D01*
X01165646Y01258000D01*
X01234354Y01258000D01*
X01249791Y01264394D01*
X01261606Y01276209D01*
X01268000Y01291646D01*
X01268000Y01308354D01*
X01261606Y01323791D01*
X01266540Y01311879D02*
X01939008Y01311879D01*
X01939008Y01295880D02*
X01268000Y01295880D01*
X01263127Y01279882D02*
X01939008Y01279882D01*
X01939008Y01263883D02*
X01248558Y01263883D01*
X01234354Y01242000D02*
X01249791Y01235606D01*
X01261606Y01223791D01*
X01268000Y01208354D01*
X01268000Y01191646D01*
X01261606Y01176209D01*
X01249791Y01164394D01*
X01234354Y01158000D01*
X01165646Y01158000D01*
X01150209Y01164394D01*
X01138394Y01176209D01*
X01132000Y01191646D01*
X01132000Y01208354D01*
X01138394Y01223791D01*
X01150209Y01235606D01*
X01165646Y01242000D01*
X01234354Y01242000D01*
X01253510Y01231886D02*
X01939008Y01231886D01*
X01939008Y01215888D02*
X01264879Y01215888D01*
X01268000Y01199889D02*
X01939008Y01199889D01*
X01939008Y01183891D02*
X01264788Y01183891D01*
X01253289Y01167892D02*
X01939008Y01167892D01*
X01939008Y01151894D02*
X00324000Y01151894D01*
X00324000Y01167892D02*
X00546711Y01167892D01*
X00550209Y01164394D02*
X00565646Y01158000D01*
X00634354Y01158000D01*
X00649791Y01164394D01*
X00661606Y01176209D01*
X00668000Y01191646D01*
X00668000Y01208354D01*
X00661606Y01223791D01*
X00649791Y01235606D01*
X00634354Y01242000D01*
X00565646Y01242000D01*
X00550209Y01235606D01*
X00538394Y01223791D01*
X00532000Y01208354D01*
X00532000Y01191646D01*
X00538394Y01176209D01*
X00550209Y01164394D01*
X00535212Y01183891D02*
X00324000Y01183891D01*
X00324000Y01199889D02*
X00532000Y01199889D01*
X00535121Y01215888D02*
X00324000Y01215888D01*
X00324000Y01231886D02*
X00546489Y01231886D01*
X00551442Y01263883D02*
X00324000Y01263883D01*
X00324000Y01247885D02*
X01939008Y01247885D01*
X01939008Y01359875D02*
X01238880Y01359875D01*
X01234354Y01358000D02*
X01249791Y01364394D01*
X01261606Y01376209D01*
X01268000Y01391646D01*
X01268000Y01408354D01*
X01261606Y01423791D01*
X01249791Y01435606D01*
X01234354Y01442000D01*
X01165646Y01442000D01*
X01150209Y01435606D01*
X01138394Y01423791D01*
X01132000Y01408354D01*
X01132000Y01391646D01*
X01138394Y01376209D01*
X01150209Y01364394D01*
X01165646Y01358000D01*
X01234354Y01358000D01*
X01261270Y01375873D02*
X01939008Y01375873D01*
X01939008Y01391872D02*
X01268000Y01391872D01*
X01268000Y01407870D02*
X01939008Y01407870D01*
X01939008Y01423869D02*
X01261528Y01423869D01*
X01239503Y01439867D02*
X01939008Y01439867D01*
X01939008Y01455866D02*
X00089807Y01455866D01*
X00105326Y01439867D02*
X00074000Y01439867D01*
X00074000Y01423869D02*
X00086955Y01423869D01*
X00080698Y01407870D02*
X00074000Y01407870D01*
X00080000Y01399999D02*
X00080000Y01396537D01*
X00081083Y01389697D01*
X00083224Y01383110D01*
X00086368Y01376939D01*
X00090439Y01371336D01*
X00095336Y01366439D01*
X00100939Y01362368D01*
X00107110Y01359224D01*
X00113697Y01357083D01*
X00120537Y01356000D01*
X00149999Y01356000D01*
X00149999Y01399999D01*
X00080000Y01399999D01*
X00080739Y01391872D02*
X00074000Y01391872D01*
X00074000Y01375873D02*
X00087142Y01375873D01*
X00074000Y01359875D02*
X00105832Y01359875D01*
X00132332Y01327877D02*
X00217668Y01327877D01*
X00208838Y01311879D02*
X00141162Y01311879D01*
X00142575Y01295880D02*
X00207425Y01295880D01*
X00212250Y01279882D02*
X00154059Y01279882D01*
X00170058Y01263883D02*
X00225940Y01263883D01*
X00226000Y01247885D02*
X00186056Y01247885D01*
X00202055Y01231886D02*
X00226000Y01231886D01*
X00226000Y01215888D02*
X00218053Y01215888D01*
X00224000Y01199889D02*
X00226000Y01199889D01*
X00226000Y01183891D02*
X00224000Y01183891D01*
X00224000Y01167892D02*
X00226000Y01167892D01*
X00226000Y01151894D02*
X00224000Y01151894D01*
X00224000Y01135895D02*
X00226000Y01135895D01*
X00226000Y01119897D02*
X00224000Y01119897D01*
X00224000Y01103898D02*
X00226000Y01103898D01*
X00226000Y01087900D02*
X00224000Y01087900D01*
X00224000Y01071901D02*
X00226000Y01071901D01*
X00226000Y01055903D02*
X00224000Y01055903D01*
X00224000Y01039904D02*
X00226000Y01039904D01*
X00226000Y01023906D02*
X00224000Y01023906D01*
X00224000Y01007907D02*
X00226000Y01007907D01*
X00226000Y00991908D02*
X00224000Y00991908D01*
X00224000Y00975910D02*
X00226000Y00975910D01*
X00226000Y00959911D02*
X00224000Y00959911D01*
X00224000Y00943913D02*
X00226000Y00943913D01*
X00226000Y00927914D02*
X00224000Y00927914D01*
X00224000Y00911916D02*
X00226000Y00911916D01*
X00250000Y00900000D02*
X00550000Y00600000D01*
X00506110Y00559948D02*
X00174000Y00559948D01*
X00174000Y00543950D02*
X00331725Y00543950D01*
X00331775Y00544000D02*
X00306000Y00518225D01*
X00306000Y00500000D01*
X00349999Y00500000D01*
X00349999Y00499999D01*
X00350000Y00499999D01*
X00350000Y00456000D01*
X00368225Y00456000D01*
X00394000Y00481775D01*
X00394000Y00499999D01*
X00350001Y00499999D01*
X00350001Y00500000D01*
X00394000Y00500000D01*
X00394000Y00518225D01*
X00368225Y00544000D01*
X00350000Y00544000D01*
X00350000Y00500001D01*
X00349999Y00500001D01*
X00349999Y00544000D01*
X00331775Y00544000D01*
X00349999Y00543950D02*
X00350000Y00543950D01*
X00349999Y00527951D02*
X00350000Y00527951D01*
X00349999Y00511953D02*
X00350000Y00511953D01*
X00349999Y00499999D02*
X00306000Y00499999D01*
X00306000Y00481775D01*
X00331775Y00456000D01*
X00349999Y00456000D01*
X00349999Y00499999D01*
X00349999Y00495954D02*
X00350000Y00495954D01*
X00349999Y00479956D02*
X00350000Y00479956D01*
X00349999Y00463957D02*
X00350000Y00463957D01*
X00376182Y00463957D02*
X00551264Y00463957D01*
X00536842Y00479956D02*
X00392181Y00479956D01*
X00394000Y00495954D02*
X00532000Y00495954D01*
X00533491Y00511953D02*
X00394000Y00511953D01*
X00384274Y00527951D02*
X00540515Y00527951D01*
X00522109Y00543950D02*
X00368275Y00543950D01*
X00315726Y00527951D02*
X00281445Y00527951D01*
X00292000Y00511953D02*
X00306000Y00511953D01*
X00306000Y00495954D02*
X00292000Y00495954D01*
X00303985Y00479956D02*
X00307819Y00479956D01*
X00319984Y00463957D02*
X00323817Y00463957D01*
X00324000Y00447959D02*
X00664018Y00447959D01*
X00675833Y00463957D02*
X00648736Y00463957D01*
X00700000Y00450000D02*
X00650000Y00400000D01*
X00600000Y00400000D01*
X00546637Y00367966D02*
X00494088Y00367966D01*
X00496997Y00365057D02*
X00484057Y00377997D01*
X00467150Y00385000D01*
X00388850Y00385000D01*
X00371943Y00377997D01*
X00359003Y00365057D01*
X00352000Y00348150D01*
X00352000Y00329850D01*
X00359003Y00312943D01*
X00371943Y00300003D01*
X00388850Y00293000D01*
X00467150Y00293000D01*
X00484057Y00300003D01*
X00496997Y00312943D01*
X00504000Y00329850D01*
X00504000Y00348150D01*
X00496997Y00365057D01*
X00502419Y00351968D02*
X01939008Y00351968D01*
X01939008Y00367966D02*
X01253363Y00367966D01*
X01264818Y00383965D02*
X01939008Y00383965D01*
X01939008Y00399963D02*
X01268000Y00399963D01*
X01264849Y00415962D02*
X01939008Y00415962D01*
X01939008Y00431960D02*
X01253437Y00431960D01*
X01248914Y00335969D02*
X01939008Y00335969D01*
X01939008Y00319970D02*
X01263188Y00319970D01*
X01268000Y00303972D02*
X01939008Y00303972D01*
X01939008Y00287973D02*
X01266479Y00287973D01*
X01257372Y00271975D02*
X01939008Y00271975D01*
X01939008Y00095991D02*
X00048000Y00095991D01*
X00048000Y00079993D02*
X01939008Y00079993D01*
X01939008Y00063994D02*
X00048000Y00063994D01*
X00150000Y00250000D02*
X00250000Y00250000D01*
X00300000Y00200000D01*
X00314649Y00159985D02*
X00352000Y00159985D01*
X00354416Y00175984D02*
X00336135Y00175984D01*
X00342575Y00191982D02*
X00363929Y00191982D01*
X00355257Y00143987D02*
X00244743Y00143987D01*
X00248000Y00159985D02*
X00285351Y00159985D01*
X00263865Y00175984D02*
X00245584Y00175984D01*
X00236071Y00191982D02*
X00257425Y00191982D01*
X00234042Y00127988D02*
X00365958Y00127988D01*
X00326081Y00239978D02*
X00314738Y00239978D01*
X00310082Y00255976D02*
X00277965Y00255976D01*
X00294084Y00271975D02*
X00259663Y00271975D01*
X00279004Y00287973D02*
X00145968Y00287973D01*
X00150000Y00250000D02*
X00050000Y00350000D01*
X00050000Y00750000D01*
X00100000Y00800000D01*
X00150000Y00900000D02*
X00200000Y00850000D01*
X00200000Y00700000D01*
X00250000Y00650000D01*
X00269666Y00687937D02*
X00378122Y00687937D01*
X00362124Y00703935D02*
X00230006Y00703935D01*
X00224000Y00719934D02*
X00346125Y00719934D01*
X00330127Y00735932D02*
X00224000Y00735932D01*
X00224000Y00751931D02*
X00314128Y00751931D01*
X00298130Y00767929D02*
X00224000Y00767929D01*
X00224000Y00783928D02*
X00282131Y00783928D01*
X00266133Y00799926D02*
X00224000Y00799926D01*
X00224000Y00815925D02*
X00250134Y00815925D01*
X00234136Y00831923D02*
X00224000Y00831923D01*
X00250000Y00900000D02*
X00250000Y01300000D01*
X00282332Y01327877D02*
X00293937Y01327877D01*
X00300000Y01300000D02*
X00300000Y00900000D01*
X00500000Y00700000D01*
X00498009Y00735932D02*
X00550997Y00735932D01*
X00546674Y00767929D02*
X00466012Y00767929D01*
X00482010Y00751931D02*
X00664128Y00751931D01*
X00634354Y00858000D02*
X00649791Y00864394D01*
X00661606Y00876209D01*
X00668000Y00891646D01*
X00668000Y00908354D01*
X00661606Y00923791D01*
X00649791Y00935606D01*
X00634354Y00942000D01*
X00565646Y00942000D01*
X00550209Y00935606D01*
X00538394Y00923791D01*
X00532000Y00908354D01*
X00532000Y00891646D01*
X00538394Y00876209D01*
X00550209Y00864394D01*
X00565646Y00858000D01*
X00634354Y00858000D01*
X00648647Y00863920D02*
X01151353Y00863920D01*
X01150209Y00864394D02*
X01165646Y00858000D01*
X01234354Y00858000D01*
X01249791Y00864394D01*
X01261606Y00876209D01*
X01268000Y00891646D01*
X01268000Y00908354D01*
X01261606Y00923791D01*
X01249791Y00935606D01*
X01234354Y00942000D01*
X01165646Y00942000D01*
X01150209Y00935606D01*
X01138394Y00923791D01*
X01132000Y00908354D01*
X01132000Y00891646D01*
X01138394Y00876209D01*
X01150209Y00864394D01*
X01136857Y00879919D02*
X00663142Y00879919D01*
X00668000Y00895917D02*
X01132000Y00895917D01*
X01133475Y00911916D02*
X00666525Y00911916D01*
X00657482Y00927914D02*
X01142517Y00927914D01*
X01161031Y00959911D02*
X00638969Y00959911D01*
X00634354Y00958000D02*
X00649791Y00964394D01*
X00661606Y00976209D01*
X00668000Y00991646D01*
X00668000Y01008354D01*
X00661606Y01023791D01*
X00649791Y01035606D01*
X00634354Y01042000D01*
X00565646Y01042000D01*
X00550209Y01035606D01*
X00538394Y01023791D01*
X00532000Y01008354D01*
X00532000Y00991646D01*
X00538394Y00976209D01*
X00550209Y00964394D01*
X00565646Y00958000D01*
X00634354Y00958000D01*
X00661307Y00975910D02*
X01138693Y00975910D01*
X01138394Y00976209D02*
X01150209Y00964394D01*
X01165646Y00958000D01*
X01234354Y00958000D01*
X01249791Y00964394D01*
X01261606Y00976209D01*
X01268000Y00991646D01*
X01268000Y01008354D01*
X01261606Y01023791D01*
X01249791Y01035606D01*
X01234354Y01042000D01*
X01165646Y01042000D01*
X01150209Y01035606D01*
X01138394Y01023791D01*
X01132000Y01008354D01*
X01132000Y00991646D01*
X01138394Y00976209D01*
X01132000Y00991908D02*
X00668000Y00991908D01*
X00668000Y01007907D02*
X01132000Y01007907D01*
X01138509Y01023906D02*
X00661491Y01023906D01*
X00639414Y01039904D02*
X01160586Y01039904D01*
X01165646Y01058000D02*
X01150209Y01064394D01*
X01138394Y01076209D01*
X01132000Y01091646D01*
X01132000Y01108354D01*
X01138394Y01123791D01*
X01150209Y01135606D01*
X01165646Y01142000D01*
X01234354Y01142000D01*
X01249791Y01135606D01*
X01261606Y01123791D01*
X01268000Y01108354D01*
X01268000Y01091646D01*
X01261606Y01076209D01*
X01249791Y01064394D01*
X01234354Y01058000D01*
X01165646Y01058000D01*
X01142702Y01071901D02*
X00657298Y01071901D01*
X00661606Y01076209D02*
X00668000Y01091646D01*
X00668000Y01108354D01*
X00661606Y01123791D01*
X00649791Y01135606D01*
X00634354Y01142000D01*
X00565646Y01142000D01*
X00550209Y01135606D01*
X00538394Y01123791D01*
X00532000Y01108354D01*
X00532000Y01091646D01*
X00538394Y01076209D01*
X00550209Y01064394D01*
X00565646Y01058000D01*
X00634354Y01058000D01*
X00649791Y01064394D01*
X00661606Y01076209D01*
X00666448Y01087900D02*
X01133552Y01087900D01*
X01132000Y01103898D02*
X00668000Y01103898D01*
X00663219Y01119897D02*
X01136781Y01119897D01*
X01150908Y01135895D02*
X00649092Y01135895D01*
X00653289Y01167892D02*
X01146711Y01167892D01*
X01135212Y01183891D02*
X00664788Y01183891D01*
X00668000Y01199889D02*
X01132000Y01199889D01*
X01135121Y01215888D02*
X00664879Y01215888D01*
X00653510Y01231886D02*
X01146489Y01231886D01*
X01151442Y01263883D02*
X00648558Y01263883D01*
X00649791Y01264394D02*
X00661606Y01276209D01*
X00668000Y01291646D01*
X00668000Y01308354D01*
X00661606Y01323791D01*
X00649791Y01335606D01*
X00634354Y01342000D01*
X00565646Y01342000D01*
X00550209Y01335606D01*
X00538394Y01323791D01*
X00532000Y01308354D01*
X00532000Y01291646D01*
X00538394Y01276209D01*
X00550209Y01264394D01*
X00565646Y01258000D01*
X00634354Y01258000D01*
X00649791Y01264394D01*
X00663127Y01279882D02*
X01136873Y01279882D01*
X01132000Y01295880D02*
X00668000Y01295880D01*
X00666540Y01311879D02*
X01133460Y01311879D01*
X01142481Y01327877D02*
X00657519Y01327877D01*
X00638880Y01359875D02*
X01161120Y01359875D01*
X01138730Y01375873D02*
X00661270Y01375873D01*
X00668000Y01391872D02*
X01132000Y01391872D01*
X01132000Y01407870D02*
X00668000Y01407870D01*
X00661528Y01423869D02*
X01138472Y01423869D01*
X01160497Y01439867D02*
X00639503Y01439867D01*
X00657261Y01471864D02*
X01142739Y01471864D01*
X01138394Y01476209D02*
X01150209Y01464394D01*
X01165646Y01458000D01*
X01234354Y01458000D01*
X01249791Y01464394D01*
X01261606Y01476209D01*
X01268000Y01491646D01*
X01268000Y01508354D01*
X01261606Y01523791D01*
X01249791Y01535606D01*
X01234354Y01542000D01*
X01165646Y01542000D01*
X01150209Y01535606D01*
X01138394Y01523791D01*
X01132000Y01508354D01*
X01132000Y01491646D01*
X01138394Y01476209D01*
X01133567Y01487863D02*
X00666433Y01487863D01*
X00668000Y01503861D02*
X01132000Y01503861D01*
X01136766Y01519860D02*
X00830070Y01519860D01*
X00840225Y01535858D02*
X01150818Y01535858D01*
X01165646Y01558000D02*
X01150209Y01564394D01*
X01138394Y01576209D01*
X01132000Y01591646D01*
X01132000Y01608354D01*
X01138394Y01623791D01*
X01150209Y01635606D01*
X01165646Y01642000D01*
X01234354Y01642000D01*
X01249791Y01635606D01*
X01261606Y01623791D01*
X01268000Y01608354D01*
X01268000Y01591646D01*
X01261606Y01576209D01*
X01249791Y01564394D01*
X01234354Y01558000D01*
X01165646Y01558000D01*
X01146748Y01567855D02*
X00838687Y01567855D01*
X00842575Y01551857D02*
X01939008Y01551857D01*
X01939008Y01567855D02*
X01253252Y01567855D01*
X01264772Y01583854D02*
X01939008Y01583854D01*
X01939008Y01599852D02*
X01268000Y01599852D01*
X01264895Y01615851D02*
X01939008Y01615851D01*
X01939008Y01631849D02*
X01253547Y01631849D01*
X01248469Y01663846D02*
X01939008Y01663846D01*
X01939008Y01647848D02*
X00048000Y01647848D01*
X00048000Y01663846D02*
X00098904Y01663846D01*
X00100939Y01662368D02*
X00107110Y01659224D01*
X00113697Y01657083D01*
X00120537Y01656000D01*
X00149999Y01656000D01*
X00149999Y01699999D01*
X00150000Y01699999D01*
X00150000Y01656000D01*
X00179463Y01656000D01*
X00186303Y01657083D01*
X00192890Y01659224D01*
X00199061Y01662368D01*
X00204664Y01666439D01*
X00209561Y01671336D01*
X00213632Y01676939D01*
X00216776Y01683110D01*
X00218916Y01689697D01*
X00220000Y01696537D01*
X00220000Y01699999D01*
X00150001Y01699999D01*
X00150001Y01700000D01*
X00220000Y01700000D01*
X00220000Y01703463D01*
X00218916Y01710303D01*
X00216776Y01716890D01*
X00213632Y01723061D01*
X00209561Y01728664D01*
X00204664Y01733561D01*
X00199061Y01737632D01*
X00192890Y01740776D01*
X00186303Y01742916D01*
X00179463Y01744000D01*
X00150000Y01744000D01*
X00150000Y01700001D01*
X00149999Y01700001D01*
X00149999Y01744000D01*
X00120537Y01744000D01*
X00113697Y01742916D01*
X00107110Y01740776D01*
X00100939Y01737632D01*
X00095336Y01733561D01*
X00090439Y01728664D01*
X00086368Y01723061D01*
X00083224Y01716890D01*
X00081083Y01710303D01*
X00080000Y01703463D01*
X00080000Y01700000D01*
X00149999Y01700000D01*
X00149999Y01699999D01*
X00080000Y01699999D01*
X00080000Y01696537D01*
X00081083Y01689697D01*
X00083224Y01683110D01*
X00086368Y01676939D01*
X00090439Y01671336D01*
X00095336Y01666439D01*
X00100939Y01662368D01*
X00107110Y01640776D02*
X00100939Y01637632D01*
X00095336Y01633561D01*
X00090439Y01628664D01*
X00086368Y01623061D01*
X00083224Y01616890D01*
X00081083Y01610303D01*
X00080000Y01603463D01*
X00080000Y01600000D01*
X00149999Y01600000D01*
X00149999Y01599999D01*
X00150000Y01599999D01*
X00150000Y01556000D01*
X00179463Y01556000D01*
X00186303Y01557083D01*
X00192890Y01559224D01*
X00199061Y01562368D01*
X00204664Y01566439D01*
X00209561Y01571336D01*
X00213632Y01576939D01*
X00216776Y01583110D01*
X00218916Y01589697D01*
X00220000Y01596537D01*
X00220000Y01599999D01*
X00150001Y01599999D01*
X00150001Y01600000D01*
X00220000Y01600000D01*
X00220000Y01603463D01*
X00218916Y01610303D01*
X00216776Y01616890D01*
X00213632Y01623061D01*
X00209561Y01628664D01*
X00204664Y01633561D01*
X00199061Y01637632D01*
X00192890Y01640776D01*
X00186303Y01642916D01*
X00179463Y01644000D01*
X00150000Y01644000D01*
X00150000Y01600001D01*
X00149999Y01600001D01*
X00149999Y01644000D01*
X00120537Y01644000D01*
X00113697Y01642916D01*
X00107110Y01640776D01*
X00093624Y01631849D02*
X00048000Y01631849D01*
X00048000Y01615851D02*
X00082886Y01615851D01*
X00080000Y01599999D02*
X00080000Y01596537D01*
X00081083Y01589697D01*
X00083224Y01583110D01*
X00086368Y01576939D01*
X00090439Y01571336D01*
X00095336Y01566439D01*
X00100939Y01562368D01*
X00107110Y01559224D01*
X00113697Y01557083D01*
X00120537Y01556000D01*
X00149999Y01556000D01*
X00149999Y01599999D01*
X00080000Y01599999D01*
X00080000Y01599852D02*
X00048000Y01599852D01*
X00048000Y01583854D02*
X00082982Y01583854D01*
X00093919Y01567855D02*
X00048000Y01567855D01*
X00048000Y01551857D02*
X00217916Y01551857D01*
X00206081Y01567855D02*
X00233914Y01567855D01*
X00217018Y01583854D02*
X00385227Y01583854D01*
X00382000Y01599852D02*
X00220000Y01599852D01*
X00217114Y01615851D02*
X00385105Y01615851D01*
X00396453Y01631849D02*
X00206376Y01631849D01*
X00201096Y01663846D02*
X00401531Y01663846D01*
X00400209Y01664394D02*
X00415646Y01658000D01*
X00484354Y01658000D01*
X00499791Y01664394D01*
X00511397Y01676000D01*
X00538603Y01676000D01*
X00550209Y01664394D01*
X00565646Y01658000D01*
X00634354Y01658000D01*
X00649791Y01664394D01*
X00661606Y01676209D01*
X00668000Y01691646D01*
X00668000Y01708354D01*
X00661606Y01723791D01*
X00659397Y01726000D01*
X00663859Y01726000D01*
X00663907Y01725883D01*
X00675883Y01713907D01*
X00691531Y01707425D01*
X00708469Y01707425D01*
X00724117Y01713907D01*
X00736093Y01725883D01*
X00742575Y01741531D01*
X00742575Y01758469D01*
X00736093Y01774117D01*
X00724117Y01786093D01*
X00708469Y01792575D01*
X00691531Y01792575D01*
X00675883Y01786093D01*
X00663907Y01774117D01*
X00663859Y01774000D01*
X00659397Y01774000D01*
X00661606Y01776209D01*
X00668000Y01791646D01*
X00668000Y01808354D01*
X00661606Y01823791D01*
X00649791Y01835606D01*
X00634354Y01842000D01*
X00565646Y01842000D01*
X00550209Y01835606D01*
X00538603Y01824000D01*
X00511397Y01824000D01*
X00499791Y01835606D01*
X00484354Y01842000D01*
X00415646Y01842000D01*
X00400209Y01835606D01*
X00388394Y01823791D01*
X00382000Y01808354D01*
X00382000Y01791646D01*
X00388394Y01776209D01*
X00390603Y01774000D01*
X00259941Y01774000D01*
X00220346Y01813595D01*
X00213595Y01820346D01*
X00212916Y01820627D01*
X00211606Y01823791D01*
X00199791Y01835606D01*
X00184354Y01842000D01*
X00115646Y01842000D01*
X00100209Y01835606D01*
X00088394Y01823791D01*
X00082000Y01808354D01*
X00082000Y01791646D01*
X00088394Y01776209D01*
X00100209Y01764394D01*
X00115646Y01758000D01*
X00184354Y01758000D01*
X00199791Y01764394D01*
X00200728Y01765331D01*
X00236405Y01729654D01*
X00245226Y01726000D01*
X00390603Y01726000D01*
X00388394Y01723791D01*
X00382000Y01708354D01*
X00382000Y01691646D01*
X00388394Y01676209D01*
X00400209Y01664394D01*
X00386888Y01679845D02*
X00215113Y01679845D01*
X00219890Y01695844D02*
X00382000Y01695844D01*
X00383445Y01711842D02*
X00218417Y01711842D01*
X00210160Y01727841D02*
X00240782Y01727841D01*
X00250000Y01750000D02*
X00200000Y01800000D01*
X00150000Y01800000D01*
X00188791Y01759838D02*
X00206221Y01759838D01*
X00222220Y01743839D02*
X00180478Y01743839D01*
X00150000Y01743839D02*
X00149999Y01743839D01*
X00149999Y01727841D02*
X00150000Y01727841D01*
X00149999Y01711842D02*
X00150000Y01711842D01*
X00149999Y01695844D02*
X00150000Y01695844D01*
X00149999Y01679845D02*
X00150000Y01679845D01*
X00149999Y01663846D02*
X00150000Y01663846D01*
X00149999Y01631849D02*
X00150000Y01631849D01*
X00149999Y01615851D02*
X00150000Y01615851D01*
X00149999Y01599852D02*
X00150000Y01599852D01*
X00149999Y01583854D02*
X00150000Y01583854D01*
X00149999Y01567855D02*
X00150000Y01567855D01*
X00199182Y01535858D02*
X00201917Y01535858D01*
X00200000Y01500000D02*
X00150000Y01500000D01*
X00100000Y01500000D01*
X00050000Y01450000D01*
X00050000Y01250000D01*
X00100000Y01200000D01*
X00149999Y01359875D02*
X00150000Y01359875D01*
X00149999Y01375873D02*
X00150000Y01375873D01*
X00149999Y01391872D02*
X00150000Y01391872D01*
X00149999Y01407870D02*
X00150000Y01407870D01*
X00149999Y01423869D02*
X00150000Y01423869D01*
X00149999Y01439867D02*
X00150000Y01439867D01*
X00194674Y01439867D02*
X00410497Y01439867D01*
X00392739Y01471864D02*
X00207261Y01471864D01*
X00221804Y01487863D02*
X00383567Y01487863D01*
X00382000Y01503861D02*
X00237802Y01503861D01*
X00253801Y01519860D02*
X00386766Y01519860D01*
X00450000Y01500000D02*
X00600000Y01500000D01*
X00560497Y01439867D02*
X00489503Y01439867D01*
X00507261Y01471864D02*
X00542739Y01471864D01*
X00600000Y01400000D02*
X00450000Y01400000D01*
X00488880Y01359875D02*
X00561120Y01359875D01*
X00538730Y01375873D02*
X00511270Y01375873D01*
X00542481Y01327877D02*
X00386919Y01327877D01*
X00369221Y01311879D02*
X00533460Y01311879D01*
X00532000Y01295880D02*
X00329821Y01295880D01*
X00324000Y01279882D02*
X00536873Y01279882D01*
X00550908Y01135895D02*
X00324000Y01135895D01*
X00324000Y01119897D02*
X00536781Y01119897D01*
X00532000Y01103898D02*
X00324000Y01103898D01*
X00324000Y01087900D02*
X00533552Y01087900D01*
X00542702Y01071901D02*
X00324000Y01071901D01*
X00324000Y01055903D02*
X01939008Y01055903D01*
X01939008Y01071901D02*
X01257298Y01071901D01*
X01266448Y01087900D02*
X01939008Y01087900D01*
X01939008Y01103898D02*
X01268000Y01103898D01*
X01263219Y01119897D02*
X01939008Y01119897D01*
X01939008Y01135895D02*
X01249092Y01135895D01*
X01239414Y01039904D02*
X01939008Y01039904D01*
X01939008Y01023906D02*
X01261491Y01023906D01*
X01268000Y01007907D02*
X01939008Y01007907D01*
X01939008Y00991908D02*
X01268000Y00991908D01*
X01261307Y00975910D02*
X01939008Y00975910D01*
X01939008Y00959911D02*
X01238969Y00959911D01*
X01257482Y00927914D02*
X01939008Y00927914D01*
X01939008Y00911916D02*
X01266525Y00911916D01*
X01268000Y00895917D02*
X01939008Y00895917D01*
X01939008Y00879919D02*
X01263142Y00879919D01*
X01248647Y00863920D02*
X01939008Y00863920D01*
X01939008Y00847922D02*
X00386019Y00847922D01*
X00370021Y00863920D02*
X00551353Y00863920D01*
X00536857Y00879919D02*
X00354022Y00879919D01*
X00338024Y00895917D02*
X00532000Y00895917D01*
X00533475Y00911916D02*
X00474141Y00911916D01*
X00468225Y00906000D02*
X00494000Y00931775D01*
X00494000Y00949999D01*
X00450001Y00949999D01*
X00450001Y00950000D01*
X00494000Y00950000D01*
X00494000Y00968225D01*
X00468225Y00994000D01*
X00450000Y00994000D01*
X00450000Y00950001D01*
X00449999Y00950001D01*
X00449999Y00994000D01*
X00431775Y00994000D01*
X00406000Y00968225D01*
X00406000Y00950000D01*
X00449999Y00950000D01*
X00449999Y00949999D01*
X00450000Y00949999D01*
X00450000Y00906000D01*
X00468225Y00906000D01*
X00449999Y00906000D02*
X00449999Y00949999D01*
X00406000Y00949999D01*
X00406000Y00931775D01*
X00431775Y00906000D01*
X00449999Y00906000D01*
X00449999Y00911916D02*
X00450000Y00911916D01*
X00449999Y00927914D02*
X00450000Y00927914D01*
X00449999Y00943913D02*
X00450000Y00943913D01*
X00449999Y00959911D02*
X00450000Y00959911D01*
X00449999Y00975910D02*
X00450000Y00975910D01*
X00449999Y00991908D02*
X00450000Y00991908D01*
X00470317Y00991908D02*
X00532000Y00991908D01*
X00532000Y01007907D02*
X00324000Y01007907D01*
X00324000Y00991908D02*
X00332512Y00991908D01*
X00367488Y00991908D02*
X00429683Y00991908D01*
X00413685Y00975910D02*
X00383487Y00975910D01*
X00392000Y00959911D02*
X00406000Y00959911D01*
X00406000Y00943913D02*
X00392000Y00943913D01*
X00387311Y00927914D02*
X00409860Y00927914D01*
X00425859Y00911916D02*
X00371313Y00911916D01*
X00328687Y00911916D02*
X00324000Y00911916D01*
X00402018Y00831923D02*
X00546526Y00831923D01*
X00535136Y00815925D02*
X00418016Y00815925D01*
X00434015Y00799926D02*
X00532000Y00799926D01*
X00535197Y00783928D02*
X00450013Y00783928D01*
X00394121Y00671938D02*
X00286995Y00671938D01*
X00292575Y00655939D02*
X00410119Y00655939D01*
X00426118Y00639941D02*
X00291916Y00639941D01*
X00284152Y00623942D02*
X00442116Y00623942D01*
X00458115Y00607944D02*
X00259721Y00607944D01*
X00240279Y00607944D02*
X00174000Y00607944D01*
X00174000Y00623942D02*
X00215848Y00623942D01*
X00208084Y00639941D02*
X00174000Y00639941D01*
X00189880Y00655939D02*
X00207425Y00655939D01*
X00200000Y00700000D02*
X00150000Y00650000D01*
X00150000Y00500000D01*
X00200000Y00450000D01*
X00208000Y00495954D02*
X00187987Y00495954D01*
X00174000Y00511953D02*
X00208000Y00511953D01*
X00218554Y00527951D02*
X00174000Y00527951D01*
X00174000Y00575947D02*
X00490112Y00575947D01*
X00474113Y00591945D02*
X00174000Y00591945D01*
X00100000Y00550000D02*
X00100000Y00450000D01*
X00150000Y00400000D01*
X00250000Y00400000D01*
X00300000Y00350000D01*
X00300000Y00300000D01*
X00350000Y00250000D01*
X00500000Y00250000D01*
X00504032Y00287973D02*
X00345968Y00287973D01*
X00329969Y00303972D02*
X00367974Y00303972D01*
X00356092Y00319970D02*
X00324000Y00319970D01*
X00324000Y00335969D02*
X00352000Y00335969D01*
X00353581Y00351968D02*
X00324000Y00351968D01*
X00315975Y00367966D02*
X00361912Y00367966D01*
X00386351Y00383965D02*
X00299976Y00383965D01*
X00283978Y00399963D02*
X00532000Y00399963D01*
X00535151Y00415962D02*
X00299903Y00415962D01*
X00315901Y00431960D02*
X00546563Y00431960D01*
X00535181Y00383965D02*
X00469649Y00383965D01*
X00504000Y00335969D02*
X00551086Y00335969D01*
X00536029Y00319970D02*
X00499908Y00319970D01*
X00488026Y00303972D02*
X00520031Y00303972D01*
X00700000Y00450000D02*
X00700000Y00500000D01*
X00732258Y00527951D02*
X01142554Y00527951D01*
X01133491Y00511953D02*
X00741132Y00511953D01*
X00742575Y00495954D02*
X01132000Y00495954D01*
X01136842Y00479956D02*
X00737780Y00479956D01*
X00724167Y00463957D02*
X01151264Y00463957D01*
X01253326Y00767929D02*
X01939008Y00767929D01*
X01939008Y00783928D02*
X01264803Y00783928D01*
X01268000Y00799926D02*
X01939008Y00799926D01*
X01939008Y00815925D02*
X01264864Y00815925D01*
X01253474Y00831923D02*
X01939008Y00831923D01*
X01939008Y00943913D02*
X00494000Y00943913D01*
X00494000Y00959911D02*
X00561031Y00959911D01*
X00538693Y00975910D02*
X00486315Y00975910D01*
X00490140Y00927914D02*
X00542517Y00927914D01*
X00538509Y01023906D02*
X00324000Y01023906D01*
X00324000Y01039904D02*
X00560586Y01039904D01*
X00300000Y01300000D02*
X00350000Y01350000D01*
X00388472Y01423869D02*
X00213045Y01423869D01*
X00200000Y01500000D02*
X00250000Y01550000D01*
X00800000Y01550000D01*
X00826356Y01583854D02*
X01135227Y01583854D01*
X01132000Y01599852D02*
X00668000Y01599852D01*
X00664895Y01615851D02*
X01135105Y01615851D01*
X01146453Y01631849D02*
X00653547Y01631849D01*
X00648469Y01663846D02*
X01151531Y01663846D01*
X01150209Y01664394D02*
X01165646Y01658000D01*
X01234354Y01658000D01*
X01249791Y01664394D01*
X01261606Y01676209D01*
X01268000Y01691646D01*
X01268000Y01708354D01*
X01261606Y01723791D01*
X01249791Y01735606D01*
X01234354Y01742000D01*
X01165646Y01742000D01*
X01150209Y01735606D01*
X01138394Y01723791D01*
X01132000Y01708354D01*
X01132000Y01691646D01*
X01138394Y01676209D01*
X01150209Y01664394D01*
X01136888Y01679845D02*
X00663112Y01679845D01*
X00668000Y01695844D02*
X01132000Y01695844D01*
X01133445Y01711842D02*
X00719132Y01711842D01*
X00736904Y01727841D02*
X01142444Y01727841D01*
X01161209Y01759838D02*
X00742008Y01759838D01*
X00742575Y01743839D02*
X01939008Y01743839D01*
X01939008Y01727841D02*
X01257556Y01727841D01*
X01266555Y01711842D02*
X01939008Y01711842D01*
X01939008Y01695844D02*
X01268000Y01695844D01*
X01263112Y01679845D02*
X01939008Y01679845D01*
X01939008Y01759838D02*
X01238791Y01759838D01*
X01234354Y01758000D02*
X01249791Y01764394D01*
X01261606Y01776209D01*
X01268000Y01791646D01*
X01268000Y01808354D01*
X01261606Y01823791D01*
X01249791Y01835606D01*
X01234354Y01842000D01*
X01165646Y01842000D01*
X01150209Y01835606D01*
X01138394Y01823791D01*
X01132000Y01808354D01*
X01132000Y01791646D01*
X01138394Y01776209D01*
X01150209Y01764394D01*
X01165646Y01758000D01*
X01234354Y01758000D01*
X01261233Y01775836D02*
X01939008Y01775836D01*
X01939008Y01791835D02*
X01268000Y01791835D01*
X01268000Y01807833D02*
X01939008Y01807833D01*
X01939008Y01823832D02*
X01261565Y01823832D01*
X01239592Y01839830D02*
X01939008Y01839830D01*
X01939008Y01855829D02*
X00392575Y01855829D01*
X00392575Y01858469D02*
X00386093Y01874117D01*
X00374117Y01886093D01*
X00374000Y01886141D01*
X00374000Y01945226D01*
X00374000Y01954774D01*
X00370346Y01963595D01*
X00220346Y02113595D01*
X00213595Y02120346D01*
X00212916Y02120627D01*
X00211606Y02123791D01*
X00199791Y02135606D01*
X00184354Y02142000D01*
X00115646Y02142000D01*
X00100209Y02135606D01*
X00088394Y02123791D01*
X00082000Y02108354D01*
X00082000Y02091646D01*
X00088394Y02076209D01*
X00100209Y02064394D01*
X00115646Y02058000D01*
X00184354Y02058000D01*
X00199791Y02064394D01*
X00200728Y02065331D01*
X00326000Y01940059D01*
X00326000Y01886141D01*
X00325883Y01886093D01*
X00313907Y01874117D01*
X00307425Y01858469D01*
X00307425Y01841531D01*
X00313907Y01825883D01*
X00325883Y01813907D01*
X00341531Y01807425D01*
X00358469Y01807425D01*
X00374117Y01813907D01*
X00386093Y01825883D01*
X00392575Y01841531D01*
X00392575Y01858469D01*
X00400209Y01864394D02*
X00415646Y01858000D01*
X00484354Y01858000D01*
X00499791Y01864394D01*
X00511397Y01876000D01*
X00538603Y01876000D01*
X00550209Y01864394D01*
X00565646Y01858000D01*
X00634354Y01858000D01*
X00649791Y01864394D01*
X00661606Y01876209D01*
X00668000Y01891646D01*
X00668000Y01908354D01*
X00661606Y01923791D01*
X00649791Y01935606D01*
X00634354Y01942000D01*
X00565646Y01942000D01*
X00550209Y01935606D01*
X00538603Y01924000D01*
X00511397Y01924000D01*
X00499791Y01935606D01*
X00484354Y01942000D01*
X00415646Y01942000D01*
X00400209Y01935606D01*
X00388394Y01923791D01*
X00382000Y01908354D01*
X00382000Y01891646D01*
X00388394Y01876209D01*
X00400209Y01864394D01*
X00392776Y01871827D02*
X00387041Y01871827D01*
X00383582Y01887826D02*
X00374000Y01887826D01*
X00374000Y01903824D02*
X00382000Y01903824D01*
X00386750Y01919823D02*
X00374000Y01919823D01*
X00374000Y01935821D02*
X00400729Y01935821D01*
X00415646Y01958000D02*
X00400209Y01964394D01*
X00388394Y01976209D01*
X00382000Y01991646D01*
X00382000Y02008354D01*
X00388394Y02023791D01*
X00400209Y02035606D01*
X00415646Y02042000D01*
X00484354Y02042000D01*
X00499791Y02035606D01*
X00511397Y02024000D01*
X00538603Y02024000D01*
X00550209Y02035606D01*
X00565646Y02042000D01*
X00634354Y02042000D01*
X00649791Y02035606D01*
X00661606Y02023791D01*
X00668000Y02008354D01*
X00668000Y01991646D01*
X00661606Y01976209D01*
X00649791Y01964394D01*
X00634354Y01958000D01*
X00565646Y01958000D01*
X00550209Y01964394D01*
X00538603Y01976000D01*
X00511397Y01976000D01*
X00499791Y01964394D01*
X00484354Y01958000D01*
X00415646Y01958000D01*
X00396785Y01967818D02*
X00366123Y01967818D01*
X00374000Y01951820D02*
X01939008Y01951820D01*
X01939008Y01967818D02*
X01253215Y01967818D01*
X01249791Y01964394D02*
X01261606Y01976209D01*
X01268000Y01991646D01*
X01268000Y02008354D01*
X01261606Y02023791D01*
X01249791Y02035606D01*
X01234354Y02042000D01*
X01165646Y02042000D01*
X01150209Y02035606D01*
X01138394Y02023791D01*
X01132000Y02008354D01*
X01132000Y01991646D01*
X01138394Y01976209D01*
X01150209Y01964394D01*
X01165646Y01958000D01*
X01234354Y01958000D01*
X01249791Y01964394D01*
X01264757Y01983817D02*
X01939008Y01983817D01*
X01939008Y01999815D02*
X01268000Y01999815D01*
X01264910Y02015814D02*
X01939008Y02015814D01*
X01939008Y02031813D02*
X01253584Y02031813D01*
X01234354Y02058000D02*
X01249791Y02064394D01*
X01261606Y02076209D01*
X01268000Y02091646D01*
X01268000Y02108354D01*
X01261606Y02123791D01*
X01249791Y02135606D01*
X01234354Y02142000D01*
X01165646Y02142000D01*
X01150209Y02135606D01*
X01138394Y02123791D01*
X01132000Y02108354D01*
X01132000Y02091646D01*
X01138394Y02076209D01*
X01150209Y02064394D01*
X01165646Y02058000D01*
X01234354Y02058000D01*
X01248380Y02063810D02*
X01939008Y02063810D01*
X01939008Y02079808D02*
X01263097Y02079808D01*
X01268000Y02095807D02*
X01939008Y02095807D01*
X01939008Y02111805D02*
X01266571Y02111805D01*
X01257593Y02127804D02*
X01939008Y02127804D01*
X01939008Y02143802D02*
X00048000Y02143802D01*
X00048000Y02127804D02*
X00092407Y02127804D01*
X00083429Y02111805D02*
X00048000Y02111805D01*
X00048000Y02095807D02*
X00082000Y02095807D01*
X00086903Y02079808D02*
X00048000Y02079808D01*
X00048000Y02063810D02*
X00101620Y02063810D01*
X00115646Y02042000D02*
X00100209Y02035606D01*
X00088394Y02023791D01*
X00082000Y02008354D01*
X00082000Y01991646D01*
X00088394Y01976209D01*
X00100209Y01964394D01*
X00115646Y01958000D01*
X00184354Y01958000D01*
X00199791Y01964394D01*
X00211606Y01976209D01*
X00218000Y01991646D01*
X00218000Y02008354D01*
X00211606Y02023791D01*
X00199791Y02035606D01*
X00184354Y02042000D01*
X00115646Y02042000D01*
X00096416Y02031813D02*
X00048000Y02031813D01*
X00048000Y02047811D02*
X00218248Y02047811D01*
X00203584Y02031813D02*
X00234246Y02031813D01*
X00250245Y02015814D02*
X00214910Y02015814D01*
X00218000Y01999815D02*
X00266243Y01999815D01*
X00282242Y01983817D02*
X00214757Y01983817D01*
X00203215Y01967818D02*
X00298240Y01967818D01*
X00314239Y01951820D02*
X00048000Y01951820D01*
X00048000Y01967818D02*
X00096785Y01967818D01*
X00085243Y01983817D02*
X00048000Y01983817D01*
X00048000Y01999815D02*
X00082000Y01999815D01*
X00085090Y02015814D02*
X00048000Y02015814D01*
X00048000Y01935821D02*
X00100729Y01935821D01*
X00100209Y01935606D02*
X00088394Y01923791D01*
X00082000Y01908354D01*
X00082000Y01891646D01*
X00088394Y01876209D01*
X00100209Y01864394D01*
X00115646Y01858000D01*
X00184354Y01858000D01*
X00199791Y01864394D01*
X00211606Y01876209D01*
X00218000Y01891646D01*
X00218000Y01908354D01*
X00211606Y01923791D01*
X00199791Y01935606D01*
X00184354Y01942000D01*
X00115646Y01942000D01*
X00100209Y01935606D01*
X00086750Y01919823D02*
X00048000Y01919823D01*
X00048000Y01903824D02*
X00082000Y01903824D01*
X00083582Y01887826D02*
X00048000Y01887826D01*
X00048000Y01871827D02*
X00092776Y01871827D01*
X00110408Y01839830D02*
X00048000Y01839830D01*
X00048000Y01823832D02*
X00088435Y01823832D01*
X00082000Y01807833D02*
X00048000Y01807833D01*
X00048000Y01791835D02*
X00082000Y01791835D01*
X00088767Y01775836D02*
X00048000Y01775836D01*
X00048000Y01759838D02*
X00111209Y01759838D01*
X00119522Y01743839D02*
X00048000Y01743839D01*
X00048000Y01727841D02*
X00089840Y01727841D01*
X00081583Y01711842D02*
X00048000Y01711842D01*
X00048000Y01695844D02*
X00080110Y01695844D01*
X00084887Y01679845D02*
X00048000Y01679845D01*
X00048000Y01535858D02*
X00100818Y01535858D01*
X00085919Y01519860D02*
X00048000Y01519860D01*
X00048000Y01503861D02*
X00069920Y01503861D01*
X00053922Y01487863D02*
X00048000Y01487863D01*
X00250000Y01750000D02*
X00700000Y01750000D01*
X00680868Y01711842D02*
X00666555Y01711842D01*
X00665626Y01775836D02*
X00661233Y01775836D01*
X00668000Y01791835D02*
X00689745Y01791835D01*
X00710255Y01791835D02*
X01132000Y01791835D01*
X01132000Y01807833D02*
X00668000Y01807833D01*
X00661565Y01823832D02*
X01138435Y01823832D01*
X01160408Y01839830D02*
X00639592Y01839830D01*
X00657224Y01871827D02*
X01142776Y01871827D01*
X01138394Y01876209D02*
X01150209Y01864394D01*
X01165646Y01858000D01*
X01234354Y01858000D01*
X01249791Y01864394D01*
X01261606Y01876209D01*
X01268000Y01891646D01*
X01268000Y01908354D01*
X01261606Y01923791D01*
X01249791Y01935606D01*
X01234354Y01942000D01*
X01165646Y01942000D01*
X01150209Y01935606D01*
X01138394Y01923791D01*
X01132000Y01908354D01*
X01132000Y01891646D01*
X01138394Y01876209D01*
X01133582Y01887826D02*
X00666418Y01887826D01*
X00668000Y01903824D02*
X01132000Y01903824D01*
X01136750Y01919823D02*
X00663250Y01919823D01*
X00649271Y01935821D02*
X01150729Y01935821D01*
X01146785Y01967818D02*
X00653215Y01967818D01*
X00664757Y01983817D02*
X01135243Y01983817D01*
X01132000Y01999815D02*
X00668000Y01999815D01*
X00664910Y02015814D02*
X01135090Y02015814D01*
X01146416Y02031813D02*
X00653584Y02031813D01*
X00634354Y02058000D02*
X00649791Y02064394D01*
X00661606Y02076209D01*
X00668000Y02091646D01*
X00668000Y02108354D01*
X00661606Y02123791D01*
X00649791Y02135606D01*
X00634354Y02142000D01*
X00565646Y02142000D01*
X00550209Y02135606D01*
X00538603Y02124000D01*
X00511397Y02124000D01*
X00499791Y02135606D01*
X00484354Y02142000D01*
X00415646Y02142000D01*
X00400209Y02135606D01*
X00388394Y02123791D01*
X00382000Y02108354D01*
X00382000Y02091646D01*
X00388394Y02076209D01*
X00400209Y02064394D01*
X00415646Y02058000D01*
X00484354Y02058000D01*
X00499791Y02064394D01*
X00511397Y02076000D01*
X00538603Y02076000D01*
X00550209Y02064394D01*
X00565646Y02058000D01*
X00634354Y02058000D01*
X00648380Y02063810D02*
X01151620Y02063810D01*
X01136903Y02079808D02*
X00663097Y02079808D01*
X00668000Y02095807D02*
X01132000Y02095807D01*
X01133429Y02111805D02*
X00666571Y02111805D01*
X00657593Y02127804D02*
X01142407Y02127804D01*
X01249271Y01935821D02*
X01939008Y01935821D01*
X01939008Y01919823D02*
X01263250Y01919823D01*
X01268000Y01903824D02*
X01939008Y01903824D01*
X01939008Y01887826D02*
X01266418Y01887826D01*
X01257224Y01871827D02*
X01939008Y01871827D01*
X01939008Y02047811D02*
X00286130Y02047811D01*
X00302128Y02031813D02*
X00396416Y02031813D01*
X00385090Y02015814D02*
X00318127Y02015814D01*
X00334125Y01999815D02*
X00382000Y01999815D01*
X00385243Y01983817D02*
X00350124Y01983817D01*
X00350000Y01950000D02*
X00200000Y02100000D01*
X00150000Y02100000D01*
X00198380Y02063810D02*
X00202249Y02063810D01*
X00222136Y02111805D02*
X00383429Y02111805D01*
X00382000Y02095807D02*
X00238134Y02095807D01*
X00254133Y02079808D02*
X00386903Y02079808D01*
X00401620Y02063810D02*
X00270131Y02063810D01*
X00207593Y02127804D02*
X00392407Y02127804D01*
X00411298Y02159801D02*
X00188702Y02159801D01*
X00184354Y02158000D02*
X00199791Y02164394D01*
X00211606Y02176209D01*
X00218000Y02191646D01*
X00218000Y02208354D01*
X00211606Y02223791D01*
X00199791Y02235606D01*
X00184354Y02242000D01*
X00115646Y02242000D01*
X00100209Y02235606D01*
X00088394Y02223791D01*
X00082000Y02208354D01*
X00082000Y02191646D01*
X00088394Y02176209D01*
X00100209Y02164394D01*
X00115646Y02158000D01*
X00184354Y02158000D01*
X00211196Y02175799D02*
X00388804Y02175799D01*
X00388394Y02176209D02*
X00400209Y02164394D01*
X00415646Y02158000D01*
X00484354Y02158000D01*
X00499791Y02164394D01*
X00511606Y02176209D01*
X00518000Y02191646D01*
X00518000Y02208354D01*
X00511606Y02223791D01*
X00499791Y02235606D01*
X00484354Y02242000D01*
X00415646Y02242000D01*
X00400209Y02235606D01*
X00388394Y02223791D01*
X00382000Y02208354D01*
X00382000Y02191646D01*
X00388394Y02176209D01*
X00382000Y02191798D02*
X00218000Y02191798D01*
X00218000Y02207796D02*
X00382000Y02207796D01*
X00388398Y02223795D02*
X00211602Y02223795D01*
X00189681Y02239793D02*
X00410319Y02239793D01*
X00415646Y02258000D02*
X00400209Y02264394D01*
X00388394Y02276209D01*
X00382000Y02291646D01*
X00382000Y02308354D01*
X00388394Y02323791D01*
X00400209Y02335606D01*
X00415646Y02342000D01*
X00484354Y02342000D01*
X00499791Y02335606D01*
X00511606Y02323791D01*
X00518000Y02308354D01*
X00518000Y02291646D01*
X00511606Y02276209D01*
X00499791Y02264394D01*
X00484354Y02258000D01*
X00415646Y02258000D01*
X00392813Y02271790D02*
X00207187Y02271790D01*
X00211606Y02276209D02*
X00218000Y02291646D01*
X00218000Y02308354D01*
X00211606Y02323791D01*
X00199791Y02335606D01*
X00184354Y02342000D01*
X00115646Y02342000D01*
X00100209Y02335606D01*
X00088394Y02323791D01*
X00082000Y02308354D01*
X00082000Y02291646D01*
X00088394Y02276209D01*
X00100209Y02264394D01*
X00115646Y02258000D01*
X00184354Y02258000D01*
X00199791Y02264394D01*
X00211606Y02276209D01*
X00216402Y02287789D02*
X00383597Y02287789D01*
X00382000Y02303787D02*
X00218000Y02303787D01*
X00213265Y02319786D02*
X00386735Y02319786D01*
X00400640Y02335784D02*
X00199360Y02335784D01*
X00110319Y02239793D02*
X00048000Y02239793D01*
X00048000Y02223795D02*
X00088398Y02223795D01*
X00082000Y02207796D02*
X00048000Y02207796D01*
X00048000Y02191798D02*
X00082000Y02191798D01*
X00088804Y02175799D02*
X00048000Y02175799D01*
X00048000Y02159801D02*
X00111298Y02159801D01*
X00092813Y02271790D02*
X00048000Y02271790D01*
X00048000Y02255792D02*
X01939008Y02255792D01*
X01939008Y02271790D02*
X00507187Y02271790D01*
X00516402Y02287789D02*
X01939008Y02287789D01*
X01939008Y02303787D02*
X00518000Y02303787D01*
X00513265Y02319786D02*
X00670004Y02319786D01*
X00675883Y02313907D02*
X00663907Y02325883D01*
X00657425Y02341531D01*
X00657425Y02358469D01*
X00663907Y02374117D01*
X00675883Y02386093D01*
X00691531Y02392575D01*
X00708469Y02392575D01*
X00724117Y02386093D01*
X00736093Y02374117D01*
X00736141Y02374000D01*
X00873603Y02374000D01*
X00885209Y02385606D01*
X00900646Y02392000D01*
X00969354Y02392000D01*
X00984791Y02385606D01*
X00996606Y02373791D01*
X01003000Y02358354D01*
X01003000Y02341646D01*
X00996606Y02326209D01*
X00984791Y02314394D01*
X00969354Y02308000D01*
X00900646Y02308000D01*
X00885209Y02314394D01*
X00873603Y02326000D01*
X00736141Y02326000D01*
X00736093Y02325883D01*
X00724117Y02313907D01*
X00708469Y02307425D01*
X00691531Y02307425D01*
X00675883Y02313907D01*
X00659806Y02335784D02*
X00499360Y02335784D01*
X00571998Y02415777D02*
X00048000Y02415777D01*
X00048000Y02399779D02*
X01939008Y02399779D01*
X01939008Y02415777D02*
X00986174Y02415777D01*
X00984791Y02414394D02*
X00996606Y02426209D01*
X01003000Y02441646D01*
X01003000Y02458354D01*
X00996606Y02473791D01*
X00984791Y02485606D01*
X00969354Y02492000D01*
X00900646Y02492000D01*
X00885209Y02485606D01*
X00873394Y02473791D01*
X00867000Y02458354D01*
X00867000Y02441646D01*
X00873394Y02426209D01*
X00885209Y02414394D01*
X00900646Y02408000D01*
X00969354Y02408000D01*
X00984791Y02414394D01*
X00998912Y02431776D02*
X01120949Y02431776D01*
X01118730Y02433388D02*
X01124843Y02428947D01*
X01131574Y02425517D01*
X01138760Y02423182D01*
X01146222Y02422000D01*
X01148000Y02422000D01*
X01148000Y02497999D01*
X01152000Y02497999D01*
X01152000Y02422000D01*
X01153778Y02422000D01*
X01161240Y02423182D01*
X01168426Y02425517D01*
X01175157Y02428947D01*
X01181270Y02433388D01*
X01186612Y02438730D01*
X01191053Y02444843D01*
X01194483Y02451574D01*
X01196818Y02458760D01*
X01198000Y02466222D01*
X01198000Y02498000D01*
X01152001Y02498000D01*
X01152001Y02502000D01*
X01198000Y02502000D01*
X01198000Y02533778D01*
X01196818Y02541240D01*
X01194483Y02548426D01*
X01191053Y02555157D01*
X01186612Y02561270D01*
X01181270Y02566612D01*
X01175157Y02571053D01*
X01168426Y02574483D01*
X01161240Y02576818D01*
X01153778Y02578000D01*
X01152000Y02578000D01*
X01152000Y02502001D01*
X01148000Y02502001D01*
X01148000Y02578000D01*
X01146222Y02578000D01*
X01138760Y02576818D01*
X01131574Y02574483D01*
X01124843Y02571053D01*
X01118730Y02566612D01*
X01113388Y02561270D01*
X01108947Y02555157D01*
X01105517Y02548426D01*
X01103182Y02541240D01*
X01102000Y02533778D01*
X01102000Y02502000D01*
X01147999Y02502000D01*
X01147999Y02498000D01*
X01102000Y02498000D01*
X01102000Y02466222D01*
X01103182Y02458760D01*
X01105517Y02451574D01*
X01108947Y02444843D01*
X01113388Y02438730D01*
X01118730Y02433388D01*
X01107453Y02447774D02*
X01003000Y02447774D01*
X01000756Y02463773D02*
X01102388Y02463773D01*
X01102000Y02479771D02*
X00990626Y02479771D01*
X00977890Y02509224D02*
X00984061Y02512368D01*
X00989664Y02516439D01*
X00994561Y02521336D01*
X00998632Y02526939D01*
X01001776Y02533110D01*
X01003916Y02539697D01*
X01005000Y02546537D01*
X01005000Y02549999D01*
X00935001Y02549999D01*
X00935001Y02550000D01*
X01005000Y02550000D01*
X01005000Y02553463D01*
X01003916Y02560303D01*
X01001776Y02566890D01*
X00998632Y02573061D01*
X00994561Y02578664D01*
X00989664Y02583561D01*
X00984061Y02587632D01*
X00977890Y02590776D01*
X00971303Y02592916D01*
X00964463Y02594000D01*
X00935000Y02594000D01*
X00935000Y02550001D01*
X00934999Y02550001D01*
X00934999Y02594000D01*
X00905537Y02594000D01*
X00898697Y02592916D01*
X00892110Y02590776D01*
X00885939Y02587632D01*
X00880336Y02583561D01*
X00875439Y02578664D01*
X00871368Y02573061D01*
X00868224Y02566890D01*
X00866083Y02560303D01*
X00865000Y02553463D01*
X00865000Y02550000D01*
X00934999Y02550000D01*
X00934999Y02549999D01*
X00935000Y02549999D01*
X00935000Y02506000D01*
X00964463Y02506000D01*
X00971303Y02507083D01*
X00977890Y02509224D01*
X00982884Y02511768D02*
X01102000Y02511768D01*
X01102000Y02495770D02*
X00048000Y02495770D01*
X00048000Y02511768D02*
X00578835Y02511768D01*
X00582603Y02508000D02*
X00617397Y02508000D01*
X00642000Y02532603D01*
X00642000Y02567397D01*
X00617397Y02592000D01*
X00582603Y02592000D01*
X00558000Y02567397D01*
X00558000Y02532603D01*
X00582603Y02508000D01*
X00581775Y02494000D02*
X00556000Y02468225D01*
X00556000Y02450000D01*
X00599999Y02450000D01*
X00599999Y02449999D01*
X00556000Y02449999D01*
X00556000Y02431775D01*
X00581775Y02406000D01*
X00599999Y02406000D01*
X00599999Y02449999D01*
X00600000Y02449999D01*
X00600000Y02406000D01*
X00618225Y02406000D01*
X00644000Y02431775D01*
X00644000Y02449999D01*
X00600001Y02449999D01*
X00600001Y02450000D01*
X00644000Y02450000D01*
X00644000Y02468225D01*
X00618225Y02494000D01*
X00600000Y02494000D01*
X00600000Y02450001D01*
X00599999Y02450001D01*
X00599999Y02494000D01*
X00581775Y02494000D01*
X00567546Y02479771D02*
X00048000Y02479771D01*
X00048000Y02463773D02*
X00556000Y02463773D01*
X00556000Y02447774D02*
X00048000Y02447774D01*
X00048000Y02431776D02*
X00556000Y02431776D01*
X00599999Y02431776D02*
X00600000Y02431776D01*
X00599999Y02447774D02*
X00600000Y02447774D01*
X00599999Y02463773D02*
X00600000Y02463773D01*
X00599999Y02479771D02*
X00600000Y02479771D01*
X00632454Y02479771D02*
X00879374Y02479771D01*
X00869244Y02463773D02*
X00644000Y02463773D01*
X00644000Y02447774D02*
X00867000Y02447774D01*
X00871088Y02431776D02*
X00644000Y02431776D01*
X00628002Y02415777D02*
X00883826Y02415777D01*
X00883383Y02383780D02*
X00726430Y02383780D01*
X00700000Y02350000D02*
X00935000Y02350000D01*
X00879817Y02319786D02*
X00729996Y02319786D01*
X00657425Y02351783D02*
X00048000Y02351783D01*
X00048000Y02335784D02*
X00100640Y02335784D01*
X00086735Y02319786D02*
X00048000Y02319786D01*
X00048000Y02303787D02*
X00082000Y02303787D01*
X00083597Y02287789D02*
X00048000Y02287789D01*
X00048000Y02367781D02*
X00661283Y02367781D01*
X00673570Y02383780D02*
X00048000Y02383780D01*
X00048000Y02527767D02*
X00562836Y02527767D01*
X00558000Y02543765D02*
X00048000Y02543765D01*
X00048000Y02559764D02*
X00558000Y02559764D01*
X00566365Y02575762D02*
X00048000Y02575762D01*
X00048000Y02591761D02*
X00582364Y02591761D01*
X00617636Y02591761D02*
X00895140Y02591761D01*
X00873331Y02575762D02*
X00633634Y02575762D01*
X00642000Y02559764D02*
X00865998Y02559764D01*
X00865000Y02549999D02*
X00865000Y02546537D01*
X00866083Y02539697D01*
X00868224Y02533110D01*
X00871368Y02526939D01*
X00875439Y02521336D01*
X00880336Y02516439D01*
X00885939Y02512368D01*
X00892110Y02509224D01*
X00898697Y02507083D01*
X00905537Y02506000D01*
X00934999Y02506000D01*
X00934999Y02549999D01*
X00865000Y02549999D01*
X00865439Y02543765D02*
X00642000Y02543765D01*
X00637164Y02527767D02*
X00870946Y02527767D01*
X00887116Y02511768D02*
X00621165Y02511768D01*
X00599999Y02415777D02*
X00600000Y02415777D01*
X00489681Y02239793D02*
X01939008Y02239793D01*
X01939008Y02223795D02*
X00511602Y02223795D01*
X00518000Y02207796D02*
X01939008Y02207796D01*
X01939008Y02191798D02*
X00518000Y02191798D01*
X00511196Y02175799D02*
X01939008Y02175799D01*
X01939008Y02159801D02*
X00488702Y02159801D01*
X00507593Y02127804D02*
X00542407Y02127804D01*
X00551620Y02063810D02*
X00498380Y02063810D01*
X00503584Y02031813D02*
X00546416Y02031813D01*
X00546785Y01967818D02*
X00503215Y01967818D01*
X00499271Y01935821D02*
X00550729Y01935821D01*
X00542776Y01871827D02*
X00507224Y01871827D01*
X00489592Y01839830D02*
X00560408Y01839830D01*
X00600000Y01800000D02*
X00450000Y01800000D01*
X00410408Y01839830D02*
X00391870Y01839830D01*
X00388435Y01823832D02*
X00384041Y01823832D01*
X00382000Y01807833D02*
X00359453Y01807833D01*
X00340546Y01807833D02*
X00226108Y01807833D01*
X00211565Y01823832D02*
X00315958Y01823832D01*
X00308130Y01839830D02*
X00189592Y01839830D01*
X00207224Y01871827D02*
X00312959Y01871827D01*
X00307425Y01855829D02*
X00048000Y01855829D01*
X00199271Y01935821D02*
X00326000Y01935821D01*
X00326000Y01919823D02*
X00213250Y01919823D01*
X00218000Y01903824D02*
X00326000Y01903824D01*
X00326000Y01887826D02*
X00216418Y01887826D01*
X00242106Y01791835D02*
X00382000Y01791835D01*
X00388767Y01775836D02*
X00258105Y01775836D01*
X00350000Y01850000D02*
X00350000Y01950000D01*
X00450000Y01900000D02*
X00600000Y01900000D01*
X00600000Y02000000D02*
X00450000Y02000000D01*
X00450000Y02100000D02*
X00600000Y02100000D01*
X00734374Y01775836D02*
X01138767Y01775836D01*
X01249182Y01535858D02*
X01939008Y01535858D01*
X01939008Y01519860D02*
X01263234Y01519860D01*
X01268000Y01503861D02*
X01939008Y01503861D01*
X01939008Y01487863D02*
X01266433Y01487863D01*
X01257261Y01471864D02*
X01939008Y01471864D01*
X01939008Y02319786D02*
X00990183Y02319786D01*
X01000572Y02335784D02*
X01939008Y02335784D01*
X01939008Y02351783D02*
X01003000Y02351783D01*
X00999095Y02367781D02*
X01939008Y02367781D01*
X01939008Y02383780D02*
X00986617Y02383780D01*
X00934999Y02511768D02*
X00935000Y02511768D01*
X00934999Y02527767D02*
X00935000Y02527767D01*
X00934999Y02543765D02*
X00935000Y02543765D01*
X00934999Y02559764D02*
X00935000Y02559764D01*
X00934999Y02575762D02*
X00935000Y02575762D01*
X00934999Y02591761D02*
X00935000Y02591761D01*
X00974860Y02591761D02*
X01939008Y02591761D01*
X01939008Y02607759D02*
X00048000Y02607759D01*
X00048000Y02623758D02*
X01939008Y02623758D01*
X01939008Y02639756D02*
X00048000Y02639756D01*
X00450000Y01700000D02*
X00600000Y01700000D01*
X00551531Y01663846D02*
X00498469Y01663846D01*
X00503547Y01631849D02*
X00546453Y01631849D01*
X00600000Y01600000D02*
X00450000Y01600000D01*
X00664772Y01583854D02*
X00773644Y01583854D01*
X00769930Y01519860D02*
X00663234Y01519860D01*
X01148000Y02431776D02*
X01152000Y02431776D01*
X01152000Y02447774D02*
X01148000Y02447774D01*
X01148000Y02463773D02*
X01152000Y02463773D01*
X01152000Y02479771D02*
X01148000Y02479771D01*
X01148000Y02495770D02*
X01152000Y02495770D01*
X01152000Y02511768D02*
X01148000Y02511768D01*
X01148000Y02527767D02*
X01152000Y02527767D01*
X01152000Y02543765D02*
X01148000Y02543765D01*
X01148000Y02559764D02*
X01152000Y02559764D01*
X01152000Y02575762D02*
X01148000Y02575762D01*
X01135511Y02575762D02*
X00996669Y02575762D01*
X01004002Y02559764D02*
X01112294Y02559764D01*
X01104002Y02543765D02*
X01004561Y02543765D01*
X00999054Y02527767D02*
X01102000Y02527767D01*
X01164489Y02575762D02*
X01240276Y02575762D01*
X01240850Y02576000D02*
X01223943Y02568997D01*
X01211003Y02556057D01*
X01204000Y02539150D01*
X01204000Y02460850D01*
X01211003Y02443943D01*
X01223943Y02431003D01*
X01240850Y02424000D01*
X01259150Y02424000D01*
X01276057Y02431003D01*
X01288997Y02443943D01*
X01296000Y02460850D01*
X01296000Y02539150D01*
X01288997Y02556057D01*
X01276057Y02568997D01*
X01259150Y02576000D01*
X01240850Y02576000D01*
X01259724Y02575762D02*
X01939008Y02575762D01*
X01939008Y02559764D02*
X01285290Y02559764D01*
X01294088Y02543765D02*
X01939008Y02543765D01*
X01939008Y02527767D02*
X01296000Y02527767D01*
X01296000Y02511768D02*
X01939008Y02511768D01*
X01939008Y02495770D02*
X01296000Y02495770D01*
X01296000Y02479771D02*
X01939008Y02479771D01*
X01939008Y02463773D02*
X01296000Y02463773D01*
X01290584Y02447774D02*
X01939008Y02447774D01*
X01939008Y02431776D02*
X01276829Y02431776D01*
X01223171Y02431776D02*
X01179051Y02431776D01*
X01192547Y02447774D02*
X01209416Y02447774D01*
X01204000Y02463773D02*
X01197612Y02463773D01*
X01198000Y02479771D02*
X01204000Y02479771D01*
X01204000Y02495770D02*
X01198000Y02495770D01*
X01198000Y02511768D02*
X01204000Y02511768D01*
X01204000Y02527767D02*
X01198000Y02527767D01*
X01195998Y02543765D02*
X01205912Y02543765D01*
X01214710Y02559764D02*
X01187706Y02559764D01*
X00250000Y00500000D02*
X00300000Y00450000D01*
X00250000Y00400000D01*
X00248093Y00367966D02*
X00238088Y00367966D01*
X00246419Y00351968D02*
X00264091Y00351968D01*
X00276000Y00335969D02*
X00248000Y00335969D01*
X00243908Y00319970D02*
X00276000Y00319970D01*
X00276000Y00303972D02*
X00232026Y00303972D01*
D17*
X00300000Y00200000D03*
X00200000Y00450000D03*
X00100000Y00550000D03*
X00250000Y00650000D03*
X00100000Y01200000D03*
X00100000Y01300000D03*
X00250000Y01300000D03*
X00350000Y01350000D03*
X00700000Y01750000D03*
X00800000Y01550000D03*
X00350000Y01850000D03*
X00700000Y02350000D03*
X00700000Y00500000D03*
M02*
